G04 PROTEUS RS274X GERBER FILE*
%FSLAX45Y45*%
%MOMM*%
G01*
%AMPPAD052*
4,1,48,
-0.552000,-0.023800,
-0.552000,0.023800,
-0.550970,0.044920,
-0.547960,0.065350,
-0.543040,0.085000,
-0.527890,0.121580,
-0.506270,0.153910,
-0.478920,0.181270,
-0.446580,0.202890,
-0.410000,0.218040,
-0.390350,0.222960,
-0.369920,0.225970,
-0.348800,0.227000,
0.348800,0.227000,
0.369920,0.225970,
0.390350,0.222960,
0.410000,0.218040,
0.446580,0.202890,
0.478920,0.181270,
0.506270,0.153910,
0.527890,0.121580,
0.543040,0.085000,
0.547960,0.065350,
0.550970,0.044920,
0.552000,0.023800,
0.552000,-0.023800,
0.550970,-0.044920,
0.547960,-0.065350,
0.543040,-0.085000,
0.527890,-0.121580,
0.506270,-0.153910,
0.478920,-0.181270,
0.446580,-0.202890,
0.410000,-0.218040,
0.390350,-0.222960,
0.369920,-0.225970,
0.348800,-0.227000,
-0.348800,-0.227000,
-0.369920,-0.225970,
-0.390350,-0.222960,
-0.410000,-0.218040,
-0.446580,-0.202890,
-0.478920,-0.181270,
-0.506270,-0.153910,
-0.527890,-0.121580,
-0.543040,-0.085000,
-0.547960,-0.065350,
-0.550970,-0.044920,
-0.552000,-0.023800,
0*%
%ADD58PPAD052*%
%AMPPAD053*
4,1,48,
0.023800,-0.552000,
-0.023800,-0.552000,
-0.044920,-0.550970,
-0.065350,-0.547960,
-0.085000,-0.543040,
-0.121580,-0.527890,
-0.153910,-0.506270,
-0.181270,-0.478920,
-0.202890,-0.446580,
-0.218040,-0.410000,
-0.222960,-0.390350,
-0.225970,-0.369920,
-0.227000,-0.348800,
-0.227000,0.348800,
-0.225970,0.369920,
-0.222960,0.390350,
-0.218040,0.410000,
-0.202890,0.446580,
-0.181270,0.478920,
-0.153910,0.506270,
-0.121580,0.527890,
-0.085000,0.543040,
-0.065350,0.547960,
-0.044920,0.550970,
-0.023800,0.552000,
0.023800,0.552000,
0.044920,0.550970,
0.065350,0.547960,
0.085000,0.543040,
0.121580,0.527890,
0.153910,0.506270,
0.181270,0.478920,
0.202890,0.446580,
0.218040,0.410000,
0.222960,0.390350,
0.225970,0.369920,
0.227000,0.348800,
0.227000,-0.348800,
0.225970,-0.369920,
0.222960,-0.390350,
0.218040,-0.410000,
0.202890,-0.446580,
0.181270,-0.478920,
0.153910,-0.506270,
0.121580,-0.527890,
0.085000,-0.543040,
0.065350,-0.547960,
0.044920,-0.550970,
0.023800,-0.552000,
0*%
%ADD59PPAD053*%
%AMPPAD054*
4,1,44,
0.746000,-1.127000,
-0.746000,-1.127000,
-0.785600,-1.125080,
-0.823900,-1.119420,
-0.895940,-1.097610,
-0.960730,-1.062960,
-1.016870,-1.016870,
-1.062960,-0.960730,
-1.097610,-0.895940,
-1.119420,-0.823900,
-1.125080,-0.785600,
-1.127000,-0.746000,
-1.127000,0.746000,
-1.125080,0.785600,
-1.119420,0.823900,
-1.097610,0.895940,
-1.062960,0.960730,
-1.016870,1.016870,
-0.960730,1.062960,
-0.895940,1.097610,
-0.823900,1.119420,
-0.785600,1.125080,
-0.746000,1.127000,
0.746000,1.127000,
0.785600,1.125080,
0.823900,1.119420,
0.895940,1.097610,
0.960730,1.062960,
1.016870,1.016870,
1.062960,0.960730,
1.097610,0.895940,
1.119420,0.823900,
1.125080,0.785600,
1.127000,0.746000,
1.127000,-0.746000,
1.125080,-0.785600,
1.119420,-0.823900,
1.097610,-0.895940,
1.062960,-0.960730,
1.016870,-1.016870,
0.960730,-1.062960,
0.895940,-1.097610,
0.823900,-1.119420,
0.785600,-1.125080,
0.746000,-1.127000,
0*%
%ADD60PPAD054*%
%AMPPAD055*
4,1,36,
0.390000,-0.517000,
-0.390000,-0.517000,
-0.415970,-0.514470,
-0.439980,-0.507200,
-0.461580,-0.495650,
-0.480290,-0.480290,
-0.495650,-0.461570,
-0.507200,-0.439980,
-0.514470,-0.415970,
-0.517000,-0.390000,
-0.517000,0.390000,
-0.514470,0.415970,
-0.507200,0.439980,
-0.495650,0.461570,
-0.480290,0.480290,
-0.461580,0.495650,
-0.439980,0.507200,
-0.415970,0.514470,
-0.390000,0.517000,
0.390000,0.517000,
0.415970,0.514470,
0.439980,0.507200,
0.461580,0.495650,
0.480290,0.480290,
0.495650,0.461570,
0.507200,0.439980,
0.514470,0.415970,
0.517000,0.390000,
0.517000,-0.390000,
0.514470,-0.415970,
0.507200,-0.439980,
0.495650,-0.461570,
0.480290,-0.480290,
0.461580,-0.495650,
0.439980,-0.507200,
0.415970,-0.514470,
0.390000,-0.517000,
0*%
%ADD61PPAD055*%
%AMPPAD056*
4,1,36,
-0.477000,-0.500000,
-0.477000,0.500000,
-0.474470,0.525970,
-0.467200,0.549980,
-0.455650,0.571580,
-0.440290,0.590290,
-0.421570,0.605650,
-0.399980,0.617200,
-0.375970,0.624470,
-0.350000,0.627000,
0.350000,0.627000,
0.375970,0.624470,
0.399980,0.617200,
0.421570,0.605650,
0.440290,0.590290,
0.455650,0.571580,
0.467200,0.549980,
0.474470,0.525970,
0.477000,0.500000,
0.477000,-0.500000,
0.474470,-0.525970,
0.467200,-0.549980,
0.455650,-0.571580,
0.440290,-0.590290,
0.421570,-0.605650,
0.399980,-0.617200,
0.375970,-0.624470,
0.350000,-0.627000,
-0.350000,-0.627000,
-0.375970,-0.624470,
-0.399980,-0.617200,
-0.421570,-0.605650,
-0.440290,-0.590290,
-0.455650,-0.571580,
-0.467200,-0.549980,
-0.474470,-0.525970,
-0.477000,-0.500000,
0*%
%ADD62PPAD056*%
%AMPPAD057*
4,1,36,
0.527000,0.400000,
0.527000,-0.400000,
0.524470,-0.425970,
0.517200,-0.449980,
0.505650,-0.471580,
0.490290,-0.490290,
0.471570,-0.505650,
0.449980,-0.517200,
0.425970,-0.524470,
0.400000,-0.527000,
-0.400000,-0.527000,
-0.425970,-0.524470,
-0.449980,-0.517200,
-0.471570,-0.505650,
-0.490290,-0.490290,
-0.505650,-0.471580,
-0.517200,-0.449980,
-0.524470,-0.425970,
-0.527000,-0.400000,
-0.527000,0.400000,
-0.524470,0.425970,
-0.517200,0.449980,
-0.505650,0.471580,
-0.490290,0.490290,
-0.471570,0.505650,
-0.449980,0.517200,
-0.425970,0.524470,
-0.400000,0.527000,
0.400000,0.527000,
0.425970,0.524470,
0.449980,0.517200,
0.471570,0.505650,
0.490290,0.490290,
0.505650,0.471580,
0.517200,0.449980,
0.524470,0.425970,
0.527000,0.400000,
0*%
%ADD63PPAD057*%
%AMPPAD058*
4,1,36,
0.952000,1.100000,
0.952000,-1.100000,
0.949470,-1.125970,
0.942200,-1.149980,
0.930650,-1.171580,
0.915290,-1.190290,
0.896570,-1.205650,
0.874980,-1.217200,
0.850970,-1.224470,
0.825000,-1.227000,
-0.825000,-1.227000,
-0.850970,-1.224470,
-0.874980,-1.217200,
-0.896570,-1.205650,
-0.915290,-1.190290,
-0.930650,-1.171580,
-0.942200,-1.149980,
-0.949470,-1.125970,
-0.952000,-1.100000,
-0.952000,1.100000,
-0.949470,1.125970,
-0.942200,1.149980,
-0.930650,1.171580,
-0.915290,1.190290,
-0.896570,1.205650,
-0.874980,1.217200,
-0.850970,1.224470,
-0.825000,1.227000,
0.825000,1.227000,
0.850970,1.224470,
0.874980,1.217200,
0.896570,1.205650,
0.915290,1.190290,
0.930650,1.171580,
0.942200,1.149980,
0.949470,1.125970,
0.952000,1.100000,
0*%
%ADD64PPAD058*%
%AMPPAD059*
4,1,36,
-0.652000,-0.450000,
-0.652000,0.450000,
-0.649470,0.475970,
-0.642200,0.499980,
-0.630650,0.521580,
-0.615290,0.540290,
-0.596570,0.555650,
-0.574980,0.567200,
-0.550970,0.574470,
-0.525000,0.577000,
0.525000,0.577000,
0.550970,0.574470,
0.574980,0.567200,
0.596570,0.555650,
0.615290,0.540290,
0.630650,0.521580,
0.642200,0.499980,
0.649470,0.475970,
0.652000,0.450000,
0.652000,-0.450000,
0.649470,-0.475970,
0.642200,-0.499980,
0.630650,-0.521580,
0.615290,-0.540290,
0.596570,-0.555650,
0.574980,-0.567200,
0.550970,-0.574470,
0.525000,-0.577000,
-0.525000,-0.577000,
-0.550970,-0.574470,
-0.574980,-0.567200,
-0.596570,-0.555650,
-0.615290,-0.540290,
-0.630650,-0.521580,
-0.642200,-0.499980,
-0.649470,-0.475970,
-0.652000,-0.450000,
0*%
%ADD65PPAD059*%
%AMPPAD060*
4,1,36,
0.450000,-0.652000,
-0.450000,-0.652000,
-0.475970,-0.649470,
-0.499980,-0.642200,
-0.521580,-0.630650,
-0.540290,-0.615290,
-0.555650,-0.596570,
-0.567200,-0.574980,
-0.574470,-0.550970,
-0.577000,-0.525000,
-0.577000,0.525000,
-0.574470,0.550970,
-0.567200,0.574980,
-0.555650,0.596570,
-0.540290,0.615290,
-0.521580,0.630650,
-0.499980,0.642200,
-0.475970,0.649470,
-0.450000,0.652000,
0.450000,0.652000,
0.475970,0.649470,
0.499980,0.642200,
0.521580,0.630650,
0.540290,0.615290,
0.555650,0.596570,
0.567200,0.574980,
0.574470,0.550970,
0.577000,0.525000,
0.577000,-0.525000,
0.574470,-0.550970,
0.567200,-0.574980,
0.555650,-0.596570,
0.540290,-0.615290,
0.521580,-0.630650,
0.499980,-0.642200,
0.475970,-0.649470,
0.450000,-0.652000,
0*%
%ADD66PPAD060*%
%AMPPAD061*
4,1,36,
-0.825500,-0.444500,
-0.825500,0.444500,
-0.822970,0.470470,
-0.815700,0.494480,
-0.804150,0.516080,
-0.788790,0.534790,
-0.770070,0.550150,
-0.748480,0.561700,
-0.724470,0.568970,
-0.698500,0.571500,
0.698500,0.571500,
0.724470,0.568970,
0.748480,0.561700,
0.770070,0.550150,
0.788790,0.534790,
0.804150,0.516080,
0.815700,0.494480,
0.822970,0.470470,
0.825500,0.444500,
0.825500,-0.444500,
0.822970,-0.470470,
0.815700,-0.494480,
0.804150,-0.516080,
0.788790,-0.534790,
0.770070,-0.550150,
0.748480,-0.561700,
0.724470,-0.568970,
0.698500,-0.571500,
-0.698500,-0.571500,
-0.724470,-0.568970,
-0.748480,-0.561700,
-0.770070,-0.550150,
-0.788790,-0.534790,
-0.804150,-0.516080,
-0.815700,-0.494480,
-0.822970,-0.470470,
-0.825500,-0.444500,
0*%
%ADD67PPAD061*%
%AMPPAD062*
4,1,48,
0.323000,-0.577000,
-0.323000,-0.577000,
-0.349400,-0.575720,
-0.374930,-0.571950,
-0.399490,-0.565800,
-0.445220,-0.546870,
-0.485650,-0.519840,
-0.519840,-0.485640,
-0.546860,-0.445220,
-0.565800,-0.399490,
-0.571950,-0.374930,
-0.575720,-0.349400,
-0.577000,-0.323000,
-0.577000,0.323000,
-0.575720,0.349400,
-0.571950,0.374930,
-0.565800,0.399490,
-0.546860,0.445220,
-0.519840,0.485640,
-0.485650,0.519840,
-0.445220,0.546870,
-0.399490,0.565800,
-0.374930,0.571950,
-0.349400,0.575720,
-0.323000,0.577000,
0.323000,0.577000,
0.349400,0.575720,
0.374930,0.571950,
0.399490,0.565800,
0.445220,0.546870,
0.485650,0.519840,
0.519840,0.485640,
0.546860,0.445220,
0.565800,0.399490,
0.571950,0.374930,
0.575720,0.349400,
0.577000,0.323000,
0.577000,-0.323000,
0.575720,-0.349400,
0.571950,-0.374930,
0.565800,-0.399490,
0.546860,-0.445220,
0.519840,-0.485640,
0.485650,-0.519840,
0.445220,-0.546870,
0.399490,-0.565800,
0.374930,-0.571950,
0.349400,-0.575720,
0.323000,-0.577000,
0*%
%ADD68PPAD062*%
%ADD69C,1.154000*%
%AMPPAD064*
4,1,44,
-0.546000,0.927000,
0.546000,0.927000,
0.585600,0.925080,
0.623900,0.919420,
0.695940,0.897610,
0.760730,0.862960,
0.816870,0.816870,
0.862960,0.760730,
0.897610,0.695940,
0.919420,0.623900,
0.925080,0.585600,
0.927000,0.546000,
0.927000,-0.546000,
0.925080,-0.585600,
0.919420,-0.623900,
0.897610,-0.695940,
0.862960,-0.760730,
0.816870,-0.816870,
0.760730,-0.862960,
0.695940,-0.897610,
0.623900,-0.919420,
0.585600,-0.925080,
0.546000,-0.927000,
-0.546000,-0.927000,
-0.585600,-0.925080,
-0.623900,-0.919420,
-0.695940,-0.897610,
-0.760730,-0.862960,
-0.816870,-0.816870,
-0.862960,-0.760730,
-0.897610,-0.695940,
-0.919420,-0.623900,
-0.925080,-0.585600,
-0.927000,-0.546000,
-0.927000,0.546000,
-0.925080,0.585600,
-0.919420,0.623900,
-0.897610,0.695940,
-0.862960,0.760730,
-0.816870,0.816870,
-0.760730,0.862960,
-0.695940,0.897610,
-0.623900,0.919420,
-0.585600,0.925080,
-0.546000,0.927000,
0*%
%ADD74PPAD064*%
%ADD75C,1.854000*%
%AMPPAD066*
4,1,36,
-0.300000,0.727000,
0.300000,0.727000,
0.325970,0.724470,
0.349980,0.717200,
0.371580,0.705650,
0.390290,0.690290,
0.405650,0.671570,
0.417200,0.649980,
0.424470,0.625970,
0.427000,0.600000,
0.427000,-0.600000,
0.424470,-0.625970,
0.417200,-0.649980,
0.405650,-0.671570,
0.390290,-0.690290,
0.371580,-0.705650,
0.349980,-0.717200,
0.325970,-0.724470,
0.300000,-0.727000,
-0.300000,-0.727000,
-0.325970,-0.724470,
-0.349980,-0.717200,
-0.371580,-0.705650,
-0.390290,-0.690290,
-0.405650,-0.671570,
-0.417200,-0.649980,
-0.424470,-0.625970,
-0.427000,-0.600000,
-0.427000,0.600000,
-0.424470,0.625970,
-0.417200,0.649980,
-0.405650,0.671570,
-0.390290,0.690290,
-0.371580,0.705650,
-0.349980,0.717200,
-0.325970,0.724470,
-0.300000,0.727000,
0*%
%ADD76PPAD066*%
%AMPPAD067*
4,1,36,
2.750000,-1.202000,
-2.750000,-1.202000,
-2.775970,-1.199470,
-2.799980,-1.192200,
-2.821580,-1.180650,
-2.840290,-1.165290,
-2.855650,-1.146570,
-2.867200,-1.124980,
-2.874470,-1.100970,
-2.877000,-1.075000,
-2.877000,1.075000,
-2.874470,1.100970,
-2.867200,1.124980,
-2.855650,1.146570,
-2.840290,1.165290,
-2.821580,1.180650,
-2.799980,1.192200,
-2.775970,1.199470,
-2.750000,1.202000,
2.750000,1.202000,
2.775970,1.199470,
2.799980,1.192200,
2.821580,1.180650,
2.840290,1.165290,
2.855650,1.146570,
2.867200,1.124980,
2.874470,1.100970,
2.877000,1.075000,
2.877000,-1.075000,
2.874470,-1.100970,
2.867200,-1.124980,
2.855650,-1.146570,
2.840290,-1.165290,
2.821580,-1.180650,
2.799980,-1.192200,
2.775970,-1.199470,
2.750000,-1.202000,
0*%
%ADD77PPAD067*%
%AMPPAD068*
4,1,36,
0.275000,-0.877000,
-0.275000,-0.877000,
-0.300970,-0.874470,
-0.324980,-0.867200,
-0.346580,-0.855650,
-0.365290,-0.840290,
-0.380650,-0.821570,
-0.392200,-0.799980,
-0.399470,-0.775970,
-0.402000,-0.750000,
-0.402000,0.750000,
-0.399470,0.775970,
-0.392200,0.799980,
-0.380650,0.821570,
-0.365290,0.840290,
-0.346580,0.855650,
-0.324980,0.867200,
-0.300970,0.874470,
-0.275000,0.877000,
0.275000,0.877000,
0.300970,0.874470,
0.324980,0.867200,
0.346580,0.855650,
0.365290,0.840290,
0.380650,0.821570,
0.392200,0.799980,
0.399470,0.775970,
0.402000,0.750000,
0.402000,-0.750000,
0.399470,-0.775970,
0.392200,-0.799980,
0.380650,-0.821570,
0.365290,-0.840290,
0.346580,-0.855650,
0.324980,-0.867200,
0.300970,-0.874470,
0.275000,-0.877000,
0*%
%ADD78PPAD068*%
%AMPPAD069*
4,1,36,
0.877000,0.275000,
0.877000,-0.275000,
0.874470,-0.300970,
0.867200,-0.324980,
0.855650,-0.346580,
0.840290,-0.365290,
0.821570,-0.380650,
0.799980,-0.392200,
0.775970,-0.399470,
0.750000,-0.402000,
-0.750000,-0.402000,
-0.775970,-0.399470,
-0.799980,-0.392200,
-0.821570,-0.380650,
-0.840290,-0.365290,
-0.855650,-0.346580,
-0.867200,-0.324980,
-0.874470,-0.300970,
-0.877000,-0.275000,
-0.877000,0.275000,
-0.874470,0.300970,
-0.867200,0.324980,
-0.855650,0.346580,
-0.840290,0.365290,
-0.821570,0.380650,
-0.799980,0.392200,
-0.775970,0.399470,
-0.750000,0.402000,
0.750000,0.402000,
0.775970,0.399470,
0.799980,0.392200,
0.821570,0.380650,
0.840290,0.365290,
0.855650,0.346580,
0.867200,0.324980,
0.874470,0.300970,
0.877000,0.275000,
0*%
%ADD79PPAD069*%
%AMPPAD070*
4,1,36,
-0.622300,-0.355600,
-0.622300,0.355600,
-0.619770,0.381570,
-0.612500,0.405580,
-0.600950,0.427180,
-0.585590,0.445890,
-0.566870,0.461250,
-0.545280,0.472800,
-0.521270,0.480070,
-0.495300,0.482600,
0.495300,0.482600,
0.521270,0.480070,
0.545280,0.472800,
0.566870,0.461250,
0.585590,0.445890,
0.600950,0.427180,
0.612500,0.405580,
0.619770,0.381570,
0.622300,0.355600,
0.622300,-0.355600,
0.619770,-0.381570,
0.612500,-0.405580,
0.600950,-0.427180,
0.585590,-0.445890,
0.566870,-0.461250,
0.545280,-0.472800,
0.521270,-0.480070,
0.495300,-0.482600,
-0.495300,-0.482600,
-0.521270,-0.480070,
-0.545280,-0.472800,
-0.566870,-0.461250,
-0.585590,-0.445890,
-0.600950,-0.427180,
-0.612500,-0.405580,
-0.619770,-0.381570,
-0.622300,-0.355600,
0*%
%ADD80PPAD070*%
%ADD81C,1.143000*%
%ADD82C,1.254000*%
%AMPPAD073*
4,1,36,
0.330000,-0.627000,
-0.330000,-0.627000,
-0.355970,-0.624470,
-0.379980,-0.617200,
-0.401580,-0.605650,
-0.420290,-0.590290,
-0.435650,-0.571570,
-0.447200,-0.549980,
-0.454470,-0.525970,
-0.457000,-0.500000,
-0.457000,0.500000,
-0.454470,0.525970,
-0.447200,0.549980,
-0.435650,0.571570,
-0.420290,0.590290,
-0.401580,0.605650,
-0.379980,0.617200,
-0.355970,0.624470,
-0.330000,0.627000,
0.330000,0.627000,
0.355970,0.624470,
0.379980,0.617200,
0.401580,0.605650,
0.420290,0.590290,
0.435650,0.571570,
0.447200,0.549980,
0.454470,0.525970,
0.457000,0.500000,
0.457000,-0.500000,
0.454470,-0.525970,
0.447200,-0.549980,
0.435650,-0.571570,
0.420290,-0.590290,
0.401580,-0.605650,
0.379980,-0.617200,
0.355970,-0.624470,
0.330000,-0.627000,
0*%
%ADD83PPAD073*%
%AMPPAD074*
4,1,36,
-0.355600,0.622300,
0.355600,0.622300,
0.381570,0.619770,
0.405580,0.612500,
0.427180,0.600950,
0.445890,0.585590,
0.461250,0.566870,
0.472800,0.545280,
0.480070,0.521270,
0.482600,0.495300,
0.482600,-0.495300,
0.480070,-0.521270,
0.472800,-0.545280,
0.461250,-0.566870,
0.445890,-0.585590,
0.427180,-0.600950,
0.405580,-0.612500,
0.381570,-0.619770,
0.355600,-0.622300,
-0.355600,-0.622300,
-0.381570,-0.619770,
-0.405580,-0.612500,
-0.427180,-0.600950,
-0.445890,-0.585590,
-0.461250,-0.566870,
-0.472800,-0.545280,
-0.480070,-0.521270,
-0.482600,-0.495300,
-0.482600,0.495300,
-0.480070,0.521270,
-0.472800,0.545280,
-0.461250,0.566870,
-0.445890,0.585590,
-0.427180,0.600950,
-0.405580,0.612500,
-0.381570,0.619770,
-0.355600,0.622300,
0*%
%ADD84PPAD074*%
%AMPPAD075*
4,1,36,
0.444500,-0.825500,
-0.444500,-0.825500,
-0.470470,-0.822970,
-0.494480,-0.815700,
-0.516080,-0.804150,
-0.534790,-0.788790,
-0.550150,-0.770070,
-0.561700,-0.748480,
-0.568970,-0.724470,
-0.571500,-0.698500,
-0.571500,0.698500,
-0.568970,0.724470,
-0.561700,0.748480,
-0.550150,0.770070,
-0.534790,0.788790,
-0.516080,0.804150,
-0.494480,0.815700,
-0.470470,0.822970,
-0.444500,0.825500,
0.444500,0.825500,
0.470470,0.822970,
0.494480,0.815700,
0.516080,0.804150,
0.534790,0.788790,
0.550150,0.770070,
0.561700,0.748480,
0.568970,0.724470,
0.571500,0.698500,
0.571500,-0.698500,
0.568970,-0.724470,
0.561700,-0.748480,
0.550150,-0.770070,
0.534790,-0.788790,
0.516080,-0.804150,
0.494480,-0.815700,
0.470470,-0.822970,
0.444500,-0.825500,
0*%
%ADD85PPAD075*%
%AMPPAD076*
4,1,36,
0.863600,0.317500,
0.863600,-0.317500,
0.861070,-0.343470,
0.853800,-0.367480,
0.842250,-0.389080,
0.826890,-0.407790,
0.808170,-0.423150,
0.786580,-0.434700,
0.762570,-0.441970,
0.736600,-0.444500,
-0.736600,-0.444500,
-0.762570,-0.441970,
-0.786580,-0.434700,
-0.808170,-0.423150,
-0.826890,-0.407790,
-0.842250,-0.389080,
-0.853800,-0.367480,
-0.861070,-0.343470,
-0.863600,-0.317500,
-0.863600,0.317500,
-0.861070,0.343470,
-0.853800,0.367480,
-0.842250,0.389080,
-0.826890,0.407790,
-0.808170,0.423150,
-0.786580,0.434700,
-0.762570,0.441970,
-0.736600,0.444500,
0.736600,0.444500,
0.762570,0.441970,
0.786580,0.434700,
0.808170,0.423150,
0.826890,0.407790,
0.842250,0.389080,
0.853800,0.367480,
0.861070,0.343470,
0.863600,0.317500,
0*%
%ADD86PPAD076*%
%AMPPAD077*
4,1,36,
0.250000,-0.527000,
-0.250000,-0.527000,
-0.275970,-0.524470,
-0.299980,-0.517200,
-0.321580,-0.505650,
-0.340290,-0.490290,
-0.355650,-0.471570,
-0.367200,-0.449980,
-0.374470,-0.425970,
-0.377000,-0.400000,
-0.377000,0.400000,
-0.374470,0.425970,
-0.367200,0.449980,
-0.355650,0.471570,
-0.340290,0.490290,
-0.321580,0.505650,
-0.299980,0.517200,
-0.275970,0.524470,
-0.250000,0.527000,
0.250000,0.527000,
0.275970,0.524470,
0.299980,0.517200,
0.321580,0.505650,
0.340290,0.490290,
0.355650,0.471570,
0.367200,0.449980,
0.374470,0.425970,
0.377000,0.400000,
0.377000,-0.400000,
0.374470,-0.425970,
0.367200,-0.449980,
0.355650,-0.471570,
0.340290,-0.490290,
0.321580,-0.505650,
0.299980,-0.517200,
0.275970,-0.524470,
0.250000,-0.527000,
0*%
%ADD87PPAD077*%
%AMPPAD078*
4,1,8,
0.927100,0.296440,
0.927100,-0.296440,
0.690140,-0.533400,
-0.690140,-0.533400,
-0.927100,-0.296440,
-0.927100,0.296440,
-0.690140,0.533400,
0.690140,0.533400,
0.927100,0.296440,
0*%
%ADD88PPAD078*%
%AMPPAD079*
4,1,36,
-1.270000,-1.016000,
-1.270000,1.016000,
-1.267470,1.041970,
-1.260200,1.065980,
-1.248650,1.087580,
-1.233290,1.106290,
-1.214570,1.121650,
-1.192980,1.133200,
-1.168970,1.140470,
-1.143000,1.143000,
1.143000,1.143000,
1.168970,1.140470,
1.192980,1.133200,
1.214570,1.121650,
1.233290,1.106290,
1.248650,1.087580,
1.260200,1.065980,
1.267470,1.041970,
1.270000,1.016000,
1.270000,-1.016000,
1.267470,-1.041970,
1.260200,-1.065980,
1.248650,-1.087580,
1.233290,-1.106290,
1.214570,-1.121650,
1.192980,-1.133200,
1.168970,-1.140470,
1.143000,-1.143000,
-1.143000,-1.143000,
-1.168970,-1.140470,
-1.192980,-1.133200,
-1.214570,-1.121650,
-1.233290,-1.106290,
-1.248650,-1.087580,
-1.260200,-1.065980,
-1.267470,-1.041970,
-1.270000,-1.016000,
0*%
%ADD89PPAD079*%
%AMPPAD080*
4,1,36,
0.277000,0.375000,
0.277000,-0.375000,
0.274470,-0.400970,
0.267200,-0.424980,
0.255650,-0.446580,
0.240290,-0.465290,
0.221570,-0.480650,
0.199980,-0.492200,
0.175970,-0.499470,
0.150000,-0.502000,
-0.150000,-0.502000,
-0.175970,-0.499470,
-0.199980,-0.492200,
-0.221570,-0.480650,
-0.240290,-0.465290,
-0.255650,-0.446580,
-0.267200,-0.424980,
-0.274470,-0.400970,
-0.277000,-0.375000,
-0.277000,0.375000,
-0.274470,0.400970,
-0.267200,0.424980,
-0.255650,0.446580,
-0.240290,0.465290,
-0.221570,0.480650,
-0.199980,0.492200,
-0.175970,0.499470,
-0.150000,0.502000,
0.150000,0.502000,
0.175970,0.499470,
0.199980,0.492200,
0.221570,0.480650,
0.240290,0.465290,
0.255650,0.446580,
0.267200,0.424980,
0.274470,0.400970,
0.277000,0.375000,
0*%
%ADD90PPAD080*%
%ADD91C,0.404000*%
%AMPPAD082*
4,1,36,
1.177000,0.195200,
1.177000,-0.195200,
1.168410,-0.283490,
1.143690,-0.365130,
1.104420,-0.438560,
1.052180,-0.502180,
0.988560,-0.554420,
0.915130,-0.593690,
0.833490,-0.618410,
0.745200,-0.627000,
-0.745200,-0.627000,
-0.833490,-0.618410,
-0.915130,-0.593690,
-0.988560,-0.554420,
-1.052180,-0.502180,
-1.104420,-0.438560,
-1.143690,-0.365130,
-1.168410,-0.283490,
-1.177000,-0.195200,
-1.177000,0.195200,
-1.168410,0.283490,
-1.143690,0.365130,
-1.104420,0.438560,
-1.052180,0.502180,
-0.988560,0.554420,
-0.915130,0.593690,
-0.833490,0.618410,
-0.745200,0.627000,
0.745200,0.627000,
0.833490,0.618410,
0.915130,0.593690,
0.988560,0.554420,
1.052180,0.502180,
1.104420,0.438560,
1.143690,0.365130,
1.168410,0.283490,
1.177000,0.195200,
0*%
%ADD92PPAD082*%
%AMPPAD083*
4,1,36,
1.027000,0.195200,
1.027000,-0.195200,
1.018410,-0.283490,
0.993690,-0.365130,
0.954420,-0.438560,
0.902180,-0.502180,
0.838560,-0.554420,
0.765130,-0.593690,
0.683490,-0.618410,
0.595200,-0.627000,
-0.595200,-0.627000,
-0.683490,-0.618410,
-0.765130,-0.593690,
-0.838560,-0.554420,
-0.902180,-0.502180,
-0.954420,-0.438560,
-0.993690,-0.365130,
-1.018410,-0.283490,
-1.027000,-0.195200,
-1.027000,0.195200,
-1.018410,0.283490,
-0.993690,0.365130,
-0.954420,0.438560,
-0.902180,0.502180,
-0.838560,0.554420,
-0.765130,0.593690,
-0.683490,0.618410,
-0.595200,0.627000,
0.595200,0.627000,
0.683490,0.618410,
0.765130,0.593690,
0.838560,0.554420,
0.902180,0.502180,
0.954420,0.438560,
0.993690,0.365130,
1.018410,0.283490,
1.027000,0.195200,
0*%
%ADD93PPAD083*%
%AMPPAD084*
4,1,36,
0.702000,0.300000,
0.702000,-0.300000,
0.699470,-0.325970,
0.692200,-0.349980,
0.680650,-0.371580,
0.665290,-0.390290,
0.646570,-0.405650,
0.624980,-0.417200,
0.600970,-0.424470,
0.575000,-0.427000,
-0.575000,-0.427000,
-0.600970,-0.424470,
-0.624980,-0.417200,
-0.646570,-0.405650,
-0.665290,-0.390290,
-0.680650,-0.371580,
-0.692200,-0.349980,
-0.699470,-0.325970,
-0.702000,-0.300000,
-0.702000,0.300000,
-0.699470,0.325970,
-0.692200,0.349980,
-0.680650,0.371580,
-0.665290,0.390290,
-0.646570,0.405650,
-0.624980,0.417200,
-0.600970,0.424470,
-0.575000,0.427000,
0.575000,0.427000,
0.600970,0.424470,
0.624980,0.417200,
0.646570,0.405650,
0.665290,0.390290,
0.680650,0.371580,
0.692200,0.349980,
0.699470,0.325970,
0.702000,0.300000,
0*%
%ADD94PPAD084*%
%AMPPAD085*
4,1,36,
0.702000,0.150000,
0.702000,-0.150000,
0.699470,-0.175970,
0.692200,-0.199980,
0.680650,-0.221580,
0.665290,-0.240290,
0.646570,-0.255650,
0.624980,-0.267200,
0.600970,-0.274470,
0.575000,-0.277000,
-0.575000,-0.277000,
-0.600970,-0.274470,
-0.624980,-0.267200,
-0.646570,-0.255650,
-0.665290,-0.240290,
-0.680650,-0.221580,
-0.692200,-0.199980,
-0.699470,-0.175970,
-0.702000,-0.150000,
-0.702000,0.150000,
-0.699470,0.175970,
-0.692200,0.199980,
-0.680650,0.221580,
-0.665290,0.240290,
-0.646570,0.255650,
-0.624980,0.267200,
-0.600970,0.274470,
-0.575000,0.277000,
0.575000,0.277000,
0.600970,0.274470,
0.624980,0.267200,
0.646570,0.255650,
0.665290,0.240290,
0.680650,0.221580,
0.692200,0.199980,
0.699470,0.175970,
0.702000,0.150000,
0*%
%ADD95PPAD085*%
%AMPPAD086*
4,1,36,
0.500000,-0.877000,
-0.500000,-0.877000,
-0.525970,-0.874470,
-0.549980,-0.867200,
-0.571580,-0.855650,
-0.590290,-0.840290,
-0.605650,-0.821570,
-0.617200,-0.799980,
-0.624470,-0.775970,
-0.627000,-0.750000,
-0.627000,0.750000,
-0.624470,0.775970,
-0.617200,0.799980,
-0.605650,0.821570,
-0.590290,0.840290,
-0.571580,0.855650,
-0.549980,0.867200,
-0.525970,0.874470,
-0.500000,0.877000,
0.500000,0.877000,
0.525970,0.874470,
0.549980,0.867200,
0.571580,0.855650,
0.590290,0.840290,
0.605650,0.821570,
0.617200,0.799980,
0.624470,0.775970,
0.627000,0.750000,
0.627000,-0.750000,
0.624470,-0.775970,
0.617200,-0.799980,
0.605650,-0.821570,
0.590290,-0.840290,
0.571580,-0.855650,
0.549980,-0.867200,
0.525970,-0.874470,
0.500000,-0.877000,
0*%
%ADD96PPAD086*%
%AMPPAD087*
4,1,36,
-1.127000,-0.600000,
-1.127000,0.600000,
-1.124470,0.625970,
-1.117200,0.649980,
-1.105650,0.671580,
-1.090290,0.690290,
-1.071570,0.705650,
-1.049980,0.717200,
-1.025970,0.724470,
-1.000000,0.727000,
1.000000,0.727000,
1.025970,0.724470,
1.049980,0.717200,
1.071570,0.705650,
1.090290,0.690290,
1.105650,0.671580,
1.117200,0.649980,
1.124470,0.625970,
1.127000,0.600000,
1.127000,-0.600000,
1.124470,-0.625970,
1.117200,-0.649980,
1.105650,-0.671580,
1.090290,-0.690290,
1.071570,-0.705650,
1.049980,-0.717200,
1.025970,-0.724470,
1.000000,-0.727000,
-1.000000,-0.727000,
-1.025970,-0.724470,
-1.049980,-0.717200,
-1.071570,-0.705650,
-1.090290,-0.690290,
-1.105650,-0.671580,
-1.117200,-0.649980,
-1.124470,-0.625970,
-1.127000,-0.600000,
0*%
%ADD97PPAD087*%
%AMPPAD088*
4,1,36,
-0.902000,-0.300000,
-0.902000,0.300000,
-0.899470,0.325970,
-0.892200,0.349980,
-0.880650,0.371580,
-0.865290,0.390290,
-0.846570,0.405650,
-0.824980,0.417200,
-0.800970,0.424470,
-0.775000,0.427000,
0.775000,0.427000,
0.800970,0.424470,
0.824980,0.417200,
0.846570,0.405650,
0.865290,0.390290,
0.880650,0.371580,
0.892200,0.349980,
0.899470,0.325970,
0.902000,0.300000,
0.902000,-0.300000,
0.899470,-0.325970,
0.892200,-0.349980,
0.880650,-0.371580,
0.865290,-0.390290,
0.846570,-0.405650,
0.824980,-0.417200,
0.800970,-0.424470,
0.775000,-0.427000,
-0.775000,-0.427000,
-0.800970,-0.424470,
-0.824980,-0.417200,
-0.846570,-0.405650,
-0.865290,-0.390290,
-0.880650,-0.371580,
-0.892200,-0.349980,
-0.899470,-0.325970,
-0.902000,-0.300000,
0*%
%ADD98PPAD088*%
%AMPPAD089*
4,1,36,
0.900000,-1.077000,
-0.900000,-1.077000,
-0.925970,-1.074470,
-0.949980,-1.067200,
-0.971580,-1.055650,
-0.990290,-1.040290,
-1.005650,-1.021570,
-1.017200,-0.999980,
-1.024470,-0.975970,
-1.027000,-0.950000,
-1.027000,0.950000,
-1.024470,0.975970,
-1.017200,0.999980,
-1.005650,1.021570,
-0.990290,1.040290,
-0.971580,1.055650,
-0.949980,1.067200,
-0.925970,1.074470,
-0.900000,1.077000,
0.900000,1.077000,
0.925970,1.074470,
0.949980,1.067200,
0.971580,1.055650,
0.990290,1.040290,
1.005650,1.021570,
1.017200,0.999980,
1.024470,0.975970,
1.027000,0.950000,
1.027000,-0.950000,
1.024470,-0.975970,
1.017200,-0.999980,
1.005650,-1.021570,
0.990290,-1.040290,
0.971580,-1.055650,
0.949980,-1.067200,
0.925970,-1.074470,
0.900000,-1.077000,
0*%
%ADD99PPAD089*%
%ADD54C,0.025400*%
%ADD55C,0.031750*%
D58*
X+1736200Y+2377250D03*
X+1736200Y+2417250D03*
X+1736200Y+2457250D03*
X+1736200Y+2497250D03*
X+1736200Y+2537250D03*
X+1736200Y+2577250D03*
X+1736200Y+2617250D03*
D59*
X+1661200Y+2692250D03*
X+1621200Y+2692250D03*
X+1581200Y+2692250D03*
X+1541200Y+2692250D03*
X+1501200Y+2692250D03*
X+1461200Y+2692250D03*
X+1421200Y+2692250D03*
D58*
X+1346200Y+2617250D03*
X+1346200Y+2577250D03*
X+1346200Y+2537250D03*
X+1346200Y+2497250D03*
X+1346200Y+2457250D03*
X+1346200Y+2417250D03*
X+1346200Y+2377250D03*
D59*
X+1421200Y+2302250D03*
X+1461200Y+2302250D03*
X+1501200Y+2302250D03*
X+1541200Y+2302250D03*
X+1581200Y+2302250D03*
X+1621200Y+2302250D03*
X+1661200Y+2302250D03*
D60*
X+1541200Y+2497250D03*
D61*
X+1736200Y+2302250D03*
X+1736200Y+2692250D03*
X+1346200Y+2692250D03*
X+1346200Y+2302250D03*
D62*
X+466300Y+3864350D03*
X+466300Y+4324350D03*
X+241300Y+4324350D03*
X+241300Y+3864350D03*
X+466300Y+4670800D03*
X+466300Y+5130800D03*
X+241300Y+5130800D03*
X+241300Y+4670800D03*
D63*
X+762000Y+4984750D03*
X+762000Y+4819750D03*
X+241300Y+368200D03*
X+241300Y+203200D03*
D64*
X+355600Y+3467100D03*
D65*
X+387350Y+984350D03*
X+387350Y+1144350D03*
X+387350Y+368200D03*
X+387350Y+208200D03*
D63*
X+241300Y+1149350D03*
X+241300Y+984350D03*
D66*
X+1149350Y+2686800D03*
X+989350Y+2686800D03*
D65*
X+1552000Y+3117700D03*
X+1552000Y+2957700D03*
X+387350Y+1765400D03*
X+387350Y+1925400D03*
X+908050Y+4011950D03*
X+908050Y+4171950D03*
D63*
X+762000Y+4013200D03*
X+762000Y+4178200D03*
D66*
X+1149350Y+2204200D03*
X+989350Y+2204200D03*
D65*
X+1541200Y+2035550D03*
X+1541200Y+1875550D03*
X+1706300Y+1875550D03*
X+1706300Y+2035550D03*
D66*
X+4140200Y+3663950D03*
X+3980200Y+3663950D03*
D67*
X+1256030Y+1286610D03*
X+1256030Y+1499970D03*
D68*
X+1149350Y+208200D03*
D69*
X+1149350Y+335200D03*
X+1022350Y+208200D03*
X+1022350Y+335200D03*
X+895350Y+208200D03*
X+895350Y+335200D03*
X+768350Y+208200D03*
X+768350Y+335200D03*
D65*
X+1717100Y+2957700D03*
X+1717100Y+3117700D03*
D74*
X+4864100Y+254000D03*
D75*
X+5118100Y+254000D03*
X+5372100Y+254000D03*
X+5626100Y+254000D03*
X+5880100Y+254000D03*
X+6134100Y+254000D03*
X+6388100Y+254000D03*
D74*
X+2324100Y+254000D03*
D75*
X+2578100Y+254000D03*
X+2832100Y+254000D03*
X+3086100Y+254000D03*
X+3340100Y+254000D03*
X+3594100Y+254000D03*
X+3848100Y+254000D03*
X+4102100Y+254000D03*
X+4356100Y+254000D03*
X+4610100Y+254000D03*
D74*
X+1917700Y+5080000D03*
D75*
X+2171700Y+5080000D03*
X+2425700Y+5080000D03*
X+2679700Y+5080000D03*
X+2933700Y+5080000D03*
X+3187700Y+5080000D03*
X+3441700Y+5080000D03*
X+3695700Y+5080000D03*
X+3949700Y+5080000D03*
X+4203700Y+5080000D03*
D74*
X+4610100Y+5080000D03*
D75*
X+4864100Y+5080000D03*
X+5118100Y+5080000D03*
X+5372100Y+5080000D03*
X+5626100Y+5080000D03*
X+5880100Y+5080000D03*
X+6134100Y+5080000D03*
X+6388100Y+5080000D03*
D76*
X+3867650Y+1270000D03*
X+3962650Y+1270000D03*
X+4057650Y+1270000D03*
X+4057650Y+1530000D03*
X+3962650Y+1530000D03*
X+3867650Y+1530000D03*
D77*
X+3289300Y+1333500D03*
X+3289300Y+1718500D03*
D78*
X+5541650Y+3236999D03*
X+5461650Y+3236999D03*
X+5381650Y+3236999D03*
X+5301650Y+3236999D03*
X+5221650Y+3236999D03*
X+5141650Y+3236999D03*
X+5061650Y+3236999D03*
X+4981650Y+3236999D03*
X+4901650Y+3236999D03*
X+4821650Y+3236999D03*
X+4741650Y+3236999D03*
D79*
X+4571650Y+3066999D03*
X+4571650Y+2986999D03*
X+4571650Y+2906999D03*
X+4571650Y+2826999D03*
X+4571650Y+2746999D03*
X+4571650Y+2666999D03*
X+4571650Y+2586999D03*
X+4571650Y+2506999D03*
X+4571650Y+2426999D03*
X+4571650Y+2346999D03*
X+4571650Y+2266999D03*
D78*
X+4741650Y+2096999D03*
X+4821650Y+2096999D03*
X+4901650Y+2096999D03*
X+4981650Y+2096999D03*
X+5061650Y+2096999D03*
X+5141650Y+2096999D03*
X+5221650Y+2096999D03*
X+5301650Y+2096999D03*
X+5381650Y+2096999D03*
X+5461650Y+2096999D03*
X+5541650Y+2096999D03*
D79*
X+5711650Y+2266999D03*
X+5711650Y+2346999D03*
X+5711650Y+2426999D03*
X+5711650Y+2506999D03*
X+5711650Y+2586999D03*
X+5711650Y+2666999D03*
X+5711650Y+2746999D03*
X+5711650Y+2826999D03*
X+5711650Y+2906999D03*
X+5711650Y+2986999D03*
X+5711650Y+3066999D03*
D65*
X+4222750Y+1270000D03*
X+4222750Y+1430000D03*
D67*
X+4826000Y+1564640D03*
X+4826000Y+1778000D03*
D65*
X+3702050Y+1270000D03*
X+3702050Y+1430000D03*
D67*
X+4603750Y+1564640D03*
X+4603750Y+1778000D03*
D65*
X+4220150Y+1618750D03*
X+4220150Y+1778750D03*
D66*
X+3877250Y+1778750D03*
X+4037250Y+1778750D03*
D65*
X+4397950Y+1778750D03*
X+4397950Y+1618750D03*
X+3699450Y+1778750D03*
X+3699450Y+1618750D03*
D66*
X+1460500Y+895450D03*
X+1620500Y+895450D03*
D65*
X+908050Y+4818400D03*
X+908050Y+4978400D03*
D66*
X+3980200Y+3092450D03*
X+4140200Y+3092450D03*
X+3980200Y+3257550D03*
X+4140200Y+3257550D03*
X+3980200Y+2927350D03*
X+4140200Y+2927350D03*
X+6518100Y+3124199D03*
X+6678100Y+3124199D03*
D80*
X+6518100Y+2940049D03*
X+6518100Y+2749549D03*
X+6779720Y+2846069D03*
D66*
X+5201900Y+3644900D03*
X+5361900Y+3644900D03*
D65*
X+5153600Y+1778750D03*
X+5153600Y+1618750D03*
D66*
X+6518100Y+2571749D03*
X+6678100Y+2571749D03*
X+3980200Y+2432050D03*
X+4140200Y+2432050D03*
D80*
X+4189575Y+2063750D03*
X+4189575Y+2254250D03*
X+3927955Y+2157730D03*
D63*
X+241300Y+1930400D03*
X+241300Y+1765400D03*
D81*
X+4937200Y+3478299D03*
X+5965650Y+2586999D03*
X+1257300Y+654050D03*
D82*
X+863600Y+3467100D03*
X+1968500Y+254000D03*
X+6146800Y+3810000D03*
D65*
X+2863850Y+1430000D03*
X+2863850Y+1270000D03*
D66*
X+2692400Y+1778000D03*
X+2532400Y+1778000D03*
D74*
X+2324100Y+508000D03*
D75*
X+2578100Y+508000D03*
X+2832100Y+508000D03*
X+3086100Y+508000D03*
X+3340100Y+508000D03*
X+3594100Y+508000D03*
X+3848100Y+508000D03*
X+4102100Y+508000D03*
X+4356100Y+508000D03*
X+4610100Y+508000D03*
D74*
X+4864100Y+508000D03*
D75*
X+5118100Y+508000D03*
X+5372100Y+508000D03*
X+5626100Y+508000D03*
X+5880100Y+508000D03*
X+6134100Y+508000D03*
X+6388100Y+508000D03*
D74*
X+4610100Y+4826000D03*
D75*
X+4864100Y+4826000D03*
X+5118100Y+4826000D03*
X+5372100Y+4826000D03*
X+5626100Y+4826000D03*
X+5880100Y+4826000D03*
X+6134100Y+4826000D03*
X+6388100Y+4826000D03*
D74*
X+1917700Y+4826000D03*
D75*
X+2171700Y+4826000D03*
X+2425700Y+4826000D03*
X+2679700Y+4826000D03*
X+2933700Y+4826000D03*
X+3187700Y+4826000D03*
X+3441700Y+4826000D03*
X+3695700Y+4826000D03*
X+3949700Y+4826000D03*
X+4203700Y+4826000D03*
D83*
X+1060200Y+1085950D03*
X+965200Y+1085950D03*
X+870200Y+1085950D03*
X+870200Y+825950D03*
X+1060200Y+825950D03*
D84*
X+1059180Y+1499970D03*
X+868680Y+1499970D03*
X+965200Y+1238350D03*
D67*
X+678180Y+1499970D03*
X+678180Y+1286610D03*
D65*
X+679200Y+881500D03*
X+679200Y+1041500D03*
D85*
X+1075690Y+657960D03*
X+862330Y+657960D03*
D67*
X+1257050Y+1085950D03*
X+1257050Y+872590D03*
D81*
X+1888550Y+3073250D03*
D86*
X+5030700Y+3644900D03*
X+5030700Y+3771900D03*
X+5030700Y+3898900D03*
X+5030700Y+4025900D03*
X+4490700Y+4025900D03*
X+4313150Y+4025900D03*
X+4313150Y+3898900D03*
X+4490700Y+3898900D03*
X+4313150Y+3771900D03*
X+4490700Y+3771900D03*
X+4313150Y+3644900D03*
X+4490700Y+3644900D03*
D87*
X+1714500Y+4616450D03*
X+1624500Y+4616450D03*
X+1534500Y+4616450D03*
X+1444500Y+4616450D03*
X+1444500Y+4496450D03*
X+1534500Y+4496450D03*
X+1624500Y+4496450D03*
X+1714500Y+4496450D03*
D88*
X+1562100Y+3787900D03*
X+1562100Y+4787900D03*
D66*
X+760750Y+4616450D03*
X+920750Y+4616450D03*
D89*
X+1171150Y+4830800D03*
X+1171150Y+5130800D03*
D66*
X+1253700Y+4616450D03*
X+1093700Y+4616450D03*
D81*
X+1320800Y+4419600D03*
X+1092200Y+4419600D03*
D66*
X+1460500Y+1060550D03*
X+1620500Y+1060550D03*
D90*
X+2692400Y+1560600D03*
X+2642400Y+1560600D03*
X+2592400Y+1560600D03*
X+2542400Y+1560600D03*
X+2542400Y+1270000D03*
X+2592400Y+1270000D03*
X+2642400Y+1270000D03*
X+2692400Y+1270000D03*
D67*
X+2863850Y+1784350D03*
X+2863850Y+1570990D03*
D91*
X+502100Y+2377600D03*
X+502100Y+2955600D03*
D92*
X+552100Y+2234600D03*
X+552100Y+3098600D03*
D93*
X+134100Y+2234600D03*
X+134100Y+3098600D03*
D94*
X+609600Y+2986600D03*
X+609600Y+2906600D03*
D95*
X+609600Y+2791600D03*
X+609600Y+2691600D03*
X+609600Y+2641600D03*
X+609600Y+2541600D03*
D94*
X+609600Y+2346600D03*
X+609600Y+2426600D03*
D95*
X+609600Y+2491600D03*
X+609600Y+2591600D03*
X+609600Y+2741600D03*
X+609600Y+2841600D03*
D96*
X+1179850Y+3048750D03*
X+959850Y+3048750D03*
D66*
X+1149350Y+2371840D03*
X+989350Y+2371840D03*
X+1149350Y+2851900D03*
X+989350Y+2851900D03*
X+3980200Y+2762250D03*
X+4140200Y+2762250D03*
D84*
X+1454150Y+1238350D03*
X+1644650Y+1238350D03*
X+1548130Y+1499970D03*
D66*
X+4140200Y+2597150D03*
X+3980200Y+2597150D03*
D84*
X+1487170Y+4088780D03*
X+1677670Y+4088780D03*
X+1581150Y+4350400D03*
D97*
X+6757670Y+1739280D03*
X+6757670Y+2299280D03*
D98*
X+6380170Y+1869280D03*
X+6380170Y+1969280D03*
X+6380170Y+2069280D03*
X+6380170Y+2169280D03*
D65*
X+6188650Y+1938750D03*
X+6188650Y+1778750D03*
D66*
X+3980200Y+3498850D03*
X+4140200Y+3498850D03*
D99*
X+4842450Y+1339850D03*
X+4432450Y+1339850D03*
D65*
X+1386900Y+2957700D03*
X+1386900Y+3117700D03*
D99*
X+909530Y+1741270D03*
X+1319530Y+1741270D03*
D81*
X+4330350Y+3478549D03*
X+4330350Y+2506999D03*
X+4330350Y+2970549D03*
D54*
X+6800850Y+762000D02*
X+6800320Y+774958D01*
X+6796016Y+800876D01*
X+6787025Y+826794D01*
X+6772380Y+852712D01*
X+6749976Y+878466D01*
X+6724058Y+897958D01*
X+6698140Y+910530D01*
X+6672222Y+917866D01*
X+6646304Y+920694D01*
X+6642100Y+920750D01*
X+6483350Y+762000D02*
X+6483880Y+774958D01*
X+6488184Y+800876D01*
X+6497175Y+826794D01*
X+6511820Y+852712D01*
X+6534224Y+878466D01*
X+6560142Y+897958D01*
X+6586060Y+910530D01*
X+6611978Y+917866D01*
X+6637896Y+920694D01*
X+6642100Y+920750D01*
X+6483350Y+762000D02*
X+6483880Y+749042D01*
X+6488184Y+723124D01*
X+6497175Y+697206D01*
X+6511820Y+671288D01*
X+6534224Y+645534D01*
X+6560142Y+626042D01*
X+6586060Y+613470D01*
X+6611978Y+606134D01*
X+6637896Y+603306D01*
X+6642100Y+603250D01*
X+6800850Y+762000D02*
X+6800320Y+749042D01*
X+6796016Y+723124D01*
X+6787025Y+697206D01*
X+6772380Y+671288D01*
X+6749976Y+645534D01*
X+6724058Y+626042D01*
X+6698140Y+613470D01*
X+6672222Y+606134D01*
X+6646304Y+603306D01*
X+6642100Y+603250D01*
X+6800850Y+3556000D02*
X+6800320Y+3568958D01*
X+6796016Y+3594876D01*
X+6787025Y+3620794D01*
X+6772380Y+3646712D01*
X+6749976Y+3672466D01*
X+6724058Y+3691958D01*
X+6698140Y+3704530D01*
X+6672222Y+3711866D01*
X+6646304Y+3714694D01*
X+6642100Y+3714750D01*
X+6483350Y+3556000D02*
X+6483880Y+3568958D01*
X+6488184Y+3594876D01*
X+6497175Y+3620794D01*
X+6511820Y+3646712D01*
X+6534224Y+3672466D01*
X+6560142Y+3691958D01*
X+6586060Y+3704530D01*
X+6611978Y+3711866D01*
X+6637896Y+3714694D01*
X+6642100Y+3714750D01*
X+6483350Y+3556000D02*
X+6483880Y+3543042D01*
X+6488184Y+3517124D01*
X+6497175Y+3491206D01*
X+6511820Y+3465288D01*
X+6534224Y+3439534D01*
X+6560142Y+3420042D01*
X+6586060Y+3407470D01*
X+6611978Y+3400134D01*
X+6637896Y+3397306D01*
X+6642100Y+3397250D01*
X+6800850Y+3556000D02*
X+6800320Y+3543042D01*
X+6796016Y+3517124D01*
X+6787025Y+3491206D01*
X+6772380Y+3465288D01*
X+6749976Y+3439534D01*
X+6724058Y+3420042D01*
X+6698140Y+3407470D01*
X+6672222Y+3400134D01*
X+6646304Y+3397306D01*
X+6642100Y+3397250D01*
X+1720850Y+5080000D02*
X+1720320Y+5092958D01*
X+1716016Y+5118876D01*
X+1707025Y+5144794D01*
X+1692380Y+5170712D01*
X+1669976Y+5196466D01*
X+1644058Y+5215958D01*
X+1618140Y+5228530D01*
X+1592222Y+5235866D01*
X+1566304Y+5238694D01*
X+1562100Y+5238750D01*
X+1403350Y+5080000D02*
X+1403880Y+5092958D01*
X+1408184Y+5118876D01*
X+1417175Y+5144794D01*
X+1431820Y+5170712D01*
X+1454224Y+5196466D01*
X+1480142Y+5215958D01*
X+1506060Y+5228530D01*
X+1531978Y+5235866D01*
X+1557896Y+5238694D01*
X+1562100Y+5238750D01*
X+1403350Y+5080000D02*
X+1403880Y+5067042D01*
X+1408184Y+5041124D01*
X+1417175Y+5015206D01*
X+1431820Y+4989288D01*
X+1454224Y+4963534D01*
X+1480142Y+4944042D01*
X+1506060Y+4931470D01*
X+1531978Y+4924134D01*
X+1557896Y+4921306D01*
X+1562100Y+4921250D01*
X+1720850Y+5080000D02*
X+1720320Y+5067042D01*
X+1716016Y+5041124D01*
X+1707025Y+5015206D01*
X+1692380Y+4989288D01*
X+1669976Y+4963534D01*
X+1644058Y+4944042D01*
X+1618140Y+4931470D01*
X+1592222Y+4924134D01*
X+1566304Y+4921306D01*
X+1562100Y+4921250D01*
X+1720850Y+254000D02*
X+1720320Y+266958D01*
X+1716016Y+292876D01*
X+1707025Y+318794D01*
X+1692380Y+344712D01*
X+1669976Y+370466D01*
X+1644058Y+389958D01*
X+1618140Y+402530D01*
X+1592222Y+409866D01*
X+1566304Y+412694D01*
X+1562100Y+412750D01*
X+1403350Y+254000D02*
X+1403880Y+266958D01*
X+1408184Y+292876D01*
X+1417175Y+318794D01*
X+1431820Y+344712D01*
X+1454224Y+370466D01*
X+1480142Y+389958D01*
X+1506060Y+402530D01*
X+1531978Y+409866D01*
X+1557896Y+412694D01*
X+1562100Y+412750D01*
X+1403350Y+254000D02*
X+1403880Y+241042D01*
X+1408184Y+215124D01*
X+1417175Y+189206D01*
X+1431820Y+163288D01*
X+1454224Y+137534D01*
X+1480142Y+118042D01*
X+1506060Y+105470D01*
X+1531978Y+98134D01*
X+1557896Y+95306D01*
X+1562100Y+95250D01*
X+1720850Y+254000D02*
X+1720320Y+241042D01*
X+1716016Y+215124D01*
X+1707025Y+189206D01*
X+1692380Y+163288D01*
X+1669976Y+137534D01*
X+1644058Y+118042D01*
X+1618140Y+105470D01*
X+1592222Y+98134D01*
X+1566304Y+95306D01*
X+1562100Y+95250D01*
X+127000Y+0D02*
X+101032Y+2527D01*
X+77018Y+9798D01*
X+55423Y+21347D01*
X+36711Y+36711D01*
X+21348Y+55423D01*
X+9798Y+77018D01*
X+2527Y+101032D01*
X+0Y+127000D01*
X+0Y+5207000D01*
X+2527Y+5232967D01*
X+9798Y+5256981D01*
X+21348Y+5278577D01*
X+36711Y+5297289D01*
X+55423Y+5312652D01*
X+77018Y+5324202D01*
X+101032Y+5331473D01*
X+127000Y+5334000D01*
X+6515100Y+5334000D01*
X+6642100Y+5207000D01*
X+6642100Y+4064000D01*
X+6896100Y+3810000D01*
X+6896100Y+508000D01*
X+6642100Y+254000D01*
X+6642100Y+127000D01*
X+6639573Y+101032D01*
X+6632302Y+77018D01*
X+6620752Y+55423D01*
X+6605389Y+36711D01*
X+6586677Y+21347D01*
X+6565081Y+9798D01*
X+6541067Y+2527D01*
X+6515100Y+0D01*
X+127000Y+0D01*
X+531310Y+2377600D02*
X+531209Y+2380024D01*
X+530390Y+2384873D01*
X+528676Y+2389722D01*
X+525874Y+2394571D01*
X+521589Y+2399358D01*
X+516740Y+2402876D01*
X+511891Y+2405120D01*
X+507042Y+2406389D01*
X+502193Y+2406810D01*
X+502100Y+2406810D01*
X+472890Y+2377600D02*
X+472991Y+2380024D01*
X+473810Y+2384873D01*
X+475524Y+2389722D01*
X+478326Y+2394571D01*
X+482611Y+2399358D01*
X+487460Y+2402876D01*
X+492309Y+2405120D01*
X+497158Y+2406389D01*
X+502007Y+2406810D01*
X+502100Y+2406810D01*
X+472890Y+2377600D02*
X+472991Y+2375176D01*
X+473810Y+2370327D01*
X+475524Y+2365478D01*
X+478326Y+2360629D01*
X+482611Y+2355842D01*
X+487460Y+2352324D01*
X+492309Y+2350080D01*
X+497158Y+2348811D01*
X+502007Y+2348390D01*
X+502100Y+2348390D01*
X+531310Y+2377600D02*
X+531209Y+2375176D01*
X+530390Y+2370327D01*
X+528676Y+2365478D01*
X+525874Y+2360629D01*
X+521589Y+2355842D01*
X+516740Y+2352324D01*
X+511891Y+2350080D01*
X+507042Y+2348811D01*
X+502193Y+2348390D01*
X+502100Y+2348390D01*
X+531310Y+2955600D02*
X+531209Y+2958024D01*
X+530390Y+2962873D01*
X+528676Y+2967722D01*
X+525874Y+2972571D01*
X+521589Y+2977358D01*
X+516740Y+2980876D01*
X+511891Y+2983120D01*
X+507042Y+2984389D01*
X+502193Y+2984810D01*
X+502100Y+2984810D01*
X+472890Y+2955600D02*
X+472991Y+2958024D01*
X+473810Y+2962873D01*
X+475524Y+2967722D01*
X+478326Y+2972571D01*
X+482611Y+2977358D01*
X+487460Y+2980876D01*
X+492309Y+2983120D01*
X+497158Y+2984389D01*
X+502007Y+2984810D01*
X+502100Y+2984810D01*
X+472890Y+2955600D02*
X+472991Y+2953176D01*
X+473810Y+2948327D01*
X+475524Y+2943478D01*
X+478326Y+2938629D01*
X+482611Y+2933842D01*
X+487460Y+2930324D01*
X+492309Y+2928080D01*
X+497158Y+2926811D01*
X+502007Y+2926390D01*
X+502100Y+2926390D01*
X+531310Y+2955600D02*
X+531209Y+2953176D01*
X+530390Y+2948327D01*
X+528676Y+2943478D01*
X+525874Y+2938629D01*
X+521589Y+2933842D01*
X+516740Y+2930324D01*
X+511891Y+2928080D01*
X+507042Y+2926811D01*
X+502193Y+2926390D01*
X+502100Y+2926390D01*
D55*
X+863600Y+3365500D02*
X+863600Y+3365500D01*
X+863600Y+3568700D02*
X+863600Y+3568700D01*
X+863599Y+3365500D02*
X+863601Y+3365500D01*
X+863599Y+3568700D02*
X+863601Y+3568700D01*
X+863598Y+3365500D02*
X+863602Y+3365500D01*
X+863598Y+3568700D02*
X+863602Y+3568700D01*
X+863597Y+3365500D02*
X+863603Y+3365500D01*
X+863597Y+3568700D02*
X+863603Y+3568700D01*
X+863596Y+3365500D02*
X+863604Y+3365500D01*
X+863596Y+3568700D02*
X+863604Y+3568700D01*
X+863595Y+3365500D02*
X+863605Y+3365500D01*
X+863595Y+3568700D02*
X+863605Y+3568700D01*
X+863594Y+3365500D02*
X+863606Y+3365500D01*
X+863594Y+3568700D02*
X+863606Y+3568700D01*
X+863593Y+3365500D02*
X+863607Y+3365500D01*
X+863593Y+3568700D02*
X+863607Y+3568700D01*
X+863592Y+3365500D02*
X+863608Y+3365500D01*
X+863592Y+3568700D02*
X+863608Y+3568700D01*
X+863591Y+3365500D02*
X+863609Y+3365500D01*
X+863591Y+3568700D02*
X+863609Y+3568700D01*
X+863590Y+3365500D02*
X+863610Y+3365500D01*
X+863590Y+3568700D02*
X+863610Y+3568700D01*
X+863589Y+3365500D02*
X+863611Y+3365500D01*
X+863589Y+3568700D02*
X+863611Y+3568700D01*
X+863588Y+3365500D02*
X+863612Y+3365500D01*
X+863588Y+3568700D02*
X+863612Y+3568700D01*
X+863587Y+3365500D02*
X+863613Y+3365500D01*
X+863587Y+3568700D02*
X+863613Y+3568700D01*
X+863586Y+3365500D02*
X+863614Y+3365500D01*
X+863586Y+3568700D02*
X+863614Y+3568700D01*
X+863585Y+3365500D02*
X+863615Y+3365500D01*
X+863585Y+3568700D02*
X+863615Y+3568700D01*
X+863584Y+3365500D02*
X+863616Y+3365500D01*
X+863584Y+3568700D02*
X+863616Y+3568700D01*
X+863583Y+3365500D02*
X+863617Y+3365500D01*
X+863583Y+3568700D02*
X+863617Y+3568700D01*
X+863582Y+3365500D02*
X+863618Y+3365500D01*
X+863582Y+3568700D02*
X+863618Y+3568700D01*
X+863581Y+3365500D02*
X+863619Y+3365500D01*
X+863581Y+3568700D02*
X+863619Y+3568700D01*
X+863580Y+3365500D02*
X+863620Y+3365500D01*
X+863580Y+3568700D02*
X+863620Y+3568700D01*
X+863579Y+3365500D02*
X+863621Y+3365500D01*
X+863579Y+3568700D02*
X+863621Y+3568700D01*
X+863578Y+3365500D02*
X+863622Y+3365500D01*
X+863578Y+3568700D02*
X+863622Y+3568700D01*
X+863577Y+3365500D02*
X+863623Y+3365500D01*
X+863577Y+3568700D02*
X+863623Y+3568700D01*
X+863576Y+3365500D02*
X+863624Y+3365500D01*
X+863576Y+3568700D02*
X+863624Y+3568700D01*
X+863575Y+3365500D02*
X+863625Y+3365500D01*
X+863575Y+3568700D02*
X+863625Y+3568700D01*
X+863574Y+3365500D02*
X+863626Y+3365500D01*
X+863574Y+3568700D02*
X+863626Y+3568700D01*
X+863573Y+3365500D02*
X+863627Y+3365500D01*
X+863573Y+3568700D02*
X+863627Y+3568700D01*
X+863572Y+3365500D02*
X+863628Y+3365500D01*
X+863572Y+3568700D02*
X+863628Y+3568700D01*
X+863571Y+3365500D02*
X+863629Y+3365500D01*
X+863571Y+3568700D02*
X+863629Y+3568700D01*
X+863570Y+3365500D02*
X+863630Y+3365500D01*
X+863570Y+3568700D02*
X+863630Y+3568700D01*
X+863569Y+3365500D02*
X+863631Y+3365500D01*
X+863569Y+3568700D02*
X+863631Y+3568700D01*
X+863568Y+3365500D02*
X+863632Y+3365500D01*
X+863568Y+3568700D02*
X+863632Y+3568700D01*
X+863567Y+3365500D02*
X+863633Y+3365500D01*
X+863567Y+3568700D02*
X+863633Y+3568700D01*
X+863566Y+3365500D02*
X+863634Y+3365500D01*
X+863566Y+3568700D02*
X+863634Y+3568700D01*
X+863565Y+3365500D02*
X+863635Y+3365500D01*
X+863565Y+3568700D02*
X+863635Y+3568700D01*
X+863564Y+3365500D02*
X+863636Y+3365500D01*
X+863564Y+3568700D02*
X+863636Y+3568700D01*
X+863563Y+3365500D02*
X+863637Y+3365500D01*
X+863563Y+3568700D02*
X+863637Y+3568700D01*
X+863562Y+3365500D02*
X+863638Y+3365500D01*
X+863562Y+3568700D02*
X+863638Y+3568700D01*
X+863561Y+3365500D02*
X+863639Y+3365500D01*
X+863561Y+3568700D02*
X+863639Y+3568700D01*
X+863560Y+3365500D02*
X+863640Y+3365500D01*
X+863560Y+3568700D02*
X+863640Y+3568700D01*
X+863559Y+3365500D02*
X+863641Y+3365500D01*
X+863559Y+3568700D02*
X+863641Y+3568700D01*
X+863558Y+3365500D02*
X+863642Y+3365500D01*
X+863558Y+3568700D02*
X+863642Y+3568700D01*
X+863557Y+3365500D02*
X+863643Y+3365500D01*
X+863557Y+3568700D02*
X+863643Y+3568700D01*
X+863556Y+3365500D02*
X+863644Y+3365500D01*
X+863556Y+3568700D02*
X+863644Y+3568700D01*
X+863555Y+3365500D02*
X+863645Y+3365500D01*
X+863555Y+3568700D02*
X+863645Y+3568700D01*
X+863554Y+3365500D02*
X+863646Y+3365500D01*
X+863554Y+3568700D02*
X+863646Y+3568700D01*
X+863553Y+3365500D02*
X+863647Y+3365500D01*
X+863553Y+3568700D02*
X+863647Y+3568700D01*
X+863552Y+3365500D02*
X+863648Y+3365500D01*
X+863552Y+3568700D02*
X+863648Y+3568700D01*
X+863551Y+3365500D02*
X+863649Y+3365500D01*
X+863551Y+3568700D02*
X+863649Y+3568700D01*
X+863550Y+3365500D02*
X+863650Y+3365500D01*
X+863550Y+3568700D02*
X+863650Y+3568700D01*
X+863549Y+3365500D02*
X+863651Y+3365500D01*
X+863549Y+3568700D02*
X+863651Y+3568700D01*
X+863548Y+3365500D02*
X+863652Y+3365500D01*
X+863548Y+3568700D02*
X+863652Y+3568700D01*
X+863547Y+3365500D02*
X+863653Y+3365500D01*
X+863547Y+3568700D02*
X+863653Y+3568700D01*
X+863546Y+3365500D02*
X+863654Y+3365500D01*
X+863546Y+3568700D02*
X+863654Y+3568700D01*
X+863545Y+3365500D02*
X+863655Y+3365500D01*
X+863545Y+3568700D02*
X+863655Y+3568700D01*
X+863544Y+3365500D02*
X+863656Y+3365500D01*
X+863544Y+3568700D02*
X+863656Y+3568700D01*
X+863543Y+3365500D02*
X+863657Y+3365500D01*
X+863543Y+3568700D02*
X+863657Y+3568700D01*
X+863542Y+3365500D02*
X+863658Y+3365500D01*
X+863542Y+3568700D02*
X+863658Y+3568700D01*
X+863541Y+3365500D02*
X+863659Y+3365500D01*
X+863541Y+3568700D02*
X+863659Y+3568700D01*
X+863540Y+3365500D02*
X+863660Y+3365500D01*
X+863540Y+3568700D02*
X+863660Y+3568700D01*
X+863539Y+3365500D02*
X+863661Y+3365500D01*
X+863539Y+3568700D02*
X+863661Y+3568700D01*
X+863538Y+3365500D02*
X+863662Y+3365500D01*
X+863538Y+3568700D02*
X+863662Y+3568700D01*
X+863537Y+3365500D02*
X+863663Y+3365500D01*
X+863537Y+3568700D02*
X+863663Y+3568700D01*
X+863536Y+3365500D02*
X+863664Y+3365500D01*
X+863536Y+3568700D02*
X+863664Y+3568700D01*
X+863535Y+3365500D02*
X+863665Y+3365500D01*
X+863535Y+3568700D02*
X+863665Y+3568700D01*
X+863534Y+3365500D02*
X+863666Y+3365500D01*
X+863534Y+3568700D02*
X+863666Y+3568700D01*
X+863533Y+3365500D02*
X+863667Y+3365500D01*
X+863533Y+3568700D02*
X+863667Y+3568700D01*
X+863532Y+3365500D02*
X+863668Y+3365500D01*
X+863532Y+3568700D02*
X+863668Y+3568700D01*
X+863531Y+3365500D02*
X+863669Y+3365500D01*
X+863531Y+3568700D02*
X+863669Y+3568700D01*
X+863530Y+3365500D02*
X+863670Y+3365500D01*
X+863530Y+3568700D02*
X+863670Y+3568700D01*
X+863529Y+3365500D02*
X+863671Y+3365500D01*
X+863529Y+3568700D02*
X+863671Y+3568700D01*
X+863528Y+3365500D02*
X+863672Y+3365500D01*
X+863528Y+3568700D02*
X+863672Y+3568700D01*
X+863527Y+3365500D02*
X+863673Y+3365500D01*
X+863527Y+3568700D02*
X+863673Y+3568700D01*
X+863526Y+3365500D02*
X+863674Y+3365500D01*
X+863526Y+3568700D02*
X+863674Y+3568700D01*
X+863525Y+3365500D02*
X+863675Y+3365500D01*
X+863525Y+3568700D02*
X+863675Y+3568700D01*
X+863524Y+3365500D02*
X+863676Y+3365500D01*
X+863524Y+3568700D02*
X+863676Y+3568700D01*
X+863523Y+3365500D02*
X+863677Y+3365500D01*
X+863523Y+3568700D02*
X+863677Y+3568700D01*
X+863522Y+3365500D02*
X+863678Y+3365500D01*
X+863522Y+3568700D02*
X+863678Y+3568700D01*
X+863521Y+3365500D02*
X+863679Y+3365500D01*
X+863521Y+3568700D02*
X+863679Y+3568700D01*
X+863520Y+3365500D02*
X+863680Y+3365500D01*
X+863520Y+3568700D02*
X+863680Y+3568700D01*
X+863519Y+3365500D02*
X+863681Y+3365500D01*
X+863519Y+3568700D02*
X+863681Y+3568700D01*
X+863518Y+3365500D02*
X+863682Y+3365500D01*
X+863518Y+3568700D02*
X+863682Y+3568700D01*
X+863517Y+3365500D02*
X+863683Y+3365500D01*
X+863517Y+3568700D02*
X+863683Y+3568700D01*
X+863516Y+3365500D02*
X+863684Y+3365500D01*
X+863516Y+3568700D02*
X+863684Y+3568700D01*
X+863515Y+3365500D02*
X+863685Y+3365500D01*
X+863515Y+3568700D02*
X+863685Y+3568700D01*
X+863514Y+3365500D02*
X+863686Y+3365500D01*
X+863514Y+3568700D02*
X+863686Y+3568700D01*
X+863513Y+3365500D02*
X+863687Y+3365500D01*
X+863513Y+3568700D02*
X+863687Y+3568700D01*
X+863512Y+3365500D02*
X+863688Y+3365500D01*
X+863512Y+3568700D02*
X+863688Y+3568700D01*
X+863511Y+3365500D02*
X+863689Y+3365500D01*
X+863511Y+3568700D02*
X+863689Y+3568700D01*
X+863510Y+3365500D02*
X+863690Y+3365500D01*
X+863510Y+3568700D02*
X+863690Y+3568700D01*
X+863509Y+3365500D02*
X+863691Y+3365500D01*
X+863509Y+3568700D02*
X+863691Y+3568700D01*
X+863508Y+3365500D02*
X+863692Y+3365500D01*
X+863508Y+3568700D02*
X+863692Y+3568700D01*
X+863507Y+3365500D02*
X+863693Y+3365500D01*
X+863507Y+3568700D02*
X+863693Y+3568700D01*
X+863506Y+3365500D02*
X+863694Y+3365500D01*
X+863506Y+3568700D02*
X+863694Y+3568700D01*
X+863505Y+3365500D02*
X+863695Y+3365500D01*
X+863505Y+3568700D02*
X+863695Y+3568700D01*
X+863504Y+3365500D02*
X+863696Y+3365500D01*
X+863504Y+3568700D02*
X+863696Y+3568700D01*
X+863503Y+3365500D02*
X+863697Y+3365500D01*
X+863503Y+3568700D02*
X+863697Y+3568700D01*
X+863502Y+3365500D02*
X+863698Y+3365500D01*
X+863502Y+3568700D02*
X+863698Y+3568700D01*
X+863501Y+3365500D02*
X+863699Y+3365500D01*
X+863501Y+3568700D02*
X+863699Y+3568700D01*
X+863500Y+3365500D02*
X+863700Y+3365500D01*
X+863500Y+3568700D02*
X+863700Y+3568700D01*
X+863499Y+3365500D02*
X+863701Y+3365500D01*
X+863499Y+3568700D02*
X+863701Y+3568700D01*
X+863498Y+3365500D02*
X+863702Y+3365500D01*
X+863498Y+3568700D02*
X+863702Y+3568700D01*
X+863497Y+3365500D02*
X+863703Y+3365500D01*
X+863497Y+3568700D02*
X+863703Y+3568700D01*
X+863496Y+3365500D02*
X+863704Y+3365500D01*
X+863496Y+3568700D02*
X+863704Y+3568700D01*
X+863495Y+3365500D02*
X+863705Y+3365500D01*
X+863495Y+3568700D02*
X+863705Y+3568700D01*
X+863494Y+3365500D02*
X+863706Y+3365500D01*
X+863494Y+3568700D02*
X+863706Y+3568700D01*
X+863493Y+3365500D02*
X+863707Y+3365500D01*
X+863493Y+3568700D02*
X+863707Y+3568700D01*
X+863492Y+3365500D02*
X+863708Y+3365500D01*
X+863492Y+3568700D02*
X+863708Y+3568700D01*
X+863491Y+3365500D02*
X+863709Y+3365500D01*
X+863491Y+3568700D02*
X+863709Y+3568700D01*
X+863490Y+3365500D02*
X+863710Y+3365500D01*
X+863490Y+3568700D02*
X+863710Y+3568700D01*
X+863489Y+3365500D02*
X+863711Y+3365500D01*
X+863489Y+3568700D02*
X+863711Y+3568700D01*
X+863488Y+3365500D02*
X+863712Y+3365500D01*
X+863488Y+3568700D02*
X+863712Y+3568700D01*
X+863487Y+3365500D02*
X+863713Y+3365500D01*
X+863487Y+3568700D02*
X+863713Y+3568700D01*
X+863486Y+3365500D02*
X+863714Y+3365500D01*
X+863486Y+3568700D02*
X+863714Y+3568700D01*
X+863485Y+3365500D02*
X+863715Y+3365500D01*
X+863485Y+3568700D02*
X+863715Y+3568700D01*
X+863484Y+3365500D02*
X+863716Y+3365500D01*
X+863484Y+3568700D02*
X+863716Y+3568700D01*
X+863483Y+3365500D02*
X+863717Y+3365500D01*
X+863483Y+3568700D02*
X+863717Y+3568700D01*
X+863482Y+3365500D02*
X+863718Y+3365500D01*
X+863482Y+3568700D02*
X+863718Y+3568700D01*
X+863481Y+3365500D02*
X+863719Y+3365500D01*
X+863481Y+3568700D02*
X+863719Y+3568700D01*
X+863480Y+3365500D02*
X+863720Y+3365500D01*
X+863480Y+3568700D02*
X+863720Y+3568700D01*
X+863479Y+3365500D02*
X+863721Y+3365500D01*
X+863479Y+3568700D02*
X+863721Y+3568700D01*
X+863478Y+3365500D02*
X+863722Y+3365500D01*
X+863478Y+3568700D02*
X+863722Y+3568700D01*
X+863477Y+3365500D02*
X+863723Y+3365500D01*
X+863477Y+3568700D02*
X+863723Y+3568700D01*
X+863476Y+3365500D02*
X+863724Y+3365500D01*
X+863476Y+3568700D02*
X+863724Y+3568700D01*
X+863475Y+3365500D02*
X+863725Y+3365500D01*
X+863475Y+3568700D02*
X+863725Y+3568700D01*
X+863474Y+3365500D02*
X+863726Y+3365500D01*
X+863474Y+3568700D02*
X+863726Y+3568700D01*
X+863473Y+3365500D02*
X+863727Y+3365500D01*
X+863473Y+3568700D02*
X+863727Y+3568700D01*
X+863472Y+3365500D02*
X+863728Y+3365500D01*
X+863472Y+3568700D02*
X+863728Y+3568700D01*
X+863471Y+3365500D02*
X+863729Y+3365500D01*
X+863471Y+3568700D02*
X+863729Y+3568700D01*
X+863470Y+3365500D02*
X+863730Y+3365500D01*
X+863470Y+3568700D02*
X+863730Y+3568700D01*
X+863469Y+3365500D02*
X+863731Y+3365500D01*
X+863469Y+3568700D02*
X+863731Y+3568700D01*
X+863468Y+3365500D02*
X+863732Y+3365500D01*
X+863468Y+3568700D02*
X+863732Y+3568700D01*
X+863467Y+3365500D02*
X+863733Y+3365500D01*
X+863467Y+3568700D02*
X+863733Y+3568700D01*
X+863466Y+3365500D02*
X+863734Y+3365500D01*
X+863466Y+3568700D02*
X+863734Y+3568700D01*
X+863465Y+3365500D02*
X+863735Y+3365500D01*
X+863465Y+3568700D02*
X+863735Y+3568700D01*
X+863464Y+3365500D02*
X+863736Y+3365500D01*
X+863464Y+3568700D02*
X+863736Y+3568700D01*
X+863463Y+3365500D02*
X+863737Y+3365500D01*
X+863463Y+3568700D02*
X+863737Y+3568700D01*
X+863462Y+3365500D02*
X+863738Y+3365500D01*
X+863462Y+3568700D02*
X+863738Y+3568700D01*
X+863461Y+3365500D02*
X+863739Y+3365500D01*
X+863461Y+3568700D02*
X+863739Y+3568700D01*
X+863460Y+3365500D02*
X+863740Y+3365500D01*
X+863460Y+3568700D02*
X+863740Y+3568700D01*
X+863459Y+3365500D02*
X+863741Y+3365500D01*
X+863459Y+3568700D02*
X+863741Y+3568700D01*
X+863458Y+3365500D02*
X+863742Y+3365500D01*
X+863458Y+3568700D02*
X+863742Y+3568700D01*
X+863457Y+3365500D02*
X+863743Y+3365500D01*
X+863457Y+3568700D02*
X+863743Y+3568700D01*
X+863456Y+3365500D02*
X+863744Y+3365500D01*
X+863456Y+3568700D02*
X+863744Y+3568700D01*
X+863455Y+3365500D02*
X+863745Y+3365500D01*
X+863455Y+3568700D02*
X+863745Y+3568700D01*
X+863454Y+3365500D02*
X+863746Y+3365500D01*
X+863454Y+3568700D02*
X+863746Y+3568700D01*
X+863453Y+3365500D02*
X+863747Y+3365500D01*
X+863453Y+3568700D02*
X+863747Y+3568700D01*
X+863452Y+3365500D02*
X+863748Y+3365500D01*
X+863452Y+3568700D02*
X+863748Y+3568700D01*
X+863451Y+3365500D02*
X+863749Y+3365500D01*
X+863451Y+3568700D02*
X+863749Y+3568700D01*
X+863450Y+3365500D02*
X+863750Y+3365500D01*
X+863450Y+3568700D02*
X+863750Y+3568700D01*
X+863449Y+3365500D02*
X+863751Y+3365500D01*
X+863449Y+3568700D02*
X+863751Y+3568700D01*
X+863448Y+3365500D02*
X+863752Y+3365500D01*
X+863448Y+3568700D02*
X+863752Y+3568700D01*
X+863447Y+3365500D02*
X+863753Y+3365500D01*
X+863447Y+3568700D02*
X+863753Y+3568700D01*
X+863446Y+3365500D02*
X+863754Y+3365500D01*
X+863446Y+3568700D02*
X+863754Y+3568700D01*
X+863445Y+3365500D02*
X+863755Y+3365500D01*
X+863445Y+3568700D02*
X+863755Y+3568700D01*
X+863444Y+3365500D02*
X+863756Y+3365500D01*
X+863444Y+3568700D02*
X+863756Y+3568700D01*
X+863443Y+3365500D02*
X+863757Y+3365500D01*
X+863443Y+3568700D02*
X+863757Y+3568700D01*
X+863442Y+3365500D02*
X+863758Y+3365500D01*
X+863442Y+3568700D02*
X+863758Y+3568700D01*
X+863441Y+3365500D02*
X+863759Y+3365500D01*
X+863441Y+3568700D02*
X+863759Y+3568700D01*
X+863440Y+3365500D02*
X+863760Y+3365500D01*
X+863440Y+3568700D02*
X+863760Y+3568700D01*
X+863439Y+3365500D02*
X+863761Y+3365500D01*
X+863439Y+3568700D02*
X+863761Y+3568700D01*
X+863438Y+3365500D02*
X+863762Y+3365500D01*
X+863438Y+3568700D02*
X+863762Y+3568700D01*
X+863437Y+3365500D02*
X+863763Y+3365500D01*
X+863437Y+3568700D02*
X+863763Y+3568700D01*
X+863436Y+3365500D02*
X+863764Y+3365500D01*
X+863436Y+3568700D02*
X+863764Y+3568700D01*
X+863435Y+3365500D02*
X+863765Y+3365500D01*
X+863435Y+3568700D02*
X+863765Y+3568700D01*
X+863434Y+3365500D02*
X+863766Y+3365500D01*
X+863434Y+3568700D02*
X+863766Y+3568700D01*
X+863433Y+3365500D02*
X+863767Y+3365500D01*
X+863433Y+3568700D02*
X+863767Y+3568700D01*
X+863432Y+3365500D02*
X+863768Y+3365500D01*
X+863432Y+3568700D02*
X+863768Y+3568700D01*
X+863431Y+3365500D02*
X+863769Y+3365500D01*
X+863431Y+3568700D02*
X+863769Y+3568700D01*
X+863430Y+3365500D02*
X+863770Y+3365500D01*
X+863430Y+3568700D02*
X+863770Y+3568700D01*
X+863429Y+3365500D02*
X+863771Y+3365500D01*
X+863429Y+3568700D02*
X+863771Y+3568700D01*
X+863428Y+3365500D02*
X+863772Y+3365500D01*
X+863428Y+3568700D02*
X+863772Y+3568700D01*
X+863427Y+3365500D02*
X+863773Y+3365500D01*
X+863427Y+3568700D02*
X+863773Y+3568700D01*
X+863426Y+3365500D02*
X+863774Y+3365500D01*
X+863426Y+3568700D02*
X+863774Y+3568700D01*
X+863425Y+3365500D02*
X+863775Y+3365500D01*
X+863425Y+3568700D02*
X+863775Y+3568700D01*
X+863424Y+3365500D02*
X+863776Y+3365500D01*
X+863424Y+3568700D02*
X+863776Y+3568700D01*
X+863423Y+3365500D02*
X+863777Y+3365500D01*
X+863423Y+3568700D02*
X+863777Y+3568700D01*
X+863422Y+3365500D02*
X+863778Y+3365500D01*
X+863422Y+3568700D02*
X+863778Y+3568700D01*
X+863421Y+3365500D02*
X+863779Y+3365500D01*
X+863421Y+3568700D02*
X+863779Y+3568700D01*
X+863420Y+3365500D02*
X+863780Y+3365500D01*
X+863420Y+3568700D02*
X+863780Y+3568700D01*
X+863419Y+3365500D02*
X+863781Y+3365500D01*
X+863419Y+3568700D02*
X+863781Y+3568700D01*
X+863418Y+3365500D02*
X+863782Y+3365500D01*
X+863418Y+3568700D02*
X+863782Y+3568700D01*
X+863417Y+3365500D02*
X+863783Y+3365500D01*
X+863417Y+3568700D02*
X+863783Y+3568700D01*
X+863416Y+3365500D02*
X+863784Y+3365500D01*
X+863416Y+3568700D02*
X+863784Y+3568700D01*
X+863415Y+3365500D02*
X+863785Y+3365500D01*
X+863415Y+3568700D02*
X+863785Y+3568700D01*
X+863414Y+3365500D02*
X+863786Y+3365500D01*
X+863414Y+3568700D02*
X+863786Y+3568700D01*
X+863413Y+3365500D02*
X+863787Y+3365500D01*
X+863413Y+3568700D02*
X+863787Y+3568700D01*
X+863412Y+3365500D02*
X+863788Y+3365500D01*
X+863412Y+3568700D02*
X+863788Y+3568700D01*
X+863411Y+3365500D02*
X+863789Y+3365500D01*
X+863411Y+3568700D02*
X+863789Y+3568700D01*
X+863410Y+3365500D02*
X+863790Y+3365500D01*
X+863410Y+3568700D02*
X+863790Y+3568700D01*
X+863409Y+3365500D02*
X+863791Y+3365500D01*
X+863409Y+3568700D02*
X+863791Y+3568700D01*
X+863408Y+3365500D02*
X+863792Y+3365500D01*
X+863408Y+3568700D02*
X+863792Y+3568700D01*
X+863407Y+3365500D02*
X+863793Y+3365500D01*
X+863407Y+3568700D02*
X+863793Y+3568700D01*
X+863406Y+3365500D02*
X+863794Y+3365500D01*
X+863406Y+3568700D02*
X+863794Y+3568700D01*
X+863405Y+3365500D02*
X+863795Y+3365500D01*
X+863405Y+3568700D02*
X+863795Y+3568700D01*
X+863404Y+3365500D02*
X+863796Y+3365500D01*
X+863404Y+3568700D02*
X+863796Y+3568700D01*
X+863403Y+3365500D02*
X+863797Y+3365500D01*
X+863403Y+3568700D02*
X+863797Y+3568700D01*
X+863402Y+3365500D02*
X+863798Y+3365500D01*
X+863402Y+3568700D02*
X+863798Y+3568700D01*
X+863401Y+3365500D02*
X+863799Y+3365500D01*
X+863401Y+3568700D02*
X+863799Y+3568700D01*
X+863400Y+3365500D02*
X+863800Y+3365500D01*
X+863400Y+3568700D02*
X+863800Y+3568700D01*
X+863399Y+3365500D02*
X+863801Y+3365500D01*
X+863399Y+3568700D02*
X+863801Y+3568700D01*
X+863398Y+3365500D02*
X+863802Y+3365500D01*
X+863398Y+3568700D02*
X+863802Y+3568700D01*
X+863397Y+3365500D02*
X+863803Y+3365500D01*
X+863397Y+3568700D02*
X+863803Y+3568700D01*
X+863396Y+3365500D02*
X+863804Y+3365500D01*
X+863396Y+3568700D02*
X+863804Y+3568700D01*
X+863395Y+3365500D02*
X+863805Y+3365500D01*
X+863395Y+3568700D02*
X+863805Y+3568700D01*
X+863394Y+3365500D02*
X+863806Y+3365500D01*
X+863394Y+3568700D02*
X+863806Y+3568700D01*
X+863393Y+3365500D02*
X+863807Y+3365500D01*
X+863393Y+3568700D02*
X+863807Y+3568700D01*
X+863392Y+3365500D02*
X+863808Y+3365500D01*
X+863392Y+3568700D02*
X+863808Y+3568700D01*
X+863391Y+3365500D02*
X+863809Y+3365500D01*
X+863391Y+3568700D02*
X+863809Y+3568700D01*
X+863390Y+3365500D02*
X+863810Y+3365500D01*
X+863390Y+3568700D02*
X+863810Y+3568700D01*
X+863389Y+3365500D02*
X+863811Y+3365500D01*
X+863389Y+3568700D02*
X+863811Y+3568700D01*
X+863388Y+3365500D02*
X+863812Y+3365500D01*
X+863388Y+3568700D02*
X+863812Y+3568700D01*
X+863387Y+3365500D02*
X+863813Y+3365500D01*
X+863387Y+3568700D02*
X+863813Y+3568700D01*
X+863386Y+3365500D02*
X+863814Y+3365500D01*
X+863386Y+3568700D02*
X+863814Y+3568700D01*
X+863385Y+3365500D02*
X+863815Y+3365500D01*
X+863385Y+3568700D02*
X+863815Y+3568700D01*
X+863384Y+3365500D02*
X+863816Y+3365500D01*
X+863384Y+3568700D02*
X+863816Y+3568700D01*
X+863383Y+3365500D02*
X+863817Y+3365500D01*
X+863383Y+3568700D02*
X+863817Y+3568700D01*
X+863382Y+3365500D02*
X+863818Y+3365500D01*
X+863382Y+3568700D02*
X+863818Y+3568700D01*
X+863381Y+3365500D02*
X+863819Y+3365500D01*
X+863381Y+3568700D02*
X+863819Y+3568700D01*
X+863380Y+3365500D02*
X+863820Y+3365500D01*
X+863380Y+3568700D02*
X+863820Y+3568700D01*
X+863379Y+3365500D02*
X+863821Y+3365500D01*
X+863379Y+3568700D02*
X+863821Y+3568700D01*
X+863378Y+3365500D02*
X+863822Y+3365500D01*
X+863378Y+3568700D02*
X+863822Y+3568700D01*
X+863377Y+3365500D02*
X+863823Y+3365500D01*
X+863377Y+3568700D02*
X+863823Y+3568700D01*
X+863376Y+3365500D02*
X+863824Y+3365500D01*
X+863376Y+3568700D02*
X+863824Y+3568700D01*
X+863375Y+3365500D02*
X+863825Y+3365500D01*
X+863375Y+3568700D02*
X+863825Y+3568700D01*
X+863374Y+3365500D02*
X+863826Y+3365500D01*
X+863374Y+3568700D02*
X+863826Y+3568700D01*
X+863373Y+3365500D02*
X+863827Y+3365500D01*
X+863373Y+3568700D02*
X+863827Y+3568700D01*
X+863372Y+3365500D02*
X+863828Y+3365500D01*
X+863372Y+3568700D02*
X+863828Y+3568700D01*
X+863371Y+3365500D02*
X+863829Y+3365500D01*
X+863371Y+3568700D02*
X+863829Y+3568700D01*
X+863370Y+3365500D02*
X+863830Y+3365500D01*
X+863370Y+3568700D02*
X+863830Y+3568700D01*
X+863369Y+3365500D02*
X+863831Y+3365500D01*
X+863369Y+3568700D02*
X+863831Y+3568700D01*
X+863368Y+3365500D02*
X+863832Y+3365500D01*
X+863368Y+3568700D02*
X+863832Y+3568700D01*
X+863367Y+3365500D02*
X+863833Y+3365500D01*
X+863367Y+3568700D02*
X+863833Y+3568700D01*
X+863366Y+3365500D02*
X+863834Y+3365500D01*
X+863366Y+3568700D02*
X+863834Y+3568700D01*
X+863365Y+3365500D02*
X+863835Y+3365500D01*
X+863365Y+3568700D02*
X+863835Y+3568700D01*
X+863364Y+3365500D02*
X+863836Y+3365500D01*
X+863364Y+3568700D02*
X+863836Y+3568700D01*
X+863363Y+3365500D02*
X+863837Y+3365500D01*
X+863363Y+3568700D02*
X+863837Y+3568700D01*
X+863362Y+3365500D02*
X+863838Y+3365500D01*
X+863362Y+3568700D02*
X+863838Y+3568700D01*
X+863361Y+3365500D02*
X+863839Y+3365500D01*
X+863361Y+3568700D02*
X+863839Y+3568700D01*
X+863360Y+3365500D02*
X+863840Y+3365500D01*
X+863360Y+3568700D02*
X+863840Y+3568700D01*
X+863359Y+3365500D02*
X+863841Y+3365500D01*
X+863359Y+3568700D02*
X+863841Y+3568700D01*
X+863358Y+3365500D02*
X+863842Y+3365500D01*
X+863358Y+3568700D02*
X+863842Y+3568700D01*
X+863357Y+3365500D02*
X+863843Y+3365500D01*
X+863357Y+3568700D02*
X+863843Y+3568700D01*
X+863356Y+3365500D02*
X+863844Y+3365500D01*
X+863356Y+3568700D02*
X+863844Y+3568700D01*
X+863355Y+3365500D02*
X+863845Y+3365500D01*
X+863355Y+3568700D02*
X+863845Y+3568700D01*
X+863354Y+3365500D02*
X+863846Y+3365500D01*
X+863354Y+3568700D02*
X+863846Y+3568700D01*
X+863353Y+3365500D02*
X+863847Y+3365500D01*
X+863353Y+3568700D02*
X+863847Y+3568700D01*
X+863352Y+3365500D02*
X+863848Y+3365500D01*
X+863352Y+3568700D02*
X+863848Y+3568700D01*
X+863351Y+3365500D02*
X+863849Y+3365500D01*
X+863351Y+3568700D02*
X+863849Y+3568700D01*
X+863350Y+3365500D02*
X+863850Y+3365500D01*
X+863350Y+3568700D02*
X+863850Y+3568700D01*
X+863349Y+3365500D02*
X+863851Y+3365500D01*
X+863349Y+3568700D02*
X+863851Y+3568700D01*
X+863348Y+3365500D02*
X+863852Y+3365500D01*
X+863348Y+3568700D02*
X+863852Y+3568700D01*
X+863347Y+3365500D02*
X+863853Y+3365500D01*
X+863347Y+3568700D02*
X+863853Y+3568700D01*
X+863346Y+3365500D02*
X+863854Y+3365500D01*
X+863346Y+3568700D02*
X+863854Y+3568700D01*
X+863345Y+3365500D02*
X+863855Y+3365500D01*
X+863345Y+3568700D02*
X+863855Y+3568700D01*
X+863344Y+3365500D02*
X+863856Y+3365500D01*
X+863344Y+3568700D02*
X+863856Y+3568700D01*
X+863343Y+3365500D02*
X+863857Y+3365500D01*
X+863343Y+3568700D02*
X+863857Y+3568700D01*
X+863342Y+3365500D02*
X+863858Y+3365500D01*
X+863342Y+3568700D02*
X+863858Y+3568700D01*
X+863341Y+3365500D02*
X+863859Y+3365500D01*
X+863341Y+3568700D02*
X+863859Y+3568700D01*
X+863340Y+3365500D02*
X+863860Y+3365500D01*
X+863340Y+3568700D02*
X+863860Y+3568700D01*
X+863339Y+3365500D02*
X+863861Y+3365500D01*
X+863339Y+3568700D02*
X+863861Y+3568700D01*
X+863338Y+3365500D02*
X+863862Y+3365500D01*
X+863338Y+3568700D02*
X+863862Y+3568700D01*
X+863337Y+3365500D02*
X+863863Y+3365500D01*
X+863337Y+3568700D02*
X+863863Y+3568700D01*
X+863336Y+3365500D02*
X+863864Y+3365500D01*
X+863336Y+3568700D02*
X+863864Y+3568700D01*
X+863335Y+3365500D02*
X+863865Y+3365500D01*
X+863335Y+3568700D02*
X+863865Y+3568700D01*
X+863334Y+3365500D02*
X+863866Y+3365500D01*
X+863334Y+3568700D02*
X+863866Y+3568700D01*
X+863333Y+3365500D02*
X+863867Y+3365500D01*
X+863333Y+3568700D02*
X+863867Y+3568700D01*
X+863332Y+3365500D02*
X+863868Y+3365500D01*
X+863332Y+3568700D02*
X+863868Y+3568700D01*
X+863331Y+3365500D02*
X+863869Y+3365500D01*
X+863331Y+3568700D02*
X+863869Y+3568700D01*
X+863330Y+3365500D02*
X+863870Y+3365500D01*
X+863330Y+3568700D02*
X+863870Y+3568700D01*
X+863329Y+3365500D02*
X+863871Y+3365500D01*
X+863329Y+3568700D02*
X+863871Y+3568700D01*
X+863328Y+3365500D02*
X+863872Y+3365500D01*
X+863328Y+3568700D02*
X+863872Y+3568700D01*
X+863327Y+3365500D02*
X+863873Y+3365500D01*
X+863327Y+3568700D02*
X+863873Y+3568700D01*
X+863326Y+3365500D02*
X+863874Y+3365500D01*
X+863326Y+3568700D02*
X+863874Y+3568700D01*
X+863325Y+3365500D02*
X+863875Y+3365500D01*
X+863325Y+3568700D02*
X+863875Y+3568700D01*
X+863324Y+3365500D02*
X+863876Y+3365500D01*
X+863324Y+3568700D02*
X+863876Y+3568700D01*
X+863323Y+3365500D02*
X+863877Y+3365500D01*
X+863323Y+3568700D02*
X+863877Y+3568700D01*
X+863322Y+3365500D02*
X+863878Y+3365500D01*
X+863322Y+3568700D02*
X+863878Y+3568700D01*
X+863321Y+3365500D02*
X+863879Y+3365500D01*
X+863321Y+3568700D02*
X+863879Y+3568700D01*
X+863320Y+3365500D02*
X+863880Y+3365500D01*
X+863320Y+3568700D02*
X+863880Y+3568700D01*
X+863319Y+3365500D02*
X+863881Y+3365500D01*
X+863319Y+3568700D02*
X+863881Y+3568700D01*
X+863318Y+3365500D02*
X+863882Y+3365500D01*
X+863318Y+3568700D02*
X+863882Y+3568700D01*
X+863317Y+3365500D02*
X+863883Y+3365500D01*
X+863317Y+3568700D02*
X+863883Y+3568700D01*
X+863316Y+3365500D02*
X+863884Y+3365500D01*
X+863316Y+3568700D02*
X+863884Y+3568700D01*
X+863315Y+3365500D02*
X+863885Y+3365500D01*
X+863315Y+3568700D02*
X+863885Y+3568700D01*
X+863314Y+3365500D02*
X+863886Y+3365500D01*
X+863314Y+3568700D02*
X+863886Y+3568700D01*
X+863313Y+3365500D02*
X+863887Y+3365500D01*
X+863313Y+3568700D02*
X+863887Y+3568700D01*
X+863312Y+3365500D02*
X+863888Y+3365500D01*
X+863312Y+3568700D02*
X+863888Y+3568700D01*
X+863311Y+3365500D02*
X+863889Y+3365500D01*
X+863311Y+3568700D02*
X+863889Y+3568700D01*
X+863310Y+3365500D02*
X+863890Y+3365500D01*
X+863310Y+3568700D02*
X+863890Y+3568700D01*
X+863309Y+3365500D02*
X+863891Y+3365500D01*
X+863309Y+3568700D02*
X+863891Y+3568700D01*
X+863308Y+3365500D02*
X+863892Y+3365500D01*
X+863308Y+3568700D02*
X+863892Y+3568700D01*
X+863307Y+3365500D02*
X+863893Y+3365500D01*
X+863307Y+3568700D02*
X+863893Y+3568700D01*
X+863306Y+3365500D02*
X+863894Y+3365500D01*
X+863306Y+3568700D02*
X+863894Y+3568700D01*
X+863305Y+3365500D02*
X+863895Y+3365500D01*
X+863305Y+3568700D02*
X+863895Y+3568700D01*
X+863304Y+3365500D02*
X+863896Y+3365500D01*
X+863304Y+3568700D02*
X+863896Y+3568700D01*
X+863303Y+3365500D02*
X+863897Y+3365500D01*
X+863303Y+3568700D02*
X+863897Y+3568700D01*
X+863302Y+3365500D02*
X+863898Y+3365500D01*
X+863302Y+3568700D02*
X+863898Y+3568700D01*
X+863301Y+3365500D02*
X+863899Y+3365500D01*
X+863301Y+3568700D02*
X+863899Y+3568700D01*
X+863300Y+3365500D02*
X+863900Y+3365500D01*
X+863300Y+3568700D02*
X+863900Y+3568700D01*
X+863299Y+3365500D02*
X+863901Y+3365500D01*
X+863299Y+3568700D02*
X+863901Y+3568700D01*
X+863298Y+3365500D02*
X+863902Y+3365500D01*
X+863298Y+3568700D02*
X+863902Y+3568700D01*
X+863297Y+3365500D02*
X+863903Y+3365500D01*
X+863297Y+3568700D02*
X+863903Y+3568700D01*
X+863296Y+3365500D02*
X+863904Y+3365500D01*
X+863296Y+3568700D02*
X+863904Y+3568700D01*
X+863295Y+3365500D02*
X+863905Y+3365500D01*
X+863295Y+3568700D02*
X+863905Y+3568700D01*
X+863294Y+3365500D02*
X+863906Y+3365500D01*
X+863294Y+3568700D02*
X+863906Y+3568700D01*
X+863293Y+3365500D02*
X+863907Y+3365500D01*
X+863293Y+3568700D02*
X+863907Y+3568700D01*
X+863292Y+3365500D02*
X+863908Y+3365500D01*
X+863292Y+3568700D02*
X+863908Y+3568700D01*
X+863291Y+3365500D02*
X+863909Y+3365500D01*
X+863291Y+3568700D02*
X+863909Y+3568700D01*
X+863290Y+3365500D02*
X+863910Y+3365500D01*
X+863290Y+3568700D02*
X+863910Y+3568700D01*
X+863289Y+3365500D02*
X+863911Y+3365500D01*
X+863289Y+3568700D02*
X+863911Y+3568700D01*
X+863288Y+3365500D02*
X+863912Y+3365500D01*
X+863288Y+3568700D02*
X+863912Y+3568700D01*
X+863287Y+3365500D02*
X+863913Y+3365500D01*
X+863287Y+3568700D02*
X+863913Y+3568700D01*
X+863286Y+3365500D02*
X+863914Y+3365500D01*
X+863286Y+3568700D02*
X+863914Y+3568700D01*
X+863285Y+3365500D02*
X+863915Y+3365500D01*
X+863285Y+3568700D02*
X+863915Y+3568700D01*
X+863284Y+3365500D02*
X+863916Y+3365500D01*
X+863284Y+3568700D02*
X+863916Y+3568700D01*
X+863283Y+3365500D02*
X+863917Y+3365500D01*
X+863283Y+3568700D02*
X+863917Y+3568700D01*
X+863282Y+3365500D02*
X+863918Y+3365500D01*
X+863282Y+3568700D02*
X+863918Y+3568700D01*
X+860742Y+3365540D02*
X+866458Y+3365540D01*
X+860742Y+3568660D02*
X+866458Y+3568660D01*
X+858202Y+3365643D02*
X+868998Y+3365643D01*
X+858202Y+3568557D02*
X+868998Y+3568557D01*
X+855662Y+3365811D02*
X+871538Y+3365811D01*
X+855662Y+3568389D02*
X+871538Y+3568389D01*
X+853122Y+3366042D02*
X+874078Y+3366042D01*
X+853122Y+3568158D02*
X+874078Y+3568158D01*
X+850582Y+3366337D02*
X+876618Y+3366337D01*
X+850582Y+3567863D02*
X+876618Y+3567863D01*
X+848042Y+3366698D02*
X+879158Y+3366698D01*
X+848042Y+3567502D02*
X+879158Y+3567502D01*
X+845502Y+3367125D02*
X+881698Y+3367125D01*
X+845502Y+3567075D02*
X+881698Y+3567075D01*
X+842962Y+3367618D02*
X+884238Y+3367618D01*
X+842962Y+3566582D02*
X+884238Y+3566582D01*
X+840422Y+3368179D02*
X+886778Y+3368179D01*
X+840422Y+3566021D02*
X+886778Y+3566021D01*
X+837882Y+3368809D02*
X+889318Y+3368809D01*
X+837882Y+3565391D02*
X+889318Y+3565391D01*
X+835342Y+3369509D02*
X+891858Y+3369509D01*
X+835342Y+3564691D02*
X+891858Y+3564691D01*
X+832802Y+3370280D02*
X+894398Y+3370280D01*
X+832802Y+3563920D02*
X+894398Y+3563920D01*
X+830262Y+3371125D02*
X+896938Y+3371125D01*
X+830262Y+3563075D02*
X+896938Y+3563075D01*
X+827722Y+3372046D02*
X+899478Y+3372046D01*
X+827722Y+3562154D02*
X+899478Y+3562154D01*
X+825182Y+3373044D02*
X+902018Y+3373044D01*
X+825182Y+3561156D02*
X+902018Y+3561156D01*
X+822642Y+3374121D02*
X+904558Y+3374121D01*
X+822642Y+3560079D02*
X+904558Y+3560079D01*
X+820102Y+3375282D02*
X+907098Y+3375282D01*
X+820102Y+3558918D02*
X+907098Y+3558918D01*
X+817562Y+3376529D02*
X+909638Y+3376529D01*
X+817562Y+3557671D02*
X+909638Y+3557671D01*
X+815022Y+3377866D02*
X+912178Y+3377866D01*
X+815022Y+3556334D02*
X+912178Y+3556334D01*
X+812482Y+3379296D02*
X+914718Y+3379296D01*
X+812482Y+3554904D02*
X+914718Y+3554904D01*
X+809942Y+3380825D02*
X+917258Y+3380825D01*
X+809942Y+3553375D02*
X+917258Y+3553375D01*
X+807402Y+3382458D02*
X+919798Y+3382458D01*
X+807402Y+3551742D02*
X+919798Y+3551742D01*
X+804862Y+3384200D02*
X+922338Y+3384200D01*
X+804862Y+3550000D02*
X+922338Y+3550000D01*
X+802322Y+3386059D02*
X+924878Y+3386059D01*
X+802322Y+3548141D02*
X+924878Y+3548141D01*
X+799782Y+3388044D02*
X+927418Y+3388044D01*
X+799782Y+3546156D02*
X+927418Y+3546156D01*
X+797242Y+3390164D02*
X+929958Y+3390164D01*
X+797242Y+3544036D02*
X+929958Y+3544036D01*
X+794702Y+3392430D02*
X+932498Y+3392430D01*
X+794702Y+3541770D02*
X+932498Y+3541770D01*
X+792162Y+3394856D02*
X+935038Y+3394856D01*
X+792162Y+3539344D02*
X+935038Y+3539344D01*
X+789684Y+3397394D02*
X+937516Y+3397394D01*
X+789684Y+3536806D02*
X+937516Y+3536806D01*
X+787368Y+3399934D02*
X+939832Y+3399934D01*
X+787368Y+3534266D02*
X+939832Y+3534266D01*
X+785203Y+3402474D02*
X+941997Y+3402474D01*
X+785203Y+3531726D02*
X+941997Y+3531726D01*
X+783177Y+3405014D02*
X+944023Y+3405014D01*
X+783177Y+3529186D02*
X+944023Y+3529186D01*
X+781278Y+3407554D02*
X+945922Y+3407554D01*
X+781278Y+3526646D02*
X+945922Y+3526646D01*
X+779500Y+3410094D02*
X+947700Y+3410094D01*
X+779500Y+3524106D02*
X+947700Y+3524106D01*
X+777833Y+3412634D02*
X+949367Y+3412634D01*
X+777833Y+3521566D02*
X+949367Y+3521566D01*
X+776272Y+3415174D02*
X+950928Y+3415174D01*
X+776272Y+3519026D02*
X+950928Y+3519026D01*
X+774810Y+3417714D02*
X+952390Y+3417714D01*
X+774810Y+3516486D02*
X+952390Y+3516486D01*
X+773445Y+3420254D02*
X+953755Y+3420254D01*
X+773445Y+3513946D02*
X+953755Y+3513946D01*
X+772169Y+3422794D02*
X+955031Y+3422794D01*
X+772169Y+3511406D02*
X+955031Y+3511406D01*
X+770982Y+3425334D02*
X+956218Y+3425334D01*
X+770982Y+3508866D02*
X+956218Y+3508866D01*
X+769878Y+3427874D02*
X+957322Y+3427874D01*
X+769878Y+3506326D02*
X+957322Y+3506326D01*
X+768855Y+3430414D02*
X+958345Y+3430414D01*
X+768855Y+3503786D02*
X+958345Y+3503786D01*
X+767910Y+3432954D02*
X+959290Y+3432954D01*
X+767910Y+3501246D02*
X+959290Y+3501246D01*
X+767041Y+3435494D02*
X+960159Y+3435494D01*
X+767041Y+3498706D02*
X+960159Y+3498706D01*
X+766246Y+3438034D02*
X+960954Y+3438034D01*
X+766246Y+3496166D02*
X+960954Y+3496166D01*
X+765524Y+3440574D02*
X+961676Y+3440574D01*
X+765524Y+3493626D02*
X+961676Y+3493626D01*
X+764872Y+3443114D02*
X+962328Y+3443114D01*
X+764872Y+3491086D02*
X+962328Y+3491086D01*
X+764289Y+3445654D02*
X+962911Y+3445654D01*
X+764289Y+3488546D02*
X+962911Y+3488546D01*
X+763775Y+3448194D02*
X+963425Y+3448194D01*
X+763775Y+3486006D02*
X+963425Y+3486006D01*
X+763327Y+3450734D02*
X+963873Y+3450734D01*
X+763327Y+3483466D02*
X+963873Y+3483466D01*
X+762945Y+3453274D02*
X+964255Y+3453274D01*
X+762945Y+3480926D02*
X+964255Y+3480926D01*
X+762629Y+3455814D02*
X+964571Y+3455814D01*
X+762629Y+3478386D02*
X+964571Y+3478386D01*
X+762377Y+3458354D02*
X+964823Y+3458354D01*
X+762377Y+3475846D02*
X+964823Y+3475846D01*
X+762190Y+3460894D02*
X+965010Y+3460894D01*
X+762190Y+3473306D02*
X+965010Y+3473306D01*
X+762066Y+3463434D02*
X+965134Y+3463434D01*
X+762066Y+3470766D02*
X+965134Y+3470766D01*
X+762006Y+3465974D02*
X+965194Y+3465974D01*
X+762006Y+3468226D02*
X+965194Y+3468226D01*
X+762000Y+3467100D02*
X+965200Y+3467100D01*
X+762000Y+3467100D02*
X+965200Y+3467100D01*
D54*
X+964856Y+3475454D01*
X+962060Y+3492164D01*
X+956215Y+3508874D01*
X+946679Y+3525584D01*
X+932090Y+3542145D01*
X+915380Y+3554515D01*
X+898670Y+3562455D01*
X+881960Y+3567027D01*
X+865250Y+3568687D01*
X+863600Y+3568700D01*
X+762000Y+3467100D02*
X+762344Y+3475454D01*
X+765140Y+3492164D01*
X+770985Y+3508874D01*
X+780521Y+3525584D01*
X+795110Y+3542145D01*
X+811820Y+3554515D01*
X+828530Y+3562455D01*
X+845240Y+3567027D01*
X+861950Y+3568687D01*
X+863600Y+3568700D01*
X+762000Y+3467100D02*
X+762344Y+3458746D01*
X+765140Y+3442036D01*
X+770985Y+3425326D01*
X+780521Y+3408616D01*
X+795110Y+3392055D01*
X+811820Y+3379685D01*
X+828530Y+3371745D01*
X+845240Y+3367173D01*
X+861950Y+3365513D01*
X+863600Y+3365500D01*
X+965200Y+3467100D02*
X+964856Y+3458746D01*
X+962060Y+3442036D01*
X+956215Y+3425326D01*
X+946679Y+3408616D01*
X+932090Y+3392055D01*
X+915380Y+3379685D01*
X+898670Y+3371745D01*
X+881960Y+3367173D01*
X+865250Y+3365513D01*
X+863600Y+3365500D01*
D55*
X+1968500Y+152400D02*
X+1968500Y+152400D01*
X+1968500Y+355600D02*
X+1968500Y+355600D01*
X+1968499Y+152400D02*
X+1968501Y+152400D01*
X+1968499Y+355600D02*
X+1968501Y+355600D01*
X+1968498Y+152400D02*
X+1968502Y+152400D01*
X+1968498Y+355600D02*
X+1968502Y+355600D01*
X+1968497Y+152400D02*
X+1968503Y+152400D01*
X+1968497Y+355600D02*
X+1968503Y+355600D01*
X+1968496Y+152400D02*
X+1968504Y+152400D01*
X+1968496Y+355600D02*
X+1968504Y+355600D01*
X+1968495Y+152400D02*
X+1968505Y+152400D01*
X+1968495Y+355600D02*
X+1968505Y+355600D01*
X+1968494Y+152400D02*
X+1968506Y+152400D01*
X+1968494Y+355600D02*
X+1968506Y+355600D01*
X+1968493Y+152400D02*
X+1968507Y+152400D01*
X+1968493Y+355600D02*
X+1968507Y+355600D01*
X+1968492Y+152400D02*
X+1968508Y+152400D01*
X+1968492Y+355600D02*
X+1968508Y+355600D01*
X+1968491Y+152400D02*
X+1968509Y+152400D01*
X+1968491Y+355600D02*
X+1968509Y+355600D01*
X+1968490Y+152400D02*
X+1968510Y+152400D01*
X+1968490Y+355600D02*
X+1968510Y+355600D01*
X+1968489Y+152400D02*
X+1968511Y+152400D01*
X+1968489Y+355600D02*
X+1968511Y+355600D01*
X+1968488Y+152400D02*
X+1968512Y+152400D01*
X+1968488Y+355600D02*
X+1968512Y+355600D01*
X+1968487Y+152400D02*
X+1968513Y+152400D01*
X+1968487Y+355600D02*
X+1968513Y+355600D01*
X+1968486Y+152400D02*
X+1968514Y+152400D01*
X+1968486Y+355600D02*
X+1968514Y+355600D01*
X+1968485Y+152400D02*
X+1968515Y+152400D01*
X+1968485Y+355600D02*
X+1968515Y+355600D01*
X+1968484Y+152400D02*
X+1968516Y+152400D01*
X+1968484Y+355600D02*
X+1968516Y+355600D01*
X+1968483Y+152400D02*
X+1968517Y+152400D01*
X+1968483Y+355600D02*
X+1968517Y+355600D01*
X+1968482Y+152400D02*
X+1968518Y+152400D01*
X+1968482Y+355600D02*
X+1968518Y+355600D01*
X+1968481Y+152400D02*
X+1968519Y+152400D01*
X+1968481Y+355600D02*
X+1968519Y+355600D01*
X+1968480Y+152400D02*
X+1968520Y+152400D01*
X+1968480Y+355600D02*
X+1968520Y+355600D01*
X+1968479Y+152400D02*
X+1968521Y+152400D01*
X+1968479Y+355600D02*
X+1968521Y+355600D01*
X+1968478Y+152400D02*
X+1968522Y+152400D01*
X+1968478Y+355600D02*
X+1968522Y+355600D01*
X+1968477Y+152400D02*
X+1968523Y+152400D01*
X+1968477Y+355600D02*
X+1968523Y+355600D01*
X+1968476Y+152400D02*
X+1968524Y+152400D01*
X+1968476Y+355600D02*
X+1968524Y+355600D01*
X+1968475Y+152400D02*
X+1968525Y+152400D01*
X+1968475Y+355600D02*
X+1968525Y+355600D01*
X+1968474Y+152400D02*
X+1968526Y+152400D01*
X+1968474Y+355600D02*
X+1968526Y+355600D01*
X+1968473Y+152400D02*
X+1968527Y+152400D01*
X+1968473Y+355600D02*
X+1968527Y+355600D01*
X+1968472Y+152400D02*
X+1968528Y+152400D01*
X+1968472Y+355600D02*
X+1968528Y+355600D01*
X+1968471Y+152400D02*
X+1968529Y+152400D01*
X+1968471Y+355600D02*
X+1968529Y+355600D01*
X+1968470Y+152400D02*
X+1968530Y+152400D01*
X+1968470Y+355600D02*
X+1968530Y+355600D01*
X+1968469Y+152400D02*
X+1968531Y+152400D01*
X+1968469Y+355600D02*
X+1968531Y+355600D01*
X+1968468Y+152400D02*
X+1968532Y+152400D01*
X+1968468Y+355600D02*
X+1968532Y+355600D01*
X+1968467Y+152400D02*
X+1968533Y+152400D01*
X+1968467Y+355600D02*
X+1968533Y+355600D01*
X+1968466Y+152400D02*
X+1968534Y+152400D01*
X+1968466Y+355600D02*
X+1968534Y+355600D01*
X+1968465Y+152400D02*
X+1968535Y+152400D01*
X+1968465Y+355600D02*
X+1968535Y+355600D01*
X+1968464Y+152400D02*
X+1968536Y+152400D01*
X+1968464Y+355600D02*
X+1968536Y+355600D01*
X+1968463Y+152400D02*
X+1968537Y+152400D01*
X+1968463Y+355600D02*
X+1968537Y+355600D01*
X+1968462Y+152400D02*
X+1968538Y+152400D01*
X+1968462Y+355600D02*
X+1968538Y+355600D01*
X+1968461Y+152400D02*
X+1968539Y+152400D01*
X+1968461Y+355600D02*
X+1968539Y+355600D01*
X+1968460Y+152400D02*
X+1968540Y+152400D01*
X+1968460Y+355600D02*
X+1968540Y+355600D01*
X+1968459Y+152400D02*
X+1968541Y+152400D01*
X+1968459Y+355600D02*
X+1968541Y+355600D01*
X+1968458Y+152400D02*
X+1968542Y+152400D01*
X+1968458Y+355600D02*
X+1968542Y+355600D01*
X+1968457Y+152400D02*
X+1968543Y+152400D01*
X+1968457Y+355600D02*
X+1968543Y+355600D01*
X+1968456Y+152400D02*
X+1968544Y+152400D01*
X+1968456Y+355600D02*
X+1968544Y+355600D01*
X+1968455Y+152400D02*
X+1968545Y+152400D01*
X+1968455Y+355600D02*
X+1968545Y+355600D01*
X+1968454Y+152400D02*
X+1968546Y+152400D01*
X+1968454Y+355600D02*
X+1968546Y+355600D01*
X+1968453Y+152400D02*
X+1968547Y+152400D01*
X+1968453Y+355600D02*
X+1968547Y+355600D01*
X+1968452Y+152400D02*
X+1968548Y+152400D01*
X+1968452Y+355600D02*
X+1968548Y+355600D01*
X+1968451Y+152400D02*
X+1968549Y+152400D01*
X+1968451Y+355600D02*
X+1968549Y+355600D01*
X+1968450Y+152400D02*
X+1968550Y+152400D01*
X+1968450Y+355600D02*
X+1968550Y+355600D01*
X+1968449Y+152400D02*
X+1968551Y+152400D01*
X+1968449Y+355600D02*
X+1968551Y+355600D01*
X+1968448Y+152400D02*
X+1968552Y+152400D01*
X+1968448Y+355600D02*
X+1968552Y+355600D01*
X+1968447Y+152400D02*
X+1968553Y+152400D01*
X+1968447Y+355600D02*
X+1968553Y+355600D01*
X+1968446Y+152400D02*
X+1968554Y+152400D01*
X+1968446Y+355600D02*
X+1968554Y+355600D01*
X+1968445Y+152400D02*
X+1968555Y+152400D01*
X+1968445Y+355600D02*
X+1968555Y+355600D01*
X+1968444Y+152400D02*
X+1968556Y+152400D01*
X+1968444Y+355600D02*
X+1968556Y+355600D01*
X+1968443Y+152400D02*
X+1968557Y+152400D01*
X+1968443Y+355600D02*
X+1968557Y+355600D01*
X+1968442Y+152400D02*
X+1968558Y+152400D01*
X+1968442Y+355600D02*
X+1968558Y+355600D01*
X+1968441Y+152400D02*
X+1968559Y+152400D01*
X+1968441Y+355600D02*
X+1968559Y+355600D01*
X+1968440Y+152400D02*
X+1968560Y+152400D01*
X+1968440Y+355600D02*
X+1968560Y+355600D01*
X+1968439Y+152400D02*
X+1968561Y+152400D01*
X+1968439Y+355600D02*
X+1968561Y+355600D01*
X+1968438Y+152400D02*
X+1968562Y+152400D01*
X+1968438Y+355600D02*
X+1968562Y+355600D01*
X+1968437Y+152400D02*
X+1968563Y+152400D01*
X+1968437Y+355600D02*
X+1968563Y+355600D01*
X+1968436Y+152400D02*
X+1968564Y+152400D01*
X+1968436Y+355600D02*
X+1968564Y+355600D01*
X+1968435Y+152400D02*
X+1968565Y+152400D01*
X+1968435Y+355600D02*
X+1968565Y+355600D01*
X+1968434Y+152400D02*
X+1968566Y+152400D01*
X+1968434Y+355600D02*
X+1968566Y+355600D01*
X+1968433Y+152400D02*
X+1968567Y+152400D01*
X+1968433Y+355600D02*
X+1968567Y+355600D01*
X+1968432Y+152400D02*
X+1968568Y+152400D01*
X+1968432Y+355600D02*
X+1968568Y+355600D01*
X+1968431Y+152400D02*
X+1968569Y+152400D01*
X+1968431Y+355600D02*
X+1968569Y+355600D01*
X+1968430Y+152400D02*
X+1968570Y+152400D01*
X+1968430Y+355600D02*
X+1968570Y+355600D01*
X+1968429Y+152400D02*
X+1968571Y+152400D01*
X+1968429Y+355600D02*
X+1968571Y+355600D01*
X+1968428Y+152400D02*
X+1968572Y+152400D01*
X+1968428Y+355600D02*
X+1968572Y+355600D01*
X+1968427Y+152400D02*
X+1968573Y+152400D01*
X+1968427Y+355600D02*
X+1968573Y+355600D01*
X+1968426Y+152400D02*
X+1968574Y+152400D01*
X+1968426Y+355600D02*
X+1968574Y+355600D01*
X+1968425Y+152400D02*
X+1968575Y+152400D01*
X+1968425Y+355600D02*
X+1968575Y+355600D01*
X+1968424Y+152400D02*
X+1968576Y+152400D01*
X+1968424Y+355600D02*
X+1968576Y+355600D01*
X+1968423Y+152400D02*
X+1968577Y+152400D01*
X+1968423Y+355600D02*
X+1968577Y+355600D01*
X+1968422Y+152400D02*
X+1968578Y+152400D01*
X+1968422Y+355600D02*
X+1968578Y+355600D01*
X+1968421Y+152400D02*
X+1968579Y+152400D01*
X+1968421Y+355600D02*
X+1968579Y+355600D01*
X+1968420Y+152400D02*
X+1968580Y+152400D01*
X+1968420Y+355600D02*
X+1968580Y+355600D01*
X+1968419Y+152400D02*
X+1968581Y+152400D01*
X+1968419Y+355600D02*
X+1968581Y+355600D01*
X+1968418Y+152400D02*
X+1968582Y+152400D01*
X+1968418Y+355600D02*
X+1968582Y+355600D01*
X+1968417Y+152400D02*
X+1968583Y+152400D01*
X+1968417Y+355600D02*
X+1968583Y+355600D01*
X+1968416Y+152400D02*
X+1968584Y+152400D01*
X+1968416Y+355600D02*
X+1968584Y+355600D01*
X+1968415Y+152400D02*
X+1968585Y+152400D01*
X+1968415Y+355600D02*
X+1968585Y+355600D01*
X+1968414Y+152400D02*
X+1968586Y+152400D01*
X+1968414Y+355600D02*
X+1968586Y+355600D01*
X+1968413Y+152400D02*
X+1968587Y+152400D01*
X+1968413Y+355600D02*
X+1968587Y+355600D01*
X+1968412Y+152400D02*
X+1968588Y+152400D01*
X+1968412Y+355600D02*
X+1968588Y+355600D01*
X+1968411Y+152400D02*
X+1968589Y+152400D01*
X+1968411Y+355600D02*
X+1968589Y+355600D01*
X+1968410Y+152400D02*
X+1968590Y+152400D01*
X+1968410Y+355600D02*
X+1968590Y+355600D01*
X+1968409Y+152400D02*
X+1968591Y+152400D01*
X+1968409Y+355600D02*
X+1968591Y+355600D01*
X+1968408Y+152400D02*
X+1968592Y+152400D01*
X+1968408Y+355600D02*
X+1968592Y+355600D01*
X+1968407Y+152400D02*
X+1968593Y+152400D01*
X+1968407Y+355600D02*
X+1968593Y+355600D01*
X+1968406Y+152400D02*
X+1968594Y+152400D01*
X+1968406Y+355600D02*
X+1968594Y+355600D01*
X+1968405Y+152400D02*
X+1968595Y+152400D01*
X+1968405Y+355600D02*
X+1968595Y+355600D01*
X+1968404Y+152400D02*
X+1968596Y+152400D01*
X+1968404Y+355600D02*
X+1968596Y+355600D01*
X+1968403Y+152400D02*
X+1968597Y+152400D01*
X+1968403Y+355600D02*
X+1968597Y+355600D01*
X+1968402Y+152400D02*
X+1968598Y+152400D01*
X+1968402Y+355600D02*
X+1968598Y+355600D01*
X+1968401Y+152400D02*
X+1968599Y+152400D01*
X+1968401Y+355600D02*
X+1968599Y+355600D01*
X+1968400Y+152400D02*
X+1968600Y+152400D01*
X+1968400Y+355600D02*
X+1968600Y+355600D01*
X+1968399Y+152400D02*
X+1968601Y+152400D01*
X+1968399Y+355600D02*
X+1968601Y+355600D01*
X+1968398Y+152400D02*
X+1968602Y+152400D01*
X+1968398Y+355600D02*
X+1968602Y+355600D01*
X+1968397Y+152400D02*
X+1968603Y+152400D01*
X+1968397Y+355600D02*
X+1968603Y+355600D01*
X+1968396Y+152400D02*
X+1968604Y+152400D01*
X+1968396Y+355600D02*
X+1968604Y+355600D01*
X+1968395Y+152400D02*
X+1968605Y+152400D01*
X+1968395Y+355600D02*
X+1968605Y+355600D01*
X+1968394Y+152400D02*
X+1968606Y+152400D01*
X+1968394Y+355600D02*
X+1968606Y+355600D01*
X+1968393Y+152400D02*
X+1968607Y+152400D01*
X+1968393Y+355600D02*
X+1968607Y+355600D01*
X+1968392Y+152400D02*
X+1968608Y+152400D01*
X+1968392Y+355600D02*
X+1968608Y+355600D01*
X+1968391Y+152400D02*
X+1968609Y+152400D01*
X+1968391Y+355600D02*
X+1968609Y+355600D01*
X+1968390Y+152400D02*
X+1968610Y+152400D01*
X+1968390Y+355600D02*
X+1968610Y+355600D01*
X+1968389Y+152400D02*
X+1968611Y+152400D01*
X+1968389Y+355600D02*
X+1968611Y+355600D01*
X+1968388Y+152400D02*
X+1968612Y+152400D01*
X+1968388Y+355600D02*
X+1968612Y+355600D01*
X+1968387Y+152400D02*
X+1968613Y+152400D01*
X+1968387Y+355600D02*
X+1968613Y+355600D01*
X+1968386Y+152400D02*
X+1968614Y+152400D01*
X+1968386Y+355600D02*
X+1968614Y+355600D01*
X+1968385Y+152400D02*
X+1968615Y+152400D01*
X+1968385Y+355600D02*
X+1968615Y+355600D01*
X+1968384Y+152400D02*
X+1968616Y+152400D01*
X+1968384Y+355600D02*
X+1968616Y+355600D01*
X+1968383Y+152400D02*
X+1968617Y+152400D01*
X+1968383Y+355600D02*
X+1968617Y+355600D01*
X+1968382Y+152400D02*
X+1968618Y+152400D01*
X+1968382Y+355600D02*
X+1968618Y+355600D01*
X+1968381Y+152400D02*
X+1968619Y+152400D01*
X+1968381Y+355600D02*
X+1968619Y+355600D01*
X+1968380Y+152400D02*
X+1968620Y+152400D01*
X+1968380Y+355600D02*
X+1968620Y+355600D01*
X+1968379Y+152400D02*
X+1968621Y+152400D01*
X+1968379Y+355600D02*
X+1968621Y+355600D01*
X+1968378Y+152400D02*
X+1968622Y+152400D01*
X+1968378Y+355600D02*
X+1968622Y+355600D01*
X+1968377Y+152400D02*
X+1968623Y+152400D01*
X+1968377Y+355600D02*
X+1968623Y+355600D01*
X+1968376Y+152400D02*
X+1968624Y+152400D01*
X+1968376Y+355600D02*
X+1968624Y+355600D01*
X+1968375Y+152400D02*
X+1968625Y+152400D01*
X+1968375Y+355600D02*
X+1968625Y+355600D01*
X+1968374Y+152400D02*
X+1968626Y+152400D01*
X+1968374Y+355600D02*
X+1968626Y+355600D01*
X+1968373Y+152400D02*
X+1968627Y+152400D01*
X+1968373Y+355600D02*
X+1968627Y+355600D01*
X+1968372Y+152400D02*
X+1968628Y+152400D01*
X+1968372Y+355600D02*
X+1968628Y+355600D01*
X+1968371Y+152400D02*
X+1968629Y+152400D01*
X+1968371Y+355600D02*
X+1968629Y+355600D01*
X+1968370Y+152400D02*
X+1968630Y+152400D01*
X+1968370Y+355600D02*
X+1968630Y+355600D01*
X+1968369Y+152400D02*
X+1968631Y+152400D01*
X+1968369Y+355600D02*
X+1968631Y+355600D01*
X+1968368Y+152400D02*
X+1968632Y+152400D01*
X+1968368Y+355600D02*
X+1968632Y+355600D01*
X+1968367Y+152400D02*
X+1968633Y+152400D01*
X+1968367Y+355600D02*
X+1968633Y+355600D01*
X+1968366Y+152400D02*
X+1968634Y+152400D01*
X+1968366Y+355600D02*
X+1968634Y+355600D01*
X+1968365Y+152400D02*
X+1968635Y+152400D01*
X+1968365Y+355600D02*
X+1968635Y+355600D01*
X+1968364Y+152400D02*
X+1968636Y+152400D01*
X+1968364Y+355600D02*
X+1968636Y+355600D01*
X+1968363Y+152400D02*
X+1968637Y+152400D01*
X+1968363Y+355600D02*
X+1968637Y+355600D01*
X+1968362Y+152400D02*
X+1968638Y+152400D01*
X+1968362Y+355600D02*
X+1968638Y+355600D01*
X+1968361Y+152400D02*
X+1968639Y+152400D01*
X+1968361Y+355600D02*
X+1968639Y+355600D01*
X+1968360Y+152400D02*
X+1968640Y+152400D01*
X+1968360Y+355600D02*
X+1968640Y+355600D01*
X+1968359Y+152400D02*
X+1968641Y+152400D01*
X+1968359Y+355600D02*
X+1968641Y+355600D01*
X+1968358Y+152400D02*
X+1968642Y+152400D01*
X+1968358Y+355600D02*
X+1968642Y+355600D01*
X+1968357Y+152400D02*
X+1968643Y+152400D01*
X+1968357Y+355600D02*
X+1968643Y+355600D01*
X+1968356Y+152400D02*
X+1968644Y+152400D01*
X+1968356Y+355600D02*
X+1968644Y+355600D01*
X+1968355Y+152400D02*
X+1968645Y+152400D01*
X+1968355Y+355600D02*
X+1968645Y+355600D01*
X+1968354Y+152400D02*
X+1968646Y+152400D01*
X+1968354Y+355600D02*
X+1968646Y+355600D01*
X+1968353Y+152400D02*
X+1968647Y+152400D01*
X+1968353Y+355600D02*
X+1968647Y+355600D01*
X+1968352Y+152400D02*
X+1968648Y+152400D01*
X+1968352Y+355600D02*
X+1968648Y+355600D01*
X+1968351Y+152400D02*
X+1968649Y+152400D01*
X+1968351Y+355600D02*
X+1968649Y+355600D01*
X+1968350Y+152400D02*
X+1968650Y+152400D01*
X+1968350Y+355600D02*
X+1968650Y+355600D01*
X+1968349Y+152400D02*
X+1968651Y+152400D01*
X+1968349Y+355600D02*
X+1968651Y+355600D01*
X+1968348Y+152400D02*
X+1968652Y+152400D01*
X+1968348Y+355600D02*
X+1968652Y+355600D01*
X+1968347Y+152400D02*
X+1968653Y+152400D01*
X+1968347Y+355600D02*
X+1968653Y+355600D01*
X+1968346Y+152400D02*
X+1968654Y+152400D01*
X+1968346Y+355600D02*
X+1968654Y+355600D01*
X+1968345Y+152400D02*
X+1968655Y+152400D01*
X+1968345Y+355600D02*
X+1968655Y+355600D01*
X+1968344Y+152400D02*
X+1968656Y+152400D01*
X+1968344Y+355600D02*
X+1968656Y+355600D01*
X+1968343Y+152400D02*
X+1968657Y+152400D01*
X+1968343Y+355600D02*
X+1968657Y+355600D01*
X+1968342Y+152400D02*
X+1968658Y+152400D01*
X+1968342Y+355600D02*
X+1968658Y+355600D01*
X+1968341Y+152400D02*
X+1968659Y+152400D01*
X+1968341Y+355600D02*
X+1968659Y+355600D01*
X+1968340Y+152400D02*
X+1968660Y+152400D01*
X+1968340Y+355600D02*
X+1968660Y+355600D01*
X+1968339Y+152400D02*
X+1968661Y+152400D01*
X+1968339Y+355600D02*
X+1968661Y+355600D01*
X+1968338Y+152400D02*
X+1968662Y+152400D01*
X+1968338Y+355600D02*
X+1968662Y+355600D01*
X+1968337Y+152400D02*
X+1968663Y+152400D01*
X+1968337Y+355600D02*
X+1968663Y+355600D01*
X+1968336Y+152400D02*
X+1968664Y+152400D01*
X+1968336Y+355600D02*
X+1968664Y+355600D01*
X+1968335Y+152400D02*
X+1968665Y+152400D01*
X+1968335Y+355600D02*
X+1968665Y+355600D01*
X+1968334Y+152400D02*
X+1968666Y+152400D01*
X+1968334Y+355600D02*
X+1968666Y+355600D01*
X+1968333Y+152400D02*
X+1968667Y+152400D01*
X+1968333Y+355600D02*
X+1968667Y+355600D01*
X+1968332Y+152400D02*
X+1968668Y+152400D01*
X+1968332Y+355600D02*
X+1968668Y+355600D01*
X+1968331Y+152400D02*
X+1968669Y+152400D01*
X+1968331Y+355600D02*
X+1968669Y+355600D01*
X+1968330Y+152400D02*
X+1968670Y+152400D01*
X+1968330Y+355600D02*
X+1968670Y+355600D01*
X+1968329Y+152400D02*
X+1968671Y+152400D01*
X+1968329Y+355600D02*
X+1968671Y+355600D01*
X+1968328Y+152400D02*
X+1968672Y+152400D01*
X+1968328Y+355600D02*
X+1968672Y+355600D01*
X+1968327Y+152400D02*
X+1968673Y+152400D01*
X+1968327Y+355600D02*
X+1968673Y+355600D01*
X+1968326Y+152400D02*
X+1968674Y+152400D01*
X+1968326Y+355600D02*
X+1968674Y+355600D01*
X+1968325Y+152400D02*
X+1968675Y+152400D01*
X+1968325Y+355600D02*
X+1968675Y+355600D01*
X+1968324Y+152400D02*
X+1968676Y+152400D01*
X+1968324Y+355600D02*
X+1968676Y+355600D01*
X+1968323Y+152400D02*
X+1968677Y+152400D01*
X+1968323Y+355600D02*
X+1968677Y+355600D01*
X+1968322Y+152400D02*
X+1968678Y+152400D01*
X+1968322Y+355600D02*
X+1968678Y+355600D01*
X+1968321Y+152400D02*
X+1968679Y+152400D01*
X+1968321Y+355600D02*
X+1968679Y+355600D01*
X+1968320Y+152400D02*
X+1968680Y+152400D01*
X+1968320Y+355600D02*
X+1968680Y+355600D01*
X+1968319Y+152400D02*
X+1968681Y+152400D01*
X+1968319Y+355600D02*
X+1968681Y+355600D01*
X+1968318Y+152400D02*
X+1968682Y+152400D01*
X+1968318Y+355600D02*
X+1968682Y+355600D01*
X+1968317Y+152400D02*
X+1968683Y+152400D01*
X+1968317Y+355600D02*
X+1968683Y+355600D01*
X+1968316Y+152400D02*
X+1968684Y+152400D01*
X+1968316Y+355600D02*
X+1968684Y+355600D01*
X+1968315Y+152400D02*
X+1968685Y+152400D01*
X+1968315Y+355600D02*
X+1968685Y+355600D01*
X+1968314Y+152400D02*
X+1968686Y+152400D01*
X+1968314Y+355600D02*
X+1968686Y+355600D01*
X+1968313Y+152400D02*
X+1968687Y+152400D01*
X+1968313Y+355600D02*
X+1968687Y+355600D01*
X+1968312Y+152400D02*
X+1968688Y+152400D01*
X+1968312Y+355600D02*
X+1968688Y+355600D01*
X+1968311Y+152400D02*
X+1968689Y+152400D01*
X+1968311Y+355600D02*
X+1968689Y+355600D01*
X+1968310Y+152400D02*
X+1968690Y+152400D01*
X+1968310Y+355600D02*
X+1968690Y+355600D01*
X+1968309Y+152400D02*
X+1968691Y+152400D01*
X+1968309Y+355600D02*
X+1968691Y+355600D01*
X+1968308Y+152400D02*
X+1968692Y+152400D01*
X+1968308Y+355600D02*
X+1968692Y+355600D01*
X+1968307Y+152400D02*
X+1968693Y+152400D01*
X+1968307Y+355600D02*
X+1968693Y+355600D01*
X+1968306Y+152400D02*
X+1968694Y+152400D01*
X+1968306Y+355600D02*
X+1968694Y+355600D01*
X+1968305Y+152400D02*
X+1968695Y+152400D01*
X+1968305Y+355600D02*
X+1968695Y+355600D01*
X+1968304Y+152400D02*
X+1968696Y+152400D01*
X+1968304Y+355600D02*
X+1968696Y+355600D01*
X+1968303Y+152400D02*
X+1968697Y+152400D01*
X+1968303Y+355600D02*
X+1968697Y+355600D01*
X+1968302Y+152400D02*
X+1968698Y+152400D01*
X+1968302Y+355600D02*
X+1968698Y+355600D01*
X+1968301Y+152400D02*
X+1968699Y+152400D01*
X+1968301Y+355600D02*
X+1968699Y+355600D01*
X+1968300Y+152400D02*
X+1968700Y+152400D01*
X+1968300Y+355600D02*
X+1968700Y+355600D01*
X+1968299Y+152400D02*
X+1968701Y+152400D01*
X+1968299Y+355600D02*
X+1968701Y+355600D01*
X+1968298Y+152400D02*
X+1968702Y+152400D01*
X+1968298Y+355600D02*
X+1968702Y+355600D01*
X+1968297Y+152400D02*
X+1968703Y+152400D01*
X+1968297Y+355600D02*
X+1968703Y+355600D01*
X+1968296Y+152400D02*
X+1968704Y+152400D01*
X+1968296Y+355600D02*
X+1968704Y+355600D01*
X+1968295Y+152400D02*
X+1968705Y+152400D01*
X+1968295Y+355600D02*
X+1968705Y+355600D01*
X+1968294Y+152400D02*
X+1968706Y+152400D01*
X+1968294Y+355600D02*
X+1968706Y+355600D01*
X+1968293Y+152400D02*
X+1968707Y+152400D01*
X+1968293Y+355600D02*
X+1968707Y+355600D01*
X+1968292Y+152400D02*
X+1968708Y+152400D01*
X+1968292Y+355600D02*
X+1968708Y+355600D01*
X+1968291Y+152400D02*
X+1968709Y+152400D01*
X+1968291Y+355600D02*
X+1968709Y+355600D01*
X+1968290Y+152400D02*
X+1968710Y+152400D01*
X+1968290Y+355600D02*
X+1968710Y+355600D01*
X+1968289Y+152400D02*
X+1968711Y+152400D01*
X+1968289Y+355600D02*
X+1968711Y+355600D01*
X+1968288Y+152400D02*
X+1968712Y+152400D01*
X+1968288Y+355600D02*
X+1968712Y+355600D01*
X+1968287Y+152400D02*
X+1968713Y+152400D01*
X+1968287Y+355600D02*
X+1968713Y+355600D01*
X+1968286Y+152400D02*
X+1968714Y+152400D01*
X+1968286Y+355600D02*
X+1968714Y+355600D01*
X+1968285Y+152400D02*
X+1968715Y+152400D01*
X+1968285Y+355600D02*
X+1968715Y+355600D01*
X+1968284Y+152400D02*
X+1968716Y+152400D01*
X+1968284Y+355600D02*
X+1968716Y+355600D01*
X+1968283Y+152400D02*
X+1968717Y+152400D01*
X+1968283Y+355600D02*
X+1968717Y+355600D01*
X+1968282Y+152400D02*
X+1968718Y+152400D01*
X+1968282Y+355600D02*
X+1968718Y+355600D01*
X+1968281Y+152400D02*
X+1968719Y+152400D01*
X+1968281Y+355600D02*
X+1968719Y+355600D01*
X+1968280Y+152400D02*
X+1968720Y+152400D01*
X+1968280Y+355600D02*
X+1968720Y+355600D01*
X+1968279Y+152400D02*
X+1968721Y+152400D01*
X+1968279Y+355600D02*
X+1968721Y+355600D01*
X+1968278Y+152400D02*
X+1968722Y+152400D01*
X+1968278Y+355600D02*
X+1968722Y+355600D01*
X+1968277Y+152400D02*
X+1968723Y+152400D01*
X+1968277Y+355600D02*
X+1968723Y+355600D01*
X+1968276Y+152400D02*
X+1968724Y+152400D01*
X+1968276Y+355600D02*
X+1968724Y+355600D01*
X+1968275Y+152400D02*
X+1968725Y+152400D01*
X+1968275Y+355600D02*
X+1968725Y+355600D01*
X+1968274Y+152400D02*
X+1968726Y+152400D01*
X+1968274Y+355600D02*
X+1968726Y+355600D01*
X+1968273Y+152400D02*
X+1968727Y+152400D01*
X+1968273Y+355600D02*
X+1968727Y+355600D01*
X+1968272Y+152400D02*
X+1968728Y+152400D01*
X+1968272Y+355600D02*
X+1968728Y+355600D01*
X+1968271Y+152400D02*
X+1968729Y+152400D01*
X+1968271Y+355600D02*
X+1968729Y+355600D01*
X+1968270Y+152400D02*
X+1968730Y+152400D01*
X+1968270Y+355600D02*
X+1968730Y+355600D01*
X+1968269Y+152400D02*
X+1968731Y+152400D01*
X+1968269Y+355600D02*
X+1968731Y+355600D01*
X+1968268Y+152400D02*
X+1968732Y+152400D01*
X+1968268Y+355600D02*
X+1968732Y+355600D01*
X+1968267Y+152400D02*
X+1968733Y+152400D01*
X+1968267Y+355600D02*
X+1968733Y+355600D01*
X+1968266Y+152400D02*
X+1968734Y+152400D01*
X+1968266Y+355600D02*
X+1968734Y+355600D01*
X+1968265Y+152400D02*
X+1968735Y+152400D01*
X+1968265Y+355600D02*
X+1968735Y+355600D01*
X+1968264Y+152400D02*
X+1968736Y+152400D01*
X+1968264Y+355600D02*
X+1968736Y+355600D01*
X+1968263Y+152400D02*
X+1968737Y+152400D01*
X+1968263Y+355600D02*
X+1968737Y+355600D01*
X+1968262Y+152400D02*
X+1968738Y+152400D01*
X+1968262Y+355600D02*
X+1968738Y+355600D01*
X+1968261Y+152400D02*
X+1968739Y+152400D01*
X+1968261Y+355600D02*
X+1968739Y+355600D01*
X+1968260Y+152400D02*
X+1968740Y+152400D01*
X+1968260Y+355600D02*
X+1968740Y+355600D01*
X+1968259Y+152400D02*
X+1968741Y+152400D01*
X+1968259Y+355600D02*
X+1968741Y+355600D01*
X+1968258Y+152400D02*
X+1968742Y+152400D01*
X+1968258Y+355600D02*
X+1968742Y+355600D01*
X+1968257Y+152400D02*
X+1968743Y+152400D01*
X+1968257Y+355600D02*
X+1968743Y+355600D01*
X+1968256Y+152400D02*
X+1968744Y+152400D01*
X+1968256Y+355600D02*
X+1968744Y+355600D01*
X+1968255Y+152400D02*
X+1968745Y+152400D01*
X+1968255Y+355600D02*
X+1968745Y+355600D01*
X+1968254Y+152400D02*
X+1968746Y+152400D01*
X+1968254Y+355600D02*
X+1968746Y+355600D01*
X+1968253Y+152400D02*
X+1968747Y+152400D01*
X+1968253Y+355600D02*
X+1968747Y+355600D01*
X+1968252Y+152400D02*
X+1968748Y+152400D01*
X+1968252Y+355600D02*
X+1968748Y+355600D01*
X+1968251Y+152400D02*
X+1968749Y+152400D01*
X+1968251Y+355600D02*
X+1968749Y+355600D01*
X+1968250Y+152400D02*
X+1968750Y+152400D01*
X+1968250Y+355600D02*
X+1968750Y+355600D01*
X+1968249Y+152400D02*
X+1968751Y+152400D01*
X+1968249Y+355600D02*
X+1968751Y+355600D01*
X+1968248Y+152400D02*
X+1968752Y+152400D01*
X+1968248Y+355600D02*
X+1968752Y+355600D01*
X+1968247Y+152400D02*
X+1968753Y+152400D01*
X+1968247Y+355600D02*
X+1968753Y+355600D01*
X+1968246Y+152400D02*
X+1968754Y+152400D01*
X+1968246Y+355600D02*
X+1968754Y+355600D01*
X+1968245Y+152400D02*
X+1968755Y+152400D01*
X+1968245Y+355600D02*
X+1968755Y+355600D01*
X+1968244Y+152400D02*
X+1968756Y+152400D01*
X+1968244Y+355600D02*
X+1968756Y+355600D01*
X+1968243Y+152400D02*
X+1968757Y+152400D01*
X+1968243Y+355600D02*
X+1968757Y+355600D01*
X+1968242Y+152400D02*
X+1968758Y+152400D01*
X+1968242Y+355600D02*
X+1968758Y+355600D01*
X+1968241Y+152400D02*
X+1968759Y+152400D01*
X+1968241Y+355600D02*
X+1968759Y+355600D01*
X+1968240Y+152400D02*
X+1968760Y+152400D01*
X+1968240Y+355600D02*
X+1968760Y+355600D01*
X+1968239Y+152400D02*
X+1968761Y+152400D01*
X+1968239Y+355600D02*
X+1968761Y+355600D01*
X+1968238Y+152400D02*
X+1968762Y+152400D01*
X+1968238Y+355600D02*
X+1968762Y+355600D01*
X+1968237Y+152400D02*
X+1968763Y+152400D01*
X+1968237Y+355600D02*
X+1968763Y+355600D01*
X+1968236Y+152400D02*
X+1968764Y+152400D01*
X+1968236Y+355600D02*
X+1968764Y+355600D01*
X+1968235Y+152400D02*
X+1968765Y+152400D01*
X+1968235Y+355600D02*
X+1968765Y+355600D01*
X+1968234Y+152400D02*
X+1968766Y+152400D01*
X+1968234Y+355600D02*
X+1968766Y+355600D01*
X+1968233Y+152400D02*
X+1968767Y+152400D01*
X+1968233Y+355600D02*
X+1968767Y+355600D01*
X+1968232Y+152400D02*
X+1968768Y+152400D01*
X+1968232Y+355600D02*
X+1968768Y+355600D01*
X+1968231Y+152400D02*
X+1968769Y+152400D01*
X+1968231Y+355600D02*
X+1968769Y+355600D01*
X+1968230Y+152400D02*
X+1968770Y+152400D01*
X+1968230Y+355600D02*
X+1968770Y+355600D01*
X+1968229Y+152400D02*
X+1968771Y+152400D01*
X+1968229Y+355600D02*
X+1968771Y+355600D01*
X+1968228Y+152400D02*
X+1968772Y+152400D01*
X+1968228Y+355600D02*
X+1968772Y+355600D01*
X+1968227Y+152400D02*
X+1968773Y+152400D01*
X+1968227Y+355600D02*
X+1968773Y+355600D01*
X+1968226Y+152400D02*
X+1968774Y+152400D01*
X+1968226Y+355600D02*
X+1968774Y+355600D01*
X+1968225Y+152400D02*
X+1968775Y+152400D01*
X+1968225Y+355600D02*
X+1968775Y+355600D01*
X+1968224Y+152400D02*
X+1968776Y+152400D01*
X+1968224Y+355600D02*
X+1968776Y+355600D01*
X+1968223Y+152400D02*
X+1968777Y+152400D01*
X+1968223Y+355600D02*
X+1968777Y+355600D01*
X+1968222Y+152400D02*
X+1968778Y+152400D01*
X+1968222Y+355600D02*
X+1968778Y+355600D01*
X+1968221Y+152400D02*
X+1968779Y+152400D01*
X+1968221Y+355600D02*
X+1968779Y+355600D01*
X+1968220Y+152400D02*
X+1968780Y+152400D01*
X+1968220Y+355600D02*
X+1968780Y+355600D01*
X+1968219Y+152400D02*
X+1968781Y+152400D01*
X+1968219Y+355600D02*
X+1968781Y+355600D01*
X+1968218Y+152400D02*
X+1968782Y+152400D01*
X+1968218Y+355600D02*
X+1968782Y+355600D01*
X+1968217Y+152400D02*
X+1968783Y+152400D01*
X+1968217Y+355600D02*
X+1968783Y+355600D01*
X+1968216Y+152400D02*
X+1968784Y+152400D01*
X+1968216Y+355600D02*
X+1968784Y+355600D01*
X+1968215Y+152400D02*
X+1968785Y+152400D01*
X+1968215Y+355600D02*
X+1968785Y+355600D01*
X+1968214Y+152400D02*
X+1968786Y+152400D01*
X+1968214Y+355600D02*
X+1968786Y+355600D01*
X+1968213Y+152400D02*
X+1968787Y+152400D01*
X+1968213Y+355600D02*
X+1968787Y+355600D01*
X+1968212Y+152400D02*
X+1968788Y+152400D01*
X+1968212Y+355600D02*
X+1968788Y+355600D01*
X+1968211Y+152400D02*
X+1968789Y+152400D01*
X+1968211Y+355600D02*
X+1968789Y+355600D01*
X+1968210Y+152400D02*
X+1968790Y+152400D01*
X+1968210Y+355600D02*
X+1968790Y+355600D01*
X+1968209Y+152400D02*
X+1968791Y+152400D01*
X+1968209Y+355600D02*
X+1968791Y+355600D01*
X+1968208Y+152400D02*
X+1968792Y+152400D01*
X+1968208Y+355600D02*
X+1968792Y+355600D01*
X+1968207Y+152400D02*
X+1968793Y+152400D01*
X+1968207Y+355600D02*
X+1968793Y+355600D01*
X+1968206Y+152400D02*
X+1968794Y+152400D01*
X+1968206Y+355600D02*
X+1968794Y+355600D01*
X+1968205Y+152400D02*
X+1968795Y+152400D01*
X+1968205Y+355600D02*
X+1968795Y+355600D01*
X+1968204Y+152400D02*
X+1968796Y+152400D01*
X+1968204Y+355600D02*
X+1968796Y+355600D01*
X+1968203Y+152400D02*
X+1968797Y+152400D01*
X+1968203Y+355600D02*
X+1968797Y+355600D01*
X+1968202Y+152400D02*
X+1968798Y+152400D01*
X+1968202Y+355600D02*
X+1968798Y+355600D01*
X+1968201Y+152400D02*
X+1968799Y+152400D01*
X+1968201Y+355600D02*
X+1968799Y+355600D01*
X+1968200Y+152400D02*
X+1968800Y+152400D01*
X+1968200Y+355600D02*
X+1968800Y+355600D01*
X+1968199Y+152400D02*
X+1968801Y+152400D01*
X+1968199Y+355600D02*
X+1968801Y+355600D01*
X+1968198Y+152400D02*
X+1968802Y+152400D01*
X+1968198Y+355600D02*
X+1968802Y+355600D01*
X+1968197Y+152400D02*
X+1968803Y+152400D01*
X+1968197Y+355600D02*
X+1968803Y+355600D01*
X+1968196Y+152400D02*
X+1968804Y+152400D01*
X+1968196Y+355600D02*
X+1968804Y+355600D01*
X+1968195Y+152400D02*
X+1968805Y+152400D01*
X+1968195Y+355600D02*
X+1968805Y+355600D01*
X+1968194Y+152400D02*
X+1968806Y+152400D01*
X+1968194Y+355600D02*
X+1968806Y+355600D01*
X+1968193Y+152400D02*
X+1968807Y+152400D01*
X+1968193Y+355600D02*
X+1968807Y+355600D01*
X+1968192Y+152400D02*
X+1968808Y+152400D01*
X+1968192Y+355600D02*
X+1968808Y+355600D01*
X+1968191Y+152400D02*
X+1968809Y+152400D01*
X+1968191Y+355600D02*
X+1968809Y+355600D01*
X+1968190Y+152400D02*
X+1968810Y+152400D01*
X+1968190Y+355600D02*
X+1968810Y+355600D01*
X+1968189Y+152400D02*
X+1968811Y+152400D01*
X+1968189Y+355600D02*
X+1968811Y+355600D01*
X+1968188Y+152400D02*
X+1968812Y+152400D01*
X+1968188Y+355600D02*
X+1968812Y+355600D01*
X+1968187Y+152400D02*
X+1968813Y+152400D01*
X+1968187Y+355600D02*
X+1968813Y+355600D01*
X+1968186Y+152400D02*
X+1968814Y+152400D01*
X+1968186Y+355600D02*
X+1968814Y+355600D01*
X+1968185Y+152400D02*
X+1968815Y+152400D01*
X+1968185Y+355600D02*
X+1968815Y+355600D01*
X+1968184Y+152400D02*
X+1968816Y+152400D01*
X+1968184Y+355600D02*
X+1968816Y+355600D01*
X+1968183Y+152400D02*
X+1968817Y+152400D01*
X+1968183Y+355600D02*
X+1968817Y+355600D01*
X+1968182Y+152400D02*
X+1968818Y+152400D01*
X+1968182Y+355600D02*
X+1968818Y+355600D01*
X+1965642Y+152440D02*
X+1971358Y+152440D01*
X+1965642Y+355560D02*
X+1971358Y+355560D01*
X+1963102Y+152543D02*
X+1973898Y+152543D01*
X+1963102Y+355457D02*
X+1973898Y+355457D01*
X+1960562Y+152711D02*
X+1976438Y+152711D01*
X+1960562Y+355289D02*
X+1976438Y+355289D01*
X+1958022Y+152942D02*
X+1978978Y+152942D01*
X+1958022Y+355058D02*
X+1978978Y+355058D01*
X+1955482Y+153237D02*
X+1981518Y+153237D01*
X+1955482Y+354763D02*
X+1981518Y+354763D01*
X+1952942Y+153598D02*
X+1984058Y+153598D01*
X+1952942Y+354402D02*
X+1984058Y+354402D01*
X+1950402Y+154025D02*
X+1986598Y+154025D01*
X+1950402Y+353975D02*
X+1986598Y+353975D01*
X+1947862Y+154518D02*
X+1989138Y+154518D01*
X+1947862Y+353482D02*
X+1989138Y+353482D01*
X+1945322Y+155079D02*
X+1991678Y+155079D01*
X+1945322Y+352921D02*
X+1991678Y+352921D01*
X+1942782Y+155709D02*
X+1994218Y+155709D01*
X+1942782Y+352291D02*
X+1994218Y+352291D01*
X+1940242Y+156409D02*
X+1996758Y+156409D01*
X+1940242Y+351591D02*
X+1996758Y+351591D01*
X+1937702Y+157180D02*
X+1999298Y+157180D01*
X+1937702Y+350820D02*
X+1999298Y+350820D01*
X+1935162Y+158025D02*
X+2001838Y+158025D01*
X+1935162Y+349975D02*
X+2001838Y+349975D01*
X+1932622Y+158946D02*
X+2004378Y+158946D01*
X+1932622Y+349054D02*
X+2004378Y+349054D01*
X+1930082Y+159944D02*
X+2006918Y+159944D01*
X+1930082Y+348056D02*
X+2006918Y+348056D01*
X+1927542Y+161021D02*
X+2009458Y+161021D01*
X+1927542Y+346979D02*
X+2009458Y+346979D01*
X+1925002Y+162182D02*
X+2011998Y+162182D01*
X+1925002Y+345818D02*
X+2011998Y+345818D01*
X+1922462Y+163429D02*
X+2014538Y+163429D01*
X+1922462Y+344571D02*
X+2014538Y+344571D01*
X+1919922Y+164766D02*
X+2017078Y+164766D01*
X+1919922Y+343234D02*
X+2017078Y+343234D01*
X+1917382Y+166196D02*
X+2019618Y+166196D01*
X+1917382Y+341804D02*
X+2019618Y+341804D01*
X+1914842Y+167725D02*
X+2022158Y+167725D01*
X+1914842Y+340275D02*
X+2022158Y+340275D01*
X+1912302Y+169358D02*
X+2024698Y+169358D01*
X+1912302Y+338642D02*
X+2024698Y+338642D01*
X+1909762Y+171100D02*
X+2027238Y+171100D01*
X+1909762Y+336900D02*
X+2027238Y+336900D01*
X+1907222Y+172959D02*
X+2029778Y+172959D01*
X+1907222Y+335041D02*
X+2029778Y+335041D01*
X+1904682Y+174944D02*
X+2032318Y+174944D01*
X+1904682Y+333056D02*
X+2032318Y+333056D01*
X+1902142Y+177064D02*
X+2034858Y+177064D01*
X+1902142Y+330936D02*
X+2034858Y+330936D01*
X+1899602Y+179330D02*
X+2037398Y+179330D01*
X+1899602Y+328670D02*
X+2037398Y+328670D01*
X+1897062Y+181756D02*
X+2039938Y+181756D01*
X+1897062Y+326244D02*
X+2039938Y+326244D01*
X+1894584Y+184294D02*
X+2042416Y+184294D01*
X+1894584Y+323706D02*
X+2042416Y+323706D01*
X+1892268Y+186834D02*
X+2044732Y+186834D01*
X+1892268Y+321166D02*
X+2044732Y+321166D01*
X+1890103Y+189374D02*
X+2046897Y+189374D01*
X+1890103Y+318626D02*
X+2046897Y+318626D01*
X+1888077Y+191914D02*
X+2048923Y+191914D01*
X+1888077Y+316086D02*
X+2048923Y+316086D01*
X+1886178Y+194454D02*
X+2050822Y+194454D01*
X+1886178Y+313546D02*
X+2050822Y+313546D01*
X+1884400Y+196994D02*
X+2052600Y+196994D01*
X+1884400Y+311006D02*
X+2052600Y+311006D01*
X+1882733Y+199534D02*
X+2054267Y+199534D01*
X+1882733Y+308466D02*
X+2054267Y+308466D01*
X+1881172Y+202074D02*
X+2055828Y+202074D01*
X+1881172Y+305926D02*
X+2055828Y+305926D01*
X+1879710Y+204614D02*
X+2057290Y+204614D01*
X+1879710Y+303386D02*
X+2057290Y+303386D01*
X+1878345Y+207154D02*
X+2058655Y+207154D01*
X+1878345Y+300846D02*
X+2058655Y+300846D01*
X+1877069Y+209694D02*
X+2059931Y+209694D01*
X+1877069Y+298306D02*
X+2059931Y+298306D01*
X+1875882Y+212234D02*
X+2061118Y+212234D01*
X+1875882Y+295766D02*
X+2061118Y+295766D01*
X+1874778Y+214774D02*
X+2062222Y+214774D01*
X+1874778Y+293226D02*
X+2062222Y+293226D01*
X+1873755Y+217314D02*
X+2063245Y+217314D01*
X+1873755Y+290686D02*
X+2063245Y+290686D01*
X+1872810Y+219854D02*
X+2064190Y+219854D01*
X+1872810Y+288146D02*
X+2064190Y+288146D01*
X+1871941Y+222394D02*
X+2065059Y+222394D01*
X+1871941Y+285606D02*
X+2065059Y+285606D01*
X+1871146Y+224934D02*
X+2065854Y+224934D01*
X+1871146Y+283066D02*
X+2065854Y+283066D01*
X+1870424Y+227474D02*
X+2066576Y+227474D01*
X+1870424Y+280526D02*
X+2066576Y+280526D01*
X+1869772Y+230014D02*
X+2067228Y+230014D01*
X+1869772Y+277986D02*
X+2067228Y+277986D01*
X+1869189Y+232554D02*
X+2067811Y+232554D01*
X+1869189Y+275446D02*
X+2067811Y+275446D01*
X+1868675Y+235094D02*
X+2068325Y+235094D01*
X+1868675Y+272906D02*
X+2068325Y+272906D01*
X+1868227Y+237634D02*
X+2068773Y+237634D01*
X+1868227Y+270366D02*
X+2068773Y+270366D01*
X+1867845Y+240174D02*
X+2069155Y+240174D01*
X+1867845Y+267826D02*
X+2069155Y+267826D01*
X+1867529Y+242714D02*
X+2069471Y+242714D01*
X+1867529Y+265286D02*
X+2069471Y+265286D01*
X+1867277Y+245254D02*
X+2069723Y+245254D01*
X+1867277Y+262746D02*
X+2069723Y+262746D01*
X+1867090Y+247794D02*
X+2069910Y+247794D01*
X+1867090Y+260206D02*
X+2069910Y+260206D01*
X+1866966Y+250334D02*
X+2070034Y+250334D01*
X+1866966Y+257666D02*
X+2070034Y+257666D01*
X+1866906Y+252874D02*
X+2070094Y+252874D01*
X+1866906Y+255126D02*
X+2070094Y+255126D01*
X+1866900Y+254000D02*
X+2070100Y+254000D01*
X+1866900Y+254000D02*
X+2070100Y+254000D01*
D54*
X+2069756Y+262354D01*
X+2066960Y+279064D01*
X+2061115Y+295774D01*
X+2051579Y+312484D01*
X+2036990Y+329045D01*
X+2020280Y+341415D01*
X+2003570Y+349355D01*
X+1986860Y+353927D01*
X+1970150Y+355587D01*
X+1968500Y+355600D01*
X+1866900Y+254000D02*
X+1867244Y+262354D01*
X+1870040Y+279064D01*
X+1875885Y+295774D01*
X+1885421Y+312484D01*
X+1900010Y+329045D01*
X+1916720Y+341415D01*
X+1933430Y+349355D01*
X+1950140Y+353927D01*
X+1966850Y+355587D01*
X+1968500Y+355600D01*
X+1866900Y+254000D02*
X+1867244Y+245646D01*
X+1870040Y+228936D01*
X+1875885Y+212226D01*
X+1885421Y+195516D01*
X+1900010Y+178955D01*
X+1916720Y+166585D01*
X+1933430Y+158645D01*
X+1950140Y+154073D01*
X+1966850Y+152413D01*
X+1968500Y+152400D01*
X+2070100Y+254000D02*
X+2069756Y+245646D01*
X+2066960Y+228936D01*
X+2061115Y+212226D01*
X+2051579Y+195516D01*
X+2036990Y+178955D01*
X+2020280Y+166585D01*
X+2003570Y+158645D01*
X+1986860Y+154073D01*
X+1970150Y+152413D01*
X+1968500Y+152400D01*
D55*
X+6146800Y+3708400D02*
X+6146800Y+3708400D01*
X+6146800Y+3911600D02*
X+6146800Y+3911600D01*
X+6146799Y+3708400D02*
X+6146801Y+3708400D01*
X+6146799Y+3911600D02*
X+6146801Y+3911600D01*
X+6146798Y+3708400D02*
X+6146802Y+3708400D01*
X+6146798Y+3911600D02*
X+6146802Y+3911600D01*
X+6146797Y+3708400D02*
X+6146803Y+3708400D01*
X+6146797Y+3911600D02*
X+6146803Y+3911600D01*
X+6146796Y+3708400D02*
X+6146804Y+3708400D01*
X+6146796Y+3911600D02*
X+6146804Y+3911600D01*
X+6146795Y+3708400D02*
X+6146805Y+3708400D01*
X+6146795Y+3911600D02*
X+6146805Y+3911600D01*
X+6146794Y+3708400D02*
X+6146806Y+3708400D01*
X+6146794Y+3911600D02*
X+6146806Y+3911600D01*
X+6146793Y+3708400D02*
X+6146807Y+3708400D01*
X+6146793Y+3911600D02*
X+6146807Y+3911600D01*
X+6146792Y+3708400D02*
X+6146808Y+3708400D01*
X+6146792Y+3911600D02*
X+6146808Y+3911600D01*
X+6146791Y+3708400D02*
X+6146809Y+3708400D01*
X+6146791Y+3911600D02*
X+6146809Y+3911600D01*
X+6146790Y+3708400D02*
X+6146810Y+3708400D01*
X+6146790Y+3911600D02*
X+6146810Y+3911600D01*
X+6146789Y+3708400D02*
X+6146811Y+3708400D01*
X+6146789Y+3911600D02*
X+6146811Y+3911600D01*
X+6146788Y+3708400D02*
X+6146812Y+3708400D01*
X+6146788Y+3911600D02*
X+6146812Y+3911600D01*
X+6146787Y+3708400D02*
X+6146813Y+3708400D01*
X+6146787Y+3911600D02*
X+6146813Y+3911600D01*
X+6146786Y+3708400D02*
X+6146814Y+3708400D01*
X+6146786Y+3911600D02*
X+6146814Y+3911600D01*
X+6146785Y+3708400D02*
X+6146815Y+3708400D01*
X+6146785Y+3911600D02*
X+6146815Y+3911600D01*
X+6146784Y+3708400D02*
X+6146816Y+3708400D01*
X+6146784Y+3911600D02*
X+6146816Y+3911600D01*
X+6146783Y+3708400D02*
X+6146817Y+3708400D01*
X+6146783Y+3911600D02*
X+6146817Y+3911600D01*
X+6146782Y+3708400D02*
X+6146818Y+3708400D01*
X+6146782Y+3911600D02*
X+6146818Y+3911600D01*
X+6146781Y+3708400D02*
X+6146819Y+3708400D01*
X+6146781Y+3911600D02*
X+6146819Y+3911600D01*
X+6146780Y+3708400D02*
X+6146820Y+3708400D01*
X+6146780Y+3911600D02*
X+6146820Y+3911600D01*
X+6146779Y+3708400D02*
X+6146821Y+3708400D01*
X+6146779Y+3911600D02*
X+6146821Y+3911600D01*
X+6146778Y+3708400D02*
X+6146822Y+3708400D01*
X+6146778Y+3911600D02*
X+6146822Y+3911600D01*
X+6146777Y+3708400D02*
X+6146823Y+3708400D01*
X+6146777Y+3911600D02*
X+6146823Y+3911600D01*
X+6146776Y+3708400D02*
X+6146824Y+3708400D01*
X+6146776Y+3911600D02*
X+6146824Y+3911600D01*
X+6146775Y+3708400D02*
X+6146825Y+3708400D01*
X+6146775Y+3911600D02*
X+6146825Y+3911600D01*
X+6146774Y+3708400D02*
X+6146826Y+3708400D01*
X+6146774Y+3911600D02*
X+6146826Y+3911600D01*
X+6146773Y+3708400D02*
X+6146827Y+3708400D01*
X+6146773Y+3911600D02*
X+6146827Y+3911600D01*
X+6146772Y+3708400D02*
X+6146828Y+3708400D01*
X+6146772Y+3911600D02*
X+6146828Y+3911600D01*
X+6146771Y+3708400D02*
X+6146829Y+3708400D01*
X+6146771Y+3911600D02*
X+6146829Y+3911600D01*
X+6146770Y+3708400D02*
X+6146830Y+3708400D01*
X+6146770Y+3911600D02*
X+6146830Y+3911600D01*
X+6146769Y+3708400D02*
X+6146831Y+3708400D01*
X+6146769Y+3911600D02*
X+6146831Y+3911600D01*
X+6146768Y+3708400D02*
X+6146832Y+3708400D01*
X+6146768Y+3911600D02*
X+6146832Y+3911600D01*
X+6146767Y+3708400D02*
X+6146833Y+3708400D01*
X+6146767Y+3911600D02*
X+6146833Y+3911600D01*
X+6146766Y+3708400D02*
X+6146834Y+3708400D01*
X+6146766Y+3911600D02*
X+6146834Y+3911600D01*
X+6146765Y+3708400D02*
X+6146835Y+3708400D01*
X+6146765Y+3911600D02*
X+6146835Y+3911600D01*
X+6146764Y+3708400D02*
X+6146836Y+3708400D01*
X+6146764Y+3911600D02*
X+6146836Y+3911600D01*
X+6146763Y+3708400D02*
X+6146837Y+3708400D01*
X+6146763Y+3911600D02*
X+6146837Y+3911600D01*
X+6146762Y+3708400D02*
X+6146838Y+3708400D01*
X+6146762Y+3911600D02*
X+6146838Y+3911600D01*
X+6146761Y+3708400D02*
X+6146839Y+3708400D01*
X+6146761Y+3911600D02*
X+6146839Y+3911600D01*
X+6146760Y+3708400D02*
X+6146840Y+3708400D01*
X+6146760Y+3911600D02*
X+6146840Y+3911600D01*
X+6146759Y+3708400D02*
X+6146841Y+3708400D01*
X+6146759Y+3911600D02*
X+6146841Y+3911600D01*
X+6146758Y+3708400D02*
X+6146842Y+3708400D01*
X+6146758Y+3911600D02*
X+6146842Y+3911600D01*
X+6146757Y+3708400D02*
X+6146843Y+3708400D01*
X+6146757Y+3911600D02*
X+6146843Y+3911600D01*
X+6146756Y+3708400D02*
X+6146844Y+3708400D01*
X+6146756Y+3911600D02*
X+6146844Y+3911600D01*
X+6146755Y+3708400D02*
X+6146845Y+3708400D01*
X+6146755Y+3911600D02*
X+6146845Y+3911600D01*
X+6146754Y+3708400D02*
X+6146846Y+3708400D01*
X+6146754Y+3911600D02*
X+6146846Y+3911600D01*
X+6146753Y+3708400D02*
X+6146847Y+3708400D01*
X+6146753Y+3911600D02*
X+6146847Y+3911600D01*
X+6146752Y+3708400D02*
X+6146848Y+3708400D01*
X+6146752Y+3911600D02*
X+6146848Y+3911600D01*
X+6146751Y+3708400D02*
X+6146849Y+3708400D01*
X+6146751Y+3911600D02*
X+6146849Y+3911600D01*
X+6146750Y+3708400D02*
X+6146850Y+3708400D01*
X+6146750Y+3911600D02*
X+6146850Y+3911600D01*
X+6146749Y+3708400D02*
X+6146851Y+3708400D01*
X+6146749Y+3911600D02*
X+6146851Y+3911600D01*
X+6146748Y+3708400D02*
X+6146852Y+3708400D01*
X+6146748Y+3911600D02*
X+6146852Y+3911600D01*
X+6146747Y+3708400D02*
X+6146853Y+3708400D01*
X+6146747Y+3911600D02*
X+6146853Y+3911600D01*
X+6146746Y+3708400D02*
X+6146854Y+3708400D01*
X+6146746Y+3911600D02*
X+6146854Y+3911600D01*
X+6146745Y+3708400D02*
X+6146855Y+3708400D01*
X+6146745Y+3911600D02*
X+6146855Y+3911600D01*
X+6146744Y+3708400D02*
X+6146856Y+3708400D01*
X+6146744Y+3911600D02*
X+6146856Y+3911600D01*
X+6146743Y+3708400D02*
X+6146857Y+3708400D01*
X+6146743Y+3911600D02*
X+6146857Y+3911600D01*
X+6146742Y+3708400D02*
X+6146858Y+3708400D01*
X+6146742Y+3911600D02*
X+6146858Y+3911600D01*
X+6146741Y+3708400D02*
X+6146859Y+3708400D01*
X+6146741Y+3911600D02*
X+6146859Y+3911600D01*
X+6146740Y+3708400D02*
X+6146860Y+3708400D01*
X+6146740Y+3911600D02*
X+6146860Y+3911600D01*
X+6146739Y+3708400D02*
X+6146861Y+3708400D01*
X+6146739Y+3911600D02*
X+6146861Y+3911600D01*
X+6146738Y+3708400D02*
X+6146862Y+3708400D01*
X+6146738Y+3911600D02*
X+6146862Y+3911600D01*
X+6146737Y+3708400D02*
X+6146863Y+3708400D01*
X+6146737Y+3911600D02*
X+6146863Y+3911600D01*
X+6146736Y+3708400D02*
X+6146864Y+3708400D01*
X+6146736Y+3911600D02*
X+6146864Y+3911600D01*
X+6146735Y+3708400D02*
X+6146865Y+3708400D01*
X+6146735Y+3911600D02*
X+6146865Y+3911600D01*
X+6146734Y+3708400D02*
X+6146866Y+3708400D01*
X+6146734Y+3911600D02*
X+6146866Y+3911600D01*
X+6146733Y+3708400D02*
X+6146867Y+3708400D01*
X+6146733Y+3911600D02*
X+6146867Y+3911600D01*
X+6146732Y+3708400D02*
X+6146868Y+3708400D01*
X+6146732Y+3911600D02*
X+6146868Y+3911600D01*
X+6146731Y+3708400D02*
X+6146869Y+3708400D01*
X+6146731Y+3911600D02*
X+6146869Y+3911600D01*
X+6146730Y+3708400D02*
X+6146870Y+3708400D01*
X+6146730Y+3911600D02*
X+6146870Y+3911600D01*
X+6146729Y+3708400D02*
X+6146871Y+3708400D01*
X+6146729Y+3911600D02*
X+6146871Y+3911600D01*
X+6146728Y+3708400D02*
X+6146872Y+3708400D01*
X+6146728Y+3911600D02*
X+6146872Y+3911600D01*
X+6146727Y+3708400D02*
X+6146873Y+3708400D01*
X+6146727Y+3911600D02*
X+6146873Y+3911600D01*
X+6146726Y+3708400D02*
X+6146874Y+3708400D01*
X+6146726Y+3911600D02*
X+6146874Y+3911600D01*
X+6146725Y+3708400D02*
X+6146875Y+3708400D01*
X+6146725Y+3911600D02*
X+6146875Y+3911600D01*
X+6146724Y+3708400D02*
X+6146876Y+3708400D01*
X+6146724Y+3911600D02*
X+6146876Y+3911600D01*
X+6146723Y+3708400D02*
X+6146877Y+3708400D01*
X+6146723Y+3911600D02*
X+6146877Y+3911600D01*
X+6146722Y+3708400D02*
X+6146878Y+3708400D01*
X+6146722Y+3911600D02*
X+6146878Y+3911600D01*
X+6146721Y+3708400D02*
X+6146879Y+3708400D01*
X+6146721Y+3911600D02*
X+6146879Y+3911600D01*
X+6146720Y+3708400D02*
X+6146880Y+3708400D01*
X+6146720Y+3911600D02*
X+6146880Y+3911600D01*
X+6146719Y+3708400D02*
X+6146881Y+3708400D01*
X+6146719Y+3911600D02*
X+6146881Y+3911600D01*
X+6146718Y+3708400D02*
X+6146882Y+3708400D01*
X+6146718Y+3911600D02*
X+6146882Y+3911600D01*
X+6146717Y+3708400D02*
X+6146883Y+3708400D01*
X+6146717Y+3911600D02*
X+6146883Y+3911600D01*
X+6146716Y+3708400D02*
X+6146884Y+3708400D01*
X+6146716Y+3911600D02*
X+6146884Y+3911600D01*
X+6146715Y+3708400D02*
X+6146885Y+3708400D01*
X+6146715Y+3911600D02*
X+6146885Y+3911600D01*
X+6146714Y+3708400D02*
X+6146886Y+3708400D01*
X+6146714Y+3911600D02*
X+6146886Y+3911600D01*
X+6146713Y+3708400D02*
X+6146887Y+3708400D01*
X+6146713Y+3911600D02*
X+6146887Y+3911600D01*
X+6146712Y+3708400D02*
X+6146888Y+3708400D01*
X+6146712Y+3911600D02*
X+6146888Y+3911600D01*
X+6146711Y+3708400D02*
X+6146889Y+3708400D01*
X+6146711Y+3911600D02*
X+6146889Y+3911600D01*
X+6146710Y+3708400D02*
X+6146890Y+3708400D01*
X+6146710Y+3911600D02*
X+6146890Y+3911600D01*
X+6146709Y+3708400D02*
X+6146891Y+3708400D01*
X+6146709Y+3911600D02*
X+6146891Y+3911600D01*
X+6146708Y+3708400D02*
X+6146892Y+3708400D01*
X+6146708Y+3911600D02*
X+6146892Y+3911600D01*
X+6146707Y+3708400D02*
X+6146893Y+3708400D01*
X+6146707Y+3911600D02*
X+6146893Y+3911600D01*
X+6146706Y+3708400D02*
X+6146894Y+3708400D01*
X+6146706Y+3911600D02*
X+6146894Y+3911600D01*
X+6146705Y+3708400D02*
X+6146895Y+3708400D01*
X+6146705Y+3911600D02*
X+6146895Y+3911600D01*
X+6146704Y+3708400D02*
X+6146896Y+3708400D01*
X+6146704Y+3911600D02*
X+6146896Y+3911600D01*
X+6146703Y+3708400D02*
X+6146897Y+3708400D01*
X+6146703Y+3911600D02*
X+6146897Y+3911600D01*
X+6146702Y+3708400D02*
X+6146898Y+3708400D01*
X+6146702Y+3911600D02*
X+6146898Y+3911600D01*
X+6146701Y+3708400D02*
X+6146899Y+3708400D01*
X+6146701Y+3911600D02*
X+6146899Y+3911600D01*
X+6146700Y+3708400D02*
X+6146900Y+3708400D01*
X+6146700Y+3911600D02*
X+6146900Y+3911600D01*
X+6146699Y+3708400D02*
X+6146901Y+3708400D01*
X+6146699Y+3911600D02*
X+6146901Y+3911600D01*
X+6146698Y+3708400D02*
X+6146902Y+3708400D01*
X+6146698Y+3911600D02*
X+6146902Y+3911600D01*
X+6146697Y+3708400D02*
X+6146903Y+3708400D01*
X+6146697Y+3911600D02*
X+6146903Y+3911600D01*
X+6146696Y+3708400D02*
X+6146904Y+3708400D01*
X+6146696Y+3911600D02*
X+6146904Y+3911600D01*
X+6146695Y+3708400D02*
X+6146905Y+3708400D01*
X+6146695Y+3911600D02*
X+6146905Y+3911600D01*
X+6146694Y+3708400D02*
X+6146906Y+3708400D01*
X+6146694Y+3911600D02*
X+6146906Y+3911600D01*
X+6146693Y+3708400D02*
X+6146907Y+3708400D01*
X+6146693Y+3911600D02*
X+6146907Y+3911600D01*
X+6146692Y+3708400D02*
X+6146908Y+3708400D01*
X+6146692Y+3911600D02*
X+6146908Y+3911600D01*
X+6146691Y+3708400D02*
X+6146909Y+3708400D01*
X+6146691Y+3911600D02*
X+6146909Y+3911600D01*
X+6146690Y+3708400D02*
X+6146910Y+3708400D01*
X+6146690Y+3911600D02*
X+6146910Y+3911600D01*
X+6146689Y+3708400D02*
X+6146911Y+3708400D01*
X+6146689Y+3911600D02*
X+6146911Y+3911600D01*
X+6146688Y+3708400D02*
X+6146912Y+3708400D01*
X+6146688Y+3911600D02*
X+6146912Y+3911600D01*
X+6146687Y+3708400D02*
X+6146913Y+3708400D01*
X+6146687Y+3911600D02*
X+6146913Y+3911600D01*
X+6146686Y+3708400D02*
X+6146914Y+3708400D01*
X+6146686Y+3911600D02*
X+6146914Y+3911600D01*
X+6146685Y+3708400D02*
X+6146915Y+3708400D01*
X+6146685Y+3911600D02*
X+6146915Y+3911600D01*
X+6146684Y+3708400D02*
X+6146916Y+3708400D01*
X+6146684Y+3911600D02*
X+6146916Y+3911600D01*
X+6146683Y+3708400D02*
X+6146917Y+3708400D01*
X+6146683Y+3911600D02*
X+6146917Y+3911600D01*
X+6146682Y+3708400D02*
X+6146918Y+3708400D01*
X+6146682Y+3911600D02*
X+6146918Y+3911600D01*
X+6146681Y+3708400D02*
X+6146919Y+3708400D01*
X+6146681Y+3911600D02*
X+6146919Y+3911600D01*
X+6146680Y+3708400D02*
X+6146920Y+3708400D01*
X+6146680Y+3911600D02*
X+6146920Y+3911600D01*
X+6146679Y+3708400D02*
X+6146921Y+3708400D01*
X+6146679Y+3911600D02*
X+6146921Y+3911600D01*
X+6146678Y+3708400D02*
X+6146922Y+3708400D01*
X+6146678Y+3911600D02*
X+6146922Y+3911600D01*
X+6146677Y+3708400D02*
X+6146923Y+3708400D01*
X+6146677Y+3911600D02*
X+6146923Y+3911600D01*
X+6146676Y+3708400D02*
X+6146924Y+3708400D01*
X+6146676Y+3911600D02*
X+6146924Y+3911600D01*
X+6146675Y+3708400D02*
X+6146925Y+3708400D01*
X+6146675Y+3911600D02*
X+6146925Y+3911600D01*
X+6146674Y+3708400D02*
X+6146926Y+3708400D01*
X+6146674Y+3911600D02*
X+6146926Y+3911600D01*
X+6146673Y+3708400D02*
X+6146927Y+3708400D01*
X+6146673Y+3911600D02*
X+6146927Y+3911600D01*
X+6146672Y+3708400D02*
X+6146928Y+3708400D01*
X+6146672Y+3911600D02*
X+6146928Y+3911600D01*
X+6146671Y+3708400D02*
X+6146929Y+3708400D01*
X+6146671Y+3911600D02*
X+6146929Y+3911600D01*
X+6146670Y+3708400D02*
X+6146930Y+3708400D01*
X+6146670Y+3911600D02*
X+6146930Y+3911600D01*
X+6146669Y+3708400D02*
X+6146931Y+3708400D01*
X+6146669Y+3911600D02*
X+6146931Y+3911600D01*
X+6146668Y+3708400D02*
X+6146932Y+3708400D01*
X+6146668Y+3911600D02*
X+6146932Y+3911600D01*
X+6146667Y+3708400D02*
X+6146933Y+3708400D01*
X+6146667Y+3911600D02*
X+6146933Y+3911600D01*
X+6146666Y+3708400D02*
X+6146934Y+3708400D01*
X+6146666Y+3911600D02*
X+6146934Y+3911600D01*
X+6146665Y+3708400D02*
X+6146935Y+3708400D01*
X+6146665Y+3911600D02*
X+6146935Y+3911600D01*
X+6146664Y+3708400D02*
X+6146936Y+3708400D01*
X+6146664Y+3911600D02*
X+6146936Y+3911600D01*
X+6146663Y+3708400D02*
X+6146937Y+3708400D01*
X+6146663Y+3911600D02*
X+6146937Y+3911600D01*
X+6146662Y+3708400D02*
X+6146938Y+3708400D01*
X+6146662Y+3911600D02*
X+6146938Y+3911600D01*
X+6146661Y+3708400D02*
X+6146939Y+3708400D01*
X+6146661Y+3911600D02*
X+6146939Y+3911600D01*
X+6146660Y+3708400D02*
X+6146940Y+3708400D01*
X+6146660Y+3911600D02*
X+6146940Y+3911600D01*
X+6146659Y+3708400D02*
X+6146941Y+3708400D01*
X+6146659Y+3911600D02*
X+6146941Y+3911600D01*
X+6146658Y+3708400D02*
X+6146942Y+3708400D01*
X+6146658Y+3911600D02*
X+6146942Y+3911600D01*
X+6146657Y+3708400D02*
X+6146943Y+3708400D01*
X+6146657Y+3911600D02*
X+6146943Y+3911600D01*
X+6146656Y+3708400D02*
X+6146944Y+3708400D01*
X+6146656Y+3911600D02*
X+6146944Y+3911600D01*
X+6146655Y+3708400D02*
X+6146945Y+3708400D01*
X+6146655Y+3911600D02*
X+6146945Y+3911600D01*
X+6146654Y+3708400D02*
X+6146946Y+3708400D01*
X+6146654Y+3911600D02*
X+6146946Y+3911600D01*
X+6146653Y+3708400D02*
X+6146947Y+3708400D01*
X+6146653Y+3911600D02*
X+6146947Y+3911600D01*
X+6146652Y+3708400D02*
X+6146948Y+3708400D01*
X+6146652Y+3911600D02*
X+6146948Y+3911600D01*
X+6146651Y+3708400D02*
X+6146949Y+3708400D01*
X+6146651Y+3911600D02*
X+6146949Y+3911600D01*
X+6146650Y+3708400D02*
X+6146950Y+3708400D01*
X+6146650Y+3911600D02*
X+6146950Y+3911600D01*
X+6146649Y+3708400D02*
X+6146951Y+3708400D01*
X+6146649Y+3911600D02*
X+6146951Y+3911600D01*
X+6146648Y+3708400D02*
X+6146952Y+3708400D01*
X+6146648Y+3911600D02*
X+6146952Y+3911600D01*
X+6146647Y+3708400D02*
X+6146953Y+3708400D01*
X+6146647Y+3911600D02*
X+6146953Y+3911600D01*
X+6146646Y+3708400D02*
X+6146954Y+3708400D01*
X+6146646Y+3911600D02*
X+6146954Y+3911600D01*
X+6146645Y+3708400D02*
X+6146955Y+3708400D01*
X+6146645Y+3911600D02*
X+6146955Y+3911600D01*
X+6146644Y+3708400D02*
X+6146956Y+3708400D01*
X+6146644Y+3911600D02*
X+6146956Y+3911600D01*
X+6146643Y+3708400D02*
X+6146957Y+3708400D01*
X+6146643Y+3911600D02*
X+6146957Y+3911600D01*
X+6146642Y+3708400D02*
X+6146958Y+3708400D01*
X+6146642Y+3911600D02*
X+6146958Y+3911600D01*
X+6146641Y+3708400D02*
X+6146959Y+3708400D01*
X+6146641Y+3911600D02*
X+6146959Y+3911600D01*
X+6146640Y+3708400D02*
X+6146960Y+3708400D01*
X+6146640Y+3911600D02*
X+6146960Y+3911600D01*
X+6146639Y+3708400D02*
X+6146961Y+3708400D01*
X+6146639Y+3911600D02*
X+6146961Y+3911600D01*
X+6146638Y+3708400D02*
X+6146962Y+3708400D01*
X+6146638Y+3911600D02*
X+6146962Y+3911600D01*
X+6146637Y+3708400D02*
X+6146963Y+3708400D01*
X+6146637Y+3911600D02*
X+6146963Y+3911600D01*
X+6146636Y+3708400D02*
X+6146964Y+3708400D01*
X+6146636Y+3911600D02*
X+6146964Y+3911600D01*
X+6146635Y+3708400D02*
X+6146965Y+3708400D01*
X+6146635Y+3911600D02*
X+6146965Y+3911600D01*
X+6146634Y+3708400D02*
X+6146966Y+3708400D01*
X+6146634Y+3911600D02*
X+6146966Y+3911600D01*
X+6146633Y+3708400D02*
X+6146967Y+3708400D01*
X+6146633Y+3911600D02*
X+6146967Y+3911600D01*
X+6146632Y+3708400D02*
X+6146968Y+3708400D01*
X+6146632Y+3911600D02*
X+6146968Y+3911600D01*
X+6146631Y+3708400D02*
X+6146969Y+3708400D01*
X+6146631Y+3911600D02*
X+6146969Y+3911600D01*
X+6146630Y+3708400D02*
X+6146970Y+3708400D01*
X+6146630Y+3911600D02*
X+6146970Y+3911600D01*
X+6146629Y+3708400D02*
X+6146971Y+3708400D01*
X+6146629Y+3911600D02*
X+6146971Y+3911600D01*
X+6146628Y+3708400D02*
X+6146972Y+3708400D01*
X+6146628Y+3911600D02*
X+6146972Y+3911600D01*
X+6146627Y+3708400D02*
X+6146973Y+3708400D01*
X+6146627Y+3911600D02*
X+6146973Y+3911600D01*
X+6146626Y+3708400D02*
X+6146974Y+3708400D01*
X+6146626Y+3911600D02*
X+6146974Y+3911600D01*
X+6146625Y+3708400D02*
X+6146975Y+3708400D01*
X+6146625Y+3911600D02*
X+6146975Y+3911600D01*
X+6146624Y+3708400D02*
X+6146976Y+3708400D01*
X+6146624Y+3911600D02*
X+6146976Y+3911600D01*
X+6146623Y+3708400D02*
X+6146977Y+3708400D01*
X+6146623Y+3911600D02*
X+6146977Y+3911600D01*
X+6146622Y+3708400D02*
X+6146978Y+3708400D01*
X+6146622Y+3911600D02*
X+6146978Y+3911600D01*
X+6146621Y+3708400D02*
X+6146979Y+3708400D01*
X+6146621Y+3911600D02*
X+6146979Y+3911600D01*
X+6146620Y+3708400D02*
X+6146980Y+3708400D01*
X+6146620Y+3911600D02*
X+6146980Y+3911600D01*
X+6146619Y+3708400D02*
X+6146981Y+3708400D01*
X+6146619Y+3911600D02*
X+6146981Y+3911600D01*
X+6146618Y+3708400D02*
X+6146982Y+3708400D01*
X+6146618Y+3911600D02*
X+6146982Y+3911600D01*
X+6146617Y+3708400D02*
X+6146983Y+3708400D01*
X+6146617Y+3911600D02*
X+6146983Y+3911600D01*
X+6146616Y+3708400D02*
X+6146984Y+3708400D01*
X+6146616Y+3911600D02*
X+6146984Y+3911600D01*
X+6146615Y+3708400D02*
X+6146985Y+3708400D01*
X+6146615Y+3911600D02*
X+6146985Y+3911600D01*
X+6146614Y+3708400D02*
X+6146986Y+3708400D01*
X+6146614Y+3911600D02*
X+6146986Y+3911600D01*
X+6146613Y+3708400D02*
X+6146987Y+3708400D01*
X+6146613Y+3911600D02*
X+6146987Y+3911600D01*
X+6146612Y+3708400D02*
X+6146988Y+3708400D01*
X+6146612Y+3911600D02*
X+6146988Y+3911600D01*
X+6146611Y+3708400D02*
X+6146989Y+3708400D01*
X+6146611Y+3911600D02*
X+6146989Y+3911600D01*
X+6146610Y+3708400D02*
X+6146990Y+3708400D01*
X+6146610Y+3911600D02*
X+6146990Y+3911600D01*
X+6146609Y+3708400D02*
X+6146991Y+3708400D01*
X+6146609Y+3911600D02*
X+6146991Y+3911600D01*
X+6146608Y+3708400D02*
X+6146992Y+3708400D01*
X+6146608Y+3911600D02*
X+6146992Y+3911600D01*
X+6146607Y+3708400D02*
X+6146993Y+3708400D01*
X+6146607Y+3911600D02*
X+6146993Y+3911600D01*
X+6146606Y+3708400D02*
X+6146994Y+3708400D01*
X+6146606Y+3911600D02*
X+6146994Y+3911600D01*
X+6146605Y+3708400D02*
X+6146995Y+3708400D01*
X+6146605Y+3911600D02*
X+6146995Y+3911600D01*
X+6146604Y+3708400D02*
X+6146996Y+3708400D01*
X+6146604Y+3911600D02*
X+6146996Y+3911600D01*
X+6146603Y+3708400D02*
X+6146997Y+3708400D01*
X+6146603Y+3911600D02*
X+6146997Y+3911600D01*
X+6146602Y+3708400D02*
X+6146998Y+3708400D01*
X+6146602Y+3911600D02*
X+6146998Y+3911600D01*
X+6146601Y+3708400D02*
X+6146999Y+3708400D01*
X+6146601Y+3911600D02*
X+6146999Y+3911600D01*
X+6146600Y+3708400D02*
X+6147000Y+3708400D01*
X+6146600Y+3911600D02*
X+6147000Y+3911600D01*
X+6146599Y+3708400D02*
X+6147001Y+3708400D01*
X+6146599Y+3911600D02*
X+6147001Y+3911600D01*
X+6146598Y+3708400D02*
X+6147002Y+3708400D01*
X+6146598Y+3911600D02*
X+6147002Y+3911600D01*
X+6146597Y+3708400D02*
X+6147003Y+3708400D01*
X+6146597Y+3911600D02*
X+6147003Y+3911600D01*
X+6146596Y+3708400D02*
X+6147004Y+3708400D01*
X+6146596Y+3911600D02*
X+6147004Y+3911600D01*
X+6146595Y+3708400D02*
X+6147005Y+3708400D01*
X+6146595Y+3911600D02*
X+6147005Y+3911600D01*
X+6146594Y+3708400D02*
X+6147006Y+3708400D01*
X+6146594Y+3911600D02*
X+6147006Y+3911600D01*
X+6146593Y+3708400D02*
X+6147007Y+3708400D01*
X+6146593Y+3911600D02*
X+6147007Y+3911600D01*
X+6146592Y+3708400D02*
X+6147008Y+3708400D01*
X+6146592Y+3911600D02*
X+6147008Y+3911600D01*
X+6146591Y+3708400D02*
X+6147009Y+3708400D01*
X+6146591Y+3911600D02*
X+6147009Y+3911600D01*
X+6146590Y+3708400D02*
X+6147010Y+3708400D01*
X+6146590Y+3911600D02*
X+6147010Y+3911600D01*
X+6146589Y+3708400D02*
X+6147011Y+3708400D01*
X+6146589Y+3911600D02*
X+6147011Y+3911600D01*
X+6146588Y+3708400D02*
X+6147012Y+3708400D01*
X+6146588Y+3911600D02*
X+6147012Y+3911600D01*
X+6146587Y+3708400D02*
X+6147013Y+3708400D01*
X+6146587Y+3911600D02*
X+6147013Y+3911600D01*
X+6146586Y+3708400D02*
X+6147014Y+3708400D01*
X+6146586Y+3911600D02*
X+6147014Y+3911600D01*
X+6146585Y+3708400D02*
X+6147015Y+3708400D01*
X+6146585Y+3911600D02*
X+6147015Y+3911600D01*
X+6146584Y+3708400D02*
X+6147016Y+3708400D01*
X+6146584Y+3911600D02*
X+6147016Y+3911600D01*
X+6146583Y+3708400D02*
X+6147017Y+3708400D01*
X+6146583Y+3911600D02*
X+6147017Y+3911600D01*
X+6146582Y+3708400D02*
X+6147018Y+3708400D01*
X+6146582Y+3911600D02*
X+6147018Y+3911600D01*
X+6146581Y+3708400D02*
X+6147019Y+3708400D01*
X+6146581Y+3911600D02*
X+6147019Y+3911600D01*
X+6146580Y+3708400D02*
X+6147020Y+3708400D01*
X+6146580Y+3911600D02*
X+6147020Y+3911600D01*
X+6146579Y+3708400D02*
X+6147021Y+3708400D01*
X+6146579Y+3911600D02*
X+6147021Y+3911600D01*
X+6146578Y+3708400D02*
X+6147022Y+3708400D01*
X+6146578Y+3911600D02*
X+6147022Y+3911600D01*
X+6146577Y+3708400D02*
X+6147023Y+3708400D01*
X+6146577Y+3911600D02*
X+6147023Y+3911600D01*
X+6146576Y+3708400D02*
X+6147024Y+3708400D01*
X+6146576Y+3911600D02*
X+6147024Y+3911600D01*
X+6146575Y+3708400D02*
X+6147025Y+3708400D01*
X+6146575Y+3911600D02*
X+6147025Y+3911600D01*
X+6146574Y+3708400D02*
X+6147026Y+3708400D01*
X+6146574Y+3911600D02*
X+6147026Y+3911600D01*
X+6146573Y+3708400D02*
X+6147027Y+3708400D01*
X+6146573Y+3911600D02*
X+6147027Y+3911600D01*
X+6146572Y+3708400D02*
X+6147028Y+3708400D01*
X+6146572Y+3911600D02*
X+6147028Y+3911600D01*
X+6146571Y+3708400D02*
X+6147029Y+3708400D01*
X+6146571Y+3911600D02*
X+6147029Y+3911600D01*
X+6146570Y+3708400D02*
X+6147030Y+3708400D01*
X+6146570Y+3911600D02*
X+6147030Y+3911600D01*
X+6146569Y+3708400D02*
X+6147031Y+3708400D01*
X+6146569Y+3911600D02*
X+6147031Y+3911600D01*
X+6146568Y+3708400D02*
X+6147032Y+3708400D01*
X+6146568Y+3911600D02*
X+6147032Y+3911600D01*
X+6146567Y+3708400D02*
X+6147033Y+3708400D01*
X+6146567Y+3911600D02*
X+6147033Y+3911600D01*
X+6146566Y+3708400D02*
X+6147034Y+3708400D01*
X+6146566Y+3911600D02*
X+6147034Y+3911600D01*
X+6146565Y+3708400D02*
X+6147035Y+3708400D01*
X+6146565Y+3911600D02*
X+6147035Y+3911600D01*
X+6146564Y+3708400D02*
X+6147036Y+3708400D01*
X+6146564Y+3911600D02*
X+6147036Y+3911600D01*
X+6146563Y+3708400D02*
X+6147037Y+3708400D01*
X+6146563Y+3911600D02*
X+6147037Y+3911600D01*
X+6146562Y+3708400D02*
X+6147038Y+3708400D01*
X+6146562Y+3911600D02*
X+6147038Y+3911600D01*
X+6146561Y+3708400D02*
X+6147039Y+3708400D01*
X+6146561Y+3911600D02*
X+6147039Y+3911600D01*
X+6146560Y+3708400D02*
X+6147040Y+3708400D01*
X+6146560Y+3911600D02*
X+6147040Y+3911600D01*
X+6146559Y+3708400D02*
X+6147041Y+3708400D01*
X+6146559Y+3911600D02*
X+6147041Y+3911600D01*
X+6146558Y+3708400D02*
X+6147042Y+3708400D01*
X+6146558Y+3911600D02*
X+6147042Y+3911600D01*
X+6146557Y+3708400D02*
X+6147043Y+3708400D01*
X+6146557Y+3911600D02*
X+6147043Y+3911600D01*
X+6146556Y+3708400D02*
X+6147044Y+3708400D01*
X+6146556Y+3911600D02*
X+6147044Y+3911600D01*
X+6146555Y+3708400D02*
X+6147045Y+3708400D01*
X+6146555Y+3911600D02*
X+6147045Y+3911600D01*
X+6146554Y+3708400D02*
X+6147046Y+3708400D01*
X+6146554Y+3911600D02*
X+6147046Y+3911600D01*
X+6146553Y+3708400D02*
X+6147047Y+3708400D01*
X+6146553Y+3911600D02*
X+6147047Y+3911600D01*
X+6146552Y+3708400D02*
X+6147048Y+3708400D01*
X+6146552Y+3911600D02*
X+6147048Y+3911600D01*
X+6146551Y+3708400D02*
X+6147049Y+3708400D01*
X+6146551Y+3911600D02*
X+6147049Y+3911600D01*
X+6146550Y+3708400D02*
X+6147050Y+3708400D01*
X+6146550Y+3911600D02*
X+6147050Y+3911600D01*
X+6146549Y+3708400D02*
X+6147051Y+3708400D01*
X+6146549Y+3911600D02*
X+6147051Y+3911600D01*
X+6146548Y+3708400D02*
X+6147052Y+3708400D01*
X+6146548Y+3911600D02*
X+6147052Y+3911600D01*
X+6146547Y+3708400D02*
X+6147053Y+3708400D01*
X+6146547Y+3911600D02*
X+6147053Y+3911600D01*
X+6146546Y+3708400D02*
X+6147054Y+3708400D01*
X+6146546Y+3911600D02*
X+6147054Y+3911600D01*
X+6146545Y+3708400D02*
X+6147055Y+3708400D01*
X+6146545Y+3911600D02*
X+6147055Y+3911600D01*
X+6146544Y+3708400D02*
X+6147056Y+3708400D01*
X+6146544Y+3911600D02*
X+6147056Y+3911600D01*
X+6146543Y+3708400D02*
X+6147057Y+3708400D01*
X+6146543Y+3911600D02*
X+6147057Y+3911600D01*
X+6146542Y+3708400D02*
X+6147058Y+3708400D01*
X+6146542Y+3911600D02*
X+6147058Y+3911600D01*
X+6146541Y+3708400D02*
X+6147059Y+3708400D01*
X+6146541Y+3911600D02*
X+6147059Y+3911600D01*
X+6146540Y+3708400D02*
X+6147060Y+3708400D01*
X+6146540Y+3911600D02*
X+6147060Y+3911600D01*
X+6146539Y+3708400D02*
X+6147061Y+3708400D01*
X+6146539Y+3911600D02*
X+6147061Y+3911600D01*
X+6146538Y+3708400D02*
X+6147062Y+3708400D01*
X+6146538Y+3911600D02*
X+6147062Y+3911600D01*
X+6146537Y+3708400D02*
X+6147063Y+3708400D01*
X+6146537Y+3911600D02*
X+6147063Y+3911600D01*
X+6146536Y+3708400D02*
X+6147064Y+3708400D01*
X+6146536Y+3911600D02*
X+6147064Y+3911600D01*
X+6146535Y+3708400D02*
X+6147065Y+3708400D01*
X+6146535Y+3911600D02*
X+6147065Y+3911600D01*
X+6146534Y+3708400D02*
X+6147066Y+3708400D01*
X+6146534Y+3911600D02*
X+6147066Y+3911600D01*
X+6146533Y+3708400D02*
X+6147067Y+3708400D01*
X+6146533Y+3911600D02*
X+6147067Y+3911600D01*
X+6146532Y+3708400D02*
X+6147068Y+3708400D01*
X+6146532Y+3911600D02*
X+6147068Y+3911600D01*
X+6146531Y+3708400D02*
X+6147069Y+3708400D01*
X+6146531Y+3911600D02*
X+6147069Y+3911600D01*
X+6146530Y+3708400D02*
X+6147070Y+3708400D01*
X+6146530Y+3911600D02*
X+6147070Y+3911600D01*
X+6146529Y+3708400D02*
X+6147071Y+3708400D01*
X+6146529Y+3911600D02*
X+6147071Y+3911600D01*
X+6146528Y+3708400D02*
X+6147072Y+3708400D01*
X+6146528Y+3911600D02*
X+6147072Y+3911600D01*
X+6146527Y+3708400D02*
X+6147073Y+3708400D01*
X+6146527Y+3911600D02*
X+6147073Y+3911600D01*
X+6146526Y+3708400D02*
X+6147074Y+3708400D01*
X+6146526Y+3911600D02*
X+6147074Y+3911600D01*
X+6146525Y+3708400D02*
X+6147075Y+3708400D01*
X+6146525Y+3911600D02*
X+6147075Y+3911600D01*
X+6146524Y+3708400D02*
X+6147076Y+3708400D01*
X+6146524Y+3911600D02*
X+6147076Y+3911600D01*
X+6146523Y+3708400D02*
X+6147077Y+3708400D01*
X+6146523Y+3911600D02*
X+6147077Y+3911600D01*
X+6146522Y+3708400D02*
X+6147078Y+3708400D01*
X+6146522Y+3911600D02*
X+6147078Y+3911600D01*
X+6146521Y+3708400D02*
X+6147079Y+3708400D01*
X+6146521Y+3911600D02*
X+6147079Y+3911600D01*
X+6146520Y+3708400D02*
X+6147080Y+3708400D01*
X+6146520Y+3911600D02*
X+6147080Y+3911600D01*
X+6146519Y+3708400D02*
X+6147081Y+3708400D01*
X+6146519Y+3911600D02*
X+6147081Y+3911600D01*
X+6146518Y+3708400D02*
X+6147082Y+3708400D01*
X+6146518Y+3911600D02*
X+6147082Y+3911600D01*
X+6146517Y+3708400D02*
X+6147083Y+3708400D01*
X+6146517Y+3911600D02*
X+6147083Y+3911600D01*
X+6146516Y+3708400D02*
X+6147084Y+3708400D01*
X+6146516Y+3911600D02*
X+6147084Y+3911600D01*
X+6146515Y+3708400D02*
X+6147085Y+3708400D01*
X+6146515Y+3911600D02*
X+6147085Y+3911600D01*
X+6146514Y+3708400D02*
X+6147086Y+3708400D01*
X+6146514Y+3911600D02*
X+6147086Y+3911600D01*
X+6146513Y+3708400D02*
X+6147087Y+3708400D01*
X+6146513Y+3911600D02*
X+6147087Y+3911600D01*
X+6146512Y+3708400D02*
X+6147088Y+3708400D01*
X+6146512Y+3911600D02*
X+6147088Y+3911600D01*
X+6146511Y+3708400D02*
X+6147089Y+3708400D01*
X+6146511Y+3911600D02*
X+6147089Y+3911600D01*
X+6146510Y+3708400D02*
X+6147090Y+3708400D01*
X+6146510Y+3911600D02*
X+6147090Y+3911600D01*
X+6146509Y+3708400D02*
X+6147091Y+3708400D01*
X+6146509Y+3911600D02*
X+6147091Y+3911600D01*
X+6146508Y+3708400D02*
X+6147092Y+3708400D01*
X+6146508Y+3911600D02*
X+6147092Y+3911600D01*
X+6146507Y+3708400D02*
X+6147093Y+3708400D01*
X+6146507Y+3911600D02*
X+6147093Y+3911600D01*
X+6146506Y+3708400D02*
X+6147094Y+3708400D01*
X+6146506Y+3911600D02*
X+6147094Y+3911600D01*
X+6146505Y+3708400D02*
X+6147095Y+3708400D01*
X+6146505Y+3911600D02*
X+6147095Y+3911600D01*
X+6146504Y+3708400D02*
X+6147096Y+3708400D01*
X+6146504Y+3911600D02*
X+6147096Y+3911600D01*
X+6146503Y+3708400D02*
X+6147097Y+3708400D01*
X+6146503Y+3911600D02*
X+6147097Y+3911600D01*
X+6146502Y+3708400D02*
X+6147098Y+3708400D01*
X+6146502Y+3911600D02*
X+6147098Y+3911600D01*
X+6146501Y+3708400D02*
X+6147099Y+3708400D01*
X+6146501Y+3911600D02*
X+6147099Y+3911600D01*
X+6146500Y+3708400D02*
X+6147100Y+3708400D01*
X+6146500Y+3911600D02*
X+6147100Y+3911600D01*
X+6146499Y+3708400D02*
X+6147101Y+3708400D01*
X+6146499Y+3911600D02*
X+6147101Y+3911600D01*
X+6146498Y+3708400D02*
X+6147102Y+3708400D01*
X+6146498Y+3911600D02*
X+6147102Y+3911600D01*
X+6146497Y+3708400D02*
X+6147103Y+3708400D01*
X+6146497Y+3911600D02*
X+6147103Y+3911600D01*
X+6146496Y+3708400D02*
X+6147104Y+3708400D01*
X+6146496Y+3911600D02*
X+6147104Y+3911600D01*
X+6146495Y+3708400D02*
X+6147105Y+3708400D01*
X+6146495Y+3911600D02*
X+6147105Y+3911600D01*
X+6146494Y+3708400D02*
X+6147106Y+3708400D01*
X+6146494Y+3911600D02*
X+6147106Y+3911600D01*
X+6146493Y+3708400D02*
X+6147107Y+3708400D01*
X+6146493Y+3911600D02*
X+6147107Y+3911600D01*
X+6146492Y+3708400D02*
X+6147108Y+3708400D01*
X+6146492Y+3911600D02*
X+6147108Y+3911600D01*
X+6146491Y+3708400D02*
X+6147109Y+3708400D01*
X+6146491Y+3911600D02*
X+6147109Y+3911600D01*
X+6146490Y+3708400D02*
X+6147110Y+3708400D01*
X+6146490Y+3911600D02*
X+6147110Y+3911600D01*
X+6146489Y+3708400D02*
X+6147111Y+3708400D01*
X+6146489Y+3911600D02*
X+6147111Y+3911600D01*
X+6146488Y+3708400D02*
X+6147112Y+3708400D01*
X+6146488Y+3911600D02*
X+6147112Y+3911600D01*
X+6146487Y+3708400D02*
X+6147113Y+3708400D01*
X+6146487Y+3911600D02*
X+6147113Y+3911600D01*
X+6146486Y+3708400D02*
X+6147114Y+3708400D01*
X+6146486Y+3911600D02*
X+6147114Y+3911600D01*
X+6146485Y+3708400D02*
X+6147115Y+3708400D01*
X+6146485Y+3911600D02*
X+6147115Y+3911600D01*
X+6146484Y+3708400D02*
X+6147116Y+3708400D01*
X+6146484Y+3911600D02*
X+6147116Y+3911600D01*
X+6146483Y+3708400D02*
X+6147117Y+3708400D01*
X+6146483Y+3911600D02*
X+6147117Y+3911600D01*
X+6146482Y+3708400D02*
X+6147118Y+3708400D01*
X+6146482Y+3911600D02*
X+6147118Y+3911600D01*
X+6143942Y+3708440D02*
X+6149658Y+3708440D01*
X+6143942Y+3911560D02*
X+6149658Y+3911560D01*
X+6141402Y+3708543D02*
X+6152198Y+3708543D01*
X+6141402Y+3911457D02*
X+6152198Y+3911457D01*
X+6138862Y+3708711D02*
X+6154738Y+3708711D01*
X+6138862Y+3911289D02*
X+6154738Y+3911289D01*
X+6136322Y+3708942D02*
X+6157278Y+3708942D01*
X+6136322Y+3911058D02*
X+6157278Y+3911058D01*
X+6133782Y+3709237D02*
X+6159818Y+3709237D01*
X+6133782Y+3910763D02*
X+6159818Y+3910763D01*
X+6131242Y+3709598D02*
X+6162358Y+3709598D01*
X+6131242Y+3910402D02*
X+6162358Y+3910402D01*
X+6128702Y+3710025D02*
X+6164898Y+3710025D01*
X+6128702Y+3909975D02*
X+6164898Y+3909975D01*
X+6126162Y+3710518D02*
X+6167438Y+3710518D01*
X+6126162Y+3909482D02*
X+6167438Y+3909482D01*
X+6123622Y+3711079D02*
X+6169978Y+3711079D01*
X+6123622Y+3908921D02*
X+6169978Y+3908921D01*
X+6121082Y+3711709D02*
X+6172518Y+3711709D01*
X+6121082Y+3908291D02*
X+6172518Y+3908291D01*
X+6118542Y+3712409D02*
X+6175058Y+3712409D01*
X+6118542Y+3907591D02*
X+6175058Y+3907591D01*
X+6116002Y+3713180D02*
X+6177598Y+3713180D01*
X+6116002Y+3906820D02*
X+6177598Y+3906820D01*
X+6113462Y+3714025D02*
X+6180138Y+3714025D01*
X+6113462Y+3905975D02*
X+6180138Y+3905975D01*
X+6110922Y+3714946D02*
X+6182678Y+3714946D01*
X+6110922Y+3905054D02*
X+6182678Y+3905054D01*
X+6108382Y+3715944D02*
X+6185218Y+3715944D01*
X+6108382Y+3904056D02*
X+6185218Y+3904056D01*
X+6105842Y+3717021D02*
X+6187758Y+3717021D01*
X+6105842Y+3902979D02*
X+6187758Y+3902979D01*
X+6103302Y+3718182D02*
X+6190298Y+3718182D01*
X+6103302Y+3901818D02*
X+6190298Y+3901818D01*
X+6100762Y+3719429D02*
X+6192838Y+3719429D01*
X+6100762Y+3900571D02*
X+6192838Y+3900571D01*
X+6098222Y+3720766D02*
X+6195378Y+3720766D01*
X+6098222Y+3899234D02*
X+6195378Y+3899234D01*
X+6095682Y+3722196D02*
X+6197918Y+3722196D01*
X+6095682Y+3897804D02*
X+6197918Y+3897804D01*
X+6093142Y+3723725D02*
X+6200458Y+3723725D01*
X+6093142Y+3896275D02*
X+6200458Y+3896275D01*
X+6090602Y+3725358D02*
X+6202998Y+3725358D01*
X+6090602Y+3894642D02*
X+6202998Y+3894642D01*
X+6088062Y+3727100D02*
X+6205538Y+3727100D01*
X+6088062Y+3892900D02*
X+6205538Y+3892900D01*
X+6085522Y+3728959D02*
X+6208078Y+3728959D01*
X+6085522Y+3891041D02*
X+6208078Y+3891041D01*
X+6082982Y+3730944D02*
X+6210618Y+3730944D01*
X+6082982Y+3889056D02*
X+6210618Y+3889056D01*
X+6080442Y+3733064D02*
X+6213158Y+3733064D01*
X+6080442Y+3886936D02*
X+6213158Y+3886936D01*
X+6077902Y+3735330D02*
X+6215698Y+3735330D01*
X+6077902Y+3884670D02*
X+6215698Y+3884670D01*
X+6075362Y+3737756D02*
X+6218238Y+3737756D01*
X+6075362Y+3882244D02*
X+6218238Y+3882244D01*
X+6072884Y+3740294D02*
X+6220716Y+3740294D01*
X+6072884Y+3879706D02*
X+6220716Y+3879706D01*
X+6070568Y+3742834D02*
X+6223032Y+3742834D01*
X+6070568Y+3877166D02*
X+6223032Y+3877166D01*
X+6068403Y+3745374D02*
X+6225197Y+3745374D01*
X+6068403Y+3874626D02*
X+6225197Y+3874626D01*
X+6066377Y+3747914D02*
X+6227223Y+3747914D01*
X+6066377Y+3872086D02*
X+6227223Y+3872086D01*
X+6064478Y+3750454D02*
X+6229122Y+3750454D01*
X+6064478Y+3869546D02*
X+6229122Y+3869546D01*
X+6062700Y+3752994D02*
X+6230900Y+3752994D01*
X+6062700Y+3867006D02*
X+6230900Y+3867006D01*
X+6061033Y+3755534D02*
X+6232567Y+3755534D01*
X+6061033Y+3864466D02*
X+6232567Y+3864466D01*
X+6059472Y+3758074D02*
X+6234128Y+3758074D01*
X+6059472Y+3861926D02*
X+6234128Y+3861926D01*
X+6058010Y+3760614D02*
X+6235590Y+3760614D01*
X+6058010Y+3859386D02*
X+6235590Y+3859386D01*
X+6056645Y+3763154D02*
X+6236955Y+3763154D01*
X+6056645Y+3856846D02*
X+6236955Y+3856846D01*
X+6055369Y+3765694D02*
X+6238231Y+3765694D01*
X+6055369Y+3854306D02*
X+6238231Y+3854306D01*
X+6054182Y+3768234D02*
X+6239418Y+3768234D01*
X+6054182Y+3851766D02*
X+6239418Y+3851766D01*
X+6053078Y+3770774D02*
X+6240522Y+3770774D01*
X+6053078Y+3849226D02*
X+6240522Y+3849226D01*
X+6052055Y+3773314D02*
X+6241545Y+3773314D01*
X+6052055Y+3846686D02*
X+6241545Y+3846686D01*
X+6051110Y+3775854D02*
X+6242490Y+3775854D01*
X+6051110Y+3844146D02*
X+6242490Y+3844146D01*
X+6050241Y+3778394D02*
X+6243359Y+3778394D01*
X+6050241Y+3841606D02*
X+6243359Y+3841606D01*
X+6049446Y+3780934D02*
X+6244154Y+3780934D01*
X+6049446Y+3839066D02*
X+6244154Y+3839066D01*
X+6048724Y+3783474D02*
X+6244876Y+3783474D01*
X+6048724Y+3836526D02*
X+6244876Y+3836526D01*
X+6048072Y+3786014D02*
X+6245528Y+3786014D01*
X+6048072Y+3833986D02*
X+6245528Y+3833986D01*
X+6047489Y+3788554D02*
X+6246111Y+3788554D01*
X+6047489Y+3831446D02*
X+6246111Y+3831446D01*
X+6046975Y+3791094D02*
X+6246625Y+3791094D01*
X+6046975Y+3828906D02*
X+6246625Y+3828906D01*
X+6046527Y+3793634D02*
X+6247073Y+3793634D01*
X+6046527Y+3826366D02*
X+6247073Y+3826366D01*
X+6046145Y+3796174D02*
X+6247455Y+3796174D01*
X+6046145Y+3823826D02*
X+6247455Y+3823826D01*
X+6045829Y+3798714D02*
X+6247771Y+3798714D01*
X+6045829Y+3821286D02*
X+6247771Y+3821286D01*
X+6045577Y+3801254D02*
X+6248023Y+3801254D01*
X+6045577Y+3818746D02*
X+6248023Y+3818746D01*
X+6045390Y+3803794D02*
X+6248210Y+3803794D01*
X+6045390Y+3816206D02*
X+6248210Y+3816206D01*
X+6045266Y+3806334D02*
X+6248334Y+3806334D01*
X+6045266Y+3813666D02*
X+6248334Y+3813666D01*
X+6045206Y+3808874D02*
X+6248394Y+3808874D01*
X+6045206Y+3811126D02*
X+6248394Y+3811126D01*
X+6045200Y+3810000D02*
X+6248400Y+3810000D01*
X+6045200Y+3810000D02*
X+6248400Y+3810000D01*
D54*
X+6248056Y+3818354D01*
X+6245260Y+3835064D01*
X+6239415Y+3851774D01*
X+6229879Y+3868484D01*
X+6215290Y+3885045D01*
X+6198580Y+3897415D01*
X+6181870Y+3905355D01*
X+6165160Y+3909927D01*
X+6148450Y+3911587D01*
X+6146800Y+3911600D01*
X+6045200Y+3810000D02*
X+6045544Y+3818354D01*
X+6048340Y+3835064D01*
X+6054185Y+3851774D01*
X+6063721Y+3868484D01*
X+6078310Y+3885045D01*
X+6095020Y+3897415D01*
X+6111730Y+3905355D01*
X+6128440Y+3909927D01*
X+6145150Y+3911587D01*
X+6146800Y+3911600D01*
X+6045200Y+3810000D02*
X+6045544Y+3801646D01*
X+6048340Y+3784936D01*
X+6054185Y+3768226D01*
X+6063721Y+3751516D01*
X+6078310Y+3734955D01*
X+6095020Y+3722585D01*
X+6111730Y+3714645D01*
X+6128440Y+3710073D01*
X+6145150Y+3708413D01*
X+6146800Y+3708400D01*
X+6248400Y+3810000D02*
X+6248056Y+3801646D01*
X+6245260Y+3784936D01*
X+6239415Y+3768226D01*
X+6229879Y+3751516D01*
X+6215290Y+3734955D01*
X+6198580Y+3722585D01*
X+6181870Y+3714645D01*
X+6165160Y+3710073D01*
X+6148450Y+3708413D01*
X+6146800Y+3708400D01*
X+6489700Y+2489200D02*
X+6469707Y+2493119D01*
X+6453584Y+2503884D01*
X+6442819Y+2520007D01*
X+6438900Y+2540000D01*
X+6737350Y+2489200D02*
X+6757343Y+2485281D01*
X+6773466Y+2474516D01*
X+6784231Y+2458393D01*
X+6788150Y+2438400D01*
X+6784231Y+2418407D01*
X+6773466Y+2402284D01*
X+6757343Y+2391519D01*
X+6737350Y+2387600D01*
X+6489700Y+2489200D02*
X+6737350Y+2489200D01*
X+6489700Y+2387600D02*
X+6737350Y+2387600D01*
X+6438900Y+2540000D02*
X+6438900Y+2743200D01*
X+6388100Y+2794000D02*
X+6408093Y+2790081D01*
X+6424216Y+2779316D01*
X+6434981Y+2763193D01*
X+6438900Y+2743200D01*
X+6337300Y+2743200D02*
X+6341219Y+2763193D01*
X+6351984Y+2779316D01*
X+6368107Y+2790081D01*
X+6388100Y+2794000D01*
X+6337300Y+2540000D02*
X+6337300Y+2743200D01*
X+6337300Y+2540000D02*
X+6340332Y+2508839D01*
X+6349057Y+2480022D01*
X+6362917Y+2454108D01*
X+6381353Y+2431653D01*
X+6403807Y+2413217D01*
X+6429722Y+2399357D01*
X+6458539Y+2390632D01*
X+6489700Y+2387600D01*
X+6489700Y+3206750D02*
X+6469707Y+3202831D01*
X+6453584Y+3192066D01*
X+6442819Y+3175943D01*
X+6438900Y+3155950D01*
X+6737350Y+3206750D02*
X+6757343Y+3210669D01*
X+6773466Y+3221434D01*
X+6784231Y+3237557D01*
X+6788150Y+3257550D01*
X+6784231Y+3277543D01*
X+6773466Y+3293666D01*
X+6757343Y+3304431D01*
X+6737350Y+3308350D01*
X+6489700Y+3206750D02*
X+6737350Y+3206750D01*
X+6489700Y+3308350D02*
X+6737350Y+3308350D01*
X+6438900Y+3155950D02*
X+6438900Y+2952750D01*
X+6388100Y+2901950D02*
X+6408093Y+2905869D01*
X+6424216Y+2916634D01*
X+6434981Y+2932757D01*
X+6438900Y+2952750D01*
X+6337300Y+2952750D02*
X+6341219Y+2932757D01*
X+6351984Y+2916634D01*
X+6368107Y+2905869D01*
X+6388100Y+2901950D01*
X+6337300Y+3155950D02*
X+6337300Y+2952750D01*
X+6337300Y+3155950D02*
X+6340332Y+3187111D01*
X+6349057Y+3215928D01*
X+6362917Y+3241842D01*
X+6381353Y+3264297D01*
X+6403807Y+3282733D01*
X+6429722Y+3296593D01*
X+6458539Y+3305318D01*
X+6489700Y+3308350D01*
M02*
