M48
METRIC,TZ
T01C0.3050
T02C0.6000
T03C0.9500
%
T01
X+9080Y+40120
X+15648Y+32504
X+51536Y+16188
X+44129Y+25070
X+44129Y+23825
X+16205Y+8954
X+48216Y+34910
X+49016Y+33830
X+50180Y+40259
X+13780Y+47054
X+9080Y+48184
X+15412Y+20356
X+15412Y+24972
X+17171Y+29577
X+15520Y+31177
X+16461Y+12369
X+50180Y+38989
X+14605Y+8954
X+52019Y+36449
X+53619Y+36449
X+48260Y+36957
X+2413Y+51308
X+2413Y+46708
X+2413Y+43244
X+2413Y+38644
X+3556Y+34671
X+2400Y+15100
X+2402Y+2022
X+14859Y+35560
X+17399Y+33020
X+11049Y+39370
X+11310Y+32619
X+11310Y+35159
X+6230Y+40239
X+6230Y+45319
X+6230Y+50399
X+7493Y+52578
X+68136Y+37338
X+51536Y+13648
X+51536Y+8568
X+56621Y+33528
X+54081Y+43688
X+49001Y+43688
X+46461Y+46228
X+2402Y+9832
X+41772Y+10932
X+44312Y+8392
X+8770Y+32619
X+6230Y+37699
X+27051Y+7620
X+29591Y+7620
X+37211Y+7620
X+42291Y+7620
X+8954Y+5257
X+12570Y+8726
X+11582Y+5691
X+11582Y+7469
X+6792Y+10415
X+6782Y+12866
X+8623Y+6580
X+2400Y+6580
X+46370Y+38113
X+17939Y+37085
X+9208Y+46164
X+15653Y+42456
X+10922Y+44196
X+46461Y+41148
X+41381Y+41148
X+43921Y+43688
X+38841Y+46228
X+25309Y+46221
X+11843Y+42442
X+10937Y+46164
X+11712Y+51308
X+15572Y+12369
X+46852Y+10932
X+39626Y+16570
X+36994Y+16188
X+48260Y+17780
X+46038Y+17780
X+43980Y+16188
X+42228Y+14300
X+28638Y+17776
X+24765Y+11557
X+26924Y+17780
X+15572Y+13258
X+21541Y+12369
X+20652Y+12369
X+21541Y+13258
X+26924Y+11557
X+32131Y+7620
X+34671Y+7620
X+21971Y+7620
X+31612Y+10932
X+11494Y+22042
X+9894Y+22042
X+11494Y+23718
X+9894Y+26868
X+11494Y+28519
X+14758Y+21562
X+14186Y+20990
X+14186Y+19974
X+11798Y+30488
X+11980Y+31695
X+11091Y+31695
X+12751Y+16968
X+7544Y+15888
X+6782Y+15000
X+6397Y+15881
X+15412Y+18756
X+28638Y+12700
X+36692Y+10932
X+19394Y+24972
X+67797Y+28461
X+66781Y+31242
X+66781Y+25717
X+68242Y+25717
X+68242Y+31242
X+18136Y+22134
X+18136Y+19888
X+61886Y+19388
X+63802Y+17788
X+62786Y+17788
X+59148Y+24270
X+58514Y+25070
X+62400Y+28016
X+47368Y+22670
X+17145Y+43948
X+48006Y+25870
X+47368Y+23724
X+39802Y+32576
X+41402Y+30924
X+41402Y+32576
X+41402Y+24320
X+41896Y+22542
X+25324Y+17780
X+41402Y+29274
X+39802Y+29274
X+39802Y+24320
X+39802Y+25146
X+39802Y+27622
X+37389Y+27622
X+38036Y+28258
X+16461Y+13258
X+20652Y+13258
X+60744Y+19388
X+40626Y+22542
X+41402Y+36640
X+42926Y+23163
X+43688Y+22401
X+43688Y+20179
X+44958Y+20179
X+51308Y+19798
X+51308Y+18909
X+13640Y+16968
X+13640Y+17857
X+12751Y+17857
X+18621Y+27699
X+26924Y+10668
X+40640Y+14034
X+38672Y+14034
X+10592Y+15000
X+10757Y+6580
X+10602Y+8260
X+14777Y+25608
X+16047Y+25608
X+16047Y+24338
X+14777Y+24338
X+56616Y+11108
X+61696Y+11108
X+66776Y+11108
X+59156Y+8568
X+59156Y+13648
X+56616Y+16188
X+64236Y+8568
X+64236Y+13648
X+61696Y+16188
X+66942Y+17393
X+68212Y+17393
X+66942Y+22993
X+68212Y+22993
X+67577Y+20193
X+59156Y+18728
X+59156Y+22728
X+54076Y+23808
X+54076Y+27110
X+50202Y+27110
X+50202Y+23808
X+49186Y+22284
X+48552Y+19236
X+61696Y+25268
X+59860Y+28016
X+62400Y+30556
X+59860Y+33096
X+62400Y+35636
X+59860Y+38176
X+62400Y+40716
X+64940Y+38176
X+59860Y+43256
X+62400Y+45796
X+64940Y+43256
X+65532Y+49530
X+62611Y+52642
X+57531Y+52642
X+52451Y+52642
X+47371Y+52642
X+43307Y+52642
X+38227Y+52642
X+33147Y+52642
X+28067Y+52642
X+22987Y+52642
X+17907Y+52642
X+12346Y+51943
X+12346Y+50673
X+11076Y+50673
X+11076Y+51943
X+68326Y+6032
X+66104Y+3810
X+62611Y+698
X+57531Y+698
X+52451Y+698
X+47371Y+698
X+42291Y+698
X+37211Y+698
X+32131Y+698
X+27051Y+698
X+21971Y+698
X+16891Y+698
X+19431Y+5080
X+13749Y+762
X+19558Y+11060
X+22874Y+11060
X+22784Y+15240
X+22784Y+20320
X+27864Y+20320
X+32944Y+21400
X+37834Y+21400
X+20498Y+17780
X+44907Y+35179
X+43942Y+32576
X+20244Y+30480
X+22784Y+27940
X+25324Y+30480
X+27864Y+27940
X+30404Y+30480
X+32944Y+27940
X+35484Y+30480
X+37897Y+34639
X+32817Y+34639
X+27737Y+34639
X+22657Y+34639
X+35357Y+37179
X+30277Y+37179
X+25197Y+37179
X+20117Y+37179
X+17577Y+39719
X+22657Y+39719
X+27737Y+39719
X+32817Y+39719
X+36627Y+39719
X+40437Y+38640
X+37897Y+42259
X+35357Y+44799
X+30277Y+42259
X+25197Y+42259
X+20117Y+42259
X+22657Y+44799
X+35357Y+42259
X+32817Y+44799
X+30389Y+46221
X+56621Y+38608
X+50202Y+29650
X+55282Y+29650
T02
X+11494Y+2082
X+11494Y+3352
X+10224Y+2082
X+10224Y+3352
X+8954Y+2082
X+8954Y+3352
X+7684Y+2082
X+7684Y+3352
T03
X+48641Y+2540
X+51181Y+2540
X+53721Y+2540
X+56261Y+2540
X+58801Y+2540
X+61341Y+2540
X+63881Y+2540
X+23241Y+2540
X+25781Y+2540
X+28321Y+2540
X+30861Y+2540
X+33401Y+2540
X+35941Y+2540
X+38481Y+2540
X+41021Y+2540
X+43561Y+2540
X+46101Y+2540
X+19177Y+50800
X+21717Y+50800
X+24257Y+50800
X+26797Y+50800
X+29337Y+50800
X+31877Y+50800
X+34417Y+50800
X+36957Y+50800
X+39497Y+50800
X+42037Y+50800
X+46101Y+50800
X+48641Y+50800
X+51181Y+50800
X+53721Y+50800
X+56261Y+50800
X+58801Y+50800
X+61341Y+50800
X+63881Y+50800
X+23241Y+5080
X+25781Y+5080
X+28321Y+5080
X+30861Y+5080
X+33401Y+5080
X+35941Y+5080
X+38481Y+5080
X+41021Y+5080
X+43561Y+5080
X+46101Y+5080
X+48641Y+5080
X+51181Y+5080
X+53721Y+5080
X+56261Y+5080
X+58801Y+5080
X+61341Y+5080
X+63881Y+5080
X+46101Y+48260
X+48641Y+48260
X+51181Y+48260
X+53721Y+48260
X+56261Y+48260
X+58801Y+48260
X+61341Y+48260
X+63881Y+48260
X+19177Y+48260
X+21717Y+48260
X+24257Y+48260
X+26797Y+48260
X+29337Y+48260
X+31877Y+48260
X+34417Y+48260
X+36957Y+48260
X+39497Y+48260
X+42037Y+48260
M30
