G04 PROTEUS RS274X GERBER FILE*
%FSLAX45Y45*%
%MOMM*%
G01*
%ADD42C,0.127000*%
%ADD15C,0.300000*%
%ADD54C,0.025400*%
D42*
X+1606550Y+3800600D02*
X+1606550Y+3775200D01*
X+1517650Y+3775200D01*
X+1517650Y+3800600D01*
X+1606550Y+3800600D01*
X+1606550Y+4800600D02*
X+1606550Y+4775200D01*
X+1517650Y+4775200D01*
X+1517650Y+4800600D01*
X+1606550Y+4800600D01*
D15*
X+622100Y+2249600D02*
X+622100Y+2219600D01*
X+482100Y+2219600D01*
X+482100Y+2249600D01*
X+622100Y+2249600D01*
X+622100Y+3113600D02*
X+622100Y+3083600D01*
X+482100Y+3083600D01*
X+482100Y+3113600D01*
X+622100Y+3113600D01*
X+189100Y+2249600D02*
X+189100Y+2219600D01*
X+79100Y+2219600D01*
X+79100Y+2249600D01*
X+189100Y+2249600D01*
X+189100Y+3113600D02*
X+189100Y+3083600D01*
X+79100Y+3083600D01*
X+79100Y+3113600D01*
X+189100Y+3113600D01*
D54*
X+6800850Y+762000D02*
X+6800320Y+774958D01*
X+6796016Y+800876D01*
X+6787025Y+826794D01*
X+6772380Y+852712D01*
X+6749976Y+878466D01*
X+6724058Y+897958D01*
X+6698140Y+910530D01*
X+6672222Y+917866D01*
X+6646304Y+920694D01*
X+6642100Y+920750D01*
X+6483350Y+762000D02*
X+6483880Y+774958D01*
X+6488184Y+800876D01*
X+6497175Y+826794D01*
X+6511820Y+852712D01*
X+6534224Y+878466D01*
X+6560142Y+897958D01*
X+6586060Y+910530D01*
X+6611978Y+917866D01*
X+6637896Y+920694D01*
X+6642100Y+920750D01*
X+6483350Y+762000D02*
X+6483880Y+749042D01*
X+6488184Y+723124D01*
X+6497175Y+697206D01*
X+6511820Y+671288D01*
X+6534224Y+645534D01*
X+6560142Y+626042D01*
X+6586060Y+613470D01*
X+6611978Y+606134D01*
X+6637896Y+603306D01*
X+6642100Y+603250D01*
X+6800850Y+762000D02*
X+6800320Y+749042D01*
X+6796016Y+723124D01*
X+6787025Y+697206D01*
X+6772380Y+671288D01*
X+6749976Y+645534D01*
X+6724058Y+626042D01*
X+6698140Y+613470D01*
X+6672222Y+606134D01*
X+6646304Y+603306D01*
X+6642100Y+603250D01*
X+6800850Y+3556000D02*
X+6800320Y+3568958D01*
X+6796016Y+3594876D01*
X+6787025Y+3620794D01*
X+6772380Y+3646712D01*
X+6749976Y+3672466D01*
X+6724058Y+3691958D01*
X+6698140Y+3704530D01*
X+6672222Y+3711866D01*
X+6646304Y+3714694D01*
X+6642100Y+3714750D01*
X+6483350Y+3556000D02*
X+6483880Y+3568958D01*
X+6488184Y+3594876D01*
X+6497175Y+3620794D01*
X+6511820Y+3646712D01*
X+6534224Y+3672466D01*
X+6560142Y+3691958D01*
X+6586060Y+3704530D01*
X+6611978Y+3711866D01*
X+6637896Y+3714694D01*
X+6642100Y+3714750D01*
X+6483350Y+3556000D02*
X+6483880Y+3543042D01*
X+6488184Y+3517124D01*
X+6497175Y+3491206D01*
X+6511820Y+3465288D01*
X+6534224Y+3439534D01*
X+6560142Y+3420042D01*
X+6586060Y+3407470D01*
X+6611978Y+3400134D01*
X+6637896Y+3397306D01*
X+6642100Y+3397250D01*
X+6800850Y+3556000D02*
X+6800320Y+3543042D01*
X+6796016Y+3517124D01*
X+6787025Y+3491206D01*
X+6772380Y+3465288D01*
X+6749976Y+3439534D01*
X+6724058Y+3420042D01*
X+6698140Y+3407470D01*
X+6672222Y+3400134D01*
X+6646304Y+3397306D01*
X+6642100Y+3397250D01*
X+1720850Y+5080000D02*
X+1720320Y+5092958D01*
X+1716016Y+5118876D01*
X+1707025Y+5144794D01*
X+1692380Y+5170712D01*
X+1669976Y+5196466D01*
X+1644058Y+5215958D01*
X+1618140Y+5228530D01*
X+1592222Y+5235866D01*
X+1566304Y+5238694D01*
X+1562100Y+5238750D01*
X+1403350Y+5080000D02*
X+1403880Y+5092958D01*
X+1408184Y+5118876D01*
X+1417175Y+5144794D01*
X+1431820Y+5170712D01*
X+1454224Y+5196466D01*
X+1480142Y+5215958D01*
X+1506060Y+5228530D01*
X+1531978Y+5235866D01*
X+1557896Y+5238694D01*
X+1562100Y+5238750D01*
X+1403350Y+5080000D02*
X+1403880Y+5067042D01*
X+1408184Y+5041124D01*
X+1417175Y+5015206D01*
X+1431820Y+4989288D01*
X+1454224Y+4963534D01*
X+1480142Y+4944042D01*
X+1506060Y+4931470D01*
X+1531978Y+4924134D01*
X+1557896Y+4921306D01*
X+1562100Y+4921250D01*
X+1720850Y+5080000D02*
X+1720320Y+5067042D01*
X+1716016Y+5041124D01*
X+1707025Y+5015206D01*
X+1692380Y+4989288D01*
X+1669976Y+4963534D01*
X+1644058Y+4944042D01*
X+1618140Y+4931470D01*
X+1592222Y+4924134D01*
X+1566304Y+4921306D01*
X+1562100Y+4921250D01*
X+1720850Y+254000D02*
X+1720320Y+266958D01*
X+1716016Y+292876D01*
X+1707025Y+318794D01*
X+1692380Y+344712D01*
X+1669976Y+370466D01*
X+1644058Y+389958D01*
X+1618140Y+402530D01*
X+1592222Y+409866D01*
X+1566304Y+412694D01*
X+1562100Y+412750D01*
X+1403350Y+254000D02*
X+1403880Y+266958D01*
X+1408184Y+292876D01*
X+1417175Y+318794D01*
X+1431820Y+344712D01*
X+1454224Y+370466D01*
X+1480142Y+389958D01*
X+1506060Y+402530D01*
X+1531978Y+409866D01*
X+1557896Y+412694D01*
X+1562100Y+412750D01*
X+1403350Y+254000D02*
X+1403880Y+241042D01*
X+1408184Y+215124D01*
X+1417175Y+189206D01*
X+1431820Y+163288D01*
X+1454224Y+137534D01*
X+1480142Y+118042D01*
X+1506060Y+105470D01*
X+1531978Y+98134D01*
X+1557896Y+95306D01*
X+1562100Y+95250D01*
X+1720850Y+254000D02*
X+1720320Y+241042D01*
X+1716016Y+215124D01*
X+1707025Y+189206D01*
X+1692380Y+163288D01*
X+1669976Y+137534D01*
X+1644058Y+118042D01*
X+1618140Y+105470D01*
X+1592222Y+98134D01*
X+1566304Y+95306D01*
X+1562100Y+95250D01*
X+127000Y+0D02*
X+101032Y+2527D01*
X+77018Y+9798D01*
X+55423Y+21347D01*
X+36711Y+36711D01*
X+21348Y+55423D01*
X+9798Y+77018D01*
X+2527Y+101032D01*
X+0Y+127000D01*
X+0Y+5207000D01*
X+2527Y+5232967D01*
X+9798Y+5256981D01*
X+21348Y+5278577D01*
X+36711Y+5297289D01*
X+55423Y+5312652D01*
X+77018Y+5324202D01*
X+101032Y+5331473D01*
X+127000Y+5334000D01*
X+6515100Y+5334000D01*
X+6642100Y+5207000D01*
X+6642100Y+4064000D01*
X+6896100Y+3810000D01*
X+6896100Y+508000D01*
X+6642100Y+254000D01*
X+6642100Y+127000D01*
X+6639573Y+101032D01*
X+6632302Y+77018D01*
X+6620752Y+55423D01*
X+6605389Y+36711D01*
X+6586677Y+21347D01*
X+6565081Y+9798D01*
X+6541067Y+2527D01*
X+6515100Y+0D01*
X+127000Y+0D01*
X+531310Y+2377600D02*
X+531209Y+2380024D01*
X+530390Y+2384873D01*
X+528676Y+2389722D01*
X+525874Y+2394571D01*
X+521589Y+2399358D01*
X+516740Y+2402876D01*
X+511891Y+2405120D01*
X+507042Y+2406389D01*
X+502193Y+2406810D01*
X+502100Y+2406810D01*
X+472890Y+2377600D02*
X+472991Y+2380024D01*
X+473810Y+2384873D01*
X+475524Y+2389722D01*
X+478326Y+2394571D01*
X+482611Y+2399358D01*
X+487460Y+2402876D01*
X+492309Y+2405120D01*
X+497158Y+2406389D01*
X+502007Y+2406810D01*
X+502100Y+2406810D01*
X+472890Y+2377600D02*
X+472991Y+2375176D01*
X+473810Y+2370327D01*
X+475524Y+2365478D01*
X+478326Y+2360629D01*
X+482611Y+2355842D01*
X+487460Y+2352324D01*
X+492309Y+2350080D01*
X+497158Y+2348811D01*
X+502007Y+2348390D01*
X+502100Y+2348390D01*
X+531310Y+2377600D02*
X+531209Y+2375176D01*
X+530390Y+2370327D01*
X+528676Y+2365478D01*
X+525874Y+2360629D01*
X+521589Y+2355842D01*
X+516740Y+2352324D01*
X+511891Y+2350080D01*
X+507042Y+2348811D01*
X+502193Y+2348390D01*
X+502100Y+2348390D01*
X+531310Y+2955600D02*
X+531209Y+2958024D01*
X+530390Y+2962873D01*
X+528676Y+2967722D01*
X+525874Y+2972571D01*
X+521589Y+2977358D01*
X+516740Y+2980876D01*
X+511891Y+2983120D01*
X+507042Y+2984389D01*
X+502193Y+2984810D01*
X+502100Y+2984810D01*
X+472890Y+2955600D02*
X+472991Y+2958024D01*
X+473810Y+2962873D01*
X+475524Y+2967722D01*
X+478326Y+2972571D01*
X+482611Y+2977358D01*
X+487460Y+2980876D01*
X+492309Y+2983120D01*
X+497158Y+2984389D01*
X+502007Y+2984810D01*
X+502100Y+2984810D01*
X+472890Y+2955600D02*
X+472991Y+2953176D01*
X+473810Y+2948327D01*
X+475524Y+2943478D01*
X+478326Y+2938629D01*
X+482611Y+2933842D01*
X+487460Y+2930324D01*
X+492309Y+2928080D01*
X+497158Y+2926811D01*
X+502007Y+2926390D01*
X+502100Y+2926390D01*
X+531310Y+2955600D02*
X+531209Y+2953176D01*
X+530390Y+2948327D01*
X+528676Y+2943478D01*
X+525874Y+2938629D01*
X+521589Y+2933842D01*
X+516740Y+2930324D01*
X+511891Y+2928080D01*
X+507042Y+2926811D01*
X+502193Y+2926390D01*
X+502100Y+2926390D01*
X+6489700Y+2489200D02*
X+6469707Y+2493119D01*
X+6453584Y+2503884D01*
X+6442819Y+2520007D01*
X+6438900Y+2540000D01*
X+6737350Y+2489200D02*
X+6757343Y+2485281D01*
X+6773466Y+2474516D01*
X+6784231Y+2458393D01*
X+6788150Y+2438400D01*
X+6784231Y+2418407D01*
X+6773466Y+2402284D01*
X+6757343Y+2391519D01*
X+6737350Y+2387600D01*
X+6489700Y+2489200D02*
X+6737350Y+2489200D01*
X+6489700Y+2387600D02*
X+6737350Y+2387600D01*
X+6438900Y+2540000D02*
X+6438900Y+2743200D01*
X+6388100Y+2794000D02*
X+6408093Y+2790081D01*
X+6424216Y+2779316D01*
X+6434981Y+2763193D01*
X+6438900Y+2743200D01*
X+6337300Y+2743200D02*
X+6341219Y+2763193D01*
X+6351984Y+2779316D01*
X+6368107Y+2790081D01*
X+6388100Y+2794000D01*
X+6337300Y+2540000D02*
X+6337300Y+2743200D01*
X+6337300Y+2540000D02*
X+6340332Y+2508839D01*
X+6349057Y+2480022D01*
X+6362917Y+2454108D01*
X+6381353Y+2431653D01*
X+6403807Y+2413217D01*
X+6429722Y+2399357D01*
X+6458539Y+2390632D01*
X+6489700Y+2387600D01*
X+6489700Y+3206750D02*
X+6469707Y+3202831D01*
X+6453584Y+3192066D01*
X+6442819Y+3175943D01*
X+6438900Y+3155950D01*
X+6737350Y+3206750D02*
X+6757343Y+3210669D01*
X+6773466Y+3221434D01*
X+6784231Y+3237557D01*
X+6788150Y+3257550D01*
X+6784231Y+3277543D01*
X+6773466Y+3293666D01*
X+6757343Y+3304431D01*
X+6737350Y+3308350D01*
X+6489700Y+3206750D02*
X+6737350Y+3206750D01*
X+6489700Y+3308350D02*
X+6737350Y+3308350D01*
X+6438900Y+3155950D02*
X+6438900Y+2952750D01*
X+6388100Y+2901950D02*
X+6408093Y+2905869D01*
X+6424216Y+2916634D01*
X+6434981Y+2932757D01*
X+6438900Y+2952750D01*
X+6337300Y+2952750D02*
X+6341219Y+2932757D01*
X+6351984Y+2916634D01*
X+6368107Y+2905869D01*
X+6388100Y+2901950D01*
X+6337300Y+3155950D02*
X+6337300Y+2952750D01*
X+6337300Y+3155950D02*
X+6340332Y+3187111D01*
X+6349057Y+3215928D01*
X+6362917Y+3241842D01*
X+6381353Y+3264297D01*
X+6403807Y+3282733D01*
X+6429722Y+3296593D01*
X+6458539Y+3305318D01*
X+6489700Y+3308350D01*
M02*
