G04 PROTEUS RS274X GERBER FILE*
%FSLAX45Y45*%
%MOMM*%
G01*
%AMPPAD090*
4,1,36,
0.423480,0.039380,
0.419120,0.053790,
0.412190,0.066740,
0.402970,0.077970,
0.391750,0.087190,
0.378790,0.094120,
0.364380,0.098480,
0.348800,0.100000,
-0.348800,0.100000,
-0.364380,0.098480,
-0.378790,0.094120,
-0.391750,0.087190,
-0.402970,0.077970,
-0.412190,0.066740,
-0.419120,0.053790,
-0.423480,0.039380,
-0.425000,0.023800,
-0.425000,-0.023800,
-0.423480,-0.039380,
-0.419120,-0.053790,
-0.412190,-0.066740,
-0.402970,-0.077970,
-0.391750,-0.087190,
-0.378790,-0.094120,
-0.364380,-0.098480,
-0.348800,-0.100000,
0.348800,-0.100000,
0.364380,-0.098480,
0.378790,-0.094120,
0.391750,-0.087190,
0.402970,-0.077970,
0.412190,-0.066740,
0.419120,-0.053790,
0.423480,-0.039380,
0.425000,-0.023800,
0.425000,0.023800,
0.423480,0.039380,
0*%
%ADD100PPAD090*%
%AMPPAD091*
4,1,36,
-0.039380,0.423480,
-0.053790,0.419120,
-0.066740,0.412190,
-0.077970,0.402970,
-0.087190,0.391750,
-0.094120,0.378790,
-0.098480,0.364380,
-0.100000,0.348800,
-0.100000,-0.348800,
-0.098480,-0.364380,
-0.094120,-0.378790,
-0.087190,-0.391750,
-0.077970,-0.402970,
-0.066740,-0.412190,
-0.053790,-0.419120,
-0.039380,-0.423480,
-0.023800,-0.425000,
0.023800,-0.425000,
0.039380,-0.423480,
0.053790,-0.419120,
0.066740,-0.412190,
0.077970,-0.402970,
0.087190,-0.391750,
0.094120,-0.378790,
0.098480,-0.364380,
0.100000,-0.348800,
0.100000,0.348800,
0.098480,0.364380,
0.094120,0.378790,
0.087190,0.391750,
0.077970,0.402970,
0.066740,0.412190,
0.053790,0.419120,
0.039380,0.423480,
0.023800,0.425000,
-0.023800,0.425000,
-0.039380,0.423480,
0*%
%ADD101PPAD091*%
%AMPPAD092*
4,1,36,
-0.797930,0.994950,
-0.845960,0.980400,
-0.889150,0.957300,
-0.926580,0.926580,
-0.957300,0.889150,
-0.980400,0.845960,
-0.994950,0.797930,
-1.000000,0.746000,
-1.000000,-0.746000,
-0.994950,-0.797930,
-0.980400,-0.845960,
-0.957300,-0.889150,
-0.926580,-0.926580,
-0.889150,-0.957300,
-0.845960,-0.980400,
-0.797930,-0.994950,
-0.746000,-1.000000,
0.746000,-1.000000,
0.797930,-0.994950,
0.845960,-0.980400,
0.889150,-0.957300,
0.926580,-0.926580,
0.957300,-0.889150,
0.980400,-0.845960,
0.994950,-0.797930,
1.000000,-0.746000,
1.000000,0.746000,
0.994950,0.797930,
0.980400,0.845960,
0.957300,0.889150,
0.926580,0.926580,
0.889150,0.957300,
0.845960,0.980400,
0.797930,0.994950,
0.746000,1.000000,
-0.746000,1.000000,
-0.797930,0.994950,
0*%
%ADD102PPAD092*%
%ADD20R,0.780000X0.780000*%
%ADD21R,0.700000X1.000000*%
%ADD22R,0.800000X0.800000*%
%ADD23R,1.650000X2.200000*%
%ADD24R,1.050000X0.900000*%
%ADD25R,0.900000X1.050000*%
%ADD26R,1.397000X0.889000*%
%ADD73R,0.600000X1.200000*%
%ADD30R,5.500000X2.150000*%
%ADD31R,0.550000X1.500000*%
%ADD32R,1.500000X0.550000*%
%ADD33R,0.990600X0.711200*%
%ADD34C,0.889000*%
%ADD36R,0.660000X1.000000*%
%ADD37R,0.711200X0.990600*%
%ADD38R,0.889000X1.397000*%
%ADD39R,1.473200X0.635000*%
%ADD40R,0.500000X0.800000*%
%ADD43R,2.286000X2.032000*%
%ADD44R,0.300000X0.750000*%
%ADD45C,0.150000*%
%ADD48R,1.150000X0.600000*%
%ADD49R,1.150000X0.300000*%
%ADD50R,1.000000X1.500000*%
%ADD51R,2.000000X1.200000*%
%ADD52R,1.550000X0.600000*%
%ADD53R,1.800000X1.900000*%
%ADD54C,0.025400*%
D100*
X+1736200Y+2377250D03*
X+1736200Y+2417250D03*
X+1736200Y+2457250D03*
X+1736200Y+2497250D03*
X+1736200Y+2537250D03*
X+1736200Y+2577250D03*
X+1736200Y+2617250D03*
D101*
X+1661200Y+2692250D03*
X+1621200Y+2692250D03*
X+1581200Y+2692250D03*
X+1541200Y+2692250D03*
X+1501200Y+2692250D03*
X+1461200Y+2692250D03*
X+1421200Y+2692250D03*
D100*
X+1346200Y+2617250D03*
X+1346200Y+2577250D03*
X+1346200Y+2537250D03*
X+1346200Y+2497250D03*
X+1346200Y+2457250D03*
X+1346200Y+2417250D03*
X+1346200Y+2377250D03*
D101*
X+1421200Y+2302250D03*
X+1461200Y+2302250D03*
X+1501200Y+2302250D03*
X+1541200Y+2302250D03*
X+1581200Y+2302250D03*
X+1621200Y+2302250D03*
X+1661200Y+2302250D03*
D102*
X+1541200Y+2497250D03*
D20*
X+1736200Y+2302250D03*
X+1736200Y+2692250D03*
X+1346200Y+2692250D03*
X+1346200Y+2302250D03*
D21*
X+466300Y+3864350D03*
X+466300Y+4324350D03*
X+241300Y+4324350D03*
X+241300Y+3864350D03*
X+466300Y+4670800D03*
X+466300Y+5130800D03*
X+241300Y+5130800D03*
X+241300Y+4670800D03*
D22*
X+762000Y+4984750D03*
X+762000Y+4819750D03*
X+241300Y+368200D03*
X+241300Y+203200D03*
D23*
X+355600Y+3467100D03*
D24*
X+387350Y+984350D03*
X+387350Y+1144350D03*
X+387350Y+368200D03*
X+387350Y+208200D03*
D22*
X+241300Y+1149350D03*
X+241300Y+984350D03*
D25*
X+1149350Y+2686800D03*
X+989350Y+2686800D03*
D24*
X+1552000Y+3117700D03*
X+1552000Y+2957700D03*
X+387350Y+1765400D03*
X+387350Y+1925400D03*
X+908050Y+4011950D03*
X+908050Y+4171950D03*
D22*
X+762000Y+4013200D03*
X+762000Y+4178200D03*
D25*
X+1149350Y+2204200D03*
X+989350Y+2204200D03*
D24*
X+1541200Y+2035550D03*
X+1541200Y+1875550D03*
X+1706300Y+1875550D03*
X+1706300Y+2035550D03*
D25*
X+4140200Y+3663950D03*
X+3980200Y+3663950D03*
D26*
X+1256030Y+1286610D03*
X+1256030Y+1499970D03*
D24*
X+1717100Y+2957700D03*
X+1717100Y+3117700D03*
D73*
X+3867650Y+1270000D03*
X+3962650Y+1270000D03*
X+4057650Y+1270000D03*
X+4057650Y+1530000D03*
X+3962650Y+1530000D03*
X+3867650Y+1530000D03*
D30*
X+3289300Y+1333500D03*
X+3289300Y+1718500D03*
D31*
X+5541650Y+3236999D03*
X+5461650Y+3236999D03*
X+5381650Y+3236999D03*
X+5301650Y+3236999D03*
X+5221650Y+3236999D03*
X+5141650Y+3236999D03*
X+5061650Y+3236999D03*
X+4981650Y+3236999D03*
X+4901650Y+3236999D03*
X+4821650Y+3236999D03*
X+4741650Y+3236999D03*
D32*
X+4571650Y+3066999D03*
X+4571650Y+2986999D03*
X+4571650Y+2906999D03*
X+4571650Y+2826999D03*
X+4571650Y+2746999D03*
X+4571650Y+2666999D03*
X+4571650Y+2586999D03*
X+4571650Y+2506999D03*
X+4571650Y+2426999D03*
X+4571650Y+2346999D03*
X+4571650Y+2266999D03*
D31*
X+4741650Y+2096999D03*
X+4821650Y+2096999D03*
X+4901650Y+2096999D03*
X+4981650Y+2096999D03*
X+5061650Y+2096999D03*
X+5141650Y+2096999D03*
X+5221650Y+2096999D03*
X+5301650Y+2096999D03*
X+5381650Y+2096999D03*
X+5461650Y+2096999D03*
X+5541650Y+2096999D03*
D32*
X+5711650Y+2266999D03*
X+5711650Y+2346999D03*
X+5711650Y+2426999D03*
X+5711650Y+2506999D03*
X+5711650Y+2586999D03*
X+5711650Y+2666999D03*
X+5711650Y+2746999D03*
X+5711650Y+2826999D03*
X+5711650Y+2906999D03*
X+5711650Y+2986999D03*
X+5711650Y+3066999D03*
D24*
X+4222750Y+1270000D03*
X+4222750Y+1430000D03*
D26*
X+4826000Y+1564640D03*
X+4826000Y+1778000D03*
D24*
X+3702050Y+1270000D03*
X+3702050Y+1430000D03*
D26*
X+4603750Y+1564640D03*
X+4603750Y+1778000D03*
D24*
X+4220150Y+1618750D03*
X+4220150Y+1778750D03*
D25*
X+3877250Y+1778750D03*
X+4037250Y+1778750D03*
D24*
X+4397950Y+1778750D03*
X+4397950Y+1618750D03*
X+3699450Y+1778750D03*
X+3699450Y+1618750D03*
D25*
X+1460500Y+895450D03*
X+1620500Y+895450D03*
D24*
X+908050Y+4818400D03*
X+908050Y+4978400D03*
D25*
X+3980200Y+3092450D03*
X+4140200Y+3092450D03*
X+3980200Y+3257550D03*
X+4140200Y+3257550D03*
X+3980200Y+2927350D03*
X+4140200Y+2927350D03*
X+6518100Y+3124199D03*
X+6678100Y+3124199D03*
D33*
X+6518100Y+2940049D03*
X+6518100Y+2749549D03*
X+6779720Y+2846069D03*
D25*
X+5201900Y+3644900D03*
X+5361900Y+3644900D03*
D24*
X+5153600Y+1778750D03*
X+5153600Y+1618750D03*
D25*
X+6518100Y+2571749D03*
X+6678100Y+2571749D03*
X+3980200Y+2432050D03*
X+4140200Y+2432050D03*
D33*
X+4189575Y+2063750D03*
X+4189575Y+2254250D03*
X+3927955Y+2157730D03*
D22*
X+241300Y+1930400D03*
X+241300Y+1765400D03*
D34*
X+4937200Y+3478299D03*
X+5965650Y+2586999D03*
X+1257300Y+654050D03*
D24*
X+2863850Y+1430000D03*
X+2863850Y+1270000D03*
D25*
X+2692400Y+1778000D03*
X+2532400Y+1778000D03*
D36*
X+1060200Y+1085950D03*
X+965200Y+1085950D03*
X+870200Y+1085950D03*
X+870200Y+825950D03*
X+1060200Y+825950D03*
D37*
X+1059180Y+1499970D03*
X+868680Y+1499970D03*
X+965200Y+1238350D03*
D26*
X+678180Y+1499970D03*
X+678180Y+1286610D03*
D24*
X+679200Y+881500D03*
X+679200Y+1041500D03*
D38*
X+1075690Y+657960D03*
X+862330Y+657960D03*
D26*
X+1257050Y+1085950D03*
X+1257050Y+872590D03*
D34*
X+1888550Y+3073250D03*
D39*
X+5030700Y+3644900D03*
X+5030700Y+3771900D03*
X+5030700Y+3898900D03*
X+5030700Y+4025900D03*
X+4490700Y+4025900D03*
X+4313150Y+4025900D03*
X+4313150Y+3898900D03*
X+4490700Y+3898900D03*
X+4313150Y+3771900D03*
X+4490700Y+3771900D03*
X+4313150Y+3644900D03*
X+4490700Y+3644900D03*
D40*
X+1714500Y+4616450D03*
X+1624500Y+4616450D03*
X+1534500Y+4616450D03*
X+1444500Y+4616450D03*
X+1444500Y+4496450D03*
X+1534500Y+4496450D03*
X+1624500Y+4496450D03*
X+1714500Y+4496450D03*
D25*
X+760750Y+4616450D03*
X+920750Y+4616450D03*
D43*
X+1171150Y+4830800D03*
X+1171150Y+5130800D03*
D25*
X+1253700Y+4616450D03*
X+1093700Y+4616450D03*
D34*
X+1320800Y+4419600D03*
X+1092200Y+4419600D03*
D25*
X+1460500Y+1060550D03*
X+1620500Y+1060550D03*
D44*
X+2692400Y+1560600D03*
X+2642400Y+1560600D03*
X+2592400Y+1560600D03*
X+2542400Y+1560600D03*
X+2542400Y+1270000D03*
X+2592400Y+1270000D03*
X+2642400Y+1270000D03*
X+2692400Y+1270000D03*
D26*
X+2863850Y+1784350D03*
X+2863850Y+1570990D03*
D45*
X+502100Y+2377600D03*
X+502100Y+2955600D03*
D48*
X+609600Y+2986600D03*
X+609600Y+2906600D03*
D49*
X+609600Y+2791600D03*
X+609600Y+2691600D03*
X+609600Y+2641600D03*
X+609600Y+2541600D03*
D48*
X+609600Y+2346600D03*
X+609600Y+2426600D03*
D49*
X+609600Y+2491600D03*
X+609600Y+2591600D03*
X+609600Y+2741600D03*
X+609600Y+2841600D03*
D50*
X+1179850Y+3048750D03*
X+959850Y+3048750D03*
D25*
X+1149350Y+2371840D03*
X+989350Y+2371840D03*
X+1149350Y+2851900D03*
X+989350Y+2851900D03*
X+3980200Y+2762250D03*
X+4140200Y+2762250D03*
D37*
X+1454150Y+1238350D03*
X+1644650Y+1238350D03*
X+1548130Y+1499970D03*
D25*
X+4140200Y+2597150D03*
X+3980200Y+2597150D03*
D37*
X+1487170Y+4088780D03*
X+1677670Y+4088780D03*
X+1581150Y+4350400D03*
D51*
X+6757670Y+1739280D03*
X+6757670Y+2299280D03*
D52*
X+6380170Y+1869280D03*
X+6380170Y+1969280D03*
X+6380170Y+2069280D03*
X+6380170Y+2169280D03*
D24*
X+6188650Y+1938750D03*
X+6188650Y+1778750D03*
D25*
X+3980200Y+3498850D03*
X+4140200Y+3498850D03*
D53*
X+4842450Y+1339850D03*
X+4432450Y+1339850D03*
D24*
X+1386900Y+2957700D03*
X+1386900Y+3117700D03*
D53*
X+909530Y+1741270D03*
X+1319530Y+1741270D03*
D34*
X+4330350Y+3478549D03*
X+4330350Y+2506999D03*
X+4330350Y+2970549D03*
D54*
X+6800850Y+762000D02*
X+6800320Y+774958D01*
X+6796016Y+800876D01*
X+6787025Y+826794D01*
X+6772380Y+852712D01*
X+6749976Y+878466D01*
X+6724058Y+897958D01*
X+6698140Y+910530D01*
X+6672222Y+917866D01*
X+6646304Y+920694D01*
X+6642100Y+920750D01*
X+6483350Y+762000D02*
X+6483880Y+774958D01*
X+6488184Y+800876D01*
X+6497175Y+826794D01*
X+6511820Y+852712D01*
X+6534224Y+878466D01*
X+6560142Y+897958D01*
X+6586060Y+910530D01*
X+6611978Y+917866D01*
X+6637896Y+920694D01*
X+6642100Y+920750D01*
X+6483350Y+762000D02*
X+6483880Y+749042D01*
X+6488184Y+723124D01*
X+6497175Y+697206D01*
X+6511820Y+671288D01*
X+6534224Y+645534D01*
X+6560142Y+626042D01*
X+6586060Y+613470D01*
X+6611978Y+606134D01*
X+6637896Y+603306D01*
X+6642100Y+603250D01*
X+6800850Y+762000D02*
X+6800320Y+749042D01*
X+6796016Y+723124D01*
X+6787025Y+697206D01*
X+6772380Y+671288D01*
X+6749976Y+645534D01*
X+6724058Y+626042D01*
X+6698140Y+613470D01*
X+6672222Y+606134D01*
X+6646304Y+603306D01*
X+6642100Y+603250D01*
X+6800850Y+3556000D02*
X+6800320Y+3568958D01*
X+6796016Y+3594876D01*
X+6787025Y+3620794D01*
X+6772380Y+3646712D01*
X+6749976Y+3672466D01*
X+6724058Y+3691958D01*
X+6698140Y+3704530D01*
X+6672222Y+3711866D01*
X+6646304Y+3714694D01*
X+6642100Y+3714750D01*
X+6483350Y+3556000D02*
X+6483880Y+3568958D01*
X+6488184Y+3594876D01*
X+6497175Y+3620794D01*
X+6511820Y+3646712D01*
X+6534224Y+3672466D01*
X+6560142Y+3691958D01*
X+6586060Y+3704530D01*
X+6611978Y+3711866D01*
X+6637896Y+3714694D01*
X+6642100Y+3714750D01*
X+6483350Y+3556000D02*
X+6483880Y+3543042D01*
X+6488184Y+3517124D01*
X+6497175Y+3491206D01*
X+6511820Y+3465288D01*
X+6534224Y+3439534D01*
X+6560142Y+3420042D01*
X+6586060Y+3407470D01*
X+6611978Y+3400134D01*
X+6637896Y+3397306D01*
X+6642100Y+3397250D01*
X+6800850Y+3556000D02*
X+6800320Y+3543042D01*
X+6796016Y+3517124D01*
X+6787025Y+3491206D01*
X+6772380Y+3465288D01*
X+6749976Y+3439534D01*
X+6724058Y+3420042D01*
X+6698140Y+3407470D01*
X+6672222Y+3400134D01*
X+6646304Y+3397306D01*
X+6642100Y+3397250D01*
X+1720850Y+5080000D02*
X+1720320Y+5092958D01*
X+1716016Y+5118876D01*
X+1707025Y+5144794D01*
X+1692380Y+5170712D01*
X+1669976Y+5196466D01*
X+1644058Y+5215958D01*
X+1618140Y+5228530D01*
X+1592222Y+5235866D01*
X+1566304Y+5238694D01*
X+1562100Y+5238750D01*
X+1403350Y+5080000D02*
X+1403880Y+5092958D01*
X+1408184Y+5118876D01*
X+1417175Y+5144794D01*
X+1431820Y+5170712D01*
X+1454224Y+5196466D01*
X+1480142Y+5215958D01*
X+1506060Y+5228530D01*
X+1531978Y+5235866D01*
X+1557896Y+5238694D01*
X+1562100Y+5238750D01*
X+1403350Y+5080000D02*
X+1403880Y+5067042D01*
X+1408184Y+5041124D01*
X+1417175Y+5015206D01*
X+1431820Y+4989288D01*
X+1454224Y+4963534D01*
X+1480142Y+4944042D01*
X+1506060Y+4931470D01*
X+1531978Y+4924134D01*
X+1557896Y+4921306D01*
X+1562100Y+4921250D01*
X+1720850Y+5080000D02*
X+1720320Y+5067042D01*
X+1716016Y+5041124D01*
X+1707025Y+5015206D01*
X+1692380Y+4989288D01*
X+1669976Y+4963534D01*
X+1644058Y+4944042D01*
X+1618140Y+4931470D01*
X+1592222Y+4924134D01*
X+1566304Y+4921306D01*
X+1562100Y+4921250D01*
X+1720850Y+254000D02*
X+1720320Y+266958D01*
X+1716016Y+292876D01*
X+1707025Y+318794D01*
X+1692380Y+344712D01*
X+1669976Y+370466D01*
X+1644058Y+389958D01*
X+1618140Y+402530D01*
X+1592222Y+409866D01*
X+1566304Y+412694D01*
X+1562100Y+412750D01*
X+1403350Y+254000D02*
X+1403880Y+266958D01*
X+1408184Y+292876D01*
X+1417175Y+318794D01*
X+1431820Y+344712D01*
X+1454224Y+370466D01*
X+1480142Y+389958D01*
X+1506060Y+402530D01*
X+1531978Y+409866D01*
X+1557896Y+412694D01*
X+1562100Y+412750D01*
X+1403350Y+254000D02*
X+1403880Y+241042D01*
X+1408184Y+215124D01*
X+1417175Y+189206D01*
X+1431820Y+163288D01*
X+1454224Y+137534D01*
X+1480142Y+118042D01*
X+1506060Y+105470D01*
X+1531978Y+98134D01*
X+1557896Y+95306D01*
X+1562100Y+95250D01*
X+1720850Y+254000D02*
X+1720320Y+241042D01*
X+1716016Y+215124D01*
X+1707025Y+189206D01*
X+1692380Y+163288D01*
X+1669976Y+137534D01*
X+1644058Y+118042D01*
X+1618140Y+105470D01*
X+1592222Y+98134D01*
X+1566304Y+95306D01*
X+1562100Y+95250D01*
X+127000Y+0D02*
X+101032Y+2527D01*
X+77018Y+9798D01*
X+55423Y+21347D01*
X+36711Y+36711D01*
X+21348Y+55423D01*
X+9798Y+77018D01*
X+2527Y+101032D01*
X+0Y+127000D01*
X+0Y+5207000D01*
X+2527Y+5232967D01*
X+9798Y+5256981D01*
X+21348Y+5278577D01*
X+36711Y+5297289D01*
X+55423Y+5312652D01*
X+77018Y+5324202D01*
X+101032Y+5331473D01*
X+127000Y+5334000D01*
X+6515100Y+5334000D01*
X+6642100Y+5207000D01*
X+6642100Y+4064000D01*
X+6896100Y+3810000D01*
X+6896100Y+508000D01*
X+6642100Y+254000D01*
X+6642100Y+127000D01*
X+6639573Y+101032D01*
X+6632302Y+77018D01*
X+6620752Y+55423D01*
X+6605389Y+36711D01*
X+6586677Y+21347D01*
X+6565081Y+9798D01*
X+6541067Y+2527D01*
X+6515100Y+0D01*
X+127000Y+0D01*
X+531310Y+2377600D02*
X+531209Y+2380024D01*
X+530390Y+2384873D01*
X+528676Y+2389722D01*
X+525874Y+2394571D01*
X+521589Y+2399358D01*
X+516740Y+2402876D01*
X+511891Y+2405120D01*
X+507042Y+2406389D01*
X+502193Y+2406810D01*
X+502100Y+2406810D01*
X+472890Y+2377600D02*
X+472991Y+2380024D01*
X+473810Y+2384873D01*
X+475524Y+2389722D01*
X+478326Y+2394571D01*
X+482611Y+2399358D01*
X+487460Y+2402876D01*
X+492309Y+2405120D01*
X+497158Y+2406389D01*
X+502007Y+2406810D01*
X+502100Y+2406810D01*
X+472890Y+2377600D02*
X+472991Y+2375176D01*
X+473810Y+2370327D01*
X+475524Y+2365478D01*
X+478326Y+2360629D01*
X+482611Y+2355842D01*
X+487460Y+2352324D01*
X+492309Y+2350080D01*
X+497158Y+2348811D01*
X+502007Y+2348390D01*
X+502100Y+2348390D01*
X+531310Y+2377600D02*
X+531209Y+2375176D01*
X+530390Y+2370327D01*
X+528676Y+2365478D01*
X+525874Y+2360629D01*
X+521589Y+2355842D01*
X+516740Y+2352324D01*
X+511891Y+2350080D01*
X+507042Y+2348811D01*
X+502193Y+2348390D01*
X+502100Y+2348390D01*
X+531310Y+2955600D02*
X+531209Y+2958024D01*
X+530390Y+2962873D01*
X+528676Y+2967722D01*
X+525874Y+2972571D01*
X+521589Y+2977358D01*
X+516740Y+2980876D01*
X+511891Y+2983120D01*
X+507042Y+2984389D01*
X+502193Y+2984810D01*
X+502100Y+2984810D01*
X+472890Y+2955600D02*
X+472991Y+2958024D01*
X+473810Y+2962873D01*
X+475524Y+2967722D01*
X+478326Y+2972571D01*
X+482611Y+2977358D01*
X+487460Y+2980876D01*
X+492309Y+2983120D01*
X+497158Y+2984389D01*
X+502007Y+2984810D01*
X+502100Y+2984810D01*
X+472890Y+2955600D02*
X+472991Y+2953176D01*
X+473810Y+2948327D01*
X+475524Y+2943478D01*
X+478326Y+2938629D01*
X+482611Y+2933842D01*
X+487460Y+2930324D01*
X+492309Y+2928080D01*
X+497158Y+2926811D01*
X+502007Y+2926390D01*
X+502100Y+2926390D01*
X+531310Y+2955600D02*
X+531209Y+2953176D01*
X+530390Y+2948327D01*
X+528676Y+2943478D01*
X+525874Y+2938629D01*
X+521589Y+2933842D01*
X+516740Y+2930324D01*
X+511891Y+2928080D01*
X+507042Y+2926811D01*
X+502193Y+2926390D01*
X+502100Y+2926390D01*
X+6489700Y+2489200D02*
X+6469707Y+2493119D01*
X+6453584Y+2503884D01*
X+6442819Y+2520007D01*
X+6438900Y+2540000D01*
X+6737350Y+2489200D02*
X+6757343Y+2485281D01*
X+6773466Y+2474516D01*
X+6784231Y+2458393D01*
X+6788150Y+2438400D01*
X+6784231Y+2418407D01*
X+6773466Y+2402284D01*
X+6757343Y+2391519D01*
X+6737350Y+2387600D01*
X+6489700Y+2489200D02*
X+6737350Y+2489200D01*
X+6489700Y+2387600D02*
X+6737350Y+2387600D01*
X+6438900Y+2540000D02*
X+6438900Y+2743200D01*
X+6388100Y+2794000D02*
X+6408093Y+2790081D01*
X+6424216Y+2779316D01*
X+6434981Y+2763193D01*
X+6438900Y+2743200D01*
X+6337300Y+2743200D02*
X+6341219Y+2763193D01*
X+6351984Y+2779316D01*
X+6368107Y+2790081D01*
X+6388100Y+2794000D01*
X+6337300Y+2540000D02*
X+6337300Y+2743200D01*
X+6337300Y+2540000D02*
X+6340332Y+2508839D01*
X+6349057Y+2480022D01*
X+6362917Y+2454108D01*
X+6381353Y+2431653D01*
X+6403807Y+2413217D01*
X+6429722Y+2399357D01*
X+6458539Y+2390632D01*
X+6489700Y+2387600D01*
X+6489700Y+3206750D02*
X+6469707Y+3202831D01*
X+6453584Y+3192066D01*
X+6442819Y+3175943D01*
X+6438900Y+3155950D01*
X+6737350Y+3206750D02*
X+6757343Y+3210669D01*
X+6773466Y+3221434D01*
X+6784231Y+3237557D01*
X+6788150Y+3257550D01*
X+6784231Y+3277543D01*
X+6773466Y+3293666D01*
X+6757343Y+3304431D01*
X+6737350Y+3308350D01*
X+6489700Y+3206750D02*
X+6737350Y+3206750D01*
X+6489700Y+3308350D02*
X+6737350Y+3308350D01*
X+6438900Y+3155950D02*
X+6438900Y+2952750D01*
X+6388100Y+2901950D02*
X+6408093Y+2905869D01*
X+6424216Y+2916634D01*
X+6434981Y+2932757D01*
X+6438900Y+2952750D01*
X+6337300Y+2952750D02*
X+6341219Y+2932757D01*
X+6351984Y+2916634D01*
X+6368107Y+2905869D01*
X+6388100Y+2901950D01*
X+6337300Y+3155950D02*
X+6337300Y+2952750D01*
X+6337300Y+3155950D02*
X+6340332Y+3187111D01*
X+6349057Y+3215928D01*
X+6362917Y+3241842D01*
X+6381353Y+3264297D01*
X+6403807Y+3282733D01*
X+6429722Y+3296593D01*
X+6458539Y+3305318D01*
X+6489700Y+3308350D01*
M02*
