G04 PROTEUS RS274X GERBER FILE*
%FSLAX45Y45*%
%MOMM*%
G01*
%AMPPAD053*
4,1,48,
-0.552000,-0.023800,
-0.552000,0.023800,
-0.550970,0.044920,
-0.547960,0.065350,
-0.543040,0.085000,
-0.527890,0.121580,
-0.506270,0.153910,
-0.478920,0.181270,
-0.446580,0.202890,
-0.410000,0.218040,
-0.390350,0.222960,
-0.369920,0.225970,
-0.348800,0.227000,
0.348800,0.227000,
0.369920,0.225970,
0.390350,0.222960,
0.410000,0.218040,
0.446580,0.202890,
0.478920,0.181270,
0.506270,0.153910,
0.527890,0.121580,
0.543040,0.085000,
0.547960,0.065350,
0.550970,0.044920,
0.552000,0.023800,
0.552000,-0.023800,
0.550970,-0.044920,
0.547960,-0.065350,
0.543040,-0.085000,
0.527890,-0.121580,
0.506270,-0.153910,
0.478920,-0.181270,
0.446580,-0.202890,
0.410000,-0.218040,
0.390350,-0.222960,
0.369920,-0.225970,
0.348800,-0.227000,
-0.348800,-0.227000,
-0.369920,-0.225970,
-0.390350,-0.222960,
-0.410000,-0.218040,
-0.446580,-0.202890,
-0.478920,-0.181270,
-0.506270,-0.153910,
-0.527890,-0.121580,
-0.543040,-0.085000,
-0.547960,-0.065350,
-0.550970,-0.044920,
-0.552000,-0.023800,
0*%
%ADD59PPAD053*%
%AMPPAD054*
4,1,48,
0.023800,-0.552000,
-0.023800,-0.552000,
-0.044920,-0.550970,
-0.065350,-0.547960,
-0.085000,-0.543040,
-0.121580,-0.527890,
-0.153910,-0.506270,
-0.181270,-0.478920,
-0.202890,-0.446580,
-0.218040,-0.410000,
-0.222960,-0.390350,
-0.225970,-0.369920,
-0.227000,-0.348800,
-0.227000,0.348800,
-0.225970,0.369920,
-0.222960,0.390350,
-0.218040,0.410000,
-0.202890,0.446580,
-0.181270,0.478920,
-0.153910,0.506270,
-0.121580,0.527890,
-0.085000,0.543040,
-0.065350,0.547960,
-0.044920,0.550970,
-0.023800,0.552000,
0.023800,0.552000,
0.044920,0.550970,
0.065350,0.547960,
0.085000,0.543040,
0.121580,0.527890,
0.153910,0.506270,
0.181270,0.478920,
0.202890,0.446580,
0.218040,0.410000,
0.222960,0.390350,
0.225970,0.369920,
0.227000,0.348800,
0.227000,-0.348800,
0.225970,-0.369920,
0.222960,-0.390350,
0.218040,-0.410000,
0.202890,-0.446580,
0.181270,-0.478920,
0.153910,-0.506270,
0.121580,-0.527890,
0.085000,-0.543040,
0.065350,-0.547960,
0.044920,-0.550970,
0.023800,-0.552000,
0*%
%ADD60PPAD054*%
%AMPPAD055*
4,1,44,
0.746000,-1.127000,
-0.746000,-1.127000,
-0.785600,-1.125080,
-0.823900,-1.119420,
-0.895940,-1.097610,
-0.960730,-1.062960,
-1.016870,-1.016870,
-1.062960,-0.960730,
-1.097610,-0.895940,
-1.119420,-0.823900,
-1.125080,-0.785600,
-1.127000,-0.746000,
-1.127000,0.746000,
-1.125080,0.785600,
-1.119420,0.823900,
-1.097610,0.895940,
-1.062960,0.960730,
-1.016870,1.016870,
-0.960730,1.062960,
-0.895940,1.097610,
-0.823900,1.119420,
-0.785600,1.125080,
-0.746000,1.127000,
0.746000,1.127000,
0.785600,1.125080,
0.823900,1.119420,
0.895940,1.097610,
0.960730,1.062960,
1.016870,1.016870,
1.062960,0.960730,
1.097610,0.895940,
1.119420,0.823900,
1.125080,0.785600,
1.127000,0.746000,
1.127000,-0.746000,
1.125080,-0.785600,
1.119420,-0.823900,
1.097610,-0.895940,
1.062960,-0.960730,
1.016870,-1.016870,
0.960730,-1.062960,
0.895940,-1.097610,
0.823900,-1.119420,
0.785600,-1.125080,
0.746000,-1.127000,
0*%
%ADD61PPAD055*%
%AMPPAD056*
4,1,36,
0.390000,-0.517000,
-0.390000,-0.517000,
-0.415970,-0.514470,
-0.439980,-0.507200,
-0.461580,-0.495650,
-0.480290,-0.480290,
-0.495650,-0.461570,
-0.507200,-0.439980,
-0.514470,-0.415970,
-0.517000,-0.390000,
-0.517000,0.390000,
-0.514470,0.415970,
-0.507200,0.439980,
-0.495650,0.461570,
-0.480290,0.480290,
-0.461580,0.495650,
-0.439980,0.507200,
-0.415970,0.514470,
-0.390000,0.517000,
0.390000,0.517000,
0.415970,0.514470,
0.439980,0.507200,
0.461580,0.495650,
0.480290,0.480290,
0.495650,0.461570,
0.507200,0.439980,
0.514470,0.415970,
0.517000,0.390000,
0.517000,-0.390000,
0.514470,-0.415970,
0.507200,-0.439980,
0.495650,-0.461570,
0.480290,-0.480290,
0.461580,-0.495650,
0.439980,-0.507200,
0.415970,-0.514470,
0.390000,-0.517000,
0*%
%ADD62PPAD056*%
%AMPPAD057*
4,1,36,
-0.477000,-0.500000,
-0.477000,0.500000,
-0.474470,0.525970,
-0.467200,0.549980,
-0.455650,0.571580,
-0.440290,0.590290,
-0.421570,0.605650,
-0.399980,0.617200,
-0.375970,0.624470,
-0.350000,0.627000,
0.350000,0.627000,
0.375970,0.624470,
0.399980,0.617200,
0.421570,0.605650,
0.440290,0.590290,
0.455650,0.571580,
0.467200,0.549980,
0.474470,0.525970,
0.477000,0.500000,
0.477000,-0.500000,
0.474470,-0.525970,
0.467200,-0.549980,
0.455650,-0.571580,
0.440290,-0.590290,
0.421570,-0.605650,
0.399980,-0.617200,
0.375970,-0.624470,
0.350000,-0.627000,
-0.350000,-0.627000,
-0.375970,-0.624470,
-0.399980,-0.617200,
-0.421570,-0.605650,
-0.440290,-0.590290,
-0.455650,-0.571580,
-0.467200,-0.549980,
-0.474470,-0.525970,
-0.477000,-0.500000,
0*%
%ADD63PPAD057*%
%AMPPAD058*
4,1,36,
0.527000,0.400000,
0.527000,-0.400000,
0.524470,-0.425970,
0.517200,-0.449980,
0.505650,-0.471580,
0.490290,-0.490290,
0.471570,-0.505650,
0.449980,-0.517200,
0.425970,-0.524470,
0.400000,-0.527000,
-0.400000,-0.527000,
-0.425970,-0.524470,
-0.449980,-0.517200,
-0.471570,-0.505650,
-0.490290,-0.490290,
-0.505650,-0.471580,
-0.517200,-0.449980,
-0.524470,-0.425970,
-0.527000,-0.400000,
-0.527000,0.400000,
-0.524470,0.425970,
-0.517200,0.449980,
-0.505650,0.471580,
-0.490290,0.490290,
-0.471570,0.505650,
-0.449980,0.517200,
-0.425970,0.524470,
-0.400000,0.527000,
0.400000,0.527000,
0.425970,0.524470,
0.449980,0.517200,
0.471570,0.505650,
0.490290,0.490290,
0.505650,0.471580,
0.517200,0.449980,
0.524470,0.425970,
0.527000,0.400000,
0*%
%ADD64PPAD058*%
%AMPPAD059*
4,1,36,
0.952000,1.100000,
0.952000,-1.100000,
0.949470,-1.125970,
0.942200,-1.149980,
0.930650,-1.171580,
0.915290,-1.190290,
0.896570,-1.205650,
0.874980,-1.217200,
0.850970,-1.224470,
0.825000,-1.227000,
-0.825000,-1.227000,
-0.850970,-1.224470,
-0.874980,-1.217200,
-0.896570,-1.205650,
-0.915290,-1.190290,
-0.930650,-1.171580,
-0.942200,-1.149980,
-0.949470,-1.125970,
-0.952000,-1.100000,
-0.952000,1.100000,
-0.949470,1.125970,
-0.942200,1.149980,
-0.930650,1.171580,
-0.915290,1.190290,
-0.896570,1.205650,
-0.874980,1.217200,
-0.850970,1.224470,
-0.825000,1.227000,
0.825000,1.227000,
0.850970,1.224470,
0.874980,1.217200,
0.896570,1.205650,
0.915290,1.190290,
0.930650,1.171580,
0.942200,1.149980,
0.949470,1.125970,
0.952000,1.100000,
0*%
%ADD65PPAD059*%
%AMPPAD060*
4,1,36,
-0.652000,-0.450000,
-0.652000,0.450000,
-0.649470,0.475970,
-0.642200,0.499980,
-0.630650,0.521580,
-0.615290,0.540290,
-0.596570,0.555650,
-0.574980,0.567200,
-0.550970,0.574470,
-0.525000,0.577000,
0.525000,0.577000,
0.550970,0.574470,
0.574980,0.567200,
0.596570,0.555650,
0.615290,0.540290,
0.630650,0.521580,
0.642200,0.499980,
0.649470,0.475970,
0.652000,0.450000,
0.652000,-0.450000,
0.649470,-0.475970,
0.642200,-0.499980,
0.630650,-0.521580,
0.615290,-0.540290,
0.596570,-0.555650,
0.574980,-0.567200,
0.550970,-0.574470,
0.525000,-0.577000,
-0.525000,-0.577000,
-0.550970,-0.574470,
-0.574980,-0.567200,
-0.596570,-0.555650,
-0.615290,-0.540290,
-0.630650,-0.521580,
-0.642200,-0.499980,
-0.649470,-0.475970,
-0.652000,-0.450000,
0*%
%ADD66PPAD060*%
%AMPPAD061*
4,1,36,
0.450000,-0.652000,
-0.450000,-0.652000,
-0.475970,-0.649470,
-0.499980,-0.642200,
-0.521580,-0.630650,
-0.540290,-0.615290,
-0.555650,-0.596570,
-0.567200,-0.574980,
-0.574470,-0.550970,
-0.577000,-0.525000,
-0.577000,0.525000,
-0.574470,0.550970,
-0.567200,0.574980,
-0.555650,0.596570,
-0.540290,0.615290,
-0.521580,0.630650,
-0.499980,0.642200,
-0.475970,0.649470,
-0.450000,0.652000,
0.450000,0.652000,
0.475970,0.649470,
0.499980,0.642200,
0.521580,0.630650,
0.540290,0.615290,
0.555650,0.596570,
0.567200,0.574980,
0.574470,0.550970,
0.577000,0.525000,
0.577000,-0.525000,
0.574470,-0.550970,
0.567200,-0.574980,
0.555650,-0.596570,
0.540290,-0.615290,
0.521580,-0.630650,
0.499980,-0.642200,
0.475970,-0.649470,
0.450000,-0.652000,
0*%
%ADD67PPAD061*%
%AMPPAD062*
4,1,36,
-0.825500,-0.444500,
-0.825500,0.444500,
-0.822970,0.470470,
-0.815700,0.494480,
-0.804150,0.516080,
-0.788790,0.534790,
-0.770070,0.550150,
-0.748480,0.561700,
-0.724470,0.568970,
-0.698500,0.571500,
0.698500,0.571500,
0.724470,0.568970,
0.748480,0.561700,
0.770070,0.550150,
0.788790,0.534790,
0.804150,0.516080,
0.815700,0.494480,
0.822970,0.470470,
0.825500,0.444500,
0.825500,-0.444500,
0.822970,-0.470470,
0.815700,-0.494480,
0.804150,-0.516080,
0.788790,-0.534790,
0.770070,-0.550150,
0.748480,-0.561700,
0.724470,-0.568970,
0.698500,-0.571500,
-0.698500,-0.571500,
-0.724470,-0.568970,
-0.748480,-0.561700,
-0.770070,-0.550150,
-0.788790,-0.534790,
-0.804150,-0.516080,
-0.815700,-0.494480,
-0.822970,-0.470470,
-0.825500,-0.444500,
0*%
%ADD68PPAD062*%
%AMPPAD063*
4,1,48,
0.323000,-0.577000,
-0.323000,-0.577000,
-0.349400,-0.575720,
-0.374930,-0.571950,
-0.399490,-0.565800,
-0.445220,-0.546870,
-0.485650,-0.519840,
-0.519840,-0.485640,
-0.546860,-0.445220,
-0.565800,-0.399490,
-0.571950,-0.374930,
-0.575720,-0.349400,
-0.577000,-0.323000,
-0.577000,0.323000,
-0.575720,0.349400,
-0.571950,0.374930,
-0.565800,0.399490,
-0.546860,0.445220,
-0.519840,0.485640,
-0.485650,0.519840,
-0.445220,0.546870,
-0.399490,0.565800,
-0.374930,0.571950,
-0.349400,0.575720,
-0.323000,0.577000,
0.323000,0.577000,
0.349400,0.575720,
0.374930,0.571950,
0.399490,0.565800,
0.445220,0.546870,
0.485650,0.519840,
0.519840,0.485640,
0.546860,0.445220,
0.565800,0.399490,
0.571950,0.374930,
0.575720,0.349400,
0.577000,0.323000,
0.577000,-0.323000,
0.575720,-0.349400,
0.571950,-0.374930,
0.565800,-0.399490,
0.546860,-0.445220,
0.519840,-0.485640,
0.485650,-0.519840,
0.445220,-0.546870,
0.399490,-0.565800,
0.374930,-0.571950,
0.349400,-0.575720,
0.323000,-0.577000,
0*%
%ADD69PPAD063*%
%ADD74C,1.154000*%
%AMPPAD065*
4,1,44,
-0.546000,0.927000,
0.546000,0.927000,
0.585600,0.925080,
0.623900,0.919420,
0.695940,0.897610,
0.760730,0.862960,
0.816870,0.816870,
0.862960,0.760730,
0.897610,0.695940,
0.919420,0.623900,
0.925080,0.585600,
0.927000,0.546000,
0.927000,-0.546000,
0.925080,-0.585600,
0.919420,-0.623900,
0.897610,-0.695940,
0.862960,-0.760730,
0.816870,-0.816870,
0.760730,-0.862960,
0.695940,-0.897610,
0.623900,-0.919420,
0.585600,-0.925080,
0.546000,-0.927000,
-0.546000,-0.927000,
-0.585600,-0.925080,
-0.623900,-0.919420,
-0.695940,-0.897610,
-0.760730,-0.862960,
-0.816870,-0.816870,
-0.862960,-0.760730,
-0.897610,-0.695940,
-0.919420,-0.623900,
-0.925080,-0.585600,
-0.927000,-0.546000,
-0.927000,0.546000,
-0.925080,0.585600,
-0.919420,0.623900,
-0.897610,0.695940,
-0.862960,0.760730,
-0.816870,0.816870,
-0.760730,0.862960,
-0.695940,0.897610,
-0.623900,0.919420,
-0.585600,0.925080,
-0.546000,0.927000,
0*%
%ADD75PPAD065*%
%ADD76C,1.854000*%
%AMPPAD067*
4,1,36,
-0.300000,0.727000,
0.300000,0.727000,
0.325970,0.724470,
0.349980,0.717200,
0.371580,0.705650,
0.390290,0.690290,
0.405650,0.671570,
0.417200,0.649980,
0.424470,0.625970,
0.427000,0.600000,
0.427000,-0.600000,
0.424470,-0.625970,
0.417200,-0.649980,
0.405650,-0.671570,
0.390290,-0.690290,
0.371580,-0.705650,
0.349980,-0.717200,
0.325970,-0.724470,
0.300000,-0.727000,
-0.300000,-0.727000,
-0.325970,-0.724470,
-0.349980,-0.717200,
-0.371580,-0.705650,
-0.390290,-0.690290,
-0.405650,-0.671570,
-0.417200,-0.649980,
-0.424470,-0.625970,
-0.427000,-0.600000,
-0.427000,0.600000,
-0.424470,0.625970,
-0.417200,0.649980,
-0.405650,0.671570,
-0.390290,0.690290,
-0.371580,0.705650,
-0.349980,0.717200,
-0.325970,0.724470,
-0.300000,0.727000,
0*%
%ADD77PPAD067*%
%AMPPAD068*
4,1,36,
2.750000,-1.202000,
-2.750000,-1.202000,
-2.775970,-1.199470,
-2.799980,-1.192200,
-2.821580,-1.180650,
-2.840290,-1.165290,
-2.855650,-1.146570,
-2.867200,-1.124980,
-2.874470,-1.100970,
-2.877000,-1.075000,
-2.877000,1.075000,
-2.874470,1.100970,
-2.867200,1.124980,
-2.855650,1.146570,
-2.840290,1.165290,
-2.821580,1.180650,
-2.799980,1.192200,
-2.775970,1.199470,
-2.750000,1.202000,
2.750000,1.202000,
2.775970,1.199470,
2.799980,1.192200,
2.821580,1.180650,
2.840290,1.165290,
2.855650,1.146570,
2.867200,1.124980,
2.874470,1.100970,
2.877000,1.075000,
2.877000,-1.075000,
2.874470,-1.100970,
2.867200,-1.124980,
2.855650,-1.146570,
2.840290,-1.165290,
2.821580,-1.180650,
2.799980,-1.192200,
2.775970,-1.199470,
2.750000,-1.202000,
0*%
%ADD78PPAD068*%
%AMPPAD069*
4,1,36,
0.275000,-0.877000,
-0.275000,-0.877000,
-0.300970,-0.874470,
-0.324980,-0.867200,
-0.346580,-0.855650,
-0.365290,-0.840290,
-0.380650,-0.821570,
-0.392200,-0.799980,
-0.399470,-0.775970,
-0.402000,-0.750000,
-0.402000,0.750000,
-0.399470,0.775970,
-0.392200,0.799980,
-0.380650,0.821570,
-0.365290,0.840290,
-0.346580,0.855650,
-0.324980,0.867200,
-0.300970,0.874470,
-0.275000,0.877000,
0.275000,0.877000,
0.300970,0.874470,
0.324980,0.867200,
0.346580,0.855650,
0.365290,0.840290,
0.380650,0.821570,
0.392200,0.799980,
0.399470,0.775970,
0.402000,0.750000,
0.402000,-0.750000,
0.399470,-0.775970,
0.392200,-0.799980,
0.380650,-0.821570,
0.365290,-0.840290,
0.346580,-0.855650,
0.324980,-0.867200,
0.300970,-0.874470,
0.275000,-0.877000,
0*%
%ADD79PPAD069*%
%AMPPAD070*
4,1,36,
0.877000,0.275000,
0.877000,-0.275000,
0.874470,-0.300970,
0.867200,-0.324980,
0.855650,-0.346580,
0.840290,-0.365290,
0.821570,-0.380650,
0.799980,-0.392200,
0.775970,-0.399470,
0.750000,-0.402000,
-0.750000,-0.402000,
-0.775970,-0.399470,
-0.799980,-0.392200,
-0.821570,-0.380650,
-0.840290,-0.365290,
-0.855650,-0.346580,
-0.867200,-0.324980,
-0.874470,-0.300970,
-0.877000,-0.275000,
-0.877000,0.275000,
-0.874470,0.300970,
-0.867200,0.324980,
-0.855650,0.346580,
-0.840290,0.365290,
-0.821570,0.380650,
-0.799980,0.392200,
-0.775970,0.399470,
-0.750000,0.402000,
0.750000,0.402000,
0.775970,0.399470,
0.799980,0.392200,
0.821570,0.380650,
0.840290,0.365290,
0.855650,0.346580,
0.867200,0.324980,
0.874470,0.300970,
0.877000,0.275000,
0*%
%ADD80PPAD070*%
%AMPPAD071*
4,1,36,
0.355600,-0.622300,
-0.355600,-0.622300,
-0.381570,-0.619770,
-0.405580,-0.612500,
-0.427180,-0.600950,
-0.445890,-0.585590,
-0.461250,-0.566870,
-0.472800,-0.545280,
-0.480070,-0.521270,
-0.482600,-0.495300,
-0.482600,0.495300,
-0.480070,0.521270,
-0.472800,0.545280,
-0.461250,0.566870,
-0.445890,0.585590,
-0.427180,0.600950,
-0.405580,0.612500,
-0.381570,0.619770,
-0.355600,0.622300,
0.355600,0.622300,
0.381570,0.619770,
0.405580,0.612500,
0.427180,0.600950,
0.445890,0.585590,
0.461250,0.566870,
0.472800,0.545280,
0.480070,0.521270,
0.482600,0.495300,
0.482600,-0.495300,
0.480070,-0.521270,
0.472800,-0.545280,
0.461250,-0.566870,
0.445890,-0.585590,
0.427180,-0.600950,
0.405580,-0.612500,
0.381570,-0.619770,
0.355600,-0.622300,
0*%
%ADD81PPAD071*%
%AMPPAD072*
4,1,36,
-0.622300,-0.355600,
-0.622300,0.355600,
-0.619770,0.381570,
-0.612500,0.405580,
-0.600950,0.427180,
-0.585590,0.445890,
-0.566870,0.461250,
-0.545280,0.472800,
-0.521270,0.480070,
-0.495300,0.482600,
0.495300,0.482600,
0.521270,0.480070,
0.545280,0.472800,
0.566870,0.461250,
0.585590,0.445890,
0.600950,0.427180,
0.612500,0.405580,
0.619770,0.381570,
0.622300,0.355600,
0.622300,-0.355600,
0.619770,-0.381570,
0.612500,-0.405580,
0.600950,-0.427180,
0.585590,-0.445890,
0.566870,-0.461250,
0.545280,-0.472800,
0.521270,-0.480070,
0.495300,-0.482600,
-0.495300,-0.482600,
-0.521270,-0.480070,
-0.545280,-0.472800,
-0.566870,-0.461250,
-0.585590,-0.445890,
-0.600950,-0.427180,
-0.612500,-0.405580,
-0.619770,-0.381570,
-0.622300,-0.355600,
0*%
%ADD82PPAD072*%
%ADD83C,1.143000*%
%ADD84C,1.254000*%
%AMPPAD075*
4,1,36,
0.330000,-0.627000,
-0.330000,-0.627000,
-0.355970,-0.624470,
-0.379980,-0.617200,
-0.401580,-0.605650,
-0.420290,-0.590290,
-0.435650,-0.571570,
-0.447200,-0.549980,
-0.454470,-0.525970,
-0.457000,-0.500000,
-0.457000,0.500000,
-0.454470,0.525970,
-0.447200,0.549980,
-0.435650,0.571570,
-0.420290,0.590290,
-0.401580,0.605650,
-0.379980,0.617200,
-0.355970,0.624470,
-0.330000,0.627000,
0.330000,0.627000,
0.355970,0.624470,
0.379980,0.617200,
0.401580,0.605650,
0.420290,0.590290,
0.435650,0.571570,
0.447200,0.549980,
0.454470,0.525970,
0.457000,0.500000,
0.457000,-0.500000,
0.454470,-0.525970,
0.447200,-0.549980,
0.435650,-0.571570,
0.420290,-0.590290,
0.401580,-0.605650,
0.379980,-0.617200,
0.355970,-0.624470,
0.330000,-0.627000,
0*%
%ADD85PPAD075*%
%AMPPAD076*
4,1,36,
0.444500,-0.825500,
-0.444500,-0.825500,
-0.470470,-0.822970,
-0.494480,-0.815700,
-0.516080,-0.804150,
-0.534790,-0.788790,
-0.550150,-0.770070,
-0.561700,-0.748480,
-0.568970,-0.724470,
-0.571500,-0.698500,
-0.571500,0.698500,
-0.568970,0.724470,
-0.561700,0.748480,
-0.550150,0.770070,
-0.534790,0.788790,
-0.516080,0.804150,
-0.494480,0.815700,
-0.470470,0.822970,
-0.444500,0.825500,
0.444500,0.825500,
0.470470,0.822970,
0.494480,0.815700,
0.516080,0.804150,
0.534790,0.788790,
0.550150,0.770070,
0.561700,0.748480,
0.568970,0.724470,
0.571500,0.698500,
0.571500,-0.698500,
0.568970,-0.724470,
0.561700,-0.748480,
0.550150,-0.770070,
0.534790,-0.788790,
0.516080,-0.804150,
0.494480,-0.815700,
0.470470,-0.822970,
0.444500,-0.825500,
0*%
%ADD86PPAD076*%
%AMPPAD077*
4,1,36,
0.863600,0.317500,
0.863600,-0.317500,
0.861070,-0.343470,
0.853800,-0.367480,
0.842250,-0.389080,
0.826890,-0.407790,
0.808170,-0.423150,
0.786580,-0.434700,
0.762570,-0.441970,
0.736600,-0.444500,
-0.736600,-0.444500,
-0.762570,-0.441970,
-0.786580,-0.434700,
-0.808170,-0.423150,
-0.826890,-0.407790,
-0.842250,-0.389080,
-0.853800,-0.367480,
-0.861070,-0.343470,
-0.863600,-0.317500,
-0.863600,0.317500,
-0.861070,0.343470,
-0.853800,0.367480,
-0.842250,0.389080,
-0.826890,0.407790,
-0.808170,0.423150,
-0.786580,0.434700,
-0.762570,0.441970,
-0.736600,0.444500,
0.736600,0.444500,
0.762570,0.441970,
0.786580,0.434700,
0.808170,0.423150,
0.826890,0.407790,
0.842250,0.389080,
0.853800,0.367480,
0.861070,0.343470,
0.863600,0.317500,
0*%
%ADD87PPAD077*%
%AMPPAD078*
4,1,36,
0.250000,-0.527000,
-0.250000,-0.527000,
-0.275970,-0.524470,
-0.299980,-0.517200,
-0.321580,-0.505650,
-0.340290,-0.490290,
-0.355650,-0.471570,
-0.367200,-0.449980,
-0.374470,-0.425970,
-0.377000,-0.400000,
-0.377000,0.400000,
-0.374470,0.425970,
-0.367200,0.449980,
-0.355650,0.471570,
-0.340290,0.490290,
-0.321580,0.505650,
-0.299980,0.517200,
-0.275970,0.524470,
-0.250000,0.527000,
0.250000,0.527000,
0.275970,0.524470,
0.299980,0.517200,
0.321580,0.505650,
0.340290,0.490290,
0.355650,0.471570,
0.367200,0.449980,
0.374470,0.425970,
0.377000,0.400000,
0.377000,-0.400000,
0.374470,-0.425970,
0.367200,-0.449980,
0.355650,-0.471570,
0.340290,-0.490290,
0.321580,-0.505650,
0.299980,-0.517200,
0.275970,-0.524470,
0.250000,-0.527000,
0*%
%ADD88PPAD078*%
%AMPPAD079*
4,1,8,
0.927100,0.296440,
0.927100,-0.296440,
0.690140,-0.533400,
-0.690140,-0.533400,
-0.927100,-0.296440,
-0.927100,0.296440,
-0.690140,0.533400,
0.690140,0.533400,
0.927100,0.296440,
0*%
%ADD89PPAD079*%
%AMPPAD080*
4,1,36,
-1.270000,-1.016000,
-1.270000,1.016000,
-1.267470,1.041970,
-1.260200,1.065980,
-1.248650,1.087580,
-1.233290,1.106290,
-1.214570,1.121650,
-1.192980,1.133200,
-1.168970,1.140470,
-1.143000,1.143000,
1.143000,1.143000,
1.168970,1.140470,
1.192980,1.133200,
1.214570,1.121650,
1.233290,1.106290,
1.248650,1.087580,
1.260200,1.065980,
1.267470,1.041970,
1.270000,1.016000,
1.270000,-1.016000,
1.267470,-1.041970,
1.260200,-1.065980,
1.248650,-1.087580,
1.233290,-1.106290,
1.214570,-1.121650,
1.192980,-1.133200,
1.168970,-1.140470,
1.143000,-1.143000,
-1.143000,-1.143000,
-1.168970,-1.140470,
-1.192980,-1.133200,
-1.214570,-1.121650,
-1.233290,-1.106290,
-1.248650,-1.087580,
-1.260200,-1.065980,
-1.267470,-1.041970,
-1.270000,-1.016000,
0*%
%ADD90PPAD080*%
%AMPPAD081*
4,1,36,
0.900000,-1.077000,
-0.900000,-1.077000,
-0.925970,-1.074470,
-0.949980,-1.067200,
-0.971580,-1.055650,
-0.990290,-1.040290,
-1.005650,-1.021570,
-1.017200,-0.999980,
-1.024470,-0.975970,
-1.027000,-0.950000,
-1.027000,0.950000,
-1.024470,0.975970,
-1.017200,0.999980,
-1.005650,1.021570,
-0.990290,1.040290,
-0.971580,1.055650,
-0.949980,1.067200,
-0.925970,1.074470,
-0.900000,1.077000,
0.900000,1.077000,
0.925970,1.074470,
0.949980,1.067200,
0.971580,1.055650,
0.990290,1.040290,
1.005650,1.021570,
1.017200,0.999980,
1.024470,0.975970,
1.027000,0.950000,
1.027000,-0.950000,
1.024470,-0.975970,
1.017200,-0.999980,
1.005650,-1.021570,
0.990290,-1.040290,
0.971580,-1.055650,
0.949980,-1.067200,
0.925970,-1.074470,
0.900000,-1.077000,
0*%
%ADD91PPAD081*%
%AMPPAD082*
4,1,36,
0.277000,0.375000,
0.277000,-0.375000,
0.274470,-0.400970,
0.267200,-0.424980,
0.255650,-0.446580,
0.240290,-0.465290,
0.221570,-0.480650,
0.199980,-0.492200,
0.175970,-0.499470,
0.150000,-0.502000,
-0.150000,-0.502000,
-0.175970,-0.499470,
-0.199980,-0.492200,
-0.221570,-0.480650,
-0.240290,-0.465290,
-0.255650,-0.446580,
-0.267200,-0.424980,
-0.274470,-0.400970,
-0.277000,-0.375000,
-0.277000,0.375000,
-0.274470,0.400970,
-0.267200,0.424980,
-0.255650,0.446580,
-0.240290,0.465290,
-0.221570,0.480650,
-0.199980,0.492200,
-0.175970,0.499470,
-0.150000,0.502000,
0.150000,0.502000,
0.175970,0.499470,
0.199980,0.492200,
0.221570,0.480650,
0.240290,0.465290,
0.255650,0.446580,
0.267200,0.424980,
0.274470,0.400970,
0.277000,0.375000,
0*%
%ADD92PPAD082*%
%ADD93C,0.404000*%
%AMPPAD084*
4,1,36,
1.177000,0.195200,
1.177000,-0.195200,
1.168410,-0.283490,
1.143690,-0.365130,
1.104420,-0.438560,
1.052180,-0.502180,
0.988560,-0.554420,
0.915130,-0.593690,
0.833490,-0.618410,
0.745200,-0.627000,
-0.745200,-0.627000,
-0.833490,-0.618410,
-0.915130,-0.593690,
-0.988560,-0.554420,
-1.052180,-0.502180,
-1.104420,-0.438560,
-1.143690,-0.365130,
-1.168410,-0.283490,
-1.177000,-0.195200,
-1.177000,0.195200,
-1.168410,0.283490,
-1.143690,0.365130,
-1.104420,0.438560,
-1.052180,0.502180,
-0.988560,0.554420,
-0.915130,0.593690,
-0.833490,0.618410,
-0.745200,0.627000,
0.745200,0.627000,
0.833490,0.618410,
0.915130,0.593690,
0.988560,0.554420,
1.052180,0.502180,
1.104420,0.438560,
1.143690,0.365130,
1.168410,0.283490,
1.177000,0.195200,
0*%
%ADD94PPAD084*%
%AMPPAD085*
4,1,36,
1.027000,0.195200,
1.027000,-0.195200,
1.018410,-0.283490,
0.993690,-0.365130,
0.954420,-0.438560,
0.902180,-0.502180,
0.838560,-0.554420,
0.765130,-0.593690,
0.683490,-0.618410,
0.595200,-0.627000,
-0.595200,-0.627000,
-0.683490,-0.618410,
-0.765130,-0.593690,
-0.838560,-0.554420,
-0.902180,-0.502180,
-0.954420,-0.438560,
-0.993690,-0.365130,
-1.018410,-0.283490,
-1.027000,-0.195200,
-1.027000,0.195200,
-1.018410,0.283490,
-0.993690,0.365130,
-0.954420,0.438560,
-0.902180,0.502180,
-0.838560,0.554420,
-0.765130,0.593690,
-0.683490,0.618410,
-0.595200,0.627000,
0.595200,0.627000,
0.683490,0.618410,
0.765130,0.593690,
0.838560,0.554420,
0.902180,0.502180,
0.954420,0.438560,
0.993690,0.365130,
1.018410,0.283490,
1.027000,0.195200,
0*%
%ADD95PPAD085*%
%AMPPAD086*
4,1,36,
0.702000,0.300000,
0.702000,-0.300000,
0.699470,-0.325970,
0.692200,-0.349980,
0.680650,-0.371580,
0.665290,-0.390290,
0.646570,-0.405650,
0.624980,-0.417200,
0.600970,-0.424470,
0.575000,-0.427000,
-0.575000,-0.427000,
-0.600970,-0.424470,
-0.624980,-0.417200,
-0.646570,-0.405650,
-0.665290,-0.390290,
-0.680650,-0.371580,
-0.692200,-0.349980,
-0.699470,-0.325970,
-0.702000,-0.300000,
-0.702000,0.300000,
-0.699470,0.325970,
-0.692200,0.349980,
-0.680650,0.371580,
-0.665290,0.390290,
-0.646570,0.405650,
-0.624980,0.417200,
-0.600970,0.424470,
-0.575000,0.427000,
0.575000,0.427000,
0.600970,0.424470,
0.624980,0.417200,
0.646570,0.405650,
0.665290,0.390290,
0.680650,0.371580,
0.692200,0.349980,
0.699470,0.325970,
0.702000,0.300000,
0*%
%ADD96PPAD086*%
%AMPPAD087*
4,1,36,
0.702000,0.150000,
0.702000,-0.150000,
0.699470,-0.175970,
0.692200,-0.199980,
0.680650,-0.221580,
0.665290,-0.240290,
0.646570,-0.255650,
0.624980,-0.267200,
0.600970,-0.274470,
0.575000,-0.277000,
-0.575000,-0.277000,
-0.600970,-0.274470,
-0.624980,-0.267200,
-0.646570,-0.255650,
-0.665290,-0.240290,
-0.680650,-0.221580,
-0.692200,-0.199980,
-0.699470,-0.175970,
-0.702000,-0.150000,
-0.702000,0.150000,
-0.699470,0.175970,
-0.692200,0.199980,
-0.680650,0.221580,
-0.665290,0.240290,
-0.646570,0.255650,
-0.624980,0.267200,
-0.600970,0.274470,
-0.575000,0.277000,
0.575000,0.277000,
0.600970,0.274470,
0.624980,0.267200,
0.646570,0.255650,
0.665290,0.240290,
0.680650,0.221580,
0.692200,0.199980,
0.699470,0.175970,
0.702000,0.150000,
0*%
%ADD97PPAD087*%
%AMPPAD088*
4,1,36,
0.500000,-0.877000,
-0.500000,-0.877000,
-0.525970,-0.874470,
-0.549980,-0.867200,
-0.571580,-0.855650,
-0.590290,-0.840290,
-0.605650,-0.821570,
-0.617200,-0.799980,
-0.624470,-0.775970,
-0.627000,-0.750000,
-0.627000,0.750000,
-0.624470,0.775970,
-0.617200,0.799980,
-0.605650,0.821570,
-0.590290,0.840290,
-0.571580,0.855650,
-0.549980,0.867200,
-0.525970,0.874470,
-0.500000,0.877000,
0.500000,0.877000,
0.525970,0.874470,
0.549980,0.867200,
0.571580,0.855650,
0.590290,0.840290,
0.605650,0.821570,
0.617200,0.799980,
0.624470,0.775970,
0.627000,0.750000,
0.627000,-0.750000,
0.624470,-0.775970,
0.617200,-0.799980,
0.605650,-0.821570,
0.590290,-0.840290,
0.571580,-0.855650,
0.549980,-0.867200,
0.525970,-0.874470,
0.500000,-0.877000,
0*%
%ADD98PPAD088*%
%ADD55C,0.025400*%
D59*
X+1736200Y+2377250D03*
X+1736200Y+2417250D03*
X+1736200Y+2457250D03*
X+1736200Y+2497250D03*
X+1736200Y+2537250D03*
X+1736200Y+2577250D03*
X+1736200Y+2617250D03*
D60*
X+1661200Y+2692250D03*
X+1621200Y+2692250D03*
X+1581200Y+2692250D03*
X+1541200Y+2692250D03*
X+1501200Y+2692250D03*
X+1461200Y+2692250D03*
X+1421200Y+2692250D03*
D59*
X+1346200Y+2617250D03*
X+1346200Y+2577250D03*
X+1346200Y+2537250D03*
X+1346200Y+2497250D03*
X+1346200Y+2457250D03*
X+1346200Y+2417250D03*
X+1346200Y+2377250D03*
D60*
X+1421200Y+2302250D03*
X+1461200Y+2302250D03*
X+1501200Y+2302250D03*
X+1541200Y+2302250D03*
X+1581200Y+2302250D03*
X+1621200Y+2302250D03*
X+1661200Y+2302250D03*
D61*
X+1541200Y+2497250D03*
D62*
X+1736200Y+2302250D03*
X+1736200Y+2692250D03*
X+1346200Y+2692250D03*
X+1346200Y+2302250D03*
D63*
X+466300Y+3864350D03*
X+466300Y+4324350D03*
X+241300Y+4324350D03*
X+241300Y+3864350D03*
X+466300Y+4670800D03*
X+466300Y+5130800D03*
X+241300Y+5130800D03*
X+241300Y+4670800D03*
D64*
X+762000Y+4984750D03*
X+762000Y+4819750D03*
X+241300Y+368200D03*
X+241300Y+203200D03*
D65*
X+355600Y+3467100D03*
D66*
X+387350Y+984350D03*
X+387350Y+1144350D03*
X+387350Y+368200D03*
X+387350Y+208200D03*
D64*
X+241300Y+1149350D03*
X+241300Y+984350D03*
D67*
X+1149350Y+2686800D03*
X+989350Y+2686800D03*
D66*
X+1501200Y+3117700D03*
X+1501200Y+2957700D03*
X+387350Y+1765400D03*
X+387350Y+1925400D03*
X+908050Y+4011950D03*
X+908050Y+4171950D03*
D64*
X+762000Y+4013200D03*
X+762000Y+4178200D03*
D67*
X+1149350Y+2204200D03*
X+989350Y+2204200D03*
D66*
X+1541200Y+2035550D03*
X+1541200Y+1875550D03*
X+1706300Y+1875550D03*
X+1706300Y+2035550D03*
D67*
X+4140200Y+3644900D03*
X+3980200Y+3644900D03*
D68*
X+1256030Y+1286610D03*
X+1256030Y+1499970D03*
D69*
X+1149350Y+208200D03*
D74*
X+1149350Y+335200D03*
X+1022350Y+208200D03*
X+1022350Y+335200D03*
X+895350Y+208200D03*
X+895350Y+335200D03*
X+768350Y+208200D03*
X+768350Y+335200D03*
D66*
X+1666300Y+2957700D03*
X+1666300Y+3117700D03*
D75*
X+4864100Y+254000D03*
D76*
X+5118100Y+254000D03*
X+5372100Y+254000D03*
X+5626100Y+254000D03*
X+5880100Y+254000D03*
X+6134100Y+254000D03*
X+6388100Y+254000D03*
D75*
X+2324100Y+254000D03*
D76*
X+2578100Y+254000D03*
X+2832100Y+254000D03*
X+3086100Y+254000D03*
X+3340100Y+254000D03*
X+3594100Y+254000D03*
X+3848100Y+254000D03*
X+4102100Y+254000D03*
X+4356100Y+254000D03*
X+4610100Y+254000D03*
D75*
X+1917700Y+5080000D03*
D76*
X+2171700Y+5080000D03*
X+2425700Y+5080000D03*
X+2679700Y+5080000D03*
X+2933700Y+5080000D03*
X+3187700Y+5080000D03*
X+3441700Y+5080000D03*
X+3695700Y+5080000D03*
X+3949700Y+5080000D03*
X+4203700Y+5080000D03*
D75*
X+4610100Y+5080000D03*
D76*
X+4864100Y+5080000D03*
X+5118100Y+5080000D03*
X+5372100Y+5080000D03*
X+5626100Y+5080000D03*
X+5880100Y+5080000D03*
X+6134100Y+5080000D03*
X+6388100Y+5080000D03*
D77*
X+3867650Y+1270000D03*
X+3962650Y+1270000D03*
X+4057650Y+1270000D03*
X+4057650Y+1530000D03*
X+3962650Y+1530000D03*
X+3867650Y+1530000D03*
D78*
X+3289300Y+1333500D03*
X+3289300Y+1718500D03*
D79*
X+5541650Y+3236999D03*
X+5461650Y+3236999D03*
X+5381650Y+3236999D03*
X+5301650Y+3236999D03*
X+5221650Y+3236999D03*
X+5141650Y+3236999D03*
X+5061650Y+3236999D03*
X+4981650Y+3236999D03*
X+4901650Y+3236999D03*
X+4821650Y+3236999D03*
X+4741650Y+3236999D03*
D80*
X+4571650Y+3066999D03*
X+4571650Y+2986999D03*
X+4571650Y+2906999D03*
X+4571650Y+2826999D03*
X+4571650Y+2746999D03*
X+4571650Y+2666999D03*
X+4571650Y+2586999D03*
X+4571650Y+2506999D03*
X+4571650Y+2426999D03*
X+4571650Y+2346999D03*
X+4571650Y+2266999D03*
D79*
X+4741650Y+2096999D03*
X+4821650Y+2096999D03*
X+4901650Y+2096999D03*
X+4981650Y+2096999D03*
X+5061650Y+2096999D03*
X+5141650Y+2096999D03*
X+5221650Y+2096999D03*
X+5301650Y+2096999D03*
X+5381650Y+2096999D03*
X+5461650Y+2096999D03*
X+5541650Y+2096999D03*
D80*
X+5711650Y+2266999D03*
X+5711650Y+2346999D03*
X+5711650Y+2426999D03*
X+5711650Y+2506999D03*
X+5711650Y+2586999D03*
X+5711650Y+2666999D03*
X+5711650Y+2746999D03*
X+5711650Y+2826999D03*
X+5711650Y+2906999D03*
X+5711650Y+2986999D03*
X+5711650Y+3066999D03*
D66*
X+4222750Y+1270000D03*
X+4222750Y+1430000D03*
D68*
X+4826000Y+1564640D03*
X+4826000Y+1778000D03*
D66*
X+3702050Y+1270000D03*
X+3702050Y+1430000D03*
D68*
X+4603750Y+1564640D03*
X+4603750Y+1778000D03*
D66*
X+4220150Y+1618750D03*
X+4220150Y+1778750D03*
D67*
X+3877250Y+1778750D03*
X+4037250Y+1778750D03*
D66*
X+4397950Y+1778750D03*
X+4397950Y+1618750D03*
X+3699450Y+1778750D03*
X+3699450Y+1618750D03*
D81*
X+1454150Y+1238350D03*
X+1644650Y+1238350D03*
X+1548130Y+1499970D03*
D67*
X+1460500Y+895450D03*
X+1620500Y+895450D03*
D66*
X+908050Y+4818400D03*
X+908050Y+4978400D03*
D67*
X+4064000Y+3079750D03*
X+4224000Y+3079750D03*
X+4064000Y+3244850D03*
X+4224000Y+3244850D03*
X+4064000Y+2914650D03*
X+4224000Y+2914650D03*
X+6010100Y+3098799D03*
X+6170100Y+3098799D03*
D82*
X+6010100Y+2914649D03*
X+6010100Y+2724149D03*
X+6271720Y+2820669D03*
D67*
X+5201900Y+3644900D03*
X+5361900Y+3644900D03*
D66*
X+5153600Y+1778750D03*
X+5153600Y+1618750D03*
D67*
X+6010100Y+2546349D03*
X+6170100Y+2546349D03*
X+4224000Y+2749550D03*
X+4064000Y+2749550D03*
D82*
X+4216400Y+2381250D03*
X+4216400Y+2571750D03*
X+3954780Y+2475230D03*
D67*
X+4064000Y+2197100D03*
X+4224000Y+2197100D03*
X+4224000Y+2032000D03*
X+4064000Y+2032000D03*
D64*
X+241300Y+1930400D03*
X+241300Y+1765400D03*
D83*
X+2034650Y+2577250D03*
X+2034650Y+2831250D03*
X+4937200Y+3478299D03*
X+6010100Y+2374899D03*
X+2199750Y+2704250D03*
X+1257300Y+654050D03*
D84*
X+863600Y+3467100D03*
X+1968500Y+254000D03*
X+6146800Y+3810000D03*
D66*
X+2863850Y+1430000D03*
X+2863850Y+1270000D03*
D67*
X+2692400Y+1778000D03*
X+2532400Y+1778000D03*
D75*
X+2324100Y+508000D03*
D76*
X+2578100Y+508000D03*
X+2832100Y+508000D03*
X+3086100Y+508000D03*
X+3340100Y+508000D03*
X+3594100Y+508000D03*
X+3848100Y+508000D03*
X+4102100Y+508000D03*
X+4356100Y+508000D03*
X+4610100Y+508000D03*
D75*
X+4864100Y+508000D03*
D76*
X+5118100Y+508000D03*
X+5372100Y+508000D03*
X+5626100Y+508000D03*
X+5880100Y+508000D03*
X+6134100Y+508000D03*
X+6388100Y+508000D03*
D75*
X+4610100Y+4826000D03*
D76*
X+4864100Y+4826000D03*
X+5118100Y+4826000D03*
X+5372100Y+4826000D03*
X+5626100Y+4826000D03*
X+5880100Y+4826000D03*
X+6134100Y+4826000D03*
X+6388100Y+4826000D03*
D75*
X+1917700Y+4826000D03*
D76*
X+2171700Y+4826000D03*
X+2425700Y+4826000D03*
X+2679700Y+4826000D03*
X+2933700Y+4826000D03*
X+3187700Y+4826000D03*
X+3441700Y+4826000D03*
X+3695700Y+4826000D03*
X+3949700Y+4826000D03*
X+4203700Y+4826000D03*
D85*
X+1060200Y+1085950D03*
X+965200Y+1085950D03*
X+870200Y+1085950D03*
X+870200Y+825950D03*
X+1060200Y+825950D03*
D81*
X+1059180Y+1499970D03*
X+868680Y+1499970D03*
X+965200Y+1238350D03*
D68*
X+678180Y+1499970D03*
X+678180Y+1286610D03*
D66*
X+679200Y+881500D03*
X+679200Y+1041500D03*
D86*
X+1075690Y+657960D03*
X+862330Y+657960D03*
D68*
X+1257050Y+1085950D03*
X+1257050Y+872590D03*
D83*
X+1837750Y+3073250D03*
D87*
X+5030700Y+3644900D03*
X+5030700Y+3771900D03*
X+5030700Y+3898900D03*
X+5030700Y+4025900D03*
X+4490700Y+4025900D03*
X+4313150Y+4025900D03*
X+4313150Y+3898900D03*
X+4490700Y+3898900D03*
X+4313150Y+3771900D03*
X+4490700Y+3771900D03*
X+4313150Y+3644900D03*
X+4490700Y+3644900D03*
D88*
X+1714500Y+4616450D03*
X+1624500Y+4616450D03*
X+1534500Y+4616450D03*
X+1444500Y+4616450D03*
X+1444500Y+4496450D03*
X+1534500Y+4496450D03*
X+1624500Y+4496450D03*
X+1714500Y+4496450D03*
D89*
X+1562100Y+3787900D03*
X+1562100Y+4787900D03*
D67*
X+760750Y+4616450D03*
X+920750Y+4616450D03*
D90*
X+1171150Y+4830800D03*
X+1171150Y+5130800D03*
D67*
X+1253700Y+4616450D03*
X+1093700Y+4616450D03*
D83*
X+1320800Y+4419600D03*
X+1092200Y+4419600D03*
D81*
X+1487170Y+4088780D03*
X+1677670Y+4088780D03*
X+1581150Y+4350400D03*
D67*
X+1460500Y+1060550D03*
X+1620500Y+1060550D03*
D91*
X+4845050Y+1339850D03*
X+4435050Y+1339850D03*
D92*
X+2692400Y+1560600D03*
X+2642400Y+1560600D03*
X+2592400Y+1560600D03*
X+2542400Y+1560600D03*
X+2542400Y+1270000D03*
X+2592400Y+1270000D03*
X+2642400Y+1270000D03*
X+2692400Y+1270000D03*
D68*
X+2863850Y+1784350D03*
X+2863850Y+1570990D03*
D93*
X+502100Y+2377600D03*
X+502100Y+2955600D03*
D94*
X+552100Y+2234600D03*
X+552100Y+3098600D03*
D95*
X+134100Y+2234600D03*
X+134100Y+3098600D03*
D96*
X+609600Y+2986600D03*
X+609600Y+2906600D03*
D97*
X+609600Y+2791600D03*
X+609600Y+2691600D03*
X+609600Y+2641600D03*
X+609600Y+2541600D03*
D96*
X+609600Y+2346600D03*
X+609600Y+2426600D03*
D97*
X+609600Y+2491600D03*
X+609600Y+2591600D03*
X+609600Y+2741600D03*
X+609600Y+2841600D03*
D98*
X+1179850Y+3048750D03*
X+959850Y+3048750D03*
D67*
X+1149350Y+2371840D03*
X+989350Y+2371840D03*
X+1149350Y+2851900D03*
X+989350Y+2851900D03*
D55*
X+6800850Y+762000D02*
X+6800320Y+774958D01*
X+6796016Y+800876D01*
X+6787025Y+826794D01*
X+6772380Y+852712D01*
X+6749976Y+878466D01*
X+6724058Y+897958D01*
X+6698140Y+910530D01*
X+6672222Y+917866D01*
X+6646304Y+920694D01*
X+6642100Y+920750D01*
X+6483350Y+762000D02*
X+6483880Y+774958D01*
X+6488184Y+800876D01*
X+6497175Y+826794D01*
X+6511820Y+852712D01*
X+6534224Y+878466D01*
X+6560142Y+897958D01*
X+6586060Y+910530D01*
X+6611978Y+917866D01*
X+6637896Y+920694D01*
X+6642100Y+920750D01*
X+6483350Y+762000D02*
X+6483880Y+749042D01*
X+6488184Y+723124D01*
X+6497175Y+697206D01*
X+6511820Y+671288D01*
X+6534224Y+645534D01*
X+6560142Y+626042D01*
X+6586060Y+613470D01*
X+6611978Y+606134D01*
X+6637896Y+603306D01*
X+6642100Y+603250D01*
X+6800850Y+762000D02*
X+6800320Y+749042D01*
X+6796016Y+723124D01*
X+6787025Y+697206D01*
X+6772380Y+671288D01*
X+6749976Y+645534D01*
X+6724058Y+626042D01*
X+6698140Y+613470D01*
X+6672222Y+606134D01*
X+6646304Y+603306D01*
X+6642100Y+603250D01*
X+6800850Y+3556000D02*
X+6800320Y+3568958D01*
X+6796016Y+3594876D01*
X+6787025Y+3620794D01*
X+6772380Y+3646712D01*
X+6749976Y+3672466D01*
X+6724058Y+3691958D01*
X+6698140Y+3704530D01*
X+6672222Y+3711866D01*
X+6646304Y+3714694D01*
X+6642100Y+3714750D01*
X+6483350Y+3556000D02*
X+6483880Y+3568958D01*
X+6488184Y+3594876D01*
X+6497175Y+3620794D01*
X+6511820Y+3646712D01*
X+6534224Y+3672466D01*
X+6560142Y+3691958D01*
X+6586060Y+3704530D01*
X+6611978Y+3711866D01*
X+6637896Y+3714694D01*
X+6642100Y+3714750D01*
X+6483350Y+3556000D02*
X+6483880Y+3543042D01*
X+6488184Y+3517124D01*
X+6497175Y+3491206D01*
X+6511820Y+3465288D01*
X+6534224Y+3439534D01*
X+6560142Y+3420042D01*
X+6586060Y+3407470D01*
X+6611978Y+3400134D01*
X+6637896Y+3397306D01*
X+6642100Y+3397250D01*
X+6800850Y+3556000D02*
X+6800320Y+3543042D01*
X+6796016Y+3517124D01*
X+6787025Y+3491206D01*
X+6772380Y+3465288D01*
X+6749976Y+3439534D01*
X+6724058Y+3420042D01*
X+6698140Y+3407470D01*
X+6672222Y+3400134D01*
X+6646304Y+3397306D01*
X+6642100Y+3397250D01*
X+1720850Y+5080000D02*
X+1720320Y+5092958D01*
X+1716016Y+5118876D01*
X+1707025Y+5144794D01*
X+1692380Y+5170712D01*
X+1669976Y+5196466D01*
X+1644058Y+5215958D01*
X+1618140Y+5228530D01*
X+1592222Y+5235866D01*
X+1566304Y+5238694D01*
X+1562100Y+5238750D01*
X+1403350Y+5080000D02*
X+1403880Y+5092958D01*
X+1408184Y+5118876D01*
X+1417175Y+5144794D01*
X+1431820Y+5170712D01*
X+1454224Y+5196466D01*
X+1480142Y+5215958D01*
X+1506060Y+5228530D01*
X+1531978Y+5235866D01*
X+1557896Y+5238694D01*
X+1562100Y+5238750D01*
X+1403350Y+5080000D02*
X+1403880Y+5067042D01*
X+1408184Y+5041124D01*
X+1417175Y+5015206D01*
X+1431820Y+4989288D01*
X+1454224Y+4963534D01*
X+1480142Y+4944042D01*
X+1506060Y+4931470D01*
X+1531978Y+4924134D01*
X+1557896Y+4921306D01*
X+1562100Y+4921250D01*
X+1720850Y+5080000D02*
X+1720320Y+5067042D01*
X+1716016Y+5041124D01*
X+1707025Y+5015206D01*
X+1692380Y+4989288D01*
X+1669976Y+4963534D01*
X+1644058Y+4944042D01*
X+1618140Y+4931470D01*
X+1592222Y+4924134D01*
X+1566304Y+4921306D01*
X+1562100Y+4921250D01*
X+1720850Y+254000D02*
X+1720320Y+266958D01*
X+1716016Y+292876D01*
X+1707025Y+318794D01*
X+1692380Y+344712D01*
X+1669976Y+370466D01*
X+1644058Y+389958D01*
X+1618140Y+402530D01*
X+1592222Y+409866D01*
X+1566304Y+412694D01*
X+1562100Y+412750D01*
X+1403350Y+254000D02*
X+1403880Y+266958D01*
X+1408184Y+292876D01*
X+1417175Y+318794D01*
X+1431820Y+344712D01*
X+1454224Y+370466D01*
X+1480142Y+389958D01*
X+1506060Y+402530D01*
X+1531978Y+409866D01*
X+1557896Y+412694D01*
X+1562100Y+412750D01*
X+1403350Y+254000D02*
X+1403880Y+241042D01*
X+1408184Y+215124D01*
X+1417175Y+189206D01*
X+1431820Y+163288D01*
X+1454224Y+137534D01*
X+1480142Y+118042D01*
X+1506060Y+105470D01*
X+1531978Y+98134D01*
X+1557896Y+95306D01*
X+1562100Y+95250D01*
X+1720850Y+254000D02*
X+1720320Y+241042D01*
X+1716016Y+215124D01*
X+1707025Y+189206D01*
X+1692380Y+163288D01*
X+1669976Y+137534D01*
X+1644058Y+118042D01*
X+1618140Y+105470D01*
X+1592222Y+98134D01*
X+1566304Y+95306D01*
X+1562100Y+95250D01*
X+127000Y+0D02*
X+101032Y+2527D01*
X+77018Y+9798D01*
X+55423Y+21347D01*
X+36711Y+36711D01*
X+21348Y+55423D01*
X+9798Y+77018D01*
X+2527Y+101032D01*
X+0Y+127000D01*
X+0Y+5207000D01*
X+2527Y+5232967D01*
X+9798Y+5256981D01*
X+21348Y+5278577D01*
X+36711Y+5297289D01*
X+55423Y+5312652D01*
X+77018Y+5324202D01*
X+101032Y+5331473D01*
X+127000Y+5334000D01*
X+6515100Y+5334000D01*
X+6642100Y+5207000D01*
X+6642100Y+4064000D01*
X+6896100Y+3810000D01*
X+6896100Y+508000D01*
X+6642100Y+254000D01*
X+6642100Y+127000D01*
X+6639573Y+101032D01*
X+6632302Y+77018D01*
X+6620752Y+55423D01*
X+6605389Y+36711D01*
X+6586677Y+21347D01*
X+6565081Y+9798D01*
X+6541067Y+2527D01*
X+6515100Y+0D01*
X+127000Y+0D01*
X+531310Y+2377600D02*
X+531209Y+2380024D01*
X+530390Y+2384873D01*
X+528676Y+2389722D01*
X+525874Y+2394571D01*
X+521589Y+2399358D01*
X+516740Y+2402876D01*
X+511891Y+2405120D01*
X+507042Y+2406389D01*
X+502193Y+2406810D01*
X+502100Y+2406810D01*
X+472890Y+2377600D02*
X+472991Y+2380024D01*
X+473810Y+2384873D01*
X+475524Y+2389722D01*
X+478326Y+2394571D01*
X+482611Y+2399358D01*
X+487460Y+2402876D01*
X+492309Y+2405120D01*
X+497158Y+2406389D01*
X+502007Y+2406810D01*
X+502100Y+2406810D01*
X+472890Y+2377600D02*
X+472991Y+2375176D01*
X+473810Y+2370327D01*
X+475524Y+2365478D01*
X+478326Y+2360629D01*
X+482611Y+2355842D01*
X+487460Y+2352324D01*
X+492309Y+2350080D01*
X+497158Y+2348811D01*
X+502007Y+2348390D01*
X+502100Y+2348390D01*
X+531310Y+2377600D02*
X+531209Y+2375176D01*
X+530390Y+2370327D01*
X+528676Y+2365478D01*
X+525874Y+2360629D01*
X+521589Y+2355842D01*
X+516740Y+2352324D01*
X+511891Y+2350080D01*
X+507042Y+2348811D01*
X+502193Y+2348390D01*
X+502100Y+2348390D01*
X+531310Y+2955600D02*
X+531209Y+2958024D01*
X+530390Y+2962873D01*
X+528676Y+2967722D01*
X+525874Y+2972571D01*
X+521589Y+2977358D01*
X+516740Y+2980876D01*
X+511891Y+2983120D01*
X+507042Y+2984389D01*
X+502193Y+2984810D01*
X+502100Y+2984810D01*
X+472890Y+2955600D02*
X+472991Y+2958024D01*
X+473810Y+2962873D01*
X+475524Y+2967722D01*
X+478326Y+2972571D01*
X+482611Y+2977358D01*
X+487460Y+2980876D01*
X+492309Y+2983120D01*
X+497158Y+2984389D01*
X+502007Y+2984810D01*
X+502100Y+2984810D01*
X+472890Y+2955600D02*
X+472991Y+2953176D01*
X+473810Y+2948327D01*
X+475524Y+2943478D01*
X+478326Y+2938629D01*
X+482611Y+2933842D01*
X+487460Y+2930324D01*
X+492309Y+2928080D01*
X+497158Y+2926811D01*
X+502007Y+2926390D01*
X+502100Y+2926390D01*
X+531310Y+2955600D02*
X+531209Y+2953176D01*
X+530390Y+2948327D01*
X+528676Y+2943478D01*
X+525874Y+2938629D01*
X+521589Y+2933842D01*
X+516740Y+2930324D01*
X+511891Y+2928080D01*
X+507042Y+2926811D01*
X+502193Y+2926390D01*
X+502100Y+2926390D01*
M02*
