%TF.GenerationSoftware,KiCad,Pcbnew,8.0.7*%
%TF.CreationDate,2025-01-01T10:19:48+07:00*%
%TF.ProjectId,PIC16DevKit,50494331-3644-4657-964b-69742e6b6963,rev?*%
%TF.SameCoordinates,Original*%
%TF.FileFunction,Plated,1,4,PTH,Mixed*%
%TF.FilePolarity,Positive*%
%FSLAX46Y46*%
G04 Gerber Fmt 4.6, Leading zero omitted, Abs format (unit mm)*
G04 Created by KiCad (PCBNEW 8.0.7) date 2025-01-01 10:19:48*
%MOMM*%
%LPD*%
G01*
G04 APERTURE LIST*
%TA.AperFunction,ViaDrill*%
%ADD10C,0.300000*%
%TD*%
G04 aperture for slot hole*
%TA.AperFunction,ComponentDrill*%
%ADD11C,0.500000*%
%TD*%
%TA.AperFunction,ComponentDrill*%
%ADD12C,0.550000*%
%TD*%
%TA.AperFunction,ComponentDrill*%
%ADD13C,1.000000*%
%TD*%
G04 APERTURE END LIST*
D10*
X62220500Y-65202600D03*
X62220500Y-66472600D03*
X62220500Y-70032600D03*
X62220500Y-71302600D03*
X62399100Y-83993200D03*
X62399100Y-89073200D03*
X62399100Y-90493200D03*
X62399100Y-95573200D03*
X62497100Y-50152600D03*
X62498700Y-57012200D03*
X63669100Y-83993200D03*
X63669100Y-89073200D03*
X63669100Y-90493200D03*
X63669100Y-95573200D03*
X64939100Y-83993200D03*
X64939100Y-89073200D03*
X64939100Y-90493200D03*
X64939100Y-95573200D03*
X67107100Y-45743600D03*
X67107100Y-48283600D03*
X67107100Y-52601600D03*
X67107100Y-55141600D03*
X67703150Y-74625100D03*
X67703150Y-75625100D03*
X67703150Y-76625100D03*
X68311500Y-62839200D03*
X68348501Y-72357300D03*
X68377100Y-47013600D03*
X68377100Y-53871600D03*
X68399101Y-90493200D03*
X68399101Y-95573200D03*
X68703150Y-74625100D03*
X68703150Y-75625100D03*
X68703150Y-76625100D03*
X68883000Y-63410700D03*
X69079500Y-62579200D03*
X69647100Y-45743600D03*
X69647100Y-48283600D03*
X69647100Y-52601600D03*
X69647100Y-55141600D03*
X69669101Y-90493200D03*
X69669101Y-95573200D03*
X70132501Y-76514100D03*
X70917100Y-47013600D03*
X70917100Y-53871600D03*
X70939101Y-90493200D03*
X70939101Y-95573200D03*
X72575149Y-62798100D03*
X72963701Y-85259100D03*
X72976700Y-87442100D03*
X73265129Y-65716544D03*
X73623500Y-55573200D03*
X73666151Y-63964099D03*
X73863701Y-83989100D03*
X73992700Y-86807100D03*
X73992700Y-88077100D03*
X74026500Y-68263600D03*
X74113658Y-64868016D03*
X74273500Y-55023200D03*
X74273500Y-56073200D03*
X74371750Y-73753300D03*
X74639700Y-78779101D03*
X74713701Y-85259100D03*
X74730815Y-63460859D03*
X74730815Y-71542342D03*
X74739700Y-81534100D03*
X74969700Y-89172100D03*
X75008700Y-86807100D03*
X75008700Y-88077100D03*
X75296500Y-66993600D03*
X75296500Y-68263600D03*
X75296500Y-69533600D03*
X75862185Y-63460858D03*
X75862185Y-71542342D03*
X76016151Y-64714099D03*
X76203500Y-56676600D03*
X76239700Y-89172100D03*
X76566500Y-68263600D03*
X76911750Y-73753300D03*
X76911750Y-76293300D03*
X77010150Y-95892100D03*
X77035928Y-64911399D03*
X77232785Y-59076411D03*
X77509700Y-89172100D03*
X77559100Y-49263600D03*
X77635221Y-62612106D03*
X77732785Y-59776411D03*
X78238993Y-79484806D03*
X78238993Y-81484806D03*
X78238993Y-83484806D03*
X78282785Y-59076411D03*
X78314738Y-72863523D03*
X78404978Y-69816574D03*
X78412699Y-52822200D03*
X78795747Y-64870420D03*
X78986004Y-72101523D03*
X79451750Y-73753300D03*
X79510150Y-95892100D03*
X81154700Y-78881200D03*
X82010150Y-95892100D03*
X82038993Y-85384806D03*
X82798500Y-63469600D03*
X83015590Y-75310937D03*
X83261750Y-48354300D03*
X83261750Y-50894300D03*
X83261750Y-53434300D03*
X83433500Y-64104600D03*
X83537546Y-68692981D03*
X84510150Y-95892100D03*
X84803000Y-86542700D03*
X84803000Y-89082700D03*
X85588993Y-79184806D03*
X85622150Y-80824100D03*
X85622150Y-81774100D03*
X85801750Y-48354300D03*
X85801750Y-50894300D03*
X85801750Y-53434300D03*
X85801750Y-62324300D03*
X85801750Y-64864300D03*
X85801750Y-69943300D03*
X85801750Y-73753300D03*
X85801750Y-76293300D03*
X85840500Y-59278600D03*
X87343000Y-89082700D03*
X87343000Y-91622700D03*
X88341750Y-48354300D03*
X88341750Y-50894300D03*
X88341750Y-62324300D03*
X88341750Y-64864300D03*
X88341750Y-67403300D03*
X88360151Y-84686100D03*
X88504500Y-59278600D03*
X89210151Y-84686100D03*
X89883000Y-89082700D03*
X89883000Y-91622700D03*
X90060151Y-84686100D03*
X90881750Y-48354300D03*
X90881750Y-50894300D03*
X90881750Y-53434300D03*
X90881750Y-62324300D03*
X90881750Y-64864300D03*
X90881750Y-67403300D03*
X90881750Y-69943300D03*
X90881750Y-73753300D03*
X90881750Y-76293300D03*
X90881750Y-78833300D03*
X91549500Y-56701600D03*
X92369191Y-67746101D03*
X92369192Y-68632308D03*
X92446151Y-82700099D03*
X92766151Y-87059098D03*
X92766151Y-87864099D03*
X93421750Y-48354300D03*
X93421750Y-50894300D03*
X93421750Y-53434300D03*
X93421750Y-55974300D03*
X93421750Y-58514300D03*
X93421750Y-62324300D03*
X93421750Y-76293300D03*
X93421750Y-78833300D03*
X93571149Y-80824100D03*
X94132540Y-64585753D03*
X94566151Y-86920099D03*
X94621149Y-80824100D03*
X94963000Y-89082700D03*
X94963000Y-91622700D03*
X95852855Y-68940972D03*
X95961750Y-48354300D03*
X95961750Y-50894300D03*
X95961750Y-53434300D03*
X95961750Y-55974300D03*
X95961750Y-58514300D03*
X95961750Y-76293300D03*
X95961750Y-78833300D03*
X96418540Y-69506657D03*
X96960967Y-61757325D03*
X96984225Y-66306067D03*
X96984225Y-70072343D03*
X97231750Y-82643300D03*
X97549911Y-65740381D03*
X97549911Y-70638028D03*
X98075314Y-67284314D03*
X98115596Y-65174696D03*
X98501750Y-48354300D03*
X98501750Y-50894300D03*
X98501750Y-53434300D03*
X98501750Y-55974300D03*
X98501750Y-58514300D03*
X98501750Y-76293300D03*
X98501750Y-78833300D03*
X98681282Y-64609010D03*
X99771750Y-85183300D03*
X99771750Y-90263300D03*
X100817023Y-74159141D03*
X101041750Y-48354300D03*
X101041750Y-50894300D03*
X101041750Y-53434300D03*
X101041750Y-76293300D03*
X101041750Y-78833300D03*
X102269266Y-64536044D03*
X102269266Y-68336044D03*
X102311750Y-82643300D03*
X102311750Y-87723300D03*
X102311750Y-90263300D03*
X102886243Y-72181792D03*
X103514266Y-57931044D03*
X103581750Y-48354300D03*
X103581750Y-50894300D03*
X103581750Y-76293300D03*
X103726076Y-67855977D03*
X103832928Y-72023399D03*
X104398614Y-71457714D03*
X104851750Y-55974300D03*
X104851750Y-80103300D03*
X104851750Y-85183300D03*
X104851750Y-87723300D03*
X104851750Y-90263300D03*
X104918243Y-74240085D03*
X104943517Y-67769905D03*
X105610928Y-62577011D03*
X106220338Y-67624455D03*
X106615300Y-64190067D03*
X106669956Y-68575378D03*
X107324266Y-61741044D03*
X107391750Y-55974300D03*
X107391750Y-58514300D03*
X107391750Y-82643300D03*
X107391750Y-85183300D03*
X107391750Y-87723300D03*
X107391750Y-90263300D03*
X107391750Y-92803300D03*
X107391750Y-95343300D03*
X108661750Y-50894300D03*
X109005041Y-65971123D03*
X109931750Y-48354300D03*
X109931750Y-55974300D03*
X109931750Y-58514300D03*
X109931750Y-82643300D03*
X109931750Y-85183300D03*
X109931750Y-87723300D03*
X109931750Y-90263300D03*
X109931750Y-92803300D03*
X109931750Y-95343300D03*
X109991266Y-64408044D03*
X111010314Y-55559315D03*
X111025314Y-50698601D03*
X111053315Y-52223600D03*
X112026314Y-62372996D03*
X112026314Y-63361996D03*
X112471750Y-82643300D03*
X112471750Y-85183300D03*
X112471750Y-87723300D03*
X112471750Y-90263300D03*
X113741750Y-58513300D03*
X113741750Y-61053300D03*
X113741750Y-63593300D03*
X113741750Y-66133300D03*
X113741750Y-72483300D03*
X115011750Y-48354300D03*
X115194021Y-57870608D03*
X115793314Y-57271315D03*
X116271750Y-90263300D03*
X116281750Y-58513300D03*
X116281750Y-61053300D03*
X116281750Y-63593300D03*
X116281750Y-68673300D03*
X116281750Y-72483300D03*
X116281750Y-75023300D03*
X116281750Y-77563300D03*
X116281750Y-82643300D03*
X116281750Y-85183300D03*
X116281750Y-87723300D03*
X116486950Y-55581792D03*
X117286950Y-53881792D03*
X117551750Y-48354300D03*
X118821750Y-58513300D03*
X118821750Y-61053300D03*
X118821750Y-72483300D03*
X118821750Y-75023300D03*
X118821750Y-77563300D03*
X118821750Y-85183300D03*
X118821750Y-87723300D03*
X120091750Y-48354300D03*
X121361750Y-58513300D03*
X121361750Y-87723300D03*
X121361750Y-90263300D03*
X123539200Y-52293600D03*
X123539200Y-55753600D03*
X123791985Y-61053300D03*
X123901750Y-58513300D03*
X123901750Y-90263300D03*
X124619200Y-54023600D03*
X125171750Y-48354300D03*
X126441750Y-64863300D03*
X126441750Y-67403300D03*
X126441750Y-69943300D03*
X126441750Y-72483300D03*
X126441750Y-75023300D03*
X126441750Y-77563300D03*
X126441750Y-80103300D03*
X126441750Y-82643300D03*
X126441750Y-85183300D03*
D11*
%TO.C,J2*%
X61770500Y-63932600D02*
X62670500Y-63932600D01*
X61770500Y-72572600D02*
X62670500Y-72572600D01*
X65800500Y-63932600D02*
X67000500Y-63932600D01*
X65800500Y-72572600D02*
X67000500Y-72572600D01*
D12*
%TO.C,J4*%
X80070399Y-64621072D03*
X80968424Y-65519097D03*
X81866450Y-66417123D03*
X82764475Y-67315148D03*
D13*
%TO.C,MD1*%
X79451750Y-45814300D03*
X81991750Y-45814300D03*
X84531750Y-45814300D03*
X87071750Y-45814300D03*
X88613000Y-94162700D03*
X89611750Y-45814300D03*
X91153000Y-94162700D03*
X92151750Y-45814300D03*
X93693000Y-94162700D03*
X94691750Y-45814300D03*
X96233000Y-94162700D03*
X97231750Y-45814300D03*
X98773000Y-94162700D03*
X99771750Y-45814300D03*
X101313000Y-94162700D03*
X102311750Y-45814300D03*
X103853000Y-94162700D03*
X106320050Y-45814300D03*
X106393000Y-94162700D03*
X108860050Y-45814300D03*
X111400050Y-45814300D03*
X111473200Y-94162700D03*
X113940050Y-45814300D03*
X114013200Y-94162700D03*
X116480050Y-45814300D03*
X116553200Y-94162700D03*
X119020050Y-45814300D03*
X119093200Y-94162700D03*
X121560050Y-45814300D03*
X121633200Y-94162700D03*
%TO.C,J3*%
X122860175Y-63682349D03*
X122860175Y-66222350D03*
X122860175Y-68762350D03*
X122860175Y-71302350D03*
X122860175Y-73842349D03*
X122860175Y-76382351D03*
X122860175Y-78922350D03*
X122860175Y-81462350D03*
X122860175Y-84002350D03*
X122860175Y-86542351D03*
%TO.C,MD1*%
X124100050Y-45814300D03*
X124173200Y-94162700D03*
M02*
