M48
; DRILL file {KiCad 8.0.2} date 2025-01-04T13:15:34+0700
; FORMAT={-:-/ absolute / inch / decimal}
; #@! TF.CreationDate,2025-01-04T13:15:34+07:00
; #@! TF.GenerationSoftware,Kicad,Pcbnew,8.0.2
; #@! TF.FileFunction,Plated,1,4,PTH
FMAT,2
INCH
; #@! TA.AperFunction,Plated,PTH,ViaDrill
T1C0.0118
; #@! TA.AperFunction,Plated,PTH,ComponentDrill
T2C0.0197
; #@! TA.AperFunction,Plated,PTH,ComponentDrill
T3C0.0217
; #@! TA.AperFunction,Plated,PTH,ComponentDrill
T4C0.0394
%
G90
G05
T1
X2.4496Y-2.567
X2.4496Y-2.617
X2.4496Y-2.7572
X2.4496Y-2.8072
X2.4567Y-3.3068
X2.4567Y-3.5068
X2.4567Y-3.5627
X2.4567Y-3.7627
X2.4605Y-1.9745
X2.4606Y-2.2446
X2.5067Y-3.3068
X2.5067Y-3.5068
X2.5067Y-3.5627
X2.5067Y-3.7627
X2.5567Y-3.3068
X2.5567Y-3.5068
X2.5567Y-3.5627
X2.5567Y-3.7627
X2.642Y-1.8009
X2.642Y-1.9009
X2.642Y-2.0709
X2.642Y-2.1709
X2.6655Y-2.938
X2.6655Y-2.9774
X2.6655Y-3.0167
X2.6894Y-2.474
X2.6909Y-2.8487
X2.692Y-1.8509
X2.692Y-2.1209
X2.6929Y-3.5627
X2.6929Y-3.7627
X2.7048Y-2.938
X2.7048Y-2.9774
X2.7048Y-3.0167
X2.7119Y-2.4965
X2.7197Y-2.4637
X2.742Y-1.8009
X2.742Y-1.9009
X2.742Y-2.0709
X2.742Y-2.1709
X2.7429Y-3.5627
X2.7429Y-3.7627
X2.7611Y-3.0124
X2.778Y-2.5338
X2.792Y-1.8509
X2.792Y-2.1209
X2.7929Y-3.5627
X2.7929Y-3.7627
X2.8223Y-2.6241
X2.8573Y-2.4724
X2.8726Y-3.3567
X2.8731Y-3.4426
X2.8845Y-2.5873
X2.8986Y-2.1879
X2.9002Y-2.5183
X2.908Y-3.3067
X2.9131Y-3.4176
X2.9131Y-3.4676
X2.9144Y-2.6875
X2.9179Y-2.5539
X2.9242Y-2.1663
X2.9242Y-2.2076
X2.928Y-2.9037
X2.9386Y-3.1015
X2.9415Y-3.3567
X2.9422Y-2.4985
X2.9422Y-2.8166
X2.9425Y-3.21
X2.9516Y-3.5107
X2.9531Y-3.4176
X2.9531Y-3.4676
X2.9644Y-2.6375
X2.9644Y-2.6875
X2.9644Y-2.7375
X2.9867Y-2.4985
X2.9867Y-2.8166
X2.9928Y-2.5478
X3.0001Y-2.2314
X3.0016Y-3.5107
X3.0144Y-2.6875
X3.028Y-2.9037
X3.028Y-3.0037
X3.0319Y-3.7753
X3.0329Y-2.5556
X3.0407Y-2.3258
X3.0516Y-3.5107
X3.0535Y-1.9395
X3.0565Y-2.465
X3.0603Y-2.3534
X3.0803Y-3.1293
X3.0803Y-3.2081
X3.0803Y-3.2868
X3.082Y-2.3258
X3.0833Y-2.8686
X3.0868Y-2.7487
X3.0871Y-2.0796
X3.1022Y-2.554
X3.1097Y-2.8386
X3.128Y-2.9037
X3.1303Y-3.7753
X3.1787Y-3.6769
X3.1951Y-3.1056
X3.2287Y-3.7753
X3.2299Y-3.3616
X3.2598Y-2.4988
X3.2683Y-2.965
X3.278Y-1.9037
X3.278Y-2.0037
X3.278Y-2.1037
X3.2787Y-3.6769
X3.2848Y-2.5238
X3.2889Y-2.7044
X3.3272Y-3.7753
X3.3387Y-3.4072
X3.3387Y-3.5072
X3.3696Y-3.1175
X3.371Y-3.1821
X3.371Y-3.2195
X3.378Y-1.9037
X3.378Y-2.0037
X3.378Y-2.1037
X3.378Y-2.4537
X3.378Y-2.5537
X3.378Y-2.7537
X3.378Y-2.9037
X3.378Y-3.0037
X3.3795Y-2.3338
X3.4387Y-3.5072
X3.4387Y-3.6072
X3.478Y-1.9037
X3.478Y-2.0037
X3.478Y-2.4537
X3.478Y-2.5537
X3.478Y-2.6537
X3.4787Y-3.3341
X3.4844Y-2.3338
X3.5122Y-3.3341
X3.5387Y-3.5072
X3.5387Y-3.6072
X3.5457Y-3.3341
X3.578Y-1.9037
X3.578Y-2.0037
X3.578Y-2.1037
X3.578Y-2.4537
X3.578Y-2.5537
X3.578Y-2.6537
X3.578Y-2.7537
X3.578Y-3.0037
X3.578Y-3.1037
X3.6043Y-2.2323
X3.6366Y-2.6672
X3.6366Y-2.7021
X3.6396Y-3.2559
X3.6522Y-3.4275
X3.6522Y-3.4592
X3.678Y-1.9037
X3.678Y-2.0037
X3.678Y-2.1037
X3.678Y-2.2037
X3.678Y-2.3037
X3.678Y-2.4537
X3.678Y-3.0037
X3.678Y-3.1037
X3.6839Y-3.1821
X3.706Y-2.5427
X3.7231Y-3.4221
X3.7252Y-3.1821
X3.7387Y-3.5072
X3.7387Y-3.6072
X3.7737Y-2.7142
X3.778Y-1.9037
X3.778Y-2.0037
X3.778Y-2.1037
X3.778Y-2.2037
X3.778Y-2.3037
X3.778Y-3.0037
X3.778Y-3.1037
X3.796Y-2.7365
X3.8174Y-2.4314
X3.8183Y-2.6105
X3.8183Y-2.7588
X3.828Y-3.2537
X3.8405Y-2.5882
X3.8405Y-2.781
X3.8612Y-2.649
X3.8628Y-2.5659
X3.878Y-1.9037
X3.878Y-2.0037
X3.878Y-2.1037
X3.878Y-2.2037
X3.878Y-2.3037
X3.878Y-3.0037
X3.878Y-3.1037
X3.8851Y-2.5437
X3.928Y-3.3537
X3.928Y-3.5537
X3.9692Y-2.9197
X3.978Y-1.9037
X3.978Y-2.0037
X3.978Y-2.1037
X3.978Y-3.0037
X3.978Y-3.1037
X4.0263Y-2.5408
X4.0263Y-2.6904
X4.028Y-3.2537
X4.028Y-3.4537
X4.028Y-3.5537
X4.0506Y-2.8418
X4.0754Y-2.2807
X4.078Y-1.9037
X4.078Y-2.0037
X4.078Y-3.0037
X4.0837Y-2.6715
X4.0879Y-2.8356
X4.1102Y-2.8133
X4.128Y-2.2037
X4.128Y-3.1537
X4.128Y-3.3537
X4.128Y-3.4537
X4.128Y-3.5537
X4.1306Y-2.9228
X4.1316Y-2.6681
X4.1579Y-2.4637
X4.1819Y-2.6624
X4.1975Y-2.5272
X4.1996Y-2.6998
X4.2254Y-2.4307
X4.228Y-2.2037
X4.228Y-2.3037
X4.228Y-3.2537
X4.228Y-3.3537
X4.228Y-3.4537
X4.228Y-3.5537
X4.228Y-3.6537
X4.228Y-3.7537
X4.278Y-2.0037
X4.2915Y-2.5973
X4.3111Y-2.5065
X4.328Y-1.9037
X4.328Y-2.2037
X4.328Y-2.3037
X4.328Y-3.2537
X4.328Y-3.3537
X4.328Y-3.4537
X4.328Y-3.5537
X4.328Y-3.6537
X4.328Y-3.7537
X4.3705Y-2.1874
X4.3711Y-1.996
X4.3722Y-2.056
X4.4105Y-2.4556
X4.4105Y-2.4946
X4.428Y-3.2537
X4.428Y-3.3537
X4.428Y-3.4537
X4.428Y-3.5537
X4.478Y-2.3037
X4.478Y-2.4037
X4.478Y-2.5037
X4.478Y-2.6037
X4.478Y-2.8537
X4.528Y-1.9037
X4.5352Y-2.2784
X4.5588Y-2.2548
X4.5776Y-3.5537
X4.578Y-2.3037
X4.578Y-2.4037
X4.578Y-2.5037
X4.578Y-2.7037
X4.578Y-2.8537
X4.578Y-2.9537
X4.578Y-3.0537
X4.578Y-3.2537
X4.578Y-3.3537
X4.578Y-3.4537
X4.5861Y-2.1883
X4.6176Y-2.1213
X4.628Y-1.9037
X4.678Y-2.3037
X4.678Y-2.4037
X4.678Y-2.8537
X4.678Y-2.9537
X4.678Y-3.0537
X4.678Y-3.3537
X4.678Y-3.4537
X4.728Y-1.9037
X4.778Y-2.3037
X4.778Y-3.4537
X4.778Y-3.5537
X4.8637Y-2.0588
X4.8637Y-2.195
X4.8737Y-2.4037
X4.878Y-2.3037
X4.878Y-3.5537
X4.9063Y-2.1269
X4.928Y-1.9037
X4.978Y-2.5537
X4.978Y-2.6537
X4.978Y-2.7537
X4.978Y-2.8537
X4.978Y-2.9537
X4.978Y-3.0537
X4.978Y-3.1537
X4.978Y-3.2537
X4.978Y-3.3537
T3
X3.1524Y-2.5441
X3.1877Y-2.5795
X3.2231Y-2.6148
X3.2584Y-2.6502
T4
X3.128Y-1.8037
X3.228Y-1.8037
X3.328Y-1.8037
X3.428Y-1.8037
X3.4887Y-3.7072
X3.528Y-1.8037
X3.5887Y-3.7072
X3.628Y-1.8037
X3.6887Y-3.7072
X3.728Y-1.8037
X3.7887Y-3.7072
X3.828Y-1.8037
X3.8887Y-3.7072
X3.928Y-1.8037
X3.9887Y-3.7072
X4.028Y-1.8037
X4.0887Y-3.7072
X4.1858Y-1.8037
X4.1887Y-3.7072
X4.2858Y-1.8037
X4.3858Y-1.8037
X4.3887Y-3.7072
X4.4858Y-1.8037
X4.4887Y-3.7072
X4.5858Y-1.8037
X4.5887Y-3.7072
X4.6858Y-1.8037
X4.6887Y-3.7072
X4.7858Y-1.8037
X4.7887Y-3.7072
X4.837Y-2.5072
X4.837Y-2.6072
X4.837Y-2.7072
X4.837Y-2.8072
X4.837Y-2.9072
X4.837Y-3.0072
X4.837Y-3.1072
X4.837Y-3.2072
X4.837Y-3.3072
X4.837Y-3.4072
X4.8858Y-1.8037
X4.8887Y-3.7072
T2
G00X2.4673Y-2.517
M15
G01X2.4319Y-2.517
M16
G05
G00X2.4673Y-2.8572
M15
G01X2.4319Y-2.8572
M16
G05
G00X2.6378Y-2.517
M15
G01X2.5906Y-2.517
M16
G05
G00X2.6378Y-2.8572
M15
G01X2.5906Y-2.8572
M16
G05
M30
