G04 PROTEUS RS274X GERBER FILE*
%FSLAX45Y45*%
%MOMM*%
G01*
%ADD46C,0.025400*%
%ADD97C,0.400000*%
%ADD98C,0.160210*%
%ADD99C,0.840000*%
%ADD100C,0.226600*%
%ADD101C,0.320000*%
%ADD102C,0.067010*%
%ADD103C,0.212000*%
%ADD104C,0.089940*%
%ADD105C,0.050000*%
%ADD106C,0.571500*%
%ADD107C,0.172100*%
%ADD108C,0.102520*%
%ADD109C,0.270000*%
%ADD110C,0.180000*%
%ADD111C,0.162330*%
%ADD112C,0.110220*%
%ADD113C,0.495000*%
%ADD114C,0.330430*%
%ADD115C,0.304800*%
%ADD116C,0.044440*%
%ADD117C,0.140000*%
%ADD118C,0.063280*%
%ADD119C,0.254000*%
%ADD120C,0.094230*%
%ADD121C,0.420000*%
%ADD122C,0.067500*%
%ADD11C,0.200000*%
%ADD123C,0.046190*%
%ADD124C,0.800000*%
%ADD125C,0.066190*%
%ADD126C,0.076610*%
%ADD48C,0.127000*%
%ADD127C,0.558800*%
%ADD128C,0.084240*%
%ADD129C,0.680000*%
%ADD130C,0.069940*%
%ADD131C,0.268000*%
%ADD132C,0.083280*%
%ADD133C,0.041590*%
%ADD134C,0.720000*%
%ADD135C,0.099560*%
D46*
X+52000Y+2254050D02*
X+662000Y+2254050D01*
X+662000Y+2639050D01*
X+52000Y+2639050D01*
X+52000Y+2254050D01*
D97*
X+127000Y+2334050D02*
X+127000Y+2334050D01*
D98*
X+188852Y+2398487D02*
X+188852Y+2494613D01*
X+278970Y+2494613D01*
X+296993Y+2478592D01*
X+296993Y+2462571D01*
X+278970Y+2446550D01*
X+296993Y+2430529D01*
X+296993Y+2414508D01*
X+278970Y+2398487D01*
X+188852Y+2398487D01*
X+188852Y+2446550D02*
X+278970Y+2446550D01*
X+333041Y+2494613D02*
X+441182Y+2494613D01*
X+387111Y+2494613D02*
X+387111Y+2398487D01*
X+495253Y+2478592D02*
X+513277Y+2494613D01*
X+567348Y+2494613D01*
X+585371Y+2478592D01*
X+585371Y+2462571D01*
X+567348Y+2446550D01*
X+513277Y+2446550D01*
X+495253Y+2430529D01*
X+495253Y+2398487D01*
X+585371Y+2398487D01*
D46*
X+52000Y+1793650D02*
X+662000Y+1793650D01*
X+662000Y+2178650D01*
X+52000Y+2178650D01*
X+52000Y+1793650D01*
D97*
X+127000Y+1873650D02*
X+127000Y+1873650D01*
D98*
X+188852Y+1938087D02*
X+188852Y+2034213D01*
X+278970Y+2034213D01*
X+296993Y+2018192D01*
X+296993Y+2002171D01*
X+278970Y+1986150D01*
X+296993Y+1970129D01*
X+296993Y+1954108D01*
X+278970Y+1938087D01*
X+188852Y+1938087D01*
X+188852Y+1986150D02*
X+278970Y+1986150D01*
X+333041Y+2034213D02*
X+441182Y+2034213D01*
X+387111Y+2034213D02*
X+387111Y+1938087D01*
X+513277Y+2002171D02*
X+549324Y+2034213D01*
X+549324Y+1938087D01*
D46*
X+527500Y+898650D02*
X+527388Y+901346D01*
X+526477Y+906739D01*
X+524572Y+912132D01*
X+521457Y+917525D01*
X+516694Y+922850D01*
X+511301Y+926766D01*
X+505908Y+929265D01*
X+500515Y+930679D01*
X+495122Y+931150D01*
X+495000Y+931150D01*
X+462500Y+898650D02*
X+462612Y+901346D01*
X+463523Y+906739D01*
X+465428Y+912132D01*
X+468543Y+917525D01*
X+473306Y+922850D01*
X+478699Y+926766D01*
X+484092Y+929265D01*
X+489485Y+930679D01*
X+494878Y+931150D01*
X+495000Y+931150D01*
X+462500Y+898650D02*
X+462612Y+895954D01*
X+463523Y+890561D01*
X+465428Y+885168D01*
X+468543Y+879775D01*
X+473306Y+874450D01*
X+478699Y+870534D01*
X+484092Y+868035D01*
X+489485Y+866621D01*
X+494878Y+866150D01*
X+495000Y+866150D01*
X+527500Y+898650D02*
X+527388Y+895954D01*
X+526477Y+890561D01*
X+524572Y+885168D01*
X+521457Y+879775D01*
X+516694Y+874450D01*
X+511301Y+870534D01*
X+505908Y+868035D01*
X+500515Y+866621D01*
X+495122Y+866150D01*
X+495000Y+866150D01*
X+527500Y+1476650D02*
X+527388Y+1479346D01*
X+526477Y+1484739D01*
X+524572Y+1490132D01*
X+521457Y+1495525D01*
X+516694Y+1500850D01*
X+511301Y+1504766D01*
X+505908Y+1507265D01*
X+500515Y+1508679D01*
X+495122Y+1509150D01*
X+495000Y+1509150D01*
X+462500Y+1476650D02*
X+462612Y+1479346D01*
X+463523Y+1484739D01*
X+465428Y+1490132D01*
X+468543Y+1495525D01*
X+473306Y+1500850D01*
X+478699Y+1504766D01*
X+484092Y+1507265D01*
X+489485Y+1508679D01*
X+494878Y+1509150D01*
X+495000Y+1509150D01*
X+462500Y+1476650D02*
X+462612Y+1473954D01*
X+463523Y+1468561D01*
X+465428Y+1463168D01*
X+468543Y+1457775D01*
X+473306Y+1452450D01*
X+478699Y+1448534D01*
X+484092Y+1446035D01*
X+489485Y+1444621D01*
X+494878Y+1444150D01*
X+495000Y+1444150D01*
X+527500Y+1476650D02*
X+527388Y+1473954D01*
X+526477Y+1468561D01*
X+524572Y+1463168D01*
X+521457Y+1457775D01*
X+516694Y+1452450D01*
X+511301Y+1448534D01*
X+505908Y+1446035D01*
X+500515Y+1444621D01*
X+495122Y+1444150D01*
X+495000Y+1444150D01*
X-158400Y+673300D02*
X+686150Y+673300D01*
X+686150Y+1695650D01*
X-158400Y+1695650D01*
X-158400Y+673300D01*
D99*
X+545000Y+755650D02*
X+545000Y+755650D01*
D100*
X+286536Y+1043342D02*
X+309196Y+1043342D01*
X+331857Y+1068834D01*
X+331857Y+1170806D01*
X+309196Y+1196299D01*
X+195894Y+1196299D01*
X+241215Y+1298270D02*
X+195894Y+1349256D01*
X+331857Y+1349256D01*
D46*
X+63375Y+57150D02*
X+355475Y+57150D01*
X+355475Y+184150D01*
X+63375Y+184150D01*
X+63375Y+57150D01*
D101*
X+127000Y+120650D02*
X+127000Y+120650D01*
D102*
X+189560Y+100546D02*
X+189560Y+140755D01*
X+219716Y+140755D01*
X+234794Y+127352D01*
X+234794Y+113949D01*
X+219716Y+100546D01*
X+189560Y+100546D01*
X+264951Y+127352D02*
X+280029Y+140755D01*
X+280029Y+100546D01*
D46*
X+663500Y+2300175D02*
X+790500Y+2300175D01*
X+790500Y+2592275D01*
X+663500Y+2592275D01*
X+663500Y+2300175D01*
D101*
X+727000Y+2528650D02*
X+727000Y+2528650D01*
D102*
X+747104Y+2345464D02*
X+706895Y+2345464D01*
X+706895Y+2375620D01*
X+720298Y+2390698D01*
X+733701Y+2390698D01*
X+747104Y+2375620D01*
X+747104Y+2345464D01*
X+713597Y+2413316D02*
X+706895Y+2420855D01*
X+706895Y+2443472D01*
X+713597Y+2451011D01*
X+720298Y+2451011D01*
X+727000Y+2443472D01*
X+727000Y+2420855D01*
X+733701Y+2413316D01*
X+747104Y+2413316D01*
X+747104Y+2451011D01*
D46*
X+63375Y+247650D02*
X+355475Y+247650D01*
X+355475Y+374650D01*
X+63375Y+374650D01*
X+63375Y+247650D01*
D101*
X+127000Y+311150D02*
X+127000Y+311150D01*
D102*
X+189560Y+291046D02*
X+189560Y+331255D01*
X+219716Y+331255D01*
X+234794Y+317852D01*
X+234794Y+304449D01*
X+219716Y+291046D01*
X+189560Y+291046D01*
X+257412Y+324553D02*
X+264951Y+331255D01*
X+287568Y+331255D01*
X+295107Y+324553D01*
X+295107Y+317852D01*
X+287568Y+311150D01*
X+295107Y+304449D01*
X+295107Y+297747D01*
X+287568Y+291046D01*
X+264951Y+291046D01*
X+257412Y+297747D01*
X+272490Y+311150D02*
X+287568Y+311150D01*
D46*
X+63375Y+438150D02*
X+355475Y+438150D01*
X+355475Y+565150D01*
X+63375Y+565150D01*
X+63375Y+438150D01*
D101*
X+127000Y+501650D02*
X+127000Y+501650D01*
D102*
X+189560Y+481546D02*
X+189560Y+521755D01*
X+219716Y+521755D01*
X+234794Y+508352D01*
X+234794Y+494949D01*
X+219716Y+481546D01*
X+189560Y+481546D01*
X+295107Y+521755D02*
X+257412Y+521755D01*
X+257412Y+508352D01*
X+287568Y+508352D01*
X+295107Y+501650D01*
X+295107Y+488247D01*
X+287568Y+481546D01*
X+264951Y+481546D01*
X+257412Y+488247D01*
D46*
X+663500Y+1840175D02*
X+790500Y+1840175D01*
X+790500Y+2132275D01*
X+663500Y+2132275D01*
X+663500Y+1840175D01*
D101*
X+727000Y+2068650D02*
X+727000Y+2068650D01*
D102*
X+747104Y+1885464D02*
X+706895Y+1885464D01*
X+706895Y+1915620D01*
X+720298Y+1930698D01*
X+733701Y+1930698D01*
X+747104Y+1915620D01*
X+747104Y+1885464D01*
X+733701Y+1991011D02*
X+733701Y+1945777D01*
X+706895Y+1975933D01*
X+747104Y+1975933D01*
D46*
X+3347700Y+646750D02*
X+3347700Y+686750D01*
X+3327700Y+666750D02*
X+3367700Y+666750D01*
X+3212700Y+526750D02*
X+3482700Y+526750D01*
X+3482700Y+806750D01*
X+3212700Y+806750D01*
X+3212700Y+526750D01*
D103*
X+3441700Y+601750D02*
X+3441700Y+601750D01*
D104*
X+3294282Y+585799D02*
X+3339255Y+585799D01*
X+3348249Y+595917D01*
X+3348249Y+636393D01*
X+3339255Y+646512D01*
X+3294282Y+646512D01*
X+3303276Y+676868D02*
X+3294282Y+686987D01*
X+3294282Y+717344D01*
X+3303276Y+727463D01*
X+3312271Y+727463D01*
X+3321265Y+717344D01*
X+3321265Y+686987D01*
X+3330260Y+676868D01*
X+3348249Y+676868D01*
X+3348249Y+727463D01*
D105*
X+1992200Y+2280550D02*
X+1242200Y+2280550D01*
X+1242200Y+1730550D01*
X+1992200Y+1730550D01*
X+1992200Y+2280550D01*
X+1617200Y+1955550D02*
X+1617200Y+2055550D01*
X+1567200Y+2005550D02*
X+1667200Y+2005550D01*
D106*
X+1887200Y+1815050D02*
X+1887200Y+1815050D01*
D107*
X+1394273Y+2057180D02*
X+1394273Y+1971130D01*
X+1413634Y+1953920D01*
X+1491079Y+1953920D01*
X+1510440Y+1971130D01*
X+1510440Y+2057180D01*
X+1568524Y+2039970D02*
X+1587885Y+2057180D01*
X+1645969Y+2057180D01*
X+1665330Y+2039970D01*
X+1665330Y+2022760D01*
X+1645969Y+2005550D01*
X+1665330Y+1988340D01*
X+1665330Y+1971130D01*
X+1645969Y+1953920D01*
X+1587885Y+1953920D01*
X+1568524Y+1971130D01*
X+1607246Y+2005550D02*
X+1645969Y+2005550D01*
D46*
X+2538550Y+788200D02*
X+2938550Y+788200D01*
X+2938550Y+1028200D01*
X+2538550Y+1028200D01*
X+2538550Y+788200D01*
D101*
X+2603550Y+848200D02*
X+2603550Y+848200D01*
D108*
X+2687415Y+938957D02*
X+2687415Y+887695D01*
X+2698948Y+877443D01*
X+2745083Y+877443D01*
X+2756617Y+887695D01*
X+2756617Y+938957D01*
X+2848887Y+897948D02*
X+2779685Y+897948D01*
X+2825820Y+938957D01*
X+2825820Y+877443D01*
D46*
X+1661150Y+909800D02*
X+1927850Y+909800D01*
X+1927850Y+1120600D01*
X+1661150Y+1120600D01*
X+1661150Y+909800D01*
D109*
X+1874500Y+965200D02*
X+1874500Y+965200D01*
D102*
X+1740376Y+955008D02*
X+1773816Y+955008D01*
X+1780504Y+962532D01*
X+1780504Y+992628D01*
X+1773816Y+1000152D01*
X+1740376Y+1000152D01*
X+1740376Y+1060344D02*
X+1740376Y+1022724D01*
X+1753752Y+1022724D01*
X+1753752Y+1052820D01*
X+1760440Y+1060344D01*
X+1773816Y+1060344D01*
X+1780504Y+1052820D01*
X+1780504Y+1030248D01*
X+1773816Y+1022724D01*
D46*
X+1127500Y+1207650D02*
X+1087500Y+1207650D01*
X+1107500Y+1187650D02*
X+1107500Y+1227650D01*
X+832500Y+932650D02*
X+1382500Y+932650D01*
X+1382500Y+1482650D01*
X+832500Y+1482650D01*
X+832500Y+932650D01*
D110*
X+1302500Y+1087650D02*
X+1302500Y+1087650D01*
D111*
X+1013664Y+1061547D02*
X+1094832Y+1061547D01*
X+1111066Y+1079809D01*
X+1111066Y+1152861D01*
X+1094832Y+1171124D01*
X+1013664Y+1171124D01*
X+1029898Y+1317227D02*
X+1013664Y+1298964D01*
X+1013664Y+1244175D01*
X+1029898Y+1225912D01*
X+1094832Y+1225912D01*
X+1111066Y+1244175D01*
X+1111066Y+1298964D01*
X+1094832Y+1317227D01*
X+1078599Y+1317227D01*
X+1062365Y+1298964D01*
X+1062365Y+1225912D01*
D46*
X+1174750Y+257300D02*
X+1441450Y+257300D01*
X+1441450Y+676400D01*
X+1174750Y+676400D01*
X+1174750Y+257300D01*
D109*
X+1375550Y+612900D02*
X+1375550Y+612900D01*
D112*
X+1275033Y+328515D02*
X+1330145Y+328515D01*
X+1341167Y+340915D01*
X+1341167Y+390515D01*
X+1330145Y+402915D01*
X+1275033Y+402915D01*
X+1275033Y+440115D02*
X+1275033Y+502115D01*
X+1286055Y+502115D01*
X+1341167Y+440115D01*
D46*
X+2589900Y+1709650D02*
X+2789900Y+1709650D01*
X+2689900Y+1809650D02*
X+2689900Y+1609650D01*
X+2009900Y+1029650D02*
X+3369900Y+1029650D01*
X+3369900Y+2389650D01*
X+2009900Y+2389650D01*
X+2009900Y+1029650D01*
D113*
X+2119900Y+2109650D02*
X+2119900Y+2109650D01*
D114*
X+2658779Y+1412257D02*
X+2823997Y+1412257D01*
X+2857041Y+1449431D01*
X+2857041Y+1598127D01*
X+2823997Y+1635301D01*
X+2658779Y+1635301D01*
X+2757910Y+1783998D02*
X+2724866Y+1746824D01*
X+2691823Y+1746824D01*
X+2658779Y+1783998D01*
X+2658779Y+1895520D01*
X+2691823Y+1932694D01*
X+2724866Y+1932694D01*
X+2757910Y+1895520D01*
X+2757910Y+1783998D01*
X+2790954Y+1746824D01*
X+2823997Y+1746824D01*
X+2857041Y+1783998D01*
X+2857041Y+1895520D01*
X+2823997Y+1932694D01*
X+2790954Y+1932694D01*
X+2757910Y+1895520D01*
D46*
X+794000Y+1998650D02*
X+1014000Y+1998650D01*
X+1014000Y+2138650D01*
X+794000Y+2138650D01*
X+794000Y+1998650D01*
D115*
X+854000Y+2068650D02*
X+854000Y+2068650D01*
D116*
X+882258Y+2055317D02*
X+882258Y+2081983D01*
X+907256Y+2081983D01*
X+912256Y+2077539D01*
X+912256Y+2073094D01*
X+907256Y+2068650D01*
X+882258Y+2068650D01*
X+907256Y+2068650D02*
X+912256Y+2064206D01*
X+912256Y+2055317D01*
X+932255Y+2073094D02*
X+942255Y+2081983D01*
X+942255Y+2055317D01*
X+962254Y+2059761D02*
X+962254Y+2077539D01*
X+967253Y+2081983D01*
X+987252Y+2081983D01*
X+992252Y+2077539D01*
X+992252Y+2059761D01*
X+987252Y+2055317D01*
X+967253Y+2055317D01*
X+962254Y+2059761D01*
X+962254Y+2055317D02*
X+992252Y+2081983D01*
D46*
X+356890Y+241150D02*
X+576890Y+241150D01*
X+576890Y+381150D01*
X+356890Y+381150D01*
X+356890Y+241150D01*
D115*
X+516890Y+311150D02*
X+516890Y+311150D01*
D116*
X+368638Y+297817D02*
X+368638Y+324483D01*
X+393636Y+324483D01*
X+398636Y+320039D01*
X+398636Y+315594D01*
X+393636Y+311150D01*
X+368638Y+311150D01*
X+393636Y+311150D02*
X+398636Y+306706D01*
X+398636Y+297817D01*
X+413635Y+320039D02*
X+418635Y+324483D01*
X+433634Y+324483D01*
X+438634Y+320039D01*
X+438634Y+315594D01*
X+433634Y+311150D01*
X+418635Y+311150D01*
X+413635Y+306706D01*
X+413635Y+297817D01*
X+438634Y+297817D01*
X+478632Y+306706D02*
X+448634Y+306706D01*
X+468633Y+324483D01*
X+468633Y+297817D01*
D46*
X+356890Y+431650D02*
X+576890Y+431650D01*
X+576890Y+571650D01*
X+356890Y+571650D01*
X+356890Y+431650D01*
D115*
X+516890Y+501650D02*
X+516890Y+501650D01*
D116*
X+368638Y+488317D02*
X+368638Y+514983D01*
X+393636Y+514983D01*
X+398636Y+510539D01*
X+398636Y+506094D01*
X+393636Y+501650D01*
X+368638Y+501650D01*
X+393636Y+501650D02*
X+398636Y+497206D01*
X+398636Y+488317D01*
X+413635Y+510539D02*
X+418635Y+514983D01*
X+433634Y+514983D01*
X+438634Y+510539D01*
X+438634Y+506094D01*
X+433634Y+501650D01*
X+418635Y+501650D01*
X+413635Y+497206D01*
X+413635Y+488317D01*
X+438634Y+488317D01*
X+478632Y+510539D02*
X+473632Y+514983D01*
X+458633Y+514983D01*
X+453633Y+510539D01*
X+453633Y+492761D01*
X+458633Y+488317D01*
X+473632Y+488317D01*
X+478632Y+492761D01*
X+478632Y+497206D01*
X+473632Y+501650D01*
X+453633Y+501650D01*
D46*
X+356890Y+50650D02*
X+576890Y+50650D01*
X+576890Y+190650D01*
X+356890Y+190650D01*
X+356890Y+50650D01*
D115*
X+516890Y+120650D02*
X+516890Y+120650D01*
D116*
X+368638Y+107317D02*
X+368638Y+133983D01*
X+393636Y+133983D01*
X+398636Y+129539D01*
X+398636Y+125094D01*
X+393636Y+120650D01*
X+368638Y+120650D01*
X+393636Y+120650D02*
X+398636Y+116206D01*
X+398636Y+107317D01*
X+418635Y+125094D02*
X+428635Y+133983D01*
X+428635Y+107317D01*
X+458633Y+125094D02*
X+468633Y+133983D01*
X+468633Y+107317D01*
D46*
X+785440Y+2144700D02*
X+1005440Y+2144700D01*
X+1005440Y+2284700D01*
X+785440Y+2284700D01*
X+785440Y+2144700D01*
D115*
X+945440Y+2214700D02*
X+945440Y+2214700D01*
D116*
X+797188Y+2201367D02*
X+797188Y+2228033D01*
X+822186Y+2228033D01*
X+827186Y+2223589D01*
X+827186Y+2219144D01*
X+822186Y+2214700D01*
X+797188Y+2214700D01*
X+822186Y+2214700D02*
X+827186Y+2210256D01*
X+827186Y+2201367D01*
X+842185Y+2223589D02*
X+847185Y+2228033D01*
X+862184Y+2228033D01*
X+867184Y+2223589D01*
X+867184Y+2219144D01*
X+862184Y+2214700D01*
X+847185Y+2214700D01*
X+842185Y+2210256D01*
X+842185Y+2201367D01*
X+867184Y+2201367D01*
X+882183Y+2223589D02*
X+887183Y+2228033D01*
X+902182Y+2228033D01*
X+907182Y+2223589D01*
X+907182Y+2219144D01*
X+902182Y+2214700D01*
X+907182Y+2210256D01*
X+907182Y+2205811D01*
X+902182Y+2201367D01*
X+887183Y+2201367D01*
X+882183Y+2205811D01*
X+892183Y+2214700D02*
X+902182Y+2214700D01*
D46*
X+525000Y+898650D02*
X+524897Y+901139D01*
X+524055Y+906119D01*
X+522295Y+911099D01*
X+519418Y+916079D01*
X+515017Y+920995D01*
X+510037Y+924609D01*
X+505057Y+926914D01*
X+500077Y+928217D01*
X+495097Y+928650D01*
X+495000Y+928650D01*
X+465000Y+898650D02*
X+465103Y+901139D01*
X+465945Y+906119D01*
X+467705Y+911099D01*
X+470582Y+916079D01*
X+474983Y+920995D01*
X+479963Y+924609D01*
X+484943Y+926914D01*
X+489923Y+928217D01*
X+494903Y+928650D01*
X+495000Y+928650D01*
X+465000Y+898650D02*
X+465103Y+896161D01*
X+465945Y+891181D01*
X+467705Y+886201D01*
X+470582Y+881221D01*
X+474983Y+876305D01*
X+479963Y+872691D01*
X+484943Y+870386D01*
X+489923Y+869083D01*
X+494903Y+868650D01*
X+495000Y+868650D01*
X+525000Y+898650D02*
X+524897Y+896161D01*
X+524055Y+891181D01*
X+522295Y+886201D01*
X+519418Y+881221D01*
X+515017Y+876305D01*
X+510037Y+872691D01*
X+505057Y+870386D01*
X+500077Y+869083D01*
X+495097Y+868650D01*
X+495000Y+868650D01*
X+525000Y+1476650D02*
X+524897Y+1479139D01*
X+524055Y+1484119D01*
X+522295Y+1489099D01*
X+519418Y+1494079D01*
X+515017Y+1498995D01*
X+510037Y+1502609D01*
X+505057Y+1504914D01*
X+500077Y+1506217D01*
X+495097Y+1506650D01*
X+495000Y+1506650D01*
X+465000Y+1476650D02*
X+465103Y+1479139D01*
X+465945Y+1484119D01*
X+467705Y+1489099D01*
X+470582Y+1494079D01*
X+474983Y+1498995D01*
X+479963Y+1502609D01*
X+484943Y+1504914D01*
X+489923Y+1506217D01*
X+494903Y+1506650D01*
X+495000Y+1506650D01*
X+465000Y+1476650D02*
X+465103Y+1474161D01*
X+465945Y+1469181D01*
X+467705Y+1464201D01*
X+470582Y+1459221D01*
X+474983Y+1454305D01*
X+479963Y+1450691D01*
X+484943Y+1448386D01*
X+489923Y+1447083D01*
X+494903Y+1446650D01*
X+495000Y+1446650D01*
X+525000Y+1476650D02*
X+524897Y+1474161D01*
X+524055Y+1469181D01*
X+522295Y+1464201D01*
X+519418Y+1459221D01*
X+515017Y+1454305D01*
X+510037Y+1450691D01*
X+505057Y+1448386D01*
X+500077Y+1447083D01*
X+495097Y+1446650D01*
X+495000Y+1446650D01*
X+825600Y+561400D02*
X+1025600Y+561400D01*
X+1025600Y+741400D01*
X+825600Y+741400D01*
X+825600Y+561400D01*
D117*
X+978300Y+708900D02*
X+978300Y+708900D01*
D118*
X+868648Y+649999D02*
X+868648Y+618359D01*
X+875767Y+612031D01*
X+904243Y+612031D01*
X+911362Y+618359D01*
X+911362Y+649999D01*
X+968314Y+637343D02*
X+961195Y+631015D01*
X+939838Y+631015D01*
X+932719Y+637343D01*
X+932719Y+643671D01*
X+939838Y+649999D01*
X+961195Y+649999D01*
X+968314Y+643671D01*
X+968314Y+618359D01*
X+961195Y+612031D01*
X+939838Y+612031D01*
D46*
X+959000Y+2546350D02*
X+958761Y+2552129D01*
X+956819Y+2563689D01*
X+952756Y+2575249D01*
X+946123Y+2586809D01*
X+935976Y+2598247D01*
X+924416Y+2606730D01*
X+912856Y+2612160D01*
X+901296Y+2615262D01*
X+889736Y+2616346D01*
X+889000Y+2616350D01*
X+819000Y+2546350D02*
X+819239Y+2552129D01*
X+821181Y+2563689D01*
X+825244Y+2575249D01*
X+831877Y+2586809D01*
X+842024Y+2598247D01*
X+853584Y+2606730D01*
X+865144Y+2612160D01*
X+876704Y+2615262D01*
X+888264Y+2616346D01*
X+889000Y+2616350D01*
X+819000Y+2546350D02*
X+819239Y+2540571D01*
X+821181Y+2529011D01*
X+825244Y+2517451D01*
X+831877Y+2505891D01*
X+842024Y+2494453D01*
X+853584Y+2485970D01*
X+865144Y+2480540D01*
X+876704Y+2477438D01*
X+888264Y+2476354D01*
X+889000Y+2476350D01*
X+959000Y+2546350D02*
X+958761Y+2540571D01*
X+956819Y+2529011D01*
X+952756Y+2517451D01*
X+946123Y+2505891D01*
X+935976Y+2494453D01*
X+924416Y+2485970D01*
X+912856Y+2480540D01*
X+901296Y+2477438D01*
X+889736Y+2476354D01*
X+889000Y+2476350D01*
X+959000Y+120650D02*
X+958761Y+126429D01*
X+956819Y+137989D01*
X+952756Y+149549D01*
X+946123Y+161109D01*
X+935976Y+172547D01*
X+924416Y+181030D01*
X+912856Y+186460D01*
X+901296Y+189562D01*
X+889736Y+190646D01*
X+889000Y+190650D01*
X+819000Y+120650D02*
X+819239Y+126429D01*
X+821181Y+137989D01*
X+825244Y+149549D01*
X+831877Y+161109D01*
X+842024Y+172547D01*
X+853584Y+181030D01*
X+865144Y+186460D01*
X+876704Y+189562D01*
X+888264Y+190646D01*
X+889000Y+190650D01*
X+819000Y+120650D02*
X+819239Y+114871D01*
X+821181Y+103311D01*
X+825244Y+91751D01*
X+831877Y+80191D01*
X+842024Y+68753D01*
X+853584Y+60270D01*
X+865144Y+54840D01*
X+876704Y+51738D01*
X+888264Y+50654D01*
X+889000Y+50650D01*
X+959000Y+120650D02*
X+958761Y+114871D01*
X+956819Y+103311D01*
X+952756Y+91751D01*
X+946123Y+80191D01*
X+935976Y+68753D01*
X+924416Y+60270D01*
X+912856Y+54840D01*
X+901296Y+51738D01*
X+889736Y+50654D01*
X+889000Y+50650D01*
X+1066800Y+2470150D02*
X+2362200Y+2470150D01*
X+2362200Y+2622550D01*
X+1066800Y+2622550D01*
X+1066800Y+2470150D01*
D119*
X+2286000Y+2628900D02*
X+2286000Y+2628900D01*
D120*
X+1629690Y+2533116D02*
X+1629690Y+2523693D01*
X+1640291Y+2514269D01*
X+1682696Y+2514269D01*
X+1693297Y+2523693D01*
X+1693297Y+2570810D01*
X+1778107Y+2561386D02*
X+1767506Y+2570810D01*
X+1735702Y+2570810D01*
X+1725101Y+2561386D01*
X+1725101Y+2523693D01*
X+1735702Y+2514269D01*
X+1767506Y+2514269D01*
X+1778107Y+2523693D01*
X+1778107Y+2533116D01*
X+1767506Y+2542540D01*
X+1725101Y+2542540D01*
D46*
X+2400300Y+2470150D02*
X+3441700Y+2470150D01*
X+3441700Y+2622550D01*
X+2400300Y+2622550D01*
X+2400300Y+2470150D01*
D119*
X+3365500Y+2628900D02*
X+3365500Y+2628900D01*
D120*
X+2836190Y+2533116D02*
X+2836190Y+2523693D01*
X+2846791Y+2514269D01*
X+2889196Y+2514269D01*
X+2899797Y+2523693D01*
X+2899797Y+2570810D01*
X+2931601Y+2570810D02*
X+2984607Y+2570810D01*
X+2984607Y+2561386D01*
X+2931601Y+2514269D01*
D46*
X+3416300Y+2684780D02*
X+3472180Y+2628900D01*
X+3472180Y+2021840D01*
X+3469640Y+137160D02*
X+3469640Y+45720D01*
X+2527300Y+57150D02*
X+3441700Y+57150D01*
X+3441700Y+209550D01*
X+2527300Y+209550D01*
X+2527300Y+57150D01*
D119*
X+2603500Y+50800D02*
X+2603500Y+50800D01*
D120*
X+2899690Y+127736D02*
X+2899690Y+118313D01*
X+2910291Y+108889D01*
X+2952696Y+108889D01*
X+2963297Y+118313D01*
X+2963297Y+165430D01*
X+3048107Y+127736D02*
X+2984500Y+127736D01*
X+3026905Y+165430D01*
X+3026905Y+108889D01*
D46*
X+1257300Y+57150D02*
X+2552700Y+57150D01*
X+2552700Y+209550D01*
X+1257300Y+209550D01*
X+1257300Y+57150D01*
D119*
X+1333500Y+50800D02*
X+1333500Y+50800D01*
D120*
X+1820190Y+127736D02*
X+1820190Y+118313D01*
X+1830791Y+108889D01*
X+1873196Y+108889D01*
X+1883797Y+118313D01*
X+1883797Y+165430D01*
X+1915601Y+156006D02*
X+1926202Y+165430D01*
X+1958006Y+165430D01*
X+1968607Y+156006D01*
X+1968607Y+146583D01*
X+1958006Y+137160D01*
X+1926202Y+137160D01*
X+1915601Y+127736D01*
X+1915601Y+108889D01*
X+1968607Y+108889D01*
D46*
X+3469640Y+45720D02*
X+3465721Y+25727D01*
X+3454956Y+9604D01*
X+3438833Y-1161D01*
X+3418840Y-5080D01*
X+50800Y-5080D02*
X+30807Y-1161D01*
X+14684Y+9604D01*
X+3919Y+25727D01*
X+0Y+45720D01*
X+0Y+2633980D02*
X+3919Y+2653973D01*
X+14684Y+2670096D01*
X+30807Y+2680861D01*
X+50800Y+2684780D01*
X+0Y+2633980D02*
X+0Y+45720D01*
X+50800Y-5080D02*
X+3418840Y-5080D01*
X+50800Y+2684780D02*
X+3416300Y+2684780D01*
X+3469640Y+137160D02*
X+3563620Y+231140D01*
X+3472180Y+2021840D02*
X+3563620Y+1930400D01*
X+3563620Y+231140D01*
X+3511700Y+323850D02*
X+3511461Y+329629D01*
X+3509519Y+341189D01*
X+3505456Y+352749D01*
X+3498823Y+364309D01*
X+3488676Y+375747D01*
X+3477116Y+384230D01*
X+3465556Y+389660D01*
X+3453996Y+392762D01*
X+3442436Y+393846D01*
X+3441700Y+393850D01*
X+3371700Y+323850D02*
X+3371939Y+329629D01*
X+3373881Y+341189D01*
X+3377944Y+352749D01*
X+3384577Y+364309D01*
X+3394724Y+375747D01*
X+3406284Y+384230D01*
X+3417844Y+389660D01*
X+3429404Y+392762D01*
X+3440964Y+393846D01*
X+3441700Y+393850D01*
X+3371700Y+323850D02*
X+3371939Y+318071D01*
X+3373881Y+306511D01*
X+3377944Y+294951D01*
X+3384577Y+283391D01*
X+3394724Y+271953D01*
X+3406284Y+263470D01*
X+3417844Y+258040D01*
X+3429404Y+254938D01*
X+3440964Y+253854D01*
X+3441700Y+253850D01*
X+3511700Y+323850D02*
X+3511461Y+318071D01*
X+3509519Y+306511D01*
X+3505456Y+294951D01*
X+3498823Y+283391D01*
X+3488676Y+271953D01*
X+3477116Y+263470D01*
X+3465556Y+258040D01*
X+3453996Y+254938D01*
X+3442436Y+253854D01*
X+3441700Y+253850D01*
X+3511700Y+1873250D02*
X+3511461Y+1879029D01*
X+3509519Y+1890589D01*
X+3505456Y+1902149D01*
X+3498823Y+1913709D01*
X+3488676Y+1925147D01*
X+3477116Y+1933630D01*
X+3465556Y+1939060D01*
X+3453996Y+1942162D01*
X+3442436Y+1943246D01*
X+3441700Y+1943250D01*
X+3371700Y+1873250D02*
X+3371939Y+1879029D01*
X+3373881Y+1890589D01*
X+3377944Y+1902149D01*
X+3384577Y+1913709D01*
X+3394724Y+1925147D01*
X+3406284Y+1933630D01*
X+3417844Y+1939060D01*
X+3429404Y+1942162D01*
X+3440964Y+1943246D01*
X+3441700Y+1943250D01*
X+3371700Y+1873250D02*
X+3371939Y+1867471D01*
X+3373881Y+1855911D01*
X+3377944Y+1844351D01*
X+3384577Y+1832791D01*
X+3394724Y+1821353D01*
X+3406284Y+1812870D01*
X+3417844Y+1807440D01*
X+3429404Y+1804338D01*
X+3440964Y+1803254D01*
X+3441700Y+1803250D01*
X+3511700Y+1873250D02*
X+3511461Y+1867471D01*
X+3509519Y+1855911D01*
X+3505456Y+1844351D01*
X+3498823Y+1832791D01*
X+3488676Y+1821353D01*
X+3477116Y+1812870D01*
X+3465556Y+1807440D01*
X+3453996Y+1804338D01*
X+3442436Y+1803254D01*
X+3441700Y+1803250D01*
X+686300Y+1531535D02*
X+997450Y+1531535D01*
X+997450Y+1696635D01*
X+686300Y+1696635D01*
X+686300Y+1531535D01*
D121*
X+762500Y+1614090D02*
X+762500Y+1614090D01*
D122*
X+799978Y+1593833D02*
X+799978Y+1634336D01*
X+845544Y+1634336D01*
X+799978Y+1614085D02*
X+830355Y+1614085D01*
X+860733Y+1634336D02*
X+906299Y+1634336D01*
X+883516Y+1634336D02*
X+883516Y+1593833D01*
X+936676Y+1620835D02*
X+951865Y+1634336D01*
X+951865Y+1593833D01*
D46*
X+997500Y+1502650D02*
X+1137500Y+1502650D01*
X+1137500Y+1722650D01*
X+997500Y+1722650D01*
X+997500Y+1502650D01*
D115*
X+1067500Y+1662650D02*
X+1067500Y+1662650D01*
D116*
X+1080833Y+1534397D02*
X+1054167Y+1534397D01*
X+1054167Y+1559395D01*
X+1058611Y+1564395D01*
X+1063056Y+1564395D01*
X+1067500Y+1559395D01*
X+1067500Y+1534397D01*
X+1067500Y+1559395D02*
X+1071944Y+1564395D01*
X+1080833Y+1564395D01*
X+1063056Y+1584394D02*
X+1054167Y+1594394D01*
X+1080833Y+1594394D01*
D46*
X+3371700Y+1582110D02*
X+3511700Y+1582110D01*
X+3511700Y+1802110D01*
X+3371700Y+1802110D01*
X+3371700Y+1582110D01*
D115*
X+3441700Y+1642110D02*
X+3441700Y+1642110D01*
D116*
X+3450589Y+1700366D02*
X+3455033Y+1695366D01*
X+3455033Y+1680367D01*
X+3446144Y+1670368D01*
X+3437256Y+1670368D01*
X+3428367Y+1680367D01*
X+3428367Y+1695366D01*
X+3432811Y+1700366D01*
X+3437256Y+1720365D02*
X+3428367Y+1730365D01*
X+3455033Y+1730365D01*
X+3432811Y+1755363D02*
X+3428367Y+1760363D01*
X+3428367Y+1775362D01*
X+3432811Y+1780362D01*
X+3437256Y+1780362D01*
X+3441700Y+1775362D01*
X+3446144Y+1780362D01*
X+3450589Y+1780362D01*
X+3455033Y+1775362D01*
X+3455033Y+1760363D01*
X+3450589Y+1755363D01*
X+3441700Y+1765363D02*
X+3441700Y+1775362D01*
D46*
X+1867750Y+1511210D02*
X+2007750Y+1511210D01*
X+2007750Y+1731210D01*
X+1867750Y+1731210D01*
X+1867750Y+1511210D01*
D115*
X+1937750Y+1571210D02*
X+1937750Y+1571210D01*
D116*
X+1946639Y+1629466D02*
X+1951083Y+1624466D01*
X+1951083Y+1609467D01*
X+1942194Y+1599468D01*
X+1933306Y+1599468D01*
X+1924417Y+1609467D01*
X+1924417Y+1624466D01*
X+1928861Y+1629466D01*
X+1933306Y+1649465D02*
X+1924417Y+1659465D01*
X+1951083Y+1659465D01*
X+1942194Y+1709462D02*
X+1942194Y+1679464D01*
X+1924417Y+1699463D01*
X+1951083Y+1699463D01*
D46*
X+2932450Y+549600D02*
X+3132450Y+549600D01*
X+3132450Y+669600D01*
X+2932450Y+669600D01*
X+2932450Y+549600D01*
D11*
X+2972450Y+609600D02*
X+2972450Y+609600D01*
D123*
X+3016514Y+595743D02*
X+3016514Y+623457D01*
X+3037299Y+623457D01*
X+3047692Y+614219D01*
X+3047692Y+604981D01*
X+3037299Y+595743D01*
X+3016514Y+595743D01*
X+3063281Y+623457D02*
X+3089263Y+623457D01*
X+3089263Y+618838D01*
X+3063281Y+595743D01*
D46*
X+1137500Y+1511210D02*
X+1277500Y+1511210D01*
X+1277500Y+1731210D01*
X+1137500Y+1731210D01*
X+1137500Y+1511210D01*
D115*
X+1207500Y+1571210D02*
X+1207500Y+1571210D01*
D116*
X+1216389Y+1629466D02*
X+1220833Y+1624466D01*
X+1220833Y+1609467D01*
X+1211944Y+1599468D01*
X+1203056Y+1599468D01*
X+1194167Y+1609467D01*
X+1194167Y+1624466D01*
X+1198611Y+1629466D01*
X+1203056Y+1649465D02*
X+1194167Y+1659465D01*
X+1220833Y+1659465D01*
X+1194167Y+1709462D02*
X+1194167Y+1684463D01*
X+1203056Y+1684463D01*
X+1203056Y+1704462D01*
X+1207500Y+1709462D01*
X+1216389Y+1709462D01*
X+1220833Y+1704462D01*
X+1220833Y+1689463D01*
X+1216389Y+1684463D01*
D46*
X+1047600Y+690900D02*
X+1187600Y+690900D01*
X+1187600Y+910900D01*
X+1047600Y+910900D01*
X+1047600Y+690900D01*
D115*
X+1117600Y+850900D02*
X+1117600Y+850900D01*
D116*
X+1126489Y+732646D02*
X+1130933Y+727646D01*
X+1130933Y+712647D01*
X+1122044Y+702648D01*
X+1113156Y+702648D01*
X+1104267Y+712647D01*
X+1104267Y+727646D01*
X+1108711Y+732646D01*
X+1113156Y+752645D02*
X+1104267Y+762645D01*
X+1130933Y+762645D01*
X+1108711Y+812642D02*
X+1104267Y+807642D01*
X+1104267Y+792643D01*
X+1108711Y+787643D01*
X+1126489Y+787643D01*
X+1130933Y+792643D01*
X+1130933Y+807642D01*
X+1126489Y+812642D01*
X+1122044Y+812642D01*
X+1117600Y+807642D01*
X+1117600Y+787643D01*
D46*
X+692500Y+1227650D02*
X+832500Y+1227650D01*
X+832500Y+1447650D01*
X+692500Y+1447650D01*
X+692500Y+1227650D01*
D115*
X+762500Y+1287650D02*
X+762500Y+1287650D01*
D116*
X+771389Y+1345906D02*
X+775833Y+1340906D01*
X+775833Y+1325907D01*
X+766944Y+1315908D01*
X+758056Y+1315908D01*
X+749167Y+1325907D01*
X+749167Y+1340906D01*
X+753611Y+1345906D01*
X+758056Y+1365905D02*
X+749167Y+1375905D01*
X+775833Y+1375905D01*
X+762500Y+1405903D02*
X+758056Y+1400903D01*
X+753611Y+1400903D01*
X+749167Y+1405903D01*
X+749167Y+1420902D01*
X+753611Y+1425902D01*
X+758056Y+1425902D01*
X+762500Y+1420902D01*
X+762500Y+1405903D01*
X+766944Y+1400903D01*
X+771389Y+1400903D01*
X+775833Y+1405903D01*
X+775833Y+1420902D01*
X+771389Y+1425902D01*
X+766944Y+1425902D01*
X+762500Y+1420902D01*
D46*
X+692500Y+907650D02*
X+832500Y+907650D01*
X+832500Y+1127650D01*
X+692500Y+1127650D01*
X+692500Y+907650D01*
D115*
X+762500Y+1067650D02*
X+762500Y+1067650D01*
D116*
X+771389Y+949396D02*
X+775833Y+944396D01*
X+775833Y+929397D01*
X+766944Y+919398D01*
X+758056Y+919398D01*
X+749167Y+929397D01*
X+749167Y+944396D01*
X+753611Y+949396D01*
X+758056Y+969395D02*
X+749167Y+979395D01*
X+775833Y+979395D01*
X+758056Y+1029392D02*
X+762500Y+1024392D01*
X+762500Y+1009393D01*
X+758056Y+1004393D01*
X+753611Y+1004393D01*
X+749167Y+1009393D01*
X+749167Y+1024392D01*
X+753611Y+1029392D01*
X+771389Y+1029392D01*
X+775833Y+1024392D01*
X+775833Y+1009393D01*
D46*
X+2635500Y+270200D02*
X+2825500Y+270200D01*
X+2825500Y+640200D01*
X+2635500Y+640200D01*
X+2635500Y+270200D01*
D124*
X+2730500Y+520200D02*
X+2730500Y+520200D01*
D125*
X+2750357Y+314994D02*
X+2710643Y+314994D01*
X+2710643Y+344779D01*
X+2723881Y+359672D01*
X+2737119Y+359672D01*
X+2750357Y+344779D01*
X+2750357Y+314994D01*
X+2717262Y+419243D02*
X+2710643Y+411796D01*
X+2710643Y+389457D01*
X+2717262Y+382011D01*
X+2743738Y+382011D01*
X+2750357Y+389457D01*
X+2750357Y+411796D01*
X+2743738Y+419243D01*
X+2737119Y+419243D01*
X+2730500Y+411796D01*
X+2730500Y+382011D01*
D46*
X+805600Y+282300D02*
X+1045600Y+282300D01*
X+1045600Y+532300D01*
X+805600Y+532300D01*
X+805600Y+282300D01*
D11*
X+860600Y+322300D02*
X+860600Y+322300D01*
D126*
X+856649Y+440596D02*
X+873886Y+455919D01*
X+891124Y+455919D01*
X+908362Y+440596D01*
X+908362Y+425274D01*
X+891124Y+409951D01*
X+873886Y+409951D01*
X+856649Y+425274D01*
X+856649Y+440596D01*
X+891124Y+425274D02*
X+908362Y+409951D01*
X+942837Y+440596D02*
X+960075Y+455919D01*
X+960075Y+409951D01*
D46*
X+666600Y+262300D02*
X+806600Y+262300D01*
X+806600Y+482300D01*
X+666600Y+482300D01*
X+666600Y+262300D01*
D115*
X+736600Y+322300D02*
X+736600Y+322300D01*
D116*
X+749933Y+350558D02*
X+723267Y+350558D01*
X+723267Y+375556D01*
X+727711Y+380556D01*
X+732156Y+380556D01*
X+736600Y+375556D01*
X+736600Y+350558D01*
X+736600Y+375556D02*
X+741044Y+380556D01*
X+749933Y+380556D01*
X+732156Y+400555D02*
X+723267Y+410555D01*
X+749933Y+410555D01*
X+727711Y+460552D02*
X+723267Y+455552D01*
X+723267Y+440553D01*
X+727711Y+435553D01*
X+745489Y+435553D01*
X+749933Y+440553D01*
X+749933Y+455552D01*
X+745489Y+460552D01*
X+741044Y+460552D01*
X+736600Y+455552D01*
X+736600Y+435553D01*
D46*
X+1047600Y+59100D02*
X+1187600Y+59100D01*
X+1187600Y+279100D01*
X+1047600Y+279100D01*
X+1047600Y+59100D01*
D115*
X+1117600Y+119100D02*
X+1117600Y+119100D01*
D116*
X+1130933Y+147358D02*
X+1104267Y+147358D01*
X+1104267Y+172356D01*
X+1108711Y+177356D01*
X+1113156Y+177356D01*
X+1117600Y+172356D01*
X+1117600Y+147358D01*
X+1117600Y+172356D02*
X+1122044Y+177356D01*
X+1130933Y+177356D01*
X+1113156Y+197355D02*
X+1104267Y+207355D01*
X+1130933Y+207355D01*
X+1104267Y+232353D02*
X+1104267Y+257352D01*
X+1108711Y+257352D01*
X+1130933Y+232353D01*
D46*
X+1277200Y+1502650D02*
X+1417200Y+1502650D01*
X+1417200Y+1722650D01*
X+1277200Y+1722650D01*
X+1277200Y+1502650D01*
D115*
X+1347200Y+1662650D02*
X+1347200Y+1662650D01*
D116*
X+1356089Y+1564395D02*
X+1360533Y+1559395D01*
X+1360533Y+1544396D01*
X+1351644Y+1534397D01*
X+1342756Y+1534397D01*
X+1333867Y+1544396D01*
X+1333867Y+1559395D01*
X+1338311Y+1564395D01*
X+1338311Y+1604393D02*
X+1333867Y+1599393D01*
X+1333867Y+1584394D01*
X+1338311Y+1579394D01*
X+1356089Y+1579394D01*
X+1360533Y+1584394D01*
X+1360533Y+1599393D01*
X+1356089Y+1604393D01*
X+1351644Y+1604393D01*
X+1347200Y+1599393D01*
X+1347200Y+1579394D01*
D46*
X+3171000Y+807410D02*
X+3311000Y+807410D01*
X+3311000Y+1027410D01*
X+3171000Y+1027410D01*
X+3171000Y+807410D01*
D115*
X+3241000Y+867410D02*
X+3241000Y+867410D01*
D116*
X+3249889Y+945665D02*
X+3254333Y+940665D01*
X+3254333Y+925666D01*
X+3245444Y+915667D01*
X+3236556Y+915667D01*
X+3227667Y+925666D01*
X+3227667Y+940665D01*
X+3232111Y+945665D01*
X+3227667Y+985663D02*
X+3227667Y+960664D01*
X+3236556Y+960664D01*
X+3236556Y+980663D01*
X+3241000Y+985663D01*
X+3249889Y+985663D01*
X+3254333Y+980663D01*
X+3254333Y+965664D01*
X+3249889Y+960664D01*
D46*
X+3371700Y+807410D02*
X+3511700Y+807410D01*
X+3511700Y+1027410D01*
X+3371700Y+1027410D01*
X+3371700Y+807410D01*
D115*
X+3441700Y+867410D02*
X+3441700Y+867410D01*
D116*
X+3450589Y+925666D02*
X+3455033Y+920666D01*
X+3455033Y+905667D01*
X+3446144Y+895668D01*
X+3437256Y+895668D01*
X+3428367Y+905667D01*
X+3428367Y+920666D01*
X+3432811Y+925666D01*
X+3437256Y+945665D02*
X+3428367Y+955665D01*
X+3455033Y+955665D01*
X+3428367Y+980663D02*
X+3428367Y+1005662D01*
X+3432811Y+1005662D01*
X+3455033Y+980663D01*
D46*
X+1982300Y+699460D02*
X+2122300Y+699460D01*
X+2122300Y+919460D01*
X+1982300Y+919460D01*
X+1982300Y+699460D01*
D115*
X+2052300Y+759460D02*
X+2052300Y+759460D01*
D116*
X+2065633Y+787718D02*
X+2038967Y+787718D01*
X+2038967Y+812716D01*
X+2043411Y+817716D01*
X+2047856Y+817716D01*
X+2052300Y+812716D01*
X+2052300Y+787718D01*
X+2052300Y+812716D02*
X+2056744Y+817716D01*
X+2065633Y+817716D01*
X+2047856Y+837715D02*
X+2038967Y+847715D01*
X+2065633Y+847715D01*
X+2056744Y+897712D02*
X+2056744Y+867714D01*
X+2038967Y+887713D01*
X+2065633Y+887713D01*
D48*
X+2842061Y+401250D02*
X+3004761Y+401250D01*
X+3004761Y+563950D01*
X+2842061Y+563950D01*
X+2842061Y+401250D01*
D105*
X+2855911Y+497600D02*
X+2889661Y+497600D01*
X+2872786Y+497600D02*
X+2872786Y+467600D01*
X+2900911Y+467600D02*
X+2900911Y+497600D01*
X+2929036Y+497600D01*
X+2934661Y+492600D01*
X+2934661Y+487600D01*
X+2929036Y+482600D01*
X+2900911Y+482600D01*
X+2957161Y+487600D02*
X+2968411Y+497600D01*
X+2968411Y+467600D01*
D48*
X+3096061Y+401250D02*
X+3258761Y+401250D01*
X+3258761Y+563950D01*
X+3096061Y+563950D01*
X+3096061Y+401250D01*
D105*
X+3109911Y+497600D02*
X+3143661Y+497600D01*
X+3126786Y+497600D02*
X+3126786Y+467600D01*
X+3154911Y+467600D02*
X+3154911Y+497600D01*
X+3183036Y+497600D01*
X+3188661Y+492600D01*
X+3188661Y+487600D01*
X+3183036Y+482600D01*
X+3154911Y+482600D01*
X+3205536Y+492600D02*
X+3211161Y+497600D01*
X+3228036Y+497600D01*
X+3233661Y+492600D01*
X+3233661Y+487600D01*
X+3228036Y+482600D01*
X+3211161Y+482600D01*
X+3205536Y+477600D01*
X+3205536Y+467600D01*
X+3233661Y+467600D01*
D46*
X+2318760Y+778200D02*
X+2538760Y+778200D01*
X+2538760Y+918200D01*
X+2318760Y+918200D01*
X+2318760Y+778200D01*
D115*
X+2378760Y+848200D02*
X+2378760Y+848200D01*
D116*
X+2427017Y+834867D02*
X+2427017Y+861533D01*
X+2452015Y+861533D01*
X+2457015Y+857089D01*
X+2457015Y+852644D01*
X+2452015Y+848200D01*
X+2427017Y+848200D01*
X+2452015Y+848200D02*
X+2457015Y+843756D01*
X+2457015Y+834867D01*
X+2497013Y+843756D02*
X+2467015Y+843756D01*
X+2487014Y+861533D01*
X+2487014Y+834867D01*
D46*
X+2318760Y+898200D02*
X+2538760Y+898200D01*
X+2538760Y+1038200D01*
X+2318760Y+1038200D01*
X+2318760Y+898200D01*
D115*
X+2378760Y+968200D02*
X+2378760Y+968200D01*
D116*
X+2427017Y+954867D02*
X+2427017Y+981533D01*
X+2452015Y+981533D01*
X+2457015Y+977089D01*
X+2457015Y+972644D01*
X+2452015Y+968200D01*
X+2427017Y+968200D01*
X+2452015Y+968200D02*
X+2457015Y+963756D01*
X+2457015Y+954867D01*
X+2497013Y+981533D02*
X+2472014Y+981533D01*
X+2472014Y+972644D01*
X+2492013Y+972644D01*
X+2497013Y+968200D01*
X+2497013Y+959311D01*
X+2492013Y+954867D01*
X+2477014Y+954867D01*
X+2472014Y+959311D01*
D46*
X+2936200Y+669285D02*
X+3126700Y+669285D01*
X+3126700Y+1037585D01*
X+2936200Y+1037585D01*
X+2936200Y+669285D01*
D127*
X+3031450Y+745490D02*
X+3031450Y+745490D01*
D128*
X+3048298Y+887188D02*
X+3056722Y+877711D01*
X+3056722Y+849280D01*
X+3039874Y+830326D01*
X+3023026Y+830326D01*
X+3006178Y+849280D01*
X+3006178Y+877711D01*
X+3014602Y+887188D01*
X+3031450Y+925096D02*
X+3023026Y+915619D01*
X+3014602Y+915619D01*
X+3006178Y+925096D01*
X+3006178Y+953527D01*
X+3014602Y+963004D01*
X+3023026Y+963004D01*
X+3031450Y+953527D01*
X+3031450Y+925096D01*
X+3039874Y+915619D01*
X+3048298Y+915619D01*
X+3056722Y+925096D01*
X+3056722Y+953527D01*
X+3048298Y+963004D01*
X+3039874Y+963004D01*
X+3031450Y+953527D01*
D46*
X+1644200Y+347500D02*
X+1864200Y+347500D01*
X+1864200Y+647500D01*
X+1644200Y+647500D01*
X+1644200Y+347500D01*
D129*
X+1754200Y+587500D02*
X+1754200Y+587500D01*
D130*
X+1691249Y+470848D02*
X+1691249Y+428881D01*
X+1738462Y+428881D01*
X+1769937Y+456859D02*
X+1785675Y+470848D01*
X+1785675Y+428881D01*
D46*
X+2017100Y+397500D02*
X+2277100Y+397500D01*
X+2277100Y+650500D01*
X+2017100Y+650500D01*
X+2017100Y+397500D01*
D131*
X+2197100Y+587500D02*
X+2197100Y+587500D01*
D132*
X+2072148Y+510149D02*
X+2072148Y+468509D01*
X+2081517Y+460181D01*
X+2118993Y+460181D01*
X+2128362Y+468509D01*
X+2128362Y+510149D01*
X+2165838Y+493493D02*
X+2184576Y+510149D01*
X+2184576Y+460181D01*
D46*
X+3429000Y+476250D02*
X+3581400Y+476250D01*
X+3581400Y+730250D01*
X+3429000Y+730250D01*
X+3429000Y+476250D01*
D119*
X+3505200Y+539750D02*
X+3505200Y+539750D01*
D133*
X+3517678Y+567121D02*
X+3492723Y+567121D01*
X+3492723Y+590516D01*
X+3496882Y+595195D01*
X+3501041Y+595195D01*
X+3505200Y+590516D01*
X+3509360Y+595195D01*
X+3513519Y+595195D01*
X+3517678Y+590516D01*
X+3517678Y+567121D01*
X+3505200Y+567121D02*
X+3505200Y+590516D01*
X+3517678Y+604553D02*
X+3501041Y+604553D01*
X+3492723Y+613911D01*
X+3492723Y+623269D01*
X+3501041Y+632627D01*
X+3517678Y+632627D01*
X+3509360Y+604553D02*
X+3509360Y+632627D01*
X+3492723Y+641985D02*
X+3492723Y+670059D01*
X+3492723Y+656022D02*
X+3517678Y+656022D01*
X+3501041Y+688775D02*
X+3492723Y+698133D01*
X+3517678Y+698133D01*
D46*
X+2279500Y+427500D02*
X+2419500Y+427500D01*
X+2419500Y+647500D01*
X+2279500Y+647500D01*
X+2279500Y+427500D01*
D115*
X+2349500Y+587500D02*
X+2349500Y+587500D01*
D116*
X+2358389Y+489245D02*
X+2362833Y+484245D01*
X+2362833Y+469246D01*
X+2353944Y+459247D01*
X+2345056Y+459247D01*
X+2336167Y+469246D01*
X+2336167Y+484245D01*
X+2340611Y+489245D01*
X+2340611Y+504244D02*
X+2336167Y+509244D01*
X+2336167Y+524243D01*
X+2340611Y+529243D01*
X+2345056Y+529243D01*
X+2349500Y+524243D01*
X+2349500Y+509244D01*
X+2353944Y+504244D01*
X+2362833Y+504244D01*
X+2362833Y+529243D01*
D46*
X+2417300Y+268850D02*
X+2637300Y+268850D01*
X+2637300Y+648850D01*
X+2417300Y+648850D01*
X+2417300Y+268850D01*
D134*
X+2527300Y+587500D02*
X+2527300Y+587500D01*
D104*
X+2545382Y+389198D02*
X+2554422Y+379028D01*
X+2554422Y+348516D01*
X+2536341Y+328175D01*
X+2518260Y+328175D01*
X+2500179Y+348516D01*
X+2500179Y+379028D01*
X+2509219Y+389198D01*
X+2536341Y+470563D02*
X+2536341Y+409540D01*
X+2500179Y+450222D01*
X+2554422Y+450222D01*
D46*
X+1862000Y+452900D02*
X+2002000Y+452900D01*
X+2002000Y+672900D01*
X+1862000Y+672900D01*
X+1862000Y+452900D01*
D115*
X+1932000Y+612900D02*
X+1932000Y+612900D01*
D116*
X+1940889Y+514645D02*
X+1945333Y+509645D01*
X+1945333Y+494646D01*
X+1936444Y+484647D01*
X+1927556Y+484647D01*
X+1918667Y+494646D01*
X+1918667Y+509645D01*
X+1923111Y+514645D01*
X+1918667Y+529644D02*
X+1918667Y+554643D01*
X+1923111Y+554643D01*
X+1945333Y+529644D01*
D46*
X+1982490Y+260200D02*
X+2202490Y+260200D01*
X+2202490Y+400200D01*
X+1982490Y+400200D01*
X+1982490Y+260200D01*
D115*
X+2142490Y+330200D02*
X+2142490Y+330200D01*
D116*
X+2014237Y+316867D02*
X+2014237Y+343533D01*
X+2039235Y+343533D01*
X+2044235Y+339089D01*
X+2044235Y+334644D01*
X+2039235Y+330200D01*
X+2014237Y+330200D01*
X+2039235Y+330200D02*
X+2044235Y+325756D01*
X+2044235Y+316867D01*
X+2059234Y+339089D02*
X+2064234Y+343533D01*
X+2079233Y+343533D01*
X+2084233Y+339089D01*
X+2084233Y+334644D01*
X+2079233Y+330200D01*
X+2084233Y+325756D01*
X+2084233Y+321311D01*
X+2079233Y+316867D01*
X+2064234Y+316867D01*
X+2059234Y+321311D01*
X+2069234Y+330200D02*
X+2079233Y+330200D01*
D46*
X+2189500Y+260200D02*
X+2409500Y+260200D01*
X+2409500Y+400200D01*
X+2189500Y+400200D01*
X+2189500Y+260200D01*
D115*
X+2349500Y+330200D02*
X+2349500Y+330200D01*
D116*
X+2201248Y+316867D02*
X+2201248Y+343533D01*
X+2226246Y+343533D01*
X+2231246Y+339089D01*
X+2231246Y+334644D01*
X+2226246Y+330200D01*
X+2201248Y+330200D01*
X+2226246Y+330200D02*
X+2231246Y+325756D01*
X+2231246Y+316867D01*
X+2251245Y+334644D02*
X+2261245Y+343533D01*
X+2261245Y+316867D01*
X+2311242Y+343533D02*
X+2286243Y+343533D01*
X+2286243Y+334644D01*
X+2306242Y+334644D01*
X+2311242Y+330200D01*
X+2311242Y+321311D01*
X+2306242Y+316867D01*
X+2291243Y+316867D01*
X+2286243Y+321311D01*
D46*
X+1426700Y+265550D02*
X+1646700Y+265550D01*
X+1646700Y+645550D01*
X+1426700Y+645550D01*
X+1426700Y+265550D01*
D134*
X+1536700Y+326900D02*
X+1536700Y+326900D01*
D104*
X+1554782Y+484518D02*
X+1563822Y+474348D01*
X+1563822Y+443836D01*
X+1545741Y+423495D01*
X+1527660Y+423495D01*
X+1509579Y+443836D01*
X+1509579Y+474348D01*
X+1518619Y+484518D01*
X+1527660Y+565883D02*
X+1536700Y+555713D01*
X+1536700Y+525201D01*
X+1527660Y+515030D01*
X+1518619Y+515030D01*
X+1509579Y+525201D01*
X+1509579Y+555713D01*
X+1518619Y+565883D01*
X+1554782Y+565883D01*
X+1563822Y+555713D01*
X+1563822Y+525201D01*
D46*
X-25400Y+869950D02*
X+127000Y+869950D01*
X+127000Y+1504950D01*
X-25400Y+1504950D01*
X-25400Y+869950D01*
D119*
X+50800Y+1441450D02*
X+50800Y+1441450D01*
D135*
X+60757Y+1059104D02*
X+70714Y+1059104D01*
X+80671Y+1070305D01*
X+80671Y+1115110D01*
X+70714Y+1126312D01*
X+20930Y+1126312D01*
X+20930Y+1215923D02*
X+20930Y+1159916D01*
X+40844Y+1159916D01*
X+40844Y+1204721D01*
X+50800Y+1215923D01*
X+70714Y+1215923D01*
X+80671Y+1204721D01*
X+80671Y+1171117D01*
X+70714Y+1159916D01*
D46*
X+1860400Y+248610D02*
X+2000400Y+248610D01*
X+2000400Y+468610D01*
X+1860400Y+468610D01*
X+1860400Y+248610D01*
D115*
X+1930400Y+308610D02*
X+1930400Y+308610D01*
D116*
X+1939289Y+366866D02*
X+1943733Y+361866D01*
X+1943733Y+346867D01*
X+1934844Y+336868D01*
X+1925956Y+336868D01*
X+1917067Y+346867D01*
X+1917067Y+361866D01*
X+1921511Y+366866D01*
X+1925956Y+386865D02*
X+1917067Y+396865D01*
X+1943733Y+396865D01*
X+1939289Y+416864D02*
X+1921511Y+416864D01*
X+1917067Y+421863D01*
X+1917067Y+441862D01*
X+1921511Y+446862D01*
X+1939289Y+446862D01*
X+1943733Y+441862D01*
X+1943733Y+421863D01*
X+1939289Y+416864D01*
X+1943733Y+416864D02*
X+1917067Y+446862D01*
D46*
X+1047600Y+262300D02*
X+1187600Y+262300D01*
X+1187600Y+482300D01*
X+1047600Y+482300D01*
X+1047600Y+262300D01*
D115*
X+1117600Y+322300D02*
X+1117600Y+322300D01*
D116*
X+1126489Y+380556D02*
X+1130933Y+375556D01*
X+1130933Y+360557D01*
X+1122044Y+350558D01*
X+1113156Y+350558D01*
X+1104267Y+360557D01*
X+1104267Y+375556D01*
X+1108711Y+380556D01*
X+1113156Y+400555D02*
X+1104267Y+410555D01*
X+1130933Y+410555D01*
X+1113156Y+440553D02*
X+1104267Y+450553D01*
X+1130933Y+450553D01*
D46*
X+1187300Y+690900D02*
X+1327300Y+690900D01*
X+1327300Y+910900D01*
X+1187300Y+910900D01*
X+1187300Y+690900D01*
D115*
X+1257300Y+850900D02*
X+1257300Y+850900D01*
D116*
X+1266189Y+752645D02*
X+1270633Y+747645D01*
X+1270633Y+732646D01*
X+1261744Y+722647D01*
X+1252856Y+722647D01*
X+1243967Y+732646D01*
X+1243967Y+747645D01*
X+1248411Y+752645D01*
X+1252856Y+772644D02*
X+1243967Y+782644D01*
X+1270633Y+782644D01*
D46*
X+1047600Y+470860D02*
X+1187600Y+470860D01*
X+1187600Y+690860D01*
X+1047600Y+690860D01*
X+1047600Y+470860D01*
D115*
X+1117600Y+530860D02*
X+1117600Y+530860D01*
D116*
X+1126489Y+609115D02*
X+1130933Y+604115D01*
X+1130933Y+589116D01*
X+1122044Y+579117D01*
X+1113156Y+579117D01*
X+1104267Y+589116D01*
X+1104267Y+604115D01*
X+1108711Y+609115D01*
X+1108711Y+624114D02*
X+1104267Y+629114D01*
X+1104267Y+644113D01*
X+1108711Y+649113D01*
X+1113156Y+649113D01*
X+1117600Y+644113D01*
X+1122044Y+649113D01*
X+1126489Y+649113D01*
X+1130933Y+644113D01*
X+1130933Y+629114D01*
X+1126489Y+624114D01*
X+1117600Y+634114D02*
X+1117600Y+644113D01*
D46*
X+1804500Y+690900D02*
X+1944500Y+690900D01*
X+1944500Y+910900D01*
X+1804500Y+910900D01*
X+1804500Y+690900D01*
D115*
X+1874500Y+850900D02*
X+1874500Y+850900D01*
D116*
X+1883389Y+732646D02*
X+1887833Y+727646D01*
X+1887833Y+712647D01*
X+1878944Y+702648D01*
X+1870056Y+702648D01*
X+1861167Y+712647D01*
X+1861167Y+727646D01*
X+1865611Y+732646D01*
X+1865611Y+747645D02*
X+1861167Y+752645D01*
X+1861167Y+767644D01*
X+1865611Y+772644D01*
X+1870056Y+772644D01*
X+1874500Y+767644D01*
X+1874500Y+752645D01*
X+1878944Y+747645D01*
X+1887833Y+747645D01*
X+1887833Y+772644D01*
X+1883389Y+782644D02*
X+1865611Y+782644D01*
X+1861167Y+787643D01*
X+1861167Y+807642D01*
X+1865611Y+812642D01*
X+1883389Y+812642D01*
X+1887833Y+807642D01*
X+1887833Y+787643D01*
X+1883389Y+782644D01*
X+1887833Y+782644D02*
X+1861167Y+812642D01*
D46*
X+1504800Y+690900D02*
X+1644800Y+690900D01*
X+1644800Y+910900D01*
X+1504800Y+910900D01*
X+1504800Y+690900D01*
D115*
X+1574800Y+850900D02*
X+1574800Y+850900D01*
D116*
X+1583689Y+732646D02*
X+1588133Y+727646D01*
X+1588133Y+712647D01*
X+1579244Y+702648D01*
X+1570356Y+702648D01*
X+1561467Y+712647D01*
X+1561467Y+727646D01*
X+1565911Y+732646D01*
X+1565911Y+747645D02*
X+1561467Y+752645D01*
X+1561467Y+767644D01*
X+1565911Y+772644D01*
X+1570356Y+772644D01*
X+1574800Y+767644D01*
X+1574800Y+752645D01*
X+1579244Y+747645D01*
X+1588133Y+747645D01*
X+1588133Y+772644D01*
X+1570356Y+792643D02*
X+1561467Y+802643D01*
X+1588133Y+802643D01*
D46*
X+1644500Y+690900D02*
X+1784500Y+690900D01*
X+1784500Y+910900D01*
X+1644500Y+910900D01*
X+1644500Y+690900D01*
D115*
X+1714500Y+850900D02*
X+1714500Y+850900D01*
D116*
X+1723389Y+732646D02*
X+1727833Y+727646D01*
X+1727833Y+712647D01*
X+1718944Y+702648D01*
X+1710056Y+702648D01*
X+1701167Y+712647D01*
X+1701167Y+727646D01*
X+1705611Y+732646D01*
X+1705611Y+747645D02*
X+1701167Y+752645D01*
X+1701167Y+767644D01*
X+1705611Y+772644D01*
X+1710056Y+772644D01*
X+1714500Y+767644D01*
X+1714500Y+752645D01*
X+1718944Y+747645D01*
X+1727833Y+747645D01*
X+1727833Y+772644D01*
X+1705611Y+787643D02*
X+1701167Y+792643D01*
X+1701167Y+807642D01*
X+1705611Y+812642D01*
X+1710056Y+812642D01*
X+1714500Y+807642D01*
X+1714500Y+792643D01*
X+1718944Y+787643D01*
X+1727833Y+787643D01*
X+1727833Y+812642D01*
D46*
X+427000Y+2145490D02*
X+647000Y+2145490D01*
X+647000Y+2285490D01*
X+427000Y+2285490D01*
X+427000Y+2145490D01*
D115*
X+587000Y+2215490D02*
X+587000Y+2215490D01*
D116*
X+458747Y+2202157D02*
X+458747Y+2228823D01*
X+483745Y+2228823D01*
X+488745Y+2224379D01*
X+488745Y+2219934D01*
X+483745Y+2215490D01*
X+458747Y+2215490D01*
X+483745Y+2215490D02*
X+488745Y+2211046D01*
X+488745Y+2202157D01*
X+503744Y+2224379D02*
X+508744Y+2228823D01*
X+523743Y+2228823D01*
X+528743Y+2224379D01*
X+528743Y+2219934D01*
X+523743Y+2215490D01*
X+508744Y+2215490D01*
X+503744Y+2211046D01*
X+503744Y+2202157D01*
X+528743Y+2202157D01*
D46*
X+67000Y+2146760D02*
X+287000Y+2146760D01*
X+287000Y+2286760D01*
X+67000Y+2286760D01*
X+67000Y+2146760D01*
D115*
X+127000Y+2216760D02*
X+127000Y+2216760D01*
D116*
X+175257Y+2203427D02*
X+175257Y+2230093D01*
X+200255Y+2230093D01*
X+205255Y+2225649D01*
X+205255Y+2221204D01*
X+200255Y+2216760D01*
X+175257Y+2216760D01*
X+200255Y+2216760D02*
X+205255Y+2212316D01*
X+205255Y+2203427D01*
X+220254Y+2230093D02*
X+245253Y+2230093D01*
X+245253Y+2225649D01*
X+220254Y+2203427D01*
D46*
X+794000Y+2293650D02*
X+1014000Y+2293650D01*
X+1014000Y+2433650D01*
X+794000Y+2433650D01*
X+794000Y+2293650D01*
D115*
X+854000Y+2363650D02*
X+854000Y+2363650D01*
D116*
X+882258Y+2350317D02*
X+882258Y+2376983D01*
X+907256Y+2376983D01*
X+912256Y+2372539D01*
X+912256Y+2368094D01*
X+907256Y+2363650D01*
X+882258Y+2363650D01*
X+907256Y+2363650D02*
X+912256Y+2359206D01*
X+912256Y+2350317D01*
X+932255Y+2368094D02*
X+942255Y+2376983D01*
X+942255Y+2350317D01*
X+967253Y+2372539D02*
X+972253Y+2376983D01*
X+987252Y+2376983D01*
X+992252Y+2372539D01*
X+992252Y+2368094D01*
X+987252Y+2363650D01*
X+972253Y+2363650D01*
X+967253Y+2359206D01*
X+967253Y+2350317D01*
X+992252Y+2350317D01*
D46*
X+1327000Y+699460D02*
X+1467000Y+699460D01*
X+1467000Y+919460D01*
X+1327000Y+919460D01*
X+1327000Y+699460D01*
D115*
X+1397000Y+759460D02*
X+1397000Y+759460D01*
D116*
X+1410333Y+787718D02*
X+1383667Y+787718D01*
X+1383667Y+812716D01*
X+1388111Y+817716D01*
X+1392556Y+817716D01*
X+1397000Y+812716D01*
X+1397000Y+787718D01*
X+1397000Y+812716D02*
X+1401444Y+817716D01*
X+1410333Y+817716D01*
X+1388111Y+832715D02*
X+1383667Y+837715D01*
X+1383667Y+852714D01*
X+1388111Y+857714D01*
X+1392556Y+857714D01*
X+1397000Y+852714D01*
X+1397000Y+837715D01*
X+1401444Y+832715D01*
X+1410333Y+832715D01*
X+1410333Y+857714D01*
X+1388111Y+872713D02*
X+1383667Y+877713D01*
X+1383667Y+892712D01*
X+1388111Y+897712D01*
X+1392556Y+897712D01*
X+1397000Y+892712D01*
X+1397000Y+877713D01*
X+1401444Y+872713D01*
X+1410333Y+872713D01*
X+1410333Y+897712D01*
M02*
