M48
METRIC,TZ
T01C0.3050
T02C0.6000
%
T01
X+31329Y+18696
X+30884Y+19496
X+31329Y+20296
X+10075Y+14926
X+8853Y+14926
X+7625Y+14391
X+30099Y+21526
X+18616Y+15712
X+14488Y+22596
X+14872Y+18150
X+17412Y+20690
X+17792Y+22596
X+26937Y+18923
X+27826Y+18923
X+18742Y+17134
X+31521Y+9588
X+34417Y+10643
X+31877Y+22034
X+27699Y+21463
X+26099Y+12666
X+26899Y+13111
X+24321Y+7530
X+28736Y+7593
X+31521Y+10478
X+22786Y+20512
X+32448Y+5334
X+35052Y+6668
X+20193Y+4254
X+20336Y+5430
X+20336Y+6256
X+22670Y+4262
X+23495Y+4262
X+14232Y+10432
X+14232Y+11276
X+7239Y+8700
X+2159Y+8954
X+3096Y+6002
X+3986Y+6002
X+7796Y+4986
X+6906Y+4986
X+508Y+11874
X+508Y+13144
X+9208Y+4048
X+10096Y+4048
X+17145Y+2413
X+12065Y+2222
X+31338Y+14696
X+27386Y+7143
X+4501Y+11016
X+4882Y+12746
X+14229Y+9239
X+30884Y+13896
X+31329Y+13096
X+20955Y+22034
X+2819Y+22168
X+4321Y+22155
X+25299Y+21463
X+11042Y+23636
X+11042Y+22147
X+24670Y+19526
X+26860Y+17336
X+17412Y+19420
X+28499Y+12666
X+29299Y+13111
X+14869Y+15712
X+11370Y+17459
X+9792Y+19036
X+9225Y+17411
X+13756Y+4112
X+14644Y+4112
X+15938Y+5016
X+15050Y+5016
X+10414Y+8509
X+18034Y+2413
X+12756Y+5240
X+13256Y+6891
X+6439Y+2604
X+10228Y+5939
X+8284Y+5939
X+15245Y+13436
X+19570Y+8192
X+19570Y+9080
X+15748Y+9239
X+15438Y+11276
X+15438Y+10432
X+15880Y+12800
X+14234Y+16626
X+23178Y+9080
X+17277Y+13436
X+11042Y+20686
X+6414Y+4137
X+16510Y+14097
X+20268Y+10160
X+19368Y+14097
X+25654Y+14097
X+21326Y+11216
X+17145Y+9208
X+33020Y+2858
X+29234Y+4826
X+29234Y+3302
X+24320Y+4262
X+25146Y+4262
X+10160Y+2096
X+3683Y+4137
X+11075Y+12076
X+35100Y+4445
X+35100Y+14288
X+33020Y+22860
X+30099Y+15496
X+25019Y+15496
X+23622Y+18150
X+16002Y+20690
X+27940Y+20320
X+23584Y+21463
X+4321Y+19615
X+3330Y+25590
X+1273Y+19932
X+1270Y+2152
X+1270Y+4121
X+11855Y+19295
X+21837Y+9973
T02
X+22860Y+25464
X+21590Y+25464
X+20320Y+25464
X+19050Y+25464
X+17780Y+25464
X+16510Y+25464
X+15240Y+25464
X+13970Y+25464
X+12700Y+25464
X+11430Y+25464
X+33655Y+25464
X+32385Y+25464
X+31115Y+25464
X+29845Y+25464
X+28575Y+25464
X+27305Y+25464
X+26035Y+25464
X+24765Y+25464
X+26035Y+1334
X+27305Y+1334
X+28575Y+1334
X+29845Y+1334
X+31115Y+1334
X+32385Y+1334
X+33655Y+1334
X+13335Y+1334
X+14605Y+1334
X+15875Y+1334
X+17145Y+1334
X+18415Y+1334
X+19685Y+1334
X+20955Y+1334
X+22225Y+1334
X+23495Y+1334
X+24765Y+1334
M30
