G04 PROTEUS RS274X GERBER FILE*
%FSLAX45Y45*%
%MOMM*%
G01*
%ADD48C,0.127000*%
%ADD46C,0.025400*%
%ADD136C,0.063500*%
D48*
X+3087999Y+1914551D02*
X+3177801Y+1824749D01*
X+3087999Y+1824749D02*
X+3177801Y+1914551D01*
X+3043549Y+1994551D02*
X+3133351Y+1904749D01*
X+3043549Y+1904749D02*
X+3133351Y+1994551D01*
X+3087999Y+2074551D02*
X+3177801Y+1984749D01*
X+3087999Y+1984749D02*
X+3177801Y+2074551D01*
X+962599Y+1537551D02*
X+1052401Y+1447749D01*
X+962599Y+1447749D02*
X+1052401Y+1537551D01*
X+840393Y+1537551D02*
X+930195Y+1447749D01*
X+840393Y+1447749D02*
X+930195Y+1537551D01*
X+717599Y+1483991D02*
X+807401Y+1394189D01*
X+717599Y+1394189D02*
X+807401Y+1483991D01*
X+2964999Y+2197551D02*
X+3054801Y+2107749D01*
X+2964999Y+2107749D02*
X+3054801Y+2197551D01*
X+1816649Y+1616111D02*
X+1906451Y+1526309D01*
X+1816649Y+1526309D02*
X+1906451Y+1616111D01*
X+1403899Y+2304451D02*
X+1493701Y+2214649D01*
X+1403899Y+2214649D02*
X+1493701Y+2304451D01*
X+1442249Y+1859951D02*
X+1532051Y+1770149D01*
X+1442249Y+1770149D02*
X+1532051Y+1859951D01*
X+1696249Y+2113951D02*
X+1786051Y+2024149D01*
X+1696249Y+2024149D02*
X+1786051Y+2113951D01*
X+1734349Y+2304451D02*
X+1824151Y+2214649D01*
X+1734349Y+2214649D02*
X+1824151Y+2304451D01*
X+2648799Y+1937201D02*
X+2738601Y+1847399D01*
X+2648799Y+1847399D02*
X+2738601Y+1937201D01*
X+2737699Y+1937201D02*
X+2827501Y+1847399D01*
X+2737699Y+1847399D02*
X+2827501Y+1937201D01*
X+1829349Y+1758351D02*
X+1919151Y+1668549D01*
X+1829349Y+1668549D02*
X+1919151Y+1758351D01*
X+3107199Y+1003751D02*
X+3197001Y+913949D01*
X+3107199Y+913949D02*
X+3197001Y+1003751D01*
X+3396799Y+1109161D02*
X+3486601Y+1019359D01*
X+3396799Y+1019359D02*
X+3486601Y+1109161D01*
X+3142799Y+2248351D02*
X+3232601Y+2158549D01*
X+3142799Y+2158549D02*
X+3232601Y+2248351D01*
X+2724999Y+2191201D02*
X+2814801Y+2101399D01*
X+2724999Y+2101399D02*
X+2814801Y+2191201D01*
X+2564999Y+1311551D02*
X+2654801Y+1221749D01*
X+2564999Y+1221749D02*
X+2654801Y+1311551D01*
X+2644999Y+1356001D02*
X+2734801Y+1266199D01*
X+2644999Y+1266199D02*
X+2734801Y+1356001D01*
X+2387199Y+797851D02*
X+2477001Y+708049D01*
X+2387199Y+708049D02*
X+2477001Y+797851D01*
X+2828649Y+804201D02*
X+2918451Y+714399D01*
X+2828649Y+714399D02*
X+2918451Y+804201D01*
X+3107199Y+1092651D02*
X+3197001Y+1002849D01*
X+3107199Y+1002849D02*
X+3197001Y+1092651D01*
X+2233749Y+2096151D02*
X+2323551Y+2006349D01*
X+2233749Y+2006349D02*
X+2323551Y+2096151D01*
X+3199949Y+578301D02*
X+3289751Y+488499D01*
X+3199949Y+488499D02*
X+3289751Y+578301D01*
X+3460299Y+711651D02*
X+3550101Y+621849D01*
X+3460299Y+621849D02*
X+3550101Y+711651D01*
X+1974399Y+470351D02*
X+2064201Y+380549D01*
X+1974399Y+380549D02*
X+2064201Y+470351D01*
X+1988699Y+587951D02*
X+2078501Y+498149D01*
X+1988699Y+498149D02*
X+2078501Y+587951D01*
X+1988699Y+670501D02*
X+2078501Y+580699D01*
X+1988699Y+580699D02*
X+2078501Y+670501D01*
X+2317299Y+471111D02*
X+2407101Y+381309D01*
X+2317299Y+381309D02*
X+2407101Y+471111D01*
X+1378249Y+1088101D02*
X+1468051Y+998299D01*
X+1378249Y+998299D02*
X+1468051Y+1088101D01*
X+1378249Y+1172551D02*
X+1468051Y+1082749D01*
X+1378249Y+1082749D02*
X+1468051Y+1172551D01*
X+678999Y+914851D02*
X+768801Y+825049D01*
X+678999Y+825049D02*
X+768801Y+914851D01*
X+170999Y+940251D02*
X+260801Y+850449D01*
X+170999Y+850449D02*
X+260801Y+940251D01*
X+264749Y+645151D02*
X+354551Y+555349D01*
X+264749Y+555349D02*
X+354551Y+645151D01*
X+353649Y+645151D02*
X+443451Y+555349D01*
X+353649Y+555349D02*
X+443451Y+645151D01*
X+734649Y+543551D02*
X+824451Y+453749D01*
X+734649Y+453749D02*
X+824451Y+543551D01*
X+645749Y+543551D02*
X+735551Y+453749D01*
X+645749Y+453749D02*
X+735551Y+543551D01*
X+5899Y+1232351D02*
X+95701Y+1142549D01*
X+5899Y+1142549D02*
X+95701Y+1232351D01*
X+5899Y+1359351D02*
X+95701Y+1269549D01*
X+5899Y+1269549D02*
X+95701Y+1359351D01*
X+875849Y+449751D02*
X+965651Y+359949D01*
X+875849Y+359949D02*
X+965651Y+449751D01*
X+964749Y+449751D02*
X+1054551Y+359949D01*
X+964749Y+359949D02*
X+1054551Y+449751D01*
X+1669599Y+286201D02*
X+1759401Y+196399D01*
X+1669599Y+196399D02*
X+1759401Y+286201D01*
X+1161599Y+267151D02*
X+1251401Y+177349D01*
X+1161599Y+177349D02*
X+1251401Y+267151D01*
X+3088863Y+1514551D02*
X+3178665Y+1424749D01*
X+3088863Y+1424749D02*
X+3178665Y+1514551D01*
X+2693649Y+759201D02*
X+2783451Y+669399D01*
X+2693649Y+669399D02*
X+2783451Y+759201D01*
X+405199Y+1146451D02*
X+495001Y+1056649D01*
X+405199Y+1056649D02*
X+495001Y+1146451D01*
X+443299Y+1319451D02*
X+533101Y+1229649D01*
X+443299Y+1229649D02*
X+533101Y+1319451D01*
X+1377991Y+968826D02*
X+1467793Y+879024D01*
X+1377991Y+879024D02*
X+1467793Y+968826D01*
X+3043549Y+1434551D02*
X+3133351Y+1344749D01*
X+3043549Y+1344749D02*
X+3133351Y+1434551D01*
X+3087999Y+1354551D02*
X+3177801Y+1264749D01*
X+3087999Y+1264749D02*
X+3177801Y+1354551D01*
X+2050599Y+2248351D02*
X+2140401Y+2158549D01*
X+2050599Y+2158549D02*
X+2140401Y+2248351D01*
X+237039Y+2261661D02*
X+326841Y+2171859D01*
X+237039Y+2171859D02*
X+326841Y+2261661D01*
X+387159Y+2260391D02*
X+476961Y+2170589D01*
X+387159Y+2170589D02*
X+476961Y+2260391D01*
X+2484999Y+2191201D02*
X+2574801Y+2101399D01*
X+2484999Y+2101399D02*
X+2574801Y+2191201D01*
X+1059289Y+2408551D02*
X+1149091Y+2318749D01*
X+1059289Y+2318749D02*
X+1149091Y+2408551D01*
X+1059289Y+2259601D02*
X+1149091Y+2169799D01*
X+1059289Y+2169799D02*
X+1149091Y+2259601D01*
X+2422074Y+1997526D02*
X+2511876Y+1907724D01*
X+2422074Y+1907724D02*
X+2511876Y+1997526D01*
X+2641149Y+1778451D02*
X+2730951Y+1688649D01*
X+2641149Y+1688649D02*
X+2730951Y+1778451D01*
X+1696249Y+1986951D02*
X+1786051Y+1897149D01*
X+1696249Y+1897149D02*
X+1786051Y+1986951D01*
X+2804999Y+1311551D02*
X+2894801Y+1221749D01*
X+2804999Y+1221749D02*
X+2894801Y+1311551D01*
X+2884999Y+1356001D02*
X+2974801Y+1266199D01*
X+2884999Y+1266199D02*
X+2974801Y+1356001D01*
X+1441999Y+1616111D02*
X+1531801Y+1526309D01*
X+1441999Y+1526309D02*
X+1531801Y+1616111D01*
X+1092099Y+1790801D02*
X+1181901Y+1700999D01*
X+1092099Y+1700999D02*
X+1181901Y+1790801D01*
X+934349Y+1948551D02*
X+1024151Y+1858749D01*
X+934349Y+1858749D02*
X+1024151Y+1948551D01*
X+877599Y+1785991D02*
X+967401Y+1696189D01*
X+877599Y+1696189D02*
X+967401Y+1785991D01*
X+1330649Y+456101D02*
X+1420451Y+366299D01*
X+1330649Y+366299D02*
X+1420451Y+456101D01*
X+1419549Y+456101D02*
X+1509351Y+366299D01*
X+1419549Y+366299D02*
X+1509351Y+456101D01*
X+1548949Y+546551D02*
X+1638751Y+456749D01*
X+1548949Y+456749D02*
X+1638751Y+546551D01*
X+1460049Y+546551D02*
X+1549851Y+456749D01*
X+1460049Y+456749D02*
X+1549851Y+546551D01*
X+996499Y+895801D02*
X+1086301Y+805999D01*
X+996499Y+805999D02*
X+1086301Y+895801D01*
X+1758499Y+286201D02*
X+1848301Y+196399D01*
X+1758499Y+196399D02*
X+1848301Y+286201D01*
X+1230649Y+568901D02*
X+1320451Y+479099D01*
X+1230649Y+479099D02*
X+1320451Y+568901D01*
X+1280649Y+734001D02*
X+1370451Y+644199D01*
X+1280649Y+644199D02*
X+1370451Y+734001D01*
X+598989Y+305251D02*
X+688791Y+215449D01*
X+598989Y+215449D02*
X+688791Y+305251D01*
X+977849Y+638801D02*
X+1067651Y+548999D01*
X+977849Y+548999D02*
X+1067651Y+638801D01*
X+783549Y+638801D02*
X+873351Y+548999D01*
X+783549Y+548999D02*
X+873351Y+638801D01*
X+1479591Y+1388451D02*
X+1569393Y+1298649D01*
X+1479591Y+1298649D02*
X+1569393Y+1388451D01*
X+1912149Y+864051D02*
X+2001951Y+774249D01*
X+1912149Y+774249D02*
X+2001951Y+864051D01*
X+1912149Y+952951D02*
X+2001951Y+863149D01*
X+1912149Y+863149D02*
X+2001951Y+952951D01*
X+1529899Y+968826D02*
X+1619701Y+879024D01*
X+1529899Y+879024D02*
X+1619701Y+968826D01*
X+1498899Y+1172551D02*
X+1588701Y+1082749D01*
X+1498899Y+1082749D02*
X+1588701Y+1172551D01*
X+1498899Y+1088101D02*
X+1588701Y+998299D01*
X+1498899Y+998299D02*
X+1588701Y+1088101D01*
X+1543091Y+1324951D02*
X+1632893Y+1235149D01*
X+1543091Y+1235149D02*
X+1632893Y+1324951D01*
X+1378499Y+1707551D02*
X+1468301Y+1617749D01*
X+1378499Y+1617749D02*
X+1468301Y+1707551D01*
X+2272849Y+952951D02*
X+2362651Y+863149D01*
X+2272849Y+863149D02*
X+2362651Y+952951D01*
X+1682791Y+1388451D02*
X+1772593Y+1298649D01*
X+1682791Y+1298649D02*
X+1772593Y+1388451D01*
X+1059289Y+2113551D02*
X+1149091Y+2023749D01*
X+1059289Y+2023749D02*
X+1149091Y+2113551D01*
X+596449Y+458641D02*
X+686251Y+368839D01*
X+596449Y+368839D02*
X+686251Y+458641D01*
X+1606099Y+1454601D02*
X+1695901Y+1364799D01*
X+1606099Y+1364799D02*
X+1695901Y+1454601D01*
X+1981881Y+1060901D02*
X+2071683Y+971099D01*
X+1981881Y+971099D02*
X+2071683Y+1060901D01*
X+1891849Y+1454601D02*
X+1981651Y+1364799D01*
X+1891849Y+1364799D02*
X+1981651Y+1454601D01*
X+2520499Y+1454601D02*
X+2610301Y+1364799D01*
X+2520499Y+1364799D02*
X+2610301Y+1454601D01*
X+2087699Y+1166551D02*
X+2177501Y+1076749D01*
X+2087699Y+1076749D02*
X+2177501Y+1166551D01*
X+1669599Y+965651D02*
X+1759401Y+875849D01*
X+1669599Y+875849D02*
X+1759401Y+965651D01*
X+3257099Y+330651D02*
X+3346901Y+240849D01*
X+3257099Y+240849D02*
X+3346901Y+330651D01*
X+2878510Y+527501D02*
X+2968312Y+437699D01*
X+2878510Y+437699D02*
X+2968312Y+527501D01*
X+2878510Y+375101D02*
X+2968312Y+285299D01*
X+2878510Y+285299D02*
X+2968312Y+375101D01*
X+2399849Y+471111D02*
X+2489651Y+381309D01*
X+2399849Y+381309D02*
X+2489651Y+471111D01*
X+2482399Y+471111D02*
X+2572201Y+381309D01*
X+2482399Y+381309D02*
X+2572201Y+471111D01*
X+323399Y+458641D02*
X+413201Y+368839D01*
X+323399Y+368839D02*
X+413201Y+458641D01*
X+1062599Y+1252551D02*
X+1152401Y+1162749D01*
X+1062599Y+1162749D02*
X+1152401Y+1252551D01*
X+3465074Y+489401D02*
X+3554876Y+399599D01*
X+3465074Y+399599D02*
X+3554876Y+489401D01*
X+3465074Y+1473651D02*
X+3554876Y+1383849D01*
X+3465074Y+1383849D02*
X+3554876Y+1473651D01*
X+3257099Y+2330901D02*
X+3346901Y+2241099D01*
X+3257099Y+2241099D02*
X+3346901Y+2330901D01*
X+2964999Y+1594551D02*
X+3054801Y+1504749D01*
X+2964999Y+1504749D02*
X+3054801Y+1594551D01*
X+2456999Y+1594551D02*
X+2546801Y+1504749D01*
X+2456999Y+1504749D02*
X+2546801Y+1594551D01*
X+2317299Y+1859951D02*
X+2407101Y+1770149D01*
X+2317299Y+1770149D02*
X+2407101Y+1859951D01*
X+1555299Y+2113951D02*
X+1645101Y+2024149D01*
X+1555299Y+2024149D02*
X+1645101Y+2113951D01*
X+2749099Y+2076901D02*
X+2838901Y+1987099D01*
X+2749099Y+1987099D02*
X+2838901Y+2076901D01*
X+2313549Y+2191201D02*
X+2403351Y+2101399D01*
X+2313549Y+2101399D02*
X+2403351Y+2191201D01*
X+387159Y+2006391D02*
X+476961Y+1916589D01*
X+387159Y+1916589D02*
X+476961Y+2006391D01*
X+288099Y+2603951D02*
X+377901Y+2514149D01*
X+288099Y+2514149D02*
X+377901Y+2603951D01*
X+82359Y+2038141D02*
X+172161Y+1948339D01*
X+82359Y+1948339D02*
X+172161Y+2038141D01*
X+82099Y+260141D02*
X+171901Y+170339D01*
X+82099Y+170339D02*
X+171901Y+260141D01*
X+82099Y+456991D02*
X+171901Y+367189D01*
X+82099Y+367189D02*
X+171901Y+456991D01*
X+1140569Y+1974386D02*
X+1230371Y+1884584D01*
X+1140569Y+1884584D02*
X+1230371Y+1974386D01*
X+2138789Y+1042206D02*
X+2228591Y+952404D01*
X+2138789Y+952404D02*
X+2228591Y+1042206D01*
X+2222049Y+471111D02*
X+2311851Y+381309D01*
X+2222049Y+381309D02*
X+2311851Y+471111D01*
X+758549Y+367201D02*
X+848351Y+277399D01*
X+758549Y+277399D02*
X+848351Y+367201D01*
X+971099Y+254451D02*
X+1060901Y+164649D01*
X+971099Y+164649D02*
X+1060901Y+254451D01*
X+694239Y+273501D02*
X+784041Y+183699D01*
X+694239Y+183699D02*
X+784041Y+273501D01*
X+598989Y+108401D02*
X+688791Y+18599D01*
X+598989Y+18599D02*
X+688791Y+108401D01*
X+1161599Y+178251D02*
X+1251401Y+88449D01*
X+1161599Y+88449D02*
X+1251401Y+178251D01*
X+545000Y+819150D02*
X+545000Y+692150D01*
X+481500Y+755650D02*
X+608500Y+755650D01*
X+500099Y+800551D02*
X+589901Y+710749D01*
X+500099Y+710749D02*
X+589901Y+800551D01*
X+545000Y+1683150D02*
X+545000Y+1556150D01*
X+481500Y+1619650D02*
X+608500Y+1619650D01*
X+500099Y+1664551D02*
X+589901Y+1574749D01*
X+500099Y+1574749D02*
X+589901Y+1664551D01*
X+127000Y+819150D02*
X+127000Y+692150D01*
X+63500Y+755650D02*
X+190500Y+755650D01*
X+82099Y+800551D02*
X+171901Y+710749D01*
X+82099Y+710749D02*
X+171901Y+800551D01*
X+127000Y+1683150D02*
X+127000Y+1556150D01*
X+63500Y+1619650D02*
X+190500Y+1619650D01*
X+82099Y+1664551D02*
X+171901Y+1574749D01*
X+82099Y+1574749D02*
X+171901Y+1664551D01*
X+2286000Y+2609850D02*
X+2286000Y+2482850D01*
X+2222500Y+2546350D02*
X+2349500Y+2546350D01*
X+2159000Y+2609850D02*
X+2159000Y+2482850D01*
X+2095500Y+2546350D02*
X+2222500Y+2546350D01*
X+2032000Y+2609850D02*
X+2032000Y+2482850D01*
X+1968500Y+2546350D02*
X+2095500Y+2546350D01*
X+1905000Y+2609850D02*
X+1905000Y+2482850D01*
X+1841500Y+2546350D02*
X+1968500Y+2546350D01*
X+1778000Y+2609850D02*
X+1778000Y+2482850D01*
X+1714500Y+2546350D02*
X+1841500Y+2546350D01*
X+1651000Y+2609850D02*
X+1651000Y+2482850D01*
X+1587500Y+2546350D02*
X+1714500Y+2546350D01*
X+1524000Y+2609850D02*
X+1524000Y+2482850D01*
X+1460500Y+2546350D02*
X+1587500Y+2546350D01*
X+1397000Y+2609850D02*
X+1397000Y+2482850D01*
X+1333500Y+2546350D02*
X+1460500Y+2546350D01*
X+1270000Y+2609850D02*
X+1270000Y+2482850D01*
X+1206500Y+2546350D02*
X+1333500Y+2546350D01*
X+1143000Y+2609850D02*
X+1143000Y+2482850D01*
X+1079500Y+2546350D02*
X+1206500Y+2546350D01*
X+3365500Y+2609850D02*
X+3365500Y+2482850D01*
X+3302000Y+2546350D02*
X+3429000Y+2546350D01*
X+3238500Y+2609850D02*
X+3238500Y+2482850D01*
X+3175000Y+2546350D02*
X+3302000Y+2546350D01*
X+3111500Y+2609850D02*
X+3111500Y+2482850D01*
X+3048000Y+2546350D02*
X+3175000Y+2546350D01*
X+2984500Y+2609850D02*
X+2984500Y+2482850D01*
X+2921000Y+2546350D02*
X+3048000Y+2546350D01*
X+2857500Y+2609850D02*
X+2857500Y+2482850D01*
X+2794000Y+2546350D02*
X+2921000Y+2546350D01*
X+2730500Y+2609850D02*
X+2730500Y+2482850D01*
X+2667000Y+2546350D02*
X+2794000Y+2546350D01*
X+2603500Y+2609850D02*
X+2603500Y+2482850D01*
X+2540000Y+2546350D02*
X+2667000Y+2546350D01*
X+2476500Y+2609850D02*
X+2476500Y+2482850D01*
X+2413000Y+2546350D02*
X+2540000Y+2546350D01*
X+2603500Y+196850D02*
X+2603500Y+69850D01*
X+2540000Y+133350D02*
X+2667000Y+133350D01*
X+2730500Y+196850D02*
X+2730500Y+69850D01*
X+2667000Y+133350D02*
X+2794000Y+133350D01*
X+2857500Y+196850D02*
X+2857500Y+69850D01*
X+2794000Y+133350D02*
X+2921000Y+133350D01*
X+2984500Y+196850D02*
X+2984500Y+69850D01*
X+2921000Y+133350D02*
X+3048000Y+133350D01*
X+3111500Y+196850D02*
X+3111500Y+69850D01*
X+3048000Y+133350D02*
X+3175000Y+133350D01*
X+3238500Y+196850D02*
X+3238500Y+69850D01*
X+3175000Y+133350D02*
X+3302000Y+133350D01*
X+3365500Y+196850D02*
X+3365500Y+69850D01*
X+3302000Y+133350D02*
X+3429000Y+133350D01*
X+1333500Y+196850D02*
X+1333500Y+69850D01*
X+1270000Y+133350D02*
X+1397000Y+133350D01*
X+1460500Y+196850D02*
X+1460500Y+69850D01*
X+1397000Y+133350D02*
X+1524000Y+133350D01*
X+1587500Y+196850D02*
X+1587500Y+69850D01*
X+1524000Y+133350D02*
X+1651000Y+133350D01*
X+1714500Y+196850D02*
X+1714500Y+69850D01*
X+1651000Y+133350D02*
X+1778000Y+133350D01*
X+1841500Y+196850D02*
X+1841500Y+69850D01*
X+1778000Y+133350D02*
X+1905000Y+133350D01*
X+1968500Y+196850D02*
X+1968500Y+69850D01*
X+1905000Y+133350D02*
X+2032000Y+133350D01*
X+2095500Y+196850D02*
X+2095500Y+69850D01*
X+2032000Y+133350D02*
X+2159000Y+133350D01*
X+2222500Y+196850D02*
X+2222500Y+69850D01*
X+2159000Y+133350D02*
X+2286000Y+133350D01*
X+2349500Y+196850D02*
X+2349500Y+69850D01*
X+2286000Y+133350D02*
X+2413000Y+133350D01*
X+2476500Y+196850D02*
X+2476500Y+69850D01*
X+2413000Y+133350D02*
X+2540000Y+133350D01*
D46*
X+525000Y+898650D02*
X+524897Y+901139D01*
X+524055Y+906119D01*
X+522295Y+911099D01*
X+519418Y+916079D01*
X+515017Y+920995D01*
X+510037Y+924609D01*
X+505057Y+926914D01*
X+500077Y+928217D01*
X+495097Y+928650D01*
X+495000Y+928650D01*
X+465000Y+898650D02*
X+465103Y+901139D01*
X+465945Y+906119D01*
X+467705Y+911099D01*
X+470582Y+916079D01*
X+474983Y+920995D01*
X+479963Y+924609D01*
X+484943Y+926914D01*
X+489923Y+928217D01*
X+494903Y+928650D01*
X+495000Y+928650D01*
X+465000Y+898650D02*
X+465103Y+896161D01*
X+465945Y+891181D01*
X+467705Y+886201D01*
X+470582Y+881221D01*
X+474983Y+876305D01*
X+479963Y+872691D01*
X+484943Y+870386D01*
X+489923Y+869083D01*
X+494903Y+868650D01*
X+495000Y+868650D01*
X+525000Y+898650D02*
X+524897Y+896161D01*
X+524055Y+891181D01*
X+522295Y+886201D01*
X+519418Y+881221D01*
X+515017Y+876305D01*
X+510037Y+872691D01*
X+505057Y+870386D01*
X+500077Y+869083D01*
X+495097Y+868650D01*
X+495000Y+868650D01*
X+525000Y+1476650D02*
X+524897Y+1479139D01*
X+524055Y+1484119D01*
X+522295Y+1489099D01*
X+519418Y+1494079D01*
X+515017Y+1498995D01*
X+510037Y+1502609D01*
X+505057Y+1504914D01*
X+500077Y+1506217D01*
X+495097Y+1506650D01*
X+495000Y+1506650D01*
X+465000Y+1476650D02*
X+465103Y+1479139D01*
X+465945Y+1484119D01*
X+467705Y+1489099D01*
X+470582Y+1494079D01*
X+474983Y+1498995D01*
X+479963Y+1502609D01*
X+484943Y+1504914D01*
X+489923Y+1506217D01*
X+494903Y+1506650D01*
X+495000Y+1506650D01*
X+465000Y+1476650D02*
X+465103Y+1474161D01*
X+465945Y+1469181D01*
X+467705Y+1464201D01*
X+470582Y+1459221D01*
X+474983Y+1454305D01*
X+479963Y+1450691D01*
X+484943Y+1448386D01*
X+489923Y+1447083D01*
X+494903Y+1446650D01*
X+495000Y+1446650D01*
X+525000Y+1476650D02*
X+524897Y+1474161D01*
X+524055Y+1469181D01*
X+522295Y+1464201D01*
X+519418Y+1459221D01*
X+515017Y+1454305D01*
X+510037Y+1450691D01*
X+505057Y+1448386D01*
X+500077Y+1447083D01*
X+495097Y+1446650D01*
X+495000Y+1446650D01*
X+959000Y+2546350D02*
X+958761Y+2552129D01*
X+956819Y+2563689D01*
X+952756Y+2575249D01*
X+946123Y+2586809D01*
X+935976Y+2598247D01*
X+924416Y+2606730D01*
X+912856Y+2612160D01*
X+901296Y+2615262D01*
X+889736Y+2616346D01*
X+889000Y+2616350D01*
X+819000Y+2546350D02*
X+819239Y+2552129D01*
X+821181Y+2563689D01*
X+825244Y+2575249D01*
X+831877Y+2586809D01*
X+842024Y+2598247D01*
X+853584Y+2606730D01*
X+865144Y+2612160D01*
X+876704Y+2615262D01*
X+888264Y+2616346D01*
X+889000Y+2616350D01*
X+819000Y+2546350D02*
X+819239Y+2540571D01*
X+821181Y+2529011D01*
X+825244Y+2517451D01*
X+831877Y+2505891D01*
X+842024Y+2494453D01*
X+853584Y+2485970D01*
X+865144Y+2480540D01*
X+876704Y+2477438D01*
X+888264Y+2476354D01*
X+889000Y+2476350D01*
X+959000Y+2546350D02*
X+958761Y+2540571D01*
X+956819Y+2529011D01*
X+952756Y+2517451D01*
X+946123Y+2505891D01*
X+935976Y+2494453D01*
X+924416Y+2485970D01*
X+912856Y+2480540D01*
X+901296Y+2477438D01*
X+889736Y+2476354D01*
X+889000Y+2476350D01*
X+959000Y+120650D02*
X+958761Y+126429D01*
X+956819Y+137989D01*
X+952756Y+149549D01*
X+946123Y+161109D01*
X+935976Y+172547D01*
X+924416Y+181030D01*
X+912856Y+186460D01*
X+901296Y+189562D01*
X+889736Y+190646D01*
X+889000Y+190650D01*
X+819000Y+120650D02*
X+819239Y+126429D01*
X+821181Y+137989D01*
X+825244Y+149549D01*
X+831877Y+161109D01*
X+842024Y+172547D01*
X+853584Y+181030D01*
X+865144Y+186460D01*
X+876704Y+189562D01*
X+888264Y+190646D01*
X+889000Y+190650D01*
X+819000Y+120650D02*
X+819239Y+114871D01*
X+821181Y+103311D01*
X+825244Y+91751D01*
X+831877Y+80191D01*
X+842024Y+68753D01*
X+853584Y+60270D01*
X+865144Y+54840D01*
X+876704Y+51738D01*
X+888264Y+50654D01*
X+889000Y+50650D01*
X+959000Y+120650D02*
X+958761Y+114871D01*
X+956819Y+103311D01*
X+952756Y+91751D01*
X+946123Y+80191D01*
X+935976Y+68753D01*
X+924416Y+60270D01*
X+912856Y+54840D01*
X+901296Y+51738D01*
X+889736Y+50654D01*
X+889000Y+50650D01*
X+3416300Y+2684780D02*
X+3472180Y+2628900D01*
X+3472180Y+2021840D01*
X+3469640Y+137160D02*
X+3469640Y+45720D01*
X+3465721Y+25727D01*
X+3454956Y+9604D01*
X+3438833Y-1161D01*
X+3418840Y-5080D01*
X+50800Y-5080D02*
X+30807Y-1161D01*
X+14684Y+9604D01*
X+3919Y+25727D01*
X+0Y+45720D01*
X+0Y+2633980D02*
X+3919Y+2653973D01*
X+14684Y+2670096D01*
X+30807Y+2680861D01*
X+50800Y+2684780D01*
X+0Y+2633980D02*
X+0Y+45720D01*
X+50800Y-5080D02*
X+3418840Y-5080D01*
X+50800Y+2684780D02*
X+3416300Y+2684780D01*
X+3469640Y+137160D02*
X+3563620Y+231140D01*
X+3472180Y+2021840D02*
X+3563620Y+1930400D01*
X+3563620Y+231140D01*
X+3511700Y+323850D02*
X+3511461Y+329629D01*
X+3509519Y+341189D01*
X+3505456Y+352749D01*
X+3498823Y+364309D01*
X+3488676Y+375747D01*
X+3477116Y+384230D01*
X+3465556Y+389660D01*
X+3453996Y+392762D01*
X+3442436Y+393846D01*
X+3441700Y+393850D01*
X+3371700Y+323850D02*
X+3371939Y+329629D01*
X+3373881Y+341189D01*
X+3377944Y+352749D01*
X+3384577Y+364309D01*
X+3394724Y+375747D01*
X+3406284Y+384230D01*
X+3417844Y+389660D01*
X+3429404Y+392762D01*
X+3440964Y+393846D01*
X+3441700Y+393850D01*
X+3371700Y+323850D02*
X+3371939Y+318071D01*
X+3373881Y+306511D01*
X+3377944Y+294951D01*
X+3384577Y+283391D01*
X+3394724Y+271953D01*
X+3406284Y+263470D01*
X+3417844Y+258040D01*
X+3429404Y+254938D01*
X+3440964Y+253854D01*
X+3441700Y+253850D01*
X+3511700Y+323850D02*
X+3511461Y+318071D01*
X+3509519Y+306511D01*
X+3505456Y+294951D01*
X+3498823Y+283391D01*
X+3488676Y+271953D01*
X+3477116Y+263470D01*
X+3465556Y+258040D01*
X+3453996Y+254938D01*
X+3442436Y+253854D01*
X+3441700Y+253850D01*
X+3511700Y+1873250D02*
X+3511461Y+1879029D01*
X+3509519Y+1890589D01*
X+3505456Y+1902149D01*
X+3498823Y+1913709D01*
X+3488676Y+1925147D01*
X+3477116Y+1933630D01*
X+3465556Y+1939060D01*
X+3453996Y+1942162D01*
X+3442436Y+1943246D01*
X+3441700Y+1943250D01*
X+3371700Y+1873250D02*
X+3371939Y+1879029D01*
X+3373881Y+1890589D01*
X+3377944Y+1902149D01*
X+3384577Y+1913709D01*
X+3394724Y+1925147D01*
X+3406284Y+1933630D01*
X+3417844Y+1939060D01*
X+3429404Y+1942162D01*
X+3440964Y+1943246D01*
X+3441700Y+1943250D01*
X+3371700Y+1873250D02*
X+3371939Y+1867471D01*
X+3373881Y+1855911D01*
X+3377944Y+1844351D01*
X+3384577Y+1832791D01*
X+3394724Y+1821353D01*
X+3406284Y+1812870D01*
X+3417844Y+1807440D01*
X+3429404Y+1804338D01*
X+3440964Y+1803254D01*
X+3441700Y+1803250D01*
X+3511700Y+1873250D02*
X+3511461Y+1867471D01*
X+3509519Y+1855911D01*
X+3505456Y+1844351D01*
X+3498823Y+1832791D01*
X+3488676Y+1821353D01*
X+3477116Y+1812870D01*
X+3465556Y+1807440D01*
X+3453996Y+1804338D01*
X+3442436Y+1803254D01*
X+3441700Y+1803250D01*
D48*
X-159670Y-1270635D02*
X+2484470Y-1270635D01*
X+2484470Y-267335D01*
X-159670Y-267335D01*
X-159670Y-1270635D01*
D136*
X+307692Y-267335D02*
X+307692Y-1270635D01*
X+1120492Y-267335D02*
X+1120492Y-1270635D01*
X+1953612Y-267335D02*
X+1953612Y-1270635D01*
X-159670Y-540385D02*
X+2484470Y-540385D01*
X-159670Y-781685D02*
X+2484470Y-781685D01*
X-159670Y-1022985D02*
X+2484470Y-1022985D01*
D48*
X-102520Y-431165D02*
X-87280Y-446405D01*
X-26320Y-446405D01*
X-11080Y-431165D01*
X-11080Y-415925D01*
X-26320Y-400685D01*
X-87280Y-400685D01*
X-102520Y-385445D01*
X-102520Y-370205D01*
X-87280Y-354965D01*
X-26320Y-354965D01*
X-11080Y-370205D01*
X+110840Y-354965D02*
X+19400Y-446405D01*
X+19400Y-354965D02*
X+65120Y-400685D01*
X+141320Y-446405D02*
X+141320Y-354965D01*
X+187040Y-400685D01*
X+232760Y-354965D01*
X+232760Y-446405D01*
X+364840Y-431165D02*
X+380080Y-446405D01*
X+441040Y-446405D01*
X+456280Y-431165D01*
X+456280Y-415925D01*
X+441040Y-400685D01*
X+380080Y-400685D01*
X+364840Y-385445D01*
X+364840Y-370205D01*
X+380080Y-354965D01*
X+441040Y-354965D01*
X+456280Y-370205D01*
X+502000Y-354965D02*
X+562960Y-354965D01*
X+532480Y-354965D02*
X+532480Y-446405D01*
X+502000Y-446405D02*
X+562960Y-446405D01*
X+608680Y-354965D02*
X+700120Y-354965D01*
X+608680Y-446405D01*
X+700120Y-446405D01*
X+822040Y-446405D02*
X+730600Y-446405D01*
X+730600Y-354965D01*
X+822040Y-354965D01*
X+730600Y-400685D02*
X+791560Y-400685D01*
X+1177640Y-446405D02*
X+1177640Y-354965D01*
X+1253840Y-354965D01*
X+1269080Y-370205D01*
X+1269080Y-385445D01*
X+1253840Y-400685D01*
X+1177640Y-400685D01*
X+1299560Y-354965D02*
X+1299560Y-446405D01*
X+1391000Y-446405D01*
X+1421480Y-446405D02*
X+1421480Y-385445D01*
X+1451960Y-354965D01*
X+1482440Y-354965D01*
X+1512920Y-385445D01*
X+1512920Y-446405D01*
X+1421480Y-415925D02*
X+1512920Y-415925D01*
X+1543400Y-354965D02*
X+1634840Y-354965D01*
X+1589120Y-354965D02*
X+1589120Y-446405D01*
X+1756760Y-446405D02*
X+1665320Y-446405D01*
X+1665320Y-354965D01*
X+1756760Y-354965D01*
X+1665320Y-400685D02*
X+1726280Y-400685D01*
X+1787240Y-446405D02*
X+1787240Y-354965D01*
X+1848200Y-354965D01*
X+1878680Y-385445D01*
X+1878680Y-415925D01*
X+1848200Y-446405D01*
X+1787240Y-446405D01*
X+2010760Y-385445D02*
X+2041240Y-354965D01*
X+2071720Y-354965D01*
X+2102200Y-385445D01*
X+2102200Y-415925D01*
X+2071720Y-446405D01*
X+2041240Y-446405D01*
X+2010760Y-415925D01*
X+2010760Y-385445D01*
X+2071720Y-415925D02*
X+2102200Y-446405D01*
X+2132680Y-354965D02*
X+2224120Y-354965D01*
X+2178400Y-354965D02*
X+2178400Y-446405D01*
X+2346040Y-354965D02*
X+2254600Y-446405D01*
X+2254600Y-354965D02*
X+2300320Y-400685D01*
X+86710Y-591185D02*
X+86710Y-718185D01*
X+23210Y-654685D02*
X+150210Y-654685D01*
X+383890Y-680085D02*
X+383890Y-629285D01*
X+396590Y-616585D01*
X+447390Y-616585D01*
X+460090Y-629285D01*
X+460090Y-680085D01*
X+447390Y-692785D01*
X+396590Y-692785D01*
X+383890Y-680085D01*
X+383890Y-692785D02*
X+460090Y-616585D01*
X+523590Y-680085D02*
X+536290Y-680085D01*
X+536290Y-692785D01*
X+523590Y-692785D01*
X+523590Y-680085D01*
X+663290Y-629285D02*
X+650590Y-616585D01*
X+612490Y-616585D01*
X+599790Y-629285D01*
X+599790Y-680085D01*
X+612490Y-692785D01*
X+650590Y-692785D01*
X+663290Y-680085D01*
X+663290Y-667385D01*
X+650590Y-654685D01*
X+599790Y-654685D01*
X+688690Y-692785D02*
X+688690Y-641985D01*
X+688690Y-654685D02*
X+701390Y-641985D01*
X+726790Y-667385D01*
X+752190Y-641985D01*
X+764890Y-654685D01*
X+764890Y-692785D01*
X+790290Y-692785D02*
X+790290Y-641985D01*
X+790290Y-654685D02*
X+802990Y-641985D01*
X+828390Y-667385D01*
X+853790Y-641985D01*
X+866490Y-654685D01*
X+866490Y-692785D01*
X+1285590Y-616585D02*
X+1209390Y-692785D01*
X+1209390Y-616585D02*
X+1247490Y-654685D01*
X+1387190Y-692785D02*
X+1310990Y-692785D01*
X+1310990Y-616585D01*
X+1387190Y-616585D01*
X+1310990Y-654685D02*
X+1361790Y-654685D01*
X+1412590Y-680085D02*
X+1425290Y-692785D01*
X+1476090Y-692785D01*
X+1488790Y-680085D01*
X+1488790Y-667385D01*
X+1476090Y-654685D01*
X+1425290Y-654685D01*
X+1412590Y-641985D01*
X+1412590Y-629285D01*
X+1425290Y-616585D01*
X+1476090Y-616585D01*
X+1488790Y-629285D01*
X+2067910Y-629285D02*
X+2080610Y-616585D01*
X+2118710Y-616585D01*
X+2131410Y-629285D01*
X+2131410Y-641985D01*
X+2118710Y-654685D01*
X+2131410Y-667385D01*
X+2131410Y-680085D01*
X+2118710Y-692785D01*
X+2080610Y-692785D01*
X+2067910Y-680085D01*
X+2093310Y-654685D02*
X+2118710Y-654685D01*
X+2233010Y-616585D02*
X+2169510Y-616585D01*
X+2169510Y-641985D01*
X+2220310Y-641985D01*
X+2233010Y-654685D01*
X+2233010Y-680085D01*
X+2220310Y-692785D01*
X+2182210Y-692785D01*
X+2169510Y-680085D01*
X+41809Y-851084D02*
X+131611Y-940886D01*
X+41809Y-940886D02*
X+131611Y-851084D01*
X+383890Y-921385D02*
X+383890Y-870585D01*
X+396590Y-857885D01*
X+447390Y-857885D01*
X+460090Y-870585D01*
X+460090Y-921385D01*
X+447390Y-934085D01*
X+396590Y-934085D01*
X+383890Y-921385D01*
X+383890Y-934085D02*
X+460090Y-857885D01*
X+523590Y-921385D02*
X+536290Y-921385D01*
X+536290Y-934085D01*
X+523590Y-934085D01*
X+523590Y-921385D01*
X+599790Y-870585D02*
X+612490Y-857885D01*
X+650590Y-857885D01*
X+663290Y-870585D01*
X+663290Y-883285D01*
X+650590Y-895985D01*
X+663290Y-908685D01*
X+663290Y-921385D01*
X+650590Y-934085D01*
X+612490Y-934085D01*
X+599790Y-921385D01*
X+625190Y-895985D02*
X+650590Y-895985D01*
X+688690Y-921385D02*
X+688690Y-870585D01*
X+701390Y-857885D01*
X+752190Y-857885D01*
X+764890Y-870585D01*
X+764890Y-921385D01*
X+752190Y-934085D01*
X+701390Y-934085D01*
X+688690Y-921385D01*
X+688690Y-934085D02*
X+764890Y-857885D01*
X+866490Y-857885D02*
X+802990Y-857885D01*
X+802990Y-883285D01*
X+853790Y-883285D01*
X+866490Y-895985D01*
X+866490Y-921385D01*
X+853790Y-934085D01*
X+815690Y-934085D01*
X+802990Y-921385D01*
X+891890Y-934085D02*
X+891890Y-883285D01*
X+891890Y-895985D02*
X+904590Y-883285D01*
X+929990Y-908685D01*
X+955390Y-883285D01*
X+968090Y-895985D01*
X+968090Y-934085D01*
X+993490Y-934085D02*
X+993490Y-883285D01*
X+993490Y-895985D02*
X+1006190Y-883285D01*
X+1031590Y-908685D01*
X+1056990Y-883285D01*
X+1069690Y-895985D01*
X+1069690Y-934085D01*
X+1285590Y-857885D02*
X+1209390Y-934085D01*
X+1209390Y-857885D02*
X+1247490Y-895985D01*
X+1387190Y-934085D02*
X+1310990Y-934085D01*
X+1310990Y-857885D01*
X+1387190Y-857885D01*
X+1310990Y-895985D02*
X+1361790Y-895985D01*
X+1412590Y-921385D02*
X+1425290Y-934085D01*
X+1476090Y-934085D01*
X+1488790Y-921385D01*
X+1488790Y-908685D01*
X+1476090Y-895985D01*
X+1425290Y-895985D01*
X+1412590Y-883285D01*
X+1412590Y-870585D01*
X+1425290Y-857885D01*
X+1476090Y-857885D01*
X+1488790Y-870585D01*
X+2080610Y-883285D02*
X+2106010Y-857885D01*
X+2106010Y-934085D01*
X+2169510Y-870585D02*
X+2182210Y-857885D01*
X+2220310Y-857885D01*
X+2233010Y-870585D01*
X+2233010Y-883285D01*
X+2220310Y-895985D01*
X+2182210Y-895985D01*
X+2169510Y-908685D01*
X+2169510Y-934085D01*
X+2233010Y-934085D01*
X+2334610Y-857885D02*
X+2271110Y-857885D01*
X+2271110Y-883285D01*
X+2321910Y-883285D01*
X+2334610Y-895985D01*
X+2334610Y-921385D01*
X+2321910Y-934085D01*
X+2283810Y-934085D01*
X+2271110Y-921385D01*
X+86710Y-1073785D02*
X+86710Y-1200785D01*
X+23210Y-1137285D02*
X+150210Y-1137285D01*
X+41809Y-1092384D02*
X+131611Y-1182186D01*
X+41809Y-1182186D02*
X+131611Y-1092384D01*
X+383890Y-1162685D02*
X+396590Y-1175385D01*
X+447390Y-1175385D01*
X+460090Y-1162685D01*
X+460090Y-1149985D01*
X+447390Y-1137285D01*
X+396590Y-1137285D01*
X+383890Y-1124585D01*
X+383890Y-1111885D01*
X+396590Y-1099185D01*
X+447390Y-1099185D01*
X+460090Y-1111885D01*
X+485490Y-1099185D02*
X+485490Y-1175385D01*
X+561690Y-1175385D01*
X+587090Y-1124585D02*
X+612490Y-1099185D01*
X+637890Y-1099185D01*
X+663290Y-1124585D01*
X+663290Y-1149985D01*
X+637890Y-1175385D01*
X+612490Y-1175385D01*
X+587090Y-1149985D01*
X+587090Y-1124585D01*
X+688690Y-1099185D02*
X+764890Y-1099185D01*
X+726790Y-1099185D02*
X+726790Y-1175385D01*
X+1285590Y-1099185D02*
X+1209390Y-1175385D01*
X+1209390Y-1099185D02*
X+1247490Y-1137285D01*
X+1387190Y-1175385D02*
X+1310990Y-1175385D01*
X+1310990Y-1099185D01*
X+1387190Y-1099185D01*
X+1310990Y-1137285D02*
X+1361790Y-1137285D01*
X+1412590Y-1162685D02*
X+1425290Y-1175385D01*
X+1476090Y-1175385D01*
X+1488790Y-1162685D01*
X+1488790Y-1149985D01*
X+1476090Y-1137285D01*
X+1425290Y-1137285D01*
X+1412590Y-1124585D01*
X+1412590Y-1111885D01*
X+1425290Y-1099185D01*
X+1476090Y-1099185D01*
X+1488790Y-1111885D01*
X+2131410Y-1149985D02*
X+2055210Y-1149985D01*
X+2106010Y-1099185D01*
X+2106010Y-1175385D01*
M02*
