G04 PROTEUS RS274X GERBER FILE*
%FSLAX45Y45*%
%MOMM*%
G01*
%ADD48C,0.127000*%
%ADD46C,0.025400*%
%ADD49C,0.031750*%
G36*
X+317000Y+2556550D02*
X+397000Y+2556550D01*
X+419491Y+2554361D01*
X+440291Y+2548064D01*
X+458996Y+2538060D01*
X+475203Y+2524753D01*
X+488510Y+2508546D01*
X+498514Y+2489841D01*
X+504811Y+2469041D01*
X+507000Y+2446550D01*
X+504811Y+2424059D01*
X+498514Y+2403259D01*
X+488510Y+2384554D01*
X+475203Y+2368347D01*
X+458996Y+2355040D01*
X+440291Y+2345036D01*
X+419491Y+2338739D01*
X+397000Y+2336550D01*
X+317000Y+2336550D01*
X+294509Y+2338739D01*
X+273709Y+2345036D01*
X+255004Y+2355040D01*
X+238797Y+2368347D01*
X+225490Y+2384554D01*
X+215486Y+2403259D01*
X+209189Y+2424059D01*
X+207000Y+2446550D01*
X+209189Y+2469041D01*
X+215486Y+2489841D01*
X+225490Y+2508546D01*
X+238797Y+2524753D01*
X+255004Y+2538060D01*
X+273709Y+2548064D01*
X+294509Y+2554361D01*
X+317000Y+2556550D01*
G37*
G36*
X+317000Y+2096150D02*
X+397000Y+2096150D01*
X+419491Y+2093961D01*
X+440291Y+2087664D01*
X+458996Y+2077660D01*
X+475203Y+2064353D01*
X+488510Y+2048146D01*
X+498514Y+2029441D01*
X+504811Y+2008641D01*
X+507000Y+1986150D01*
X+504811Y+1963659D01*
X+498514Y+1942859D01*
X+488510Y+1924154D01*
X+475203Y+1907947D01*
X+458996Y+1894640D01*
X+440291Y+1884636D01*
X+419491Y+1878339D01*
X+397000Y+1876150D01*
X+317000Y+1876150D01*
X+294509Y+1878339D01*
X+273709Y+1884636D01*
X+255004Y+1894640D01*
X+238797Y+1907947D01*
X+225490Y+1924154D01*
X+215486Y+1942859D01*
X+209189Y+1963659D01*
X+207000Y+1986150D01*
X+209189Y+2008641D01*
X+215486Y+2029441D01*
X+225490Y+2048146D01*
X+238797Y+2064353D01*
X+255004Y+2077660D01*
X+273709Y+2087664D01*
X+294509Y+2093961D01*
X+317000Y+2096150D01*
G37*
G36*
X+222000Y+80650D02*
X+222000Y+160650D01*
X+197000Y+120650D01*
X+222000Y+80650D01*
G37*
G36*
X+687000Y+2433650D02*
X+767000Y+2433650D01*
X+727000Y+2458650D01*
X+687000Y+2433650D01*
G37*
G36*
X+222000Y+271150D02*
X+222000Y+351150D01*
X+197000Y+311150D01*
X+222000Y+271150D01*
G37*
G36*
X+222000Y+461650D02*
X+222000Y+541650D01*
X+197000Y+501650D01*
X+222000Y+461650D01*
G37*
G36*
X+687000Y+1973650D02*
X+767000Y+1973650D01*
X+727000Y+1998650D01*
X+687000Y+1973650D01*
G37*
G36*
X+1772900Y+1757900D02*
X+1772900Y+1840450D01*
X+1690350Y+1757900D01*
X+1772900Y+1757900D01*
G37*
G36*
X+2179900Y+2219650D02*
X+2179900Y+2189650D01*
X+2209900Y+2219650D01*
X+2179900Y+2219650D01*
G37*
G36*
X+31750Y+825505D02*
X+31750Y+1555755D01*
X+444500Y+1555755D01*
X+444500Y+825505D01*
X+31750Y+825505D01*
G37*
G36*
X+440404Y+950251D02*
X+440404Y+1426501D01*
X+532804Y+1426501D01*
X+532804Y+950251D01*
X+440404Y+950251D01*
G37*
G36*
X+2048600Y+2349500D02*
X+2048600Y+2190750D01*
X+2207350Y+2349500D01*
X+2048600Y+2349500D01*
G37*
D48*
X+207000Y+2606550D02*
X+507000Y+2606550D01*
X+207000Y+2286550D02*
X+507000Y+2286550D01*
X+147000Y+2401550D02*
X+147000Y+2491550D01*
X+567000Y+2401550D02*
X+567000Y+2491550D01*
D46*
X+317000Y+2556550D02*
X+397000Y+2556550D01*
X+419491Y+2554361D01*
X+440291Y+2548064D01*
X+458996Y+2538060D01*
X+475203Y+2524753D01*
X+488510Y+2508546D01*
X+498514Y+2489841D01*
X+504811Y+2469041D01*
X+507000Y+2446550D01*
X+504811Y+2424059D01*
X+498514Y+2403259D01*
X+488510Y+2384554D01*
X+475203Y+2368347D01*
X+458996Y+2355040D01*
X+440291Y+2345036D01*
X+419491Y+2338739D01*
X+397000Y+2336550D01*
X+317000Y+2336550D01*
X+294509Y+2338739D01*
X+273709Y+2345036D01*
X+255004Y+2355040D01*
X+238797Y+2368347D01*
X+225490Y+2384554D01*
X+215486Y+2403259D01*
X+209189Y+2424059D01*
X+207000Y+2446550D01*
X+209189Y+2469041D01*
X+215486Y+2489841D01*
X+225490Y+2508546D01*
X+238797Y+2524753D01*
X+255004Y+2538060D01*
X+273709Y+2548064D01*
X+294509Y+2554361D01*
X+317000Y+2556550D01*
D48*
X+207000Y+2146150D02*
X+507000Y+2146150D01*
X+207000Y+1826150D02*
X+507000Y+1826150D01*
X+147000Y+1941150D02*
X+147000Y+2031150D01*
X+567000Y+1941150D02*
X+567000Y+2031150D01*
D46*
X+317000Y+2096150D02*
X+397000Y+2096150D01*
X+419491Y+2093961D01*
X+440291Y+2087664D01*
X+458996Y+2077660D01*
X+475203Y+2064353D01*
X+488510Y+2048146D01*
X+498514Y+2029441D01*
X+504811Y+2008641D01*
X+507000Y+1986150D01*
X+504811Y+1963659D01*
X+498514Y+1942859D01*
X+488510Y+1924154D01*
X+475203Y+1907947D01*
X+458996Y+1894640D01*
X+440291Y+1884636D01*
X+419491Y+1878339D01*
X+397000Y+1876150D01*
X+317000Y+1876150D01*
X+294509Y+1878339D01*
X+273709Y+1884636D01*
X+255004Y+1894640D01*
X+238797Y+1907947D01*
X+225490Y+1924154D01*
X+215486Y+1942859D01*
X+209189Y+1963659D01*
X+207000Y+1986150D01*
X+209189Y+2008641D01*
X+215486Y+2029441D01*
X+225490Y+2048146D01*
X+238797Y+2064353D01*
X+255004Y+2077660D01*
X+273709Y+2087664D01*
X+294509Y+2093961D01*
X+317000Y+2096150D01*
D48*
X-133000Y+1638500D02*
X-133000Y+736800D01*
X-31400Y+736800D01*
X-133000Y+1638500D02*
X-31400Y+1638500D01*
X+292450Y+1638500D02*
X+375000Y+1638500D01*
X+292450Y+736800D02*
X+375000Y+736800D01*
X+222000Y+80650D02*
X+222000Y+160650D01*
X+197000Y+120650D01*
X+222000Y+80650D01*
X+687000Y+2433650D02*
X+767000Y+2433650D01*
X+727000Y+2458650D01*
X+687000Y+2433650D01*
X+222000Y+271150D02*
X+222000Y+351150D01*
X+197000Y+311150D01*
X+222000Y+271150D01*
X+222000Y+461650D02*
X+222000Y+541650D01*
X+197000Y+501650D01*
X+222000Y+461650D01*
X+687000Y+1973650D02*
X+767000Y+1973650D01*
X+727000Y+1998650D01*
X+687000Y+1973650D01*
X+3417700Y+546750D02*
X+3367700Y+546750D01*
X+3327700Y+546750D02*
X+3277700Y+546750D01*
X+3417700Y+786750D02*
X+3277700Y+786750D01*
X+1607800Y+1757900D02*
X+1461750Y+1757900D01*
X+1461750Y+2253200D01*
X+1772900Y+2253200D01*
X+1772900Y+1923000D01*
X+1772900Y+1757900D02*
X+1772900Y+1840450D01*
X+1690350Y+1757900D01*
X+1772900Y+1757900D01*
X+2553550Y+838200D02*
X+2553550Y+883200D01*
X+2553550Y+933200D02*
X+2553550Y+978200D01*
X+2923550Y+978200D02*
X+2923550Y+838200D01*
X+1874500Y+927100D02*
X+1830050Y+927100D01*
X+1760200Y+927100D02*
X+1715750Y+927100D01*
X+1874500Y+1104900D02*
X+1715750Y+1104900D01*
X+1372500Y+942650D02*
X+1372500Y+1052650D01*
X+1372500Y+942650D02*
X+1262500Y+942650D01*
X+1152500Y+942650D02*
X+842500Y+942650D01*
X+842500Y+1472650D01*
X+1372500Y+1472650D01*
X+1372500Y+1162650D01*
X+1200550Y+387600D02*
X+1400550Y+387600D01*
X+1400550Y+547600D01*
X+1200550Y+547600D01*
X+1200550Y+387600D01*
X+1425550Y+642200D02*
X+1425550Y+582600D01*
X+3199900Y+2219650D02*
X+3199900Y+2189650D01*
X+3169900Y+2219650D02*
X+3199900Y+2219650D01*
X+3199900Y+1229650D02*
X+3199900Y+1199650D01*
X+3169900Y+1199650D02*
X+3199900Y+1199650D01*
X+2179900Y+1229650D02*
X+2179900Y+1199650D01*
X+2209900Y+1199650D01*
X+2179900Y+2219650D02*
X+2179900Y+2189650D01*
X+2209900Y+2219650D01*
X+2179900Y+2219650D01*
X+899640Y+2094050D02*
X+902340Y+2094050D01*
X+899640Y+2043250D02*
X+902340Y+2043250D01*
X+471250Y+285750D02*
X+468550Y+285750D01*
X+471250Y+336550D02*
X+468550Y+336550D01*
X+471250Y+476250D02*
X+468550Y+476250D01*
X+471250Y+527050D02*
X+468550Y+527050D01*
X+471250Y+95250D02*
X+468550Y+95250D01*
X+471250Y+146050D02*
X+468550Y+146050D01*
X+899800Y+2189300D02*
X+897100Y+2189300D01*
X+899800Y+2240100D02*
X+897100Y+2240100D01*
D46*
X+525000Y+898650D02*
X+524897Y+901139D01*
X+524055Y+906119D01*
X+522295Y+911099D01*
X+519418Y+916079D01*
X+515017Y+920995D01*
X+510037Y+924609D01*
X+505057Y+926914D01*
X+500077Y+928217D01*
X+495097Y+928650D01*
X+495000Y+928650D01*
X+465000Y+898650D02*
X+465103Y+901139D01*
X+465945Y+906119D01*
X+467705Y+911099D01*
X+470582Y+916079D01*
X+474983Y+920995D01*
X+479963Y+924609D01*
X+484943Y+926914D01*
X+489923Y+928217D01*
X+494903Y+928650D01*
X+495000Y+928650D01*
X+465000Y+898650D02*
X+465103Y+896161D01*
X+465945Y+891181D01*
X+467705Y+886201D01*
X+470582Y+881221D01*
X+474983Y+876305D01*
X+479963Y+872691D01*
X+484943Y+870386D01*
X+489923Y+869083D01*
X+494903Y+868650D01*
X+495000Y+868650D01*
X+525000Y+898650D02*
X+524897Y+896161D01*
X+524055Y+891181D01*
X+522295Y+886201D01*
X+519418Y+881221D01*
X+515017Y+876305D01*
X+510037Y+872691D01*
X+505057Y+870386D01*
X+500077Y+869083D01*
X+495097Y+868650D01*
X+495000Y+868650D01*
X+525000Y+1476650D02*
X+524897Y+1479139D01*
X+524055Y+1484119D01*
X+522295Y+1489099D01*
X+519418Y+1494079D01*
X+515017Y+1498995D01*
X+510037Y+1502609D01*
X+505057Y+1504914D01*
X+500077Y+1506217D01*
X+495097Y+1506650D01*
X+495000Y+1506650D01*
X+465000Y+1476650D02*
X+465103Y+1479139D01*
X+465945Y+1484119D01*
X+467705Y+1489099D01*
X+470582Y+1494079D01*
X+474983Y+1498995D01*
X+479963Y+1502609D01*
X+484943Y+1504914D01*
X+489923Y+1506217D01*
X+494903Y+1506650D01*
X+495000Y+1506650D01*
X+465000Y+1476650D02*
X+465103Y+1474161D01*
X+465945Y+1469181D01*
X+467705Y+1464201D01*
X+470582Y+1459221D01*
X+474983Y+1454305D01*
X+479963Y+1450691D01*
X+484943Y+1448386D01*
X+489923Y+1447083D01*
X+494903Y+1446650D01*
X+495000Y+1446650D01*
X+525000Y+1476650D02*
X+524897Y+1474161D01*
X+524055Y+1469181D01*
X+522295Y+1464201D01*
X+519418Y+1459221D01*
X+515017Y+1454305D01*
X+510037Y+1450691D01*
X+505057Y+1448386D01*
X+500077Y+1447083D01*
X+495097Y+1446650D01*
X+495000Y+1446650D01*
D48*
X+1010600Y+686400D02*
X+1010600Y+711400D01*
X+1010600Y+591400D02*
X+1010600Y+636400D01*
X+840600Y+591400D02*
X+840600Y+711400D01*
D46*
X+959000Y+2546350D02*
X+958761Y+2552129D01*
X+956819Y+2563689D01*
X+952756Y+2575249D01*
X+946123Y+2586809D01*
X+935976Y+2598247D01*
X+924416Y+2606730D01*
X+912856Y+2612160D01*
X+901296Y+2615262D01*
X+889736Y+2616346D01*
X+889000Y+2616350D01*
X+819000Y+2546350D02*
X+819239Y+2552129D01*
X+821181Y+2563689D01*
X+825244Y+2575249D01*
X+831877Y+2586809D01*
X+842024Y+2598247D01*
X+853584Y+2606730D01*
X+865144Y+2612160D01*
X+876704Y+2615262D01*
X+888264Y+2616346D01*
X+889000Y+2616350D01*
X+819000Y+2546350D02*
X+819239Y+2540571D01*
X+821181Y+2529011D01*
X+825244Y+2517451D01*
X+831877Y+2505891D01*
X+842024Y+2494453D01*
X+853584Y+2485970D01*
X+865144Y+2480540D01*
X+876704Y+2477438D01*
X+888264Y+2476354D01*
X+889000Y+2476350D01*
X+959000Y+2546350D02*
X+958761Y+2540571D01*
X+956819Y+2529011D01*
X+952756Y+2517451D01*
X+946123Y+2505891D01*
X+935976Y+2494453D01*
X+924416Y+2485970D01*
X+912856Y+2480540D01*
X+901296Y+2477438D01*
X+889736Y+2476354D01*
X+889000Y+2476350D01*
X+959000Y+120650D02*
X+958761Y+126429D01*
X+956819Y+137989D01*
X+952756Y+149549D01*
X+946123Y+161109D01*
X+935976Y+172547D01*
X+924416Y+181030D01*
X+912856Y+186460D01*
X+901296Y+189562D01*
X+889736Y+190646D01*
X+889000Y+190650D01*
X+819000Y+120650D02*
X+819239Y+126429D01*
X+821181Y+137989D01*
X+825244Y+149549D01*
X+831877Y+161109D01*
X+842024Y+172547D01*
X+853584Y+181030D01*
X+865144Y+186460D01*
X+876704Y+189562D01*
X+888264Y+190646D01*
X+889000Y+190650D01*
X+819000Y+120650D02*
X+819239Y+114871D01*
X+821181Y+103311D01*
X+825244Y+91751D01*
X+831877Y+80191D01*
X+842024Y+68753D01*
X+853584Y+60270D01*
X+865144Y+54840D01*
X+876704Y+51738D01*
X+888264Y+50654D01*
X+889000Y+50650D01*
X+959000Y+120650D02*
X+958761Y+114871D01*
X+956819Y+103311D01*
X+952756Y+91751D01*
X+946123Y+80191D01*
X+935976Y+68753D01*
X+924416Y+60270D01*
X+912856Y+54840D01*
X+901296Y+51738D01*
X+889736Y+50654D01*
X+889000Y+50650D01*
X+3416300Y+2684780D02*
X+3472180Y+2628900D01*
X+3472180Y+2021840D01*
X+3469640Y+137160D02*
X+3469640Y+45720D01*
X+3465721Y+25727D01*
X+3454956Y+9604D01*
X+3438833Y-1161D01*
X+3418840Y-5080D01*
X+50800Y-5080D02*
X+30807Y-1161D01*
X+14684Y+9604D01*
X+3919Y+25727D01*
X+0Y+45720D01*
X+0Y+2633980D02*
X+3919Y+2653973D01*
X+14684Y+2670096D01*
X+30807Y+2680861D01*
X+50800Y+2684780D01*
X+0Y+2633980D02*
X+0Y+45720D01*
X+50800Y-5080D02*
X+3418840Y-5080D01*
X+50800Y+2684780D02*
X+3416300Y+2684780D01*
X+3469640Y+137160D02*
X+3563620Y+231140D01*
X+3472180Y+2021840D02*
X+3563620Y+1930400D01*
X+3563620Y+231140D01*
X+3511700Y+323850D02*
X+3511461Y+329629D01*
X+3509519Y+341189D01*
X+3505456Y+352749D01*
X+3498823Y+364309D01*
X+3488676Y+375747D01*
X+3477116Y+384230D01*
X+3465556Y+389660D01*
X+3453996Y+392762D01*
X+3442436Y+393846D01*
X+3441700Y+393850D01*
X+3371700Y+323850D02*
X+3371939Y+329629D01*
X+3373881Y+341189D01*
X+3377944Y+352749D01*
X+3384577Y+364309D01*
X+3394724Y+375747D01*
X+3406284Y+384230D01*
X+3417844Y+389660D01*
X+3429404Y+392762D01*
X+3440964Y+393846D01*
X+3441700Y+393850D01*
X+3371700Y+323850D02*
X+3371939Y+318071D01*
X+3373881Y+306511D01*
X+3377944Y+294951D01*
X+3384577Y+283391D01*
X+3394724Y+271953D01*
X+3406284Y+263470D01*
X+3417844Y+258040D01*
X+3429404Y+254938D01*
X+3440964Y+253854D01*
X+3441700Y+253850D01*
X+3511700Y+323850D02*
X+3511461Y+318071D01*
X+3509519Y+306511D01*
X+3505456Y+294951D01*
X+3498823Y+283391D01*
X+3488676Y+271953D01*
X+3477116Y+263470D01*
X+3465556Y+258040D01*
X+3453996Y+254938D01*
X+3442436Y+253854D01*
X+3441700Y+253850D01*
X+3511700Y+1873250D02*
X+3511461Y+1879029D01*
X+3509519Y+1890589D01*
X+3505456Y+1902149D01*
X+3498823Y+1913709D01*
X+3488676Y+1925147D01*
X+3477116Y+1933630D01*
X+3465556Y+1939060D01*
X+3453996Y+1942162D01*
X+3442436Y+1943246D01*
X+3441700Y+1943250D01*
X+3371700Y+1873250D02*
X+3371939Y+1879029D01*
X+3373881Y+1890589D01*
X+3377944Y+1902149D01*
X+3384577Y+1913709D01*
X+3394724Y+1925147D01*
X+3406284Y+1933630D01*
X+3417844Y+1939060D01*
X+3429404Y+1942162D01*
X+3440964Y+1943246D01*
X+3441700Y+1943250D01*
X+3371700Y+1873250D02*
X+3371939Y+1867471D01*
X+3373881Y+1855911D01*
X+3377944Y+1844351D01*
X+3384577Y+1832791D01*
X+3394724Y+1821353D01*
X+3406284Y+1812870D01*
X+3417844Y+1807440D01*
X+3429404Y+1804338D01*
X+3440964Y+1803254D01*
X+3441700Y+1803250D01*
X+3511700Y+1873250D02*
X+3511461Y+1867471D01*
X+3509519Y+1855911D01*
X+3505456Y+1844351D01*
X+3498823Y+1832791D01*
X+3488676Y+1821353D01*
X+3477116Y+1812870D01*
X+3465556Y+1807440D01*
X+3453996Y+1804338D01*
X+3442436Y+1803254D01*
X+3441700Y+1803250D01*
D48*
X+832350Y+1652190D02*
X+851400Y+1652190D01*
X+832350Y+1575990D02*
X+851400Y+1575990D01*
X+832350Y+1614090D02*
X+851400Y+1614090D01*
X+1092900Y+1617010D02*
X+1092900Y+1614310D01*
X+1042100Y+1617010D02*
X+1042100Y+1614310D01*
X+3416700Y+1687110D02*
X+3466700Y+1687110D01*
X+1912750Y+1616210D02*
X+1962750Y+1616210D01*
X+3082450Y+559600D02*
X+2982450Y+559600D01*
X+3082450Y+659600D02*
X+2982450Y+659600D01*
X+3022450Y+559600D02*
X+3022450Y+659600D01*
X+1182500Y+1616210D02*
X+1232500Y+1616210D01*
X+1142600Y+805900D02*
X+1092600Y+805900D01*
X+737500Y+1332650D02*
X+787500Y+1332650D01*
X+787500Y+1022650D02*
X+737500Y+1022650D01*
X+2650500Y+615200D02*
X+2650500Y+355200D01*
X+2810500Y+545200D02*
X+2810500Y+355200D01*
X+815600Y+497300D02*
X+815600Y+322300D01*
X+815600Y+497300D02*
X+855600Y+497300D01*
X+995600Y+497300D02*
X+1035600Y+497300D01*
X+1035600Y+322300D01*
X+920600Y+317300D02*
X+935600Y+317300D01*
X+711200Y+367940D02*
X+711200Y+370640D01*
X+762000Y+367940D02*
X+762000Y+370640D01*
X+1092200Y+164740D02*
X+1092200Y+167440D01*
X+1143000Y+164740D02*
X+1143000Y+167440D01*
X+1372200Y+1617650D02*
X+1322200Y+1617650D01*
X+3216000Y+912410D02*
X+3266000Y+912410D01*
X+3416700Y+912410D02*
X+3466700Y+912410D01*
X+2026900Y+805100D02*
X+2026900Y+807800D01*
X+2077700Y+805100D02*
X+2077700Y+807800D01*
X+2928411Y+557600D02*
X+2955960Y+552200D01*
X+2978177Y+537366D01*
X+2993011Y+515149D01*
X+2998411Y+487600D01*
X+2918411Y+557600D02*
X+2890862Y+552200D01*
X+2868645Y+537366D01*
X+2853811Y+515149D01*
X+2848411Y+487600D01*
X+2848411Y+477600D02*
X+2853811Y+450051D01*
X+2868645Y+427834D01*
X+2890862Y+413000D01*
X+2918411Y+407600D01*
X+2928411Y+407600D02*
X+2955960Y+413000D01*
X+2978177Y+427834D01*
X+2993011Y+450051D01*
X+2998411Y+477600D01*
D49*
X+2866915Y+330765D02*
X+2866915Y+340925D01*
X+2869455Y+330765D02*
X+2869455Y+340925D01*
X+2871995Y+330765D02*
X+2871995Y+340925D01*
X+2874535Y+330765D02*
X+2874535Y+340925D01*
X+2877075Y+330765D02*
X+2877075Y+340925D01*
X+2879615Y+330765D02*
X+2879615Y+340925D01*
X+2882155Y+330765D02*
X+2882155Y+340925D01*
X+2884695Y+330765D02*
X+2884695Y+340925D01*
X+2887235Y+330765D02*
X+2887235Y+340925D01*
X+2889775Y+330765D02*
X+2889775Y+340925D01*
X+2892315Y+330765D02*
X+2892315Y+340925D01*
X+2894855Y+330765D02*
X+2894855Y+340925D01*
X+2897395Y+330765D02*
X+2897395Y+340925D01*
X+2912635Y+335845D02*
X+2912635Y+351085D01*
X+2915175Y+295205D02*
X+2915175Y+310445D01*
X+2915175Y+330765D02*
X+2915175Y+356165D01*
X+2917715Y+290125D02*
X+2917715Y+315525D01*
X+2917715Y+328225D02*
X+2917715Y+361245D01*
X+2920255Y+287585D02*
X+2920255Y+320605D01*
X+2920255Y+325685D02*
X+2920255Y+363785D01*
X+2922795Y+285045D02*
X+2922795Y+320605D01*
X+2922795Y+323145D02*
X+2922795Y+335845D01*
X+2922795Y+348545D02*
X+2922795Y+363785D01*
X+2925335Y+282505D02*
X+2925335Y+297745D01*
X+2925335Y+310445D02*
X+2925335Y+333305D01*
X+2925335Y+353625D02*
X+2925335Y+366325D01*
X+2927875Y+282505D02*
X+2927875Y+295205D01*
X+2927875Y+312985D02*
X+2927875Y+330765D01*
X+2927875Y+356165D02*
X+2927875Y+366325D01*
X+2930415Y+282505D02*
X+2930415Y+292665D01*
X+2930415Y+315525D02*
X+2930415Y+330765D01*
X+2930415Y+356165D02*
X+2930415Y+366325D01*
X+2932955Y+279965D02*
X+2932955Y+292665D01*
X+2932955Y+315525D02*
X+2932955Y+328225D01*
X+2932955Y+358705D02*
X+2932955Y+368865D01*
X+2935495Y+279965D02*
X+2935495Y+290125D01*
X+2935495Y+318065D02*
X+2935495Y+328225D01*
X+2935495Y+358705D02*
X+2935495Y+368865D01*
X+2938035Y+279965D02*
X+2938035Y+290125D01*
X+2938035Y+318065D02*
X+2938035Y+328225D01*
X+2938035Y+358705D02*
X+2938035Y+368865D01*
X+2940575Y+279965D02*
X+2940575Y+290125D01*
X+2940575Y+318065D02*
X+2940575Y+328225D01*
X+2940575Y+358705D02*
X+2940575Y+368865D01*
X+2943115Y+279965D02*
X+2943115Y+290125D01*
X+2943115Y+318065D02*
X+2943115Y+328225D01*
X+2943115Y+358705D02*
X+2943115Y+368865D01*
X+2945655Y+279965D02*
X+2945655Y+290125D01*
X+2945655Y+318065D02*
X+2945655Y+328225D01*
X+2945655Y+358705D02*
X+2945655Y+368865D01*
X+2948195Y+279965D02*
X+2948195Y+290125D01*
X+2948195Y+318065D02*
X+2948195Y+328225D01*
X+2948195Y+358705D02*
X+2948195Y+368865D01*
X+2950735Y+279965D02*
X+2950735Y+290125D01*
X+2950735Y+318065D02*
X+2950735Y+328225D01*
X+2950735Y+358705D02*
X+2950735Y+368865D01*
X+2953275Y+279965D02*
X+2953275Y+290125D01*
X+2953275Y+318065D02*
X+2953275Y+328225D01*
X+2953275Y+358705D02*
X+2953275Y+368865D01*
X+2955815Y+279965D02*
X+2955815Y+290125D01*
X+2955815Y+318065D02*
X+2955815Y+328225D01*
X+2955815Y+358705D02*
X+2955815Y+368865D01*
X+2958355Y+279965D02*
X+2958355Y+290125D01*
X+2958355Y+318065D02*
X+2958355Y+328225D01*
X+2958355Y+358705D02*
X+2958355Y+368865D01*
X+2960895Y+279965D02*
X+2960895Y+290125D01*
X+2960895Y+318065D02*
X+2960895Y+328225D01*
X+2960895Y+358705D02*
X+2960895Y+368865D01*
X+2963435Y+279965D02*
X+2963435Y+290125D01*
X+2963435Y+318065D02*
X+2963435Y+328225D01*
X+2963435Y+358705D02*
X+2963435Y+368865D01*
X+2965975Y+279965D02*
X+2965975Y+290125D01*
X+2965975Y+318065D02*
X+2965975Y+328225D01*
X+2965975Y+358705D02*
X+2965975Y+368865D01*
X+2968515Y+279965D02*
X+2968515Y+368865D01*
X+2971055Y+279965D02*
X+2971055Y+368865D01*
X+2973595Y+279965D02*
X+2973595Y+368865D01*
X+2976135Y+279965D02*
X+2976135Y+368865D01*
D48*
X+3182411Y+557600D02*
X+3209960Y+552200D01*
X+3232177Y+537366D01*
X+3247011Y+515149D01*
X+3252411Y+487600D01*
X+3172411Y+557600D02*
X+3144862Y+552200D01*
X+3122645Y+537366D01*
X+3107811Y+515149D01*
X+3102411Y+487600D01*
X+3102411Y+477600D02*
X+3107811Y+450051D01*
X+3122645Y+427834D01*
X+3144862Y+413000D01*
X+3172411Y+407600D01*
X+3182411Y+407600D02*
X+3209960Y+413000D01*
X+3232177Y+427834D01*
X+3247011Y+450051D01*
X+3252411Y+477600D01*
D49*
X+3191174Y+278897D02*
X+3236894Y+278897D01*
X+3183554Y+281437D02*
X+3236894Y+281437D01*
X+3181014Y+283977D02*
X+3236894Y+283977D01*
X+3178474Y+286517D02*
X+3236894Y+286517D01*
X+3175934Y+289057D02*
X+3193714Y+289057D01*
X+3226734Y+289057D02*
X+3236894Y+289057D01*
X+3175934Y+291597D02*
X+3188634Y+291597D01*
X+3226734Y+291597D02*
X+3236894Y+291597D01*
X+3122594Y+294137D02*
X+3132754Y+294137D01*
X+3173394Y+294137D02*
X+3186094Y+294137D01*
X+3226734Y+294137D02*
X+3236894Y+294137D01*
X+3122594Y+296677D02*
X+3132754Y+296677D01*
X+3173394Y+296677D02*
X+3183554Y+296677D01*
X+3226734Y+296677D02*
X+3236894Y+296677D01*
X+3122594Y+299217D02*
X+3132754Y+299217D01*
X+3173394Y+299217D02*
X+3183554Y+299217D01*
X+3226734Y+299217D02*
X+3236894Y+299217D01*
X+3122594Y+301757D02*
X+3132754Y+301757D01*
X+3173394Y+301757D02*
X+3183554Y+301757D01*
X+3226734Y+301757D02*
X+3236894Y+301757D01*
X+3122594Y+304297D02*
X+3132754Y+304297D01*
X+3173394Y+304297D02*
X+3183554Y+304297D01*
X+3226734Y+304297D02*
X+3236894Y+304297D01*
X+3122594Y+306837D02*
X+3132754Y+306837D01*
X+3173394Y+306837D02*
X+3183554Y+306837D01*
X+3226734Y+306837D02*
X+3236894Y+306837D01*
X+3122594Y+309377D02*
X+3132754Y+309377D01*
X+3175934Y+309377D02*
X+3186094Y+309377D01*
X+3226734Y+309377D02*
X+3236894Y+309377D01*
X+3122594Y+311917D02*
X+3132754Y+311917D01*
X+3175934Y+311917D02*
X+3188634Y+311917D01*
X+3226734Y+311917D02*
X+3236894Y+311917D01*
X+3122594Y+314457D02*
X+3132754Y+314457D01*
X+3178474Y+314457D02*
X+3193714Y+314457D01*
X+3226734Y+314457D02*
X+3236894Y+314457D01*
X+3122594Y+316997D02*
X+3132754Y+316997D01*
X+3178474Y+316997D02*
X+3236894Y+316997D01*
X+3097194Y+319537D02*
X+3158154Y+319537D01*
X+3183554Y+319537D02*
X+3236894Y+319537D01*
X+3097194Y+322077D02*
X+3158154Y+322077D01*
X+3181014Y+322077D02*
X+3236894Y+322077D01*
X+3097194Y+324617D02*
X+3158154Y+324617D01*
X+3178474Y+324617D02*
X+3236894Y+324617D01*
X+3097194Y+327157D02*
X+3158154Y+327157D01*
X+3175934Y+327157D02*
X+3191174Y+327157D01*
X+3226734Y+327157D02*
X+3236894Y+327157D01*
X+3122594Y+329697D02*
X+3132754Y+329697D01*
X+3173394Y+329697D02*
X+3186094Y+329697D01*
X+3226734Y+329697D02*
X+3236894Y+329697D01*
X+3122594Y+332237D02*
X+3132754Y+332237D01*
X+3173394Y+332237D02*
X+3183554Y+332237D01*
X+3226734Y+332237D02*
X+3236894Y+332237D01*
X+3122594Y+334777D02*
X+3132754Y+334777D01*
X+3170854Y+334777D02*
X+3181014Y+334777D01*
X+3226734Y+334777D02*
X+3236894Y+334777D01*
X+3122594Y+337317D02*
X+3132754Y+337317D01*
X+3170854Y+337317D02*
X+3181014Y+337317D01*
X+3226734Y+337317D02*
X+3236894Y+337317D01*
X+3122594Y+339857D02*
X+3132754Y+339857D01*
X+3170854Y+339857D02*
X+3181014Y+339857D01*
X+3226734Y+339857D02*
X+3236894Y+339857D01*
X+3122594Y+342397D02*
X+3132754Y+342397D01*
X+3170854Y+342397D02*
X+3181014Y+342397D01*
X+3226734Y+342397D02*
X+3236894Y+342397D01*
X+3122594Y+344937D02*
X+3132754Y+344937D01*
X+3170854Y+344937D02*
X+3181014Y+344937D01*
X+3226734Y+344937D02*
X+3236894Y+344937D01*
X+3122594Y+347477D02*
X+3132754Y+347477D01*
X+3170854Y+347477D02*
X+3183554Y+347477D01*
X+3226734Y+347477D02*
X+3236894Y+347477D01*
X+3122594Y+350017D02*
X+3132754Y+350017D01*
X+3173394Y+350017D02*
X+3183554Y+350017D01*
X+3226734Y+350017D02*
X+3236894Y+350017D01*
X+3122594Y+352557D02*
X+3132754Y+352557D01*
X+3173394Y+352557D02*
X+3186094Y+352557D01*
X+3226734Y+352557D02*
X+3236894Y+352557D01*
X+3175934Y+355097D02*
X+3191174Y+355097D01*
X+3226734Y+355097D02*
X+3236894Y+355097D01*
X+3175934Y+357637D02*
X+3236894Y+357637D01*
X+3178474Y+360177D02*
X+3236894Y+360177D01*
X+3183554Y+362717D02*
X+3236894Y+362717D01*
X+3191174Y+365257D02*
X+3236894Y+365257D01*
D48*
X+2424400Y+873600D02*
X+2427100Y+873600D01*
X+2424400Y+822800D02*
X+2427100Y+822800D01*
X+2424400Y+993600D02*
X+2427100Y+993600D01*
X+2424400Y+942800D02*
X+2427100Y+942800D01*
X+2967950Y+828040D02*
X+3094950Y+828040D01*
X+2967950Y+878840D02*
X+3094950Y+878840D01*
X+1674200Y+507500D02*
X+1674200Y+487500D01*
X+1834200Y+507500D02*
X+1834200Y+487500D01*
X+2237100Y+584000D02*
X+2237100Y+554000D01*
X+2237100Y+464000D02*
X+2237100Y+494000D01*
X+2057100Y+464000D02*
X+2057100Y+584000D01*
X+2374500Y+542500D02*
X+2324500Y+542500D01*
X+2527300Y+518850D02*
X+2527300Y+488850D01*
X+2437300Y+488850D02*
X+2617300Y+488850D01*
X+2437300Y+428850D02*
X+2617300Y+428850D01*
X+2527300Y+428850D02*
X+2527300Y+398850D01*
X+1957000Y+567900D02*
X+1907000Y+567900D01*
X+2096850Y+304800D02*
X+2094150Y+304800D01*
X+2096850Y+355600D02*
X+2094150Y+355600D01*
X+2303860Y+304800D02*
X+2301160Y+304800D01*
X+2303860Y+355600D02*
X+2301160Y+355600D01*
X+1536700Y+395550D02*
X+1536700Y+425550D01*
X+1626700Y+425550D02*
X+1446700Y+425550D01*
X+1626700Y+485550D02*
X+1446700Y+485550D01*
X+1536700Y+485550D02*
X+1536700Y+515550D01*
X+1905400Y+353610D02*
X+1955400Y+353610D01*
X+1092600Y+367300D02*
X+1142600Y+367300D01*
X+1282300Y+805900D02*
X+1232300Y+805900D01*
X+1092600Y+575860D02*
X+1142600Y+575860D01*
X+1899500Y+805900D02*
X+1849500Y+805900D01*
X+1599800Y+805900D02*
X+1549800Y+805900D01*
X+1739500Y+805900D02*
X+1689500Y+805900D01*
X+541360Y+2190090D02*
X+538660Y+2190090D01*
X+541360Y+2240890D02*
X+538660Y+2240890D01*
X+172640Y+2242160D02*
X+175340Y+2242160D01*
X+172640Y+2191360D02*
X+175340Y+2191360D01*
X+899640Y+2389050D02*
X+902340Y+2389050D01*
X+899640Y+2338250D02*
X+902340Y+2338250D01*
X+1371600Y+805100D02*
X+1371600Y+807800D01*
X+1422400Y+805100D02*
X+1422400Y+807800D01*
D49*
X+3357880Y+2025842D02*
X+3357880Y+2043622D01*
X+3357880Y+2076642D02*
X+3357880Y+2096962D01*
X+3357880Y+2140142D02*
X+3357880Y+2157922D01*
X+3357880Y+2221422D02*
X+3357880Y+2244282D01*
X+3357880Y+2290002D02*
X+3357880Y+2307782D01*
X+3357880Y+2371282D02*
X+3357880Y+2389062D01*
X+3360420Y+2025842D02*
X+3360420Y+2043622D01*
X+3360420Y+2071562D02*
X+3360420Y+2102042D01*
X+3360420Y+2140142D02*
X+3360420Y+2157922D01*
X+3360420Y+2213802D02*
X+3360420Y+2251902D01*
X+3360420Y+2290002D02*
X+3360420Y+2307782D01*
X+3360420Y+2371282D02*
X+3360420Y+2389062D01*
X+3362960Y+2025842D02*
X+3362960Y+2043622D01*
X+3362960Y+2069022D02*
X+3362960Y+2104582D01*
X+3362960Y+2140142D02*
X+3362960Y+2157922D01*
X+3362960Y+2211262D02*
X+3362960Y+2256982D01*
X+3362960Y+2290002D02*
X+3362960Y+2307782D01*
X+3362960Y+2371282D02*
X+3362960Y+2389062D01*
X+3365500Y+2025842D02*
X+3365500Y+2043622D01*
X+3365500Y+2066482D02*
X+3365500Y+2107122D01*
X+3365500Y+2140142D02*
X+3365500Y+2157922D01*
X+3365500Y+2206182D02*
X+3365500Y+2259522D01*
X+3365500Y+2290002D02*
X+3365500Y+2307782D01*
X+3365500Y+2371282D02*
X+3365500Y+2389062D01*
X+3368040Y+2025842D02*
X+3368040Y+2043622D01*
X+3368040Y+2063942D02*
X+3368040Y+2109662D01*
X+3368040Y+2140142D02*
X+3368040Y+2157922D01*
X+3368040Y+2203642D02*
X+3368040Y+2262062D01*
X+3368040Y+2290002D02*
X+3368040Y+2307782D01*
X+3368040Y+2371282D02*
X+3368040Y+2389062D01*
X+3370580Y+2025842D02*
X+3370580Y+2043622D01*
X+3370580Y+2061402D02*
X+3370580Y+2112202D01*
X+3370580Y+2140142D02*
X+3370580Y+2157922D01*
X+3370580Y+2203642D02*
X+3370580Y+2264602D01*
X+3370580Y+2290002D02*
X+3370580Y+2307782D01*
X+3370580Y+2371282D02*
X+3370580Y+2389062D01*
X+3373120Y+2025842D02*
X+3373120Y+2043622D01*
X+3373120Y+2061402D02*
X+3373120Y+2081722D01*
X+3373120Y+2091882D02*
X+3373120Y+2112202D01*
X+3373120Y+2140142D02*
X+3373120Y+2157922D01*
X+3373120Y+2201102D02*
X+3373120Y+2226502D01*
X+3373120Y+2241742D02*
X+3373120Y+2267142D01*
X+3373120Y+2290002D02*
X+3373120Y+2307782D01*
X+3373120Y+2371282D02*
X+3373120Y+2389062D01*
X+3375660Y+2025842D02*
X+3375660Y+2043622D01*
X+3375660Y+2058862D02*
X+3375660Y+2079182D01*
X+3375660Y+2096962D02*
X+3375660Y+2114742D01*
X+3375660Y+2140142D02*
X+3375660Y+2157922D01*
X+3375660Y+2198562D02*
X+3375660Y+2221422D01*
X+3375660Y+2246822D02*
X+3375660Y+2269682D01*
X+3375660Y+2290002D02*
X+3375660Y+2307782D01*
X+3375660Y+2371282D02*
X+3375660Y+2389062D01*
X+3378200Y+2025842D02*
X+3378200Y+2043622D01*
X+3378200Y+2058862D02*
X+3378200Y+2076642D01*
X+3378200Y+2096962D02*
X+3378200Y+2114742D01*
X+3378200Y+2140142D02*
X+3378200Y+2157922D01*
X+3378200Y+2198562D02*
X+3378200Y+2218882D01*
X+3378200Y+2249362D02*
X+3378200Y+2269682D01*
X+3378200Y+2290002D02*
X+3378200Y+2307782D01*
X+3378200Y+2371282D02*
X+3378200Y+2389062D01*
X+3380740Y+2025842D02*
X+3380740Y+2043622D01*
X+3380740Y+2058862D02*
X+3380740Y+2076642D01*
X+3380740Y+2099502D02*
X+3380740Y+2114742D01*
X+3380740Y+2140142D02*
X+3380740Y+2157922D01*
X+3380740Y+2196022D02*
X+3380740Y+2216342D01*
X+3380740Y+2251902D02*
X+3380740Y+2272222D01*
X+3380740Y+2290002D02*
X+3380740Y+2307782D01*
X+3380740Y+2371282D02*
X+3380740Y+2389062D01*
X+3383280Y+2025842D02*
X+3383280Y+2043622D01*
X+3383280Y+2058862D02*
X+3383280Y+2076642D01*
X+3383280Y+2099502D02*
X+3383280Y+2114742D01*
X+3383280Y+2140142D02*
X+3383280Y+2157922D01*
X+3383280Y+2196022D02*
X+3383280Y+2216342D01*
X+3383280Y+2254442D02*
X+3383280Y+2272222D01*
X+3383280Y+2290002D02*
X+3383280Y+2307782D01*
X+3383280Y+2371282D02*
X+3383280Y+2389062D01*
X+3385820Y+2025842D02*
X+3385820Y+2043622D01*
X+3385820Y+2058862D02*
X+3385820Y+2076642D01*
X+3385820Y+2099502D02*
X+3385820Y+2117282D01*
X+3385820Y+2140142D02*
X+3385820Y+2157922D01*
X+3385820Y+2201102D02*
X+3385820Y+2213802D01*
X+3385820Y+2254442D02*
X+3385820Y+2272222D01*
X+3385820Y+2290002D02*
X+3385820Y+2307782D01*
X+3385820Y+2371282D02*
X+3385820Y+2389062D01*
X+3388360Y+2025842D02*
X+3388360Y+2043622D01*
X+3388360Y+2058862D02*
X+3388360Y+2076642D01*
X+3388360Y+2099502D02*
X+3388360Y+2117282D01*
X+3388360Y+2140142D02*
X+3388360Y+2157922D01*
X+3388360Y+2208722D02*
X+3388360Y+2213802D01*
X+3388360Y+2254442D02*
X+3388360Y+2272222D01*
X+3388360Y+2290002D02*
X+3388360Y+2307782D01*
X+3388360Y+2371282D02*
X+3388360Y+2389062D01*
X+3390900Y+2025842D02*
X+3390900Y+2043622D01*
X+3390900Y+2058862D02*
X+3390900Y+2076642D01*
X+3390900Y+2099502D02*
X+3390900Y+2117282D01*
X+3390900Y+2140142D02*
X+3390900Y+2157922D01*
X+3390900Y+2256982D02*
X+3390900Y+2274762D01*
X+3390900Y+2290002D02*
X+3390900Y+2307782D01*
X+3390900Y+2340802D02*
X+3390900Y+2389062D01*
X+3393440Y+2025842D02*
X+3393440Y+2043622D01*
X+3393440Y+2058862D02*
X+3393440Y+2079182D01*
X+3393440Y+2096962D02*
X+3393440Y+2117282D01*
X+3393440Y+2140142D02*
X+3393440Y+2157922D01*
X+3393440Y+2256982D02*
X+3393440Y+2274762D01*
X+3393440Y+2290002D02*
X+3393440Y+2307782D01*
X+3393440Y+2333182D02*
X+3393440Y+2389062D01*
X+3395980Y+1987742D02*
X+3395980Y+2043622D01*
X+3395980Y+2061402D02*
X+3395980Y+2081722D01*
X+3395980Y+2094422D02*
X+3395980Y+2117282D01*
X+3395980Y+2140142D02*
X+3395980Y+2157922D01*
X+3395980Y+2256982D02*
X+3395980Y+2274762D01*
X+3395980Y+2290002D02*
X+3395980Y+2307782D01*
X+3395980Y+2330642D02*
X+3395980Y+2389062D01*
X+3398520Y+1987742D02*
X+3398520Y+2043622D01*
X+3398520Y+2061402D02*
X+3398520Y+2117282D01*
X+3398520Y+2140142D02*
X+3398520Y+2157922D01*
X+3398520Y+2256982D02*
X+3398520Y+2274762D01*
X+3398520Y+2290002D02*
X+3398520Y+2307782D01*
X+3398520Y+2328102D02*
X+3398520Y+2389062D01*
X+3401060Y+1987742D02*
X+3401060Y+2043622D01*
X+3401060Y+2063942D02*
X+3401060Y+2117282D01*
X+3401060Y+2140142D02*
X+3401060Y+2157922D01*
X+3401060Y+2256982D02*
X+3401060Y+2274762D01*
X+3401060Y+2290002D02*
X+3401060Y+2307782D01*
X+3401060Y+2325562D02*
X+3401060Y+2389062D01*
X+3403600Y+1987742D02*
X+3403600Y+2043622D01*
X+3403600Y+2066482D02*
X+3403600Y+2117282D01*
X+3403600Y+2140142D02*
X+3403600Y+2157922D01*
X+3403600Y+2256982D02*
X+3403600Y+2274762D01*
X+3403600Y+2290002D02*
X+3403600Y+2307782D01*
X+3403600Y+2323022D02*
X+3403600Y+2389062D01*
X+3406140Y+1987742D02*
X+3406140Y+2043622D01*
X+3406140Y+2069022D02*
X+3406140Y+2099502D01*
X+3406140Y+2102042D02*
X+3406140Y+2117282D01*
X+3406140Y+2140142D02*
X+3406140Y+2157922D01*
X+3406140Y+2256982D02*
X+3406140Y+2274762D01*
X+3406140Y+2290002D02*
X+3406140Y+2307782D01*
X+3406140Y+2323022D02*
X+3406140Y+2345882D01*
X+3406140Y+2371282D02*
X+3406140Y+2389062D01*
X+3408680Y+1987742D02*
X+3408680Y+2043622D01*
X+3408680Y+2071562D02*
X+3408680Y+2096962D01*
X+3408680Y+2099502D02*
X+3408680Y+2117282D01*
X+3408680Y+2140142D02*
X+3408680Y+2157922D01*
X+3408680Y+2178242D02*
X+3408680Y+2180782D01*
X+3408680Y+2256982D02*
X+3408680Y+2274762D01*
X+3408680Y+2290002D02*
X+3408680Y+2307782D01*
X+3408680Y+2320482D02*
X+3408680Y+2343342D01*
X+3408680Y+2371282D02*
X+3408680Y+2389062D01*
X+3411220Y+2025842D02*
X+3411220Y+2043622D01*
X+3411220Y+2076642D02*
X+3411220Y+2091882D01*
X+3411220Y+2099502D02*
X+3411220Y+2117282D01*
X+3411220Y+2140142D02*
X+3411220Y+2157922D01*
X+3411220Y+2170622D02*
X+3411220Y+2180782D01*
X+3411220Y+2256982D02*
X+3411220Y+2274762D01*
X+3411220Y+2290002D02*
X+3411220Y+2307782D01*
X+3411220Y+2320482D02*
X+3411220Y+2340802D01*
X+3411220Y+2371282D02*
X+3411220Y+2389062D01*
X+3413760Y+2025842D02*
X+3413760Y+2043622D01*
X+3413760Y+2099502D02*
X+3413760Y+2117282D01*
X+3413760Y+2140142D02*
X+3413760Y+2157922D01*
X+3413760Y+2165542D02*
X+3413760Y+2180782D01*
X+3413760Y+2256982D02*
X+3413760Y+2274762D01*
X+3413760Y+2290002D02*
X+3413760Y+2307782D01*
X+3413760Y+2320482D02*
X+3413760Y+2338262D01*
X+3413760Y+2371282D02*
X+3413760Y+2389062D01*
X+3416300Y+2025842D02*
X+3416300Y+2043622D01*
X+3416300Y+2099502D02*
X+3416300Y+2117282D01*
X+3416300Y+2140142D02*
X+3416300Y+2157922D01*
X+3416300Y+2163002D02*
X+3416300Y+2180782D01*
X+3416300Y+2254442D02*
X+3416300Y+2272222D01*
X+3416300Y+2290002D02*
X+3416300Y+2307782D01*
X+3416300Y+2320482D02*
X+3416300Y+2338262D01*
X+3416300Y+2371282D02*
X+3416300Y+2389062D01*
X+3418840Y+2025842D02*
X+3418840Y+2043622D01*
X+3418840Y+2099502D02*
X+3418840Y+2114742D01*
X+3418840Y+2140142D02*
X+3418840Y+2157922D01*
X+3418840Y+2160462D02*
X+3418840Y+2180782D01*
X+3418840Y+2206182D02*
X+3418840Y+2213802D01*
X+3418840Y+2254442D02*
X+3418840Y+2272222D01*
X+3418840Y+2290002D02*
X+3418840Y+2307782D01*
X+3418840Y+2320482D02*
X+3418840Y+2338262D01*
X+3418840Y+2371282D02*
X+3418840Y+2389062D01*
X+3421380Y+2025842D02*
X+3421380Y+2043622D01*
X+3421380Y+2066482D02*
X+3421380Y+2079182D01*
X+3421380Y+2099502D02*
X+3421380Y+2114742D01*
X+3421380Y+2140142D02*
X+3421380Y+2180782D01*
X+3421380Y+2196022D02*
X+3421380Y+2213802D01*
X+3421380Y+2254442D02*
X+3421380Y+2272222D01*
X+3421380Y+2290002D02*
X+3421380Y+2307782D01*
X+3421380Y+2320482D02*
X+3421380Y+2338262D01*
X+3421380Y+2371282D02*
X+3421380Y+2389062D01*
X+3423920Y+2025842D02*
X+3423920Y+2043622D01*
X+3423920Y+2061402D02*
X+3423920Y+2079182D01*
X+3423920Y+2096962D02*
X+3423920Y+2114742D01*
X+3423920Y+2140142D02*
X+3423920Y+2178242D01*
X+3423920Y+2196022D02*
X+3423920Y+2216342D01*
X+3423920Y+2251902D02*
X+3423920Y+2269682D01*
X+3423920Y+2290002D02*
X+3423920Y+2307782D01*
X+3423920Y+2320482D02*
X+3423920Y+2340802D01*
X+3423920Y+2371282D02*
X+3423920Y+2389062D01*
X+3426460Y+2025842D02*
X+3426460Y+2043622D01*
X+3426460Y+2061402D02*
X+3426460Y+2081722D01*
X+3426460Y+2094422D02*
X+3426460Y+2112202D01*
X+3426460Y+2140142D02*
X+3426460Y+2173162D01*
X+3426460Y+2198562D02*
X+3426460Y+2218882D01*
X+3426460Y+2249362D02*
X+3426460Y+2269682D01*
X+3426460Y+2290002D02*
X+3426460Y+2307782D01*
X+3426460Y+2320482D02*
X+3426460Y+2340802D01*
X+3426460Y+2371282D02*
X+3426460Y+2389062D01*
X+3429000Y+2025842D02*
X+3429000Y+2043622D01*
X+3429000Y+2063942D02*
X+3429000Y+2084262D01*
X+3429000Y+2091882D02*
X+3429000Y+2112202D01*
X+3429000Y+2140142D02*
X+3429000Y+2168082D01*
X+3429000Y+2198562D02*
X+3429000Y+2221422D01*
X+3429000Y+2246822D02*
X+3429000Y+2267142D01*
X+3429000Y+2290002D02*
X+3429000Y+2307782D01*
X+3429000Y+2323022D02*
X+3429000Y+2345882D01*
X+3429000Y+2371282D02*
X+3429000Y+2389062D01*
X+3431540Y+1982662D02*
X+3431540Y+2043622D01*
X+3431540Y+2063942D02*
X+3431540Y+2109662D01*
X+3431540Y+2140142D02*
X+3431540Y+2165542D01*
X+3431540Y+2201102D02*
X+3431540Y+2226502D01*
X+3431540Y+2241742D02*
X+3431540Y+2267142D01*
X+3431540Y+2290002D02*
X+3431540Y+2307782D01*
X+3431540Y+2323022D02*
X+3431540Y+2389062D01*
X+3434080Y+1982662D02*
X+3434080Y+2043622D01*
X+3434080Y+2066482D02*
X+3434080Y+2109662D01*
X+3434080Y+2140142D02*
X+3434080Y+2163002D01*
X+3434080Y+2201102D02*
X+3434080Y+2264602D01*
X+3434080Y+2290002D02*
X+3434080Y+2307782D01*
X+3434080Y+2325562D02*
X+3434080Y+2389062D01*
X+3436620Y+1982662D02*
X+3436620Y+2043622D01*
X+3436620Y+2066482D02*
X+3436620Y+2107122D01*
X+3436620Y+2140142D02*
X+3436620Y+2160462D01*
X+3436620Y+2203642D02*
X+3436620Y+2262062D01*
X+3436620Y+2290002D02*
X+3436620Y+2307782D01*
X+3436620Y+2325562D02*
X+3436620Y+2389062D01*
X+3439160Y+1982662D02*
X+3439160Y+2043622D01*
X+3439160Y+2069022D02*
X+3439160Y+2104582D01*
X+3439160Y+2140142D02*
X+3439160Y+2157922D01*
X+3439160Y+2206182D02*
X+3439160Y+2259522D01*
X+3439160Y+2290002D02*
X+3439160Y+2307782D01*
X+3439160Y+2328102D02*
X+3439160Y+2389062D01*
X+3441700Y+1982662D02*
X+3441700Y+2043622D01*
X+3441700Y+2071562D02*
X+3441700Y+2099502D01*
X+3441700Y+2140142D02*
X+3441700Y+2155382D01*
X+3441700Y+2211262D02*
X+3441700Y+2256982D01*
X+3441700Y+2290002D02*
X+3441700Y+2307782D01*
X+3441700Y+2333182D02*
X+3441700Y+2389062D01*
X+3444240Y+1982662D02*
X+3444240Y+2043622D01*
X+3444240Y+2076642D02*
X+3444240Y+2094422D01*
X+3444240Y+2140142D02*
X+3444240Y+2155382D01*
X+3444240Y+2213802D02*
X+3444240Y+2251902D01*
X+3444240Y+2290002D02*
X+3444240Y+2307782D01*
X+3444240Y+2338262D02*
X+3444240Y+2389062D01*
X+3446780Y+2221422D02*
X+3446780Y+2244282D01*
X+3357880Y+1056748D02*
X+3357880Y+1074528D01*
X+3357880Y+1115168D02*
X+3357880Y+1132948D01*
X+3357880Y+1143108D02*
X+3357880Y+1163428D01*
X+3357880Y+1201528D02*
X+3357880Y+1219308D01*
X+3357880Y+1295508D02*
X+3357880Y+1318368D01*
X+3357880Y+1353928D02*
X+3357880Y+1422508D01*
X+3357880Y+1465688D02*
X+3357880Y+1511408D01*
X+3360420Y+1056748D02*
X+3360420Y+1074528D01*
X+3360420Y+1115168D02*
X+3360420Y+1132948D01*
X+3360420Y+1143108D02*
X+3360420Y+1163428D01*
X+3360420Y+1201528D02*
X+3360420Y+1219308D01*
X+3360420Y+1295508D02*
X+3360420Y+1318368D01*
X+3360420Y+1353928D02*
X+3360420Y+1422508D01*
X+3360420Y+1458068D02*
X+3360420Y+1511408D01*
X+3362960Y+1056748D02*
X+3362960Y+1074528D01*
X+3362960Y+1115168D02*
X+3362960Y+1132948D01*
X+3362960Y+1145648D02*
X+3362960Y+1165968D01*
X+3362960Y+1201528D02*
X+3362960Y+1219308D01*
X+3362960Y+1292968D02*
X+3362960Y+1320908D01*
X+3362960Y+1353928D02*
X+3362960Y+1422508D01*
X+3362960Y+1452988D02*
X+3362960Y+1511408D01*
X+3365500Y+1056748D02*
X+3365500Y+1074528D01*
X+3365500Y+1115168D02*
X+3365500Y+1132948D01*
X+3365500Y+1148188D02*
X+3365500Y+1168508D01*
X+3365500Y+1201528D02*
X+3365500Y+1219308D01*
X+3365500Y+1292968D02*
X+3365500Y+1320908D01*
X+3365500Y+1353928D02*
X+3365500Y+1422508D01*
X+3365500Y+1450448D02*
X+3365500Y+1511408D01*
X+3368040Y+1056748D02*
X+3368040Y+1074528D01*
X+3368040Y+1115168D02*
X+3368040Y+1132948D01*
X+3368040Y+1148188D02*
X+3368040Y+1168508D01*
X+3368040Y+1201528D02*
X+3368040Y+1219308D01*
X+3368040Y+1292968D02*
X+3368040Y+1320908D01*
X+3368040Y+1353928D02*
X+3368040Y+1422508D01*
X+3368040Y+1447908D02*
X+3368040Y+1511408D01*
X+3370580Y+1056748D02*
X+3370580Y+1074528D01*
X+3370580Y+1115168D02*
X+3370580Y+1132948D01*
X+3370580Y+1150728D02*
X+3370580Y+1171048D01*
X+3370580Y+1201528D02*
X+3370580Y+1219308D01*
X+3370580Y+1290428D02*
X+3370580Y+1323448D01*
X+3370580Y+1353928D02*
X+3370580Y+1422508D01*
X+3370580Y+1445368D02*
X+3370580Y+1511408D01*
X+3373120Y+1056748D02*
X+3373120Y+1074528D01*
X+3373120Y+1115168D02*
X+3373120Y+1132948D01*
X+3373120Y+1150728D02*
X+3373120Y+1171048D01*
X+3373120Y+1201528D02*
X+3373120Y+1219308D01*
X+3373120Y+1290428D02*
X+3373120Y+1323448D01*
X+3373120Y+1404728D02*
X+3373120Y+1422508D01*
X+3373120Y+1442828D02*
X+3373120Y+1468228D01*
X+3373120Y+1493628D02*
X+3373120Y+1511408D01*
X+3375660Y+1056748D02*
X+3375660Y+1074528D01*
X+3375660Y+1115168D02*
X+3375660Y+1132948D01*
X+3375660Y+1153268D02*
X+3375660Y+1173588D01*
X+3375660Y+1201528D02*
X+3375660Y+1219308D01*
X+3375660Y+1290428D02*
X+3375660Y+1305668D01*
X+3375660Y+1308208D02*
X+3375660Y+1323448D01*
X+3375660Y+1404728D02*
X+3375660Y+1422508D01*
X+3375660Y+1442828D02*
X+3375660Y+1463148D01*
X+3375660Y+1493628D02*
X+3375660Y+1511408D01*
X+3378200Y+1056748D02*
X+3378200Y+1074528D01*
X+3378200Y+1115168D02*
X+3378200Y+1132948D01*
X+3378200Y+1155808D02*
X+3378200Y+1176128D01*
X+3378200Y+1201528D02*
X+3378200Y+1219308D01*
X+3378200Y+1287888D02*
X+3378200Y+1305668D01*
X+3378200Y+1308208D02*
X+3378200Y+1325988D01*
X+3378200Y+1404728D02*
X+3378200Y+1422508D01*
X+3378200Y+1442828D02*
X+3378200Y+1460608D01*
X+3378200Y+1493628D02*
X+3378200Y+1511408D01*
X+3380740Y+1056748D02*
X+3380740Y+1074528D01*
X+3380740Y+1115168D02*
X+3380740Y+1132948D01*
X+3380740Y+1155808D02*
X+3380740Y+1176128D01*
X+3380740Y+1201528D02*
X+3380740Y+1219308D01*
X+3380740Y+1287888D02*
X+3380740Y+1305668D01*
X+3380740Y+1308208D02*
X+3380740Y+1325988D01*
X+3380740Y+1404728D02*
X+3380740Y+1422508D01*
X+3380740Y+1440288D02*
X+3380740Y+1458068D01*
X+3380740Y+1493628D02*
X+3380740Y+1511408D01*
X+3383280Y+1056748D02*
X+3383280Y+1074528D01*
X+3383280Y+1115168D02*
X+3383280Y+1132948D01*
X+3383280Y+1158348D02*
X+3383280Y+1178668D01*
X+3383280Y+1201528D02*
X+3383280Y+1219308D01*
X+3383280Y+1287888D02*
X+3383280Y+1303128D01*
X+3383280Y+1310748D02*
X+3383280Y+1325988D01*
X+3383280Y+1404728D02*
X+3383280Y+1422508D01*
X+3383280Y+1440288D02*
X+3383280Y+1458068D01*
X+3383280Y+1493628D02*
X+3383280Y+1511408D01*
X+3385820Y+1056748D02*
X+3385820Y+1074528D01*
X+3385820Y+1115168D02*
X+3385820Y+1132948D01*
X+3385820Y+1160888D02*
X+3385820Y+1181208D01*
X+3385820Y+1198988D02*
X+3385820Y+1219308D01*
X+3385820Y+1285348D02*
X+3385820Y+1303128D01*
X+3385820Y+1310748D02*
X+3385820Y+1328528D01*
X+3385820Y+1404728D02*
X+3385820Y+1422508D01*
X+3385820Y+1440288D02*
X+3385820Y+1458068D01*
X+3385820Y+1493628D02*
X+3385820Y+1511408D01*
X+3388360Y+1056748D02*
X+3388360Y+1074528D01*
X+3388360Y+1115168D02*
X+3388360Y+1132948D01*
X+3388360Y+1160888D02*
X+3388360Y+1181208D01*
X+3388360Y+1196448D02*
X+3388360Y+1219308D01*
X+3388360Y+1285348D02*
X+3388360Y+1303128D01*
X+3388360Y+1310748D02*
X+3388360Y+1328528D01*
X+3388360Y+1404728D02*
X+3388360Y+1422508D01*
X+3388360Y+1437748D02*
X+3388360Y+1455528D01*
X+3388360Y+1493628D02*
X+3388360Y+1511408D01*
X+3390900Y+1056748D02*
X+3390900Y+1074528D01*
X+3390900Y+1115168D02*
X+3390900Y+1132948D01*
X+3390900Y+1163428D02*
X+3390900Y+1183748D01*
X+3390900Y+1193908D02*
X+3390900Y+1219308D01*
X+3390900Y+1285348D02*
X+3390900Y+1300588D01*
X+3390900Y+1313288D02*
X+3390900Y+1328528D01*
X+3390900Y+1404728D02*
X+3390900Y+1422508D01*
X+3390900Y+1437748D02*
X+3390900Y+1455528D01*
X+3390900Y+1493628D02*
X+3390900Y+1511408D01*
X+3393440Y+1056748D02*
X+3393440Y+1074528D01*
X+3393440Y+1115168D02*
X+3393440Y+1132948D01*
X+3393440Y+1163428D02*
X+3393440Y+1183748D01*
X+3393440Y+1191368D02*
X+3393440Y+1219308D01*
X+3393440Y+1282808D02*
X+3393440Y+1300588D01*
X+3393440Y+1313288D02*
X+3393440Y+1331068D01*
X+3393440Y+1404728D02*
X+3393440Y+1422508D01*
X+3393440Y+1437748D02*
X+3393440Y+1455528D01*
X+3393440Y+1493628D02*
X+3393440Y+1511408D01*
X+3395980Y+1056748D02*
X+3395980Y+1074528D01*
X+3395980Y+1115168D02*
X+3395980Y+1132948D01*
X+3395980Y+1165968D02*
X+3395980Y+1186288D01*
X+3395980Y+1191368D02*
X+3395980Y+1219308D01*
X+3395980Y+1282808D02*
X+3395980Y+1300588D01*
X+3395980Y+1313288D02*
X+3395980Y+1331068D01*
X+3395980Y+1359008D02*
X+3395980Y+1422508D01*
X+3395980Y+1437748D02*
X+3395980Y+1455528D01*
X+3395980Y+1493628D02*
X+3395980Y+1511408D01*
X+3398520Y+1056748D02*
X+3398520Y+1074528D01*
X+3398520Y+1115168D02*
X+3398520Y+1132948D01*
X+3398520Y+1168508D02*
X+3398520Y+1219308D01*
X+3398520Y+1280268D02*
X+3398520Y+1298048D01*
X+3398520Y+1315828D02*
X+3398520Y+1333608D01*
X+3398520Y+1359008D02*
X+3398520Y+1422508D01*
X+3398520Y+1437748D02*
X+3398520Y+1455528D01*
X+3398520Y+1493628D02*
X+3398520Y+1511408D01*
X+3401060Y+1056748D02*
X+3401060Y+1074528D01*
X+3401060Y+1115168D02*
X+3401060Y+1132948D01*
X+3401060Y+1168508D02*
X+3401060Y+1219308D01*
X+3401060Y+1280268D02*
X+3401060Y+1298048D01*
X+3401060Y+1315828D02*
X+3401060Y+1333608D01*
X+3401060Y+1359008D02*
X+3401060Y+1422508D01*
X+3401060Y+1437748D02*
X+3401060Y+1455528D01*
X+3401060Y+1493628D02*
X+3401060Y+1511408D01*
X+3403600Y+1056748D02*
X+3403600Y+1074528D01*
X+3403600Y+1115168D02*
X+3403600Y+1132948D01*
X+3403600Y+1171048D02*
X+3403600Y+1219308D01*
X+3403600Y+1280268D02*
X+3403600Y+1298048D01*
X+3403600Y+1315828D02*
X+3403600Y+1333608D01*
X+3403600Y+1359008D02*
X+3403600Y+1422508D01*
X+3403600Y+1437748D02*
X+3403600Y+1455528D01*
X+3403600Y+1493628D02*
X+3403600Y+1511408D01*
X+3406140Y+1056748D02*
X+3406140Y+1074528D01*
X+3406140Y+1115168D02*
X+3406140Y+1132948D01*
X+3406140Y+1171048D02*
X+3406140Y+1219308D01*
X+3406140Y+1277728D02*
X+3406140Y+1295508D01*
X+3406140Y+1318368D02*
X+3406140Y+1336148D01*
X+3406140Y+1359008D02*
X+3406140Y+1422508D01*
X+3406140Y+1437748D02*
X+3406140Y+1455528D01*
X+3406140Y+1493628D02*
X+3406140Y+1511408D01*
X+3408680Y+1056748D02*
X+3408680Y+1074528D01*
X+3408680Y+1115168D02*
X+3408680Y+1132948D01*
X+3408680Y+1173588D02*
X+3408680Y+1219308D01*
X+3408680Y+1277728D02*
X+3408680Y+1295508D01*
X+3408680Y+1318368D02*
X+3408680Y+1336148D01*
X+3408680Y+1359008D02*
X+3408680Y+1422508D01*
X+3408680Y+1437748D02*
X+3408680Y+1455528D01*
X+3408680Y+1493628D02*
X+3408680Y+1511408D01*
X+3411220Y+1056748D02*
X+3411220Y+1074528D01*
X+3411220Y+1115168D02*
X+3411220Y+1132948D01*
X+3411220Y+1176128D02*
X+3411220Y+1198988D01*
X+3411220Y+1201528D02*
X+3411220Y+1219308D01*
X+3411220Y+1277728D02*
X+3411220Y+1295508D01*
X+3411220Y+1318368D02*
X+3411220Y+1336148D01*
X+3411220Y+1404728D02*
X+3411220Y+1422508D01*
X+3411220Y+1437748D02*
X+3411220Y+1455528D01*
X+3411220Y+1493628D02*
X+3411220Y+1511408D01*
X+3413760Y+1056748D02*
X+3413760Y+1074528D01*
X+3413760Y+1115168D02*
X+3413760Y+1132948D01*
X+3413760Y+1173588D02*
X+3413760Y+1196448D01*
X+3413760Y+1201528D02*
X+3413760Y+1219308D01*
X+3413760Y+1275188D02*
X+3413760Y+1292968D01*
X+3413760Y+1320908D02*
X+3413760Y+1338688D01*
X+3413760Y+1404728D02*
X+3413760Y+1422508D01*
X+3413760Y+1437748D02*
X+3413760Y+1455528D01*
X+3413760Y+1493628D02*
X+3413760Y+1511408D01*
X+3416300Y+1056748D02*
X+3416300Y+1074528D01*
X+3416300Y+1115168D02*
X+3416300Y+1132948D01*
X+3416300Y+1171048D02*
X+3416300Y+1193908D01*
X+3416300Y+1201528D02*
X+3416300Y+1219308D01*
X+3416300Y+1275188D02*
X+3416300Y+1292968D01*
X+3416300Y+1320908D02*
X+3416300Y+1338688D01*
X+3416300Y+1404728D02*
X+3416300Y+1422508D01*
X+3416300Y+1440288D02*
X+3416300Y+1458068D01*
X+3416300Y+1493628D02*
X+3416300Y+1511408D01*
X+3418840Y+1056748D02*
X+3418840Y+1074528D01*
X+3418840Y+1115168D02*
X+3418840Y+1132948D01*
X+3418840Y+1168508D02*
X+3418840Y+1191368D01*
X+3418840Y+1201528D02*
X+3418840Y+1219308D01*
X+3418840Y+1275188D02*
X+3418840Y+1292968D01*
X+3418840Y+1320908D02*
X+3418840Y+1338688D01*
X+3418840Y+1404728D02*
X+3418840Y+1422508D01*
X+3418840Y+1440288D02*
X+3418840Y+1458068D01*
X+3418840Y+1493628D02*
X+3418840Y+1511408D01*
X+3421380Y+1056748D02*
X+3421380Y+1074528D01*
X+3421380Y+1115168D02*
X+3421380Y+1132948D01*
X+3421380Y+1165968D02*
X+3421380Y+1188828D01*
X+3421380Y+1201528D02*
X+3421380Y+1219308D01*
X+3421380Y+1272648D02*
X+3421380Y+1290428D01*
X+3421380Y+1323448D02*
X+3421380Y+1341228D01*
X+3421380Y+1404728D02*
X+3421380Y+1422508D01*
X+3421380Y+1440288D02*
X+3421380Y+1460608D01*
X+3421380Y+1493628D02*
X+3421380Y+1511408D01*
X+3423920Y+1056748D02*
X+3423920Y+1074528D01*
X+3423920Y+1115168D02*
X+3423920Y+1132948D01*
X+3423920Y+1163428D02*
X+3423920Y+1188828D01*
X+3423920Y+1201528D02*
X+3423920Y+1219308D01*
X+3423920Y+1272648D02*
X+3423920Y+1290428D01*
X+3423920Y+1323448D02*
X+3423920Y+1341228D01*
X+3423920Y+1404728D02*
X+3423920Y+1422508D01*
X+3423920Y+1442828D02*
X+3423920Y+1460608D01*
X+3423920Y+1493628D02*
X+3423920Y+1511408D01*
X+3426460Y+1056748D02*
X+3426460Y+1074528D01*
X+3426460Y+1115168D02*
X+3426460Y+1132948D01*
X+3426460Y+1160888D02*
X+3426460Y+1186288D01*
X+3426460Y+1201528D02*
X+3426460Y+1219308D01*
X+3426460Y+1272648D02*
X+3426460Y+1290428D01*
X+3426460Y+1323448D02*
X+3426460Y+1341228D01*
X+3426460Y+1404728D02*
X+3426460Y+1422508D01*
X+3426460Y+1442828D02*
X+3426460Y+1463148D01*
X+3426460Y+1493628D02*
X+3426460Y+1511408D01*
X+3429000Y+1056748D02*
X+3429000Y+1074528D01*
X+3429000Y+1115168D02*
X+3429000Y+1132948D01*
X+3429000Y+1158348D02*
X+3429000Y+1183748D01*
X+3429000Y+1201528D02*
X+3429000Y+1219308D01*
X+3429000Y+1270108D02*
X+3429000Y+1290428D01*
X+3429000Y+1325988D02*
X+3429000Y+1343768D01*
X+3429000Y+1404728D02*
X+3429000Y+1422508D01*
X+3429000Y+1445368D02*
X+3429000Y+1468228D01*
X+3429000Y+1493628D02*
X+3429000Y+1511408D01*
X+3431540Y+1031348D02*
X+3431540Y+1099928D01*
X+3431540Y+1115168D02*
X+3431540Y+1132948D01*
X+3431540Y+1158348D02*
X+3431540Y+1181208D01*
X+3431540Y+1201528D02*
X+3431540Y+1219308D01*
X+3431540Y+1270108D02*
X+3431540Y+1287888D01*
X+3431540Y+1325988D02*
X+3431540Y+1343768D01*
X+3431540Y+1356468D02*
X+3431540Y+1422508D01*
X+3431540Y+1445368D02*
X+3431540Y+1511408D01*
X+3434080Y+1031348D02*
X+3434080Y+1099928D01*
X+3434080Y+1115168D02*
X+3434080Y+1132948D01*
X+3434080Y+1155808D02*
X+3434080Y+1178668D01*
X+3434080Y+1201528D02*
X+3434080Y+1219308D01*
X+3434080Y+1270108D02*
X+3434080Y+1287888D01*
X+3434080Y+1325988D02*
X+3434080Y+1343768D01*
X+3434080Y+1356468D02*
X+3434080Y+1422508D01*
X+3434080Y+1447908D02*
X+3434080Y+1511408D01*
X+3436620Y+1031348D02*
X+3436620Y+1099928D01*
X+3436620Y+1115168D02*
X+3436620Y+1132948D01*
X+3436620Y+1153268D02*
X+3436620Y+1176128D01*
X+3436620Y+1201528D02*
X+3436620Y+1219308D01*
X+3436620Y+1267568D02*
X+3436620Y+1287888D01*
X+3436620Y+1325988D02*
X+3436620Y+1346308D01*
X+3436620Y+1356468D02*
X+3436620Y+1422508D01*
X+3436620Y+1450448D02*
X+3436620Y+1511408D01*
X+3439160Y+1031348D02*
X+3439160Y+1099928D01*
X+3439160Y+1115168D02*
X+3439160Y+1132948D01*
X+3439160Y+1150728D02*
X+3439160Y+1173588D01*
X+3439160Y+1201528D02*
X+3439160Y+1219308D01*
X+3439160Y+1267568D02*
X+3439160Y+1285348D01*
X+3439160Y+1328528D02*
X+3439160Y+1346308D01*
X+3439160Y+1356468D02*
X+3439160Y+1422508D01*
X+3439160Y+1452988D02*
X+3439160Y+1511408D01*
X+3441700Y+1031348D02*
X+3441700Y+1099928D01*
X+3441700Y+1115168D02*
X+3441700Y+1132948D01*
X+3441700Y+1148188D02*
X+3441700Y+1171048D01*
X+3441700Y+1201528D02*
X+3441700Y+1219308D01*
X+3441700Y+1267568D02*
X+3441700Y+1285348D01*
X+3441700Y+1328528D02*
X+3441700Y+1346308D01*
X+3441700Y+1356468D02*
X+3441700Y+1422508D01*
X+3441700Y+1458068D02*
X+3441700Y+1511408D01*
X+3444240Y+1031348D02*
X+3444240Y+1099928D01*
X+3444240Y+1115168D02*
X+3444240Y+1132948D01*
X+3444240Y+1145648D02*
X+3444240Y+1168508D01*
X+3444240Y+1201528D02*
X+3444240Y+1219308D01*
X+3444240Y+1265028D02*
X+3444240Y+1285348D01*
X+3444240Y+1328528D02*
X+3444240Y+1348848D01*
X+3444240Y+1356468D02*
X+3444240Y+1422508D01*
X+3444240Y+1463148D02*
X+3444240Y+1511408D01*
D46*
X+31750Y+825505D02*
X+444500Y+825505D01*
X+444500Y+1555755D01*
X+31750Y+1555755D01*
X+31750Y+825505D01*
X+440404Y+950251D02*
X+532804Y+950251D01*
X+532804Y+1426501D01*
X+440404Y+1426501D01*
X+440404Y+950251D01*
D48*
X+2207350Y+2349500D02*
X+2048600Y+2349500D01*
X+2048600Y+2190750D01*
X+2207350Y+2349500D01*
X+2048600Y+2349500D02*
X+2048600Y+2190750D01*
X+2207350Y+2349500D01*
X+2048600Y+2349500D01*
X+3166100Y+2349500D02*
X+3331200Y+2349500D01*
X+3331200Y+2190750D01*
X+3166100Y+1079500D02*
X+3331200Y+1079500D01*
X+3331200Y+1238250D02*
X+3331200Y+1079500D01*
X+2048500Y+1073150D02*
X+2213600Y+1073150D01*
X+2048500Y+1231900D02*
X+2048500Y+1073150D01*
D49*
X+578868Y+465769D02*
X+583948Y+465769D01*
X+578868Y+468309D02*
X+589028Y+468309D01*
X+634748Y+468309D02*
X+652528Y+468309D01*
X+578868Y+470849D02*
X+591568Y+470849D01*
X+629668Y+470849D02*
X+657608Y+470849D01*
X+578868Y+473389D02*
X+596648Y+473389D01*
X+627128Y+473389D02*
X+660148Y+473389D01*
X+581408Y+475929D02*
X+601728Y+475929D01*
X+624588Y+475929D02*
X+662688Y+475929D01*
X+586488Y+478469D02*
X+604268Y+478469D01*
X+624588Y+478469D02*
X+637288Y+478469D01*
X+649988Y+478469D02*
X+665228Y+478469D01*
X+589028Y+481009D02*
X+606808Y+481009D01*
X+622048Y+481009D02*
X+634748Y+481009D01*
X+652528Y+481009D02*
X+665228Y+481009D01*
X+594108Y+483549D02*
X+611888Y+483549D01*
X+622048Y+483549D02*
X+632208Y+483549D01*
X+655068Y+483549D02*
X+665228Y+483549D01*
X+596648Y+486089D02*
X+614428Y+486089D01*
X+619508Y+486089D02*
X+632208Y+486089D01*
X+655068Y+486089D02*
X+667768Y+486089D01*
X+601728Y+488629D02*
X+616968Y+488629D01*
X+619508Y+488629D02*
X+629668Y+488629D01*
X+657608Y+488629D02*
X+667768Y+488629D01*
X+604268Y+491169D02*
X+629668Y+491169D01*
X+657608Y+491169D02*
X+667768Y+491169D01*
X+609348Y+493709D02*
X+629668Y+493709D01*
X+657608Y+493709D02*
X+667768Y+493709D01*
X+611888Y+496249D02*
X+629668Y+496249D01*
X+657608Y+496249D02*
X+667768Y+496249D01*
X+614428Y+498789D02*
X+629668Y+498789D01*
X+657608Y+498789D02*
X+667768Y+498789D01*
X+616968Y+501329D02*
X+629668Y+501329D01*
X+657608Y+501329D02*
X+667768Y+501329D01*
X+619508Y+503869D02*
X+629668Y+503869D01*
X+657608Y+503869D02*
X+667768Y+503869D01*
X+619508Y+506409D02*
X+629668Y+506409D01*
X+657608Y+506409D02*
X+667768Y+506409D01*
X+619508Y+508949D02*
X+629668Y+508949D01*
X+657608Y+508949D02*
X+667768Y+508949D01*
X+619508Y+511489D02*
X+629668Y+511489D01*
X+657608Y+511489D02*
X+667768Y+511489D01*
X+619508Y+514029D02*
X+629668Y+514029D01*
X+657608Y+514029D02*
X+667768Y+514029D01*
X+619508Y+516569D02*
X+629668Y+516569D01*
X+657608Y+516569D02*
X+667768Y+516569D01*
X+619508Y+519109D02*
X+629668Y+519109D01*
X+657608Y+519109D02*
X+667768Y+519109D01*
X+619508Y+521649D02*
X+629668Y+521649D01*
X+657608Y+521649D02*
X+667768Y+521649D01*
X+619508Y+524189D02*
X+629668Y+524189D01*
X+657608Y+524189D02*
X+667768Y+524189D01*
X+578868Y+526729D02*
X+667768Y+526729D01*
X+578868Y+529269D02*
X+667768Y+529269D01*
X+578868Y+531809D02*
X+667768Y+531809D01*
X+578868Y+534349D02*
X+667768Y+534349D01*
X+589028Y+268248D02*
X+624588Y+268248D01*
X+642368Y+268248D02*
X+644908Y+268248D01*
X+586488Y+270788D02*
X+624588Y+270788D01*
X+642368Y+270788D02*
X+652528Y+270788D01*
X+586488Y+273328D02*
X+624588Y+273328D01*
X+642368Y+273328D02*
X+655068Y+273328D01*
X+583948Y+275868D02*
X+624588Y+275868D01*
X+642368Y+275868D02*
X+660148Y+275868D01*
X+583948Y+278408D02*
X+596648Y+278408D01*
X+614428Y+278408D02*
X+624588Y+278408D01*
X+642368Y+278408D02*
X+662688Y+278408D01*
X+581408Y+280948D02*
X+594108Y+280948D01*
X+614428Y+280948D02*
X+624588Y+280948D01*
X+649988Y+280948D02*
X+665228Y+280948D01*
X+581408Y+283488D02*
X+591568Y+283488D01*
X+614428Y+283488D02*
X+624588Y+283488D01*
X+652528Y+283488D02*
X+665228Y+283488D01*
X+578868Y+286028D02*
X+591568Y+286028D01*
X+614428Y+286028D02*
X+624588Y+286028D01*
X+655068Y+286028D02*
X+667768Y+286028D01*
X+578868Y+288568D02*
X+589028Y+288568D01*
X+614428Y+288568D02*
X+624588Y+288568D01*
X+655068Y+288568D02*
X+667768Y+288568D01*
X+578868Y+291108D02*
X+589028Y+291108D01*
X+614428Y+291108D02*
X+624588Y+291108D01*
X+657608Y+291108D02*
X+667768Y+291108D01*
X+576328Y+293648D02*
X+589028Y+293648D01*
X+614428Y+293648D02*
X+624588Y+293648D01*
X+657608Y+293648D02*
X+670308Y+293648D01*
X+576328Y+296188D02*
X+586488Y+296188D01*
X+614428Y+296188D02*
X+624588Y+296188D01*
X+660148Y+296188D02*
X+670308Y+296188D01*
X+576328Y+298728D02*
X+586488Y+298728D01*
X+614428Y+298728D02*
X+624588Y+298728D01*
X+660148Y+298728D02*
X+670308Y+298728D01*
X+576328Y+301268D02*
X+586488Y+301268D01*
X+614428Y+301268D02*
X+624588Y+301268D01*
X+660148Y+301268D02*
X+670308Y+301268D01*
X+576328Y+303808D02*
X+586488Y+303808D01*
X+614428Y+303808D02*
X+624588Y+303808D01*
X+660148Y+303808D02*
X+670308Y+303808D01*
X+576328Y+306348D02*
X+586488Y+306348D01*
X+660148Y+306348D02*
X+670308Y+306348D01*
X+576328Y+308888D02*
X+586488Y+308888D01*
X+660148Y+308888D02*
X+670308Y+308888D01*
X+576328Y+311428D02*
X+586488Y+311428D01*
X+660148Y+311428D02*
X+670308Y+311428D01*
X+576328Y+313968D02*
X+586488Y+313968D01*
X+660148Y+313968D02*
X+670308Y+313968D01*
X+578868Y+316508D02*
X+589028Y+316508D01*
X+657608Y+316508D02*
X+667768Y+316508D01*
X+578868Y+319048D02*
X+589028Y+319048D01*
X+657608Y+319048D02*
X+667768Y+319048D01*
X+578868Y+321588D02*
X+591568Y+321588D01*
X+655068Y+321588D02*
X+667768Y+321588D01*
X+581408Y+324128D02*
X+591568Y+324128D01*
X+655068Y+324128D02*
X+665228Y+324128D01*
X+581408Y+326668D02*
X+594108Y+326668D01*
X+652528Y+326668D02*
X+665228Y+326668D01*
X+583948Y+329208D02*
X+596648Y+329208D01*
X+649988Y+329208D02*
X+662688Y+329208D01*
X+583948Y+331748D02*
X+599188Y+331748D01*
X+647448Y+331748D02*
X+662688Y+331748D01*
X+586488Y+334288D02*
X+604268Y+334288D01*
X+642368Y+334288D02*
X+660148Y+334288D01*
X+589028Y+336828D02*
X+611888Y+336828D01*
X+634748Y+336828D02*
X+657608Y+336828D01*
X+594108Y+339368D02*
X+655068Y+339368D01*
X+596648Y+341908D02*
X+649988Y+341908D01*
X+601728Y+344448D02*
X+644908Y+344448D01*
X+609348Y+346988D02*
X+634748Y+346988D01*
X+598548Y+87271D02*
X+613788Y+87271D01*
X+593468Y+89811D02*
X+618868Y+89811D01*
X+639188Y+89811D02*
X+654428Y+89811D01*
X+588388Y+92351D02*
X+621408Y+92351D01*
X+634108Y+92351D02*
X+659508Y+92351D01*
X+585848Y+94891D02*
X+623948Y+94891D01*
X+629028Y+94891D02*
X+662048Y+94891D01*
X+585848Y+97431D02*
X+601088Y+97431D01*
X+613788Y+97431D02*
X+626488Y+97431D01*
X+629028Y+97431D02*
X+664588Y+97431D01*
X+583308Y+99971D02*
X+596008Y+99971D01*
X+616328Y+99971D02*
X+639188Y+99971D01*
X+651888Y+99971D02*
X+667128Y+99971D01*
X+583308Y+102511D02*
X+593468Y+102511D01*
X+618868Y+102511D02*
X+636648Y+102511D01*
X+654428Y+102511D02*
X+667128Y+102511D01*
X+583308Y+105051D02*
X+593468Y+105051D01*
X+618868Y+105051D02*
X+634108Y+105051D01*
X+656968Y+105051D02*
X+667128Y+105051D01*
X+580768Y+107591D02*
X+590928Y+107591D01*
X+621408Y+107591D02*
X+634108Y+107591D01*
X+656968Y+107591D02*
X+669668Y+107591D01*
X+580768Y+110131D02*
X+590928Y+110131D01*
X+621408Y+110131D02*
X+631568Y+110131D01*
X+659508Y+110131D02*
X+669668Y+110131D01*
X+580768Y+112671D02*
X+590928Y+112671D01*
X+621408Y+112671D02*
X+631568Y+112671D01*
X+659508Y+112671D02*
X+669668Y+112671D01*
X+580768Y+115211D02*
X+590928Y+115211D01*
X+621408Y+115211D02*
X+631568Y+115211D01*
X+659508Y+115211D02*
X+669668Y+115211D01*
X+580768Y+117751D02*
X+590928Y+117751D01*
X+621408Y+117751D02*
X+631568Y+117751D01*
X+659508Y+117751D02*
X+669668Y+117751D01*
X+580768Y+120291D02*
X+590928Y+120291D01*
X+621408Y+120291D02*
X+631568Y+120291D01*
X+659508Y+120291D02*
X+669668Y+120291D01*
X+580768Y+122831D02*
X+590928Y+122831D01*
X+621408Y+122831D02*
X+631568Y+122831D01*
X+659508Y+122831D02*
X+669668Y+122831D01*
X+580768Y+125371D02*
X+590928Y+125371D01*
X+621408Y+125371D02*
X+631568Y+125371D01*
X+659508Y+125371D02*
X+669668Y+125371D01*
X+580768Y+127911D02*
X+590928Y+127911D01*
X+621408Y+127911D02*
X+631568Y+127911D01*
X+659508Y+127911D02*
X+669668Y+127911D01*
X+580768Y+130451D02*
X+590928Y+130451D01*
X+621408Y+130451D02*
X+631568Y+130451D01*
X+659508Y+130451D02*
X+669668Y+130451D01*
X+580768Y+132991D02*
X+590928Y+132991D01*
X+621408Y+132991D02*
X+631568Y+132991D01*
X+659508Y+132991D02*
X+669668Y+132991D01*
X+580768Y+135531D02*
X+590928Y+135531D01*
X+621408Y+135531D02*
X+631568Y+135531D01*
X+659508Y+135531D02*
X+669668Y+135531D01*
X+580768Y+138071D02*
X+590928Y+138071D01*
X+621408Y+138071D02*
X+631568Y+138071D01*
X+659508Y+138071D02*
X+669668Y+138071D01*
X+580768Y+140611D02*
X+590928Y+140611D01*
X+621408Y+140611D02*
X+631568Y+140611D01*
X+659508Y+140611D02*
X+669668Y+140611D01*
X+580768Y+143151D02*
X+669668Y+143151D01*
X+580768Y+145691D02*
X+669668Y+145691D01*
X+580768Y+148231D02*
X+669668Y+148231D01*
X+580768Y+150771D02*
X+669668Y+150771D01*
X+2639360Y+680470D02*
X+2659680Y+680470D01*
X+2631740Y+683010D02*
X+2664760Y+683010D01*
X+2697780Y+683010D02*
X+2768900Y+683010D01*
X+2796840Y+683010D02*
X+2847640Y+683010D01*
X+2629200Y+685550D02*
X+2669840Y+685550D01*
X+2697780Y+685550D02*
X+2768900Y+685550D01*
X+2789220Y+685550D02*
X+2847640Y+685550D01*
X+2626660Y+688090D02*
X+2672380Y+688090D01*
X+2697780Y+688090D02*
X+2768900Y+688090D01*
X+2786680Y+688090D02*
X+2847640Y+688090D01*
X+2624120Y+690630D02*
X+2641900Y+690630D01*
X+2657140Y+690630D02*
X+2674920Y+690630D01*
X+2697780Y+690630D02*
X+2768900Y+690630D01*
X+2784140Y+690630D02*
X+2847640Y+690630D01*
X+2621580Y+693170D02*
X+2636820Y+693170D01*
X+2664760Y+693170D02*
X+2677460Y+693170D01*
X+2728260Y+693170D02*
X+2738420Y+693170D01*
X+2781600Y+693170D02*
X+2799380Y+693170D01*
X+2837480Y+693170D02*
X+2847640Y+693170D01*
X+2621580Y+695710D02*
X+2634280Y+695710D01*
X+2667300Y+695710D02*
X+2680000Y+695710D01*
X+2728260Y+695710D02*
X+2738420Y+695710D01*
X+2781600Y+695710D02*
X+2794300Y+695710D01*
X+2837480Y+695710D02*
X+2847640Y+695710D01*
X+2619040Y+698250D02*
X+2631740Y+698250D01*
X+2669840Y+698250D02*
X+2682540Y+698250D01*
X+2728260Y+698250D02*
X+2738420Y+698250D01*
X+2779060Y+698250D02*
X+2791760Y+698250D01*
X+2837480Y+698250D02*
X+2847640Y+698250D01*
X+2619040Y+700790D02*
X+2629200Y+700790D01*
X+2672380Y+700790D02*
X+2682540Y+700790D01*
X+2728260Y+700790D02*
X+2738420Y+700790D01*
X+2779060Y+700790D02*
X+2789220Y+700790D01*
X+2837480Y+700790D02*
X+2847640Y+700790D01*
X+2616500Y+703330D02*
X+2629200Y+703330D01*
X+2672380Y+703330D02*
X+2685080Y+703330D01*
X+2728260Y+703330D02*
X+2738420Y+703330D01*
X+2779060Y+703330D02*
X+2789220Y+703330D01*
X+2837480Y+703330D02*
X+2847640Y+703330D01*
X+2616500Y+705870D02*
X+2626660Y+705870D01*
X+2674920Y+705870D02*
X+2685080Y+705870D01*
X+2728260Y+705870D02*
X+2738420Y+705870D01*
X+2779060Y+705870D02*
X+2789220Y+705870D01*
X+2837480Y+705870D02*
X+2847640Y+705870D01*
X+2674920Y+708410D02*
X+2685080Y+708410D01*
X+2728260Y+708410D02*
X+2738420Y+708410D01*
X+2779060Y+708410D02*
X+2789220Y+708410D01*
X+2837480Y+708410D02*
X+2847640Y+708410D01*
X+2674920Y+710950D02*
X+2685080Y+710950D01*
X+2728260Y+710950D02*
X+2738420Y+710950D01*
X+2779060Y+710950D02*
X+2789220Y+710950D01*
X+2837480Y+710950D02*
X+2847640Y+710950D01*
X+2677460Y+713490D02*
X+2687620Y+713490D01*
X+2728260Y+713490D02*
X+2738420Y+713490D01*
X+2779060Y+713490D02*
X+2791760Y+713490D01*
X+2837480Y+713490D02*
X+2847640Y+713490D01*
X+2677460Y+716030D02*
X+2687620Y+716030D01*
X+2728260Y+716030D02*
X+2738420Y+716030D01*
X+2781600Y+716030D02*
X+2794300Y+716030D01*
X+2837480Y+716030D02*
X+2847640Y+716030D01*
X+2677460Y+718570D02*
X+2687620Y+718570D01*
X+2728260Y+718570D02*
X+2738420Y+718570D01*
X+2781600Y+718570D02*
X+2801920Y+718570D01*
X+2837480Y+718570D02*
X+2847640Y+718570D01*
X+2677460Y+721110D02*
X+2687620Y+721110D01*
X+2728260Y+721110D02*
X+2738420Y+721110D01*
X+2784140Y+721110D02*
X+2847640Y+721110D01*
X+2677460Y+723650D02*
X+2687620Y+723650D01*
X+2728260Y+723650D02*
X+2738420Y+723650D01*
X+2786680Y+723650D02*
X+2847640Y+723650D01*
X+2677460Y+726190D02*
X+2687620Y+726190D01*
X+2728260Y+726190D02*
X+2738420Y+726190D01*
X+2791760Y+726190D02*
X+2847640Y+726190D01*
X+2677460Y+728730D02*
X+2687620Y+728730D01*
X+2728260Y+728730D02*
X+2738420Y+728730D01*
X+2796840Y+728730D02*
X+2847640Y+728730D01*
X+2677460Y+731270D02*
X+2687620Y+731270D01*
X+2728260Y+731270D02*
X+2738420Y+731270D01*
X+2801920Y+731270D02*
X+2814620Y+731270D01*
X+2837480Y+731270D02*
X+2847640Y+731270D01*
X+2677460Y+733810D02*
X+2687620Y+733810D01*
X+2728260Y+733810D02*
X+2738420Y+733810D01*
X+2799380Y+733810D02*
X+2812080Y+733810D01*
X+2837480Y+733810D02*
X+2847640Y+733810D01*
X+2677460Y+736350D02*
X+2687620Y+736350D01*
X+2728260Y+736350D02*
X+2738420Y+736350D01*
X+2796840Y+736350D02*
X+2809540Y+736350D01*
X+2837480Y+736350D02*
X+2847640Y+736350D01*
X+2677460Y+738890D02*
X+2687620Y+738890D01*
X+2728260Y+738890D02*
X+2738420Y+738890D01*
X+2794300Y+738890D02*
X+2807000Y+738890D01*
X+2837480Y+738890D02*
X+2847640Y+738890D01*
X+2619040Y+741430D02*
X+2624120Y+741430D01*
X+2674920Y+741430D02*
X+2685080Y+741430D01*
X+2728260Y+741430D02*
X+2738420Y+741430D01*
X+2794300Y+741430D02*
X+2804460Y+741430D01*
X+2837480Y+741430D02*
X+2847640Y+741430D01*
X+2613960Y+743970D02*
X+2624120Y+743970D01*
X+2674920Y+743970D02*
X+2685080Y+743970D01*
X+2728260Y+743970D02*
X+2738420Y+743970D01*
X+2791760Y+743970D02*
X+2804460Y+743970D01*
X+2837480Y+743970D02*
X+2847640Y+743970D01*
X+2613960Y+746510D02*
X+2626660Y+746510D01*
X+2674920Y+746510D02*
X+2685080Y+746510D01*
X+2728260Y+746510D02*
X+2738420Y+746510D01*
X+2789220Y+746510D02*
X+2801920Y+746510D01*
X+2837480Y+746510D02*
X+2847640Y+746510D01*
X+2616500Y+749050D02*
X+2626660Y+749050D01*
X+2672380Y+749050D02*
X+2682540Y+749050D01*
X+2728260Y+749050D02*
X+2738420Y+749050D01*
X+2786680Y+749050D02*
X+2799380Y+749050D01*
X+2837480Y+749050D02*
X+2847640Y+749050D01*
X+2616500Y+751590D02*
X+2629200Y+751590D01*
X+2672380Y+751590D02*
X+2682540Y+751590D01*
X+2728260Y+751590D02*
X+2738420Y+751590D01*
X+2786680Y+751590D02*
X+2799380Y+751590D01*
X+2837480Y+751590D02*
X+2847640Y+751590D01*
X+2619040Y+754130D02*
X+2629200Y+754130D01*
X+2669840Y+754130D02*
X+2682540Y+754130D01*
X+2728260Y+754130D02*
X+2738420Y+754130D01*
X+2784140Y+754130D02*
X+2796840Y+754130D01*
X+2837480Y+754130D02*
X+2847640Y+754130D01*
X+2619040Y+756670D02*
X+2631740Y+756670D01*
X+2667300Y+756670D02*
X+2680000Y+756670D01*
X+2728260Y+756670D02*
X+2738420Y+756670D01*
X+2784140Y+756670D02*
X+2794300Y+756670D01*
X+2837480Y+756670D02*
X+2847640Y+756670D01*
X+2621580Y+759210D02*
X+2636820Y+759210D01*
X+2662220Y+759210D02*
X+2677460Y+759210D01*
X+2728260Y+759210D02*
X+2738420Y+759210D01*
X+2781600Y+759210D02*
X+2794300Y+759210D01*
X+2837480Y+759210D02*
X+2847640Y+759210D01*
X+2621580Y+761750D02*
X+2641900Y+761750D01*
X+2657140Y+761750D02*
X+2677460Y+761750D01*
X+2728260Y+761750D02*
X+2738420Y+761750D01*
X+2779060Y+761750D02*
X+2791760Y+761750D01*
X+2837480Y+761750D02*
X+2847640Y+761750D01*
X+2624120Y+764290D02*
X+2674920Y+764290D01*
X+2728260Y+764290D02*
X+2738420Y+764290D01*
X+2779060Y+764290D02*
X+2789220Y+764290D01*
X+2837480Y+764290D02*
X+2847640Y+764290D01*
X+2629200Y+766830D02*
X+2669840Y+766830D01*
X+2728260Y+766830D02*
X+2738420Y+766830D01*
X+2776520Y+766830D02*
X+2789220Y+766830D01*
X+2837480Y+766830D02*
X+2847640Y+766830D01*
X+2631740Y+769370D02*
X+2667300Y+769370D01*
X+2728260Y+769370D02*
X+2738420Y+769370D01*
X+2776520Y+769370D02*
X+2786680Y+769370D01*
X+2837480Y+769370D02*
X+2847640Y+769370D01*
X+2639360Y+771910D02*
X+2659680Y+771910D01*
X+336770Y+1697981D02*
X+359630Y+1697981D01*
X+148810Y+1700521D02*
X+219930Y+1700521D01*
X+232630Y+1700521D02*
X+296130Y+1700521D01*
X+329150Y+1700521D02*
X+367250Y+1700521D01*
X+400270Y+1700521D02*
X+463770Y+1700521D01*
X+501870Y+1700521D02*
X+552670Y+1700521D01*
X+148810Y+1703061D02*
X+219930Y+1703061D01*
X+232630Y+1703061D02*
X+296130Y+1703061D01*
X+326610Y+1703061D02*
X+369790Y+1703061D01*
X+400270Y+1703061D02*
X+463770Y+1703061D01*
X+494250Y+1703061D02*
X+552670Y+1703061D01*
X+148810Y+1705601D02*
X+219930Y+1705601D01*
X+232630Y+1705601D02*
X+296130Y+1705601D01*
X+324070Y+1705601D02*
X+374870Y+1705601D01*
X+400270Y+1705601D02*
X+463770Y+1705601D01*
X+491710Y+1705601D02*
X+552670Y+1705601D01*
X+148810Y+1708141D02*
X+219930Y+1708141D01*
X+232630Y+1708141D02*
X+296130Y+1708141D01*
X+321530Y+1708141D02*
X+339310Y+1708141D01*
X+359630Y+1708141D02*
X+374870Y+1708141D01*
X+400270Y+1708141D02*
X+463770Y+1708141D01*
X+489170Y+1708141D02*
X+552670Y+1708141D01*
X+179290Y+1710681D02*
X+189450Y+1710681D01*
X+285970Y+1710681D02*
X+296130Y+1710681D01*
X+318990Y+1710681D02*
X+334230Y+1710681D01*
X+364710Y+1710681D02*
X+377410Y+1710681D01*
X+453610Y+1710681D02*
X+463770Y+1710681D01*
X+486630Y+1710681D02*
X+504410Y+1710681D01*
X+542510Y+1710681D02*
X+552670Y+1710681D01*
X+179290Y+1713221D02*
X+189450Y+1713221D01*
X+285970Y+1713221D02*
X+296130Y+1713221D01*
X+318990Y+1713221D02*
X+329150Y+1713221D01*
X+367250Y+1713221D02*
X+377410Y+1713221D01*
X+453610Y+1713221D02*
X+463770Y+1713221D01*
X+486630Y+1713221D02*
X+499330Y+1713221D01*
X+542510Y+1713221D02*
X+552670Y+1713221D01*
X+179290Y+1715761D02*
X+189450Y+1715761D01*
X+285970Y+1715761D02*
X+296130Y+1715761D01*
X+316450Y+1715761D02*
X+329150Y+1715761D01*
X+369790Y+1715761D02*
X+379950Y+1715761D01*
X+453610Y+1715761D02*
X+463770Y+1715761D01*
X+484090Y+1715761D02*
X+496790Y+1715761D01*
X+542510Y+1715761D02*
X+552670Y+1715761D01*
X+179290Y+1718301D02*
X+189450Y+1718301D01*
X+285970Y+1718301D02*
X+296130Y+1718301D01*
X+316450Y+1718301D02*
X+326610Y+1718301D01*
X+369790Y+1718301D02*
X+379950Y+1718301D01*
X+453610Y+1718301D02*
X+463770Y+1718301D01*
X+484090Y+1718301D02*
X+494250Y+1718301D01*
X+542510Y+1718301D02*
X+552670Y+1718301D01*
X+179290Y+1720841D02*
X+189450Y+1720841D01*
X+285970Y+1720841D02*
X+296130Y+1720841D01*
X+316450Y+1720841D02*
X+326610Y+1720841D01*
X+369790Y+1720841D02*
X+379950Y+1720841D01*
X+453610Y+1720841D02*
X+463770Y+1720841D01*
X+484090Y+1720841D02*
X+494250Y+1720841D01*
X+542510Y+1720841D02*
X+552670Y+1720841D01*
X+179290Y+1723381D02*
X+189450Y+1723381D01*
X+285970Y+1723381D02*
X+296130Y+1723381D01*
X+369790Y+1723381D02*
X+379950Y+1723381D01*
X+453610Y+1723381D02*
X+463770Y+1723381D01*
X+484090Y+1723381D02*
X+494250Y+1723381D01*
X+542510Y+1723381D02*
X+552670Y+1723381D01*
X+179290Y+1725921D02*
X+189450Y+1725921D01*
X+285970Y+1725921D02*
X+296130Y+1725921D01*
X+369790Y+1725921D02*
X+379950Y+1725921D01*
X+453610Y+1725921D02*
X+463770Y+1725921D01*
X+484090Y+1725921D02*
X+494250Y+1725921D01*
X+542510Y+1725921D02*
X+552670Y+1725921D01*
X+179290Y+1728461D02*
X+189450Y+1728461D01*
X+285970Y+1728461D02*
X+296130Y+1728461D01*
X+367250Y+1728461D02*
X+379950Y+1728461D01*
X+453610Y+1728461D02*
X+463770Y+1728461D01*
X+484090Y+1728461D02*
X+494250Y+1728461D01*
X+542510Y+1728461D02*
X+552670Y+1728461D01*
X+179290Y+1731001D02*
X+189450Y+1731001D01*
X+285970Y+1731001D02*
X+296130Y+1731001D01*
X+362170Y+1731001D02*
X+377410Y+1731001D01*
X+453610Y+1731001D02*
X+463770Y+1731001D01*
X+484090Y+1731001D02*
X+496790Y+1731001D01*
X+542510Y+1731001D02*
X+552670Y+1731001D01*
X+179290Y+1733541D02*
X+189450Y+1733541D01*
X+285970Y+1733541D02*
X+296130Y+1733541D01*
X+354550Y+1733541D02*
X+377410Y+1733541D01*
X+453610Y+1733541D02*
X+463770Y+1733541D01*
X+486630Y+1733541D02*
X+499330Y+1733541D01*
X+542510Y+1733541D02*
X+552670Y+1733541D01*
X+179290Y+1736081D02*
X+189450Y+1736081D01*
X+285970Y+1736081D02*
X+296130Y+1736081D01*
X+344390Y+1736081D02*
X+374870Y+1736081D01*
X+453610Y+1736081D02*
X+463770Y+1736081D01*
X+486630Y+1736081D02*
X+506950Y+1736081D01*
X+542510Y+1736081D02*
X+552670Y+1736081D01*
X+179290Y+1738621D02*
X+189450Y+1738621D01*
X+235170Y+1738621D02*
X+296130Y+1738621D01*
X+336770Y+1738621D02*
X+372330Y+1738621D01*
X+402810Y+1738621D02*
X+463770Y+1738621D01*
X+489170Y+1738621D02*
X+552670Y+1738621D01*
X+179290Y+1741161D02*
X+189450Y+1741161D01*
X+235170Y+1741161D02*
X+296130Y+1741161D01*
X+329150Y+1741161D02*
X+369790Y+1741161D01*
X+402810Y+1741161D02*
X+463770Y+1741161D01*
X+491710Y+1741161D02*
X+552670Y+1741161D01*
X+179290Y+1743701D02*
X+189450Y+1743701D01*
X+235170Y+1743701D02*
X+296130Y+1743701D01*
X+324070Y+1743701D02*
X+364710Y+1743701D01*
X+402810Y+1743701D02*
X+463770Y+1743701D01*
X+496790Y+1743701D02*
X+552670Y+1743701D01*
X+179290Y+1746241D02*
X+189450Y+1746241D01*
X+235170Y+1746241D02*
X+296130Y+1746241D01*
X+321530Y+1746241D02*
X+354550Y+1746241D01*
X+402810Y+1746241D02*
X+463770Y+1746241D01*
X+501870Y+1746241D02*
X+552670Y+1746241D01*
X+179290Y+1748781D02*
X+189450Y+1748781D01*
X+285970Y+1748781D02*
X+296130Y+1748781D01*
X+318990Y+1748781D02*
X+344390Y+1748781D01*
X+453610Y+1748781D02*
X+463770Y+1748781D01*
X+506950Y+1748781D02*
X+519650Y+1748781D01*
X+542510Y+1748781D02*
X+552670Y+1748781D01*
X+179290Y+1751321D02*
X+189450Y+1751321D01*
X+285970Y+1751321D02*
X+296130Y+1751321D01*
X+316450Y+1751321D02*
X+336770Y+1751321D01*
X+453610Y+1751321D02*
X+463770Y+1751321D01*
X+504410Y+1751321D02*
X+517110Y+1751321D01*
X+542510Y+1751321D02*
X+552670Y+1751321D01*
X+179290Y+1753861D02*
X+189450Y+1753861D01*
X+285970Y+1753861D02*
X+296130Y+1753861D01*
X+316450Y+1753861D02*
X+329150Y+1753861D01*
X+453610Y+1753861D02*
X+463770Y+1753861D01*
X+501870Y+1753861D02*
X+514570Y+1753861D01*
X+542510Y+1753861D02*
X+552670Y+1753861D01*
X+179290Y+1756401D02*
X+189450Y+1756401D01*
X+285970Y+1756401D02*
X+296130Y+1756401D01*
X+313910Y+1756401D02*
X+326610Y+1756401D01*
X+453610Y+1756401D02*
X+463770Y+1756401D01*
X+499330Y+1756401D02*
X+512030Y+1756401D01*
X+542510Y+1756401D02*
X+552670Y+1756401D01*
X+179290Y+1758941D02*
X+189450Y+1758941D01*
X+285970Y+1758941D02*
X+296130Y+1758941D01*
X+313910Y+1758941D02*
X+324070Y+1758941D01*
X+372330Y+1758941D02*
X+382490Y+1758941D01*
X+453610Y+1758941D02*
X+463770Y+1758941D01*
X+499330Y+1758941D02*
X+509490Y+1758941D01*
X+542510Y+1758941D02*
X+552670Y+1758941D01*
X+179290Y+1761481D02*
X+189450Y+1761481D01*
X+285970Y+1761481D02*
X+296130Y+1761481D01*
X+313910Y+1761481D02*
X+324070Y+1761481D01*
X+372330Y+1761481D02*
X+382490Y+1761481D01*
X+453610Y+1761481D02*
X+463770Y+1761481D01*
X+496790Y+1761481D02*
X+509490Y+1761481D01*
X+542510Y+1761481D02*
X+552670Y+1761481D01*
X+179290Y+1764021D02*
X+189450Y+1764021D01*
X+285970Y+1764021D02*
X+296130Y+1764021D01*
X+313910Y+1764021D02*
X+324070Y+1764021D01*
X+372330Y+1764021D02*
X+382490Y+1764021D01*
X+453610Y+1764021D02*
X+463770Y+1764021D01*
X+494250Y+1764021D02*
X+506950Y+1764021D01*
X+542510Y+1764021D02*
X+552670Y+1764021D01*
X+179290Y+1766561D02*
X+189450Y+1766561D01*
X+285970Y+1766561D02*
X+296130Y+1766561D01*
X+313910Y+1766561D02*
X+324070Y+1766561D01*
X+369790Y+1766561D02*
X+382490Y+1766561D01*
X+453610Y+1766561D02*
X+463770Y+1766561D01*
X+491710Y+1766561D02*
X+504410Y+1766561D01*
X+542510Y+1766561D02*
X+552670Y+1766561D01*
X+179290Y+1769101D02*
X+189450Y+1769101D01*
X+285970Y+1769101D02*
X+296130Y+1769101D01*
X+313910Y+1769101D02*
X+324070Y+1769101D01*
X+369790Y+1769101D02*
X+379950Y+1769101D01*
X+453610Y+1769101D02*
X+463770Y+1769101D01*
X+491710Y+1769101D02*
X+504410Y+1769101D01*
X+542510Y+1769101D02*
X+552670Y+1769101D01*
X+179290Y+1771641D02*
X+189450Y+1771641D01*
X+285970Y+1771641D02*
X+296130Y+1771641D01*
X+316450Y+1771641D02*
X+326610Y+1771641D01*
X+367250Y+1771641D02*
X+379950Y+1771641D01*
X+453610Y+1771641D02*
X+463770Y+1771641D01*
X+489170Y+1771641D02*
X+501870Y+1771641D01*
X+542510Y+1771641D02*
X+552670Y+1771641D01*
X+179290Y+1774181D02*
X+189450Y+1774181D01*
X+285970Y+1774181D02*
X+296130Y+1774181D01*
X+316450Y+1774181D02*
X+329150Y+1774181D01*
X+364710Y+1774181D02*
X+377410Y+1774181D01*
X+453610Y+1774181D02*
X+463770Y+1774181D01*
X+489170Y+1774181D02*
X+499330Y+1774181D01*
X+542510Y+1774181D02*
X+552670Y+1774181D01*
X+179290Y+1776721D02*
X+189450Y+1776721D01*
X+285970Y+1776721D02*
X+296130Y+1776721D01*
X+316450Y+1776721D02*
X+331690Y+1776721D01*
X+362170Y+1776721D02*
X+377410Y+1776721D01*
X+453610Y+1776721D02*
X+463770Y+1776721D01*
X+486630Y+1776721D02*
X+499330Y+1776721D01*
X+542510Y+1776721D02*
X+552670Y+1776721D01*
X+179290Y+1779261D02*
X+189450Y+1779261D01*
X+230090Y+1779261D02*
X+296130Y+1779261D01*
X+318990Y+1779261D02*
X+336770Y+1779261D01*
X+354550Y+1779261D02*
X+374870Y+1779261D01*
X+397730Y+1779261D02*
X+463770Y+1779261D01*
X+484090Y+1779261D02*
X+496790Y+1779261D01*
X+542510Y+1779261D02*
X+552670Y+1779261D01*
X+179290Y+1781801D02*
X+189450Y+1781801D01*
X+230090Y+1781801D02*
X+296130Y+1781801D01*
X+321530Y+1781801D02*
X+372330Y+1781801D01*
X+397730Y+1781801D02*
X+463770Y+1781801D01*
X+484090Y+1781801D02*
X+494250Y+1781801D01*
X+542510Y+1781801D02*
X+552670Y+1781801D01*
X+179290Y+1784341D02*
X+189450Y+1784341D01*
X+230090Y+1784341D02*
X+296130Y+1784341D01*
X+324070Y+1784341D02*
X+369790Y+1784341D01*
X+397730Y+1784341D02*
X+463770Y+1784341D01*
X+481550Y+1784341D02*
X+494250Y+1784341D01*
X+542510Y+1784341D02*
X+552670Y+1784341D01*
X+179290Y+1786881D02*
X+189450Y+1786881D01*
X+230090Y+1786881D02*
X+296130Y+1786881D01*
X+329150Y+1786881D02*
X+364710Y+1786881D01*
X+397730Y+1786881D02*
X+463770Y+1786881D01*
X+481550Y+1786881D02*
X+491710Y+1786881D01*
X+542510Y+1786881D02*
X+552670Y+1786881D01*
X+334230Y+1789421D02*
X+357090Y+1789421D01*
X+1555848Y+1626426D02*
X+1578708Y+1626426D01*
X+1446628Y+1628966D02*
X+1456788Y+1628966D01*
X+1505048Y+1628966D02*
X+1515208Y+1628966D01*
X+1548228Y+1628966D02*
X+1586328Y+1628966D01*
X+1649828Y+1628966D02*
X+1657448Y+1628966D01*
X+1741268Y+1628966D02*
X+1751428Y+1628966D01*
X+1769208Y+1628966D02*
X+1827628Y+1628966D01*
X+1446628Y+1631506D02*
X+1456788Y+1631506D01*
X+1505048Y+1631506D02*
X+1515208Y+1631506D01*
X+1545688Y+1631506D02*
X+1588868Y+1631506D01*
X+1647288Y+1631506D02*
X+1659988Y+1631506D01*
X+1741268Y+1631506D02*
X+1751428Y+1631506D01*
X+1769208Y+1631506D02*
X+1827628Y+1631506D01*
X+1446628Y+1634046D02*
X+1456788Y+1634046D01*
X+1505048Y+1634046D02*
X+1515208Y+1634046D01*
X+1543148Y+1634046D02*
X+1593948Y+1634046D01*
X+1647288Y+1634046D02*
X+1659988Y+1634046D01*
X+1741268Y+1634046D02*
X+1751428Y+1634046D01*
X+1769208Y+1634046D02*
X+1827628Y+1634046D01*
X+1446628Y+1636586D02*
X+1456788Y+1636586D01*
X+1505048Y+1636586D02*
X+1515208Y+1636586D01*
X+1540608Y+1636586D02*
X+1558388Y+1636586D01*
X+1578708Y+1636586D02*
X+1593948Y+1636586D01*
X+1644748Y+1636586D02*
X+1662528Y+1636586D01*
X+1741268Y+1636586D02*
X+1751428Y+1636586D01*
X+1769208Y+1636586D02*
X+1827628Y+1636586D01*
X+1446628Y+1639126D02*
X+1456788Y+1639126D01*
X+1505048Y+1639126D02*
X+1515208Y+1639126D01*
X+1538068Y+1639126D02*
X+1553308Y+1639126D01*
X+1583788Y+1639126D02*
X+1596488Y+1639126D01*
X+1644748Y+1639126D02*
X+1652368Y+1639126D01*
X+1654908Y+1639126D02*
X+1662528Y+1639126D01*
X+1741268Y+1639126D02*
X+1751428Y+1639126D01*
X+1817468Y+1639126D02*
X+1827628Y+1639126D01*
X+1446628Y+1641666D02*
X+1456788Y+1641666D01*
X+1505048Y+1641666D02*
X+1515208Y+1641666D01*
X+1538068Y+1641666D02*
X+1548228Y+1641666D01*
X+1586328Y+1641666D02*
X+1596488Y+1641666D01*
X+1644748Y+1641666D02*
X+1652368Y+1641666D01*
X+1654908Y+1641666D02*
X+1662528Y+1641666D01*
X+1741268Y+1641666D02*
X+1751428Y+1641666D01*
X+1817468Y+1641666D02*
X+1827628Y+1641666D01*
X+1446628Y+1644206D02*
X+1456788Y+1644206D01*
X+1505048Y+1644206D02*
X+1515208Y+1644206D01*
X+1535528Y+1644206D02*
X+1548228Y+1644206D01*
X+1588868Y+1644206D02*
X+1599028Y+1644206D01*
X+1642208Y+1644206D02*
X+1652368Y+1644206D01*
X+1654908Y+1644206D02*
X+1665068Y+1644206D01*
X+1741268Y+1644206D02*
X+1751428Y+1644206D01*
X+1817468Y+1644206D02*
X+1827628Y+1644206D01*
X+1446628Y+1646746D02*
X+1456788Y+1646746D01*
X+1505048Y+1646746D02*
X+1515208Y+1646746D01*
X+1535528Y+1646746D02*
X+1545688Y+1646746D01*
X+1588868Y+1646746D02*
X+1599028Y+1646746D01*
X+1642208Y+1646746D02*
X+1649828Y+1646746D01*
X+1657448Y+1646746D02*
X+1665068Y+1646746D01*
X+1741268Y+1646746D02*
X+1751428Y+1646746D01*
X+1817468Y+1646746D02*
X+1827628Y+1646746D01*
X+1446628Y+1649286D02*
X+1456788Y+1649286D01*
X+1505048Y+1649286D02*
X+1515208Y+1649286D01*
X+1535528Y+1649286D02*
X+1545688Y+1649286D01*
X+1588868Y+1649286D02*
X+1599028Y+1649286D01*
X+1639668Y+1649286D02*
X+1649828Y+1649286D01*
X+1657448Y+1649286D02*
X+1667608Y+1649286D01*
X+1741268Y+1649286D02*
X+1751428Y+1649286D01*
X+1817468Y+1649286D02*
X+1827628Y+1649286D01*
X+1446628Y+1651826D02*
X+1456788Y+1651826D01*
X+1505048Y+1651826D02*
X+1515208Y+1651826D01*
X+1588868Y+1651826D02*
X+1599028Y+1651826D01*
X+1639668Y+1651826D02*
X+1647288Y+1651826D01*
X+1659988Y+1651826D02*
X+1667608Y+1651826D01*
X+1741268Y+1651826D02*
X+1751428Y+1651826D01*
X+1817468Y+1651826D02*
X+1827628Y+1651826D01*
X+1446628Y+1654366D02*
X+1456788Y+1654366D01*
X+1505048Y+1654366D02*
X+1515208Y+1654366D01*
X+1588868Y+1654366D02*
X+1599028Y+1654366D01*
X+1639668Y+1654366D02*
X+1647288Y+1654366D01*
X+1659988Y+1654366D02*
X+1667608Y+1654366D01*
X+1741268Y+1654366D02*
X+1751428Y+1654366D01*
X+1817468Y+1654366D02*
X+1827628Y+1654366D01*
X+1446628Y+1656906D02*
X+1456788Y+1656906D01*
X+1505048Y+1656906D02*
X+1515208Y+1656906D01*
X+1586328Y+1656906D02*
X+1599028Y+1656906D01*
X+1637128Y+1656906D02*
X+1647288Y+1656906D01*
X+1659988Y+1656906D02*
X+1670148Y+1656906D01*
X+1741268Y+1656906D02*
X+1751428Y+1656906D01*
X+1817468Y+1656906D02*
X+1827628Y+1656906D01*
X+1446628Y+1659446D02*
X+1456788Y+1659446D01*
X+1505048Y+1659446D02*
X+1515208Y+1659446D01*
X+1581248Y+1659446D02*
X+1596488Y+1659446D01*
X+1637128Y+1659446D02*
X+1644748Y+1659446D01*
X+1662528Y+1659446D02*
X+1670148Y+1659446D01*
X+1741268Y+1659446D02*
X+1751428Y+1659446D01*
X+1817468Y+1659446D02*
X+1827628Y+1659446D01*
X+1446628Y+1661986D02*
X+1456788Y+1661986D01*
X+1505048Y+1661986D02*
X+1515208Y+1661986D01*
X+1573628Y+1661986D02*
X+1596488Y+1661986D01*
X+1634588Y+1661986D02*
X+1644748Y+1661986D01*
X+1662528Y+1661986D02*
X+1672688Y+1661986D01*
X+1741268Y+1661986D02*
X+1751428Y+1661986D01*
X+1817468Y+1661986D02*
X+1827628Y+1661986D01*
X+1446628Y+1664526D02*
X+1515208Y+1664526D01*
X+1563468Y+1664526D02*
X+1593948Y+1664526D01*
X+1634588Y+1664526D02*
X+1644748Y+1664526D01*
X+1662528Y+1664526D02*
X+1672688Y+1664526D01*
X+1741268Y+1664526D02*
X+1751428Y+1664526D01*
X+1817468Y+1664526D02*
X+1827628Y+1664526D01*
X+1446628Y+1667066D02*
X+1515208Y+1667066D01*
X+1555848Y+1667066D02*
X+1591408Y+1667066D01*
X+1634588Y+1667066D02*
X+1642208Y+1667066D01*
X+1665068Y+1667066D02*
X+1672688Y+1667066D01*
X+1741268Y+1667066D02*
X+1751428Y+1667066D01*
X+1776828Y+1667066D02*
X+1827628Y+1667066D01*
X+1446628Y+1669606D02*
X+1515208Y+1669606D01*
X+1548228Y+1669606D02*
X+1588868Y+1669606D01*
X+1632048Y+1669606D02*
X+1642208Y+1669606D01*
X+1665068Y+1669606D02*
X+1675228Y+1669606D01*
X+1741268Y+1669606D02*
X+1751428Y+1669606D01*
X+1776828Y+1669606D02*
X+1827628Y+1669606D01*
X+1446628Y+1672146D02*
X+1515208Y+1672146D01*
X+1543148Y+1672146D02*
X+1583788Y+1672146D01*
X+1632048Y+1672146D02*
X+1642208Y+1672146D01*
X+1667608Y+1672146D02*
X+1675228Y+1672146D01*
X+1741268Y+1672146D02*
X+1751428Y+1672146D01*
X+1776828Y+1672146D02*
X+1827628Y+1672146D01*
X+1446628Y+1674686D02*
X+1456788Y+1674686D01*
X+1505048Y+1674686D02*
X+1515208Y+1674686D01*
X+1540608Y+1674686D02*
X+1573628Y+1674686D01*
X+1629508Y+1674686D02*
X+1639668Y+1674686D01*
X+1667608Y+1674686D02*
X+1677768Y+1674686D01*
X+1741268Y+1674686D02*
X+1751428Y+1674686D01*
X+1776828Y+1674686D02*
X+1827628Y+1674686D01*
X+1446628Y+1677226D02*
X+1456788Y+1677226D01*
X+1505048Y+1677226D02*
X+1515208Y+1677226D01*
X+1538068Y+1677226D02*
X+1563468Y+1677226D01*
X+1629508Y+1677226D02*
X+1639668Y+1677226D01*
X+1667608Y+1677226D02*
X+1677768Y+1677226D01*
X+1741268Y+1677226D02*
X+1751428Y+1677226D01*
X+1817468Y+1677226D02*
X+1827628Y+1677226D01*
X+1446628Y+1679766D02*
X+1456788Y+1679766D01*
X+1505048Y+1679766D02*
X+1515208Y+1679766D01*
X+1535528Y+1679766D02*
X+1555848Y+1679766D01*
X+1629508Y+1679766D02*
X+1677768Y+1679766D01*
X+1741268Y+1679766D02*
X+1751428Y+1679766D01*
X+1817468Y+1679766D02*
X+1827628Y+1679766D01*
X+1446628Y+1682306D02*
X+1456788Y+1682306D01*
X+1505048Y+1682306D02*
X+1515208Y+1682306D01*
X+1535528Y+1682306D02*
X+1548228Y+1682306D01*
X+1626968Y+1682306D02*
X+1680308Y+1682306D01*
X+1741268Y+1682306D02*
X+1751428Y+1682306D01*
X+1817468Y+1682306D02*
X+1827628Y+1682306D01*
X+1446628Y+1684846D02*
X+1456788Y+1684846D01*
X+1505048Y+1684846D02*
X+1515208Y+1684846D01*
X+1532988Y+1684846D02*
X+1545688Y+1684846D01*
X+1626968Y+1684846D02*
X+1680308Y+1684846D01*
X+1741268Y+1684846D02*
X+1751428Y+1684846D01*
X+1817468Y+1684846D02*
X+1827628Y+1684846D01*
X+1446628Y+1687386D02*
X+1456788Y+1687386D01*
X+1505048Y+1687386D02*
X+1515208Y+1687386D01*
X+1532988Y+1687386D02*
X+1543148Y+1687386D01*
X+1591408Y+1687386D02*
X+1601568Y+1687386D01*
X+1624428Y+1687386D02*
X+1682848Y+1687386D01*
X+1741268Y+1687386D02*
X+1751428Y+1687386D01*
X+1817468Y+1687386D02*
X+1827628Y+1687386D01*
X+1446628Y+1689926D02*
X+1456788Y+1689926D01*
X+1505048Y+1689926D02*
X+1515208Y+1689926D01*
X+1532988Y+1689926D02*
X+1543148Y+1689926D01*
X+1591408Y+1689926D02*
X+1601568Y+1689926D01*
X+1624428Y+1689926D02*
X+1634588Y+1689926D01*
X+1672688Y+1689926D02*
X+1682848Y+1689926D01*
X+1741268Y+1689926D02*
X+1751428Y+1689926D01*
X+1817468Y+1689926D02*
X+1827628Y+1689926D01*
X+1446628Y+1692466D02*
X+1456788Y+1692466D01*
X+1505048Y+1692466D02*
X+1515208Y+1692466D01*
X+1532988Y+1692466D02*
X+1543148Y+1692466D01*
X+1591408Y+1692466D02*
X+1601568Y+1692466D01*
X+1624428Y+1692466D02*
X+1634588Y+1692466D01*
X+1672688Y+1692466D02*
X+1682848Y+1692466D01*
X+1741268Y+1692466D02*
X+1751428Y+1692466D01*
X+1817468Y+1692466D02*
X+1827628Y+1692466D01*
X+1446628Y+1695006D02*
X+1456788Y+1695006D01*
X+1505048Y+1695006D02*
X+1515208Y+1695006D01*
X+1532988Y+1695006D02*
X+1543148Y+1695006D01*
X+1588868Y+1695006D02*
X+1601568Y+1695006D01*
X+1621888Y+1695006D02*
X+1632048Y+1695006D01*
X+1675228Y+1695006D02*
X+1685388Y+1695006D01*
X+1741268Y+1695006D02*
X+1751428Y+1695006D01*
X+1817468Y+1695006D02*
X+1827628Y+1695006D01*
X+1446628Y+1697546D02*
X+1456788Y+1697546D01*
X+1505048Y+1697546D02*
X+1515208Y+1697546D01*
X+1532988Y+1697546D02*
X+1543148Y+1697546D01*
X+1588868Y+1697546D02*
X+1599028Y+1697546D01*
X+1621888Y+1697546D02*
X+1632048Y+1697546D01*
X+1675228Y+1697546D02*
X+1685388Y+1697546D01*
X+1741268Y+1697546D02*
X+1751428Y+1697546D01*
X+1817468Y+1697546D02*
X+1827628Y+1697546D01*
X+1446628Y+1700086D02*
X+1456788Y+1700086D01*
X+1505048Y+1700086D02*
X+1515208Y+1700086D01*
X+1535528Y+1700086D02*
X+1545688Y+1700086D01*
X+1586328Y+1700086D02*
X+1599028Y+1700086D01*
X+1619348Y+1700086D02*
X+1629508Y+1700086D01*
X+1677768Y+1700086D02*
X+1687928Y+1700086D01*
X+1741268Y+1700086D02*
X+1751428Y+1700086D01*
X+1817468Y+1700086D02*
X+1827628Y+1700086D01*
X+1446628Y+1702626D02*
X+1456788Y+1702626D01*
X+1505048Y+1702626D02*
X+1515208Y+1702626D01*
X+1535528Y+1702626D02*
X+1548228Y+1702626D01*
X+1583788Y+1702626D02*
X+1596488Y+1702626D01*
X+1619348Y+1702626D02*
X+1629508Y+1702626D01*
X+1677768Y+1702626D02*
X+1687928Y+1702626D01*
X+1741268Y+1702626D02*
X+1751428Y+1702626D01*
X+1817468Y+1702626D02*
X+1827628Y+1702626D01*
X+1446628Y+1705166D02*
X+1456788Y+1705166D01*
X+1505048Y+1705166D02*
X+1515208Y+1705166D01*
X+1535528Y+1705166D02*
X+1550768Y+1705166D01*
X+1581248Y+1705166D02*
X+1596488Y+1705166D01*
X+1619348Y+1705166D02*
X+1629508Y+1705166D01*
X+1677768Y+1705166D02*
X+1687928Y+1705166D01*
X+1741268Y+1705166D02*
X+1751428Y+1705166D01*
X+1817468Y+1705166D02*
X+1827628Y+1705166D01*
X+1446628Y+1707706D02*
X+1456788Y+1707706D01*
X+1505048Y+1707706D02*
X+1515208Y+1707706D01*
X+1538068Y+1707706D02*
X+1555848Y+1707706D01*
X+1573628Y+1707706D02*
X+1593948Y+1707706D01*
X+1616808Y+1707706D02*
X+1626968Y+1707706D01*
X+1680308Y+1707706D02*
X+1690468Y+1707706D01*
X+1698088Y+1707706D02*
X+1751428Y+1707706D01*
X+1817468Y+1707706D02*
X+1827628Y+1707706D01*
X+1446628Y+1710246D02*
X+1456788Y+1710246D01*
X+1505048Y+1710246D02*
X+1515208Y+1710246D01*
X+1540608Y+1710246D02*
X+1591408Y+1710246D01*
X+1616808Y+1710246D02*
X+1626968Y+1710246D01*
X+1680308Y+1710246D02*
X+1690468Y+1710246D01*
X+1698088Y+1710246D02*
X+1751428Y+1710246D01*
X+1817468Y+1710246D02*
X+1827628Y+1710246D01*
X+1446628Y+1712786D02*
X+1456788Y+1712786D01*
X+1505048Y+1712786D02*
X+1515208Y+1712786D01*
X+1543148Y+1712786D02*
X+1588868Y+1712786D01*
X+1614268Y+1712786D02*
X+1626968Y+1712786D01*
X+1680308Y+1712786D02*
X+1693008Y+1712786D01*
X+1698088Y+1712786D02*
X+1751428Y+1712786D01*
X+1817468Y+1712786D02*
X+1827628Y+1712786D01*
X+1446628Y+1715326D02*
X+1456788Y+1715326D01*
X+1505048Y+1715326D02*
X+1515208Y+1715326D01*
X+1548228Y+1715326D02*
X+1583788Y+1715326D01*
X+1614268Y+1715326D02*
X+1624428Y+1715326D01*
X+1682848Y+1715326D02*
X+1693008Y+1715326D01*
X+1698088Y+1715326D02*
X+1751428Y+1715326D01*
X+1817468Y+1715326D02*
X+1827628Y+1715326D01*
X+1553308Y+1717866D02*
X+1576168Y+1717866D01*
X+3298499Y+429465D02*
X+3346759Y+429465D01*
X+3367079Y+429465D02*
X+3384859Y+429465D01*
X+3433119Y+429465D02*
X+3450899Y+429465D01*
X+3463599Y+429465D02*
X+3534719Y+429465D01*
X+3293419Y+432005D02*
X+3346759Y+432005D01*
X+3367079Y+432005D02*
X+3384859Y+432005D01*
X+3433119Y+432005D02*
X+3450899Y+432005D01*
X+3463599Y+432005D02*
X+3534719Y+432005D01*
X+3288339Y+434545D02*
X+3346759Y+434545D01*
X+3367079Y+434545D02*
X+3387399Y+434545D01*
X+3430579Y+434545D02*
X+3450899Y+434545D01*
X+3463599Y+434545D02*
X+3534719Y+434545D01*
X+3285799Y+437085D02*
X+3346759Y+437085D01*
X+3367079Y+437085D02*
X+3387399Y+437085D01*
X+3430579Y+437085D02*
X+3450899Y+437085D01*
X+3463599Y+437085D02*
X+3534719Y+437085D01*
X+3285799Y+439625D02*
X+3301039Y+439625D01*
X+3336599Y+439625D02*
X+3346759Y+439625D01*
X+3367079Y+439625D02*
X+3387399Y+439625D01*
X+3430579Y+439625D02*
X+3450899Y+439625D01*
X+3494079Y+439625D02*
X+3504239Y+439625D01*
X+3283259Y+442165D02*
X+3295959Y+442165D01*
X+3336599Y+442165D02*
X+3346759Y+442165D01*
X+3367079Y+442165D02*
X+3389939Y+442165D01*
X+3428039Y+442165D02*
X+3450899Y+442165D01*
X+3494079Y+442165D02*
X+3504239Y+442165D01*
X+3283259Y+444705D02*
X+3293419Y+444705D01*
X+3336599Y+444705D02*
X+3346759Y+444705D01*
X+3367079Y+444705D02*
X+3377239Y+444705D01*
X+3379779Y+444705D02*
X+3389939Y+444705D01*
X+3428039Y+444705D02*
X+3438199Y+444705D01*
X+3440739Y+444705D02*
X+3450899Y+444705D01*
X+3494079Y+444705D02*
X+3504239Y+444705D01*
X+3280719Y+447245D02*
X+3293419Y+447245D01*
X+3336599Y+447245D02*
X+3346759Y+447245D01*
X+3367079Y+447245D02*
X+3377239Y+447245D01*
X+3379779Y+447245D02*
X+3389939Y+447245D01*
X+3428039Y+447245D02*
X+3438199Y+447245D01*
X+3440739Y+447245D02*
X+3450899Y+447245D01*
X+3494079Y+447245D02*
X+3504239Y+447245D01*
X+3280719Y+449785D02*
X+3290879Y+449785D01*
X+3336599Y+449785D02*
X+3346759Y+449785D01*
X+3367079Y+449785D02*
X+3377239Y+449785D01*
X+3379779Y+449785D02*
X+3392479Y+449785D01*
X+3425499Y+449785D02*
X+3438199Y+449785D01*
X+3440739Y+449785D02*
X+3450899Y+449785D01*
X+3494079Y+449785D02*
X+3504239Y+449785D01*
X+3280719Y+452325D02*
X+3290879Y+452325D01*
X+3336599Y+452325D02*
X+3346759Y+452325D01*
X+3367079Y+452325D02*
X+3377239Y+452325D01*
X+3382319Y+452325D02*
X+3392479Y+452325D01*
X+3425499Y+452325D02*
X+3435659Y+452325D01*
X+3440739Y+452325D02*
X+3450899Y+452325D01*
X+3494079Y+452325D02*
X+3504239Y+452325D01*
X+3280719Y+454865D02*
X+3290879Y+454865D01*
X+3336599Y+454865D02*
X+3346759Y+454865D01*
X+3367079Y+454865D02*
X+3377239Y+454865D01*
X+3382319Y+454865D02*
X+3392479Y+454865D01*
X+3425499Y+454865D02*
X+3435659Y+454865D01*
X+3440739Y+454865D02*
X+3450899Y+454865D01*
X+3494079Y+454865D02*
X+3504239Y+454865D01*
X+3280719Y+457405D02*
X+3290879Y+457405D01*
X+3336599Y+457405D02*
X+3346759Y+457405D01*
X+3367079Y+457405D02*
X+3377239Y+457405D01*
X+3382319Y+457405D02*
X+3392479Y+457405D01*
X+3425499Y+457405D02*
X+3435659Y+457405D01*
X+3440739Y+457405D02*
X+3450899Y+457405D01*
X+3494079Y+457405D02*
X+3504239Y+457405D01*
X+3280719Y+459945D02*
X+3290879Y+459945D01*
X+3336599Y+459945D02*
X+3346759Y+459945D01*
X+3367079Y+459945D02*
X+3377239Y+459945D01*
X+3384859Y+459945D02*
X+3395019Y+459945D01*
X+3422959Y+459945D02*
X+3433119Y+459945D01*
X+3440739Y+459945D02*
X+3450899Y+459945D01*
X+3494079Y+459945D02*
X+3504239Y+459945D01*
X+3280719Y+462485D02*
X+3293419Y+462485D01*
X+3336599Y+462485D02*
X+3346759Y+462485D01*
X+3367079Y+462485D02*
X+3377239Y+462485D01*
X+3384859Y+462485D02*
X+3395019Y+462485D01*
X+3422959Y+462485D02*
X+3433119Y+462485D01*
X+3440739Y+462485D02*
X+3450899Y+462485D01*
X+3494079Y+462485D02*
X+3504239Y+462485D01*
X+3283259Y+465025D02*
X+3293419Y+465025D01*
X+3336599Y+465025D02*
X+3346759Y+465025D01*
X+3367079Y+465025D02*
X+3377239Y+465025D01*
X+3384859Y+465025D02*
X+3395019Y+465025D01*
X+3422959Y+465025D02*
X+3433119Y+465025D01*
X+3440739Y+465025D02*
X+3450899Y+465025D01*
X+3494079Y+465025D02*
X+3504239Y+465025D01*
X+3283259Y+467565D02*
X+3295959Y+467565D01*
X+3336599Y+467565D02*
X+3346759Y+467565D01*
X+3367079Y+467565D02*
X+3377239Y+467565D01*
X+3387399Y+467565D02*
X+3397559Y+467565D01*
X+3420419Y+467565D02*
X+3430579Y+467565D01*
X+3440739Y+467565D02*
X+3450899Y+467565D01*
X+3494079Y+467565D02*
X+3504239Y+467565D01*
X+3285799Y+470105D02*
X+3301039Y+470105D01*
X+3336599Y+470105D02*
X+3346759Y+470105D01*
X+3367079Y+470105D02*
X+3377239Y+470105D01*
X+3387399Y+470105D02*
X+3397559Y+470105D01*
X+3420419Y+470105D02*
X+3430579Y+470105D01*
X+3440739Y+470105D02*
X+3450899Y+470105D01*
X+3494079Y+470105D02*
X+3504239Y+470105D01*
X+3288339Y+472645D02*
X+3346759Y+472645D01*
X+3367079Y+472645D02*
X+3377239Y+472645D01*
X+3387399Y+472645D02*
X+3397559Y+472645D01*
X+3420419Y+472645D02*
X+3430579Y+472645D01*
X+3440739Y+472645D02*
X+3450899Y+472645D01*
X+3494079Y+472645D02*
X+3504239Y+472645D01*
X+3288339Y+475185D02*
X+3346759Y+475185D01*
X+3367079Y+475185D02*
X+3377239Y+475185D01*
X+3389939Y+475185D02*
X+3400099Y+475185D01*
X+3417879Y+475185D02*
X+3428039Y+475185D01*
X+3440739Y+475185D02*
X+3450899Y+475185D01*
X+3494079Y+475185D02*
X+3504239Y+475185D01*
X+3293419Y+477725D02*
X+3346759Y+477725D01*
X+3367079Y+477725D02*
X+3377239Y+477725D01*
X+3389939Y+477725D02*
X+3400099Y+477725D01*
X+3417879Y+477725D02*
X+3428039Y+477725D01*
X+3440739Y+477725D02*
X+3450899Y+477725D01*
X+3494079Y+477725D02*
X+3504239Y+477725D01*
X+3301039Y+480265D02*
X+3346759Y+480265D01*
X+3367079Y+480265D02*
X+3377239Y+480265D01*
X+3389939Y+480265D02*
X+3400099Y+480265D01*
X+3417879Y+480265D02*
X+3428039Y+480265D01*
X+3440739Y+480265D02*
X+3450899Y+480265D01*
X+3494079Y+480265D02*
X+3504239Y+480265D01*
X+3336599Y+482805D02*
X+3346759Y+482805D01*
X+3367079Y+482805D02*
X+3377239Y+482805D01*
X+3392479Y+482805D02*
X+3402639Y+482805D01*
X+3415339Y+482805D02*
X+3425499Y+482805D01*
X+3440739Y+482805D02*
X+3450899Y+482805D01*
X+3494079Y+482805D02*
X+3504239Y+482805D01*
X+3336599Y+485345D02*
X+3346759Y+485345D01*
X+3367079Y+485345D02*
X+3377239Y+485345D01*
X+3392479Y+485345D02*
X+3402639Y+485345D01*
X+3415339Y+485345D02*
X+3425499Y+485345D01*
X+3440739Y+485345D02*
X+3450899Y+485345D01*
X+3494079Y+485345D02*
X+3504239Y+485345D01*
X+3336599Y+487885D02*
X+3346759Y+487885D01*
X+3367079Y+487885D02*
X+3377239Y+487885D01*
X+3392479Y+487885D02*
X+3402639Y+487885D01*
X+3415339Y+487885D02*
X+3425499Y+487885D01*
X+3440739Y+487885D02*
X+3450899Y+487885D01*
X+3494079Y+487885D02*
X+3504239Y+487885D01*
X+3336599Y+490425D02*
X+3346759Y+490425D01*
X+3367079Y+490425D02*
X+3377239Y+490425D01*
X+3395019Y+490425D02*
X+3405179Y+490425D01*
X+3412799Y+490425D02*
X+3422959Y+490425D01*
X+3440739Y+490425D02*
X+3450899Y+490425D01*
X+3494079Y+490425D02*
X+3504239Y+490425D01*
X+3336599Y+492965D02*
X+3346759Y+492965D01*
X+3367079Y+492965D02*
X+3377239Y+492965D01*
X+3395019Y+492965D02*
X+3405179Y+492965D01*
X+3412799Y+492965D02*
X+3422959Y+492965D01*
X+3440739Y+492965D02*
X+3450899Y+492965D01*
X+3494079Y+492965D02*
X+3504239Y+492965D01*
X+3336599Y+495505D02*
X+3346759Y+495505D01*
X+3367079Y+495505D02*
X+3377239Y+495505D01*
X+3395019Y+495505D02*
X+3405179Y+495505D01*
X+3412799Y+495505D02*
X+3422959Y+495505D01*
X+3440739Y+495505D02*
X+3450899Y+495505D01*
X+3494079Y+495505D02*
X+3504239Y+495505D01*
X+3336599Y+498045D02*
X+3346759Y+498045D01*
X+3367079Y+498045D02*
X+3377239Y+498045D01*
X+3397559Y+498045D02*
X+3407719Y+498045D01*
X+3410259Y+498045D02*
X+3420419Y+498045D01*
X+3440739Y+498045D02*
X+3450899Y+498045D01*
X+3494079Y+498045D02*
X+3504239Y+498045D01*
X+3336599Y+500585D02*
X+3346759Y+500585D01*
X+3367079Y+500585D02*
X+3377239Y+500585D01*
X+3397559Y+500585D02*
X+3407719Y+500585D01*
X+3410259Y+500585D02*
X+3420419Y+500585D01*
X+3440739Y+500585D02*
X+3450899Y+500585D01*
X+3494079Y+500585D02*
X+3504239Y+500585D01*
X+3336599Y+503125D02*
X+3346759Y+503125D01*
X+3367079Y+503125D02*
X+3377239Y+503125D01*
X+3397559Y+503125D02*
X+3407719Y+503125D01*
X+3410259Y+503125D02*
X+3420419Y+503125D01*
X+3440739Y+503125D02*
X+3450899Y+503125D01*
X+3494079Y+503125D02*
X+3504239Y+503125D01*
X+3336599Y+505665D02*
X+3346759Y+505665D01*
X+3367079Y+505665D02*
X+3377239Y+505665D01*
X+3400099Y+505665D02*
X+3417879Y+505665D01*
X+3440739Y+505665D02*
X+3450899Y+505665D01*
X+3494079Y+505665D02*
X+3504239Y+505665D01*
X+3336599Y+508205D02*
X+3346759Y+508205D01*
X+3367079Y+508205D02*
X+3377239Y+508205D01*
X+3400099Y+508205D02*
X+3417879Y+508205D01*
X+3440739Y+508205D02*
X+3450899Y+508205D01*
X+3494079Y+508205D02*
X+3504239Y+508205D01*
X+3336599Y+510745D02*
X+3346759Y+510745D01*
X+3367079Y+510745D02*
X+3377239Y+510745D01*
X+3400099Y+510745D02*
X+3417879Y+510745D01*
X+3440739Y+510745D02*
X+3450899Y+510745D01*
X+3494079Y+510745D02*
X+3504239Y+510745D01*
X+3336599Y+513285D02*
X+3346759Y+513285D01*
X+3367079Y+513285D02*
X+3377239Y+513285D01*
X+3402639Y+513285D02*
X+3415339Y+513285D01*
X+3440739Y+513285D02*
X+3450899Y+513285D01*
X+3494079Y+513285D02*
X+3504239Y+513285D01*
X+3336599Y+515825D02*
X+3346759Y+515825D01*
X+3367079Y+515825D02*
X+3377239Y+515825D01*
X+3402639Y+515825D02*
X+3415339Y+515825D01*
X+3440739Y+515825D02*
X+3450899Y+515825D01*
X+3494079Y+515825D02*
X+3504239Y+515825D01*
X+704668Y+1756871D02*
X+719908Y+1756871D01*
X+697048Y+1759411D02*
X+724988Y+1759411D01*
X+752928Y+1759411D02*
X+760548Y+1759411D01*
X+694508Y+1761951D02*
X+727528Y+1761951D01*
X+752928Y+1761951D02*
X+765628Y+1761951D01*
X+691968Y+1764491D02*
X+730068Y+1764491D01*
X+752928Y+1764491D02*
X+768168Y+1764491D01*
X+689428Y+1767031D02*
X+704668Y+1767031D01*
X+717368Y+1767031D02*
X+732608Y+1767031D01*
X+752928Y+1767031D02*
X+770708Y+1767031D01*
X+689428Y+1769571D02*
X+702128Y+1769571D01*
X+719908Y+1769571D02*
X+732608Y+1769571D01*
X+758008Y+1769571D02*
X+773248Y+1769571D01*
X+686888Y+1772111D02*
X+699588Y+1772111D01*
X+722448Y+1772111D02*
X+735148Y+1772111D01*
X+763088Y+1772111D02*
X+775788Y+1772111D01*
X+686888Y+1774651D02*
X+697048Y+1774651D01*
X+722448Y+1774651D02*
X+735148Y+1774651D01*
X+763088Y+1774651D02*
X+775788Y+1774651D01*
X+684348Y+1777191D02*
X+697048Y+1777191D01*
X+722448Y+1777191D02*
X+735148Y+1777191D01*
X+765628Y+1777191D02*
X+775788Y+1777191D01*
X+684348Y+1779731D02*
X+694508Y+1779731D01*
X+724988Y+1779731D02*
X+737688Y+1779731D01*
X+765628Y+1779731D02*
X+778328Y+1779731D01*
X+684348Y+1782271D02*
X+694508Y+1782271D01*
X+724988Y+1782271D02*
X+737688Y+1782271D01*
X+768168Y+1782271D02*
X+778328Y+1782271D01*
X+684348Y+1784811D02*
X+694508Y+1784811D01*
X+724988Y+1784811D02*
X+737688Y+1784811D01*
X+768168Y+1784811D02*
X+778328Y+1784811D01*
X+684348Y+1787351D02*
X+694508Y+1787351D01*
X+727528Y+1787351D02*
X+740228Y+1787351D01*
X+768168Y+1787351D02*
X+778328Y+1787351D01*
X+684348Y+1789891D02*
X+694508Y+1789891D01*
X+727528Y+1789891D02*
X+740228Y+1789891D01*
X+768168Y+1789891D02*
X+778328Y+1789891D01*
X+684348Y+1792431D02*
X+694508Y+1792431D01*
X+727528Y+1792431D02*
X+740228Y+1792431D01*
X+768168Y+1792431D02*
X+778328Y+1792431D01*
X+684348Y+1794971D02*
X+694508Y+1794971D01*
X+727528Y+1794971D02*
X+740228Y+1794971D01*
X+768168Y+1794971D02*
X+778328Y+1794971D01*
X+684348Y+1797511D02*
X+697048Y+1797511D01*
X+730068Y+1797511D02*
X+742768Y+1797511D01*
X+768168Y+1797511D02*
X+778328Y+1797511D01*
X+686888Y+1800051D02*
X+697048Y+1800051D01*
X+730068Y+1800051D02*
X+742768Y+1800051D01*
X+768168Y+1800051D02*
X+778328Y+1800051D01*
X+686888Y+1802591D02*
X+697048Y+1802591D01*
X+730068Y+1802591D02*
X+742768Y+1802591D01*
X+765628Y+1802591D02*
X+775788Y+1802591D01*
X+686888Y+1805131D02*
X+699588Y+1805131D01*
X+730068Y+1805131D02*
X+745308Y+1805131D01*
X+765628Y+1805131D02*
X+775788Y+1805131D01*
X+689428Y+1807671D02*
X+702128Y+1807671D01*
X+732608Y+1807671D02*
X+745308Y+1807671D01*
X+763088Y+1807671D02*
X+775788Y+1807671D01*
X+689428Y+1810211D02*
X+704668Y+1810211D01*
X+732608Y+1810211D02*
X+747848Y+1810211D01*
X+760548Y+1810211D02*
X+773248Y+1810211D01*
X+691968Y+1812751D02*
X+709748Y+1812751D01*
X+735148Y+1812751D02*
X+770708Y+1812751D01*
X+694508Y+1815291D02*
X+717368Y+1815291D01*
X+737688Y+1815291D02*
X+770708Y+1815291D01*
X+697048Y+1817831D02*
X+717368Y+1817831D01*
X+740228Y+1817831D02*
X+765628Y+1817831D01*
X+702128Y+1820371D02*
X+717368Y+1820371D01*
X+745308Y+1820371D02*
X+760548Y+1820371D01*
X+707208Y+1822911D02*
X+717368Y+1822911D01*
X+706728Y+2213309D02*
X+772768Y+2213309D01*
X+696568Y+2215849D02*
X+772768Y+2215849D01*
X+694028Y+2218389D02*
X+772768Y+2218389D01*
X+688948Y+2220929D02*
X+772768Y+2220929D01*
X+688948Y+2223469D02*
X+706728Y+2223469D01*
X+686408Y+2226009D02*
X+699108Y+2226009D01*
X+683868Y+2228549D02*
X+696568Y+2228549D01*
X+683868Y+2231089D02*
X+694028Y+2231089D01*
X+683868Y+2233629D02*
X+694028Y+2233629D01*
X+681328Y+2236169D02*
X+694028Y+2236169D01*
X+681328Y+2238709D02*
X+691488Y+2238709D01*
X+681328Y+2241249D02*
X+691488Y+2241249D01*
X+681328Y+2243789D02*
X+691488Y+2243789D01*
X+681328Y+2246329D02*
X+691488Y+2246329D01*
X+681328Y+2248869D02*
X+691488Y+2248869D01*
X+681328Y+2251409D02*
X+691488Y+2251409D01*
X+681328Y+2253949D02*
X+691488Y+2253949D01*
X+681328Y+2256489D02*
X+694028Y+2256489D01*
X+683868Y+2259029D02*
X+694028Y+2259029D01*
X+683868Y+2261569D02*
X+694028Y+2261569D01*
X+683868Y+2264109D02*
X+696568Y+2264109D01*
X+686408Y+2266649D02*
X+699108Y+2266649D01*
X+686408Y+2269189D02*
X+706728Y+2269189D01*
X+688948Y+2271729D02*
X+772768Y+2271729D01*
X+694028Y+2274269D02*
X+772768Y+2274269D01*
X+696568Y+2276809D02*
X+772768Y+2276809D01*
X+706728Y+2279349D02*
X+772768Y+2279349D01*
X+1778817Y+1154008D02*
X+1778817Y+1171788D01*
X+1778817Y+1207348D02*
X+1778817Y+1225128D01*
X+1778817Y+1250528D02*
X+1778817Y+1268308D01*
X+1781357Y+1148928D02*
X+1781357Y+1176868D01*
X+1781357Y+1207348D02*
X+1781357Y+1225128D01*
X+1781357Y+1250528D02*
X+1781357Y+1268308D01*
X+1783897Y+1143848D02*
X+1783897Y+1181948D01*
X+1783897Y+1207348D02*
X+1783897Y+1225128D01*
X+1783897Y+1250528D02*
X+1783897Y+1268308D01*
X+1786437Y+1141308D02*
X+1786437Y+1184488D01*
X+1786437Y+1207348D02*
X+1786437Y+1225128D01*
X+1786437Y+1250528D02*
X+1786437Y+1268308D01*
X+1788977Y+1141308D02*
X+1788977Y+1184488D01*
X+1788977Y+1207348D02*
X+1788977Y+1225128D01*
X+1788977Y+1250528D02*
X+1788977Y+1268308D01*
X+1791517Y+1138768D02*
X+1791517Y+1187028D01*
X+1791517Y+1207348D02*
X+1791517Y+1225128D01*
X+1791517Y+1250528D02*
X+1791517Y+1268308D01*
X+1794057Y+1138768D02*
X+1794057Y+1159088D01*
X+1794057Y+1166708D02*
X+1794057Y+1187028D01*
X+1794057Y+1207348D02*
X+1794057Y+1225128D01*
X+1794057Y+1250528D02*
X+1794057Y+1268308D01*
X+1796597Y+1136228D02*
X+1796597Y+1156548D01*
X+1796597Y+1169248D02*
X+1796597Y+1189568D01*
X+1796597Y+1250528D02*
X+1796597Y+1268308D01*
X+1799137Y+1136228D02*
X+1799137Y+1154008D01*
X+1799137Y+1171788D02*
X+1799137Y+1189568D01*
X+1799137Y+1250528D02*
X+1799137Y+1268308D01*
X+1801677Y+1136228D02*
X+1801677Y+1154008D01*
X+1801677Y+1171788D02*
X+1801677Y+1189568D01*
X+1801677Y+1250528D02*
X+1801677Y+1268308D01*
X+1804217Y+1136228D02*
X+1804217Y+1151468D01*
X+1804217Y+1174328D02*
X+1804217Y+1189568D01*
X+1804217Y+1250528D02*
X+1804217Y+1268308D01*
X+1806757Y+1133688D02*
X+1806757Y+1151468D01*
X+1806757Y+1174328D02*
X+1806757Y+1192108D01*
X+1806757Y+1250528D02*
X+1806757Y+1268308D01*
X+1809297Y+1133688D02*
X+1809297Y+1151468D01*
X+1809297Y+1174328D02*
X+1809297Y+1192108D01*
X+1809297Y+1250528D02*
X+1809297Y+1268308D01*
X+1811837Y+1133688D02*
X+1811837Y+1151468D01*
X+1811837Y+1174328D02*
X+1811837Y+1192108D01*
X+1811837Y+1250528D02*
X+1811837Y+1268308D01*
X+1814377Y+1133688D02*
X+1814377Y+1151468D01*
X+1814377Y+1174328D02*
X+1814377Y+1192108D01*
X+1814377Y+1250528D02*
X+1814377Y+1268308D01*
X+1816917Y+1133688D02*
X+1816917Y+1151468D01*
X+1816917Y+1174328D02*
X+1816917Y+1192108D01*
X+1816917Y+1250528D02*
X+1816917Y+1268308D01*
X+1819457Y+1133688D02*
X+1819457Y+1151468D01*
X+1819457Y+1174328D02*
X+1819457Y+1192108D01*
X+1819457Y+1250528D02*
X+1819457Y+1268308D01*
X+1821997Y+1133688D02*
X+1821997Y+1151468D01*
X+1821997Y+1174328D02*
X+1821997Y+1192108D01*
X+1821997Y+1250528D02*
X+1821997Y+1268308D01*
X+1824537Y+1133688D02*
X+1824537Y+1151468D01*
X+1824537Y+1174328D02*
X+1824537Y+1192108D01*
X+1824537Y+1250528D02*
X+1824537Y+1268308D01*
X+1827077Y+1133688D02*
X+1827077Y+1151468D01*
X+1827077Y+1174328D02*
X+1827077Y+1192108D01*
X+1827077Y+1250528D02*
X+1827077Y+1268308D01*
X+1829617Y+1133688D02*
X+1829617Y+1151468D01*
X+1829617Y+1174328D02*
X+1829617Y+1192108D01*
X+1829617Y+1250528D02*
X+1829617Y+1268308D01*
X+1829617Y+1288628D02*
X+1829617Y+1291168D01*
X+1832157Y+1133688D02*
X+1832157Y+1151468D01*
X+1832157Y+1174328D02*
X+1832157Y+1192108D01*
X+1832157Y+1250528D02*
X+1832157Y+1268308D01*
X+1832157Y+1281008D02*
X+1832157Y+1291168D01*
X+1834697Y+1133688D02*
X+1834697Y+1151468D01*
X+1834697Y+1174328D02*
X+1834697Y+1192108D01*
X+1834697Y+1250528D02*
X+1834697Y+1268308D01*
X+1834697Y+1275928D02*
X+1834697Y+1291168D01*
X+1837237Y+1133688D02*
X+1837237Y+1151468D01*
X+1837237Y+1174328D02*
X+1837237Y+1192108D01*
X+1837237Y+1250528D02*
X+1837237Y+1268308D01*
X+1837237Y+1273388D02*
X+1837237Y+1291168D01*
X+1839777Y+1136228D02*
X+1839777Y+1151468D01*
X+1839777Y+1174328D02*
X+1839777Y+1189568D01*
X+1839777Y+1250528D02*
X+1839777Y+1268308D01*
X+1839777Y+1270848D02*
X+1839777Y+1291168D01*
X+1842317Y+1136228D02*
X+1842317Y+1154008D01*
X+1842317Y+1171788D02*
X+1842317Y+1189568D01*
X+1842317Y+1250528D02*
X+1842317Y+1291168D01*
X+1844857Y+1136228D02*
X+1844857Y+1154008D01*
X+1844857Y+1171788D02*
X+1844857Y+1189568D01*
X+1844857Y+1250528D02*
X+1844857Y+1288628D01*
X+1847397Y+1136228D02*
X+1847397Y+1156548D01*
X+1847397Y+1169248D02*
X+1847397Y+1189568D01*
X+1847397Y+1250528D02*
X+1847397Y+1283548D01*
X+1849937Y+1138768D02*
X+1849937Y+1159088D01*
X+1849937Y+1166708D02*
X+1849937Y+1187028D01*
X+1849937Y+1250528D02*
X+1849937Y+1278468D01*
X+1852477Y+1138768D02*
X+1852477Y+1187028D01*
X+1852477Y+1250528D02*
X+1852477Y+1275928D01*
X+1855017Y+1141308D02*
X+1855017Y+1184488D01*
X+1855017Y+1250528D02*
X+1855017Y+1273388D01*
X+1857557Y+1141308D02*
X+1857557Y+1184488D01*
X+1857557Y+1250528D02*
X+1857557Y+1270848D01*
X+1860097Y+1143848D02*
X+1860097Y+1181948D01*
X+1860097Y+1250528D02*
X+1860097Y+1268308D01*
X+1862637Y+1148928D02*
X+1862637Y+1176868D01*
X+1862637Y+1250528D02*
X+1862637Y+1265768D01*
X+1865177Y+1154008D02*
X+1865177Y+1171788D01*
X+1865177Y+1250528D02*
X+1865177Y+1265768D01*
X+1778817Y+1313073D02*
X+1778817Y+1330853D01*
X+1778817Y+1348633D02*
X+1778817Y+1366413D01*
X+1778817Y+1401973D02*
X+1778817Y+1417213D01*
X+1778817Y+1437533D02*
X+1778817Y+1455313D01*
X+1778817Y+1473093D02*
X+1778817Y+1488333D01*
X+1778817Y+1506113D02*
X+1778817Y+1523893D01*
X+1778817Y+1541673D02*
X+1778817Y+1556913D01*
X+1781357Y+1313073D02*
X+1781357Y+1330853D01*
X+1781357Y+1348633D02*
X+1781357Y+1368953D01*
X+1781357Y+1401973D02*
X+1781357Y+1417213D01*
X+1781357Y+1437533D02*
X+1781357Y+1455313D01*
X+1781357Y+1473093D02*
X+1781357Y+1488333D01*
X+1781357Y+1506113D02*
X+1781357Y+1523893D01*
X+1781357Y+1541673D02*
X+1781357Y+1556913D01*
X+1783897Y+1313073D02*
X+1783897Y+1330853D01*
X+1783897Y+1348633D02*
X+1783897Y+1368953D01*
X+1783897Y+1401973D02*
X+1783897Y+1417213D01*
X+1783897Y+1437533D02*
X+1783897Y+1455313D01*
X+1783897Y+1473093D02*
X+1783897Y+1488333D01*
X+1783897Y+1503573D02*
X+1783897Y+1526433D01*
X+1783897Y+1541673D02*
X+1783897Y+1556913D01*
X+1786437Y+1313073D02*
X+1786437Y+1330853D01*
X+1786437Y+1348633D02*
X+1786437Y+1371493D01*
X+1786437Y+1401973D02*
X+1786437Y+1417213D01*
X+1786437Y+1437533D02*
X+1786437Y+1455313D01*
X+1786437Y+1473093D02*
X+1786437Y+1488333D01*
X+1786437Y+1503573D02*
X+1786437Y+1526433D01*
X+1786437Y+1541673D02*
X+1786437Y+1556913D01*
X+1788977Y+1313073D02*
X+1788977Y+1330853D01*
X+1788977Y+1348633D02*
X+1788977Y+1374033D01*
X+1788977Y+1401973D02*
X+1788977Y+1417213D01*
X+1788977Y+1437533D02*
X+1788977Y+1455313D01*
X+1788977Y+1473093D02*
X+1788977Y+1488333D01*
X+1788977Y+1503573D02*
X+1788977Y+1526433D01*
X+1788977Y+1541673D02*
X+1788977Y+1556913D01*
X+1791517Y+1313073D02*
X+1791517Y+1330853D01*
X+1791517Y+1348633D02*
X+1791517Y+1374033D01*
X+1791517Y+1401973D02*
X+1791517Y+1417213D01*
X+1791517Y+1437533D02*
X+1791517Y+1455313D01*
X+1791517Y+1473093D02*
X+1791517Y+1488333D01*
X+1791517Y+1503573D02*
X+1791517Y+1526433D01*
X+1791517Y+1541673D02*
X+1791517Y+1556913D01*
X+1794057Y+1313073D02*
X+1794057Y+1330853D01*
X+1794057Y+1348633D02*
X+1794057Y+1376573D01*
X+1794057Y+1401973D02*
X+1794057Y+1417213D01*
X+1794057Y+1437533D02*
X+1794057Y+1455313D01*
X+1794057Y+1473093D02*
X+1794057Y+1488333D01*
X+1794057Y+1501033D02*
X+1794057Y+1528973D01*
X+1794057Y+1541673D02*
X+1794057Y+1556913D01*
X+1796597Y+1313073D02*
X+1796597Y+1330853D01*
X+1796597Y+1348633D02*
X+1796597Y+1376573D01*
X+1796597Y+1401973D02*
X+1796597Y+1417213D01*
X+1796597Y+1437533D02*
X+1796597Y+1455313D01*
X+1796597Y+1473093D02*
X+1796597Y+1488333D01*
X+1796597Y+1501033D02*
X+1796597Y+1528973D01*
X+1796597Y+1541673D02*
X+1796597Y+1556913D01*
X+1799137Y+1313073D02*
X+1799137Y+1330853D01*
X+1799137Y+1348633D02*
X+1799137Y+1379113D01*
X+1799137Y+1401973D02*
X+1799137Y+1417213D01*
X+1799137Y+1437533D02*
X+1799137Y+1455313D01*
X+1799137Y+1473093D02*
X+1799137Y+1488333D01*
X+1799137Y+1501033D02*
X+1799137Y+1528973D01*
X+1799137Y+1541673D02*
X+1799137Y+1556913D01*
X+1801677Y+1313073D02*
X+1801677Y+1330853D01*
X+1801677Y+1348633D02*
X+1801677Y+1379113D01*
X+1801677Y+1401973D02*
X+1801677Y+1417213D01*
X+1801677Y+1437533D02*
X+1801677Y+1455313D01*
X+1801677Y+1473093D02*
X+1801677Y+1488333D01*
X+1801677Y+1501033D02*
X+1801677Y+1513733D01*
X+1801677Y+1516273D02*
X+1801677Y+1528973D01*
X+1801677Y+1541673D02*
X+1801677Y+1556913D01*
X+1804217Y+1313073D02*
X+1804217Y+1330853D01*
X+1804217Y+1348633D02*
X+1804217Y+1381653D01*
X+1804217Y+1401973D02*
X+1804217Y+1417213D01*
X+1804217Y+1437533D02*
X+1804217Y+1455313D01*
X+1804217Y+1473093D02*
X+1804217Y+1488333D01*
X+1804217Y+1498493D02*
X+1804217Y+1513733D01*
X+1804217Y+1516273D02*
X+1804217Y+1531513D01*
X+1804217Y+1541673D02*
X+1804217Y+1556913D01*
X+1806757Y+1313073D02*
X+1806757Y+1330853D01*
X+1806757Y+1348633D02*
X+1806757Y+1363873D01*
X+1806757Y+1366413D02*
X+1806757Y+1384193D01*
X+1806757Y+1401973D02*
X+1806757Y+1417213D01*
X+1806757Y+1437533D02*
X+1806757Y+1455313D01*
X+1806757Y+1473093D02*
X+1806757Y+1488333D01*
X+1806757Y+1498493D02*
X+1806757Y+1513733D01*
X+1806757Y+1516273D02*
X+1806757Y+1531513D01*
X+1806757Y+1541673D02*
X+1806757Y+1556913D01*
X+1809297Y+1313073D02*
X+1809297Y+1330853D01*
X+1809297Y+1348633D02*
X+1809297Y+1363873D01*
X+1809297Y+1366413D02*
X+1809297Y+1384193D01*
X+1809297Y+1401973D02*
X+1809297Y+1417213D01*
X+1809297Y+1437533D02*
X+1809297Y+1455313D01*
X+1809297Y+1473093D02*
X+1809297Y+1488333D01*
X+1809297Y+1498493D02*
X+1809297Y+1513733D01*
X+1809297Y+1516273D02*
X+1809297Y+1531513D01*
X+1809297Y+1541673D02*
X+1809297Y+1556913D01*
X+1811837Y+1313073D02*
X+1811837Y+1330853D01*
X+1811837Y+1348633D02*
X+1811837Y+1363873D01*
X+1811837Y+1368953D02*
X+1811837Y+1386733D01*
X+1811837Y+1401973D02*
X+1811837Y+1417213D01*
X+1811837Y+1437533D02*
X+1811837Y+1455313D01*
X+1811837Y+1473093D02*
X+1811837Y+1488333D01*
X+1811837Y+1498493D02*
X+1811837Y+1511193D01*
X+1811837Y+1518813D02*
X+1811837Y+1531513D01*
X+1811837Y+1541673D02*
X+1811837Y+1556913D01*
X+1814377Y+1313073D02*
X+1814377Y+1330853D01*
X+1814377Y+1348633D02*
X+1814377Y+1363873D01*
X+1814377Y+1371493D02*
X+1814377Y+1386733D01*
X+1814377Y+1401973D02*
X+1814377Y+1417213D01*
X+1814377Y+1437533D02*
X+1814377Y+1455313D01*
X+1814377Y+1473093D02*
X+1814377Y+1488333D01*
X+1814377Y+1498493D02*
X+1814377Y+1511193D01*
X+1814377Y+1518813D02*
X+1814377Y+1531513D01*
X+1814377Y+1541673D02*
X+1814377Y+1556913D01*
X+1816917Y+1313073D02*
X+1816917Y+1330853D01*
X+1816917Y+1348633D02*
X+1816917Y+1363873D01*
X+1816917Y+1371493D02*
X+1816917Y+1389273D01*
X+1816917Y+1401973D02*
X+1816917Y+1417213D01*
X+1816917Y+1437533D02*
X+1816917Y+1455313D01*
X+1816917Y+1473093D02*
X+1816917Y+1488333D01*
X+1816917Y+1495953D02*
X+1816917Y+1511193D01*
X+1816917Y+1518813D02*
X+1816917Y+1534053D01*
X+1816917Y+1541673D02*
X+1816917Y+1556913D01*
X+1819457Y+1313073D02*
X+1819457Y+1330853D01*
X+1819457Y+1348633D02*
X+1819457Y+1363873D01*
X+1819457Y+1374033D02*
X+1819457Y+1389273D01*
X+1819457Y+1401973D02*
X+1819457Y+1417213D01*
X+1819457Y+1437533D02*
X+1819457Y+1455313D01*
X+1819457Y+1473093D02*
X+1819457Y+1488333D01*
X+1819457Y+1495953D02*
X+1819457Y+1511193D01*
X+1819457Y+1518813D02*
X+1819457Y+1534053D01*
X+1819457Y+1541673D02*
X+1819457Y+1556913D01*
X+1821997Y+1313073D02*
X+1821997Y+1330853D01*
X+1821997Y+1348633D02*
X+1821997Y+1363873D01*
X+1821997Y+1374033D02*
X+1821997Y+1391813D01*
X+1821997Y+1401973D02*
X+1821997Y+1417213D01*
X+1821997Y+1437533D02*
X+1821997Y+1455313D01*
X+1821997Y+1473093D02*
X+1821997Y+1488333D01*
X+1821997Y+1495953D02*
X+1821997Y+1511193D01*
X+1821997Y+1518813D02*
X+1821997Y+1534053D01*
X+1821997Y+1541673D02*
X+1821997Y+1556913D01*
X+1824537Y+1313073D02*
X+1824537Y+1330853D01*
X+1824537Y+1348633D02*
X+1824537Y+1363873D01*
X+1824537Y+1376573D02*
X+1824537Y+1394353D01*
X+1824537Y+1401973D02*
X+1824537Y+1417213D01*
X+1824537Y+1437533D02*
X+1824537Y+1455313D01*
X+1824537Y+1473093D02*
X+1824537Y+1488333D01*
X+1824537Y+1495953D02*
X+1824537Y+1508653D01*
X+1824537Y+1521353D02*
X+1824537Y+1534053D01*
X+1824537Y+1541673D02*
X+1824537Y+1556913D01*
X+1827077Y+1313073D02*
X+1827077Y+1330853D01*
X+1827077Y+1348633D02*
X+1827077Y+1363873D01*
X+1827077Y+1376573D02*
X+1827077Y+1394353D01*
X+1827077Y+1401973D02*
X+1827077Y+1417213D01*
X+1827077Y+1437533D02*
X+1827077Y+1455313D01*
X+1827077Y+1473093D02*
X+1827077Y+1488333D01*
X+1827077Y+1493413D02*
X+1827077Y+1508653D01*
X+1827077Y+1521353D02*
X+1827077Y+1536593D01*
X+1827077Y+1541673D02*
X+1827077Y+1556913D01*
X+1829617Y+1313073D02*
X+1829617Y+1330853D01*
X+1829617Y+1348633D02*
X+1829617Y+1363873D01*
X+1829617Y+1379113D02*
X+1829617Y+1396893D01*
X+1829617Y+1401973D02*
X+1829617Y+1417213D01*
X+1829617Y+1437533D02*
X+1829617Y+1455313D01*
X+1829617Y+1473093D02*
X+1829617Y+1488333D01*
X+1829617Y+1493413D02*
X+1829617Y+1508653D01*
X+1829617Y+1521353D02*
X+1829617Y+1536593D01*
X+1829617Y+1541673D02*
X+1829617Y+1556913D01*
X+1832157Y+1313073D02*
X+1832157Y+1330853D01*
X+1832157Y+1348633D02*
X+1832157Y+1363873D01*
X+1832157Y+1381653D02*
X+1832157Y+1396893D01*
X+1832157Y+1401973D02*
X+1832157Y+1417213D01*
X+1832157Y+1437533D02*
X+1832157Y+1455313D01*
X+1832157Y+1473093D02*
X+1832157Y+1488333D01*
X+1832157Y+1493413D02*
X+1832157Y+1508653D01*
X+1832157Y+1521353D02*
X+1832157Y+1536593D01*
X+1832157Y+1541673D02*
X+1832157Y+1556913D01*
X+1834697Y+1313073D02*
X+1834697Y+1330853D01*
X+1834697Y+1348633D02*
X+1834697Y+1363873D01*
X+1834697Y+1381653D02*
X+1834697Y+1399433D01*
X+1834697Y+1401973D02*
X+1834697Y+1417213D01*
X+1834697Y+1437533D02*
X+1834697Y+1455313D01*
X+1834697Y+1473093D02*
X+1834697Y+1488333D01*
X+1834697Y+1493413D02*
X+1834697Y+1506113D01*
X+1834697Y+1523893D02*
X+1834697Y+1536593D01*
X+1834697Y+1541673D02*
X+1834697Y+1556913D01*
X+1837237Y+1313073D02*
X+1837237Y+1330853D01*
X+1837237Y+1348633D02*
X+1837237Y+1363873D01*
X+1837237Y+1384193D02*
X+1837237Y+1399433D01*
X+1837237Y+1401973D02*
X+1837237Y+1417213D01*
X+1837237Y+1437533D02*
X+1837237Y+1455313D01*
X+1837237Y+1473093D02*
X+1837237Y+1488333D01*
X+1837237Y+1490873D02*
X+1837237Y+1506113D01*
X+1837237Y+1523893D02*
X+1837237Y+1539133D01*
X+1837237Y+1541673D02*
X+1837237Y+1556913D01*
X+1839777Y+1313073D02*
X+1839777Y+1330853D01*
X+1839777Y+1348633D02*
X+1839777Y+1363873D01*
X+1839777Y+1384193D02*
X+1839777Y+1417213D01*
X+1839777Y+1437533D02*
X+1839777Y+1455313D01*
X+1839777Y+1473093D02*
X+1839777Y+1488333D01*
X+1839777Y+1490873D02*
X+1839777Y+1506113D01*
X+1839777Y+1523893D02*
X+1839777Y+1539133D01*
X+1839777Y+1541673D02*
X+1839777Y+1556913D01*
X+1842317Y+1313073D02*
X+1842317Y+1330853D01*
X+1842317Y+1348633D02*
X+1842317Y+1363873D01*
X+1842317Y+1386733D02*
X+1842317Y+1417213D01*
X+1842317Y+1437533D02*
X+1842317Y+1455313D01*
X+1842317Y+1473093D02*
X+1842317Y+1488333D01*
X+1842317Y+1490873D02*
X+1842317Y+1506113D01*
X+1842317Y+1523893D02*
X+1842317Y+1539133D01*
X+1842317Y+1541673D02*
X+1842317Y+1556913D01*
X+1844857Y+1313073D02*
X+1844857Y+1330853D01*
X+1844857Y+1348633D02*
X+1844857Y+1363873D01*
X+1844857Y+1386733D02*
X+1844857Y+1417213D01*
X+1844857Y+1437533D02*
X+1844857Y+1455313D01*
X+1844857Y+1473093D02*
X+1844857Y+1488333D01*
X+1844857Y+1490873D02*
X+1844857Y+1503573D01*
X+1844857Y+1526433D02*
X+1844857Y+1539133D01*
X+1844857Y+1541673D02*
X+1844857Y+1556913D01*
X+1847397Y+1313073D02*
X+1847397Y+1330853D01*
X+1847397Y+1348633D02*
X+1847397Y+1363873D01*
X+1847397Y+1389273D02*
X+1847397Y+1417213D01*
X+1847397Y+1437533D02*
X+1847397Y+1455313D01*
X+1847397Y+1473093D02*
X+1847397Y+1488333D01*
X+1847397Y+1490873D02*
X+1847397Y+1503573D01*
X+1847397Y+1526433D02*
X+1847397Y+1539133D01*
X+1847397Y+1541673D02*
X+1847397Y+1556913D01*
X+1849937Y+1313073D02*
X+1849937Y+1330853D01*
X+1849937Y+1348633D02*
X+1849937Y+1363873D01*
X+1849937Y+1389273D02*
X+1849937Y+1417213D01*
X+1849937Y+1437533D02*
X+1849937Y+1455313D01*
X+1849937Y+1473093D02*
X+1849937Y+1503573D01*
X+1849937Y+1526433D02*
X+1849937Y+1556913D01*
X+1852477Y+1313073D02*
X+1852477Y+1330853D01*
X+1852477Y+1348633D02*
X+1852477Y+1363873D01*
X+1852477Y+1391813D02*
X+1852477Y+1417213D01*
X+1852477Y+1437533D02*
X+1852477Y+1455313D01*
X+1852477Y+1473093D02*
X+1852477Y+1503573D01*
X+1852477Y+1526433D02*
X+1852477Y+1556913D01*
X+1855017Y+1313073D02*
X+1855017Y+1330853D01*
X+1855017Y+1348633D02*
X+1855017Y+1363873D01*
X+1855017Y+1394353D02*
X+1855017Y+1417213D01*
X+1855017Y+1437533D02*
X+1855017Y+1455313D01*
X+1855017Y+1473093D02*
X+1855017Y+1503573D01*
X+1855017Y+1526433D02*
X+1855017Y+1556913D01*
X+1857557Y+1313073D02*
X+1857557Y+1330853D01*
X+1857557Y+1348633D02*
X+1857557Y+1363873D01*
X+1857557Y+1394353D02*
X+1857557Y+1417213D01*
X+1857557Y+1437533D02*
X+1857557Y+1455313D01*
X+1857557Y+1473093D02*
X+1857557Y+1501033D01*
X+1857557Y+1528973D02*
X+1857557Y+1556913D01*
X+1860097Y+1313073D02*
X+1860097Y+1330853D01*
X+1860097Y+1348633D02*
X+1860097Y+1363873D01*
X+1860097Y+1396893D02*
X+1860097Y+1417213D01*
X+1860097Y+1437533D02*
X+1860097Y+1455313D01*
X+1860097Y+1473093D02*
X+1860097Y+1501033D01*
X+1860097Y+1528973D02*
X+1860097Y+1556913D01*
X+1862637Y+1313073D02*
X+1862637Y+1330853D01*
X+1862637Y+1348633D02*
X+1862637Y+1363873D01*
X+1862637Y+1396893D02*
X+1862637Y+1417213D01*
X+1862637Y+1437533D02*
X+1862637Y+1455313D01*
X+1862637Y+1473093D02*
X+1862637Y+1501033D01*
X+1862637Y+1528973D02*
X+1862637Y+1556913D01*
X+1865177Y+1313073D02*
X+1865177Y+1330853D01*
X+1865177Y+1348633D02*
X+1865177Y+1363873D01*
X+1865177Y+1399433D02*
X+1865177Y+1417213D01*
X+1865177Y+1437533D02*
X+1865177Y+1455313D01*
X+1865177Y+1473093D02*
X+1865177Y+1501033D01*
X+1865177Y+1528973D02*
X+1865177Y+1556913D01*
X+1413655Y+974717D02*
X+1413655Y+992497D01*
X+1413655Y+1022977D02*
X+1413655Y+1043297D01*
X+1413655Y+1083937D02*
X+1413655Y+1101717D01*
X+1413655Y+1160137D02*
X+1413655Y+1177917D01*
X+1413655Y+1238877D02*
X+1413655Y+1254117D01*
X+1413655Y+1271897D02*
X+1413655Y+1289677D01*
X+1413655Y+1307457D02*
X+1413655Y+1322697D01*
X+1413655Y+1368417D02*
X+1413655Y+1386197D01*
X+1413655Y+1436997D02*
X+1413655Y+1454777D01*
X+1416195Y+974717D02*
X+1416195Y+992497D01*
X+1416195Y+1025517D02*
X+1416195Y+1045837D01*
X+1416195Y+1083937D02*
X+1416195Y+1101717D01*
X+1416195Y+1160137D02*
X+1416195Y+1177917D01*
X+1416195Y+1238877D02*
X+1416195Y+1254117D01*
X+1416195Y+1271897D02*
X+1416195Y+1289677D01*
X+1416195Y+1307457D02*
X+1416195Y+1322697D01*
X+1416195Y+1368417D02*
X+1416195Y+1386197D01*
X+1416195Y+1436997D02*
X+1416195Y+1454777D01*
X+1418735Y+974717D02*
X+1418735Y+992497D01*
X+1418735Y+1025517D02*
X+1418735Y+1048377D01*
X+1418735Y+1083937D02*
X+1418735Y+1101717D01*
X+1418735Y+1160137D02*
X+1418735Y+1177917D01*
X+1418735Y+1238877D02*
X+1418735Y+1254117D01*
X+1418735Y+1269357D02*
X+1418735Y+1292217D01*
X+1418735Y+1307457D02*
X+1418735Y+1322697D01*
X+1418735Y+1368417D02*
X+1418735Y+1386197D01*
X+1418735Y+1436997D02*
X+1418735Y+1454777D01*
X+1421275Y+974717D02*
X+1421275Y+992497D01*
X+1421275Y+1028057D02*
X+1421275Y+1048377D01*
X+1421275Y+1083937D02*
X+1421275Y+1101717D01*
X+1421275Y+1160137D02*
X+1421275Y+1177917D01*
X+1421275Y+1238877D02*
X+1421275Y+1254117D01*
X+1421275Y+1269357D02*
X+1421275Y+1292217D01*
X+1421275Y+1307457D02*
X+1421275Y+1322697D01*
X+1421275Y+1368417D02*
X+1421275Y+1386197D01*
X+1421275Y+1436997D02*
X+1421275Y+1454777D01*
X+1423815Y+974717D02*
X+1423815Y+992497D01*
X+1423815Y+1030597D02*
X+1423815Y+1050917D01*
X+1423815Y+1083937D02*
X+1423815Y+1101717D01*
X+1423815Y+1160137D02*
X+1423815Y+1177917D01*
X+1423815Y+1238877D02*
X+1423815Y+1254117D01*
X+1423815Y+1269357D02*
X+1423815Y+1292217D01*
X+1423815Y+1307457D02*
X+1423815Y+1322697D01*
X+1423815Y+1368417D02*
X+1423815Y+1386197D01*
X+1423815Y+1436997D02*
X+1423815Y+1454777D01*
X+1426355Y+974717D02*
X+1426355Y+992497D01*
X+1426355Y+1030597D02*
X+1426355Y+1050917D01*
X+1426355Y+1083937D02*
X+1426355Y+1101717D01*
X+1426355Y+1160137D02*
X+1426355Y+1177917D01*
X+1426355Y+1238877D02*
X+1426355Y+1254117D01*
X+1426355Y+1269357D02*
X+1426355Y+1292217D01*
X+1426355Y+1307457D02*
X+1426355Y+1322697D01*
X+1426355Y+1368417D02*
X+1426355Y+1383657D01*
X+1426355Y+1436997D02*
X+1426355Y+1452237D01*
X+1428895Y+974717D02*
X+1428895Y+992497D01*
X+1428895Y+1033137D02*
X+1428895Y+1053457D01*
X+1428895Y+1083937D02*
X+1428895Y+1101717D01*
X+1428895Y+1160137D02*
X+1428895Y+1177917D01*
X+1428895Y+1238877D02*
X+1428895Y+1254117D01*
X+1428895Y+1266817D02*
X+1428895Y+1294757D01*
X+1428895Y+1307457D02*
X+1428895Y+1322697D01*
X+1428895Y+1365877D02*
X+1428895Y+1383657D01*
X+1428895Y+1434457D02*
X+1428895Y+1452237D01*
X+1431435Y+974717D02*
X+1431435Y+992497D01*
X+1431435Y+1033137D02*
X+1431435Y+1055997D01*
X+1431435Y+1083937D02*
X+1431435Y+1101717D01*
X+1431435Y+1160137D02*
X+1431435Y+1177917D01*
X+1431435Y+1238877D02*
X+1431435Y+1254117D01*
X+1431435Y+1266817D02*
X+1431435Y+1294757D01*
X+1431435Y+1307457D02*
X+1431435Y+1322697D01*
X+1431435Y+1365877D02*
X+1431435Y+1383657D01*
X+1431435Y+1434457D02*
X+1431435Y+1452237D01*
X+1433975Y+974717D02*
X+1433975Y+992497D01*
X+1433975Y+1035677D02*
X+1433975Y+1055997D01*
X+1433975Y+1083937D02*
X+1433975Y+1101717D01*
X+1433975Y+1160137D02*
X+1433975Y+1177917D01*
X+1433975Y+1238877D02*
X+1433975Y+1254117D01*
X+1433975Y+1266817D02*
X+1433975Y+1294757D01*
X+1433975Y+1307457D02*
X+1433975Y+1322697D01*
X+1433975Y+1365877D02*
X+1433975Y+1383657D01*
X+1433975Y+1434457D02*
X+1433975Y+1452237D01*
X+1436515Y+974717D02*
X+1436515Y+992497D01*
X+1436515Y+1038217D02*
X+1436515Y+1058537D01*
X+1436515Y+1083937D02*
X+1436515Y+1101717D01*
X+1436515Y+1160137D02*
X+1436515Y+1177917D01*
X+1436515Y+1190617D02*
X+1436515Y+1221097D01*
X+1436515Y+1238877D02*
X+1436515Y+1254117D01*
X+1436515Y+1266817D02*
X+1436515Y+1279517D01*
X+1436515Y+1282057D02*
X+1436515Y+1294757D01*
X+1436515Y+1307457D02*
X+1436515Y+1322697D01*
X+1436515Y+1365877D02*
X+1436515Y+1383657D01*
X+1436515Y+1434457D02*
X+1436515Y+1452237D01*
X+1439055Y+974717D02*
X+1439055Y+992497D01*
X+1439055Y+1038217D02*
X+1439055Y+1061077D01*
X+1439055Y+1083937D02*
X+1439055Y+1101717D01*
X+1439055Y+1160137D02*
X+1439055Y+1177917D01*
X+1439055Y+1190617D02*
X+1439055Y+1221097D01*
X+1439055Y+1238877D02*
X+1439055Y+1254117D01*
X+1439055Y+1264277D02*
X+1439055Y+1279517D01*
X+1439055Y+1282057D02*
X+1439055Y+1297297D01*
X+1439055Y+1307457D02*
X+1439055Y+1322697D01*
X+1439055Y+1363337D02*
X+1439055Y+1381117D01*
X+1439055Y+1431917D02*
X+1439055Y+1449697D01*
X+1441595Y+974717D02*
X+1441595Y+992497D01*
X+1441595Y+1040757D02*
X+1441595Y+1061077D01*
X+1441595Y+1083937D02*
X+1441595Y+1101717D01*
X+1441595Y+1160137D02*
X+1441595Y+1177917D01*
X+1441595Y+1190617D02*
X+1441595Y+1221097D01*
X+1441595Y+1238877D02*
X+1441595Y+1254117D01*
X+1441595Y+1264277D02*
X+1441595Y+1279517D01*
X+1441595Y+1282057D02*
X+1441595Y+1297297D01*
X+1441595Y+1307457D02*
X+1441595Y+1322697D01*
X+1441595Y+1363337D02*
X+1441595Y+1381117D01*
X+1441595Y+1431917D02*
X+1441595Y+1449697D01*
X+1444135Y+974717D02*
X+1444135Y+992497D01*
X+1444135Y+1043297D02*
X+1444135Y+1063617D01*
X+1444135Y+1083937D02*
X+1444135Y+1101717D01*
X+1444135Y+1160137D02*
X+1444135Y+1177917D01*
X+1444135Y+1190617D02*
X+1444135Y+1221097D01*
X+1444135Y+1238877D02*
X+1444135Y+1254117D01*
X+1444135Y+1264277D02*
X+1444135Y+1279517D01*
X+1444135Y+1282057D02*
X+1444135Y+1297297D01*
X+1444135Y+1307457D02*
X+1444135Y+1322697D01*
X+1444135Y+1363337D02*
X+1444135Y+1381117D01*
X+1444135Y+1431917D02*
X+1444135Y+1449697D01*
X+1446675Y+974717D02*
X+1446675Y+992497D01*
X+1446675Y+1045837D02*
X+1446675Y+1066157D01*
X+1446675Y+1083937D02*
X+1446675Y+1101717D01*
X+1446675Y+1160137D02*
X+1446675Y+1177917D01*
X+1446675Y+1190617D02*
X+1446675Y+1221097D01*
X+1446675Y+1238877D02*
X+1446675Y+1254117D01*
X+1446675Y+1264277D02*
X+1446675Y+1276977D01*
X+1446675Y+1284597D02*
X+1446675Y+1297297D01*
X+1446675Y+1307457D02*
X+1446675Y+1322697D01*
X+1446675Y+1363337D02*
X+1446675Y+1378577D01*
X+1446675Y+1431917D02*
X+1446675Y+1447157D01*
X+1449215Y+974717D02*
X+1449215Y+992497D01*
X+1449215Y+1048377D02*
X+1449215Y+1071237D01*
X+1449215Y+1083937D02*
X+1449215Y+1101717D01*
X+1449215Y+1160137D02*
X+1449215Y+1177917D01*
X+1449215Y+1190617D02*
X+1449215Y+1221097D01*
X+1449215Y+1238877D02*
X+1449215Y+1254117D01*
X+1449215Y+1264277D02*
X+1449215Y+1276977D01*
X+1449215Y+1284597D02*
X+1449215Y+1297297D01*
X+1449215Y+1307457D02*
X+1449215Y+1322697D01*
X+1449215Y+1360797D02*
X+1449215Y+1378577D01*
X+1449215Y+1429377D02*
X+1449215Y+1447157D01*
X+1451755Y+974717D02*
X+1451755Y+992497D01*
X+1451755Y+1050917D02*
X+1451755Y+1101717D01*
X+1451755Y+1122037D02*
X+1451755Y+1177917D01*
X+1451755Y+1238877D02*
X+1451755Y+1254117D01*
X+1451755Y+1261737D02*
X+1451755Y+1276977D01*
X+1451755Y+1284597D02*
X+1451755Y+1299837D01*
X+1451755Y+1307457D02*
X+1451755Y+1322697D01*
X+1451755Y+1360797D02*
X+1451755Y+1376037D01*
X+1451755Y+1429377D02*
X+1451755Y+1444617D01*
X+1454295Y+974717D02*
X+1454295Y+992497D01*
X+1454295Y+1045837D02*
X+1454295Y+1101717D01*
X+1454295Y+1122037D02*
X+1454295Y+1177917D01*
X+1454295Y+1238877D02*
X+1454295Y+1254117D01*
X+1454295Y+1261737D02*
X+1454295Y+1276977D01*
X+1454295Y+1284597D02*
X+1454295Y+1299837D01*
X+1454295Y+1307457D02*
X+1454295Y+1322697D01*
X+1454295Y+1360797D02*
X+1454295Y+1376037D01*
X+1454295Y+1429377D02*
X+1454295Y+1444617D01*
X+1456835Y+974717D02*
X+1456835Y+992497D01*
X+1456835Y+1040757D02*
X+1456835Y+1101717D01*
X+1456835Y+1122037D02*
X+1456835Y+1177917D01*
X+1456835Y+1238877D02*
X+1456835Y+1254117D01*
X+1456835Y+1261737D02*
X+1456835Y+1276977D01*
X+1456835Y+1284597D02*
X+1456835Y+1299837D01*
X+1456835Y+1307457D02*
X+1456835Y+1322697D01*
X+1456835Y+1358257D02*
X+1456835Y+1376037D01*
X+1456835Y+1426837D02*
X+1456835Y+1444617D01*
X+1459375Y+974717D02*
X+1459375Y+992497D01*
X+1459375Y+1038217D02*
X+1459375Y+1101717D01*
X+1459375Y+1122037D02*
X+1459375Y+1177917D01*
X+1459375Y+1238877D02*
X+1459375Y+1254117D01*
X+1459375Y+1261737D02*
X+1459375Y+1274437D01*
X+1459375Y+1287137D02*
X+1459375Y+1299837D01*
X+1459375Y+1307457D02*
X+1459375Y+1322697D01*
X+1459375Y+1358257D02*
X+1459375Y+1373497D01*
X+1459375Y+1426837D02*
X+1459375Y+1442077D01*
X+1461915Y+974717D02*
X+1461915Y+992497D01*
X+1461915Y+1035677D02*
X+1461915Y+1101717D01*
X+1461915Y+1122037D02*
X+1461915Y+1177917D01*
X+1461915Y+1238877D02*
X+1461915Y+1254117D01*
X+1461915Y+1259197D02*
X+1461915Y+1274437D01*
X+1461915Y+1287137D02*
X+1461915Y+1302377D01*
X+1461915Y+1307457D02*
X+1461915Y+1322697D01*
X+1461915Y+1355717D02*
X+1461915Y+1373497D01*
X+1461915Y+1424297D02*
X+1461915Y+1442077D01*
X+1464455Y+974717D02*
X+1464455Y+992497D01*
X+1464455Y+1033137D02*
X+1464455Y+1101717D01*
X+1464455Y+1122037D02*
X+1464455Y+1177917D01*
X+1464455Y+1238877D02*
X+1464455Y+1254117D01*
X+1464455Y+1259197D02*
X+1464455Y+1274437D01*
X+1464455Y+1287137D02*
X+1464455Y+1302377D01*
X+1464455Y+1307457D02*
X+1464455Y+1322697D01*
X+1464455Y+1355717D02*
X+1464455Y+1370957D01*
X+1464455Y+1424297D02*
X+1464455Y+1439537D01*
X+1466995Y+974717D02*
X+1466995Y+992497D01*
X+1466995Y+1033137D02*
X+1466995Y+1053457D01*
X+1466995Y+1083937D02*
X+1466995Y+1101717D01*
X+1466995Y+1160137D02*
X+1466995Y+1177917D01*
X+1466995Y+1238877D02*
X+1466995Y+1254117D01*
X+1466995Y+1259197D02*
X+1466995Y+1274437D01*
X+1466995Y+1287137D02*
X+1466995Y+1302377D01*
X+1466995Y+1307457D02*
X+1466995Y+1322697D01*
X+1466995Y+1353177D02*
X+1466995Y+1368417D01*
X+1466995Y+1421757D02*
X+1466995Y+1436997D01*
X+1469535Y+974717D02*
X+1469535Y+992497D01*
X+1469535Y+1030597D02*
X+1469535Y+1050917D01*
X+1469535Y+1083937D02*
X+1469535Y+1101717D01*
X+1469535Y+1160137D02*
X+1469535Y+1177917D01*
X+1469535Y+1238877D02*
X+1469535Y+1254117D01*
X+1469535Y+1259197D02*
X+1469535Y+1271897D01*
X+1469535Y+1289677D02*
X+1469535Y+1302377D01*
X+1469535Y+1307457D02*
X+1469535Y+1322697D01*
X+1469535Y+1353177D02*
X+1469535Y+1368417D01*
X+1469535Y+1421757D02*
X+1469535Y+1436997D01*
X+1472075Y+974717D02*
X+1472075Y+992497D01*
X+1472075Y+1030597D02*
X+1472075Y+1048377D01*
X+1472075Y+1083937D02*
X+1472075Y+1101717D01*
X+1472075Y+1160137D02*
X+1472075Y+1177917D01*
X+1472075Y+1238877D02*
X+1472075Y+1254117D01*
X+1472075Y+1256657D02*
X+1472075Y+1271897D01*
X+1472075Y+1289677D02*
X+1472075Y+1304917D01*
X+1472075Y+1307457D02*
X+1472075Y+1322697D01*
X+1472075Y+1350637D02*
X+1472075Y+1365877D01*
X+1472075Y+1419217D02*
X+1472075Y+1434457D01*
X+1474615Y+974717D02*
X+1474615Y+992497D01*
X+1474615Y+1030597D02*
X+1474615Y+1048377D01*
X+1474615Y+1083937D02*
X+1474615Y+1101717D01*
X+1474615Y+1160137D02*
X+1474615Y+1177917D01*
X+1474615Y+1238877D02*
X+1474615Y+1254117D01*
X+1474615Y+1256657D02*
X+1474615Y+1271897D01*
X+1474615Y+1289677D02*
X+1474615Y+1304917D01*
X+1474615Y+1307457D02*
X+1474615Y+1322697D01*
X+1474615Y+1348097D02*
X+1474615Y+1365877D01*
X+1474615Y+1416677D02*
X+1474615Y+1434457D01*
X+1477155Y+974717D02*
X+1477155Y+992497D01*
X+1477155Y+1030597D02*
X+1477155Y+1048377D01*
X+1477155Y+1083937D02*
X+1477155Y+1101717D01*
X+1477155Y+1160137D02*
X+1477155Y+1177917D01*
X+1477155Y+1238877D02*
X+1477155Y+1254117D01*
X+1477155Y+1256657D02*
X+1477155Y+1271897D01*
X+1477155Y+1289677D02*
X+1477155Y+1304917D01*
X+1477155Y+1307457D02*
X+1477155Y+1322697D01*
X+1477155Y+1348097D02*
X+1477155Y+1363337D01*
X+1477155Y+1416677D02*
X+1477155Y+1431917D01*
X+1479695Y+974717D02*
X+1479695Y+992497D01*
X+1479695Y+1030597D02*
X+1479695Y+1048377D01*
X+1479695Y+1083937D02*
X+1479695Y+1101717D01*
X+1479695Y+1160137D02*
X+1479695Y+1177917D01*
X+1479695Y+1238877D02*
X+1479695Y+1254117D01*
X+1479695Y+1256657D02*
X+1479695Y+1269357D01*
X+1479695Y+1292217D02*
X+1479695Y+1304917D01*
X+1479695Y+1307457D02*
X+1479695Y+1322697D01*
X+1479695Y+1345557D02*
X+1479695Y+1360797D01*
X+1479695Y+1414137D02*
X+1479695Y+1429377D01*
X+1482235Y+974717D02*
X+1482235Y+992497D01*
X+1482235Y+1030597D02*
X+1482235Y+1050917D01*
X+1482235Y+1083937D02*
X+1482235Y+1101717D01*
X+1482235Y+1160137D02*
X+1482235Y+1177917D01*
X+1482235Y+1238877D02*
X+1482235Y+1254117D01*
X+1482235Y+1256657D02*
X+1482235Y+1269357D01*
X+1482235Y+1292217D02*
X+1482235Y+1304917D01*
X+1482235Y+1307457D02*
X+1482235Y+1322697D01*
X+1482235Y+1343017D02*
X+1482235Y+1358257D01*
X+1482235Y+1411597D02*
X+1482235Y+1426837D01*
X+1484775Y+974717D02*
X+1484775Y+992497D01*
X+1484775Y+1030597D02*
X+1484775Y+1053457D01*
X+1484775Y+1083937D02*
X+1484775Y+1101717D01*
X+1484775Y+1160137D02*
X+1484775Y+1177917D01*
X+1484775Y+1238877D02*
X+1484775Y+1269357D01*
X+1484775Y+1292217D02*
X+1484775Y+1322697D01*
X+1484775Y+1340477D02*
X+1484775Y+1396357D01*
X+1484775Y+1409057D02*
X+1484775Y+1464937D01*
X+1487315Y+949317D02*
X+1487315Y+1017897D01*
X+1487315Y+1033137D02*
X+1487315Y+1101717D01*
X+1487315Y+1116957D02*
X+1487315Y+1177917D01*
X+1487315Y+1238877D02*
X+1487315Y+1269357D01*
X+1487315Y+1292217D02*
X+1487315Y+1322697D01*
X+1487315Y+1337937D02*
X+1487315Y+1396357D01*
X+1487315Y+1406517D02*
X+1487315Y+1464937D01*
X+1489855Y+949317D02*
X+1489855Y+1017897D01*
X+1489855Y+1033137D02*
X+1489855Y+1101717D01*
X+1489855Y+1116957D02*
X+1489855Y+1177917D01*
X+1489855Y+1238877D02*
X+1489855Y+1269357D01*
X+1489855Y+1292217D02*
X+1489855Y+1322697D01*
X+1489855Y+1337937D02*
X+1489855Y+1396357D01*
X+1489855Y+1406517D02*
X+1489855Y+1464937D01*
X+1492395Y+949317D02*
X+1492395Y+1017897D01*
X+1492395Y+1035677D02*
X+1492395Y+1101717D01*
X+1492395Y+1116957D02*
X+1492395Y+1177917D01*
X+1492395Y+1238877D02*
X+1492395Y+1266817D01*
X+1492395Y+1294757D02*
X+1492395Y+1322697D01*
X+1492395Y+1337937D02*
X+1492395Y+1396357D01*
X+1492395Y+1406517D02*
X+1492395Y+1464937D01*
X+1494935Y+949317D02*
X+1494935Y+1017897D01*
X+1494935Y+1038217D02*
X+1494935Y+1101717D01*
X+1494935Y+1116957D02*
X+1494935Y+1177917D01*
X+1494935Y+1238877D02*
X+1494935Y+1266817D01*
X+1494935Y+1294757D02*
X+1494935Y+1322697D01*
X+1494935Y+1337937D02*
X+1494935Y+1396357D01*
X+1494935Y+1406517D02*
X+1494935Y+1464937D01*
X+1497475Y+949317D02*
X+1497475Y+1017897D01*
X+1497475Y+1040757D02*
X+1497475Y+1101717D01*
X+1497475Y+1116957D02*
X+1497475Y+1177917D01*
X+1497475Y+1238877D02*
X+1497475Y+1266817D01*
X+1497475Y+1294757D02*
X+1497475Y+1322697D01*
X+1497475Y+1337937D02*
X+1497475Y+1396357D01*
X+1497475Y+1406517D02*
X+1497475Y+1464937D01*
X+1500015Y+949317D02*
X+1500015Y+1017897D01*
X+1500015Y+1048377D02*
X+1500015Y+1101717D01*
X+1500015Y+1116957D02*
X+1500015Y+1177917D01*
X+1500015Y+1238877D02*
X+1500015Y+1266817D01*
X+1500015Y+1294757D02*
X+1500015Y+1322697D01*
X+1500015Y+1337937D02*
X+1500015Y+1396357D01*
X+1500015Y+1406517D02*
X+1500015Y+1464937D01*
X+1570190Y+1417091D02*
X+1570190Y+1442491D01*
X+1572730Y+1102131D02*
X+1572730Y+1117371D01*
X+1572730Y+1135151D02*
X+1572730Y+1152931D01*
X+1572730Y+1170711D02*
X+1572730Y+1185951D01*
X+1572730Y+1206271D02*
X+1572730Y+1221511D01*
X+1572730Y+1239291D02*
X+1572730Y+1257071D01*
X+1572730Y+1274851D02*
X+1572730Y+1290091D01*
X+1572730Y+1300251D02*
X+1572730Y+1320571D01*
X+1572730Y+1368831D02*
X+1572730Y+1389151D01*
X+1572730Y+1409471D02*
X+1572730Y+1450111D01*
X+1575270Y+1102131D02*
X+1575270Y+1117371D01*
X+1575270Y+1135151D02*
X+1575270Y+1152931D01*
X+1575270Y+1170711D02*
X+1575270Y+1185951D01*
X+1575270Y+1206271D02*
X+1575270Y+1221511D01*
X+1575270Y+1239291D02*
X+1575270Y+1257071D01*
X+1575270Y+1274851D02*
X+1575270Y+1290091D01*
X+1575270Y+1302791D02*
X+1575270Y+1320571D01*
X+1575270Y+1368831D02*
X+1575270Y+1386611D01*
X+1575270Y+1404391D02*
X+1575270Y+1455191D01*
X+1577810Y+1102131D02*
X+1577810Y+1117371D01*
X+1577810Y+1132611D02*
X+1577810Y+1155471D01*
X+1577810Y+1170711D02*
X+1577810Y+1185951D01*
X+1577810Y+1206271D02*
X+1577810Y+1221511D01*
X+1577810Y+1236751D02*
X+1577810Y+1259611D01*
X+1577810Y+1274851D02*
X+1577810Y+1290091D01*
X+1577810Y+1302791D02*
X+1577810Y+1320571D01*
X+1577810Y+1368831D02*
X+1577810Y+1386611D01*
X+1577810Y+1401851D02*
X+1577810Y+1457731D01*
X+1580350Y+1102131D02*
X+1580350Y+1117371D01*
X+1580350Y+1132611D02*
X+1580350Y+1155471D01*
X+1580350Y+1170711D02*
X+1580350Y+1185951D01*
X+1580350Y+1206271D02*
X+1580350Y+1221511D01*
X+1580350Y+1236751D02*
X+1580350Y+1259611D01*
X+1580350Y+1274851D02*
X+1580350Y+1290091D01*
X+1580350Y+1302791D02*
X+1580350Y+1323111D01*
X+1580350Y+1366291D02*
X+1580350Y+1386611D01*
X+1580350Y+1399311D02*
X+1580350Y+1460271D01*
X+1582890Y+1102131D02*
X+1582890Y+1117371D01*
X+1582890Y+1132611D02*
X+1582890Y+1155471D01*
X+1582890Y+1170711D02*
X+1582890Y+1185951D01*
X+1582890Y+1206271D02*
X+1582890Y+1221511D01*
X+1582890Y+1236751D02*
X+1582890Y+1259611D01*
X+1582890Y+1274851D02*
X+1582890Y+1290091D01*
X+1582890Y+1305331D02*
X+1582890Y+1323111D01*
X+1582890Y+1366291D02*
X+1582890Y+1384071D01*
X+1582890Y+1399311D02*
X+1582890Y+1462811D01*
X+1585430Y+1102131D02*
X+1585430Y+1117371D01*
X+1585430Y+1132611D02*
X+1585430Y+1155471D01*
X+1585430Y+1170711D02*
X+1585430Y+1185951D01*
X+1585430Y+1206271D02*
X+1585430Y+1221511D01*
X+1585430Y+1236751D02*
X+1585430Y+1259611D01*
X+1585430Y+1274851D02*
X+1585430Y+1290091D01*
X+1585430Y+1305331D02*
X+1585430Y+1323111D01*
X+1585430Y+1366291D02*
X+1585430Y+1384071D01*
X+1585430Y+1396771D02*
X+1585430Y+1422171D01*
X+1585430Y+1437411D02*
X+1585430Y+1462811D01*
X+1587970Y+1102131D02*
X+1587970Y+1117371D01*
X+1587970Y+1130071D02*
X+1587970Y+1158011D01*
X+1587970Y+1170711D02*
X+1587970Y+1185951D01*
X+1587970Y+1206271D02*
X+1587970Y+1221511D01*
X+1587970Y+1234211D02*
X+1587970Y+1262151D01*
X+1587970Y+1274851D02*
X+1587970Y+1290091D01*
X+1587970Y+1305331D02*
X+1587970Y+1325651D01*
X+1587970Y+1363751D02*
X+1587970Y+1384071D01*
X+1587970Y+1396771D02*
X+1587970Y+1417091D01*
X+1587970Y+1442491D02*
X+1587970Y+1465351D01*
X+1590510Y+1102131D02*
X+1590510Y+1117371D01*
X+1590510Y+1130071D02*
X+1590510Y+1158011D01*
X+1590510Y+1170711D02*
X+1590510Y+1185951D01*
X+1590510Y+1206271D02*
X+1590510Y+1221511D01*
X+1590510Y+1234211D02*
X+1590510Y+1262151D01*
X+1590510Y+1274851D02*
X+1590510Y+1290091D01*
X+1590510Y+1307871D02*
X+1590510Y+1325651D01*
X+1590510Y+1363751D02*
X+1590510Y+1381531D01*
X+1590510Y+1394231D02*
X+1590510Y+1414551D01*
X+1590510Y+1445031D02*
X+1590510Y+1465351D01*
X+1593050Y+1102131D02*
X+1593050Y+1117371D01*
X+1593050Y+1130071D02*
X+1593050Y+1158011D01*
X+1593050Y+1170711D02*
X+1593050Y+1185951D01*
X+1593050Y+1206271D02*
X+1593050Y+1221511D01*
X+1593050Y+1234211D02*
X+1593050Y+1262151D01*
X+1593050Y+1274851D02*
X+1593050Y+1290091D01*
X+1593050Y+1307871D02*
X+1593050Y+1381531D01*
X+1593050Y+1394231D02*
X+1593050Y+1412011D01*
X+1593050Y+1447571D02*
X+1593050Y+1467891D01*
X+1595590Y+1053871D02*
X+1595590Y+1084351D01*
X+1595590Y+1102131D02*
X+1595590Y+1117371D01*
X+1595590Y+1130071D02*
X+1595590Y+1142771D01*
X+1595590Y+1145311D02*
X+1595590Y+1158011D01*
X+1595590Y+1170711D02*
X+1595590Y+1185951D01*
X+1595590Y+1206271D02*
X+1595590Y+1221511D01*
X+1595590Y+1234211D02*
X+1595590Y+1246911D01*
X+1595590Y+1249451D02*
X+1595590Y+1262151D01*
X+1595590Y+1274851D02*
X+1595590Y+1290091D01*
X+1595590Y+1310411D02*
X+1595590Y+1378991D01*
X+1595590Y+1394231D02*
X+1595590Y+1412011D01*
X+1595590Y+1447571D02*
X+1595590Y+1467891D01*
X+1598130Y+1053871D02*
X+1598130Y+1084351D01*
X+1598130Y+1102131D02*
X+1598130Y+1117371D01*
X+1598130Y+1127531D02*
X+1598130Y+1142771D01*
X+1598130Y+1145311D02*
X+1598130Y+1160551D01*
X+1598130Y+1170711D02*
X+1598130Y+1185951D01*
X+1598130Y+1206271D02*
X+1598130Y+1221511D01*
X+1598130Y+1231671D02*
X+1598130Y+1246911D01*
X+1598130Y+1249451D02*
X+1598130Y+1264691D01*
X+1598130Y+1274851D02*
X+1598130Y+1290091D01*
X+1598130Y+1310411D02*
X+1598130Y+1378991D01*
X+1598130Y+1394231D02*
X+1598130Y+1412011D01*
X+1598130Y+1450111D02*
X+1598130Y+1467891D01*
X+1600670Y+1053871D02*
X+1600670Y+1084351D01*
X+1600670Y+1102131D02*
X+1600670Y+1117371D01*
X+1600670Y+1127531D02*
X+1600670Y+1142771D01*
X+1600670Y+1145311D02*
X+1600670Y+1160551D01*
X+1600670Y+1170711D02*
X+1600670Y+1185951D01*
X+1600670Y+1206271D02*
X+1600670Y+1221511D01*
X+1600670Y+1231671D02*
X+1600670Y+1246911D01*
X+1600670Y+1249451D02*
X+1600670Y+1264691D01*
X+1600670Y+1274851D02*
X+1600670Y+1290091D01*
X+1600670Y+1310411D02*
X+1600670Y+1378991D01*
X+1600670Y+1394231D02*
X+1600670Y+1412011D01*
X+1600670Y+1450111D02*
X+1600670Y+1457731D01*
X+1603210Y+1053871D02*
X+1603210Y+1084351D01*
X+1603210Y+1102131D02*
X+1603210Y+1117371D01*
X+1603210Y+1127531D02*
X+1603210Y+1142771D01*
X+1603210Y+1145311D02*
X+1603210Y+1160551D01*
X+1603210Y+1170711D02*
X+1603210Y+1185951D01*
X+1603210Y+1206271D02*
X+1603210Y+1221511D01*
X+1603210Y+1231671D02*
X+1603210Y+1246911D01*
X+1603210Y+1249451D02*
X+1603210Y+1264691D01*
X+1603210Y+1274851D02*
X+1603210Y+1290091D01*
X+1603210Y+1312951D02*
X+1603210Y+1376451D01*
X+1603210Y+1394231D02*
X+1603210Y+1414551D01*
X+1605750Y+1053871D02*
X+1605750Y+1084351D01*
X+1605750Y+1102131D02*
X+1605750Y+1117371D01*
X+1605750Y+1127531D02*
X+1605750Y+1140231D01*
X+1605750Y+1147851D02*
X+1605750Y+1160551D01*
X+1605750Y+1170711D02*
X+1605750Y+1185951D01*
X+1605750Y+1206271D02*
X+1605750Y+1221511D01*
X+1605750Y+1231671D02*
X+1605750Y+1244371D01*
X+1605750Y+1251991D02*
X+1605750Y+1264691D01*
X+1605750Y+1274851D02*
X+1605750Y+1290091D01*
X+1605750Y+1312951D02*
X+1605750Y+1376451D01*
X+1605750Y+1394231D02*
X+1605750Y+1419631D01*
X+1608290Y+1053871D02*
X+1608290Y+1084351D01*
X+1608290Y+1102131D02*
X+1608290Y+1117371D01*
X+1608290Y+1127531D02*
X+1608290Y+1140231D01*
X+1608290Y+1147851D02*
X+1608290Y+1160551D01*
X+1608290Y+1170711D02*
X+1608290Y+1185951D01*
X+1608290Y+1206271D02*
X+1608290Y+1221511D01*
X+1608290Y+1231671D02*
X+1608290Y+1244371D01*
X+1608290Y+1251991D02*
X+1608290Y+1264691D01*
X+1608290Y+1274851D02*
X+1608290Y+1290091D01*
X+1608290Y+1312951D02*
X+1608290Y+1330731D01*
X+1608290Y+1358671D02*
X+1608290Y+1376451D01*
X+1608290Y+1396771D02*
X+1608290Y+1427251D01*
X+1610830Y+1102131D02*
X+1610830Y+1117371D01*
X+1610830Y+1124991D02*
X+1610830Y+1140231D01*
X+1610830Y+1147851D02*
X+1610830Y+1163091D01*
X+1610830Y+1170711D02*
X+1610830Y+1185951D01*
X+1610830Y+1206271D02*
X+1610830Y+1221511D01*
X+1610830Y+1229131D02*
X+1610830Y+1244371D01*
X+1610830Y+1251991D02*
X+1610830Y+1267231D01*
X+1610830Y+1274851D02*
X+1610830Y+1290091D01*
X+1610830Y+1315491D02*
X+1610830Y+1333271D01*
X+1610830Y+1356131D02*
X+1610830Y+1373911D01*
X+1610830Y+1396771D02*
X+1610830Y+1437411D01*
X+1613370Y+1102131D02*
X+1613370Y+1117371D01*
X+1613370Y+1124991D02*
X+1613370Y+1140231D01*
X+1613370Y+1147851D02*
X+1613370Y+1163091D01*
X+1613370Y+1170711D02*
X+1613370Y+1185951D01*
X+1613370Y+1206271D02*
X+1613370Y+1221511D01*
X+1613370Y+1229131D02*
X+1613370Y+1244371D01*
X+1613370Y+1251991D02*
X+1613370Y+1267231D01*
X+1613370Y+1274851D02*
X+1613370Y+1290091D01*
X+1613370Y+1315491D02*
X+1613370Y+1333271D01*
X+1613370Y+1356131D02*
X+1613370Y+1373911D01*
X+1613370Y+1399311D02*
X+1613370Y+1445031D01*
X+1615910Y+1102131D02*
X+1615910Y+1117371D01*
X+1615910Y+1124991D02*
X+1615910Y+1140231D01*
X+1615910Y+1147851D02*
X+1615910Y+1163091D01*
X+1615910Y+1170711D02*
X+1615910Y+1185951D01*
X+1615910Y+1206271D02*
X+1615910Y+1221511D01*
X+1615910Y+1229131D02*
X+1615910Y+1244371D01*
X+1615910Y+1251991D02*
X+1615910Y+1267231D01*
X+1615910Y+1274851D02*
X+1615910Y+1290091D01*
X+1615910Y+1318031D02*
X+1615910Y+1335811D01*
X+1615910Y+1353591D02*
X+1615910Y+1371371D01*
X+1615910Y+1401851D02*
X+1615910Y+1450111D01*
X+1618450Y+1102131D02*
X+1618450Y+1117371D01*
X+1618450Y+1124991D02*
X+1618450Y+1137691D01*
X+1618450Y+1150391D02*
X+1618450Y+1163091D01*
X+1618450Y+1170711D02*
X+1618450Y+1185951D01*
X+1618450Y+1206271D02*
X+1618450Y+1221511D01*
X+1618450Y+1229131D02*
X+1618450Y+1241831D01*
X+1618450Y+1254531D02*
X+1618450Y+1267231D01*
X+1618450Y+1274851D02*
X+1618450Y+1290091D01*
X+1618450Y+1318031D02*
X+1618450Y+1335811D01*
X+1618450Y+1353591D02*
X+1618450Y+1371371D01*
X+1618450Y+1404391D02*
X+1618450Y+1455191D01*
X+1620990Y+1102131D02*
X+1620990Y+1117371D01*
X+1620990Y+1122451D02*
X+1620990Y+1137691D01*
X+1620990Y+1150391D02*
X+1620990Y+1165631D01*
X+1620990Y+1170711D02*
X+1620990Y+1185951D01*
X+1620990Y+1206271D02*
X+1620990Y+1221511D01*
X+1620990Y+1226591D02*
X+1620990Y+1241831D01*
X+1620990Y+1254531D02*
X+1620990Y+1269771D01*
X+1620990Y+1274851D02*
X+1620990Y+1290091D01*
X+1620990Y+1318031D02*
X+1620990Y+1335811D01*
X+1620990Y+1353591D02*
X+1620990Y+1371371D01*
X+1620990Y+1406931D02*
X+1620990Y+1457731D01*
X+1623530Y+1102131D02*
X+1623530Y+1117371D01*
X+1623530Y+1122451D02*
X+1623530Y+1137691D01*
X+1623530Y+1150391D02*
X+1623530Y+1165631D01*
X+1623530Y+1170711D02*
X+1623530Y+1185951D01*
X+1623530Y+1206271D02*
X+1623530Y+1221511D01*
X+1623530Y+1226591D02*
X+1623530Y+1241831D01*
X+1623530Y+1254531D02*
X+1623530Y+1269771D01*
X+1623530Y+1274851D02*
X+1623530Y+1290091D01*
X+1623530Y+1320571D02*
X+1623530Y+1338351D01*
X+1623530Y+1351051D02*
X+1623530Y+1368831D01*
X+1623530Y+1414551D02*
X+1623530Y+1460271D01*
X+1626070Y+1102131D02*
X+1626070Y+1117371D01*
X+1626070Y+1122451D02*
X+1626070Y+1137691D01*
X+1626070Y+1150391D02*
X+1626070Y+1165631D01*
X+1626070Y+1170711D02*
X+1626070Y+1185951D01*
X+1626070Y+1206271D02*
X+1626070Y+1221511D01*
X+1626070Y+1226591D02*
X+1626070Y+1241831D01*
X+1626070Y+1254531D02*
X+1626070Y+1269771D01*
X+1626070Y+1274851D02*
X+1626070Y+1290091D01*
X+1626070Y+1320571D02*
X+1626070Y+1338351D01*
X+1626070Y+1351051D02*
X+1626070Y+1368831D01*
X+1626070Y+1422171D02*
X+1626070Y+1462811D01*
X+1628610Y+1102131D02*
X+1628610Y+1117371D01*
X+1628610Y+1122451D02*
X+1628610Y+1135151D01*
X+1628610Y+1152931D02*
X+1628610Y+1165631D01*
X+1628610Y+1170711D02*
X+1628610Y+1185951D01*
X+1628610Y+1206271D02*
X+1628610Y+1221511D01*
X+1628610Y+1226591D02*
X+1628610Y+1239291D01*
X+1628610Y+1257071D02*
X+1628610Y+1269771D01*
X+1628610Y+1274851D02*
X+1628610Y+1290091D01*
X+1628610Y+1320571D02*
X+1628610Y+1338351D01*
X+1628610Y+1351051D02*
X+1628610Y+1368831D01*
X+1628610Y+1432331D02*
X+1628610Y+1462811D01*
X+1631150Y+1102131D02*
X+1631150Y+1117371D01*
X+1631150Y+1119911D02*
X+1631150Y+1135151D01*
X+1631150Y+1152931D02*
X+1631150Y+1168171D01*
X+1631150Y+1170711D02*
X+1631150Y+1185951D01*
X+1631150Y+1206271D02*
X+1631150Y+1221511D01*
X+1631150Y+1224051D02*
X+1631150Y+1239291D01*
X+1631150Y+1257071D02*
X+1631150Y+1272311D01*
X+1631150Y+1274851D02*
X+1631150Y+1290091D01*
X+1631150Y+1323111D02*
X+1631150Y+1340891D01*
X+1631150Y+1348511D02*
X+1631150Y+1366291D01*
X+1631150Y+1439951D02*
X+1631150Y+1465351D01*
X+1633690Y+1102131D02*
X+1633690Y+1117371D01*
X+1633690Y+1119911D02*
X+1633690Y+1135151D01*
X+1633690Y+1152931D02*
X+1633690Y+1168171D01*
X+1633690Y+1170711D02*
X+1633690Y+1185951D01*
X+1633690Y+1206271D02*
X+1633690Y+1221511D01*
X+1633690Y+1224051D02*
X+1633690Y+1239291D01*
X+1633690Y+1257071D02*
X+1633690Y+1272311D01*
X+1633690Y+1274851D02*
X+1633690Y+1290091D01*
X+1633690Y+1323111D02*
X+1633690Y+1340891D01*
X+1633690Y+1348511D02*
X+1633690Y+1366291D01*
X+1633690Y+1445031D02*
X+1633690Y+1465351D01*
X+1636230Y+1102131D02*
X+1636230Y+1117371D01*
X+1636230Y+1119911D02*
X+1636230Y+1135151D01*
X+1636230Y+1152931D02*
X+1636230Y+1168171D01*
X+1636230Y+1170711D02*
X+1636230Y+1185951D01*
X+1636230Y+1206271D02*
X+1636230Y+1221511D01*
X+1636230Y+1224051D02*
X+1636230Y+1239291D01*
X+1636230Y+1257071D02*
X+1636230Y+1272311D01*
X+1636230Y+1274851D02*
X+1636230Y+1290091D01*
X+1636230Y+1325651D02*
X+1636230Y+1340891D01*
X+1636230Y+1348511D02*
X+1636230Y+1363751D01*
X+1636230Y+1396771D02*
X+1636230Y+1414551D01*
X+1636230Y+1447571D02*
X+1636230Y+1465351D01*
X+1638770Y+1102131D02*
X+1638770Y+1117371D01*
X+1638770Y+1119911D02*
X+1638770Y+1132611D01*
X+1638770Y+1155471D02*
X+1638770Y+1168171D01*
X+1638770Y+1170711D02*
X+1638770Y+1185951D01*
X+1638770Y+1206271D02*
X+1638770Y+1221511D01*
X+1638770Y+1224051D02*
X+1638770Y+1236751D01*
X+1638770Y+1259611D02*
X+1638770Y+1272311D01*
X+1638770Y+1274851D02*
X+1638770Y+1290091D01*
X+1638770Y+1325651D02*
X+1638770Y+1343431D01*
X+1638770Y+1345971D02*
X+1638770Y+1363751D01*
X+1638770Y+1396771D02*
X+1638770Y+1414551D01*
X+1638770Y+1447571D02*
X+1638770Y+1465351D01*
X+1641310Y+1102131D02*
X+1641310Y+1117371D01*
X+1641310Y+1119911D02*
X+1641310Y+1132611D01*
X+1641310Y+1155471D02*
X+1641310Y+1168171D01*
X+1641310Y+1170711D02*
X+1641310Y+1185951D01*
X+1641310Y+1206271D02*
X+1641310Y+1221511D01*
X+1641310Y+1224051D02*
X+1641310Y+1236751D01*
X+1641310Y+1259611D02*
X+1641310Y+1272311D01*
X+1641310Y+1274851D02*
X+1641310Y+1290091D01*
X+1641310Y+1325651D02*
X+1641310Y+1343431D01*
X+1641310Y+1345971D02*
X+1641310Y+1363751D01*
X+1641310Y+1396771D02*
X+1641310Y+1417091D01*
X+1641310Y+1447571D02*
X+1641310Y+1465351D01*
X+1643850Y+1102131D02*
X+1643850Y+1132611D01*
X+1643850Y+1155471D02*
X+1643850Y+1185951D01*
X+1643850Y+1206271D02*
X+1643850Y+1236751D01*
X+1643850Y+1259611D02*
X+1643850Y+1290091D01*
X+1643850Y+1328191D02*
X+1643850Y+1343431D01*
X+1643850Y+1345971D02*
X+1643850Y+1361211D01*
X+1643850Y+1399311D02*
X+1643850Y+1419631D01*
X+1643850Y+1445031D02*
X+1643850Y+1465351D01*
X+1646390Y+1102131D02*
X+1646390Y+1132611D01*
X+1646390Y+1155471D02*
X+1646390Y+1185951D01*
X+1646390Y+1206271D02*
X+1646390Y+1236751D01*
X+1646390Y+1259611D02*
X+1646390Y+1290091D01*
X+1646390Y+1328191D02*
X+1646390Y+1361211D01*
X+1646390Y+1399311D02*
X+1646390Y+1422171D01*
X+1646390Y+1439951D02*
X+1646390Y+1462811D01*
X+1648930Y+1102131D02*
X+1648930Y+1132611D01*
X+1648930Y+1155471D02*
X+1648930Y+1185951D01*
X+1648930Y+1206271D02*
X+1648930Y+1236751D01*
X+1648930Y+1259611D02*
X+1648930Y+1290091D01*
X+1648930Y+1328191D02*
X+1648930Y+1361211D01*
X+1648930Y+1401851D02*
X+1648930Y+1462811D01*
X+1651470Y+1102131D02*
X+1651470Y+1130071D01*
X+1651470Y+1158011D02*
X+1651470Y+1185951D01*
X+1651470Y+1206271D02*
X+1651470Y+1234211D01*
X+1651470Y+1262151D02*
X+1651470Y+1290091D01*
X+1651470Y+1330731D02*
X+1651470Y+1358671D01*
X+1651470Y+1401851D02*
X+1651470Y+1460271D01*
X+1654010Y+1102131D02*
X+1654010Y+1130071D01*
X+1654010Y+1158011D02*
X+1654010Y+1185951D01*
X+1654010Y+1206271D02*
X+1654010Y+1234211D01*
X+1654010Y+1262151D02*
X+1654010Y+1290091D01*
X+1654010Y+1330731D02*
X+1654010Y+1358671D01*
X+1654010Y+1404391D02*
X+1654010Y+1457731D01*
X+1656550Y+1102131D02*
X+1656550Y+1130071D01*
X+1656550Y+1158011D02*
X+1656550Y+1185951D01*
X+1656550Y+1206271D02*
X+1656550Y+1234211D01*
X+1656550Y+1262151D02*
X+1656550Y+1290091D01*
X+1656550Y+1333271D02*
X+1656550Y+1356131D01*
X+1656550Y+1406931D02*
X+1656550Y+1455191D01*
X+1659090Y+1102131D02*
X+1659090Y+1130071D01*
X+1659090Y+1158011D02*
X+1659090Y+1185951D01*
X+1659090Y+1206271D02*
X+1659090Y+1234211D01*
X+1659090Y+1262151D02*
X+1659090Y+1290091D01*
X+1659090Y+1333271D02*
X+1659090Y+1356131D01*
X+1659090Y+1412011D02*
X+1659090Y+1452651D01*
X+1661630Y+1419631D02*
X+1661630Y+1445031D01*
M02*
