G04 PROTEUS RS274X GERBER FILE*
%FSLAX45Y45*%
%MOMM*%
G01*
%ADD33C,0.127000*%
%ADD73C,0.025400*%
%ADD77C,0.063500*%
D33*
X+3075700Y+1541500D02*
X+3075700Y+1414500D01*
X+3012200Y+1478000D02*
X+3139200Y+1478000D01*
X+3030799Y+1522901D02*
X+3120601Y+1433099D01*
X+3030799Y+1433099D02*
X+3120601Y+1522901D01*
X+3320700Y+1601500D02*
X+3320700Y+1474500D01*
X+3257200Y+1538000D02*
X+3384200Y+1538000D01*
X+3275799Y+1582901D02*
X+3365601Y+1493099D01*
X+3275799Y+1493099D02*
X+3365601Y+1582901D01*
X+2806700Y+1304750D02*
X+2806700Y+1177750D01*
X+2743200Y+1241250D02*
X+2870200Y+1241250D01*
X+2761799Y+1286151D02*
X+2851601Y+1196349D01*
X+2761799Y+1196349D02*
X+2851601Y+1286151D01*
X+3075700Y+871500D02*
X+3075700Y+744500D01*
X+3012200Y+808000D02*
X+3139200Y+808000D01*
X+3030799Y+852901D02*
X+3120601Y+763099D01*
X+3030799Y+763099D02*
X+3120601Y+852901D01*
X+3320700Y+811500D02*
X+3320700Y+684500D01*
X+3257200Y+748000D02*
X+3384200Y+748000D01*
X+3275799Y+792901D02*
X+3365601Y+703099D01*
X+3275799Y+703099D02*
X+3365601Y+792901D01*
X+2692400Y+843300D02*
X+2692400Y+716300D01*
X+2628900Y+779800D02*
X+2755900Y+779800D01*
X+2647499Y+824701D02*
X+2737301Y+734899D01*
X+2647499Y+734899D02*
X+2737301Y+824701D01*
X+2857500Y+840300D02*
X+2857500Y+713300D01*
X+2794000Y+776800D02*
X+2921000Y+776800D01*
X+2812599Y+821701D02*
X+2902401Y+731899D01*
X+2812599Y+731899D02*
X+2902401Y+821701D01*
X+2857500Y+751400D02*
X+2857500Y+624400D01*
X+2794000Y+687900D02*
X+2921000Y+687900D01*
X+2812599Y+732801D02*
X+2902401Y+642999D01*
X+2812599Y+642999D02*
X+2902401Y+732801D01*
X+2692400Y+1003300D02*
X+2692400Y+876300D01*
X+2628900Y+939800D02*
X+2755900Y+939800D01*
X+2647499Y+984701D02*
X+2737301Y+894899D01*
X+2647499Y+894899D02*
X+2737301Y+984701D01*
X+2959100Y+620700D02*
X+2959100Y+493700D01*
X+2895600Y+557200D02*
X+3022600Y+557200D01*
X+2914199Y+602101D02*
X+3004001Y+512299D01*
X+2914199Y+512299D02*
X+3004001Y+602101D01*
X+3124200Y+620700D02*
X+3124200Y+493700D01*
X+3060700Y+557200D02*
X+3187700Y+557200D01*
X+3079299Y+602101D02*
X+3169101Y+512299D01*
X+3079299Y+512299D02*
X+3169101Y+602101D01*
X+3359150Y+227100D02*
X+3359150Y+100100D01*
X+3295650Y+163600D02*
X+3422650Y+163600D01*
X+3314249Y+208501D02*
X+3404051Y+118699D01*
X+3314249Y+118699D02*
X+3404051Y+208501D01*
X+2374800Y+809700D02*
X+2374800Y+682700D01*
X+2311300Y+746200D02*
X+2438300Y+746200D01*
X+2329899Y+791101D02*
X+2419701Y+701299D01*
X+2329899Y+701299D02*
X+2419701Y+791101D01*
X+2260500Y+809700D02*
X+2260500Y+682700D01*
X+2197000Y+746200D02*
X+2324000Y+746200D01*
X+2215599Y+791101D02*
X+2305401Y+701299D01*
X+2215599Y+701299D02*
X+2305401Y+791101D01*
X+2787650Y+393700D02*
X+2787650Y+266700D01*
X+2724150Y+330200D02*
X+2851150Y+330200D01*
X+2742749Y+375101D02*
X+2832551Y+285299D01*
X+2742749Y+285299D02*
X+2832551Y+375101D01*
X+2635250Y+393700D02*
X+2635250Y+266700D01*
X+2571750Y+330200D02*
X+2698750Y+330200D01*
X+2590349Y+375101D02*
X+2680151Y+285299D01*
X+2590349Y+285299D02*
X+2680151Y+375101D01*
X+2262075Y+712875D02*
X+2262075Y+585875D01*
X+2198575Y+649375D02*
X+2325575Y+649375D01*
X+2217174Y+694276D02*
X+2306976Y+604474D01*
X+2217174Y+604474D02*
X+2306976Y+694276D01*
X+2043000Y+1011500D02*
X+2043000Y+884500D01*
X+1979500Y+948000D02*
X+2106500Y+948000D01*
X+1998099Y+992901D02*
X+2087901Y+903099D01*
X+1998099Y+903099D02*
X+2087901Y+992901D01*
X+3177450Y+255350D02*
X+3177450Y+128350D01*
X+3113950Y+191850D02*
X+3240950Y+191850D01*
X+3132549Y+236751D02*
X+3222351Y+146949D01*
X+3132549Y+146949D02*
X+3222351Y+236751D01*
X+2444750Y+304800D02*
X+2444750Y+177800D01*
X+2381250Y+241300D02*
X+2508250Y+241300D01*
X+2399849Y+286201D02*
X+2489651Y+196399D01*
X+2399849Y+196399D02*
X+2489651Y+286201D01*
X+1564550Y+572850D02*
X+1564550Y+445850D01*
X+1501050Y+509350D02*
X+1628050Y+509350D01*
X+1519649Y+554251D02*
X+1609451Y+464449D01*
X+1519649Y+464449D02*
X+1609451Y+554251D01*
X+1562100Y+1511300D02*
X+1562100Y+1384300D01*
X+1498600Y+1447800D02*
X+1625600Y+1447800D01*
X+1517199Y+1492701D02*
X+1607001Y+1402899D01*
X+1517199Y+1402899D02*
X+1607001Y+1492701D01*
X+2005311Y+1192300D02*
X+2005311Y+1065300D01*
X+1941811Y+1128800D02*
X+2068811Y+1128800D01*
X+1960410Y+1173701D02*
X+2050212Y+1083899D01*
X+1960410Y+1083899D02*
X+2050212Y+1173701D01*
X+133800Y+1130300D02*
X+133800Y+1003300D01*
X+70300Y+1066800D02*
X+197300Y+1066800D01*
X+88899Y+1111701D02*
X+178701Y+1021899D01*
X+88899Y+1021899D02*
X+178701Y+1111701D01*
X+203800Y+990300D02*
X+203800Y+863300D01*
X+140300Y+926800D02*
X+267300Y+926800D01*
X+158899Y+971701D02*
X+248701Y+881899D01*
X+158899Y+881899D02*
X+248701Y+971701D01*
X+203800Y+540300D02*
X+203800Y+413300D01*
X+140300Y+476800D02*
X+267300Y+476800D01*
X+158899Y+521701D02*
X+248701Y+431899D01*
X+158899Y+431899D02*
X+248701Y+521701D01*
X+318100Y+540300D02*
X+318100Y+413300D01*
X+254600Y+476800D02*
X+381600Y+476800D01*
X+273199Y+521701D02*
X+363001Y+431899D01*
X+273199Y+431899D02*
X+363001Y+521701D01*
X+2540000Y+393700D02*
X+2540000Y+266700D01*
X+2476500Y+330200D02*
X+2603500Y+330200D01*
X+2495099Y+375101D02*
X+2584901Y+285299D01*
X+2495099Y+285299D02*
X+2584901Y+375101D01*
X+318100Y+690300D02*
X+318100Y+563300D01*
X+254600Y+626800D02*
X+381600Y+626800D01*
X+273199Y+671701D02*
X+363001Y+581899D01*
X+273199Y+581899D02*
X+363001Y+671701D01*
X+2863850Y+1614150D02*
X+2863850Y+1487150D01*
X+2800350Y+1550650D02*
X+2927350Y+1550650D01*
X+2818949Y+1595551D02*
X+2908751Y+1505749D01*
X+2818949Y+1505749D02*
X+2908751Y+1595551D01*
X+2133600Y+1377950D02*
X+2133600Y+1250950D01*
X+2070100Y+1314450D02*
X+2197100Y+1314450D01*
X+2088699Y+1359351D02*
X+2178501Y+1269549D01*
X+2088699Y+1269549D02*
X+2178501Y+1359351D01*
X+2343150Y+1454150D02*
X+2343150Y+1327150D01*
X+2279650Y+1390650D02*
X+2406650Y+1390650D01*
X+2298249Y+1435551D02*
X+2388051Y+1345749D01*
X+2298249Y+1345749D02*
X+2388051Y+1435551D01*
X+2190750Y+1606550D02*
X+2190750Y+1479550D01*
X+2127250Y+1543050D02*
X+2254250Y+1543050D01*
X+2145849Y+1587951D02*
X+2235651Y+1498149D01*
X+2145849Y+1498149D02*
X+2235651Y+1587951D01*
X+2664200Y+2036750D02*
X+2664200Y+1909750D01*
X+2600700Y+1973250D02*
X+2727700Y+1973250D01*
X+2619299Y+2018151D02*
X+2709101Y+1928349D01*
X+2619299Y+1928349D02*
X+2709101Y+2018151D01*
X+2499100Y+2036750D02*
X+2499100Y+1909750D01*
X+2435600Y+1973250D02*
X+2562600Y+1973250D01*
X+2454199Y+2018151D02*
X+2544001Y+1928349D01*
X+2454199Y+1928349D02*
X+2544001Y+2018151D01*
X+2403850Y+2036750D02*
X+2403850Y+1909750D01*
X+2340350Y+1973250D02*
X+2467350Y+1973250D01*
X+2358949Y+2018151D02*
X+2448751Y+1928349D01*
X+2358949Y+1928349D02*
X+2448751Y+2018151D01*
X+2032000Y+1593850D02*
X+2032000Y+1466850D01*
X+1968500Y+1530350D02*
X+2095500Y+1530350D01*
X+1987099Y+1575251D02*
X+2076901Y+1485449D01*
X+1987099Y+1485449D02*
X+2076901Y+1575251D01*
X+407000Y+690300D02*
X+407000Y+563300D01*
X+343500Y+626800D02*
X+470500Y+626800D01*
X+362099Y+671701D02*
X+451901Y+581899D01*
X+362099Y+581899D02*
X+451901Y+671701D01*
X+1524600Y+2074600D02*
X+1524600Y+1947600D01*
X+1461100Y+2011100D02*
X+1588100Y+2011100D01*
X+1479699Y+2056001D02*
X+1569501Y+1966199D01*
X+1479699Y+1966199D02*
X+1569501Y+2056001D01*
X+2892800Y+2036750D02*
X+2892800Y+1909750D01*
X+2829300Y+1973250D02*
X+2956300Y+1973250D01*
X+2847899Y+2018151D02*
X+2937701Y+1928349D01*
X+2847899Y+1928349D02*
X+2937701Y+2018151D01*
X+1613500Y+2074600D02*
X+1613500Y+1947600D01*
X+1550000Y+2011100D02*
X+1677000Y+2011100D01*
X+1568599Y+2056001D02*
X+1658401Y+1966199D01*
X+1568599Y+1966199D02*
X+1658401Y+2056001D01*
X+1943100Y+1593850D02*
X+1943100Y+1466850D01*
X+1879600Y+1530350D02*
X+2006600Y+1530350D01*
X+1898199Y+1575251D02*
X+1988001Y+1485449D01*
X+1898199Y+1485449D02*
X+1988001Y+1575251D01*
X+318100Y+990300D02*
X+318100Y+863300D01*
X+254600Y+926800D02*
X+381600Y+926800D01*
X+273199Y+971701D02*
X+363001Y+881899D01*
X+273199Y+881899D02*
X+363001Y+971701D01*
X+2863850Y+1703050D02*
X+2863850Y+1576050D01*
X+2800350Y+1639550D02*
X+2927350Y+1639550D01*
X+2818949Y+1684451D02*
X+2908751Y+1594649D01*
X+2818949Y+1594649D02*
X+2908751Y+1684451D01*
X+2302250Y+2036750D02*
X+2302250Y+1909750D01*
X+2238750Y+1973250D02*
X+2365750Y+1973250D01*
X+2257349Y+2018151D02*
X+2347151Y+1928349D01*
X+2257349Y+1928349D02*
X+2347151Y+2018151D01*
X+2400300Y+1841500D02*
X+2400300Y+1714500D01*
X+2336800Y+1778000D02*
X+2463800Y+1778000D01*
X+2355399Y+1822901D02*
X+2445201Y+1733099D01*
X+2355399Y+1733099D02*
X+2445201Y+1822901D01*
X+1924050Y+1314450D02*
X+1924050Y+1187450D01*
X+1860550Y+1250950D02*
X+1987550Y+1250950D01*
X+1879149Y+1295851D02*
X+1968951Y+1206049D01*
X+1879149Y+1206049D02*
X+1968951Y+1295851D01*
X+2146300Y+1841500D02*
X+2146300Y+1714500D01*
X+2082800Y+1778000D02*
X+2209800Y+1778000D01*
X+2101399Y+1822901D02*
X+2191201Y+1733099D01*
X+2101399Y+1733099D02*
X+2191201Y+1822901D01*
X+1638300Y+1841500D02*
X+1638300Y+1714500D01*
X+1574800Y+1778000D02*
X+1701800Y+1778000D01*
X+1593399Y+1822901D02*
X+1683201Y+1733099D01*
X+1593399Y+1733099D02*
X+1683201Y+1822901D01*
X+914400Y+1333500D02*
X+914400Y+1206500D01*
X+850900Y+1270000D02*
X+977900Y+1270000D01*
X+869499Y+1314901D02*
X+959301Y+1225099D01*
X+869499Y+1225099D02*
X+959301Y+1314901D01*
X+660400Y+1079500D02*
X+660400Y+952500D01*
X+596900Y+1016000D02*
X+723900Y+1016000D01*
X+615499Y+1060901D02*
X+705301Y+971099D01*
X+615499Y+971099D02*
X+705301Y+1060901D01*
X+406400Y+825500D02*
X+406400Y+698500D01*
X+342900Y+762000D02*
X+469900Y+762000D01*
X+361499Y+806901D02*
X+451301Y+717099D01*
X+361499Y+717099D02*
X+451301Y+806901D01*
X+133800Y+400300D02*
X+133800Y+273300D01*
X+70300Y+336800D02*
X+197300Y+336800D01*
X+88899Y+381701D02*
X+178701Y+291899D01*
X+88899Y+291899D02*
X+178701Y+381701D01*
X-76200Y+400300D02*
X-76200Y+273300D01*
X-139700Y+336800D02*
X-12700Y+336800D01*
X-121101Y+381701D02*
X-31299Y+291899D01*
X-121101Y+291899D02*
X-31299Y+381701D01*
X-76200Y+1130300D02*
X-76200Y+1003300D01*
X-139700Y+1066800D02*
X-12700Y+1066800D01*
X-121101Y+1111701D02*
X-31299Y+1021899D01*
X-121101Y+1021899D02*
X-31299Y+1111701D01*
X+1854200Y+740050D02*
X+1854200Y+613050D01*
X+1790700Y+676550D02*
X+1917700Y+676550D01*
X+1809299Y+721451D02*
X+1899101Y+631649D01*
X+1809299Y+631649D02*
X+1899101Y+721451D01*
X+1866900Y+1435100D02*
X+1866900Y+1308100D01*
X+1803400Y+1371600D02*
X+1930400Y+1371600D01*
X+1821999Y+1416501D02*
X+1911801Y+1326699D01*
X+1821999Y+1326699D02*
X+1911801Y+1416501D01*
X+1422400Y+1333500D02*
X+1422400Y+1206500D01*
X+1358900Y+1270000D02*
X+1485900Y+1270000D01*
X+1377499Y+1314901D02*
X+1467301Y+1225099D01*
X+1377499Y+1225099D02*
X+1467301Y+1314901D01*
X+1168400Y+1079500D02*
X+1168400Y+952500D01*
X+1104900Y+1016000D02*
X+1231900Y+1016000D01*
X+1123499Y+1060901D02*
X+1213301Y+971099D01*
X+1123499Y+971099D02*
X+1213301Y+1060901D01*
X+1676400Y+1079500D02*
X+1676400Y+952500D01*
X+1612900Y+1016000D02*
X+1739900Y+1016000D01*
X+1631499Y+1060901D02*
X+1721301Y+971099D01*
X+1631499Y+971099D02*
X+1721301Y+1060901D01*
X+2438400Y+571500D02*
X+2438400Y+444500D01*
X+2374900Y+508000D02*
X+2501900Y+508000D01*
X+2393499Y+552901D02*
X+2483301Y+463099D01*
X+2393499Y+463099D02*
X+2483301Y+552901D01*
X+1943100Y+292100D02*
X+1943100Y+165100D01*
X+1879600Y+228600D02*
X+2006600Y+228600D01*
X+1898199Y+273501D02*
X+1988001Y+183699D01*
X+1898199Y+183699D02*
X+1988001Y+273501D01*
X+1676400Y+317500D02*
X+1676400Y+190500D01*
X+1612900Y+254000D02*
X+1739900Y+254000D01*
X+1631499Y+298901D02*
X+1721301Y+209099D01*
X+1631499Y+209099D02*
X+1721301Y+298901D01*
X+1422400Y+317500D02*
X+1422400Y+190500D01*
X+1358900Y+254000D02*
X+1485900Y+254000D01*
X+1377499Y+298901D02*
X+1467301Y+209099D01*
X+1377499Y+209099D02*
X+1467301Y+298901D01*
X+1168400Y+317500D02*
X+1168400Y+190500D01*
X+1104900Y+254000D02*
X+1231900Y+254000D01*
X+1123499Y+298901D02*
X+1213301Y+209099D01*
X+1123499Y+209099D02*
X+1213301Y+298901D01*
X+914400Y+317500D02*
X+914400Y+190500D01*
X+850900Y+254000D02*
X+977900Y+254000D01*
X+869499Y+298901D02*
X+959301Y+209099D01*
X+869499Y+209099D02*
X+959301Y+298901D01*
X+647700Y+317500D02*
X+647700Y+190500D01*
X+584200Y+254000D02*
X+711200Y+254000D01*
X+602799Y+298901D02*
X+692601Y+209099D01*
X+602799Y+209099D02*
X+692601Y+298901D01*
X+2946400Y+63500D02*
X+2946400Y-63500D01*
X+2882900Y+0D02*
X+3009900Y+0D01*
X+2901499Y+44901D02*
X+2991301Y-44901D01*
X+2901499Y-44901D02*
X+2991301Y+44901D01*
X+2863850Y+1454150D02*
X+2863850Y+1327150D01*
X+2800350Y+1390650D02*
X+2927350Y+1390650D01*
X+2818949Y+1435551D02*
X+2908751Y+1345749D01*
X+2818949Y+1345749D02*
X+2908751Y+1435551D01*
X+2731838Y+1846512D02*
X+2731838Y+1719512D01*
X+2668338Y+1783012D02*
X+2795338Y+1783012D01*
X+2686937Y+1827913D02*
X+2776739Y+1738111D01*
X+2686937Y+1738111D02*
X+2776739Y+1827913D01*
X+2342300Y+1109000D02*
X+2342300Y+982000D01*
X+2278800Y+1045500D02*
X+2405800Y+1045500D01*
X+2297399Y+1090401D02*
X+2387201Y+1000599D01*
X+2297399Y+1000599D02*
X+2387201Y+1090401D01*
X+3200400Y+1841500D02*
X+3200400Y+1714500D01*
X+3136900Y+1778000D02*
X+3263900Y+1778000D01*
X+3155499Y+1822901D02*
X+3245301Y+1733099D01*
X+3155499Y+1733099D02*
X+3245301Y+1822901D01*
X+2032000Y+2095500D02*
X+2032000Y+1968500D01*
X+1968500Y+2032000D02*
X+2095500Y+2032000D01*
X+1987099Y+2076901D02*
X+2076901Y+1987099D01*
X+1987099Y+1987099D02*
X+2076901Y+2076901D01*
X+1016000Y+2095500D02*
X+1016000Y+1968500D01*
X+952500Y+2032000D02*
X+1079500Y+2032000D01*
X+971099Y+2076901D02*
X+1060901Y+1987099D01*
X+971099Y+1987099D02*
X+1060901Y+2076901D01*
X+254000Y+2095500D02*
X+254000Y+1968500D01*
X+190500Y+2032000D02*
X+317500Y+2032000D01*
X+209099Y+2076901D02*
X+298901Y+1987099D01*
X+209099Y+1987099D02*
X+298901Y+2076901D01*
X+508000Y+2095500D02*
X+508000Y+1968500D01*
X+444500Y+2032000D02*
X+571500Y+2032000D01*
X+463099Y+2076901D02*
X+552901Y+1987099D01*
X+463099Y+1987099D02*
X+552901Y+2076901D01*
X+762000Y+2095500D02*
X+762000Y+1968500D01*
X+698500Y+2032000D02*
X+825500Y+2032000D01*
X+717099Y+2076901D02*
X+806901Y+1987099D01*
X+717099Y+1987099D02*
X+806901Y+2076901D01*
X+254000Y+1587500D02*
X+254000Y+1460500D01*
X+190500Y+1524000D02*
X+317500Y+1524000D01*
X+209099Y+1568901D02*
X+298901Y+1479099D01*
X+209099Y+1479099D02*
X+298901Y+1568901D01*
X+508000Y+1841500D02*
X+508000Y+1714500D01*
X+444500Y+1778000D02*
X+571500Y+1778000D01*
X+463099Y+1822901D02*
X+552901Y+1733099D01*
X+463099Y+1733099D02*
X+552901Y+1822901D01*
X+508000Y+1333500D02*
X+508000Y+1206500D01*
X+444500Y+1270000D02*
X+571500Y+1270000D01*
X+463099Y+1314901D02*
X+552901Y+1225099D01*
X+463099Y+1225099D02*
X+552901Y+1314901D01*
X+2495099Y+2330901D02*
X+2584901Y+2241099D01*
X+2495099Y+2241099D02*
X+2584901Y+2330901D01*
X+2241099Y+2330901D02*
X+2330901Y+2241099D01*
X+2241099Y+2241099D02*
X+2330901Y+2330901D01*
X+1987099Y+2330901D02*
X+2076901Y+2241099D01*
X+1987099Y+2241099D02*
X+2076901Y+2330901D01*
X+1733099Y+2330901D02*
X+1822901Y+2241099D01*
X+1733099Y+2241099D02*
X+1822901Y+2330901D01*
X+1479099Y+2330901D02*
X+1568901Y+2241099D01*
X+1479099Y+2241099D02*
X+1568901Y+2330901D01*
X+1098099Y+2330901D02*
X+1187901Y+2241099D01*
X+1098099Y+2241099D02*
X+1187901Y+2330901D01*
X+844099Y+2330901D02*
X+933901Y+2241099D01*
X+844099Y+2241099D02*
X+933901Y+2330901D01*
X+590099Y+2330901D02*
X+679901Y+2241099D01*
X+590099Y+2241099D02*
X+679901Y+2330901D01*
X+336099Y+2330901D02*
X+425901Y+2241099D01*
X+336099Y+2241099D02*
X+425901Y+2330901D01*
X+82099Y+2330901D02*
X+171901Y+2241099D01*
X+82099Y+2241099D02*
X+171901Y+2330901D01*
X-44901Y+44901D02*
X+44901Y-44901D01*
X-44901Y-44901D02*
X+44901Y+44901D01*
X+209099Y+44901D02*
X+298901Y-44901D01*
X+209099Y-44901D02*
X+298901Y+44901D01*
X+463099Y+44901D02*
X+552901Y-44901D01*
X+463099Y-44901D02*
X+552901Y+44901D01*
X+717099Y+44901D02*
X+806901Y-44901D01*
X+717099Y-44901D02*
X+806901Y+44901D01*
X+971099Y+44901D02*
X+1060901Y-44901D01*
X+971099Y-44901D02*
X+1060901Y+44901D01*
X+1225099Y+44901D02*
X+1314901Y-44901D01*
X+1225099Y-44901D02*
X+1314901Y+44901D01*
X+1479099Y+44901D02*
X+1568901Y-44901D01*
X+1479099Y-44901D02*
X+1568901Y+44901D01*
X+1733099Y+44901D02*
X+1822901Y-44901D01*
X+1733099Y-44901D02*
X+1822901Y+44901D01*
X+1987099Y+44901D02*
X+2076901Y-44901D01*
X+1987099Y-44901D02*
X+2076901Y+44901D01*
X+2241099Y+44901D02*
X+2330901Y-44901D01*
X+2241099Y-44901D02*
X+2330901Y+44901D01*
X+2495099Y+44901D02*
X+2584901Y-44901D01*
X+2495099Y-44901D02*
X+2584901Y+44901D01*
X+2749099Y+44901D02*
X+2838901Y-44901D01*
X+2749099Y-44901D02*
X+2838901Y+44901D01*
X+2495099Y+2330901D02*
X+2584901Y+2241099D01*
X+2495099Y+2241099D02*
X+2584901Y+2330901D01*
X+2241099Y+2330901D02*
X+2330901Y+2241099D01*
X+2241099Y+2241099D02*
X+2330901Y+2330901D01*
X+1987099Y+2330901D02*
X+2076901Y+2241099D01*
X+1987099Y+2241099D02*
X+2076901Y+2330901D01*
X+1733099Y+2330901D02*
X+1822901Y+2241099D01*
X+1733099Y+2241099D02*
X+1822901Y+2330901D01*
X+1479099Y+2330901D02*
X+1568901Y+2241099D01*
X+1479099Y+2241099D02*
X+1568901Y+2330901D01*
X+1098099Y+2330901D02*
X+1187901Y+2241099D01*
X+1098099Y+2241099D02*
X+1187901Y+2330901D01*
X+844099Y+2330901D02*
X+933901Y+2241099D01*
X+844099Y+2241099D02*
X+933901Y+2330901D01*
X+590099Y+2330901D02*
X+679901Y+2241099D01*
X+590099Y+2241099D02*
X+679901Y+2330901D01*
X+336099Y+2330901D02*
X+425901Y+2241099D01*
X+336099Y+2241099D02*
X+425901Y+2330901D01*
X+82099Y+2330901D02*
X+171901Y+2241099D01*
X+82099Y+2241099D02*
X+171901Y+2330901D01*
X-44901Y+44901D02*
X+44901Y-44901D01*
X-44901Y-44901D02*
X+44901Y+44901D01*
X+209099Y+44901D02*
X+298901Y-44901D01*
X+209099Y-44901D02*
X+298901Y+44901D01*
X+463099Y+44901D02*
X+552901Y-44901D01*
X+463099Y-44901D02*
X+552901Y+44901D01*
X+717099Y+44901D02*
X+806901Y-44901D01*
X+717099Y-44901D02*
X+806901Y+44901D01*
X+971099Y+44901D02*
X+1060901Y-44901D01*
X+971099Y-44901D02*
X+1060901Y+44901D01*
X+1225099Y+44901D02*
X+1314901Y-44901D01*
X+1225099Y-44901D02*
X+1314901Y+44901D01*
X+1479099Y+44901D02*
X+1568901Y-44901D01*
X+1479099Y-44901D02*
X+1568901Y+44901D01*
X+1733099Y+44901D02*
X+1822901Y-44901D01*
X+1733099Y-44901D02*
X+1822901Y+44901D01*
X+1987099Y+44901D02*
X+2076901Y-44901D01*
X+1987099Y-44901D02*
X+2076901Y+44901D01*
X+2241099Y+44901D02*
X+2330901Y-44901D01*
X+2241099Y-44901D02*
X+2330901Y+44901D01*
X+2495099Y+44901D02*
X+2584901Y-44901D01*
X+2495099Y-44901D02*
X+2584901Y+44901D01*
X+2749099Y+44901D02*
X+2838901Y-44901D01*
X+2749099Y-44901D02*
X+2838901Y+44901D01*
X+2794000Y+2349500D02*
X+2794000Y+2222500D01*
X+2730500Y+2286000D02*
X+2857500Y+2286000D01*
X+2794000Y+2222500D02*
X+2794000Y+2095500D01*
X+2730500Y+2159000D02*
X+2857500Y+2159000D01*
X+2921000Y+2349500D02*
X+2921000Y+2222500D01*
X+2857500Y+2286000D02*
X+2984500Y+2286000D01*
X+2921000Y+2222500D02*
X+2921000Y+2095500D01*
X+2857500Y+2159000D02*
X+2984500Y+2159000D01*
X+3048000Y+2349500D02*
X+3048000Y+2222500D01*
X+2984500Y+2286000D02*
X+3111500Y+2286000D01*
X+3048000Y+2222500D02*
X+3048000Y+2095500D01*
X+2984500Y+2159000D02*
X+3111500Y+2159000D01*
X+3175000Y+2349500D02*
X+3175000Y+2222500D01*
X+3111500Y+2286000D02*
X+3238500Y+2286000D01*
X+3175000Y+2222500D02*
X+3175000Y+2095500D01*
X+3111500Y+2159000D02*
X+3238500Y+2159000D01*
D73*
X-152400Y-25400D02*
X-149873Y-51367D01*
X-142602Y-75381D01*
X-131052Y-96977D01*
X-115689Y-115689D01*
X-96977Y-131052D01*
X-75381Y-142602D01*
X-51367Y-149873D01*
X-25400Y-152400D01*
X+3429000Y-152400D01*
X+3454967Y-149873D01*
X+3478981Y-142602D01*
X+3500577Y-131052D01*
X+3519289Y-115689D01*
X+3534652Y-96977D01*
X+3546202Y-75381D01*
X+3553473Y-51367D01*
X+3556000Y-25400D01*
X+3556000Y+2311400D01*
X+3553473Y+2337367D01*
X+3546202Y+2361381D01*
X+3534652Y+2382977D01*
X+3519289Y+2401689D01*
X+3500577Y+2417052D01*
X+3478981Y+2428602D01*
X+3454967Y+2435873D01*
X+3429000Y+2438400D01*
X+101600Y+2438400D01*
X+75632Y+2435873D01*
X+51618Y+2428602D01*
X+30023Y+2417052D01*
X+11311Y+2401689D01*
X-4052Y+2382977D01*
X-15602Y+2361381D01*
X-22873Y+2337367D01*
X-25400Y+2311400D01*
X-25400Y+1574800D01*
X-152400Y+1447800D01*
X-152400Y-25400D01*
X+3492500Y-25400D02*
X+3492283Y-20153D01*
X+3490518Y-9658D01*
X+3486826Y+837D01*
X+3480798Y+11332D01*
X+3471576Y+21712D01*
X+3461081Y+29400D01*
X+3450586Y+34318D01*
X+3440091Y+37124D01*
X+3429596Y+38097D01*
X+3429000Y+38100D01*
X+3365500Y-25400D02*
X+3365717Y-20153D01*
X+3367482Y-9658D01*
X+3371174Y+837D01*
X+3377202Y+11332D01*
X+3386424Y+21712D01*
X+3396919Y+29400D01*
X+3407414Y+34318D01*
X+3417909Y+37124D01*
X+3428404Y+38097D01*
X+3429000Y+38100D01*
X+3365500Y-25400D02*
X+3365717Y-30647D01*
X+3367482Y-41142D01*
X+3371174Y-51637D01*
X+3377202Y-62132D01*
X+3386424Y-72512D01*
X+3396919Y-80200D01*
X+3407414Y-85118D01*
X+3417909Y-87924D01*
X+3428404Y-88897D01*
X+3429000Y-88900D01*
X+3492500Y-25400D02*
X+3492283Y-30647D01*
X+3490518Y-41142D01*
X+3486826Y-51637D01*
X+3480798Y-62132D01*
X+3471576Y-72512D01*
X+3461081Y-80200D01*
X+3450586Y-85118D01*
X+3440091Y-87924D01*
X+3429596Y-88897D01*
X+3429000Y-88900D01*
X+3492500Y+2311400D02*
X+3492283Y+2316647D01*
X+3490518Y+2327142D01*
X+3486826Y+2337637D01*
X+3480798Y+2348132D01*
X+3471576Y+2358512D01*
X+3461081Y+2366200D01*
X+3450586Y+2371118D01*
X+3440091Y+2373924D01*
X+3429596Y+2374897D01*
X+3429000Y+2374900D01*
X+3365500Y+2311400D02*
X+3365717Y+2316647D01*
X+3367482Y+2327142D01*
X+3371174Y+2337637D01*
X+3377202Y+2348132D01*
X+3386424Y+2358512D01*
X+3396919Y+2366200D01*
X+3407414Y+2371118D01*
X+3417909Y+2373924D01*
X+3428404Y+2374897D01*
X+3429000Y+2374900D01*
X+3365500Y+2311400D02*
X+3365717Y+2306153D01*
X+3367482Y+2295658D01*
X+3371174Y+2285163D01*
X+3377202Y+2274668D01*
X+3386424Y+2264288D01*
X+3396919Y+2256600D01*
X+3407414Y+2251682D01*
X+3417909Y+2248876D01*
X+3428404Y+2247903D01*
X+3429000Y+2247900D01*
X+3492500Y+2311400D02*
X+3492283Y+2306153D01*
X+3490518Y+2295658D01*
X+3486826Y+2285163D01*
X+3480798Y+2274668D01*
X+3471576Y+2264288D01*
X+3461081Y+2256600D01*
X+3450586Y+2251682D01*
X+3440091Y+2248876D01*
X+3429596Y+2247903D01*
X+3429000Y+2247900D01*
X+38100Y+1346200D02*
X+37883Y+1351447D01*
X+36118Y+1361942D01*
X+32426Y+1372437D01*
X+26398Y+1382932D01*
X+17176Y+1393312D01*
X+6681Y+1401000D01*
X-3814Y+1405918D01*
X-14309Y+1408724D01*
X-24804Y+1409697D01*
X-25400Y+1409700D01*
X-88900Y+1346200D02*
X-88683Y+1351447D01*
X-86918Y+1361942D01*
X-83226Y+1372437D01*
X-77198Y+1382932D01*
X-67976Y+1393312D01*
X-57481Y+1401000D01*
X-46986Y+1405918D01*
X-36491Y+1408724D01*
X-25996Y+1409697D01*
X-25400Y+1409700D01*
X-88900Y+1346200D02*
X-88683Y+1340953D01*
X-86918Y+1330458D01*
X-83226Y+1319963D01*
X-77198Y+1309468D01*
X-67976Y+1299088D01*
X-57481Y+1291400D01*
X-46986Y+1286482D01*
X-36491Y+1283676D01*
X-25996Y+1282703D01*
X-25400Y+1282700D01*
X+38100Y+1346200D02*
X+37883Y+1340953D01*
X+36118Y+1330458D01*
X+32426Y+1319963D01*
X+26398Y+1309468D01*
X+17176Y+1299088D01*
X+6681Y+1291400D01*
X-3814Y+1286482D01*
X-14309Y+1283676D01*
X-24804Y+1282703D01*
X-25400Y+1282700D01*
X+3135700Y+943000D02*
X+3135597Y+945489D01*
X+3134755Y+950469D01*
X+3132995Y+955449D01*
X+3130118Y+960429D01*
X+3125717Y+965345D01*
X+3120737Y+968959D01*
X+3115757Y+971264D01*
X+3110777Y+972567D01*
X+3105797Y+973000D01*
X+3105700Y+973000D01*
X+3075700Y+943000D02*
X+3075803Y+945489D01*
X+3076645Y+950469D01*
X+3078405Y+955449D01*
X+3081282Y+960429D01*
X+3085683Y+965345D01*
X+3090663Y+968959D01*
X+3095643Y+971264D01*
X+3100623Y+972567D01*
X+3105603Y+973000D01*
X+3105700Y+973000D01*
X+3075700Y+943000D02*
X+3075803Y+940511D01*
X+3076645Y+935531D01*
X+3078405Y+930551D01*
X+3081282Y+925571D01*
X+3085683Y+920655D01*
X+3090663Y+917041D01*
X+3095643Y+914736D01*
X+3100623Y+913433D01*
X+3105603Y+913000D01*
X+3105700Y+913000D01*
X+3135700Y+943000D02*
X+3135597Y+940511D01*
X+3134755Y+935531D01*
X+3132995Y+930551D01*
X+3130118Y+925571D01*
X+3125717Y+920655D01*
X+3120737Y+917041D01*
X+3115757Y+914736D01*
X+3110777Y+913433D01*
X+3105797Y+913000D01*
X+3105700Y+913000D01*
X+3135700Y+1343000D02*
X+3135597Y+1345489D01*
X+3134755Y+1350469D01*
X+3132995Y+1355449D01*
X+3130118Y+1360429D01*
X+3125717Y+1365345D01*
X+3120737Y+1368959D01*
X+3115757Y+1371264D01*
X+3110777Y+1372567D01*
X+3105797Y+1373000D01*
X+3105700Y+1373000D01*
X+3075700Y+1343000D02*
X+3075803Y+1345489D01*
X+3076645Y+1350469D01*
X+3078405Y+1355449D01*
X+3081282Y+1360429D01*
X+3085683Y+1365345D01*
X+3090663Y+1368959D01*
X+3095643Y+1371264D01*
X+3100623Y+1372567D01*
X+3105603Y+1373000D01*
X+3105700Y+1373000D01*
X+3075700Y+1343000D02*
X+3075803Y+1340511D01*
X+3076645Y+1335531D01*
X+3078405Y+1330551D01*
X+3081282Y+1325571D01*
X+3085683Y+1320655D01*
X+3090663Y+1317041D01*
X+3095643Y+1314736D01*
X+3100623Y+1313433D01*
X+3105603Y+1313000D01*
X+3105700Y+1313000D01*
X+3135700Y+1343000D02*
X+3135597Y+1340511D01*
X+3134755Y+1335531D01*
X+3132995Y+1330551D01*
X+3130118Y+1325571D01*
X+3125717Y+1320655D01*
X+3120737Y+1317041D01*
X+3115757Y+1314736D01*
X+3110777Y+1313433D01*
X+3105797Y+1313000D01*
X+3105700Y+1313000D01*
X+73800Y+551800D02*
X+73645Y+555527D01*
X+72389Y+562982D01*
X+69759Y+570437D01*
X+65463Y+577892D01*
X+58893Y+585258D01*
X+51438Y+590691D01*
X+43983Y+594161D01*
X+36528Y+596131D01*
X+29073Y+596799D01*
X+28800Y+596800D01*
X-16200Y+551800D02*
X-16045Y+555527D01*
X-14789Y+562982D01*
X-12159Y+570437D01*
X-7863Y+577892D01*
X-1293Y+585258D01*
X+6162Y+590691D01*
X+13617Y+594161D01*
X+21072Y+596131D01*
X+28527Y+596799D01*
X+28800Y+596800D01*
X-16200Y+551800D02*
X-16045Y+548073D01*
X-14789Y+540618D01*
X-12159Y+533163D01*
X-7863Y+525708D01*
X-1293Y+518342D01*
X+6162Y+512909D01*
X+13617Y+509439D01*
X+21072Y+507469D01*
X+28527Y+506801D01*
X+28800Y+506800D01*
X+73800Y+551800D02*
X+73645Y+548073D01*
X+72389Y+540618D01*
X+69759Y+533163D01*
X+65463Y+525708D01*
X+58893Y+518342D01*
X+51438Y+512909D01*
X+43983Y+509439D01*
X+36528Y+507469D01*
X+29073Y+506801D01*
X+28800Y+506800D01*
X+73800Y+851800D02*
X+73645Y+855527D01*
X+72389Y+862982D01*
X+69759Y+870437D01*
X+65463Y+877892D01*
X+58893Y+885258D01*
X+51438Y+890691D01*
X+43983Y+894161D01*
X+36528Y+896131D01*
X+29073Y+896799D01*
X+28800Y+896800D01*
X-16200Y+851800D02*
X-16045Y+855527D01*
X-14789Y+862982D01*
X-12159Y+870437D01*
X-7863Y+877892D01*
X-1293Y+885258D01*
X+6162Y+890691D01*
X+13617Y+894161D01*
X+21072Y+896131D01*
X+28527Y+896799D01*
X+28800Y+896800D01*
X-16200Y+851800D02*
X-16045Y+848073D01*
X-14789Y+840618D01*
X-12159Y+833163D01*
X-7863Y+825708D01*
X-1293Y+818342D01*
X+6162Y+812909D01*
X+13617Y+809439D01*
X+21072Y+807469D01*
X+28527Y+806801D01*
X+28800Y+806800D01*
X+73800Y+851800D02*
X+73645Y+848073D01*
X+72389Y+840618D01*
X+69759Y+833163D01*
X+65463Y+825708D01*
X+58893Y+818342D01*
X+51438Y+812909D01*
X+43983Y+809439D01*
X+36528Y+807469D01*
X+29073Y+806801D01*
X+28800Y+806800D01*
D33*
X-257550Y-1419225D02*
X+2386590Y-1419225D01*
X+2386590Y-415925D01*
X-257550Y-415925D01*
X-257550Y-1419225D01*
D77*
X+209812Y-415925D02*
X+209812Y-1419225D01*
X+1022612Y-415925D02*
X+1022612Y-1419225D01*
X+1855732Y-415925D02*
X+1855732Y-1419225D01*
X-257550Y-688975D02*
X+2386590Y-688975D01*
X-257550Y-930275D02*
X+2386590Y-930275D01*
X-257550Y-1171575D02*
X+2386590Y-1171575D01*
D33*
X-200400Y-579755D02*
X-185160Y-594995D01*
X-124200Y-594995D01*
X-108960Y-579755D01*
X-108960Y-564515D01*
X-124200Y-549275D01*
X-185160Y-549275D01*
X-200400Y-534035D01*
X-200400Y-518795D01*
X-185160Y-503555D01*
X-124200Y-503555D01*
X-108960Y-518795D01*
X+12960Y-503555D02*
X-78480Y-594995D01*
X-78480Y-503555D02*
X-32760Y-549275D01*
X+43440Y-594995D02*
X+43440Y-503555D01*
X+89160Y-549275D01*
X+134880Y-503555D01*
X+134880Y-594995D01*
X+266960Y-579755D02*
X+282200Y-594995D01*
X+343160Y-594995D01*
X+358400Y-579755D01*
X+358400Y-564515D01*
X+343160Y-549275D01*
X+282200Y-549275D01*
X+266960Y-534035D01*
X+266960Y-518795D01*
X+282200Y-503555D01*
X+343160Y-503555D01*
X+358400Y-518795D01*
X+404120Y-503555D02*
X+465080Y-503555D01*
X+434600Y-503555D02*
X+434600Y-594995D01*
X+404120Y-594995D02*
X+465080Y-594995D01*
X+510800Y-503555D02*
X+602240Y-503555D01*
X+510800Y-594995D01*
X+602240Y-594995D01*
X+724160Y-594995D02*
X+632720Y-594995D01*
X+632720Y-503555D01*
X+724160Y-503555D01*
X+632720Y-549275D02*
X+693680Y-549275D01*
X+1079760Y-594995D02*
X+1079760Y-503555D01*
X+1155960Y-503555D01*
X+1171200Y-518795D01*
X+1171200Y-534035D01*
X+1155960Y-549275D01*
X+1079760Y-549275D01*
X+1201680Y-503555D02*
X+1201680Y-594995D01*
X+1293120Y-594995D01*
X+1323600Y-594995D02*
X+1323600Y-534035D01*
X+1354080Y-503555D01*
X+1384560Y-503555D01*
X+1415040Y-534035D01*
X+1415040Y-594995D01*
X+1323600Y-564515D02*
X+1415040Y-564515D01*
X+1445520Y-503555D02*
X+1536960Y-503555D01*
X+1491240Y-503555D02*
X+1491240Y-594995D01*
X+1658880Y-594995D02*
X+1567440Y-594995D01*
X+1567440Y-503555D01*
X+1658880Y-503555D01*
X+1567440Y-549275D02*
X+1628400Y-549275D01*
X+1689360Y-594995D02*
X+1689360Y-503555D01*
X+1750320Y-503555D01*
X+1780800Y-534035D01*
X+1780800Y-564515D01*
X+1750320Y-594995D01*
X+1689360Y-594995D01*
X+1912880Y-534035D02*
X+1943360Y-503555D01*
X+1973840Y-503555D01*
X+2004320Y-534035D01*
X+2004320Y-564515D01*
X+1973840Y-594995D01*
X+1943360Y-594995D01*
X+1912880Y-564515D01*
X+1912880Y-534035D01*
X+1973840Y-564515D02*
X+2004320Y-594995D01*
X+2034800Y-503555D02*
X+2126240Y-503555D01*
X+2080520Y-503555D02*
X+2080520Y-594995D01*
X+2248160Y-503555D02*
X+2156720Y-594995D01*
X+2156720Y-503555D02*
X+2202440Y-549275D01*
X-11170Y-739775D02*
X-11170Y-866775D01*
X-74670Y-803275D02*
X+52330Y-803275D01*
X+286010Y-828675D02*
X+286010Y-777875D01*
X+298710Y-765175D01*
X+349510Y-765175D01*
X+362210Y-777875D01*
X+362210Y-828675D01*
X+349510Y-841375D01*
X+298710Y-841375D01*
X+286010Y-828675D01*
X+286010Y-841375D02*
X+362210Y-765175D01*
X+425710Y-828675D02*
X+438410Y-828675D01*
X+438410Y-841375D01*
X+425710Y-841375D01*
X+425710Y-828675D01*
X+565410Y-777875D02*
X+552710Y-765175D01*
X+514610Y-765175D01*
X+501910Y-777875D01*
X+501910Y-828675D01*
X+514610Y-841375D01*
X+552710Y-841375D01*
X+565410Y-828675D01*
X+565410Y-815975D01*
X+552710Y-803275D01*
X+501910Y-803275D01*
X+590810Y-841375D02*
X+590810Y-790575D01*
X+590810Y-803275D02*
X+603510Y-790575D01*
X+628910Y-815975D01*
X+654310Y-790575D01*
X+667010Y-803275D01*
X+667010Y-841375D01*
X+692410Y-841375D02*
X+692410Y-790575D01*
X+692410Y-803275D02*
X+705110Y-790575D01*
X+730510Y-815975D01*
X+755910Y-790575D01*
X+768610Y-803275D01*
X+768610Y-841375D01*
X+1187710Y-765175D02*
X+1111510Y-841375D01*
X+1111510Y-765175D02*
X+1149610Y-803275D01*
X+1289310Y-841375D02*
X+1213110Y-841375D01*
X+1213110Y-765175D01*
X+1289310Y-765175D01*
X+1213110Y-803275D02*
X+1263910Y-803275D01*
X+1314710Y-828675D02*
X+1327410Y-841375D01*
X+1378210Y-841375D01*
X+1390910Y-828675D01*
X+1390910Y-815975D01*
X+1378210Y-803275D01*
X+1327410Y-803275D01*
X+1314710Y-790575D01*
X+1314710Y-777875D01*
X+1327410Y-765175D01*
X+1378210Y-765175D01*
X+1390910Y-777875D01*
X+1982730Y-803275D02*
X+1970030Y-790575D01*
X+1970030Y-777875D01*
X+1982730Y-765175D01*
X+2020830Y-765175D01*
X+2033530Y-777875D01*
X+2033530Y-790575D01*
X+2020830Y-803275D01*
X+1982730Y-803275D01*
X+1970030Y-815975D01*
X+1970030Y-828675D01*
X+1982730Y-841375D01*
X+2020830Y-841375D01*
X+2033530Y-828675D01*
X+2033530Y-815975D01*
X+2020830Y-803275D01*
X-56071Y-999674D02*
X+33731Y-1089476D01*
X-56071Y-1089476D02*
X+33731Y-999674D01*
X+286010Y-1069975D02*
X+286010Y-1019175D01*
X+298710Y-1006475D01*
X+349510Y-1006475D01*
X+362210Y-1019175D01*
X+362210Y-1069975D01*
X+349510Y-1082675D01*
X+298710Y-1082675D01*
X+286010Y-1069975D01*
X+286010Y-1082675D02*
X+362210Y-1006475D01*
X+425710Y-1069975D02*
X+438410Y-1069975D01*
X+438410Y-1082675D01*
X+425710Y-1082675D01*
X+425710Y-1069975D01*
X+565410Y-1031875D02*
X+552710Y-1044575D01*
X+514610Y-1044575D01*
X+501910Y-1031875D01*
X+501910Y-1019175D01*
X+514610Y-1006475D01*
X+552710Y-1006475D01*
X+565410Y-1019175D01*
X+565410Y-1069975D01*
X+552710Y-1082675D01*
X+514610Y-1082675D01*
X+667010Y-1006475D02*
X+603510Y-1006475D01*
X+603510Y-1031875D01*
X+654310Y-1031875D01*
X+667010Y-1044575D01*
X+667010Y-1069975D01*
X+654310Y-1082675D01*
X+616210Y-1082675D01*
X+603510Y-1069975D01*
X+692410Y-1082675D02*
X+692410Y-1031875D01*
X+692410Y-1044575D02*
X+705110Y-1031875D01*
X+730510Y-1057275D01*
X+755910Y-1031875D01*
X+768610Y-1044575D01*
X+768610Y-1082675D01*
X+794010Y-1082675D02*
X+794010Y-1031875D01*
X+794010Y-1044575D02*
X+806710Y-1031875D01*
X+832110Y-1057275D01*
X+857510Y-1031875D01*
X+870210Y-1044575D01*
X+870210Y-1082675D01*
X+1187710Y-1006475D02*
X+1111510Y-1082675D01*
X+1111510Y-1006475D02*
X+1149610Y-1044575D01*
X+1289310Y-1082675D02*
X+1213110Y-1082675D01*
X+1213110Y-1006475D01*
X+1289310Y-1006475D01*
X+1213110Y-1044575D02*
X+1263910Y-1044575D01*
X+1314710Y-1069975D02*
X+1327410Y-1082675D01*
X+1378210Y-1082675D01*
X+1390910Y-1069975D01*
X+1390910Y-1057275D01*
X+1378210Y-1044575D01*
X+1327410Y-1044575D01*
X+1314710Y-1031875D01*
X+1314710Y-1019175D01*
X+1327410Y-1006475D01*
X+1378210Y-1006475D01*
X+1390910Y-1019175D01*
X+2033530Y-1057275D02*
X+1957330Y-1057275D01*
X+2008130Y-1006475D01*
X+2008130Y-1082675D01*
X+2135130Y-1057275D02*
X+2058930Y-1057275D01*
X+2109730Y-1006475D01*
X+2109730Y-1082675D01*
X-11170Y-1222375D02*
X-11170Y-1349375D01*
X-74670Y-1285875D02*
X+52330Y-1285875D01*
X-56071Y-1240974D02*
X+33731Y-1330776D01*
X-56071Y-1330776D02*
X+33731Y-1240974D01*
X+286010Y-1311275D02*
X+286010Y-1260475D01*
X+298710Y-1247775D01*
X+349510Y-1247775D01*
X+362210Y-1260475D01*
X+362210Y-1311275D01*
X+349510Y-1323975D01*
X+298710Y-1323975D01*
X+286010Y-1311275D01*
X+286010Y-1323975D02*
X+362210Y-1247775D01*
X+425710Y-1311275D02*
X+438410Y-1311275D01*
X+438410Y-1323975D01*
X+425710Y-1323975D01*
X+425710Y-1311275D01*
X+501910Y-1260475D02*
X+514610Y-1247775D01*
X+552710Y-1247775D01*
X+565410Y-1260475D01*
X+565410Y-1273175D01*
X+552710Y-1285875D01*
X+565410Y-1298575D01*
X+565410Y-1311275D01*
X+552710Y-1323975D01*
X+514610Y-1323975D01*
X+501910Y-1311275D01*
X+527310Y-1285875D02*
X+552710Y-1285875D01*
X+590810Y-1311275D02*
X+590810Y-1260475D01*
X+603510Y-1247775D01*
X+654310Y-1247775D01*
X+667010Y-1260475D01*
X+667010Y-1311275D01*
X+654310Y-1323975D01*
X+603510Y-1323975D01*
X+590810Y-1311275D01*
X+590810Y-1323975D02*
X+667010Y-1247775D01*
X+768610Y-1247775D02*
X+705110Y-1247775D01*
X+705110Y-1273175D01*
X+755910Y-1273175D01*
X+768610Y-1285875D01*
X+768610Y-1311275D01*
X+755910Y-1323975D01*
X+717810Y-1323975D01*
X+705110Y-1311275D01*
X+794010Y-1323975D02*
X+794010Y-1273175D01*
X+794010Y-1285875D02*
X+806710Y-1273175D01*
X+832110Y-1298575D01*
X+857510Y-1273175D01*
X+870210Y-1285875D01*
X+870210Y-1323975D01*
X+895610Y-1323975D02*
X+895610Y-1273175D01*
X+895610Y-1285875D02*
X+908310Y-1273175D01*
X+933710Y-1298575D01*
X+959110Y-1273175D01*
X+971810Y-1285875D01*
X+971810Y-1323975D01*
X+1187710Y-1247775D02*
X+1111510Y-1323975D01*
X+1111510Y-1247775D02*
X+1149610Y-1285875D01*
X+1289310Y-1323975D02*
X+1213110Y-1323975D01*
X+1213110Y-1247775D01*
X+1289310Y-1247775D01*
X+1213110Y-1285875D02*
X+1263910Y-1285875D01*
X+1314710Y-1311275D02*
X+1327410Y-1323975D01*
X+1378210Y-1323975D01*
X+1390910Y-1311275D01*
X+1390910Y-1298575D01*
X+1378210Y-1285875D01*
X+1327410Y-1285875D01*
X+1314710Y-1273175D01*
X+1314710Y-1260475D01*
X+1327410Y-1247775D01*
X+1378210Y-1247775D01*
X+1390910Y-1260475D01*
X+1982730Y-1285875D02*
X+1970030Y-1273175D01*
X+1970030Y-1260475D01*
X+1982730Y-1247775D01*
X+2020830Y-1247775D01*
X+2033530Y-1260475D01*
X+2033530Y-1273175D01*
X+2020830Y-1285875D01*
X+1982730Y-1285875D01*
X+1970030Y-1298575D01*
X+1970030Y-1311275D01*
X+1982730Y-1323975D01*
X+2020830Y-1323975D01*
X+2033530Y-1311275D01*
X+2033530Y-1298575D01*
X+2020830Y-1285875D01*
X+2058930Y-1311275D02*
X+2058930Y-1260475D01*
X+2071630Y-1247775D01*
X+2122430Y-1247775D01*
X+2135130Y-1260475D01*
X+2135130Y-1311275D01*
X+2122430Y-1323975D01*
X+2071630Y-1323975D01*
X+2058930Y-1311275D01*
X+2058930Y-1323975D02*
X+2135130Y-1247775D01*
M02*
