G04 PROTEUS RS274X GERBER FILE*
%FSLAX45Y45*%
%MOMM*%
G01*
%AMPPAD064*
4,1,36,
-0.127280,0.367700,
-0.140380,0.379580,
-0.154250,0.389880,
-0.168780,0.398600,
-0.183860,0.405720,
-0.199380,0.411270,
-0.215240,0.415230,
-0.231310,0.417620,
-0.247490,0.418410,
-0.263670,0.417610,
-0.279740,0.415230,
-0.295590,0.411270,
-0.311110,0.405720,
-0.326190,0.398600,
-0.340730,0.389880,
-0.354590,0.379580,
-0.367700,0.367700,
-0.379580,0.354590,
-0.389880,0.340730,
-0.398600,0.326190,
-0.405720,0.311110,
-0.411270,0.295590,
-0.415230,0.279740,
-0.417610,0.263670,
-0.418410,0.247490,
-0.417620,0.231310,
-0.415230,0.215240,
-0.411270,0.199380,
-0.405720,0.183860,
-0.398600,0.168780,
-0.389880,0.154250,
-0.379580,0.140380,
-0.367700,0.127280,
0.240420,-0.494970,
0.494970,-0.240420,
-0.120210,0.374770,
-0.127280,0.367700,
0*%
%ADD74PPAD064*%
%AMPPAD065*
4,1,35,
-0.374770,-0.120210,
-0.387350,-0.134080,
-0.398260,-0.148760,
-0.407480,-0.164150,
-0.415040,-0.180120,
-0.420910,-0.196550,
-0.425110,-0.213340,
-0.427620,-0.230350,
-0.428460,-0.247490,
-0.427620,-0.264620,
-0.425110,-0.281630,
-0.420910,-0.298430,
-0.415040,-0.314850,
-0.407490,-0.330830,
-0.398260,-0.346210,
-0.387350,-0.360890,
-0.374770,-0.374770,
-0.360890,-0.387350,
-0.346210,-0.398260,
-0.330830,-0.407490,
-0.314850,-0.415040,
-0.298430,-0.420910,
-0.281630,-0.425110,
-0.264620,-0.427620,
-0.247490,-0.428460,
-0.230350,-0.427620,
-0.213340,-0.425110,
-0.196550,-0.420910,
-0.180120,-0.415040,
-0.164150,-0.407480,
-0.148760,-0.398260,
-0.134080,-0.387350,
-0.120210,-0.374770,
0.494970,0.240420,
0.240420,0.494970,
-0.374770,-0.120210,
0*%
%ADD75PPAD065*%
%AMPPAD066*
4,1,36,
-0.494970,0.240420,
0.120210,-0.374770,
0.127280,-0.367700,
0.140380,-0.379580,
0.154250,-0.389880,
0.168780,-0.398600,
0.183860,-0.405720,
0.199380,-0.411270,
0.215240,-0.415230,
0.231310,-0.417620,
0.247490,-0.418410,
0.263670,-0.417610,
0.279740,-0.415230,
0.295590,-0.411270,
0.311110,-0.405720,
0.326190,-0.398600,
0.340730,-0.389880,
0.354590,-0.379580,
0.367700,-0.367700,
0.379580,-0.354590,
0.389880,-0.340730,
0.398600,-0.326190,
0.405720,-0.311110,
0.411270,-0.295590,
0.415230,-0.279740,
0.417610,-0.263670,
0.418410,-0.247490,
0.417620,-0.231310,
0.415230,-0.215240,
0.411270,-0.199380,
0.405720,-0.183860,
0.398600,-0.168780,
0.389880,-0.154250,
0.379580,-0.140380,
0.367700,-0.127280,
-0.240420,0.494970,
-0.494970,0.240420,
0*%
%ADD76PPAD066*%
%AMPPAD067*
4,1,35,
0.360890,0.387350,
0.346210,0.398260,
0.330830,0.407490,
0.314850,0.415040,
0.298430,0.420910,
0.281630,0.425110,
0.264620,0.427620,
0.247490,0.428460,
0.230350,0.427620,
0.213340,0.425110,
0.196550,0.420910,
0.180120,0.415040,
0.164150,0.407480,
0.148760,0.398260,
0.134080,0.387350,
0.120210,0.374770,
-0.494970,-0.240420,
-0.240420,-0.494970,
0.374770,0.120210,
0.387350,0.134080,
0.398260,0.148760,
0.407480,0.164150,
0.415040,0.180120,
0.420910,0.196550,
0.425110,0.213340,
0.427620,0.230350,
0.428460,0.247490,
0.427620,0.264620,
0.425110,0.281630,
0.420910,0.298430,
0.415040,0.314850,
0.407490,0.330830,
0.398260,0.346210,
0.387350,0.360890,
0.374770,0.374770,
0.360890,0.387350,
0*%
%ADD77PPAD067*%
%AMPPAD012*
4,1,4,
-2.616300,0.000000,
0.000000,2.616300,
2.616300,0.000000,
0.000000,-2.616300,
-2.616300,0.000000,
0*%
%ADD20PPAD012*%
%AMPPAD068*
4,1,36,
0.423480,0.039380,
0.419120,0.053790,
0.412190,0.066740,
0.402970,0.077970,
0.391750,0.087190,
0.378790,0.094120,
0.364380,0.098480,
0.348800,0.100000,
-0.348800,0.100000,
-0.364380,0.098480,
-0.378790,0.094120,
-0.391750,0.087190,
-0.402970,0.077970,
-0.412190,0.066740,
-0.419120,0.053790,
-0.423480,0.039380,
-0.425000,0.023800,
-0.425000,-0.023800,
-0.423480,-0.039380,
-0.419120,-0.053790,
-0.412190,-0.066740,
-0.402970,-0.077970,
-0.391750,-0.087190,
-0.378790,-0.094120,
-0.364380,-0.098480,
-0.348800,-0.100000,
0.348800,-0.100000,
0.364380,-0.098480,
0.378790,-0.094120,
0.391750,-0.087190,
0.402970,-0.077970,
0.412190,-0.066740,
0.419120,-0.053790,
0.423480,-0.039380,
0.425000,-0.023800,
0.425000,0.023800,
0.423480,0.039380,
0*%
%ADD78PPAD068*%
%AMPPAD069*
4,1,36,
-0.039380,0.423480,
-0.053790,0.419120,
-0.066740,0.412190,
-0.077970,0.402970,
-0.087190,0.391750,
-0.094120,0.378790,
-0.098480,0.364380,
-0.100000,0.348800,
-0.100000,-0.348800,
-0.098480,-0.364380,
-0.094120,-0.378790,
-0.087190,-0.391750,
-0.077970,-0.402970,
-0.066740,-0.412190,
-0.053790,-0.419120,
-0.039380,-0.423480,
-0.023800,-0.425000,
0.023800,-0.425000,
0.039380,-0.423480,
0.053790,-0.419120,
0.066740,-0.412190,
0.077970,-0.402970,
0.087190,-0.391750,
0.094120,-0.378790,
0.098480,-0.364380,
0.100000,-0.348800,
0.100000,0.348800,
0.098480,0.364380,
0.094120,0.378790,
0.087190,0.391750,
0.077970,0.402970,
0.066740,0.412190,
0.053790,0.419120,
0.039380,0.423480,
0.023800,0.425000,
-0.023800,0.425000,
-0.039380,0.423480,
0*%
%ADD79PPAD069*%
%AMPPAD070*
4,1,36,
-0.797930,0.994950,
-0.845960,0.980400,
-0.889150,0.957300,
-0.926580,0.926580,
-0.957300,0.889150,
-0.980400,0.845960,
-0.994950,0.797930,
-1.000000,0.746000,
-1.000000,-0.746000,
-0.994950,-0.797930,
-0.980400,-0.845960,
-0.957300,-0.889150,
-0.926580,-0.926580,
-0.889150,-0.957300,
-0.845960,-0.980400,
-0.797930,-0.994950,
-0.746000,-1.000000,
0.746000,-1.000000,
0.797930,-0.994950,
0.845960,-0.980400,
0.889150,-0.957300,
0.926580,-0.926580,
0.957300,-0.889150,
0.980400,-0.845960,
0.994950,-0.797930,
1.000000,-0.746000,
1.000000,0.746000,
0.994950,0.797930,
0.980400,0.845960,
0.957300,0.889150,
0.926580,0.926580,
0.889150,0.957300,
0.845960,0.980400,
0.797930,0.994950,
0.746000,1.000000,
-0.746000,1.000000,
-0.797930,0.994950,
0*%
%ADD80PPAD070*%
%ADD24R,0.780000X0.780000*%
%ADD25R,1.700000X0.400000*%
%ADD26R,1.900000X1.900000*%
%ADD27R,1.500000X1.500000*%
%ADD72R,0.700000X1.000000*%
%ADD73R,0.800000X0.800000*%
%ADD30R,1.500000X3.200000*%
%ADD31C,0.889000*%
%ADD32R,1.650000X2.200000*%
%AMPPAD027*
4,1,4,
-0.689430,0.053030,
-0.053030,0.689430,
0.689430,-0.053030,
0.053030,-0.689430,
-0.689430,0.053030,
0*%
%ADD33PPAD027*%
%ADD34R,1.050000X0.900000*%
%ADD35R,0.900000X1.050000*%
%AMPPAD030*
4,1,4,
0.053030,0.689430,
0.689430,0.053030,
-0.053030,-0.689430,
-0.689430,-0.053030,
0.053030,0.689430,
0*%
%ADD36PPAD030*%
%ADD37R,1.000000X0.660000*%
%ADD38R,1.397000X0.889000*%
%ADD39C,0.025400*%
D74*
X+4838840Y+2213289D03*
X+4884801Y+2259250D03*
X+4930763Y+2305212D03*
X+4976725Y+2351174D03*
X+5022687Y+2397136D03*
X+5068649Y+2443098D03*
X+5114611Y+2489060D03*
D75*
X+5114611Y+2616339D03*
X+5068649Y+2662301D03*
X+5022687Y+2708263D03*
X+4976725Y+2754225D03*
X+4930763Y+2800187D03*
X+4884801Y+2846149D03*
X+4838840Y+2892111D03*
D76*
X+4711560Y+2892111D03*
X+4665598Y+2846149D03*
X+4619636Y+2800187D03*
X+4573674Y+2754225D03*
X+4527713Y+2708263D03*
X+4481751Y+2662301D03*
X+4435789Y+2616339D03*
D77*
X+4435789Y+2489060D03*
X+4481751Y+2443098D03*
X+4527713Y+2397136D03*
X+4573674Y+2351174D03*
X+4619636Y+2305212D03*
X+4665598Y+2259250D03*
X+4711560Y+2213289D03*
D20*
X+4775200Y+2552700D03*
D78*
X+1891650Y+2485200D03*
X+1891650Y+2525200D03*
X+1891650Y+2565200D03*
X+1891650Y+2605200D03*
X+1891650Y+2645200D03*
X+1891650Y+2685200D03*
X+1891650Y+2725200D03*
D79*
X+1816650Y+2800200D03*
X+1776650Y+2800200D03*
X+1736650Y+2800200D03*
X+1696650Y+2800200D03*
X+1656650Y+2800200D03*
X+1616650Y+2800200D03*
X+1576650Y+2800200D03*
D78*
X+1501650Y+2725200D03*
X+1501650Y+2685200D03*
X+1501650Y+2645200D03*
X+1501650Y+2605200D03*
X+1501650Y+2565200D03*
X+1501650Y+2525200D03*
X+1501650Y+2485200D03*
D79*
X+1576650Y+2410200D03*
X+1616650Y+2410200D03*
X+1656650Y+2410200D03*
X+1696650Y+2410200D03*
X+1736650Y+2410200D03*
X+1776650Y+2410200D03*
X+1816650Y+2410200D03*
D80*
X+1696650Y+2605200D03*
D24*
X+1891650Y+2410200D03*
X+1891650Y+2800200D03*
X+1501650Y+2800200D03*
X+1501650Y+2410200D03*
D25*
X+501650Y+2682700D03*
X+501650Y+2617700D03*
X+501650Y+2552700D03*
X+501650Y+2487700D03*
X+501650Y+2422700D03*
D26*
X+241650Y+2157700D03*
D27*
X+486650Y+2217700D03*
X+486650Y+2887700D03*
D26*
X+241650Y+2947700D03*
D72*
X+485700Y+3944650D03*
X+485700Y+4404650D03*
X+260700Y+4404650D03*
X+260700Y+3944650D03*
X+485700Y+4697500D03*
X+485700Y+5157500D03*
X+260700Y+5157500D03*
X+260700Y+4697500D03*
D73*
X+241650Y+1709450D03*
X+241650Y+1544450D03*
X+241650Y+598100D03*
X+241650Y+433100D03*
D30*
X+771650Y+2845200D03*
X+1191650Y+2845200D03*
D31*
X+4548274Y+2097174D03*
X+4433974Y+2211474D03*
X+4319674Y+2325774D03*
D32*
X+324200Y+3468400D03*
D33*
X+4352936Y+3130387D03*
X+4466073Y+3243525D03*
D34*
X+1529650Y+3265000D03*
X+1529650Y+3105000D03*
X+1015300Y+3105000D03*
X+1015300Y+3265000D03*
X+850200Y+3105000D03*
X+850200Y+3265000D03*
D35*
X+2369150Y+2793150D03*
X+2209150Y+2793150D03*
X+2369150Y+2462950D03*
X+2209150Y+2462950D03*
X+2369150Y+2628050D03*
X+2209150Y+2628050D03*
D34*
X+387700Y+1182300D03*
X+387700Y+1022300D03*
X+387700Y+1709450D03*
X+387700Y+1549450D03*
D36*
X+4042949Y+2792674D03*
X+4156086Y+2679537D03*
D34*
X+387700Y+598100D03*
X+387700Y+438100D03*
X+1859850Y+3105000D03*
X+1859850Y+3265000D03*
D73*
X+241650Y+1182300D03*
X+241650Y+1017300D03*
D37*
X+956700Y+2073040D03*
X+956700Y+1978040D03*
X+956700Y+1883040D03*
X+1216700Y+1883040D03*
X+1216700Y+2073040D03*
D34*
X+1180400Y+3105000D03*
X+1180400Y+3265000D03*
X+1694750Y+3105000D03*
X+1694750Y+3265000D03*
D38*
X+1013850Y+2231790D03*
X+1013850Y+2445150D03*
X+823350Y+2231790D03*
X+823350Y+2445150D03*
D34*
X+804300Y+2060340D03*
X+804300Y+1900340D03*
X+1369450Y+1900340D03*
X+1369450Y+2060340D03*
X+1210700Y+2419750D03*
X+1210700Y+2259750D03*
D38*
X+1547250Y+2085740D03*
X+1547250Y+1872380D03*
D33*
X+4473586Y+3009737D03*
X+4586723Y+3122874D03*
D34*
X+1725050Y+2060340D03*
X+1725050Y+1900340D03*
X+1902850Y+1900340D03*
X+1902850Y+2060340D03*
D39*
X+6800850Y+762000D02*
X+6800320Y+774958D01*
X+6796016Y+800876D01*
X+6787025Y+826794D01*
X+6772380Y+852712D01*
X+6749976Y+878466D01*
X+6724058Y+897958D01*
X+6698140Y+910530D01*
X+6672222Y+917866D01*
X+6646304Y+920694D01*
X+6642100Y+920750D01*
X+6483350Y+762000D02*
X+6483880Y+774958D01*
X+6488184Y+800876D01*
X+6497175Y+826794D01*
X+6511820Y+852712D01*
X+6534224Y+878466D01*
X+6560142Y+897958D01*
X+6586060Y+910530D01*
X+6611978Y+917866D01*
X+6637896Y+920694D01*
X+6642100Y+920750D01*
X+6483350Y+762000D02*
X+6483880Y+749042D01*
X+6488184Y+723124D01*
X+6497175Y+697206D01*
X+6511820Y+671288D01*
X+6534224Y+645534D01*
X+6560142Y+626042D01*
X+6586060Y+613470D01*
X+6611978Y+606134D01*
X+6637896Y+603306D01*
X+6642100Y+603250D01*
X+6800850Y+762000D02*
X+6800320Y+749042D01*
X+6796016Y+723124D01*
X+6787025Y+697206D01*
X+6772380Y+671288D01*
X+6749976Y+645534D01*
X+6724058Y+626042D01*
X+6698140Y+613470D01*
X+6672222Y+606134D01*
X+6646304Y+603306D01*
X+6642100Y+603250D01*
X+6800850Y+3556000D02*
X+6800320Y+3568958D01*
X+6796016Y+3594876D01*
X+6787025Y+3620794D01*
X+6772380Y+3646712D01*
X+6749976Y+3672466D01*
X+6724058Y+3691958D01*
X+6698140Y+3704530D01*
X+6672222Y+3711866D01*
X+6646304Y+3714694D01*
X+6642100Y+3714750D01*
X+6483350Y+3556000D02*
X+6483880Y+3568958D01*
X+6488184Y+3594876D01*
X+6497175Y+3620794D01*
X+6511820Y+3646712D01*
X+6534224Y+3672466D01*
X+6560142Y+3691958D01*
X+6586060Y+3704530D01*
X+6611978Y+3711866D01*
X+6637896Y+3714694D01*
X+6642100Y+3714750D01*
X+6483350Y+3556000D02*
X+6483880Y+3543042D01*
X+6488184Y+3517124D01*
X+6497175Y+3491206D01*
X+6511820Y+3465288D01*
X+6534224Y+3439534D01*
X+6560142Y+3420042D01*
X+6586060Y+3407470D01*
X+6611978Y+3400134D01*
X+6637896Y+3397306D01*
X+6642100Y+3397250D01*
X+6800850Y+3556000D02*
X+6800320Y+3543042D01*
X+6796016Y+3517124D01*
X+6787025Y+3491206D01*
X+6772380Y+3465288D01*
X+6749976Y+3439534D01*
X+6724058Y+3420042D01*
X+6698140Y+3407470D01*
X+6672222Y+3400134D01*
X+6646304Y+3397306D01*
X+6642100Y+3397250D01*
X+1720850Y+5080000D02*
X+1720320Y+5092958D01*
X+1716016Y+5118876D01*
X+1707025Y+5144794D01*
X+1692380Y+5170712D01*
X+1669976Y+5196466D01*
X+1644058Y+5215958D01*
X+1618140Y+5228530D01*
X+1592222Y+5235866D01*
X+1566304Y+5238694D01*
X+1562100Y+5238750D01*
X+1403350Y+5080000D02*
X+1403880Y+5092958D01*
X+1408184Y+5118876D01*
X+1417175Y+5144794D01*
X+1431820Y+5170712D01*
X+1454224Y+5196466D01*
X+1480142Y+5215958D01*
X+1506060Y+5228530D01*
X+1531978Y+5235866D01*
X+1557896Y+5238694D01*
X+1562100Y+5238750D01*
X+1403350Y+5080000D02*
X+1403880Y+5067042D01*
X+1408184Y+5041124D01*
X+1417175Y+5015206D01*
X+1431820Y+4989288D01*
X+1454224Y+4963534D01*
X+1480142Y+4944042D01*
X+1506060Y+4931470D01*
X+1531978Y+4924134D01*
X+1557896Y+4921306D01*
X+1562100Y+4921250D01*
X+1720850Y+5080000D02*
X+1720320Y+5067042D01*
X+1716016Y+5041124D01*
X+1707025Y+5015206D01*
X+1692380Y+4989288D01*
X+1669976Y+4963534D01*
X+1644058Y+4944042D01*
X+1618140Y+4931470D01*
X+1592222Y+4924134D01*
X+1566304Y+4921306D01*
X+1562100Y+4921250D01*
X+1720850Y+254000D02*
X+1720320Y+266958D01*
X+1716016Y+292876D01*
X+1707025Y+318794D01*
X+1692380Y+344712D01*
X+1669976Y+370466D01*
X+1644058Y+389958D01*
X+1618140Y+402530D01*
X+1592222Y+409866D01*
X+1566304Y+412694D01*
X+1562100Y+412750D01*
X+1403350Y+254000D02*
X+1403880Y+266958D01*
X+1408184Y+292876D01*
X+1417175Y+318794D01*
X+1431820Y+344712D01*
X+1454224Y+370466D01*
X+1480142Y+389958D01*
X+1506060Y+402530D01*
X+1531978Y+409866D01*
X+1557896Y+412694D01*
X+1562100Y+412750D01*
X+1403350Y+254000D02*
X+1403880Y+241042D01*
X+1408184Y+215124D01*
X+1417175Y+189206D01*
X+1431820Y+163288D01*
X+1454224Y+137534D01*
X+1480142Y+118042D01*
X+1506060Y+105470D01*
X+1531978Y+98134D01*
X+1557896Y+95306D01*
X+1562100Y+95250D01*
X+1720850Y+254000D02*
X+1720320Y+241042D01*
X+1716016Y+215124D01*
X+1707025Y+189206D01*
X+1692380Y+163288D01*
X+1669976Y+137534D01*
X+1644058Y+118042D01*
X+1618140Y+105470D01*
X+1592222Y+98134D01*
X+1566304Y+95306D01*
X+1562100Y+95250D01*
X+127000Y+0D02*
X+101032Y+2527D01*
X+77018Y+9798D01*
X+55423Y+21347D01*
X+36711Y+36711D01*
X+21348Y+55423D01*
X+9798Y+77018D01*
X+2527Y+101032D01*
X+0Y+127000D01*
X+0Y+5207000D01*
X+2527Y+5232967D01*
X+9798Y+5256981D01*
X+21348Y+5278577D01*
X+36711Y+5297289D01*
X+55423Y+5312652D01*
X+77018Y+5324202D01*
X+101032Y+5331473D01*
X+127000Y+5334000D01*
X+6515100Y+5334000D01*
X+6642100Y+5207000D01*
X+6642100Y+4064000D01*
X+6896100Y+3810000D01*
X+6896100Y+508000D01*
X+6642100Y+254000D01*
X+6642100Y+127000D01*
X+6639573Y+101032D01*
X+6632302Y+77018D01*
X+6620752Y+55423D01*
X+6605389Y+36711D01*
X+6586677Y+21347D01*
X+6565081Y+9798D01*
X+6541067Y+2527D01*
X+6515100Y+0D01*
X+127000Y+0D01*
X+486650Y+2352700D02*
X+486547Y+2355189D01*
X+485705Y+2360169D01*
X+483945Y+2365149D01*
X+481068Y+2370129D01*
X+476667Y+2375045D01*
X+471687Y+2378659D01*
X+466707Y+2380964D01*
X+461727Y+2382267D01*
X+456747Y+2382700D01*
X+456650Y+2382700D01*
X+426650Y+2352700D02*
X+426753Y+2355189D01*
X+427595Y+2360169D01*
X+429355Y+2365149D01*
X+432232Y+2370129D01*
X+436633Y+2375045D01*
X+441613Y+2378659D01*
X+446593Y+2380964D01*
X+451573Y+2382267D01*
X+456553Y+2382700D01*
X+456650Y+2382700D01*
X+426650Y+2352700D02*
X+426753Y+2350211D01*
X+427595Y+2345231D01*
X+429355Y+2340251D01*
X+432232Y+2335271D01*
X+436633Y+2330355D01*
X+441613Y+2326741D01*
X+446593Y+2324436D01*
X+451573Y+2323133D01*
X+456553Y+2322700D01*
X+456650Y+2322700D01*
X+486650Y+2352700D02*
X+486547Y+2350211D01*
X+485705Y+2345231D01*
X+483945Y+2340251D01*
X+481068Y+2335271D01*
X+476667Y+2330355D01*
X+471687Y+2326741D01*
X+466707Y+2324436D01*
X+461727Y+2323133D01*
X+456747Y+2322700D01*
X+456650Y+2322700D01*
X+486650Y+2752700D02*
X+486547Y+2755189D01*
X+485705Y+2760169D01*
X+483945Y+2765149D01*
X+481068Y+2770129D01*
X+476667Y+2775045D01*
X+471687Y+2778659D01*
X+466707Y+2780964D01*
X+461727Y+2782267D01*
X+456747Y+2782700D01*
X+456650Y+2782700D01*
X+426650Y+2752700D02*
X+426753Y+2755189D01*
X+427595Y+2760169D01*
X+429355Y+2765149D01*
X+432232Y+2770129D01*
X+436633Y+2775045D01*
X+441613Y+2778659D01*
X+446593Y+2780964D01*
X+451573Y+2782267D01*
X+456553Y+2782700D01*
X+456650Y+2782700D01*
X+426650Y+2752700D02*
X+426753Y+2750211D01*
X+427595Y+2745231D01*
X+429355Y+2740251D01*
X+432232Y+2735271D01*
X+436633Y+2730355D01*
X+441613Y+2726741D01*
X+446593Y+2724436D01*
X+451573Y+2723133D01*
X+456553Y+2722700D01*
X+456650Y+2722700D01*
X+486650Y+2752700D02*
X+486547Y+2750211D01*
X+485705Y+2745231D01*
X+483945Y+2740251D01*
X+481068Y+2735271D01*
X+476667Y+2730355D01*
X+471687Y+2726741D01*
X+466707Y+2724436D01*
X+461727Y+2723133D01*
X+456747Y+2722700D01*
X+456650Y+2722700D01*
M02*
