G04 PROTEUS RS274X GERBER FILE*
%FSLAX45Y45*%
%MOMM*%
G01*
%ADD10C,0.190500*%
%ADD11C,0.200000*%
%ADD12C,0.400000*%
%ADD13C,0.360000*%
%ADD14C,0.300000*%
%ADD15C,0.254000*%
%ADD16C,0.609600*%
%ADD17C,1.600000*%
%AMPPAD008*
4,1,36,
0.240420,-0.494970,
-0.367700,0.127280,
-0.379580,0.140380,
-0.389880,0.154250,
-0.398600,0.168780,
-0.405720,0.183860,
-0.411270,0.199380,
-0.415230,0.215240,
-0.417620,0.231310,
-0.418410,0.247490,
-0.417610,0.263670,
-0.415230,0.279740,
-0.411270,0.295590,
-0.405720,0.311110,
-0.398600,0.326190,
-0.389880,0.340730,
-0.379580,0.354590,
-0.367700,0.367700,
-0.354590,0.379580,
-0.340730,0.389880,
-0.326190,0.398600,
-0.311110,0.405720,
-0.295590,0.411270,
-0.279740,0.415230,
-0.263670,0.417610,
-0.247490,0.418410,
-0.231310,0.417620,
-0.215240,0.415230,
-0.199380,0.411270,
-0.183860,0.405720,
-0.168780,0.398600,
-0.154250,0.389880,
-0.140380,0.379580,
-0.127280,0.367700,
-0.120210,0.374770,
0.494970,-0.240420,
0.240420,-0.494970,
0*%
%ADD18PPAD008*%
%AMPPAD009*
4,1,35,
0.494970,0.240420,
-0.120210,-0.374770,
-0.134080,-0.387350,
-0.148760,-0.398260,
-0.164150,-0.407480,
-0.180120,-0.415040,
-0.196550,-0.420910,
-0.213340,-0.425110,
-0.230350,-0.427620,
-0.247490,-0.428460,
-0.264620,-0.427620,
-0.281630,-0.425110,
-0.298430,-0.420910,
-0.314850,-0.415040,
-0.330830,-0.407490,
-0.346210,-0.398260,
-0.360890,-0.387350,
-0.374770,-0.374770,
-0.387350,-0.360890,
-0.398260,-0.346210,
-0.407490,-0.330830,
-0.415040,-0.314850,
-0.420910,-0.298430,
-0.425110,-0.281630,
-0.427620,-0.264620,
-0.428460,-0.247490,
-0.427620,-0.230350,
-0.425110,-0.213340,
-0.420910,-0.196550,
-0.415040,-0.180120,
-0.407480,-0.164150,
-0.398260,-0.148760,
-0.387350,-0.134080,
-0.374770,-0.120210,
0.240420,0.494970,
0.494970,0.240420,
0*%
%ADD19PPAD009*%
%AMPPAD010*
4,1,36,
-0.240420,0.494970,
0.367700,-0.127280,
0.379580,-0.140380,
0.389880,-0.154250,
0.398600,-0.168780,
0.405720,-0.183860,
0.411270,-0.199380,
0.415230,-0.215240,
0.417620,-0.231310,
0.418410,-0.247490,
0.417610,-0.263670,
0.415230,-0.279740,
0.411270,-0.295590,
0.405720,-0.311110,
0.398600,-0.326190,
0.389880,-0.340730,
0.379580,-0.354590,
0.367700,-0.367700,
0.354590,-0.379580,
0.340730,-0.389880,
0.326190,-0.398600,
0.311110,-0.405720,
0.295590,-0.411270,
0.279740,-0.415230,
0.263670,-0.417610,
0.247490,-0.418410,
0.231310,-0.417620,
0.215240,-0.415230,
0.199380,-0.411270,
0.183860,-0.405720,
0.168780,-0.398600,
0.154250,-0.389880,
0.140380,-0.379580,
0.127280,-0.367700,
0.120210,-0.374770,
-0.494970,0.240420,
-0.240420,0.494970,
0*%
%ADD70PPAD010*%
%AMPPAD011*
4,1,35,
-0.494970,-0.240420,
0.120210,0.374770,
0.134080,0.387350,
0.148760,0.398260,
0.164150,0.407480,
0.180120,0.415040,
0.196550,0.420910,
0.213340,0.425110,
0.230350,0.427620,
0.247490,0.428460,
0.264620,0.427620,
0.281630,0.425110,
0.298430,0.420910,
0.314850,0.415040,
0.330830,0.407490,
0.346210,0.398260,
0.360890,0.387350,
0.374770,0.374770,
0.387350,0.360890,
0.398260,0.346210,
0.407490,0.330830,
0.415040,0.314850,
0.420910,0.298430,
0.425110,0.281630,
0.427620,0.264620,
0.428460,0.247490,
0.427620,0.230350,
0.425110,0.213340,
0.420910,0.196550,
0.415040,0.180120,
0.407480,0.164150,
0.398260,0.148760,
0.387350,0.134080,
0.374770,0.120210,
-0.240420,-0.494970,
-0.494970,-0.240420,
0*%
%ADD71PPAD011*%
%AMPPAD012*
4,1,4,
-2.616300,0.000000,
0.000000,2.616300,
2.616300,0.000000,
0.000000,-2.616300,
-2.616300,0.000000,
0*%
%ADD20PPAD012*%
%AMPPAD013*
4,1,36,
-0.425000,-0.023800,
-0.425000,0.023800,
-0.423480,0.039380,
-0.419120,0.053790,
-0.412190,0.066740,
-0.402970,0.077970,
-0.391750,0.087190,
-0.378790,0.094120,
-0.364380,0.098480,
-0.348800,0.100000,
0.348800,0.100000,
0.364380,0.098480,
0.378790,0.094120,
0.391750,0.087190,
0.402970,0.077970,
0.412190,0.066740,
0.419120,0.053790,
0.423480,0.039380,
0.425000,0.023800,
0.425000,-0.023800,
0.423480,-0.039380,
0.419120,-0.053790,
0.412190,-0.066740,
0.402970,-0.077970,
0.391750,-0.087190,
0.378790,-0.094120,
0.364380,-0.098480,
0.348800,-0.100000,
-0.348800,-0.100000,
-0.364380,-0.098480,
-0.378790,-0.094120,
-0.391750,-0.087190,
-0.402970,-0.077970,
-0.412190,-0.066740,
-0.419120,-0.053790,
-0.423480,-0.039380,
-0.425000,-0.023800,
0*%
%ADD21PPAD013*%
%AMPPAD014*
4,1,36,
0.023800,-0.425000,
-0.023800,-0.425000,
-0.039380,-0.423480,
-0.053790,-0.419120,
-0.066740,-0.412190,
-0.077970,-0.402970,
-0.087190,-0.391750,
-0.094120,-0.378790,
-0.098480,-0.364380,
-0.100000,-0.348800,
-0.100000,0.348800,
-0.098480,0.364380,
-0.094120,0.378790,
-0.087190,0.391750,
-0.077970,0.402970,
-0.066740,0.412190,
-0.053790,0.419120,
-0.039380,0.423480,
-0.023800,0.425000,
0.023800,0.425000,
0.039380,0.423480,
0.053790,0.419120,
0.066740,0.412190,
0.077970,0.402970,
0.087190,0.391750,
0.094120,0.378790,
0.098480,0.364380,
0.100000,0.348800,
0.100000,-0.348800,
0.098480,-0.364380,
0.094120,-0.378790,
0.087190,-0.391750,
0.077970,-0.402970,
0.066740,-0.412190,
0.053790,-0.419120,
0.039380,-0.423480,
0.023800,-0.425000,
0*%
%ADD22PPAD014*%
%AMPPAD015*
4,1,36,
0.746000,-1.000000,
-0.746000,-1.000000,
-0.797930,-0.994950,
-0.845960,-0.980400,
-0.889150,-0.957300,
-0.926580,-0.926580,
-0.957300,-0.889150,
-0.980400,-0.845960,
-0.994950,-0.797930,
-1.000000,-0.746000,
-1.000000,0.746000,
-0.994950,0.797930,
-0.980400,0.845960,
-0.957300,0.889150,
-0.926580,0.926580,
-0.889150,0.957300,
-0.845960,0.980400,
-0.797930,0.994950,
-0.746000,1.000000,
0.746000,1.000000,
0.797930,0.994950,
0.845960,0.980400,
0.889150,0.957300,
0.926580,0.926580,
0.957300,0.889150,
0.980400,0.845960,
0.994950,0.797930,
1.000000,0.746000,
1.000000,-0.746000,
0.994950,-0.797930,
0.980400,-0.845960,
0.957300,-0.889150,
0.926580,-0.926580,
0.889150,-0.957300,
0.845960,-0.980400,
0.797930,-0.994950,
0.746000,-1.000000,
0*%
%ADD23PPAD015*%
%ADD24R,0.780000X0.780000*%
%ADD25R,1.700000X0.400000*%
%ADD26R,1.900000X1.900000*%
%ADD27R,1.500000X1.500000*%
%AMPPAD020*
4,1,36,
0.323000,-0.450000,
-0.323000,-0.450000,
-0.348970,-0.447470,
-0.372980,-0.440200,
-0.394580,-0.428650,
-0.413290,-0.413290,
-0.428650,-0.394570,
-0.440200,-0.372980,
-0.447470,-0.348970,
-0.450000,-0.323000,
-0.450000,0.323000,
-0.447470,0.348970,
-0.440200,0.372980,
-0.428650,0.394570,
-0.413290,0.413290,
-0.394580,0.428650,
-0.372980,0.440200,
-0.348970,0.447470,
-0.323000,0.450000,
0.323000,0.450000,
0.348970,0.447470,
0.372980,0.440200,
0.394580,0.428650,
0.413290,0.413290,
0.428650,0.394570,
0.440200,0.372980,
0.447470,0.348970,
0.450000,0.323000,
0.450000,-0.323000,
0.447470,-0.348970,
0.440200,-0.372980,
0.428650,-0.394570,
0.413290,-0.413290,
0.394580,-0.428650,
0.372980,-0.440200,
0.348970,-0.447470,
0.323000,-0.450000,
0*%
%ADD28PPAD020*%
%ADD29C,0.900000*%
%AMPPAD022*
4,1,20,
0.400000,0.023000,
0.400000,-0.023000,
0.397470,-0.048970,
0.390200,-0.072980,
0.378650,-0.094580,
0.363290,-0.113290,
0.344570,-0.128650,
0.322980,-0.140200,
0.298970,-0.147470,
0.273000,-0.150000,
-0.150000,-0.150000,
-0.150000,0.150000,
0.273000,0.150000,
0.298970,0.147470,
0.322980,0.140200,
0.344570,0.128650,
0.363290,0.113290,
0.378650,0.094580,
0.390200,0.072980,
0.397470,0.048970,
0.400000,0.023000,
0*%
%ADD72PPAD022*%
%AMPPAD023*
4,1,20,
-0.400000,-0.023000,
-0.400000,0.023000,
-0.397470,0.048970,
-0.390200,0.072980,
-0.378650,0.094580,
-0.363290,0.113290,
-0.344570,0.128650,
-0.322980,0.140200,
-0.298970,0.147470,
-0.273000,0.150000,
0.150000,0.150000,
0.150000,-0.150000,
-0.273000,-0.150000,
-0.298970,-0.147470,
-0.322980,-0.140200,
-0.344570,-0.128650,
-0.363290,-0.113290,
-0.378650,-0.094580,
-0.390200,-0.072980,
-0.397470,-0.048970,
-0.400000,-0.023000,
0*%
%ADD73PPAD023*%
%ADD30R,0.400000X1.270000*%
%ADD31R,0.700000X1.000000*%
%ADD32R,0.800000X0.800000*%
%ADD33R,1.500000X3.200000*%
%ADD34R,1.050000X0.900000*%
%ADD35R,2.286000X2.032000*%
%ADD36C,0.889000*%
%ADD37R,1.650000X2.200000*%
%AMPPAD032*
4,1,4,
-0.808220,0.179610,
-0.179610,0.808220,
0.808220,-0.179610,
0.179610,-0.808220,
-0.808220,0.179610,
0*%
%ADD38PPAD032*%
%AMPPAD033*
4,1,4,
-0.689430,0.053030,
-0.053030,0.689430,
0.689430,-0.053030,
0.053030,-0.689430,
-0.689430,0.053030,
0*%
%ADD39PPAD033*%
%ADD40R,1.397000X0.889000*%
%ADD41R,0.900000X1.050000*%
%AMPPAD036*
4,1,4,
0.053030,0.689430,
0.689430,0.053030,
-0.053030,-0.689430,
-0.689430,-0.053030,
0.053030,0.689430,
0*%
%ADD42PPAD036*%
%ADD43C,0.025400*%
G36*
X+691450Y+2737950D02*
X+653350Y+2699850D01*
X+526350Y+2699850D01*
X+691450Y+2864950D01*
X+691450Y+2737950D01*
G37*
G36*
X+4349587Y+3254386D02*
X+4400387Y+3254386D01*
X+4463887Y+3190886D01*
X+4501987Y+3190886D01*
X+4622637Y+3070236D01*
X+4635337Y+3070236D01*
X+4679787Y+3114686D01*
X+4679787Y+3127386D01*
X+3651087Y+4156086D01*
X+3651087Y+4943486D01*
X+3574887Y+5019686D01*
X+3574887Y+5140336D01*
X+3581237Y+5146686D01*
X+3555837Y+5146686D01*
X+3562187Y+5140336D01*
X+3562187Y+5019686D01*
X+3485987Y+4943486D01*
X+3485987Y+3908436D01*
X+4216237Y+3178186D01*
X+4273387Y+3178186D01*
X+4349587Y+3254386D01*
G37*
G36*
X+1543650Y+1561250D02*
X+1575400Y+1593000D01*
X+2261200Y+1593000D01*
X+2388200Y+1720000D01*
X+2388200Y+2151800D01*
X+2381850Y+2158150D01*
X+2045300Y+2158150D01*
X+1924650Y+2037500D01*
X+1924650Y+2018450D01*
X+2032600Y+2126400D01*
X+2286600Y+2126400D01*
X+2312000Y+2101000D01*
X+2312000Y+1815250D01*
X+2273900Y+1777150D01*
X+2051650Y+1777150D01*
X+1937350Y+1662850D01*
X+1810350Y+1662850D01*
X+1759550Y+1713650D01*
X+1473800Y+1713650D01*
X+1467450Y+1720000D01*
X+1384900Y+1720000D01*
X+1543650Y+1561250D01*
G37*
G36*
X+2045900Y+2066050D02*
X+2045900Y+1894600D01*
X+1963350Y+1812050D01*
X+1658550Y+1812050D01*
X+1633150Y+1837450D01*
X+1633150Y+2047000D01*
X+1645850Y+2034300D01*
X+1747450Y+2034300D01*
X+1753800Y+2027950D01*
X+1753800Y+1958100D01*
X+1791900Y+1920000D01*
X+1944300Y+1920000D01*
X+1963350Y+1939050D01*
X+1963350Y+1983500D01*
X+2045900Y+2066050D01*
G37*
G36*
X+1207700Y+1843800D02*
X+1207700Y+1913650D01*
X+1258500Y+1964450D01*
X+1258500Y+2027950D01*
X+1252150Y+2034300D01*
X+1169600Y+2034300D01*
X+1087050Y+1951750D01*
X+820350Y+1951750D01*
X+737800Y+2034300D01*
X+566350Y+2034300D01*
X+547300Y+2015250D01*
X+547300Y+1989850D01*
X+833050Y+1704100D01*
X+1175950Y+1704100D01*
X+1195000Y+1723150D01*
X+1188650Y+1729500D01*
X+1175950Y+1729500D01*
X+1156900Y+1748550D01*
X+1156900Y+1818400D01*
X+1182300Y+1843800D01*
X+1207700Y+1843800D01*
G37*
G36*
X+661600Y+1773950D02*
X+801300Y+1634250D01*
X+1271200Y+1634250D01*
X+1315650Y+1678700D01*
X+1334700Y+1659650D01*
X+1372800Y+1659650D01*
X+1499800Y+1532650D01*
X+1499800Y+751600D01*
X+1099750Y+351550D01*
X+1061650Y+351550D01*
X+1042600Y+370600D01*
X+1042600Y+580150D01*
X+1068000Y+605550D01*
X+1068000Y+669050D01*
X+1029900Y+707150D01*
X+966400Y+707150D01*
X+928300Y+669050D01*
X+928300Y+599200D01*
X+953700Y+573800D01*
X+953700Y+434100D01*
X+934650Y+415050D01*
X+598100Y+415050D01*
X+553650Y+370600D01*
X+553650Y+275350D01*
X+591750Y+237250D01*
X+591750Y+199150D01*
X+515550Y+275350D01*
X+515550Y+383300D01*
X+477450Y+421400D01*
X+477450Y+1767600D01*
X+471100Y+1773950D01*
X+661600Y+1773950D01*
G37*
G36*
X+267900Y+1507250D02*
X+306000Y+1469150D01*
X+464750Y+1469150D01*
X+464750Y+1253250D01*
X+452050Y+1265950D01*
X+191700Y+1265950D01*
X+179000Y+1253250D01*
X+179000Y+1475500D01*
X+210750Y+1507250D01*
X+267900Y+1507250D01*
G37*
G36*
X+464750Y+942100D02*
X+464750Y+675400D01*
X+179000Y+675400D01*
X+179000Y+948450D01*
X+210750Y+980200D01*
X+267900Y+980200D01*
X+306000Y+942100D01*
X+464750Y+942100D01*
G37*
G36*
X+509200Y+2421650D02*
X+572700Y+2421650D01*
X+610800Y+2383550D01*
X+610800Y+2332750D01*
X+502850Y+2224800D01*
X+502850Y+2040650D01*
X+591750Y+2129550D01*
X+794950Y+2129550D01*
X+852100Y+2072400D01*
X+1061650Y+2072400D01*
X+1125150Y+2135900D01*
X+1595050Y+2135900D01*
X+1620450Y+2110500D01*
X+1620450Y+2237500D01*
X+1645850Y+2262900D01*
X+1645850Y+2288300D01*
X+1582350Y+2224800D01*
X+1391850Y+2224800D01*
X+1366450Y+2199400D01*
X+1302950Y+2199400D01*
X+1264850Y+2237500D01*
X+1264850Y+2320050D01*
X+1252150Y+2332750D01*
X+1112450Y+2332750D01*
X+1080700Y+2364500D01*
X+1080700Y+2466100D01*
X+1048950Y+2497850D01*
X+509200Y+2497850D01*
X+509200Y+2421650D01*
G37*
G36*
X+401250Y+2497850D02*
X+401250Y+2402600D01*
X+420300Y+2421650D01*
X+496500Y+2421650D01*
X+496500Y+2497850D01*
X+401250Y+2497850D01*
G37*
G36*
X+515550Y+2402600D02*
X+528250Y+2389900D01*
X+528250Y+2320050D01*
X+496500Y+2288300D01*
X+547300Y+2288300D01*
X+598100Y+2339100D01*
X+598100Y+2377200D01*
X+572700Y+2402600D01*
X+515550Y+2402600D01*
G37*
G36*
X+2007800Y+3234450D02*
X+2090350Y+3234450D01*
X+2096700Y+3240800D01*
X+2096700Y+3304300D01*
X+1957000Y+3444000D01*
X+1772850Y+3444000D01*
X+1766500Y+3437650D01*
X+1766500Y+3405900D01*
X+1728400Y+3367800D01*
X+1658550Y+3367800D01*
X+1626800Y+3399550D01*
X+1626800Y+3469400D01*
X+1664900Y+3507500D01*
X+1696650Y+3507500D01*
X+1715700Y+3526550D01*
X+1493450Y+3526550D01*
X+1493450Y+3374150D01*
X+1518850Y+3348750D01*
X+1614100Y+3348750D01*
X+1652200Y+3310650D01*
X+1652200Y+3247150D01*
X+1664900Y+3234450D01*
X+1741100Y+3234450D01*
X+1791900Y+3285250D01*
X+1957000Y+3285250D01*
X+2007800Y+3234450D01*
G37*
G36*
X+4306500Y+2466100D02*
X+4306500Y+2428000D01*
X+4249350Y+2370850D01*
X+4236650Y+2370850D01*
X+3627050Y+2980450D01*
X+3900100Y+2980450D01*
X+4001700Y+2878850D01*
X+4001700Y+2866150D01*
X+3938200Y+2802650D01*
X+3938200Y+2770900D01*
X+4135050Y+2574050D01*
X+4198550Y+2574050D01*
X+4306500Y+2466100D01*
G37*
G36*
X+3881050Y+2999500D02*
X+1906200Y+2999500D01*
X+1899850Y+3005850D01*
X+1912550Y+3018550D01*
X+2122100Y+3018550D01*
X+2147500Y+3043950D01*
X+2147500Y+3120150D01*
X+2198300Y+3170950D01*
X+2198300Y+3336050D01*
X+1995100Y+3539250D01*
X+1493450Y+3539250D01*
X+1493450Y+4606050D01*
X+1582350Y+4694950D01*
X+1582350Y+4669550D01*
X+1626800Y+4625100D01*
X+1683950Y+4625100D01*
X+1709350Y+4650500D01*
X+2230050Y+4650500D01*
X+3881050Y+2999500D01*
G37*
G36*
X+1290250Y+3513850D02*
X+1214050Y+3437650D01*
X+966400Y+3437650D01*
X+877500Y+3348750D01*
X+788600Y+3348750D01*
X+763200Y+3323350D01*
X+763200Y+3247150D01*
X+756850Y+3247150D01*
X+528250Y+3475750D01*
X+528250Y+3844050D01*
X+560000Y+3875800D01*
X+560000Y+4015500D01*
X+528250Y+4047250D01*
X+528250Y+4307600D01*
X+560000Y+4339350D01*
X+560000Y+4764800D01*
X+528250Y+4796550D01*
X+528250Y+5056900D01*
X+560000Y+5088650D01*
X+560000Y+5228350D01*
X+540950Y+5247400D01*
X+458400Y+5247400D01*
X+509200Y+5298200D01*
X+1499800Y+5298200D01*
X+1366450Y+5164850D01*
X+1366450Y+4999750D01*
X+1480750Y+4885450D01*
X+1595050Y+4885450D01*
X+1366450Y+4656850D01*
X+1366450Y+3532900D01*
X+1347400Y+3513850D01*
X+1290250Y+3513850D01*
G37*
G36*
X+540950Y+4612400D02*
X+540950Y+4491750D01*
X+433000Y+4491750D01*
X+433000Y+4606050D01*
X+528250Y+4606050D01*
X+534600Y+4612400D01*
X+540950Y+4612400D01*
G37*
G36*
X+39300Y+4028200D02*
X+426650Y+4028200D01*
X+439350Y+4040900D01*
X+439350Y+4307600D01*
X+413950Y+4333000D01*
X+413950Y+4764800D01*
X+439350Y+4790200D01*
X+439350Y+5063250D01*
X+413950Y+5088650D01*
X+413950Y+5228350D01*
X+483800Y+5298200D01*
X+134550Y+5298200D01*
X+115074Y+5296178D01*
X+97064Y+5290362D01*
X+66833Y+5268831D01*
X+46648Y+5236585D01*
X+41195Y+5217374D01*
X+39300Y+5196600D01*
X+39300Y+4028200D01*
G37*
G36*
X+39300Y+4015500D02*
X+413950Y+4015500D01*
X+413950Y+3875800D01*
X+439350Y+3850400D01*
X+439350Y+3437650D01*
X+763200Y+3113800D01*
X+763200Y+3082050D01*
X+725100Y+3043950D01*
X+680650Y+3043950D01*
X+648900Y+3012200D01*
X+648900Y+2897900D01*
X+579050Y+2828050D01*
X+39300Y+2828050D01*
X+39300Y+4015500D01*
G37*
G36*
X+39300Y+2809000D02*
X+394900Y+2809000D01*
X+369500Y+2783600D01*
X+369500Y+2516900D01*
X+388550Y+2497850D01*
X+388550Y+2320050D01*
X+471100Y+2237500D01*
X+471100Y+1964450D01*
X+648900Y+1786650D01*
X+39300Y+1786650D01*
X+39300Y+2809000D01*
G37*
G36*
X+39300Y+1773950D02*
X+166300Y+1773950D01*
X+166300Y+1608850D01*
X+204400Y+1570750D01*
X+204400Y+1519950D01*
X+166300Y+1481850D01*
X+166300Y+1081800D01*
X+204400Y+1043700D01*
X+204400Y+992900D01*
X+166300Y+954800D01*
X+166300Y+497600D01*
X+306000Y+357900D01*
X+407600Y+357900D01*
X+426650Y+338850D01*
X+426650Y+237250D01*
X+579050Y+84850D01*
X+763200Y+84850D01*
X+801300Y+46750D01*
X+801300Y+34050D01*
X+128200Y+34050D01*
X+110023Y+36198D01*
X+93213Y+42378D01*
X+78096Y+52195D01*
X+64997Y+65254D01*
X+46158Y+99516D01*
X+39300Y+142000D01*
X+39300Y+1773950D01*
G37*
G36*
X+1620450Y+59450D02*
X+1595050Y+34050D01*
X+960050Y+34050D01*
X+1391850Y+465850D01*
X+1601400Y+465850D01*
X+1620450Y+446800D01*
X+1480750Y+446800D01*
X+1366450Y+332500D01*
X+1366450Y+161050D01*
X+1468050Y+59450D01*
X+1620450Y+59450D01*
G37*
G36*
X+1626800Y+465850D02*
X+1760150Y+332500D01*
X+1760150Y+173750D01*
X+1626800Y+40400D01*
X+5824150Y+34050D01*
X+5925750Y+135650D01*
X+4973250Y+135650D01*
X+4935150Y+97550D01*
X+3550850Y+97550D01*
X+3512750Y+59450D01*
X+3163500Y+59450D01*
X+3125400Y+97550D01*
X+2249100Y+97550D01*
X+1880800Y+465850D01*
X+1626800Y+465850D01*
G37*
G36*
X+2388200Y+386500D02*
X+2375500Y+373800D01*
X+2267550Y+373800D01*
X+2204050Y+310300D01*
X+2204050Y+272200D01*
X+1918300Y+557950D01*
X+1429350Y+557950D01*
X+1588100Y+716700D01*
X+1588100Y+1535850D01*
X+1594450Y+1542200D01*
X+2286600Y+1542200D01*
X+2388200Y+1643800D01*
X+2388200Y+386500D01*
G37*
G36*
X+4680550Y+361100D02*
X+4947250Y+361100D01*
X+4947250Y+234100D01*
X+4896450Y+183300D01*
X+4718650Y+183300D01*
X+4731350Y+196000D01*
X+4731350Y+310300D01*
X+4680550Y+361100D01*
G37*
G36*
X+4540850Y+361100D02*
X+4490050Y+310300D01*
X+4490050Y+196000D01*
X+4502750Y+183300D01*
X+3956650Y+183300D01*
X+3969350Y+196000D01*
X+3969350Y+310300D01*
X+3918550Y+361100D01*
X+4540850Y+361100D01*
G37*
G36*
X+3664550Y+361100D02*
X+3778850Y+361100D01*
X+3728050Y+310300D01*
X+3728050Y+196000D01*
X+3740750Y+183300D01*
X+3702650Y+183300D01*
X+3715350Y+196000D01*
X+3715350Y+310300D01*
X+3664550Y+361100D01*
G37*
G36*
X+3410550Y+361100D02*
X+3524850Y+361100D01*
X+3474050Y+310300D01*
X+3474050Y+196000D01*
X+3461350Y+183300D01*
X+3448650Y+183300D01*
X+3461350Y+196000D01*
X+3461350Y+310300D01*
X+3410550Y+361100D01*
G37*
G36*
X+3156550Y+361100D02*
X+3270850Y+361100D01*
X+3220050Y+310300D01*
X+3220050Y+196000D01*
X+3232750Y+183300D01*
X+3220050Y+183300D01*
X+3207350Y+196000D01*
X+3207350Y+310300D01*
X+3156550Y+361100D01*
G37*
G36*
X+2902550Y+361100D02*
X+3016850Y+361100D01*
X+2966050Y+310300D01*
X+2966050Y+196000D01*
X+2978750Y+183300D01*
X+2940650Y+183300D01*
X+2953350Y+196000D01*
X+2953350Y+310300D01*
X+2902550Y+361100D01*
G37*
G36*
X+2648550Y+361100D02*
X+2762850Y+361100D01*
X+2712050Y+310300D01*
X+2712050Y+189650D01*
X+2718400Y+183300D01*
X+2686650Y+183300D01*
X+2699350Y+196000D01*
X+2699350Y+310300D01*
X+2648550Y+361100D01*
G37*
G36*
X+6000750Y+215900D02*
X+6013450Y+228600D01*
X+6013450Y+311150D01*
X+6089650Y+387350D01*
X+6089650Y+1358900D01*
X+5099050Y+2349500D01*
X+5073650Y+2349500D01*
X+5073650Y+2317750D01*
X+5924550Y+1466850D01*
X+5924550Y+387350D01*
X+6000750Y+311150D01*
X+6000750Y+215900D01*
G37*
G36*
X+6178550Y+1358900D02*
X+6343650Y+1193800D01*
X+6343650Y+387350D01*
X+6267450Y+311150D01*
X+6267450Y+196850D01*
X+6318250Y+146050D01*
X+6203950Y+146050D01*
X+6254750Y+196850D01*
X+6254750Y+311150D01*
X+6178550Y+387350D01*
X+6178550Y+1358900D01*
G37*
G36*
X+6604000Y+266700D02*
X+6858000Y+520700D01*
X+6858000Y+698500D01*
X+6724650Y+565150D01*
X+6559550Y+565150D01*
X+6432550Y+692150D01*
X+6432550Y+387350D01*
X+6508750Y+311150D01*
X+6508750Y+196850D01*
X+6445250Y+133350D01*
X+6076950Y+133350D01*
X+6013450Y+196850D01*
X+6013450Y+203200D01*
X+5848350Y+38100D01*
X+6515100Y+38100D01*
X+6533277Y+39995D01*
X+6550087Y+45448D01*
X+6578302Y+65633D01*
X+6597141Y+95864D01*
X+6604000Y+133350D01*
X+6604000Y+266700D01*
G37*
G36*
X+6508750Y+5111750D02*
X+6604000Y+5016500D01*
X+6604000Y+4051300D01*
X+6858000Y+3797300D01*
X+6858000Y+3619500D01*
X+6724650Y+3752850D01*
X+6318250Y+3752850D01*
X+6432550Y+3867150D01*
X+6432550Y+4946650D01*
X+6508750Y+5022850D01*
X+6508750Y+5111750D01*
G37*
G36*
X+6540500Y+3740150D02*
X+6445250Y+3644900D01*
X+6445250Y+3473450D01*
X+6559550Y+3359150D01*
X+6724650Y+3359150D01*
X+6838950Y+3473450D01*
X+6838950Y+3613150D01*
X+6858000Y+3594100D01*
X+6858000Y+723900D01*
X+6838950Y+704850D01*
X+6838950Y+844550D01*
X+6724650Y+958850D01*
X+6559550Y+958850D01*
X+6445250Y+844550D01*
X+6445250Y+704850D01*
X+6432550Y+717550D01*
X+6432550Y+1231900D01*
X+5207000Y+2457450D01*
X+5207000Y+2647950D01*
X+6299200Y+3740150D01*
X+6540500Y+3740150D01*
G37*
G36*
X+1504950Y+5276850D02*
X+1644650Y+5276850D01*
X+1739900Y+5181600D01*
X+1835150Y+5276850D01*
X+4070350Y+5276850D01*
X+4146550Y+5200650D01*
X+6445250Y+5200650D01*
X+6604000Y+5041900D01*
X+6604000Y+5194300D01*
X+6502400Y+5295900D01*
X+1524000Y+5295900D01*
X+1504950Y+5276850D01*
G37*
G36*
X+5035550Y+349250D02*
X+5073650Y+387350D01*
X+5073650Y+1917700D01*
X+4864100Y+2127250D01*
X+4749800Y+2127250D01*
X+4730750Y+2108200D01*
X+4730750Y+2076450D01*
X+5035550Y+1771650D01*
X+5035550Y+349250D01*
G37*
G36*
X+5187950Y+146050D02*
X+5302250Y+146050D01*
X+5251450Y+196850D01*
X+5251450Y+311150D01*
X+5327650Y+387350D01*
X+5327650Y+1752600D01*
X+5162550Y+1917700D01*
X+5162550Y+387350D01*
X+5238750Y+311150D01*
X+5238750Y+196850D01*
X+5187950Y+146050D01*
G37*
G36*
X+5441950Y+146050D02*
X+5556250Y+146050D01*
X+5505450Y+196850D01*
X+5505450Y+311150D01*
X+5581650Y+387350D01*
X+5581650Y+1593850D01*
X+5416550Y+1758950D01*
X+5416550Y+387350D01*
X+5492750Y+311150D01*
X+5492750Y+196850D01*
X+5441950Y+146050D01*
G37*
G36*
X+5695950Y+146050D02*
X+5810250Y+146050D01*
X+5759450Y+196850D01*
X+5759450Y+311150D01*
X+5835650Y+387350D01*
X+5835650Y+1428750D01*
X+5670550Y+1593850D01*
X+5670550Y+387350D01*
X+5746750Y+311150D01*
X+5746750Y+196850D01*
X+5695950Y+146050D01*
G37*
G36*
X+3765550Y+4972050D02*
X+3879850Y+4972050D01*
X+3829050Y+5022850D01*
X+3829050Y+5137150D01*
X+3816350Y+5149850D01*
X+3803650Y+5149850D01*
X+3816350Y+5137150D01*
X+3816350Y+5022850D01*
X+3765550Y+4972050D01*
G37*
G36*
X+4032250Y+5187950D02*
X+4083050Y+5137150D01*
X+4083050Y+5022850D01*
X+4133850Y+4972050D01*
X+4019550Y+4972050D01*
X+4070350Y+5022850D01*
X+4070350Y+5137150D01*
X+4019550Y+5187950D01*
X+4032250Y+5187950D01*
G37*
G36*
X+4273550Y+5187950D02*
X+4540250Y+5187950D01*
X+4489450Y+5137150D01*
X+4489450Y+5022850D01*
X+4540250Y+4972050D01*
X+4273550Y+4972050D01*
X+4324350Y+5022850D01*
X+4324350Y+5137150D01*
X+4273550Y+5187950D01*
G37*
G36*
X+4679950Y+5187950D02*
X+4794250Y+5187950D01*
X+4743450Y+5137150D01*
X+4743450Y+5022850D01*
X+4794250Y+4972050D01*
X+4679950Y+4972050D01*
X+4730750Y+5022850D01*
X+4730750Y+5137150D01*
X+4679950Y+5187950D01*
G37*
G36*
X+3740150Y+4946650D02*
X+3752850Y+4959350D01*
X+4806950Y+4959350D01*
X+4819650Y+4946650D01*
X+4819650Y+2990850D01*
X+4794250Y+2965450D01*
X+4749800Y+2965450D01*
X+4730750Y+2984500D01*
X+4730750Y+3041650D01*
X+4768850Y+3079750D01*
X+4768850Y+3162300D01*
X+3740150Y+4191000D01*
X+3740150Y+4946650D01*
G37*
G36*
X+4933950Y+5187950D02*
X+5048250Y+5187950D01*
X+4997450Y+5137150D01*
X+4997450Y+5022850D01*
X+5073650Y+4946650D01*
X+5073650Y+3098800D01*
X+4927600Y+2952750D01*
X+4914900Y+2952750D01*
X+4908550Y+2959100D01*
X+4908550Y+4946650D01*
X+4984750Y+5022850D01*
X+4984750Y+5137150D01*
X+4933950Y+5187950D01*
G37*
G36*
X+5187950Y+5187950D02*
X+5302250Y+5187950D01*
X+5251450Y+5137150D01*
X+5251450Y+5022850D01*
X+5327650Y+4946650D01*
X+5327650Y+3257550D01*
X+5162550Y+3092450D01*
X+5162550Y+4946650D01*
X+5238750Y+5022850D01*
X+5238750Y+5137150D01*
X+5187950Y+5187950D01*
G37*
G36*
X+5441950Y+5187950D02*
X+5556250Y+5187950D01*
X+5505450Y+5137150D01*
X+5505450Y+5022850D01*
X+5581650Y+4946650D01*
X+5581650Y+3422650D01*
X+5416550Y+3257550D01*
X+5416550Y+4946650D01*
X+5492750Y+5022850D01*
X+5492750Y+5137150D01*
X+5441950Y+5187950D01*
G37*
G36*
X+5695950Y+5187950D02*
X+5810250Y+5187950D01*
X+5759450Y+5137150D01*
X+5759450Y+5022850D01*
X+5835650Y+4946650D01*
X+5835650Y+3581400D01*
X+5670550Y+3416300D01*
X+5670550Y+4946650D01*
X+5746750Y+5022850D01*
X+5746750Y+5137150D01*
X+5695950Y+5187950D01*
G37*
G36*
X+5949950Y+5187950D02*
X+6064250Y+5187950D01*
X+6013450Y+5137150D01*
X+6013450Y+5022850D01*
X+6089650Y+4946650D01*
X+6089650Y+3746500D01*
X+5924550Y+3581400D01*
X+5924550Y+4946650D01*
X+6000750Y+5022850D01*
X+6000750Y+5137150D01*
X+5949950Y+5187950D01*
G37*
G36*
X+6203950Y+5187950D02*
X+6318250Y+5187950D01*
X+6267450Y+5137150D01*
X+6267450Y+5022850D01*
X+6343650Y+4946650D01*
X+6343650Y+3905250D01*
X+6178550Y+3740150D01*
X+6178550Y+4946650D01*
X+6254750Y+5022850D01*
X+6254750Y+5137150D01*
X+6203950Y+5187950D01*
G37*
G36*
X+1682750Y+4794250D02*
X+1682750Y+4768850D01*
X+1708150Y+4743450D01*
X+2190750Y+4743450D01*
X+1974850Y+4959350D01*
X+1847850Y+4959350D01*
X+1682750Y+4794250D01*
G37*
G36*
X+2279650Y+5149850D02*
X+2317750Y+5149850D01*
X+2305050Y+5137150D01*
X+2305050Y+5022850D01*
X+2355850Y+4972050D01*
X+2241550Y+4972050D01*
X+2292350Y+5022850D01*
X+2292350Y+5137150D01*
X+2279650Y+5149850D01*
G37*
G36*
X+2533650Y+5149850D02*
X+2825750Y+5149850D01*
X+2813050Y+5137150D01*
X+2813050Y+5022850D01*
X+2857500Y+4978400D01*
X+2501900Y+4978400D01*
X+2546350Y+5022850D01*
X+2546350Y+5137150D01*
X+2533650Y+5149850D01*
G37*
G36*
X+2216150Y+4946650D02*
X+2228850Y+4959350D01*
X+2876550Y+4959350D01*
X+2889250Y+4946650D01*
X+2889250Y+4229100D01*
X+2216150Y+4902200D01*
X+2216150Y+4946650D01*
G37*
G36*
X+3041650Y+5149850D02*
X+3079750Y+5149850D01*
X+3067050Y+5137150D01*
X+3067050Y+5022850D01*
X+3143250Y+4946650D01*
X+3143250Y+4064000D01*
X+2978150Y+4229100D01*
X+2978150Y+4946650D01*
X+3054350Y+5022850D01*
X+3054350Y+5137150D01*
X+3041650Y+5149850D01*
G37*
G36*
X+3295650Y+5149850D02*
X+3333750Y+5149850D01*
X+3321050Y+5137150D01*
X+3321050Y+5022850D01*
X+3397250Y+4946650D01*
X+3397250Y+3905250D01*
X+3390900Y+3905250D01*
X+3232150Y+4064000D01*
X+3232150Y+4946650D01*
X+3308350Y+5022850D01*
X+3308350Y+5137150D01*
X+3295650Y+5149850D01*
G37*
G36*
X+4946650Y+374650D02*
X+2520950Y+374650D01*
X+2514600Y+381000D01*
X+2514600Y+2203450D01*
X+2432050Y+2286000D01*
X+2235200Y+2286000D01*
X+2228850Y+2292350D01*
X+2228850Y+2317750D01*
X+2235200Y+2324100D01*
X+4000500Y+2324100D01*
X+4343400Y+1981200D01*
X+4597400Y+1981200D01*
X+4648200Y+2032000D01*
X+4946650Y+1733550D01*
X+4946650Y+374650D01*
G37*
G36*
X+2451100Y+2438400D02*
X+2476500Y+2413000D01*
X+3962400Y+2413000D01*
X+3543300Y+2832100D01*
X+2476500Y+2832100D01*
X+2451100Y+2806700D01*
X+2451100Y+2438400D01*
G37*
D10*
X+4548274Y+2097174D02*
X+4548274Y+2233850D01*
X+4619636Y+2305212D01*
X+4573674Y+2351174D02*
X+4433974Y+2211474D01*
X+4527713Y+2397136D02*
X+4456351Y+2325774D01*
X+4319674Y+2325774D01*
X+1656650Y+2410200D02*
X+1656650Y+2565200D01*
X+1701125Y+2609675D01*
X+1696650Y+2605200D01*
X+1891650Y+2645200D02*
X+1736650Y+2645200D01*
X+1701125Y+2609675D01*
X+1696650Y+2605200D01*
X+1193100Y+3105000D02*
X+1015300Y+3105000D01*
D11*
X+1501650Y+2645200D02*
X+1411600Y+2645200D01*
X+1301050Y+2755750D01*
X+1301050Y+3022451D01*
X+1218501Y+3105000D01*
X+1193100Y+3105000D01*
X+1501650Y+2605200D02*
X+1394450Y+2605200D01*
X+1381950Y+2617700D01*
X+1331650Y+2617700D01*
D12*
X+501650Y+2617700D01*
X+501650Y+2552700D02*
X+1331650Y+2552700D01*
D11*
X+1383749Y+2552700D01*
X+1396249Y+2565200D01*
X+1501650Y+2565200D01*
D10*
X+486650Y+2217700D02*
X+603250Y+2334300D01*
X+603250Y+2381250D01*
X+561800Y+2422700D01*
X+501650Y+2422700D01*
X+704700Y+2692800D02*
X+701800Y+2692800D01*
X+771650Y+2845200D02*
X+841500Y+2845200D01*
X+701800Y+2692800D02*
X+701800Y+2689900D01*
X+704700Y+2692800D01*
X+501650Y+2682700D02*
X+534670Y+2682700D01*
X+420370Y+2670000D02*
X+420370Y+2694223D01*
X+444593Y+2694223D02*
X+420370Y+2694223D01*
X+420370Y+2670000D02*
X+444593Y+2694223D01*
X+519430Y+2670000D02*
X+534670Y+2670000D01*
X+841500Y+2692800D02*
X+704700Y+2692800D01*
X+534670Y+2682700D02*
X+534670Y+2670000D01*
X+519430Y+2670000D02*
X+420370Y+2670000D01*
X+679450Y+2682700D02*
X+694600Y+2682700D01*
X+481330Y+2694223D02*
X+511810Y+2694223D01*
X+701800Y+2694223D02*
X+706123Y+2694223D01*
X+841500Y+2694223D01*
X+701800Y+2694223D02*
X+701800Y+2692800D01*
X+704700Y+2692800D02*
X+706123Y+2694223D01*
X+771650Y+2759750D01*
X+771650Y+2845200D01*
X+481330Y+2694223D02*
X+444593Y+2694223D01*
X+841500Y+2694223D02*
X+841500Y+2692800D01*
X+486650Y+2887700D02*
X+490075Y+2891125D01*
X+556500Y+2957550D01*
X+556500Y+2875000D02*
X+556500Y+2887700D01*
X+556500Y+2957550D01*
X+486650Y+2887700D02*
X+556500Y+2887700D01*
X+841500Y+2814150D02*
X+841500Y+2845200D01*
X+841500Y+2814150D02*
X+841500Y+2694223D01*
X+841500Y+2947500D02*
X+841500Y+2991620D01*
X+841500Y+2995620D01*
X+841500Y+2845200D02*
X+841500Y+2947500D01*
X+841500Y+2991620D02*
X+837500Y+2995620D01*
X+841500Y+2692800D02*
X+836705Y+2688005D01*
X+831400Y+2682700D01*
X+850200Y+2995620D02*
X+841500Y+2995620D01*
X+837500Y+2995620D01*
X+697800Y+2694223D02*
X+697800Y+2685900D01*
X+697800Y+2682700D01*
X+697800Y+2670000D01*
X+694600Y+2682700D02*
X+697800Y+2682700D01*
X+831400Y+2682700D01*
X+694600Y+2682700D02*
X+697800Y+2685900D01*
X+701800Y+2689900D01*
X+534670Y+2670000D02*
X+697800Y+2670000D01*
X+697800Y+2694223D02*
X+701800Y+2694223D01*
X+850200Y+2712550D02*
X+850200Y+2701500D01*
X+850200Y+2693500D01*
X+826700Y+2670000D01*
X+818700Y+2670000D01*
X+805750Y+2670000D01*
X+697800Y+2670000D02*
X+805750Y+2670000D01*
X+818700Y+2670000D02*
X+831400Y+2682700D01*
X+850200Y+2995620D02*
X+850200Y+2712550D01*
X+850200Y+2701500D02*
X+841500Y+2692800D01*
X+697800Y+2712550D02*
X+679473Y+2694223D01*
X+667950Y+2682700D01*
X+679450Y+2682700D01*
X+697800Y+2712550D02*
X+697800Y+2694223D01*
X+679473Y+2694223D02*
X+697800Y+2694223D01*
X+697800Y+2725250D02*
X+666773Y+2694223D01*
X+655250Y+2682700D01*
X+649256Y+2682700D01*
X+667950Y+2682700D02*
X+655250Y+2682700D01*
X+697800Y+2725250D02*
X+697800Y+2712550D01*
X+666773Y+2694223D02*
X+679473Y+2694223D01*
X+697800Y+2737950D02*
X+654073Y+2694223D01*
X+642550Y+2682700D01*
X+634300Y+2682700D01*
X+627950Y+2682700D01*
X+649256Y+2682700D02*
X+642550Y+2682700D01*
X+534670Y+2682700D02*
X+627950Y+2682700D01*
X+697800Y+2737950D02*
X+697800Y+2725250D01*
X+612233Y+2694223D02*
X+654073Y+2694223D01*
X+666773Y+2694223D01*
X+501650Y+2682700D02*
X+513173Y+2694223D01*
X+697800Y+2878850D01*
X+697800Y+2962037D01*
X+511810Y+2694223D02*
X+513173Y+2694223D01*
X+612233Y+2694223D01*
X+837500Y+2995620D02*
X+697800Y+2995620D01*
X+697800Y+2962037D01*
X+697800Y+2878850D02*
X+697800Y+2737950D01*
X+1193100Y+3318360D02*
X+1129600Y+3318360D01*
X+1015300Y+3265000D02*
X+1023450Y+3265000D01*
X+1059750Y+3265000D01*
X+1059750Y+3301300D02*
X+1023450Y+3265000D01*
X+1015300Y+3220550D02*
X+1015300Y+3265000D01*
X+964500Y+3226900D02*
X+964500Y+3220550D01*
X+964500Y+3226900D02*
X+1002600Y+3265000D01*
X+1015300Y+3265000D01*
X+1015300Y+3220550D02*
X+964500Y+3220550D01*
X+1061550Y+3303100D02*
X+1059750Y+3301300D01*
X+1015300Y+3265000D02*
X+1015300Y+3303100D01*
X+1129600Y+3280260D02*
X+1161350Y+3280260D01*
X+1193100Y+3318360D02*
X+1193100Y+3356460D01*
X+1256600Y+3356460D01*
X+1256600Y+3280260D01*
X+1161350Y+3280260D01*
X+1059750Y+3220550D02*
X+1015300Y+3220550D01*
X+1110550Y+3271350D02*
X+1119460Y+3280260D01*
X+1129600Y+3290400D01*
X+1129600Y+3303100D01*
X+1059750Y+3220550D02*
X+1110550Y+3271350D01*
X+1119460Y+3280260D02*
X+1129600Y+3280260D01*
X+1129600Y+3290400D01*
X+1061550Y+3303100D02*
X+1015300Y+3303100D01*
X+1008950Y+3303100D01*
X+1129600Y+3356460D02*
X+1205800Y+3356460D01*
X+983550Y+3303100D02*
X+1008950Y+3303100D01*
X+1087045Y+3313905D02*
X+1076240Y+3303100D01*
X+1059750Y+3286610D01*
X+1059750Y+3276028D01*
X+1059750Y+3286610D02*
X+1059750Y+3301300D01*
X+1076240Y+3303100D02*
X+1061550Y+3303100D01*
X+1059750Y+3271350D02*
X+1129600Y+3341200D01*
X+1129600Y+3347550D01*
X+1129600Y+3356460D01*
X+1059750Y+3265000D02*
X+1059750Y+3271350D01*
X+1059750Y+3276028D01*
X+1059750Y+3258650D02*
X+1129600Y+3328500D01*
X+1129600Y+3341200D01*
X+1059750Y+3245950D02*
X+1059750Y+3258650D01*
X+1059750Y+3265000D01*
X+1059750Y+3239600D02*
X+1129600Y+3309450D01*
X+1129600Y+3318360D01*
X+1129600Y+3328500D01*
X+1059750Y+3245950D02*
X+1059750Y+3239600D01*
X+1059750Y+3220550D01*
X+1129600Y+3303100D02*
X+1129600Y+3309450D01*
X+983550Y+3303100D02*
X+964500Y+3303100D01*
X+964500Y+3226900D01*
X+977200Y+3315800D02*
X+1034350Y+3315800D01*
X+1088940Y+3315800D01*
X+1091500Y+3318360D01*
X+1088940Y+3315800D02*
X+1087045Y+3313905D01*
X+964500Y+3303100D02*
X+977200Y+3315800D01*
X+989900Y+3328500D01*
X+1015300Y+3328500D01*
X+1101640Y+3328500D01*
X+1102920Y+3329780D01*
X+1109270Y+3336130D01*
X+1091500Y+3318360D02*
X+1101640Y+3328500D01*
X+989900Y+3328500D02*
X+1002600Y+3341200D01*
X+1028000Y+3341200D01*
X+1114340Y+3341200D01*
X+1118795Y+3345655D01*
X+1129600Y+3356460D02*
X+1118795Y+3345655D01*
X+1114340Y+3341200D02*
X+1109270Y+3336130D01*
X+1002600Y+3341200D02*
X+1017890Y+3356490D01*
X+1144965Y+3356490D01*
X+1501650Y+2685200D02*
X+1424293Y+2685200D01*
X+1338312Y+2771181D01*
X+1338312Y+3329132D01*
X+1274202Y+3393242D01*
X+984792Y+3393242D01*
X+856550Y+3265000D01*
X+850200Y+3265000D01*
X+6350000Y+330200D02*
X+6388100Y+330200D01*
X+4610100Y+254000D02*
X+4610100Y+330200D01*
X+4648200Y+330200D01*
X+4686300Y+292100D01*
X+4686300Y+215900D01*
X+4648200Y+177800D01*
X+4572000Y+177800D01*
X+4533900Y+215900D01*
X+4533900Y+292100D01*
X+4572000Y+330200D01*
X+4610100Y+330200D01*
X+3848100Y+254000D02*
X+3848100Y+330200D01*
X+3886200Y+330200D01*
X+3924300Y+292100D01*
X+3924300Y+215900D01*
X+3886200Y+177800D01*
X+3810000Y+177800D01*
X+3771900Y+215900D01*
X+3771900Y+292100D01*
X+3810000Y+330200D01*
X+3848100Y+330200D01*
X+2832100Y+254000D02*
X+2832100Y+330200D01*
X+2870200Y+330200D01*
X+2908300Y+292100D01*
X+2908300Y+215900D01*
X+2870200Y+177800D01*
X+2794000Y+177800D01*
X+2755900Y+215900D01*
X+2755900Y+292100D01*
X+2794000Y+330200D01*
X+2832100Y+330200D01*
X+2425700Y+5080000D02*
X+2425700Y+5156200D01*
X+2463800Y+5156200D01*
X+2501900Y+5118100D01*
X+2501900Y+5041900D01*
X+2463800Y+5003800D01*
X+2387600Y+5003800D01*
X+2349500Y+5041900D01*
X+2349500Y+5118100D01*
X+2387600Y+5156200D01*
X+2425700Y+5156200D01*
X+889000Y+203200D02*
X+889000Y+241300D01*
X+920750Y+241300D01*
X+927100Y+234950D01*
X+927100Y+171450D01*
X+920750Y+165100D01*
X+857250Y+165100D01*
X+850900Y+171450D01*
X+850900Y+234950D01*
X+857250Y+241300D01*
X+908050Y+241300D01*
X+1423600Y+2353050D02*
X+1404550Y+2334000D01*
X+1429950Y+2321300D02*
X+1429950Y+2334000D01*
X+1429950Y+2346700D01*
X+1410900Y+2359400D02*
X+1417250Y+2359400D01*
X+1423600Y+2353050D01*
X+1191650Y+2845200D02*
X+1191650Y+2934100D01*
X+4552950Y+5137150D02*
X+4610100Y+5080000D01*
X+4610100Y+5156200D01*
X+4648200Y+5156200D01*
X+4686300Y+5118100D01*
X+4686300Y+5041900D01*
X+4648200Y+5003800D01*
X+4572000Y+5003800D01*
X+4533900Y+5041900D01*
X+4533900Y+5118100D01*
X+4552950Y+5137150D01*
X+4572000Y+5156200D01*
X+4610100Y+5156200D01*
X+4146550Y+5137150D02*
X+4203700Y+5080000D01*
X+3892550Y+5137150D02*
X+3949700Y+5080000D01*
X+3873500Y+5092700D02*
X+3873500Y+5118100D01*
X+3949700Y+5080000D02*
X+3949700Y+5156200D01*
X+3987800Y+5156200D01*
X+4025900Y+5118100D01*
X+4025900Y+5041900D01*
X+3987800Y+5003800D01*
X+3911600Y+5003800D01*
X+3873500Y+5041900D01*
X+3873500Y+5092700D01*
X+3873500Y+5118100D02*
X+3892550Y+5137150D01*
X+3930650Y+5156200D02*
X+3911600Y+5156200D01*
X+3892550Y+5137150D02*
X+3911600Y+5156200D01*
X+3930650Y+5156200D02*
X+3949700Y+5156200D01*
X+3873500Y+5137150D02*
X+3883025Y+5146675D01*
X+3892550Y+5156200D01*
X+3902588Y+5156200D01*
X+3873500Y+5118100D02*
X+3873500Y+5137150D01*
X+3873500Y+5156200D01*
X+3883025Y+5146675D01*
X+3892550Y+5137150D01*
X+3911600Y+5156200D02*
X+3902588Y+5156200D01*
X+3892550Y+5156200D02*
X+3873500Y+5156200D01*
X+4127500Y+5099050D02*
X+4127500Y+5118100D01*
X+4146550Y+5137150D01*
X+4203700Y+5156200D02*
X+4165600Y+5156200D01*
X+4146550Y+5137150D02*
X+4165600Y+5156200D01*
X+4203700Y+5080000D02*
X+4203700Y+5156200D01*
X+4241800Y+5156200D01*
X+4279900Y+5118100D01*
X+4279900Y+5041900D01*
X+4241800Y+5003800D01*
X+4165600Y+5003800D01*
X+4127500Y+5041900D01*
X+4127500Y+5099050D01*
X+4127500Y+5137150D02*
X+4137025Y+5146675D01*
X+4146550Y+5156200D01*
X+4156503Y+5156200D01*
X+4127500Y+5118100D02*
X+4127500Y+5137150D01*
X+4127500Y+5156200D01*
X+4137025Y+5146675D01*
X+4146550Y+5137150D01*
X+4165600Y+5156200D02*
X+4156503Y+5156200D01*
X+4146550Y+5156200D02*
X+4127500Y+5156200D01*
X+1339850Y+3422650D02*
X+1320800Y+3441700D01*
X+1346200Y+3454400D02*
X+1346200Y+3441700D01*
X+1346200Y+3429000D01*
X+1346200Y+3416300D01*
X+1320800Y+3441700D02*
X+1346200Y+3441700D01*
X+1339850Y+3422650D02*
X+1346200Y+3429000D01*
X+1501650Y+2725200D02*
X+1436313Y+2725200D01*
X+1375104Y+2786409D01*
X+1375104Y+3387396D01*
X+1346200Y+3416300D01*
X+1339850Y+3422650D01*
X+1320800Y+3416300D02*
X+1333500Y+3416300D01*
X+1346200Y+3416300D01*
X+1346200Y+3454400D02*
X+1333500Y+3467100D01*
X+1308100Y+3467100D01*
X+1295400Y+3454400D01*
X+1295400Y+3429000D01*
X+1308100Y+3416300D01*
X+1320800Y+3416300D01*
X+1333500Y+3416300D02*
X+1339850Y+3422650D01*
X+1804724Y+5118100D02*
X+1804724Y+4978519D01*
X+1780895Y+4954690D01*
X+1448667Y+4622462D01*
X+1448667Y+4598267D01*
X+1448667Y+4547683D01*
X+1804724Y+5118100D02*
X+1804724Y+5133277D01*
X+1864402Y+5192955D01*
X+3836745Y+5192955D01*
X+3873500Y+5156200D01*
X+2037650Y+3277700D02*
X+2050350Y+3265000D01*
X+2088450Y+3277700D02*
X+2094800Y+3277700D01*
X+1948750Y+3277700D02*
X+2037650Y+3277700D01*
X+2088450Y+3277700D01*
X+1872550Y+3318360D02*
X+1908090Y+3318360D01*
X+2101150Y+3265000D02*
X+2101150Y+3277700D01*
X+2094800Y+3277700D02*
X+2101150Y+3277700D01*
X+2101150Y+3265000D02*
X+2101150Y+3226900D01*
X+1999550Y+3226900D01*
X+1948750Y+3277700D01*
X+1908090Y+3318360D02*
X+1872550Y+3353900D01*
X+1643950Y+3303100D02*
X+1643950Y+3226900D01*
X+1745550Y+3226900D01*
X+1796350Y+3277700D01*
X+1948750Y+3277700D01*
X+1675700Y+3303100D02*
X+1694750Y+3303100D01*
X+1732850Y+3303100D01*
X+1923350Y+3303100D01*
X+2012250Y+3303100D01*
X+2101150Y+3303100D01*
X+1694750Y+3265000D02*
X+1732850Y+3303100D01*
X+1948750Y+3277700D02*
X+1923350Y+3303100D01*
X+1908090Y+3318360D01*
X+2012250Y+3303100D02*
X+2037650Y+3277700D01*
X+2101150Y+3277700D02*
X+2101150Y+3303100D01*
X+1694750Y+3265000D02*
X+1694750Y+3303100D01*
X+1675700Y+3303100D02*
X+1643950Y+3303100D01*
X+1840800Y+3360250D02*
X+1866200Y+3360250D01*
X+1878900Y+3360250D01*
X+1917000Y+3360250D01*
X+1878900Y+3360250D02*
X+1872550Y+3353900D01*
X+1866200Y+3360250D01*
X+1840800Y+3360250D02*
X+1701100Y+3360250D01*
X+1643950Y+3303100D01*
X+1616650Y+2814150D02*
X+1616650Y+2854162D01*
X+1616650Y+2878324D01*
X+1448642Y+3046332D01*
X+1448642Y+3060844D01*
X+1448642Y+3074500D01*
X+1616650Y+2800200D02*
X+1616650Y+2814150D01*
X+1448642Y+3074500D02*
X+1448600Y+4598200D01*
X+1448667Y+4598267D01*
X+1576650Y+2820500D02*
X+1576650Y+2842172D01*
X+1576650Y+2866281D01*
X+1551872Y+2891059D01*
X+1411868Y+3031063D01*
X+1411868Y+3064180D01*
X+4127500Y+5156200D02*
X+4054001Y+5229699D01*
X+1849152Y+5229699D01*
X+1767948Y+5148495D01*
X+1767948Y+4993748D01*
X+1411868Y+4637668D01*
X+1411868Y+3064180D01*
X+1576650Y+2820500D02*
X+1576650Y+2800200D01*
X+1866200Y+3144350D02*
X+1872550Y+3144350D01*
X+2094800Y+3061800D02*
X+2063050Y+3061800D01*
X+1872550Y+3105000D02*
X+1872550Y+3144350D01*
X+2094800Y+3061800D02*
X+2094800Y+3144350D01*
X+1936050Y+3144350D02*
X+1936050Y+3105000D01*
X+1936050Y+3061800D01*
X+1936050Y+3105000D02*
X+1872550Y+3105000D01*
X+1872550Y+3144350D02*
X+1936050Y+3144350D01*
X+1993200Y+3061800D02*
X+1993200Y+3105000D01*
X+1993200Y+3144350D01*
X+2050350Y+3105000D02*
X+1993200Y+3105000D01*
X+1980500Y+3144350D02*
X+1980500Y+3105000D01*
X+1980500Y+3061800D01*
X+1993200Y+3105000D02*
X+1980500Y+3105000D01*
X+1980500Y+3144350D02*
X+1993200Y+3144350D01*
X+1967800Y+3061800D02*
X+1967800Y+3105000D01*
X+1967800Y+3144350D01*
X+1980500Y+3105000D02*
X+1967800Y+3105000D01*
X+1967800Y+3144350D02*
X+1980500Y+3144350D01*
X+1955100Y+3144350D02*
X+1955100Y+3105000D01*
X+1955100Y+3061800D01*
X+1967800Y+3105000D02*
X+1955100Y+3105000D01*
X+1955100Y+3144350D02*
X+1967800Y+3144350D01*
X+1948750Y+3061800D02*
X+1948750Y+3105000D01*
X+1948750Y+3144350D01*
X+1955100Y+3105000D02*
X+1948750Y+3105000D01*
X+1936050Y+3105000D01*
X+1936050Y+3144350D02*
X+1948750Y+3144350D01*
X+1955100Y+3144350D01*
X+1696650Y+2990700D02*
X+1696650Y+2997050D01*
X+1696650Y+2971650D02*
X+1696650Y+2990700D01*
X+1715700Y+2978000D02*
X+1709350Y+2971650D01*
X+1696650Y+2958950D01*
X+1696650Y+2800200D02*
X+1696650Y+2958950D01*
X+1696650Y+2971650D01*
X+1696650Y+2997050D02*
X+1696650Y+3022450D01*
X+1709350Y+3022450D01*
X+1722050Y+3009750D01*
X+1722050Y+2984350D01*
X+1715700Y+2978000D01*
X+1709350Y+2971650D02*
X+1696650Y+2971650D01*
X+1677600Y+2978000D02*
X+1683950Y+2971650D01*
X+1696650Y+2958950D01*
X+1696650Y+2971650D02*
X+1683950Y+2971650D01*
X+1677600Y+2978000D02*
X+1671250Y+2984350D01*
X+1671250Y+3009750D01*
X+1683950Y+3022450D01*
X+1709350Y+3022450D01*
X+1851818Y+3061800D02*
X+1872550Y+3082532D01*
X+1872550Y+3105000D01*
X+1809050Y+3117700D02*
X+1809050Y+3061800D01*
X+1809050Y+3014200D01*
X+1866200Y+3144350D02*
X+1809050Y+3144350D01*
X+1809050Y+3117700D01*
X+1830000Y+3061800D02*
X+1851818Y+3061800D01*
D11*
X+1851818Y+3056968D02*
X+1856650Y+3061800D01*
D10*
X+1876346Y+3081496D01*
X+1877066Y+3081496D01*
D11*
X+1851818Y+3056968D02*
X+1851818Y+3061800D01*
D10*
X+1856650Y+3061800D01*
X+1823650Y+3061800D02*
X+1823650Y+3028800D01*
X+1809050Y+3061800D02*
X+1823650Y+3061800D01*
X+1830000Y+3061800D01*
D11*
X+1809050Y+3014200D02*
X+1823650Y+3028800D01*
D10*
X+1830000Y+3061800D02*
X+1830000Y+3035452D01*
X+1830151Y+3035301D01*
D11*
X+1823650Y+3028800D02*
X+1830151Y+3035301D01*
X+1851818Y+3056968D01*
D10*
X+1871250Y+3061800D02*
X+1910754Y+3101304D01*
X+1917998Y+3101304D01*
D11*
X+1736650Y+2800200D02*
X+1736650Y+2927200D01*
D10*
X+1830000Y+2933550D02*
X+1849050Y+2952600D01*
X+1849050Y+2927200D02*
X+1836350Y+2927200D01*
X+1823650Y+2927200D01*
X+1830000Y+2933550D02*
X+1836350Y+2927200D01*
X+1776650Y+2800200D02*
X+1776650Y+2880200D01*
X+1823650Y+2927200D01*
X+1830000Y+2933550D01*
X+1823650Y+2952600D02*
X+1823650Y+2939900D01*
X+1823650Y+2927200D01*
X+1823650Y+2939900D02*
X+1830000Y+2933550D01*
X+1869350Y+3061800D02*
X+1870300Y+3062750D01*
X+1871250Y+3061800D01*
D11*
X+1736650Y+2927200D02*
X+1736650Y+2929100D01*
D10*
X+2026850Y+3061800D02*
X+1993200Y+3061800D01*
X+1980500Y+3061800D01*
X+1967800Y+3061800D01*
X+1955100Y+3061800D01*
X+1948750Y+3061800D01*
X+1936050Y+3061800D01*
X+1871250Y+3061800D01*
X+1869350Y+3061800D01*
X+1868192Y+3061800D01*
X+1736650Y+2930258D01*
X+2026850Y+3061800D02*
X+2063050Y+3061800D01*
D11*
X+1736650Y+2929100D02*
X+1736650Y+2930258D01*
X+1736650Y+2941800D01*
X+1809050Y+3014200D01*
D10*
X+1856650Y+3061800D02*
X+1868192Y+3061800D01*
X+1962701Y+2889099D02*
X+1962700Y+2889099D01*
X+1943650Y+2889099D01*
X+1816650Y+2800200D02*
X+1816650Y+2868187D01*
X+1837563Y+2889100D01*
X+1943650Y+2889099D01*
X+1874450Y+2952600D02*
X+1874450Y+2965300D01*
X+1861750Y+2927200D02*
X+1874450Y+2939900D01*
X+1887150Y+2952600D01*
X+1849050Y+2927200D02*
X+1861750Y+2927200D01*
X+1874450Y+2939900D02*
X+1874450Y+2952600D01*
X+1867425Y+2972325D02*
X+1874450Y+2965300D01*
X+1887150Y+2952600D01*
X+1874450Y+2952600D02*
X+1874450Y+2965300D01*
X+1867425Y+2972325D02*
X+1861750Y+2978000D01*
X+1836350Y+2978000D01*
X+1823650Y+2965300D01*
X+1823650Y+2952600D01*
X+4280351Y+2211474D02*
X+4385682Y+2211474D01*
X+4433974Y+2211474D02*
X+4385682Y+2211474D01*
X+6388100Y+5003800D02*
X+6350000Y+5003800D01*
X+6311900Y+5041900D01*
X+6311900Y+5118100D01*
X+6350000Y+5156200D01*
X+6388100Y+5156200D01*
X+6134100Y+5124450D02*
X+6134100Y+5080000D01*
X+6134100Y+5003800D02*
X+6096000Y+5003800D01*
X+6057900Y+5041900D01*
X+6057900Y+5118100D01*
X+6096000Y+5156200D01*
X+6134100Y+5156200D01*
X+5372100Y+5003800D02*
X+5334000Y+5003800D01*
X+5295900Y+5041900D01*
X+5295900Y+5118100D01*
X+5334000Y+5156200D01*
X+5372100Y+5156200D01*
X+5118100Y+5003800D02*
X+5080000Y+5003800D01*
X+5041900Y+5041900D01*
X+5041900Y+5118100D01*
X+5080000Y+5156200D01*
X+5118100Y+5156200D01*
X+4864100Y+5003800D02*
X+4826000Y+5003800D01*
X+4787900Y+5041900D01*
X+4787900Y+5118100D01*
X+4826000Y+5156200D01*
X+4864100Y+5156200D01*
X+2171700Y+5080000D02*
X+2228850Y+5022850D01*
X+2171700Y+5080000D02*
X+2171700Y+5156200D01*
X+2209800Y+5156200D01*
X+2247900Y+5118100D01*
X+2247900Y+5041900D01*
X+2228850Y+5022850D01*
X+1917700Y+5003800D02*
X+1917700Y+5080000D01*
X+1917700Y+5003800D02*
X+1879600Y+5003800D01*
X+1841500Y+5041900D01*
X+1841500Y+5118100D01*
X+1879600Y+5156200D01*
X+1917700Y+5156200D01*
X+1917700Y+5080000D02*
X+1974850Y+5022850D01*
X+2171700Y+5080000D02*
X+2114550Y+5022850D01*
X+5626100Y+254000D02*
X+5626100Y+279400D01*
X+241650Y+2947700D02*
X+324200Y+3030250D01*
X+324200Y+3468400D01*
X+260700Y+3733800D02*
X+260700Y+3944650D01*
X+260700Y+4404650D02*
X+260700Y+4697500D01*
X+260700Y+3733800D02*
X+260700Y+3531900D01*
X+324200Y+3468400D01*
X+2146300Y+5003800D02*
X+2133600Y+5003800D01*
X+2171700Y+5003800D02*
X+2146300Y+5003800D01*
X+2095500Y+5073650D02*
X+2095500Y+5041900D01*
X+2114550Y+5022850D02*
X+2095500Y+5041900D01*
X+2095500Y+5073650D02*
X+2095500Y+5118100D01*
X+2133600Y+5156200D01*
X+2171700Y+5156200D01*
X+1993900Y+5073650D02*
X+1993900Y+5041900D01*
X+1917700Y+5080000D02*
X+1917700Y+5156200D01*
X+1955800Y+5156200D01*
X+1993900Y+5118100D01*
X+1993900Y+5073650D01*
X+1993900Y+5041900D02*
X+1974850Y+5022850D01*
X+1949450Y+5003800D02*
X+1955800Y+5003800D01*
X+1993900Y+5003800D02*
X+2006600Y+4991100D01*
X+1974850Y+5022850D02*
X+1955800Y+5003800D01*
X+1949450Y+5003800D02*
X+1917700Y+5003800D01*
X+1974850Y+5003800D02*
X+1984375Y+5013325D01*
X+1993900Y+5022850D01*
X+1993900Y+5041900D01*
X+1993900Y+5022850D02*
X+1993900Y+5003800D01*
X+1974850Y+5022850D02*
X+1984375Y+5013325D01*
X+1993900Y+5003800D01*
X+1955800Y+5003800D02*
X+1974850Y+5003800D01*
X+1993900Y+5003800D01*
X+4864100Y+5003800D02*
X+4864100Y+5080000D01*
X+4864100Y+5156200D01*
X+4902200Y+5156200D01*
X+4940300Y+5118100D01*
X+4940300Y+5041900D01*
X+4902200Y+5003800D01*
X+4864100Y+5003800D01*
X+5118100Y+5003800D02*
X+5118100Y+5080000D01*
X+5372100Y+5003800D02*
X+5372100Y+5080000D01*
X+5626100Y+5003800D02*
X+5626100Y+5080000D01*
X+5880100Y+5003800D02*
X+5880100Y+5080000D01*
X+6134100Y+5003800D02*
X+6134100Y+5080000D01*
X+6388100Y+5003800D02*
X+6388100Y+5080000D01*
X+3695700Y+5003800D02*
X+3695700Y+5080000D01*
X+4611754Y+3135205D02*
X+4632336Y+3114623D01*
X+4625220Y+3174071D02*
X+4632336Y+3166955D01*
X+4632336Y+3055719D02*
X+4630804Y+3054187D01*
X+4632336Y+3052655D01*
D13*
X+4632336Y+3065355D02*
X+4632336Y+3055719D01*
X+4632336Y+3052655D01*
D10*
X+4466073Y+3243525D02*
X+4497823Y+3211775D01*
X+4625220Y+3174071D02*
X+4587886Y+3211405D01*
X+4514094Y+3170896D02*
X+4504965Y+3180025D01*
X+4485519Y+3199471D01*
X+4466073Y+3218917D01*
X+4466073Y+3243525D01*
X+4466073Y+3180025D02*
X+4504965Y+3180025D01*
X+4514094Y+3170896D02*
X+4542669Y+3142321D01*
X+4485519Y+3199471D02*
X+4466073Y+3180025D01*
X+4545448Y+3227650D02*
X+4561693Y+3211405D01*
X+4574790Y+3198308D01*
X+4611754Y+3161344D01*
X+4611754Y+3135205D01*
X+4529573Y+3243525D02*
X+4545448Y+3227650D01*
X+4529573Y+3243525D02*
X+4516873Y+3230825D01*
X+4504173Y+3218125D02*
X+4549390Y+3172908D01*
X+4504173Y+3218125D02*
X+4497823Y+3211775D01*
X+4549390Y+3172908D02*
X+4543040Y+3166558D01*
X+4491473Y+3205425D02*
X+4536690Y+3160208D01*
X+4543040Y+3166558D02*
X+4536690Y+3160208D01*
X+4530736Y+3154255D01*
X+4630804Y+3054187D01*
X+4497823Y+3211775D02*
X+4491473Y+3205425D01*
X+4485519Y+3199471D01*
X+4593469Y+3205821D02*
X+4587886Y+3211404D01*
X+4587885Y+3211405D01*
X+4466073Y+3307025D02*
X+4510523Y+3262575D01*
X+4587886Y+3211404D02*
X+4587886Y+3211405D01*
X+4587885Y+3211405D01*
X+4478773Y+3307025D02*
X+4574393Y+3211405D01*
X+4581140Y+3204658D01*
X+4632336Y+3153462D01*
X+4674461Y+3111337D01*
X+4687954Y+3111337D01*
X+4632336Y+3166955D02*
X+4687954Y+3111337D01*
X+4632336Y+3055719D01*
X+4632336Y+3114623D02*
X+4632336Y+3153462D01*
X+4632336Y+3166955D01*
X+4587885Y+3211405D02*
X+4492265Y+3307025D01*
X+4478773Y+3307025D01*
X+4466073Y+3307025D01*
X+4561693Y+3211405D02*
X+4574393Y+3211405D01*
X+4587885Y+3211405D01*
X+4587886Y+3211404D02*
X+4581140Y+3204658D01*
X+4574790Y+3198308D01*
D13*
X+4632336Y+3052655D02*
X+4632336Y+3003387D01*
X+4599423Y+2970474D01*
X+4599423Y+2912324D01*
X+4665598Y+2846149D01*
X+4492636Y+2927187D02*
X+4460886Y+2958937D01*
X+4460886Y+2984337D01*
D10*
X+4391036Y+2990687D02*
X+4384686Y+2997037D01*
X+4289436Y+3111337D02*
X+4394211Y+3006562D01*
X+4397801Y+3002972D01*
X+4397801Y+3000476D01*
X+4384686Y+2997037D02*
X+4289436Y+3092287D01*
X+4289436Y+3111337D01*
X+4289436Y+3130387D01*
X+4403736Y+3016087D01*
X+4394211Y+3006562D01*
X+4384686Y+2997037D01*
X+4422786Y+3098637D02*
X+4422786Y+3085937D01*
X+4422786Y+3022437D02*
X+4429136Y+3016087D01*
D13*
X+4460886Y+2984337D02*
X+4429136Y+3016087D01*
D10*
X+4435486Y+3073237D02*
X+4429136Y+3079587D01*
X+4422786Y+3085937D01*
X+4435486Y+3047837D02*
X+4422786Y+3060537D01*
X+4422786Y+3085937D02*
X+4422786Y+3060537D01*
X+4422786Y+3022437D01*
X+4422786Y+3098637D02*
X+4422786Y+3117687D01*
X+4422786Y+3124037D01*
X+4410086Y+3136737D01*
X+4524386Y+2958937D02*
X+4435486Y+3047837D01*
X+4435486Y+3073237D01*
X+4410086Y+3098637D02*
X+4410086Y+3073237D01*
X+4410086Y+3035137D02*
X+4422786Y+3022437D01*
X+4422786Y+3060537D02*
X+4410086Y+3073237D01*
X+4410086Y+3098637D02*
X+4410086Y+3136737D01*
X+4410086Y+3054187D02*
X+4397386Y+3066887D01*
X+4397386Y+3079587D01*
X+4397386Y+3149437D01*
X+4387861Y+3158962D01*
X+4410086Y+3136737D02*
X+4397386Y+3149437D01*
X+4410086Y+3073237D02*
X+4410086Y+3054187D01*
X+4410086Y+3035137D01*
X+4387861Y+3057362D02*
X+4384686Y+3060537D01*
X+4384686Y+3162137D01*
X+4352936Y+3130387D02*
X+4384686Y+3162137D01*
X+4352936Y+3193887D01*
X+4289436Y+3130387D01*
D13*
X+4410086Y+3035137D02*
X+4387861Y+3057362D01*
X+4384686Y+3060537D02*
X+4352936Y+3092287D01*
X+4352936Y+3130387D01*
D10*
X+4387861Y+3158962D02*
X+4384686Y+3162137D01*
X+4371986Y+3174837D01*
X+4473586Y+2908137D02*
X+4511686Y+2908137D01*
D13*
X+4492636Y+2927187D01*
D10*
X+4391036Y+2990687D02*
X+4473586Y+2908137D01*
X+4492636Y+2927187D01*
X+4537086Y+2971637D02*
X+4537086Y+2882737D01*
X+4524386Y+2958937D02*
X+4537086Y+2971637D01*
X+4441836Y+3066887D01*
X+4435486Y+3073237D01*
D13*
X+4619636Y+2800187D02*
X+4537086Y+2882737D01*
D10*
X+4524386Y+2958937D02*
X+4524386Y+2895437D01*
D13*
X+4537086Y+2882737D02*
X+4524386Y+2895437D01*
X+4511686Y+2908137D01*
D10*
X+4511686Y+2946237D02*
X+4511686Y+2908137D01*
X+4492636Y+2927187D02*
X+4511686Y+2946237D01*
X+4524386Y+2958937D01*
X+6388100Y+330200D02*
X+6388100Y+254000D01*
X+6134100Y+279237D02*
X+6134100Y+285750D01*
X+6134100Y+330200D01*
X+6134100Y+254000D02*
X+6134100Y+279237D01*
X+5880100Y+330200D02*
X+5880100Y+254000D01*
X+5626100Y+279400D02*
X+5626100Y+330200D01*
X+5372100Y+330200D02*
X+5372100Y+254000D01*
X+5118100Y+266537D02*
X+5118100Y+279400D01*
X+5118100Y+330200D01*
X+5118100Y+254000D02*
X+5118100Y+266537D01*
X+3441700Y+5003800D02*
X+3441700Y+5080000D01*
X+3441700Y+5156200D01*
X+3479800Y+5156200D01*
X+3517900Y+5118100D01*
X+3517900Y+5041900D01*
X+3479800Y+5003800D01*
X+3441700Y+5003800D01*
X+3187700Y+5156200D02*
X+3187700Y+5080000D01*
X+3187700Y+5003800D01*
X+2933700Y+5003800D02*
X+2933700Y+5080000D01*
X+2171700Y+5003800D02*
X+2171700Y+5080000D01*
X+2228850Y+5022850D02*
X+2209800Y+5003800D01*
X+2171700Y+5003800D01*
X+4435789Y+2616339D02*
X+2171700Y+4880428D01*
X+2171700Y+4929840D01*
X+2114550Y+5022850D02*
X+2133600Y+5003800D01*
X+2171700Y+4965700D02*
X+2171700Y+4946487D01*
X+2171700Y+4929840D01*
X+2144800Y+4992601D02*
X+2146464Y+4990937D01*
X+2162186Y+4990937D01*
X+2171700Y+4990937D01*
X+2196937Y+4990937D01*
X+2196938Y+4990937D01*
X+2204962Y+4998961D01*
X+2209800Y+5003800D02*
X+2204962Y+4998961D01*
X+2196938Y+4990937D01*
X+2196937Y+4990937D01*
X+2171700Y+4965700D01*
X+2171700Y+4990937D02*
X+2171700Y+5003800D01*
X+2160674Y+4976725D02*
X+2160675Y+4976725D01*
X+2171700Y+4976725D01*
X+2182724Y+4976725D01*
X+2189086Y+4983087D01*
X+2133600Y+5003800D02*
X+2160675Y+4976725D01*
X+2160674Y+4976725D02*
X+2171700Y+4965700D01*
X+2171700Y+4976725D01*
X+2171700Y+4990937D01*
X+2001924Y+4995775D02*
X+2025650Y+4972049D01*
X+2006600Y+4991100D02*
X+2025650Y+4972049D01*
X+4352936Y+2644763D01*
X+4352936Y+2571913D01*
X+4435789Y+2489060D01*
X+485700Y+5157500D02*
X+485700Y+4697500D01*
X+1654100Y+4697500D02*
X+1679500Y+4697500D01*
X+1654100Y+4722900D02*
X+1666800Y+4722900D01*
X+1654100Y+4697500D02*
X+1654100Y+4722900D01*
X+1666800Y+4722900D02*
X+1679500Y+4710200D01*
X+1692200Y+4697500D01*
X+1679500Y+4697500D02*
X+1692200Y+4697500D01*
X+2248188Y+4697500D01*
X+4048136Y+2897552D01*
X+4048136Y+2797861D01*
X+4042949Y+2792674D01*
X+1679500Y+4710200D02*
X+1679500Y+4697500D01*
X+1673150Y+4678450D02*
X+1679500Y+4684800D01*
X+1692200Y+4697500D01*
X+1679500Y+4697500D02*
X+1679500Y+4684800D01*
X+1673150Y+4678450D02*
X+1666800Y+4672100D01*
X+1641400Y+4672100D01*
X+1628700Y+4684800D01*
X+1628700Y+4710200D01*
X+1641400Y+4722900D01*
X+1654100Y+4722900D01*
X+5017860Y+2401962D02*
X+5022687Y+2397136D01*
X+4356100Y+254000D02*
X+4279900Y+254000D01*
X+4178300Y+254000D01*
X+4102100Y+254000D01*
X+3594100Y+254000D02*
X+3536950Y+196850D01*
X+3143250Y+196850D02*
X+3086100Y+254000D01*
X+4864100Y+254000D02*
X+4806950Y+196850D01*
X+4413250Y+196850D02*
X+4356100Y+254000D01*
X+4826000Y+177800D02*
X+4806950Y+196850D01*
X+4787900Y+234950D02*
X+4787900Y+215900D01*
X+4806950Y+196850D02*
X+4787900Y+215900D01*
X+4787900Y+234950D02*
X+4787900Y+292100D01*
X+4826000Y+330200D01*
X+4864100Y+330200D01*
X+4787900Y+203200D02*
X+4800600Y+190500D01*
X+4813300Y+177800D01*
X+4806950Y+196850D02*
X+4800600Y+190500D01*
X+4787900Y+215900D02*
X+4787900Y+203200D01*
X+4787900Y+177800D01*
X+4432300Y+254000D02*
X+4432300Y+215900D01*
X+4356100Y+254000D02*
X+4356100Y+330200D01*
X+4394200Y+330200D01*
X+4432300Y+292100D01*
X+4432300Y+254000D01*
X+4432300Y+215900D02*
X+4413250Y+196850D01*
X+4394200Y+177800D01*
X+4413250Y+177800D02*
X+4422775Y+187325D01*
X+4432300Y+196850D01*
X+4432300Y+215900D01*
X+4432300Y+196850D02*
X+4432300Y+177800D01*
X+4422775Y+187325D01*
X+4413250Y+196850D01*
X+4178300Y+254000D02*
X+4178300Y+215900D01*
X+4140200Y+177800D01*
X+4318000Y+177800D02*
X+4279900Y+215900D01*
X+4279900Y+254000D01*
X+4095750Y+330200D02*
X+4102100Y+330200D01*
X+4140200Y+330200D01*
X+4318000Y+330200D01*
X+4346980Y+330200D01*
X+4102100Y+254000D02*
X+4102100Y+330200D01*
X+4140200Y+330200D02*
X+4178300Y+292100D01*
X+4178300Y+254000D01*
X+4279900Y+254000D02*
X+4279900Y+292100D01*
X+4318000Y+330200D01*
X+4346980Y+330200D02*
X+4356100Y+330200D01*
X+3600450Y+177800D02*
X+3556000Y+177800D01*
X+3594100Y+254000D02*
X+3594100Y+330200D01*
X+3632200Y+330200D01*
X+3670300Y+292100D01*
X+3670300Y+215900D01*
X+3632200Y+177800D01*
X+3600450Y+177800D01*
X+3556000Y+177800D02*
X+3536950Y+196850D01*
X+3517900Y+234950D02*
X+3517900Y+215900D01*
X+3517900Y+177800D02*
X+3495675Y+155575D01*
X+3536950Y+196850D02*
X+3517900Y+215900D01*
X+3517900Y+234950D02*
X+3517900Y+292100D01*
X+3556000Y+330200D01*
X+3594100Y+330200D01*
X+3517900Y+196850D02*
X+3527425Y+187325D01*
X+3536950Y+177800D01*
X+3536961Y+177789D01*
X+3555343Y+177789D01*
X+3556000Y+177800D02*
X+3536950Y+177800D01*
X+3517900Y+177800D01*
X+3536950Y+196850D02*
X+3527425Y+187325D01*
X+3517900Y+177800D01*
X+3517900Y+215900D02*
X+3517900Y+196850D01*
X+3517900Y+177800D01*
X+3162300Y+254000D02*
X+3162300Y+215900D01*
X+3086100Y+254000D02*
X+3086100Y+330200D01*
X+3124200Y+330200D01*
X+3162300Y+292100D01*
X+3162300Y+254000D01*
X+3162300Y+215900D02*
X+3143250Y+196850D01*
X+3105150Y+177800D02*
X+3124200Y+177800D01*
X+3162300Y+177800D02*
X+3175000Y+165100D01*
X+3181350Y+158750D01*
X+3143250Y+196850D02*
X+3124200Y+177800D01*
X+3105150Y+177800D02*
X+3048000Y+177800D01*
X+3009900Y+215900D01*
X+3009900Y+292100D01*
X+3048000Y+330200D01*
X+3086100Y+330200D01*
X+3495675Y+155575D02*
X+3481107Y+141007D01*
X+3341330Y+141007D01*
X+3199093Y+141007D01*
X+3181350Y+158750D01*
X+3136900Y+177800D02*
X+3149600Y+190500D01*
X+3162300Y+203200D01*
X+3162300Y+215900D01*
X+3162300Y+203200D02*
X+3162300Y+177800D01*
X+3149600Y+190500D01*
X+3143250Y+196850D01*
X+3124200Y+177800D02*
X+3136900Y+177800D01*
X+3162300Y+177800D01*
X+5018011Y+2401811D02*
X+5022687Y+2397136D01*
X+387700Y+598100D02*
X+241650Y+598100D01*
X+387700Y+1182300D02*
X+241650Y+1182300D01*
X+387700Y+1709450D02*
X+241650Y+1709450D01*
X+241650Y+2947700D02*
X+416800Y+2947700D01*
X+426650Y+2947700D01*
X+486650Y+2887700D01*
X+416800Y+2947700D02*
X+416800Y+2957550D01*
X+556500Y+2957550D01*
X+486650Y+2217700D02*
X+426650Y+2157700D01*
X+241650Y+2157700D01*
X+3289500Y+317700D02*
X+3302000Y+330200D01*
X+3340100Y+330200D01*
X+3391050Y+317350D02*
X+3378200Y+330200D01*
X+3340100Y+330200D02*
X+3378200Y+330200D01*
X+3391050Y+317350D02*
X+3416300Y+292100D01*
X+3416300Y+215900D01*
X+3378200Y+177800D01*
X+3302000Y+177800D01*
X+3263900Y+215900D01*
X+3263900Y+292100D01*
X+3289500Y+317700D01*
X+2578100Y+254000D02*
X+2635250Y+311150D01*
X+2654300Y+260400D02*
X+2654300Y+292100D01*
X+2635250Y+311150D02*
X+2654300Y+292100D01*
X+2654300Y+260400D02*
X+2654300Y+215900D01*
X+2616200Y+177800D01*
X+2540000Y+177800D01*
X+2501900Y+215900D01*
X+2501900Y+273050D01*
X+2610200Y+330200D02*
X+2616200Y+330200D01*
X+2578100Y+330200D02*
X+2610200Y+330200D01*
X+1374650Y+2434400D02*
X+1355600Y+2415350D01*
X+1381000Y+2409000D02*
X+1381000Y+2415350D01*
X+1381000Y+2428050D01*
X+1381000Y+2440750D01*
X+1355600Y+2415350D02*
X+1381000Y+2415350D01*
X+1374650Y+2434400D02*
X+1381000Y+2428050D01*
X+1381000Y+2409000D02*
X+1381000Y+2402650D01*
X+1501650Y+2485200D02*
X+1425450Y+2485200D01*
X+1412750Y+2472500D01*
X+1381000Y+2440750D01*
X+1374650Y+2434400D01*
X+1355600Y+2440750D02*
X+1368300Y+2440750D01*
X+1381000Y+2440750D01*
X+1381000Y+2409000D02*
X+1381000Y+2402650D01*
X+1368300Y+2389950D01*
X+1342900Y+2389950D01*
X+1330200Y+2402650D01*
X+1330200Y+2428050D01*
X+1342900Y+2440750D01*
X+1355600Y+2440750D01*
X+1368300Y+2440750D02*
X+1374650Y+2434400D01*
X+1810932Y+2206982D02*
X+1820087Y+2197827D01*
X+1855364Y+2162550D01*
X+1874450Y+2162550D01*
X+1839173Y+2197827D01*
X+1820087Y+2197827D01*
X+1810932Y+2206982D02*
X+1771098Y+2246816D01*
X+1736650Y+2281264D01*
X+1736650Y+2410200D01*
D11*
X+1696650Y+2410200D02*
X+1696650Y+2175250D01*
X+1709350Y+2162550D01*
D14*
X+1869350Y+2002550D01*
X+1874450Y+2002550D01*
D10*
X+1379150Y+2162550D02*
X+1214050Y+2162550D01*
X+1544250Y+2162550D02*
X+1549350Y+2162550D01*
X+1540429Y+2162550D02*
X+1379150Y+2162550D01*
X+1214050Y+2162550D02*
X+1163250Y+2162550D01*
X+1587450Y+2124450D02*
X+1549350Y+2162550D01*
X+1525200Y+2200650D02*
X+1544250Y+2200650D01*
X+1544250Y+2162550D02*
X+1544250Y+2200650D01*
X+1588700Y+2200650D02*
X+1588700Y+2194300D01*
X+1588700Y+2124450D02*
X+1588700Y+2123200D01*
X+1587450Y+2124450D02*
X+1588700Y+2124450D01*
X+1588700Y+2123200D02*
X+1587450Y+2124450D01*
X+1544250Y+2200650D02*
X+1588700Y+2200650D01*
X+1595050Y+2200650D01*
X+1549350Y+2162550D02*
X+1556950Y+2162550D01*
X+1588700Y+2194300D01*
X+1595050Y+2200650D01*
X+1360100Y+2270500D02*
X+1334700Y+2270500D01*
X+1353750Y+2289550D02*
X+1360100Y+2283200D01*
X+1372800Y+2270500D01*
X+1334700Y+2270500D02*
X+1334700Y+2295900D01*
X+1347400Y+2295900D01*
X+1353750Y+2289550D01*
X+1360100Y+2283200D02*
X+1360100Y+2270500D01*
X+1616650Y+2410200D02*
X+1616650Y+2327686D01*
X+1559464Y+2270500D01*
X+1372800Y+2270500D01*
X+1360100Y+2270500D01*
X+1353750Y+2251450D02*
X+1360100Y+2257800D01*
X+1372800Y+2270500D01*
X+1360100Y+2270500D02*
X+1360100Y+2257800D01*
X+1353750Y+2251450D02*
X+1347400Y+2245100D01*
X+1322000Y+2245100D01*
X+1309300Y+2257800D01*
X+1309300Y+2283200D01*
X+1322000Y+2295900D01*
X+1347400Y+2295900D01*
X+1429950Y+2334000D02*
X+1410900Y+2334000D01*
X+1404550Y+2334000D01*
X+1423600Y+2353050D02*
X+1429950Y+2346700D01*
X+1442650Y+2334000D01*
D11*
X+1576650Y+2410200D02*
X+1576650Y+2365062D01*
X+1545588Y+2334000D01*
X+1442650Y+2334000D01*
X+1429950Y+2334000D01*
D10*
X+1417250Y+2308600D02*
X+1423600Y+2314950D01*
X+1429950Y+2321300D01*
X+1442650Y+2334000D01*
X+1417250Y+2308600D02*
X+1391850Y+2308600D01*
X+1379150Y+2321300D01*
X+1379150Y+2346700D01*
X+1391850Y+2359400D01*
X+1410900Y+2359400D01*
X+947350Y+1862550D02*
X+953700Y+1862550D01*
X+1074050Y+1862550D01*
X+1214050Y+2002550D01*
X+693350Y+2002550D02*
X+833350Y+1862550D01*
X+947350Y+1862550D01*
X+1544250Y+2002550D02*
X+1544250Y+1843800D01*
X+1389050Y+1829500D02*
X+1449000Y+1889450D01*
X+1449000Y+1945400D01*
X+1391850Y+2002550D01*
X+1379150Y+2002550D01*
X+1389050Y+1779500D02*
X+1466650Y+1779500D01*
X+1511900Y+1824750D01*
X+1544250Y+1824750D01*
X+1544250Y+1843800D01*
X+1887150Y+1843800D02*
X+1889691Y+1843800D01*
X+1891281Y+1845390D01*
X+1887150Y+1843800D01*
X+2363086Y+1875836D02*
X+2342175Y+1854925D01*
X+2362799Y+2139100D02*
X+2369150Y+2139100D01*
X+2362799Y+2139100D02*
X+2369150Y+2132749D01*
X+5885026Y+88824D02*
X+5833452Y+37250D01*
X+370464Y+37250D02*
X+351201Y+56513D01*
X+302382Y+105332D01*
X+254757Y+152957D02*
X+302382Y+105332D01*
X+1071802Y+28542D02*
X+1080510Y+37250D01*
X+762000Y+203200D02*
X+790575Y+174625D01*
X+800100Y+215050D02*
X+800100Y+184150D01*
X+800100Y+165100D01*
X+790575Y+174625D02*
X+800100Y+165100D01*
X+762000Y+203200D02*
X+762000Y+241300D01*
X+781050Y+241300D01*
X+800100Y+222250D01*
X+800100Y+215050D01*
X+800100Y+184150D02*
X+790575Y+174625D01*
X+755000Y+165100D02*
X+781050Y+165100D01*
X+800100Y+165100D01*
X+816075Y+149125D01*
X+790575Y+174625D02*
X+781050Y+165100D01*
X+755000Y+165100D02*
X+742950Y+165100D01*
X+723900Y+184150D01*
X+723900Y+222250D01*
X+742950Y+241300D01*
X+768350Y+241300D01*
D14*
X+1301550Y+1779500D02*
X+1214050Y+1779500D01*
D10*
X+2089700Y+3144350D02*
X+2050350Y+3105000D01*
X+1993200Y+3144350D02*
X+2089700Y+3144350D01*
X+2094800Y+3144350D01*
X+1720150Y+3422500D02*
X+1720150Y+3435200D01*
X+1720150Y+3447900D01*
X+1720150Y+3460600D01*
X+1694750Y+3435200D02*
X+1720150Y+3435200D01*
X+1713800Y+3454250D02*
X+1720150Y+3447900D01*
X+1701100Y+3460600D02*
X+1707450Y+3460600D01*
X+1720150Y+3460600D01*
X+1720150Y+3422500D02*
X+1707450Y+3409800D01*
X+1682050Y+3409800D01*
X+1669350Y+3422500D01*
X+1669350Y+3447900D01*
X+1682050Y+3460600D01*
X+1701100Y+3460600D01*
X+1707450Y+3460600D02*
X+1713800Y+3454250D01*
D11*
X+1501650Y+2525200D02*
X+1412749Y+2525200D01*
X+1377149Y+2489600D01*
X+1274200Y+2489600D01*
X+1210700Y+2426100D01*
X+1210700Y+2419750D01*
D15*
X+1694750Y+3435200D02*
X+1713800Y+3454250D01*
X+1720150Y+3460600D01*
D10*
X+2094800Y+3144350D02*
X+2101150Y+3144350D01*
X+2101150Y+3061800D01*
X+2094800Y+3061800D01*
D15*
X+2101150Y+3144350D02*
X+2146300Y+3189500D01*
X+2146300Y+3314700D01*
X+1968500Y+3492500D01*
X+1752050Y+3492500D01*
X+1720150Y+3460600D01*
D10*
X+635000Y+330200D02*
X+635000Y+368300D01*
X+654050Y+368300D01*
X+673100Y+349250D01*
X+673100Y+311150D01*
X+654050Y+292100D01*
X+615950Y+292100D01*
X+596900Y+311150D01*
X+596900Y+349250D01*
X+615950Y+368300D01*
X+641350Y+368300D01*
X+635000Y+203200D02*
X+606425Y+231775D01*
X+174401Y+670352D02*
X+174401Y+950051D01*
X+241650Y+1017300D01*
X+596900Y+196850D02*
X+596900Y+222250D01*
X+596900Y+241300D01*
X+606425Y+231775D02*
X+596900Y+241300D01*
X+596900Y+222250D02*
X+606425Y+231775D01*
X+641350Y+241300D02*
X+635000Y+241300D01*
X+615950Y+241300D01*
X+596900Y+241300D01*
X+606425Y+231775D02*
X+615950Y+241300D01*
X+635000Y+203200D02*
X+635000Y+241300D01*
X+996950Y+311150D02*
X+996950Y+336550D01*
X+996950Y+622300D02*
X+996950Y+635000D01*
X+996950Y+609600D02*
X+996950Y+622300D01*
X+1016000Y+615950D02*
X+1009650Y+609600D01*
X+996950Y+596900D01*
X+996950Y+635000D02*
X+996950Y+660400D01*
X+1009650Y+660400D01*
X+1022350Y+647700D01*
X+1022350Y+622300D01*
X+1016000Y+615950D01*
X+1009650Y+609600D02*
X+996950Y+609600D01*
X+996950Y+596900D02*
X+996950Y+609600D01*
X+984250Y+609600D02*
X+996950Y+596900D01*
X+996950Y+609600D02*
X+984250Y+609600D01*
X+971550Y+622300D01*
X+971550Y+647700D01*
X+984250Y+660400D01*
X+1009650Y+660400D01*
X+1016000Y+330200D02*
X+1009650Y+336550D01*
X+996950Y+349250D01*
X+996950Y+336550D02*
X+1009650Y+336550D01*
X+996950Y+336550D02*
X+996950Y+349250D01*
X+996950Y+596900D01*
X+977900Y+330200D02*
X+984250Y+336550D01*
X+996950Y+349250D01*
X+1016000Y+330200D02*
X+1022350Y+323850D01*
X+1022350Y+298450D01*
X+1009650Y+285750D01*
X+984250Y+285750D01*
X+971550Y+298450D01*
X+971550Y+323850D01*
X+977900Y+330200D01*
X+984250Y+336550D02*
X+1009650Y+336550D01*
X+2369150Y+2050200D02*
X+2369150Y+1961300D01*
X+2369150Y+1881900D01*
X+2363086Y+1875836D01*
X+6324600Y+304800D02*
X+6350000Y+330200D01*
X+6388100Y+330200D01*
X+5114611Y+2489060D02*
X+6388100Y+1215571D01*
X+6388100Y+401866D01*
X+6438900Y+317500D02*
X+6426200Y+330200D01*
X+6388100Y+368300D02*
X+6388100Y+381000D01*
X+6388100Y+401866D01*
X+6388100Y+330200D02*
X+6426200Y+330200D01*
X+6438900Y+317500D02*
X+6464300Y+292100D01*
X+6464300Y+215900D01*
X+6426200Y+177800D01*
X+6350000Y+177800D01*
X+6311900Y+215900D01*
X+6311900Y+292100D01*
X+6324600Y+304800D01*
X+6359525Y+339725D02*
X+6362700Y+342900D01*
X+6388100Y+342900D01*
X+6413500Y+342900D01*
X+6350000Y+330200D02*
X+6359525Y+339725D01*
X+6362700Y+342900D02*
X+6388100Y+368300D01*
X+6388100Y+342900D01*
X+6388100Y+334000D01*
X+6388100Y+330200D01*
X+6426200Y+330200D02*
X+6413500Y+342900D01*
X+6388100Y+368300D01*
X+6197600Y+304800D02*
X+6172200Y+330200D01*
X+6134100Y+330200D02*
X+6172200Y+330200D01*
X+6134100Y+398310D02*
X+6134100Y+1377647D01*
X+5068649Y+2443098D01*
X+6086475Y+320675D02*
X+6096000Y+330200D01*
X+6134100Y+368300D02*
X+6134100Y+381000D01*
X+6134100Y+398310D01*
X+6197600Y+304800D02*
X+6210300Y+292100D01*
X+6210300Y+215900D01*
X+6172200Y+177800D01*
X+6096000Y+177800D01*
X+6057900Y+215900D01*
X+6057900Y+292100D01*
X+6086475Y+320675D01*
X+6096000Y+330200D02*
X+6134100Y+330200D01*
X+6108700Y+342900D02*
X+6134100Y+342900D01*
X+6159500Y+342900D01*
X+6169025Y+333375D01*
X+6172200Y+330200D02*
X+6169025Y+333375D01*
X+6159500Y+342900D02*
X+6134100Y+368300D01*
X+6134100Y+330200D02*
X+6134100Y+342900D01*
X+6134100Y+368300D01*
X+6096000Y+330200D02*
X+6108700Y+342900D01*
X+6134100Y+368300D01*
X+5930900Y+317500D02*
X+5918200Y+330200D01*
X+5880100Y+330200D02*
X+5918200Y+330200D01*
X+4976725Y+2351174D02*
X+5880100Y+1447799D01*
X+5880100Y+385179D01*
X+5829300Y+317500D02*
X+5842000Y+330200D01*
X+5880100Y+368300D02*
X+5880100Y+385179D01*
X+5930900Y+317500D02*
X+5956300Y+292100D01*
X+5956300Y+215900D01*
X+5918200Y+177800D01*
X+5842000Y+177800D01*
X+5803900Y+215900D01*
X+5803900Y+292100D01*
X+5829300Y+317500D01*
X+5842000Y+330200D02*
X+5880100Y+330200D01*
X+5848350Y+336550D02*
X+5854700Y+342900D01*
X+5880100Y+342900D01*
X+5905500Y+342900D01*
X+5918200Y+330200D02*
X+5905500Y+342900D01*
X+5880100Y+368300D01*
X+5880100Y+342900D01*
X+5880100Y+334000D01*
X+5880100Y+330200D01*
X+5842000Y+330200D02*
X+5848350Y+336550D01*
X+5854700Y+342900D02*
X+5880100Y+368300D01*
X+5689600Y+304800D02*
X+5664200Y+330200D01*
X+5626100Y+330200D02*
X+5664200Y+330200D01*
X+5626100Y+378808D02*
X+5626100Y+1609875D01*
X+4930763Y+2305212D01*
X+5575300Y+317500D02*
X+5588000Y+330200D01*
X+5626100Y+368300D02*
X+5626100Y+374650D01*
X+5626100Y+378808D01*
X+5689600Y+304800D02*
X+5702300Y+292100D01*
X+5702300Y+215900D01*
X+5664200Y+177800D01*
X+5588000Y+177800D01*
X+5549900Y+215900D01*
X+5549900Y+292100D01*
X+5575300Y+317500D01*
X+5588000Y+330200D02*
X+5626100Y+330200D01*
X+5600700Y+342900D02*
X+5626100Y+342900D01*
X+5651500Y+342900D01*
X+5657850Y+336550D01*
X+5664200Y+330200D02*
X+5657850Y+336550D01*
X+5651500Y+342900D02*
X+5626100Y+368300D01*
X+5626100Y+330200D02*
X+5626100Y+342900D01*
X+5626100Y+368300D01*
X+5588000Y+330200D02*
X+5600700Y+342900D01*
X+5626100Y+368300D01*
X+5432425Y+307975D02*
X+5410200Y+330200D01*
X+5372100Y+330200D02*
X+5410200Y+330200D01*
X+4884801Y+2259250D02*
X+5372100Y+1771951D01*
X+5372100Y+395195D01*
X+5314950Y+311150D02*
X+5334000Y+330200D01*
X+5372100Y+368300D02*
X+5372100Y+381000D01*
X+5372100Y+395195D01*
X+5432425Y+307975D02*
X+5448300Y+292100D01*
X+5448300Y+215900D01*
X+5410200Y+177800D01*
X+5334000Y+177800D01*
X+5295900Y+215900D01*
X+5295900Y+292100D01*
X+5314950Y+311150D01*
X+5334000Y+330200D02*
X+5372100Y+330200D01*
X+5346700Y+342900D02*
X+5372100Y+342900D01*
X+5397500Y+342900D01*
X+5407025Y+333375D01*
X+5410200Y+330200D02*
X+5407025Y+333375D01*
X+5397500Y+342900D02*
X+5372100Y+368300D01*
X+5372100Y+342900D01*
X+5372100Y+330200D01*
X+5334000Y+330200D02*
X+5346700Y+342900D01*
X+5372100Y+368300D01*
X+5181600Y+304800D02*
X+5156200Y+330200D01*
X+5118100Y+368300D01*
X+5118100Y+390991D02*
X+5118100Y+1934029D01*
X+4838840Y+2213289D01*
X+5060950Y+311150D02*
X+5080000Y+330200D01*
X+5118100Y+368300D02*
X+5118100Y+383642D01*
X+5118100Y+390991D01*
X+5181600Y+304800D02*
X+5194300Y+292100D01*
X+5194300Y+215900D01*
X+5156200Y+177800D01*
X+5080000Y+177800D01*
X+5041900Y+215900D01*
X+5041900Y+292100D01*
X+5060950Y+311150D01*
X+5080000Y+330200D02*
X+5118100Y+330200D01*
X+5092700Y+342900D02*
X+5118100Y+342900D01*
X+5140325Y+342900D01*
X+5153025Y+330200D01*
X+5118100Y+330200D02*
X+5153025Y+330200D01*
X+5156200Y+330200D01*
X+5118100Y+330200D02*
X+5118100Y+342900D01*
X+5118100Y+368300D01*
X+5080000Y+330200D02*
X+5092700Y+342900D01*
X+5118100Y+368300D01*
X+4876800Y+141008D02*
X+4803123Y+141008D01*
X+4417050Y+141008D01*
X+4403358Y+141008D01*
X+4711560Y+2213289D02*
X+4686300Y+2188029D01*
X+4686300Y+2057400D01*
X+4991100Y+1752600D01*
X+4991100Y+214742D01*
X+4917366Y+141008D01*
X+4876800Y+141008D01*
X+4417050Y+141008D02*
X+4417000Y+141058D01*
X+3533146Y+141058D01*
X+3496336Y+104248D01*
X+3183821Y+104248D01*
X+3147035Y+141034D01*
X+2270734Y+141034D01*
X+1901246Y+510522D01*
X+1371232Y+510522D01*
X+952298Y+91588D01*
X+821608Y+91588D01*
X+784850Y+128346D01*
X+600669Y+128346D01*
X+469900Y+259169D01*
X+469900Y+361950D01*
X+393750Y+438100D01*
X+387700Y+438100D01*
X+4356100Y+104311D02*
X+4397887Y+104311D01*
X+4397968Y+104230D01*
X+4401800Y+104230D01*
X+4401716Y+104314D01*
X+4356100Y+104311D01*
X+4845050Y+177800D02*
X+4832350Y+177800D01*
X+4826000Y+177800D01*
X+4813300Y+177800D01*
X+4787900Y+177800D01*
X+4700217Y+177800D01*
X+4723063Y+200646D01*
X+4723063Y+241300D01*
X+4723063Y+307361D01*
X+4663485Y+366939D01*
X+4556751Y+366939D01*
X+4514256Y+324444D01*
X+4497113Y+307301D01*
X+4497113Y+200693D01*
X+4520006Y+177800D01*
X+4432300Y+177800D01*
X+4413250Y+177800D01*
X+4394200Y+177800D01*
X+4375150Y+177800D01*
X+4349750Y+177800D01*
X+4324350Y+177800D01*
X+4318000Y+177800D02*
X+4324350Y+177800D01*
X+4178300Y+177800D02*
X+4140200Y+177800D01*
X+4102100Y+177800D01*
X+4064000Y+177800D01*
X+4178300Y+177800D02*
X+4318000Y+177800D01*
X+4064000Y+177800D02*
X+4025900Y+215900D01*
X+4025900Y+292100D01*
X+4064000Y+330200D01*
X+4095750Y+330200D01*
X+4864100Y+254000D02*
X+4864100Y+330200D01*
X+4902200Y+330200D01*
X+4940300Y+292100D01*
X+4940300Y+215900D01*
X+4911725Y+187325D02*
X+4902200Y+177800D01*
X+4845050Y+177800D01*
X+5968326Y+172124D02*
X+5973926Y+177724D01*
D13*
X+5022687Y+2397136D02*
X+5053565Y+2366258D01*
D10*
X+5063973Y+2355850D02*
X+5063973Y+2315973D01*
X+5090404Y+2289542D01*
X+5916887Y+1463059D01*
X+5916887Y+1295400D01*
X+5916887Y+383520D01*
X+5937016Y+363391D01*
X+5993101Y+307306D01*
X+5993101Y+200669D01*
X+5933486Y+141054D01*
X+5968326Y+172124D02*
X+5937255Y+141054D01*
X+5933486Y+141054D01*
X+5060787Y+2359036D02*
X+5063973Y+2355850D01*
D13*
X+5092537Y+2327286D01*
X+5060787Y+2359036D02*
X+5053565Y+2366258D01*
D10*
X+4466073Y+3180025D02*
X+4402573Y+3243525D01*
X+4573674Y+2754225D02*
X+3441700Y+3886199D01*
X+3441700Y+4928086D01*
X+3392401Y+5015000D02*
X+3403601Y+5003800D01*
X+3441700Y+4965701D02*
X+3441700Y+4965699D01*
X+3441700Y+4943486D01*
X+3441700Y+5003800D02*
X+3403601Y+5003800D01*
X+3403600Y+5003800D01*
X+3392401Y+5015000D01*
X+3365500Y+5041900D01*
X+3365500Y+5118100D01*
X+3403600Y+5156200D01*
X+3441700Y+5156200D01*
X+3441700Y+4943486D02*
X+3441700Y+4928086D01*
X+3417801Y+4989600D02*
X+3441700Y+4989600D01*
X+3465601Y+4989600D01*
X+3474962Y+4998961D01*
X+3497187Y+5021186D02*
X+3474962Y+4998961D01*
X+3465601Y+4989600D02*
X+3441700Y+4965699D01*
X+3403601Y+5003800D02*
X+3417801Y+4989600D01*
X+3441700Y+4965701D01*
X+3441700Y+4989600D01*
X+3441700Y+5000000D01*
X+3441700Y+5003800D01*
X+3627351Y+5034050D02*
X+3657601Y+5003800D01*
X+3695700Y+5003800D02*
X+3657601Y+5003800D01*
X+3657600Y+5003800D01*
X+3627351Y+5034050D01*
X+3619500Y+5041900D01*
X+3619500Y+5118100D01*
X+3657600Y+5156200D01*
X+3695700Y+5156200D01*
X+3754361Y+5024362D02*
X+3733799Y+5003800D01*
X+3695700Y+4965701D02*
X+3695700Y+4949836D01*
X+3695700Y+4933723D01*
X+3695700Y+5080000D02*
X+3695700Y+5156200D01*
X+3733800Y+5156200D01*
X+3771900Y+5118100D01*
X+3771900Y+5041900D01*
X+3754361Y+5024362D01*
X+3733799Y+5003800D02*
X+3733800Y+5003800D01*
X+3695700Y+5003800D01*
X+3662276Y+4999125D02*
X+3673299Y+4988102D01*
X+3695700Y+4988102D01*
X+3703282Y+4988102D01*
X+3718101Y+4988102D01*
X+3733799Y+5003800D01*
X+3657601Y+5003800D02*
X+3662276Y+4999125D01*
X+3673299Y+4988102D02*
X+3695700Y+4965701D01*
X+3695700Y+4988102D01*
X+3695700Y+5003800D01*
X+3718101Y+4988102D02*
X+3695700Y+4965701D01*
X+3252711Y+5030712D02*
X+3225799Y+5003800D01*
X+3187700Y+5156200D02*
X+3225800Y+5156200D01*
X+3263900Y+5118100D01*
X+3263900Y+5041900D01*
X+3252711Y+5030712D01*
X+3225799Y+5003800D02*
X+3225800Y+5003800D01*
X+3187700Y+5003800D01*
X+3125701Y+5027700D02*
X+3149601Y+5003800D01*
X+3187700Y+4965701D02*
X+3187700Y+4952391D01*
X+3187700Y+5003800D02*
X+3149601Y+5003800D01*
X+3149600Y+5003800D01*
X+3125701Y+5027700D01*
X+3111500Y+5041900D01*
X+3111500Y+5118100D01*
X+3149600Y+5156200D01*
X+3187700Y+5156200D01*
X+3187700Y+4952391D02*
X+3187700Y+4048276D01*
X+4527713Y+2708263D01*
X+3157451Y+4995950D02*
X+3160789Y+4992612D01*
X+3187700Y+4992612D01*
X+3214611Y+4992612D01*
X+3225799Y+5003800D02*
X+3214611Y+4992612D01*
X+3187700Y+4965701D01*
X+3187700Y+5003800D02*
X+3187700Y+4992612D01*
X+3187700Y+4965701D01*
X+3149601Y+5003800D02*
X+3157451Y+4995950D01*
X+3160789Y+4992612D02*
X+3187700Y+4965701D01*
X+2998711Y+5030712D02*
X+2971799Y+5003800D01*
X+4481751Y+2662301D02*
X+2933700Y+4210352D01*
X+2933700Y+4926086D01*
X+2933700Y+5080000D02*
X+2933700Y+5156200D01*
X+2971800Y+5156200D01*
X+3009900Y+5118100D01*
X+3009900Y+5041900D01*
X+2998711Y+5030712D01*
X+2971799Y+5003800D02*
X+2971800Y+5003800D01*
X+2933700Y+5003800D01*
X+2871701Y+5027700D02*
X+2895601Y+5003800D01*
X+2933700Y+4965701D02*
X+2933700Y+4947056D01*
X+2933700Y+5003800D02*
X+2895601Y+5003800D01*
X+2895600Y+5003800D01*
X+2871701Y+5027700D01*
X+2857500Y+5041900D01*
X+2857500Y+5118100D01*
X+2895600Y+5156200D01*
X+2933700Y+5156200D01*
X+2933700Y+4947056D02*
X+2933700Y+4926086D01*
X+2903451Y+4995950D02*
X+2909964Y+4989437D01*
X+2933700Y+4989437D01*
X+2957436Y+4989437D01*
X+2971799Y+5003800D02*
X+2957436Y+4989437D01*
X+2933700Y+4965701D01*
X+2933700Y+4989437D01*
X+2933700Y+5000000D01*
X+2933700Y+5003800D01*
X+2895601Y+5003800D02*
X+2903451Y+4995950D01*
X+2909964Y+4989437D02*
X+2933700Y+4965701D01*
X+4864100Y+4965699D02*
X+4864100Y+4949836D01*
X+4864100Y+4937136D01*
X+4838840Y+2892111D02*
X+4864100Y+2917371D01*
X+4864100Y+4937136D01*
X+4843375Y+4986424D02*
X+4864100Y+4986424D01*
X+4884825Y+4986424D01*
X+4897362Y+4998961D01*
X+4792575Y+5037224D02*
X+4843375Y+4986424D01*
X+4864100Y+4965699D01*
X+4864100Y+4986424D01*
X+4864100Y+5003800D01*
X+4925937Y+5027536D02*
X+4897362Y+4998961D01*
X+4884825Y+4986424D02*
X+4864100Y+4965699D01*
X+4884801Y+2846149D02*
X+5118100Y+3079448D01*
X+5118100Y+4947845D01*
X+5173587Y+5021186D02*
X+5118100Y+4965699D01*
X+5118100Y+4947845D01*
X+5091025Y+4992774D02*
X+5118100Y+4992774D01*
X+5145174Y+4992774D01*
X+5156200Y+5003800D01*
X+5118100Y+5080000D02*
X+5118100Y+5156200D01*
X+5156200Y+5156200D01*
X+5194300Y+5118100D01*
X+5194300Y+5041900D01*
X+5156200Y+5003800D01*
X+5118100Y+5003800D01*
X+5059275Y+5024524D02*
X+5091025Y+4992774D01*
X+5118100Y+4965699D01*
X+5118100Y+4992774D01*
X+5118100Y+5000000D01*
X+5118100Y+5003800D01*
X+5424411Y+5018012D02*
X+5410199Y+5003800D01*
X+5372100Y+4965701D01*
X+5372100Y+4965699D01*
X+5372100Y+4954193D01*
X+5372100Y+4949836D01*
X+5372100Y+5080000D02*
X+5372100Y+5156200D01*
X+5410200Y+5156200D01*
X+5448300Y+5118100D01*
X+5448300Y+5041900D01*
X+5424411Y+5018012D01*
X+4930763Y+2800187D02*
X+5372100Y+3241524D01*
X+5372100Y+4949836D01*
X+5345025Y+4992774D02*
X+5372100Y+4992774D01*
X+5394335Y+4992774D01*
X+5405361Y+5003800D01*
X+5313275Y+5024524D02*
X+5345025Y+4992774D01*
X+5372100Y+4965699D01*
X+5410199Y+5003800D02*
X+5410200Y+5003800D01*
X+5405361Y+5003800D01*
X+5372100Y+5003800D01*
X+5372100Y+4965701D02*
X+5372100Y+4992774D01*
X+5372100Y+5000000D01*
X+5372100Y+5003800D01*
X+5557751Y+5034050D02*
X+5588001Y+5003800D01*
X+5626100Y+5003800D02*
X+5588001Y+5003800D01*
X+5588000Y+5003800D01*
X+5557751Y+5034050D01*
X+5549900Y+5041900D01*
X+5549900Y+5118100D01*
X+5588000Y+5156200D01*
X+5626100Y+5156200D01*
X+5697461Y+5037062D02*
X+5664199Y+5003800D01*
X+5626100Y+4965701D02*
X+5626100Y+4943486D01*
X+5626100Y+4924436D01*
X+5626100Y+5080000D02*
X+5626100Y+5156200D01*
X+5664200Y+5156200D01*
X+5702300Y+5118100D01*
X+5702300Y+5041900D01*
X+5697461Y+5037062D01*
X+5664199Y+5003800D02*
X+5664200Y+5003800D01*
X+5626100Y+5003800D01*
X+4976725Y+2754225D02*
X+5626100Y+3403600D01*
X+5626100Y+4924436D01*
X+5599026Y+4992775D02*
X+5626100Y+4992775D01*
X+5653174Y+4992775D01*
X+5659361Y+4998962D01*
X+5588001Y+5003800D02*
X+5599026Y+4992775D01*
X+5626100Y+4965701D01*
X+5626100Y+4992775D01*
X+5626100Y+5000000D01*
X+5626100Y+5003800D01*
X+5664199Y+5003800D02*
X+5659361Y+4998962D01*
X+5653174Y+4992775D02*
X+5626100Y+4965701D01*
X+5818101Y+5027700D02*
X+5842001Y+5003800D01*
X+5880100Y+5003800D02*
X+5842001Y+5003800D01*
X+5842000Y+5003800D01*
X+5818101Y+5027700D01*
X+5803900Y+5041900D01*
X+5803900Y+5118100D01*
X+5842000Y+5156200D01*
X+5880100Y+5156200D01*
X+5938761Y+5024362D02*
X+5918199Y+5003800D01*
X+5880100Y+4965701D02*
X+5880100Y+4932294D01*
X+5880100Y+4930786D01*
X+5880100Y+5080000D02*
X+5880100Y+5156200D01*
X+5918200Y+5156200D01*
X+5956300Y+5118100D01*
X+5956300Y+5041900D01*
X+5938761Y+5024362D01*
X+5918199Y+5003800D02*
X+5918200Y+5003800D01*
X+5880100Y+5003800D01*
X+5022687Y+2708263D02*
X+5880100Y+3565676D01*
X+5880100Y+4930786D01*
X+5853026Y+4992775D02*
X+5880100Y+4992775D01*
X+5907174Y+4992775D01*
X+5916536Y+5002137D01*
X+5842001Y+5003800D02*
X+5853026Y+4992775D01*
X+5880100Y+4965701D01*
X+5880100Y+4992775D01*
X+5880100Y+5000000D01*
X+5880100Y+5003800D01*
X+5918199Y+5003800D02*
X+5916536Y+5002137D01*
X+5907174Y+4992775D02*
X+5880100Y+4965701D01*
X+6205461Y+5037062D02*
X+6172199Y+5003800D01*
X+6134100Y+4965701D02*
X+6134100Y+4965699D01*
X+6134100Y+4953672D01*
X+6134100Y+4947156D01*
X+6134100Y+5124450D02*
X+6134100Y+5156200D01*
X+6172200Y+5156200D01*
X+6210300Y+5118100D01*
X+6210300Y+5041900D01*
X+6205461Y+5037062D01*
X+6172199Y+5003800D02*
X+6172200Y+5003800D01*
X+6134100Y+5003800D01*
X+5068649Y+2662301D02*
X+6134100Y+3727752D01*
X+6134100Y+4947156D01*
X+6107025Y+4992774D02*
X+6134100Y+4992774D01*
X+6161173Y+4992774D01*
X+6068925Y+5030874D02*
X+6107025Y+4992774D01*
X+6134100Y+4965699D01*
X+6172199Y+5003800D02*
X+6161173Y+4992774D01*
X+6134100Y+4965701D01*
X+6134100Y+4992774D01*
X+6134100Y+5000000D01*
X+6134100Y+5003800D01*
X+6449937Y+5027536D02*
X+6388100Y+4965699D01*
X+6388100Y+4953251D01*
X+6388100Y+4946106D01*
X+5114611Y+2616339D02*
X+6388100Y+3889828D01*
X+6388100Y+4946106D01*
X+6361025Y+4992774D02*
X+6388100Y+4992774D01*
X+6415174Y+4992774D01*
X+6426200Y+5003800D01*
X+6388100Y+5080000D02*
X+6388100Y+5156200D01*
X+6426200Y+5156200D01*
X+6464300Y+5118100D01*
X+6464300Y+5041900D01*
X+6426200Y+5003800D01*
X+6388100Y+5003800D01*
X+6322925Y+5030874D02*
X+6361025Y+4992774D01*
X+6388100Y+4965699D01*
X+6388100Y+4992774D01*
X+6388100Y+5000000D01*
X+6388100Y+5003800D01*
X+3478489Y+4950473D02*
X+3524687Y+4996671D01*
X+4402573Y+3243525D02*
X+4350533Y+3243525D01*
X+4306922Y+3199914D01*
X+4276244Y+3169236D01*
X+4210709Y+3169236D01*
X+4120123Y+3259822D01*
X+4120073Y+3259822D01*
X+3478489Y+3901406D01*
X+3478489Y+4052011D01*
X+3478489Y+4950473D01*
X+3554650Y+5026634D02*
X+3554650Y+5070486D01*
X+3554650Y+5135173D01*
X+3533629Y+5156194D01*
X+3603445Y+5156194D01*
X+3603462Y+5156211D01*
X+3603462Y+5154105D01*
X+3582748Y+5133391D01*
X+3582748Y+5102236D01*
X+3582748Y+5026633D01*
X+3601341Y+5008040D01*
X+3658949Y+4950432D01*
X+3658949Y+4905386D01*
X+3658949Y+4156680D01*
X+3690240Y+4125389D01*
X+4687954Y+3127675D01*
X+4687954Y+3111337D01*
X+3524687Y+4996671D02*
X+3554650Y+5026634D01*
X+4724694Y+3142914D02*
X+4724694Y+3142915D01*
X+4703655Y+3163954D01*
X+4724694Y+3142914D02*
X+4703655Y+3163954D01*
X+3695700Y+4171908D01*
X+3695700Y+4933723D01*
X+4724694Y+3133736D02*
X+4724694Y+3096059D01*
X+4698854Y+3070219D01*
X+4686300Y+3057665D01*
X+4686300Y+3049007D01*
X+4686300Y+3004459D01*
X+4724694Y+3133736D02*
X+4724694Y+3142914D01*
X+4711560Y+2892111D02*
X+4686300Y+2917371D01*
X+4686300Y+3004459D01*
X+1191650Y+2934100D02*
X+1191650Y+2997600D01*
X+1261500Y+2997600D01*
X+1261500Y+2692800D01*
X+1121800Y+2692800D01*
X+1121800Y+2997600D01*
X+1210700Y+2997600D01*
X+1121800Y+2692800D02*
X+1109100Y+2705500D01*
X+1109100Y+2724550D01*
X+1109100Y+2984900D01*
X+1121800Y+2997600D02*
X+1115450Y+2991250D01*
X+1109100Y+2984900D01*
X+1096400Y+2972200D02*
X+1096400Y+2953150D01*
X+1096400Y+2718200D01*
X+1109100Y+2705500D02*
X+1105925Y+2708675D01*
X+1096400Y+2718200D01*
X+1083700Y+2730900D01*
X+1083700Y+2756300D01*
X+1083700Y+2959500D01*
X+1096400Y+2972200D01*
X+1102750Y+2978550D01*
X+1109100Y+2984900D02*
X+1102750Y+2978550D01*
X+1083700Y+2959500D02*
X+1077350Y+2953150D01*
X+1077350Y+2737250D01*
X+1083700Y+2730900D01*
X+6613609Y+128267D02*
X+6611625Y+107876D01*
X+6605915Y+89019D01*
X+6584782Y+57367D01*
X+6553130Y+36234D01*
X+6534273Y+30524D01*
X+6513882Y+28540D01*
X+6487550Y+28540D01*
X+518550Y+28542D02*
X+441975Y+28542D01*
X+379172Y+28542D01*
X+408676Y+5305476D02*
X+456700Y+5305476D01*
X+456730Y+5305506D01*
X+370464Y+37250D02*
X+379172Y+28542D01*
X+518550Y+28542D02*
X+831200Y+28542D01*
X+260700Y+5157500D02*
X+408676Y+5305476D01*
X+408706Y+5305506D01*
X+456730Y+5305506D01*
X+134594Y+5305476D02*
X+112900Y+5303365D01*
X+92838Y+5297291D01*
X+74796Y+5287641D01*
X+59163Y+5274806D01*
X+46328Y+5259174D01*
X+36679Y+5241132D01*
X+30605Y+5221070D01*
X+28494Y+5199376D01*
X+28494Y+5194700D01*
X+134594Y+5305476D02*
X+211279Y+5305476D01*
X+408676Y+5305476D01*
X+28494Y+128506D02*
X+30483Y+108067D01*
X+36206Y+89165D01*
X+57390Y+57438D01*
X+89117Y+36254D01*
X+108019Y+30531D01*
X+128458Y+28542D01*
X+379172Y+28542D02*
X+128458Y+28542D01*
X+28494Y+128506D02*
X+28494Y+353951D01*
X+28494Y+5194700D01*
X+241650Y+433100D02*
X+241650Y+431450D01*
X+254757Y+152957D02*
X+241617Y+166097D01*
X+241650Y+431450D01*
X+641350Y+241300D02*
X+654050Y+241300D01*
X+673100Y+222250D01*
X+673100Y+184150D01*
X+654050Y+165100D01*
X+641350Y+165100D01*
X+596900Y+184160D02*
X+615960Y+165100D01*
X+641350Y+165100D01*
X+615960Y+165100D02*
X+615950Y+165100D01*
X+596900Y+184150D01*
X+596900Y+184160D01*
X+596900Y+196850D01*
X+590550Y+247650D02*
X+584200Y+254000D01*
X+581025Y+257175D01*
X+560107Y+278093D01*
X+560107Y+328925D01*
X+560107Y+364450D01*
X+600750Y+405093D01*
X+624428Y+405093D01*
X+937847Y+405093D01*
X+960179Y+427425D01*
X+960179Y+552506D01*
X+960184Y+552511D01*
X+960184Y+581622D01*
X+934818Y+606988D01*
X+934818Y+662991D01*
X+942179Y+670352D01*
X+969477Y+697650D01*
X+969518Y+697650D01*
X+977900Y+697650D01*
X+596900Y+241300D02*
X+590550Y+247650D01*
X+942179Y+670352D02*
X+942220Y+670352D01*
X+969518Y+697650D01*
X+996950Y+697650D02*
X+1006685Y+697650D01*
X+1024418Y+697650D01*
X+1025228Y+697650D01*
X+977900Y+697650D02*
X+996950Y+697650D01*
X+1544250Y+1677450D02*
X+1544250Y+1683800D01*
X+1493450Y+1683800D02*
X+1544250Y+1683800D01*
X+1709350Y+1683800D02*
X+1760150Y+1683800D01*
X+1544250Y+1645700D02*
X+1544250Y+1677450D01*
X+1563300Y+1721900D02*
X+1544250Y+1721900D01*
X+1493450Y+1721900D01*
X+1474400Y+1721900D01*
X+1544250Y+1683800D02*
X+1544250Y+1721900D01*
X+1563300Y+1721900D02*
X+1582350Y+1721900D01*
D14*
X+1389050Y+1729500D02*
X+1466800Y+1729500D01*
X+1474400Y+1721900D01*
X+1487100Y+1709200D01*
X+1493450Y+1709200D01*
D10*
X+1493450Y+1671100D02*
X+1493450Y+1683800D01*
X+1493450Y+1709200D01*
X+1493450Y+1721900D01*
X+1544250Y+1645700D02*
X+1518850Y+1645700D01*
X+1493450Y+1645700D02*
X+1493450Y+1671100D01*
X+1493450Y+1645700D02*
X+1506150Y+1645700D01*
X+1518850Y+1645700D01*
X+1436925Y+1659025D02*
X+1450250Y+1645700D01*
X+1544250Y+1551700D01*
X+816075Y+149125D02*
X+836856Y+128344D01*
X+889781Y+128344D01*
X+937110Y+128344D01*
X+1544250Y+735484D01*
X+1544250Y+1551700D01*
X+1544250Y+1645700D01*
X+1389050Y+1729500D02*
X+1366450Y+1729500D01*
X+1436925Y+1659025D01*
X+1450250Y+1645700D02*
X+1493450Y+1645700D01*
X+2369150Y+2094650D02*
X+2369150Y+2107350D01*
X+2369150Y+2120050D01*
X+2369150Y+2132749D01*
X+2369150Y+2139100D01*
X+2369150Y+2094650D02*
X+2369150Y+2050200D01*
X+2369150Y+2139100D02*
X+2369150Y+2157356D01*
X+2375500Y+2163706D01*
X+1874450Y+2002550D02*
X+1880200Y+2002550D01*
X+2160200Y+1985050D02*
X+2159600Y+1980350D01*
X+2159600Y+1985050D01*
X+2160200Y+1985050D01*
X+2146900Y+2081950D02*
X+2159600Y+2081950D01*
X+2051650Y+1885100D02*
X+2048500Y+1885100D01*
X+2159600Y+1985050D02*
X+2159600Y+2081950D01*
X+2051650Y+1888250D02*
X+2051650Y+1885100D01*
X+2048500Y+1885100D02*
X+2051650Y+1888250D01*
X+1926250Y+2048600D02*
X+1996387Y+2118737D01*
X+2342175Y+1854925D02*
X+2304313Y+1817063D01*
X+2375500Y+2163706D02*
X+2041356Y+2163706D01*
X+1996387Y+2118737D01*
X+1926250Y+2048600D02*
X+1880200Y+2002550D01*
X+2070700Y+2118737D02*
X+2036479Y+2118737D01*
X+2070700Y+2118737D02*
X+2108800Y+2118737D01*
X+2282753Y+2118737D01*
X+2304313Y+2097177D01*
X+2304313Y+2062900D01*
X+2304313Y+1817063D01*
X+2036479Y+2118737D02*
X+1904442Y+1986700D01*
X+1896050Y+1986700D01*
X+1880200Y+2002550D01*
X+2382644Y+2163706D02*
X+2375500Y+2163706D01*
X+2394550Y+1986700D02*
X+2394550Y+1961300D01*
X+1760150Y+1645700D02*
X+1734150Y+1645700D01*
X+1760150Y+1683800D02*
X+1760150Y+1645700D01*
X+1734150Y+1645700D02*
X+1544250Y+1645700D01*
X+2369150Y+1961300D02*
X+2394550Y+1961300D01*
X+2394550Y+1986700D02*
X+2394550Y+2151800D01*
X+2382644Y+2163706D01*
X+1798250Y+1683800D02*
X+1760150Y+1721900D01*
X+1563300Y+1721900D02*
X+1760150Y+1721900D01*
X+1760150Y+1683800D01*
X+1835750Y+1669200D02*
X+1887150Y+1669200D01*
X+1937350Y+1669200D01*
X+2051650Y+1783500D01*
X+2270750Y+1783500D01*
X+2272325Y+1785075D01*
X+2291375Y+1804125D01*
X+2304313Y+1817063D02*
X+2291375Y+1804125D01*
X+2270750Y+1783500D02*
X+2172300Y+1685050D01*
X+2160200Y+1685050D01*
X+1887150Y+1630440D02*
X+1887150Y+1669200D01*
X+1835750Y+1669200D02*
X+1818250Y+1669200D01*
X+1808425Y+1673625D02*
X+1812850Y+1669200D01*
X+1851610Y+1630440D01*
X+1857010Y+1630440D01*
X+1873050Y+1630440D01*
X+1887150Y+1630440D01*
X+1922657Y+1630440D01*
X+2105590Y+1630440D01*
X+2160200Y+1685050D01*
X+1818250Y+1669200D02*
X+1812850Y+1669200D01*
X+1808425Y+1673625D02*
X+1798250Y+1683800D01*
X+1818250Y+1669200D02*
X+1857010Y+1630440D01*
X+1835750Y+1586650D02*
X+1823050Y+1586650D01*
X+1579200Y+1586650D01*
X+1544250Y+1551700D01*
X+2394550Y+1961300D02*
X+2394550Y+1713650D01*
X+2273900Y+1593000D01*
X+2267550Y+1586650D01*
X+1835750Y+1586650D01*
X+1823050Y+1586650D02*
X+1816700Y+1593000D01*
X+1764000Y+1645700D01*
X+1760150Y+1645700D01*
X+693350Y+1989850D02*
X+693350Y+2002550D01*
X+693350Y+2040650D01*
X+591750Y+2002550D02*
X+591750Y+2015250D01*
X+579050Y+2027950D01*
X+553650Y+2027950D01*
X+693350Y+2002550D02*
X+591750Y+2002550D01*
X+566350Y+2002550D01*
X+693350Y+1900950D02*
X+706050Y+1900950D01*
X+718750Y+1888250D01*
X+718750Y+1862850D01*
X+693350Y+1989850D02*
X+693350Y+1900950D01*
X+693350Y+1875550D01*
X+553650Y+1977150D02*
X+544125Y+1986675D01*
X+553650Y+1977150D02*
X+579050Y+1977150D01*
X+591750Y+1989850D01*
X+591750Y+2002550D01*
X+667950Y+1862850D02*
X+667950Y+1888250D01*
X+680650Y+1900950D01*
X+693350Y+1900950D01*
X+547300Y+2021600D02*
X+553650Y+2027950D01*
X+566350Y+2040650D01*
X+693350Y+2040650D01*
X+744150Y+2040650D01*
X+826700Y+1958100D01*
X+1068000Y+1958100D01*
X+1074350Y+1958100D01*
X+1080700Y+1958100D01*
X+1163250Y+2040650D01*
X+1264850Y+2040650D01*
X+1264850Y+1958100D01*
X+1214050Y+1907300D01*
X+1214050Y+1829500D02*
X+1214050Y+1907300D01*
X+1214050Y+2022950D01*
X+1212200Y+2024800D01*
X+1214050Y+2002550D01*
X+566350Y+2002550D02*
X+566350Y+2027950D01*
X+553650Y+2027950D01*
X+547300Y+2021600D02*
X+540950Y+2015250D01*
X+540950Y+1989850D01*
X+544125Y+1986675D01*
D14*
X+1214050Y+1729500D02*
X+1177300Y+1729500D01*
X+1156900Y+1749900D01*
X+1156900Y+1810750D01*
X+1175650Y+1829500D01*
X+1214050Y+1829500D01*
D10*
X+1507489Y+1417550D02*
X+1507489Y+1464311D01*
D12*
X+1301550Y+1722350D02*
X+1301550Y+1779500D01*
D10*
X+1025228Y+697650D02*
X+1059097Y+663781D01*
X+1059097Y+607033D01*
X+1033718Y+581654D01*
X+1033718Y+536321D01*
X+1033718Y+364499D01*
X+1057577Y+340640D01*
X+1097454Y+340640D01*
X+1141967Y+385153D01*
X+1141967Y+385195D01*
X+1507489Y+750717D01*
X+1507489Y+1417550D01*
D12*
X+1301550Y+1703300D02*
X+1301550Y+1722350D01*
D10*
X+1507489Y+1464311D02*
X+1507489Y+1536413D01*
X+1378702Y+1665200D01*
X+1339650Y+1665200D01*
X+1301550Y+1703300D01*
X+1214050Y+1729500D02*
X+1181958Y+1697408D01*
X+1143332Y+1697408D01*
X+833392Y+1697408D01*
X+680650Y+1850150D01*
X+674300Y+1856500D01*
X+667950Y+1862850D01*
X+654950Y+1875850D01*
X+553650Y+1977150D01*
X+693350Y+1875550D02*
X+718750Y+1875550D01*
X+718750Y+1862850D01*
X+706050Y+1850150D01*
X+680650Y+1850150D01*
D12*
X+488750Y+2215600D02*
X+486650Y+2217700D01*
X+495100Y+2209250D02*
X+488750Y+2215600D01*
D10*
X+693350Y+2162550D02*
X+541800Y+2162550D01*
X+495100Y+2209250D01*
X+953700Y+2162550D02*
X+953700Y+2255750D01*
X+1066600Y+2255750D01*
X+1066600Y+2162550D01*
X+844350Y+2162550D02*
X+844350Y+2255750D01*
X+1003100Y+2255750D01*
X+953700Y+2162550D02*
X+844350Y+2162550D01*
X+693350Y+2162550D01*
X+1163250Y+2162550D02*
X+1066600Y+2162550D01*
X+953700Y+2162550D01*
X+1066600Y+2065250D02*
X+1125800Y+2124450D01*
X+1163250Y+2124450D01*
X+1187250Y+2124450D01*
X+1163250Y+2162550D02*
X+1163250Y+2124450D01*
X+1066600Y+2162550D02*
X+1066600Y+2065250D01*
X+1088800Y+2445150D02*
X+1088800Y+2419750D01*
X+1012600Y+2465450D02*
X+1012600Y+2470550D01*
X+1050700Y+2419750D02*
X+1088800Y+2419750D01*
X+1012600Y+2470550D02*
X+1007500Y+2470550D01*
X+1050700Y+2419750D02*
X+1050700Y+2427350D01*
X+1012600Y+2465450D01*
X+1007500Y+2470550D01*
X+990350Y+2487700D02*
X+974500Y+2487700D01*
X+1007500Y+2470550D02*
X+990350Y+2487700D01*
X+974500Y+2487700D02*
X+501650Y+2487700D01*
X+1088800Y+2445150D02*
X+1088800Y+2470550D01*
X+1012600Y+2470550D01*
X+1082450Y+2476900D02*
X+1071650Y+2487700D01*
X+416800Y+2817850D02*
X+416800Y+2947700D01*
X+1088800Y+2470550D02*
X+1082450Y+2476900D01*
X+1071650Y+2487700D02*
X+990350Y+2487700D01*
X+1071650Y+2487700D02*
X+1053902Y+2505448D01*
X+393501Y+2505448D01*
X+377600Y+2521349D01*
X+377600Y+2778650D01*
X+416800Y+2817850D01*
X+1088800Y+2419750D02*
X+1088800Y+2368950D01*
X+1012600Y+2368950D01*
X+1012600Y+2465450D01*
D11*
X+1656650Y+2312376D02*
X+1656650Y+2410200D01*
D10*
X+1525200Y+2200650D02*
X+1398200Y+2200650D01*
X+1354898Y+2200650D01*
X+1304700Y+2200650D02*
X+1163250Y+2200650D01*
X+1163250Y+2162550D01*
X+1709350Y+1843800D02*
X+1823650Y+1843800D01*
X+1887150Y+1843800D01*
X+1889691Y+1843800D01*
X+1950650Y+1843800D01*
X+1874450Y+1805700D02*
X+1823650Y+1805700D01*
X+1823650Y+1843800D01*
X+1709350Y+1977150D02*
X+1709350Y+2002550D01*
X+1709350Y+1843800D02*
X+1709350Y+1977150D01*
X+1760150Y+2040650D02*
X+1709350Y+2040650D01*
X+1671250Y+2040650D02*
X+1658550Y+2040650D01*
X+1658550Y+2053350D01*
X+1709350Y+2002550D02*
X+1671250Y+2040650D01*
X+1658550Y+2053350D01*
X+1709350Y+2002550D02*
X+1709350Y+2040650D01*
X+1823650Y+1843800D02*
X+1823650Y+1881900D01*
X+1912550Y+1881900D01*
X+1950650Y+1881900D02*
X+2051650Y+1982900D01*
X+2051650Y+2074607D01*
X+2051650Y+1982900D02*
X+2051650Y+1888250D01*
X+1887150Y+1843800D02*
X+1887150Y+1881900D01*
X+1950650Y+1881900D01*
X+1950650Y+1843800D01*
X+2032900Y+1869500D02*
X+2007200Y+1843800D01*
X+1969100Y+1805700D01*
X+1950650Y+1805700D01*
X+1931600Y+1805700D01*
X+2032900Y+1869500D02*
X+2048500Y+1885100D01*
X+1950650Y+1843800D02*
X+1950650Y+1805700D01*
X+1931600Y+1805700D02*
X+1874450Y+1805700D01*
X+1568400Y+2124450D02*
X+1491716Y+2124450D01*
X+1187250Y+2124450D02*
X+1491716Y+2124450D01*
X+1568400Y+2124450D02*
X+1587450Y+2124450D01*
X+1658550Y+2034300D02*
X+1658550Y+2040650D01*
X+1588700Y+2129550D02*
X+1588700Y+2180350D01*
X+1588700Y+2194300D02*
X+1588700Y+2180350D01*
X+1588700Y+2129550D02*
X+1588700Y+2124450D01*
X+1709350Y+2040650D02*
X+1677600Y+2040650D01*
X+1671250Y+2040650D01*
X+1651575Y+2257175D02*
X+1629575Y+2235175D01*
X+1629575Y+2088675D01*
X+1629575Y+2082325D01*
X+1636325Y+2075575D01*
D11*
X+1595050Y+2200650D02*
X+1629575Y+2235175D01*
X+1651575Y+2257175D02*
X+1656650Y+2262250D01*
X+1656650Y+2312376D01*
D10*
X+1658550Y+2053350D02*
X+1636325Y+2075575D01*
X+1629575Y+2082325D02*
X+1588700Y+2123200D01*
X+1677600Y+2040650D02*
X+1629575Y+2088675D01*
X+1588700Y+2129550D01*
X+1658550Y+1805700D02*
X+1624025Y+1840225D01*
X+1624025Y+1856500D01*
X+1624025Y+2068825D01*
X+1598225Y+2094625D01*
X+1658550Y+2034300D02*
X+1624025Y+2068825D01*
X+1598225Y+2094625D02*
X+1568400Y+2124450D01*
X+1823650Y+1805700D02*
X+1658550Y+1805700D01*
X+1658550Y+2034300D01*
X+1775259Y+1930291D02*
X+1760150Y+1945400D01*
X+1775259Y+1930291D02*
X+1823650Y+1881900D01*
X+2146900Y+2081950D02*
X+2051650Y+2081950D01*
X+2051650Y+2074607D01*
X+1760150Y+1958100D02*
X+1787959Y+1930291D01*
X+1775259Y+1930291D01*
X+1760150Y+2040650D02*
X+1760150Y+1958100D01*
X+1760150Y+1945400D01*
X+2051650Y+2081950D02*
X+1954174Y+1984444D01*
X+1954174Y+1942574D01*
X+1937950Y+1926350D01*
X+1791900Y+1926350D01*
X+1787959Y+1930291D01*
X+1347400Y+2200650D02*
X+1314416Y+2200650D01*
X+1175045Y+2340021D02*
X+1153353Y+2340021D01*
X+1304700Y+2200650D02*
X+1314416Y+2200650D01*
X+1347400Y+2200650D02*
X+1354898Y+2200650D01*
X+1272535Y+2242531D02*
X+1272535Y+2267888D01*
X+1272535Y+2325065D01*
X+1258500Y+2339100D01*
X+1257605Y+2339995D01*
X+1175071Y+2339995D01*
X+1117755Y+2339995D01*
X+1117729Y+2340021D01*
X+1106025Y+2351725D01*
X+1314416Y+2200650D02*
X+1309308Y+2205758D01*
X+1175071Y+2339995D02*
X+1175045Y+2340021D01*
X+1088800Y+2368950D02*
X+1106025Y+2351725D01*
X+1117729Y+2340021D02*
X+1153353Y+2340021D01*
X+1283908Y+2231158D02*
X+1288953Y+2226113D01*
X+1306704Y+2208362D01*
X+1362610Y+2208362D01*
X+1362616Y+2208362D01*
X+1378653Y+2224399D01*
X+1354898Y+2200650D02*
X+1362610Y+2208362D01*
X+1382199Y+2227951D01*
X+1387979Y+2233731D01*
X+1497572Y+2233731D01*
X+1578005Y+2233731D01*
X+1656650Y+2312376D01*
X+1309308Y+2205758D02*
X+1306704Y+2208362D01*
X+1283908Y+2231158D02*
X+1272535Y+2242531D01*
X+1066600Y+2065250D02*
X+844350Y+2065250D01*
X+844350Y+2162550D01*
D12*
X+1301550Y+1703300D02*
X+1301550Y+1688700D01*
X+1263000Y+1650150D01*
X+828610Y+1650150D01*
D10*
X+174415Y+1646950D02*
X+174415Y+1712798D01*
X+174415Y+1761122D01*
X+241650Y+1544450D02*
X+174415Y+1611685D01*
X+174415Y+1646950D01*
X+174400Y+1151650D02*
X+174400Y+1238745D01*
X+241650Y+1017300D02*
X+174400Y+1084550D01*
X+174400Y+1151650D01*
X+174400Y+1238745D02*
X+174400Y+1477200D01*
X+241650Y+1544450D01*
X+471100Y+1666000D02*
X+471100Y+1488200D01*
X+471100Y+1234889D01*
X+471100Y+961150D01*
X+471100Y+670352D01*
X+471100Y+650728D02*
X+471100Y+650729D01*
X+471100Y+1488200D02*
X+458400Y+1475500D01*
X+310600Y+1475500D01*
X+241650Y+1544450D01*
X+174400Y+1238745D02*
X+190171Y+1254516D01*
X+451473Y+1254516D01*
X+471100Y+1234889D01*
X+471100Y+961150D02*
X+458400Y+948450D01*
X+310500Y+948450D01*
X+241650Y+1017300D01*
X+506637Y+300750D02*
X+506637Y+331563D01*
X+506637Y+377193D01*
X+506637Y+300750D02*
X+506637Y+274375D01*
X+552982Y+228030D01*
X+553030Y+228030D01*
X+596900Y+184160D01*
X+506637Y+377193D02*
X+471100Y+412730D01*
X+471100Y+650728D01*
X+471100Y+650729D02*
X+471100Y+650728D01*
X+471100Y+656350D02*
X+457098Y+670352D01*
X+451477Y+670352D01*
X+429365Y+670352D01*
X+415096Y+670352D02*
X+429365Y+670352D01*
X+471100Y+670352D02*
X+471100Y+656350D01*
X+471100Y+650729D01*
X+457098Y+670352D02*
X+471100Y+670352D01*
X+413950Y+1781657D02*
X+453396Y+1781657D01*
X+677092Y+1781657D01*
X+697103Y+1781657D01*
X+697185Y+1781657D01*
X+729166Y+1749676D01*
X+844350Y+2065250D02*
X+786400Y+2123200D01*
X+750500Y+2123200D01*
X+596908Y+2123200D01*
X+504201Y+2030493D01*
X+504201Y+1974559D01*
X+556960Y+1921800D01*
X+697103Y+1781657D01*
X+828610Y+1650150D01*
D12*
X+808599Y+1650150D01*
X+677092Y+1781657D01*
X+488750Y+1969999D01*
X+488750Y+2202900D01*
X+495100Y+2209250D01*
D10*
X+453396Y+1781657D02*
X+471100Y+1763953D01*
X+471100Y+1666000D01*
X+241650Y+433100D02*
X+174401Y+500349D01*
X+174401Y+590550D01*
X+174401Y+650000D01*
X+415096Y+670352D02*
X+214598Y+670352D01*
X+174401Y+656350D02*
X+188403Y+670352D01*
X+194753Y+670352D01*
X+198050Y+670352D01*
X+214598Y+670352D01*
X+174401Y+650000D02*
X+174401Y+656350D01*
X+174401Y+670352D01*
X+188403Y+670352D02*
X+174401Y+670352D01*
X+949974Y+37250D02*
X+941266Y+28542D01*
X+915600Y+28542D01*
X+941266Y+28542D02*
X+1071802Y+28542D01*
X+1080510Y+37250D02*
X+949974Y+37250D01*
X+795169Y+66019D02*
X+806393Y+54795D01*
X+823938Y+37250D02*
X+832646Y+28542D01*
X+832699Y+28489D01*
X+844894Y+28489D01*
X+831200Y+28542D02*
X+832646Y+28542D01*
X+915600Y+28542D01*
X+949974Y+37250D02*
X+823938Y+37250D01*
X+370464Y+37250D01*
X+241650Y+431450D02*
X+307269Y+365831D01*
X+414035Y+365831D01*
X+433146Y+346720D01*
X+433146Y+243869D01*
X+585400Y+91615D01*
X+769573Y+91615D01*
X+795169Y+66019D01*
X+806393Y+54795D02*
X+967519Y+54795D01*
X+814219Y+46969D02*
X+959693Y+46969D01*
X+967519Y+54795D01*
X+978812Y+66088D01*
X+981987Y+69263D02*
X+978812Y+66088D01*
X+959693Y+46969D02*
X+949974Y+37250D01*
X+806393Y+54795D02*
X+814219Y+46969D01*
X+823938Y+37250D01*
X+280600Y+1781657D02*
X+194950Y+1781657D01*
X+174415Y+1781657D01*
X+28534Y+1781657D01*
X+174415Y+1761122D02*
X+174415Y+1781657D01*
X+174415Y+2090465D01*
X+241650Y+2157700D01*
X+174415Y+1761122D02*
X+194950Y+1781657D01*
X+280600Y+1781657D02*
X+413950Y+1781657D01*
X+501650Y+2447050D02*
X+501650Y+2422700D01*
X+501650Y+2447050D02*
X+501650Y+2487700D01*
X+501650Y+2402600D02*
X+501650Y+2422700D01*
X+521900Y+2358150D02*
X+521900Y+2374245D01*
X+521900Y+2382350D01*
X+515550Y+2388700D01*
X+501650Y+2402600D01*
X+394900Y+2345450D02*
X+394900Y+2383549D01*
X+394900Y+2504048D01*
X+382124Y+2516824D01*
X+521900Y+2358150D02*
X+521900Y+2326400D01*
X+488709Y+2293209D01*
X+428092Y+2293209D01*
X+394900Y+2326401D01*
X+394900Y+2345450D01*
X+394900Y+2383549D02*
X+434712Y+2423361D01*
X+480889Y+2423361D01*
X+501650Y+2402600D01*
X+547300Y+2817850D02*
X+556500Y+2817850D01*
X+6613557Y+5020861D02*
X+6613557Y+4980700D01*
X+556500Y+2875000D02*
X+556500Y+2817850D01*
X+4069248Y+5266501D02*
X+4069249Y+5266501D01*
X+4092650Y+5243100D01*
X+4069248Y+5266501D02*
X+4092650Y+5243100D01*
X+1484586Y+5267268D02*
X+1522824Y+5305506D01*
X+1550600Y+5305506D01*
X+1484586Y+5267268D02*
X+1645032Y+5267268D01*
X+1739892Y+5172408D01*
X+1833985Y+5266501D01*
X+4069248Y+5266501D01*
X+2079275Y+3324975D02*
X+2044000Y+3360250D01*
X+2101150Y+3303100D02*
X+2079275Y+3324975D01*
X+2044000Y+3360250D02*
X+1917000Y+3360250D01*
X+4156086Y+2679537D02*
X+4350950Y+2484673D01*
X+4350950Y+2408951D01*
X+4378814Y+2381087D01*
X+4419740Y+2381087D01*
X+4481751Y+2443098D01*
X+2232940Y+4660766D02*
X+2255678Y+4638028D01*
X+2232940Y+4660766D02*
X+2232941Y+4660766D01*
X+2175854Y+4660766D01*
X+1753800Y+3532454D02*
X+1735510Y+3532454D01*
X+1485424Y+3532454D01*
X+2044000Y+3360250D02*
X+1951723Y+3452527D01*
X+1768549Y+3452527D01*
X+1756952Y+3440930D01*
X+1756952Y+3407277D01*
X+1722744Y+3373069D01*
X+1666756Y+3373069D01*
X+1632548Y+3407277D01*
X+1632548Y+3463104D01*
X+1666779Y+3497335D01*
X+1700391Y+3497335D01*
X+1735510Y+3532454D01*
X+1612200Y+3022450D02*
X+1612200Y+2993150D01*
X+1656650Y+2800200D02*
X+1656650Y+2890350D01*
X+1612200Y+2934800D01*
X+1612200Y+2993150D01*
X+1596050Y+3038600D02*
X+1628350Y+3038600D01*
X+1639775Y+3050025D01*
X+1529650Y+3105000D02*
X+1596050Y+3038600D01*
X+1612200Y+3022450D01*
X+1628350Y+3038600D01*
X+1639775Y+3050025D02*
X+1694750Y+3105000D01*
X+3606537Y+2989346D02*
X+3904360Y+2989346D01*
X+3932078Y+2961628D01*
X+3904360Y+2989346D01*
X+1961400Y+2728400D02*
X+1981750Y+2748750D01*
X+1961400Y+2728400D02*
X+1958200Y+2725200D01*
X+1891650Y+2725200D01*
X+1962701Y+2889099D02*
X+1981750Y+2870050D01*
X+1906200Y+2989346D02*
X+1966396Y+2989346D01*
X+1753800Y+3532454D02*
X+1985003Y+3532454D01*
X+2186253Y+3331204D01*
X+2186253Y+3172973D01*
X+2137892Y+3124612D01*
X+2137892Y+3046563D01*
X+2116373Y+3025044D01*
X+1908687Y+3025040D01*
X+1894553Y+3010906D01*
X+1894553Y+2997239D01*
X+1902446Y+2989346D01*
X+1906200Y+2989346D01*
X+2012600Y+2839200D02*
X+2025300Y+2826500D01*
X+2028075Y+2823725D01*
X+2035086Y+2816714D01*
X+1981750Y+2870050D02*
X+2012600Y+2839200D01*
X+2028075Y+2823632D02*
X+2015405Y+2836302D01*
X+2028075Y+2795075D02*
X+2028075Y+2823632D01*
X+2028075Y+2823725D01*
X+2028075Y+2795075D02*
X+2015375Y+2782375D01*
X+1981750Y+2748750D02*
X+2015375Y+2782375D01*
X+3877187Y+2614637D02*
X+4280351Y+2211474D01*
X+3931774Y+2612074D02*
X+3828357Y+2715491D01*
X+4319674Y+2325774D02*
X+4218074Y+2325774D01*
X+3931774Y+2612074D01*
X+3828357Y+2715491D02*
X+3828331Y+2715517D01*
X+3913342Y+2682542D02*
X+3843574Y+2752310D01*
X+3843573Y+2752310D01*
X+3606537Y+2989346D02*
X+3843573Y+2752310D01*
X+3843574Y+2752310D01*
X+3913342Y+2682542D01*
X+260700Y+4021902D02*
X+28513Y+4021902D01*
X+260700Y+3944650D02*
X+260700Y+4021902D01*
X+260700Y+4404650D01*
X+502850Y+2817850D02*
X+416800Y+2817850D01*
X+241650Y+2817850D01*
X+241650Y+2157700D02*
X+241650Y+2817850D01*
X+241650Y+2947700D01*
X+547300Y+2817850D02*
X+502850Y+2817850D01*
X+485700Y+3894850D02*
X+485700Y+3944650D01*
X+485700Y+4404650D01*
X+485700Y+3894850D02*
X+485700Y+3457650D01*
X+838350Y+3105000D01*
X+850200Y+3105000D01*
X+423455Y+4012305D02*
X+423455Y+4021902D01*
X+407600Y+4021902D02*
X+423455Y+4021902D01*
X+433052Y+4021902D01*
X+407600Y+4021902D02*
X+260700Y+4021902D01*
X+433052Y+4021902D02*
X+423455Y+4012305D01*
X+547971Y+3977400D02*
X+547971Y+4005870D01*
X+547951Y+4005890D01*
X+547951Y+3952020D01*
X+547971Y+3952000D01*
X+547951Y+4006879D02*
X+547971Y+4006859D01*
X+547971Y+4005870D01*
X+547971Y+3977400D02*
X+547971Y+3952000D01*
X+547951Y+4005890D02*
X+547951Y+4006879D01*
X+423455Y+4396500D02*
X+423455Y+4465884D01*
X+547915Y+4468880D02*
X+547915Y+4445351D01*
X+547951Y+4445315D01*
X+547951Y+4468844D01*
X+547915Y+4468880D01*
X+423455Y+4396500D02*
X+423455Y+4336195D01*
X+448949Y+4310701D01*
X+448949Y+4037799D01*
X+433052Y+4021902D01*
X+423455Y+4634645D02*
X+423455Y+4628295D01*
X+439350Y+4612400D01*
X+528250Y+4612400D01*
X+547915Y+4632065D01*
X+547915Y+4636177D01*
X+423455Y+4469504D02*
X+423455Y+4628295D01*
X+547915Y+4468880D02*
X+547915Y+4472084D01*
X+534599Y+4485400D01*
X+439351Y+4485400D01*
X+423455Y+4469504D01*
X+423455Y+4465884D01*
X+547915Y+4632065D02*
X+547915Y+4472084D01*
X+547951Y+4006879D02*
X+547951Y+4014850D01*
X+522447Y+4040354D01*
X+522447Y+4314496D01*
X+547951Y+4340000D01*
X+547951Y+4445315D01*
X+556500Y+2817850D02*
X+584790Y+2817850D01*
X+660999Y+2894059D01*
X+660999Y+3010766D01*
X+682650Y+3032417D01*
X+727159Y+3032417D01*
X+770442Y+3075700D01*
X+770442Y+3120905D01*
X+448949Y+3442398D01*
X+448949Y+3853500D01*
X+423455Y+3878994D01*
X+423455Y+4012305D01*
X+423479Y+5225179D02*
X+439350Y+5241050D01*
X+503806Y+5305506D01*
X+527314Y+5305506D01*
X+547300Y+5305506D01*
X+456730Y+5305506D02*
X+503806Y+5305506D01*
X+547300Y+5305506D02*
X+1522824Y+5305506D01*
X+423455Y+4634645D02*
X+423455Y+4761605D01*
X+448905Y+4787055D01*
X+448905Y+5066395D01*
X+423479Y+5091821D01*
X+423479Y+5225179D01*
X+439350Y+5241050D02*
X+534601Y+5241050D01*
X+547964Y+5227687D01*
X+547964Y+5089314D01*
X+522447Y+5063797D01*
X+522447Y+4789653D01*
X+547915Y+4764185D01*
X+547915Y+4636177D01*
X+1556950Y+441294D02*
X+1517375Y+441294D01*
X+1484554Y+441294D01*
X+1475880Y+432620D01*
X+1444130Y+400870D01*
X+1374829Y+331569D01*
X+1517375Y+441294D02*
X+1512500Y+446169D01*
X+1489429Y+446169D01*
X+1484554Y+441294D01*
X+1668544Y+412344D02*
X+1639594Y+441294D01*
X+1634719Y+446169D01*
X+1607142Y+473746D01*
X+1522887Y+473746D01*
X+981987Y+69263D02*
X+1386470Y+473746D01*
X+1522887Y+473746D01*
X+1607142Y+473746D02*
X+1886040Y+473746D01*
X+1946968Y+412818D01*
X+4356100Y+104311D02*
X+3548315Y+104267D01*
X+3511505Y+67457D01*
X+3168575Y+67457D01*
X+3131785Y+104247D01*
X+2255513Y+104247D01*
X+1913591Y+446169D01*
X+1634719Y+446169D01*
X+1512500Y+446169D01*
X+1639594Y+441294D02*
X+1556950Y+441294D01*
X+1715315Y+142385D02*
X+1639683Y+66753D01*
X+1610180Y+37250D01*
X+1601472Y+28542D01*
X+1601436Y+28506D01*
X+1374829Y+331569D02*
X+1374829Y+163896D01*
X+1471972Y+66753D01*
X+1639683Y+66753D01*
X+1715315Y+142385D02*
X+1749392Y+176462D01*
X+1749392Y+331496D01*
X+1668544Y+412344D01*
X+3540749Y+366941D02*
X+3481136Y+307328D01*
X+3481136Y+193003D01*
X+3465933Y+177800D01*
X+3430191Y+177800D01*
X+3453063Y+200672D01*
X+3453063Y+307331D01*
X+3393453Y+366941D01*
X+3633400Y+366941D02*
X+3647487Y+366941D01*
X+3794717Y+366941D01*
X+3901483Y+366941D01*
X+4952917Y+366941D01*
X+4954312Y+368336D01*
X+4064000Y+177800D02*
X+3938167Y+177800D01*
X+3961087Y+200720D01*
X+3961087Y+307337D01*
X+3901483Y+366941D01*
X+3901435Y+366989D01*
X+3794765Y+366989D01*
X+3794717Y+366941D01*
X+3735112Y+307336D01*
X+3735112Y+200718D01*
X+3758030Y+177800D01*
X+3684191Y+177800D01*
X+3707065Y+200674D01*
X+3707065Y+307363D01*
X+3647487Y+366941D01*
X+2324100Y+330200D02*
X+2324100Y+269474D01*
X+2324100Y+254000D01*
X+2375625Y+316775D02*
X+2362200Y+330200D01*
X+2260475Y+304675D02*
X+2286000Y+330200D01*
X+2400300Y+266700D02*
X+2400300Y+215900D01*
X+2362200Y+177800D01*
X+2286000Y+177800D01*
X+2247900Y+215900D01*
X+2247900Y+292100D01*
X+2260475Y+304675D01*
X+2292950Y+2237180D02*
X+2367345Y+2237180D01*
X+2413159Y+2237180D01*
X+2578100Y+330200D02*
X+2578100Y+266700D01*
X+2578100Y+254000D01*
X+2626450Y+319950D02*
X+2616200Y+330200D01*
X+2626450Y+319950D02*
X+2635250Y+311150D01*
X+2533525Y+323725D02*
X+2540000Y+330200D01*
X+2417970Y+2232370D02*
X+2468135Y+2182205D01*
X+2468135Y+2182204D01*
X+2520950Y+311150D02*
X+2578100Y+254000D01*
X+2413159Y+2237180D02*
X+2417970Y+2232370D01*
X+2468135Y+2182204D01*
X+2501900Y+292100D02*
X+2520950Y+311150D01*
X+2533525Y+323725D01*
X+2324100Y+254000D02*
X+2381250Y+311150D01*
X+2375625Y+316775D02*
X+2381250Y+311150D01*
X+2400300Y+292100D01*
X+2559650Y+330200D02*
X+2540000Y+330200D01*
X+2578100Y+330200D02*
X+2559650Y+330200D01*
X+2468135Y+2182204D02*
X+2468135Y+2103373D01*
X+2468135Y+363965D01*
X+2483575Y+348525D01*
X+2501900Y+278550D02*
X+2501900Y+292100D01*
X+2501900Y+330200D02*
X+2496275Y+335825D01*
X+2501900Y+273050D02*
X+2501900Y+278550D01*
X+2496275Y+335825D02*
X+2483575Y+348525D01*
X+2501900Y+310300D02*
X+2511850Y+320250D01*
X+2521800Y+330200D01*
X+2525924Y+330200D01*
X+2540000Y+330200D02*
X+2525924Y+330200D01*
X+2521800Y+330200D02*
X+2501900Y+330200D01*
X+2511850Y+320250D01*
X+2520950Y+311150D01*
X+2501900Y+292100D02*
X+2501900Y+310300D01*
X+2501900Y+330200D01*
X+2400300Y+278550D02*
X+2400300Y+292100D01*
X+2400300Y+330200D01*
X+2400300Y+266700D02*
X+2400300Y+278550D01*
X+2381250Y+311150D02*
X+2400300Y+330200D01*
X+2318350Y+330200D02*
X+2324100Y+330200D01*
X+2362200Y+330200D01*
X+2400300Y+330200D01*
X+2286000Y+330200D02*
X+2318350Y+330200D01*
X+3238626Y+189176D02*
X+3245450Y+182352D01*
X+3238626Y+189176D02*
X+3227141Y+200661D01*
X+3227141Y+234100D01*
X+3227141Y+307321D01*
X+3244135Y+324315D01*
X+3286751Y+366931D01*
X+3232750Y+177754D02*
X+3245434Y+177754D01*
X+3250048Y+177754D01*
X+3245450Y+182352D02*
X+3250048Y+177754D01*
X+3245434Y+177754D02*
X+3245450Y+177770D01*
X+3245450Y+182352D01*
X+3112100Y+366931D02*
X+3074000Y+366931D01*
X+3032715Y+366931D01*
X+3012342Y+346558D01*
X+2973170Y+307386D01*
X+2973170Y+200137D01*
X+2995524Y+177783D01*
X+2922451Y+177783D01*
X+2922442Y+177792D01*
X+2945054Y+200404D01*
X+2945054Y+236782D01*
X+2945054Y+307313D01*
X+2914058Y+338309D01*
X+2885436Y+366931D01*
X+2842383Y+366931D01*
X+3112100Y+366931D02*
X+3139455Y+366931D01*
X+2832700Y+366931D02*
X+2778751Y+366931D01*
X+2631417Y+366931D02*
X+2778751Y+366931D01*
X+2832700Y+366931D02*
X+2842383Y+366931D01*
X+2394550Y+469050D02*
X+2394550Y+481750D01*
X+2394550Y+488100D01*
X+2394550Y+494450D01*
X+2394550Y+757898D01*
X+2394573Y+757921D01*
X+2394608Y+757956D01*
X+2394573Y+757921D02*
X+2394573Y+697650D01*
X+2719166Y+227750D02*
X+2719166Y+196103D01*
X+2737450Y+177819D01*
X+2737401Y+177770D01*
X+2712050Y+177770D01*
X+2778751Y+366931D02*
X+2752010Y+340190D01*
X+2752010Y+340154D01*
X+2719166Y+307310D01*
X+2719166Y+272200D01*
X+2719166Y+227750D01*
X+4718050Y+2552700D02*
X+4775200Y+2552700D01*
X+4867123Y+2552700D01*
D13*
X+5022687Y+2397136D02*
X+4867123Y+2552700D01*
X+4665598Y+2846149D02*
X+4775200Y+2736547D01*
D10*
X+4775200Y+2552700D01*
X+4718050Y+2552700D02*
X+4584700Y+2552700D01*
X+4867123Y+2552700D02*
X+4965700Y+2552700D01*
X+4775200Y+2552700D02*
X+4775200Y+2362200D01*
X+4775200Y+2743200D02*
X+4775200Y+2736547D01*
X+6021136Y+307344D02*
X+6021136Y+224934D01*
X+6501062Y+5133356D02*
X+6483959Y+5150459D01*
X+5973926Y+177724D02*
X+6021136Y+224934D01*
X+6501062Y+5133356D02*
X+6613557Y+5020861D01*
X+6613557Y+4152900D02*
X+6613557Y+4052240D01*
X+6613557Y+4980700D02*
X+6613557Y+4152900D01*
X+6613557Y+4052240D02*
X+6650303Y+4015494D01*
X+6780698Y+3885098D01*
X+6829377Y+3836419D01*
X+6829377Y+3517900D02*
X+6829377Y+3633595D01*
X+6559697Y+3743453D02*
X+6500822Y+3684578D01*
X+6453985Y+3606800D02*
X+6453985Y+3479253D01*
X+6867557Y+722585D02*
X+6867557Y+783076D01*
X+6867557Y+722585D02*
X+6867557Y+519743D01*
X+6787688Y+439874D01*
X+6613609Y+265795D01*
X+6613609Y+227528D01*
X+6613609Y+128267D01*
X+6500822Y+3684578D02*
X+6453985Y+3637742D01*
X+6453985Y+3606800D01*
X+6453985Y+3479253D02*
X+6564527Y+3368711D01*
X+6721069Y+3368711D01*
X+6829377Y+3477019D01*
X+6829377Y+3517900D01*
X+6453985Y+736600D02*
X+6453985Y+839012D01*
X+6566676Y+951703D01*
X+6717258Y+951703D01*
X+6829355Y+839606D01*
X+6829355Y+684383D01*
X+6799936Y+654964D01*
X+6829355Y+684383D02*
X+6867557Y+722585D01*
X+6771361Y+3691611D02*
X+6829377Y+3633595D01*
X+6867557Y+3595415D01*
X+6867557Y+3581400D01*
X+6829377Y+3836419D02*
X+6867557Y+3798240D01*
X+6867557Y+3721500D01*
X+6867557Y+3595415D01*
X+6867557Y+3581400D02*
X+6867557Y+783076D01*
X+6483378Y+654078D02*
X+6453985Y+683471D01*
X+6424887Y+712569D01*
X+6424856Y+712600D01*
X+6424856Y+750917D01*
X+6424887Y+712569D02*
X+6424887Y+1230753D01*
X+5200650Y+2454990D01*
X+5200650Y+2650374D01*
X+6424887Y+3874611D01*
X+6424887Y+4950531D01*
X+6501062Y+5026706D01*
X+6501062Y+5133356D01*
X+6453985Y+736600D02*
X+6453985Y+683471D01*
X+6453985Y+683470D01*
X+6483378Y+654078D01*
X+6562681Y+574774D01*
X+6719746Y+574774D01*
X+6799936Y+654964D01*
X+6629400Y+3743453D02*
X+6559697Y+3743453D01*
X+6771361Y+3691611D02*
X+6719519Y+3743453D01*
X+6629400Y+3743453D01*
X+6559697Y+3743453D02*
X+6500822Y+3684578D01*
X+6400800Y+141013D02*
X+6334837Y+141013D01*
X+6110206Y+141013D01*
X+6110181Y+141038D01*
X+6110156Y+141063D01*
X+6021136Y+224934D02*
X+6021136Y+200670D01*
X+6080768Y+141038D01*
X+6110181Y+141038D01*
X+6187464Y+141038D01*
X+6247087Y+200661D01*
X+6247087Y+307341D01*
X+6170841Y+383587D01*
X+6170841Y+1380831D01*
X+6351363Y+1200333D01*
X+6351363Y+383551D01*
X+6275112Y+307300D01*
X+6275112Y+200738D01*
X+6334837Y+141013D01*
X+6400800Y+141013D02*
X+6441435Y+141013D01*
X+6501037Y+200615D01*
X+6501037Y+307383D01*
X+6424887Y+383533D01*
X+6424887Y+712569D01*
X+4210050Y+5192973D02*
X+4257028Y+5192973D01*
X+4092650Y+5243100D02*
X+4119503Y+5216246D01*
X+4142776Y+5192973D01*
X+4200308Y+5192973D01*
X+4210050Y+5192973D01*
X+4257028Y+5192973D02*
X+4400550Y+5192973D01*
X+4742877Y+2959673D02*
X+4801173Y+2959673D01*
X+4813300Y+2971800D01*
X+4827321Y+2985820D01*
X+4827363Y+4950480D01*
X+4751134Y+5026709D01*
X+4751134Y+5133315D01*
X+4810792Y+5192973D01*
X+4597400Y+5192973D02*
X+4663453Y+5192973D01*
X+4810792Y+5192973D01*
X+4497111Y+5041900D02*
X+4497111Y+5067300D01*
X+4497111Y+5133332D01*
X+4556752Y+5192973D01*
X+4556778Y+5192999D01*
X+4590732Y+5192999D01*
X+4400550Y+5192973D02*
X+4556752Y+5192973D01*
X+4597400Y+5192973D01*
X+4641850Y+4967001D02*
X+4663405Y+4967001D01*
X+4810841Y+4967001D01*
X+4815896Y+4961946D01*
X+4663453Y+5192973D02*
X+4686913Y+5169513D01*
X+4723058Y+5133368D01*
X+4723058Y+5072217D01*
X+4723058Y+5026654D01*
X+4663405Y+4967001D01*
X+4622800Y+4967001D02*
X+4611421Y+4967001D01*
X+4556849Y+4967001D01*
X+4194065Y+4967001D01*
X+4194017Y+4967049D01*
X+4641850Y+4967001D02*
X+4622800Y+4967001D01*
X+4556849Y+4967001D02*
X+4497111Y+5026739D01*
X+4497111Y+5041900D01*
X+4241800Y+4967049D02*
X+4194017Y+4967049D01*
X+4150317Y+4967049D01*
X+4131851Y+4985515D01*
X+4090707Y+5026659D01*
X+4090707Y+5069002D01*
X+4090707Y+5141006D01*
X+4072671Y+5159042D01*
X+4038792Y+5192921D01*
X+4008801Y+5192921D01*
X+4008801Y+5187225D01*
X+4062652Y+5133374D01*
X+4062652Y+5098003D01*
X+4062652Y+5026685D01*
X+4003016Y+4967049D01*
X+4003010Y+4967043D01*
X+3964328Y+4967043D01*
X+4257028Y+5192973D02*
X+4316698Y+5133303D01*
X+4316698Y+5026689D01*
X+4257058Y+4967049D01*
X+4241800Y+4967049D01*
X+4150317Y+4967049D02*
X+4003016Y+4967049D01*
X+3987800Y+4967049D02*
X+3896407Y+4967049D01*
X+3877357Y+4986099D01*
X+3836736Y+5026720D01*
X+3836736Y+5067300D01*
X+3836736Y+5140972D01*
X+3831629Y+5146079D01*
X+3821498Y+5156210D01*
X+3807568Y+5156210D01*
X+3787960Y+5156210D01*
X+3787934Y+5156184D01*
X+3787934Y+5154037D01*
X+3808663Y+5133308D01*
X+3808663Y+5092700D01*
X+3808663Y+5026635D01*
X+3774074Y+4992046D01*
X+3749077Y+4967049D01*
X+3732479Y+4950451D01*
X+3732479Y+4927600D01*
X+4003016Y+4967049D02*
X+3987800Y+4967049D01*
X+3896407Y+4967049D02*
X+3749077Y+4967049D01*
X+3749039Y+4967049D01*
X+3732479Y+4950489D01*
X+3732479Y+4950451D01*
X+4826000Y+5192973D02*
X+4849170Y+5192973D01*
X+4917416Y+5192973D01*
X+4810792Y+5192973D02*
X+4826000Y+5192973D01*
X+4917416Y+5192973D02*
X+4977062Y+5133327D01*
X+4977062Y+5026639D01*
X+4900903Y+4950480D01*
X+4900903Y+2956191D01*
X+4914900Y+2942194D01*
X+4928891Y+2942194D01*
X+5081336Y+3094639D01*
X+5081336Y+4950422D01*
X+5005144Y+5026614D01*
X+5005144Y+5133326D01*
X+5064786Y+5192968D01*
X+5171402Y+5192968D01*
X+5231084Y+5133286D01*
X+5231084Y+5026736D01*
X+5154887Y+4950539D01*
X+5154887Y+3076331D01*
X+5335311Y+3256755D01*
X+5335311Y+4950493D01*
X+5259166Y+5026638D01*
X+5259166Y+5133355D01*
X+5318782Y+5192971D01*
X+5361697Y+5192971D01*
X+5353050Y+5192973D02*
X+5425471Y+5192973D01*
X+5572821Y+5192973D02*
X+5572840Y+5192992D01*
X+5610715Y+5192992D01*
X+5425471Y+5192973D02*
X+5572821Y+5192973D01*
X+5425471Y+5192973D02*
X+5485060Y+5133384D01*
X+5485060Y+5026699D01*
X+5408903Y+4950542D01*
X+5408903Y+3238398D01*
X+5589297Y+3418749D01*
X+5589297Y+4950556D01*
X+5513123Y+5026730D01*
X+5513123Y+5133275D01*
X+5572821Y+5192973D01*
X+5610715Y+5192992D02*
X+5679406Y+5192992D01*
X+5679425Y+5192973D01*
X+5826820Y+5192973D02*
X+5826834Y+5192987D01*
X+5876530Y+5192987D01*
X+5572821Y+5192973D02*
X+5679425Y+5192973D01*
X+5739053Y+5133345D01*
X+5739053Y+5026709D01*
X+5662869Y+4950525D01*
X+5662869Y+3400484D01*
X+5843301Y+3580918D01*
X+5843301Y+4950506D01*
X+5767112Y+5026695D01*
X+5767112Y+5133265D01*
X+5826820Y+5192973D01*
X+5876530Y+5192987D02*
X+5933424Y+5192987D01*
X+5933438Y+5192973D01*
X+6080796Y+5192973D02*
X+6080824Y+5193001D01*
X+6111991Y+5193001D01*
X+5826820Y+5192973D02*
X+5933438Y+5192973D01*
X+6080796Y+5192973D01*
X+5933438Y+5192973D02*
X+5993050Y+5133361D01*
X+5993050Y+5026664D01*
X+5916862Y+4950476D01*
X+5916862Y+3562558D01*
X+6097358Y+3742978D01*
X+6097358Y+4950442D01*
X+6021112Y+5026688D01*
X+6021112Y+5133289D01*
X+6080796Y+5192973D01*
X+6121400Y+5192973D02*
X+6187387Y+5192973D01*
X+6334822Y+5192973D02*
X+6334844Y+5192995D01*
X+6379543Y+5192995D01*
X+6080796Y+5192973D02*
X+6121400Y+5192973D01*
X+6334822Y+5192973D02*
X+6441445Y+5192973D01*
X+6467534Y+5166884D01*
X+6483959Y+5150459D01*
X+5918200Y+141054D02*
X+5881726Y+141054D01*
X+5826712Y+141054D01*
X+5933486Y+141054D02*
X+5918200Y+141054D01*
X+5826712Y+141054D02*
X+5679413Y+141054D01*
X+5670550Y+141027D02*
X+5650074Y+141027D01*
X+5572744Y+141027D01*
X+5572717Y+141054D01*
X+5425447Y+141054D02*
X+5425404Y+141011D01*
X+5397431Y+141011D01*
X+5679413Y+141054D02*
X+5679386Y+141027D01*
X+5670550Y+141027D01*
X+5679413Y+141054D02*
X+5572717Y+141054D01*
X+5425447Y+141054D01*
X+5416550Y+141054D02*
X+5318775Y+141054D01*
X+5425447Y+141054D02*
X+5416550Y+141054D01*
X+5318775Y+141054D02*
X+5259153Y+200676D01*
X+5259153Y+307337D01*
X+5335321Y+383505D01*
X+5335321Y+1756752D01*
X+5155323Y+1936750D01*
X+5154847Y+1936750D01*
X+5154840Y+384469D01*
X+5231057Y+308252D01*
X+5231057Y+200677D01*
X+5171439Y+141059D01*
X+5121866Y+141059D01*
X+5572717Y+141054D02*
X+5513147Y+200624D01*
X+5513147Y+307323D01*
X+5589368Y+383544D01*
X+5589368Y+1594585D01*
X+5408860Y+1775093D01*
X+5408860Y+383532D01*
X+5485090Y+307302D01*
X+5485090Y+200697D01*
X+5425447Y+141054D01*
X+4775200Y+2108200D02*
X+4775200Y+2082800D01*
X+4794250Y+2089150D02*
X+4787900Y+2082800D01*
X+4775200Y+2070100D01*
X+4775200Y+2082800D02*
X+4787900Y+2082800D01*
X+4794250Y+2089150D02*
X+4800600Y+2095500D01*
X+4800600Y+2120900D01*
X+4775200Y+2082800D02*
X+4775200Y+2070100D01*
X+4756150Y+2089150D02*
X+4762500Y+2082800D01*
X+4775200Y+2070100D01*
X+4762500Y+2082800D02*
X+4775200Y+2082800D01*
X+4775200Y+2108200D02*
X+4800600Y+2108200D01*
X+4800600Y+2120900D01*
X+4787900Y+2133600D01*
X+4781550Y+2133600D02*
X+4775200Y+2133600D01*
X+4762500Y+2133600D01*
X+4744076Y+2133600D01*
X+4723070Y+2112594D01*
X+4723070Y+2082817D01*
X+4723087Y+2082800D01*
X+4723087Y+2072566D01*
X+4753000Y+2042653D01*
X+4794808Y+2000845D01*
X+4794845Y+2000845D01*
X+4781550Y+2133600D02*
X+4787900Y+2133600D01*
X+4775200Y+2070100D02*
X+4775200Y+2020490D01*
X+4794845Y+2000845D01*
X+4762500Y+2133600D02*
X+4749800Y+2120900D01*
X+4749800Y+2095500D01*
X+4756150Y+2089150D01*
X+1899286Y+4967056D02*
X+1978616Y+4967056D01*
X+2015511Y+4930161D01*
X+2041749Y+4903923D01*
X+2041749Y+4903922D01*
X+1917700Y+4927600D02*
X+2018071Y+4927600D01*
X+2041749Y+4903923D01*
X+2041749Y+4903922D01*
X+2209800Y+4735871D01*
X+2209800Y+4734252D01*
X+1707423Y+4734251D01*
X+1674452Y+4767222D01*
X+1674452Y+4796198D01*
X+1845242Y+4967056D01*
X+1899286Y+4967056D01*
X+2679700Y+5080000D02*
X+2679700Y+5156200D01*
X+2660650Y+5156200D02*
X+2679700Y+5156200D01*
X+2692400Y+5156200D01*
X+2717800Y+5156200D01*
X+2660650Y+5156200D02*
X+2641600Y+5156200D01*
X+2717800Y+5156200D02*
X+2755900Y+5118100D01*
X+2755900Y+5041900D01*
X+2717800Y+5003800D01*
X+2641600Y+5003800D01*
X+2603500Y+5041900D01*
X+2603500Y+5118100D01*
X+2641600Y+5156200D01*
X+2372397Y+4967011D02*
X+2312737Y+5026671D01*
X+2312737Y+5133354D01*
X+2335583Y+5156200D01*
X+2261767Y+5156200D01*
X+2284663Y+5133304D01*
X+2284663Y+5026635D01*
X+2225039Y+4967011D01*
X+2254250Y+4967011D02*
X+2372397Y+4967011D01*
X+2419350Y+4967011D01*
X+2479035Y+4967011D01*
X+2880429Y+4967011D01*
X+2888670Y+4958770D01*
X+2254250Y+4967011D02*
X+2225039Y+4967011D01*
X+2641600Y+5156200D02*
X+2515770Y+5156200D01*
X+2538639Y+5133331D01*
X+2538639Y+5026615D01*
X+2479035Y+4967011D01*
X+2225039Y+4967011D02*
X+2208439Y+4950411D01*
X+2208439Y+4895663D01*
X+2896965Y+4207137D01*
X+2896938Y+4950502D01*
X+2888670Y+4958770D01*
X+2880429Y+4967011D02*
X+2820710Y+5026730D01*
X+2820710Y+5133327D01*
X+2843583Y+5156200D01*
X+2717800Y+5156200D01*
X+3133444Y+4967976D02*
X+3104560Y+4996860D01*
X+3328762Y+5026644D02*
X+3328762Y+5067300D01*
X+3314700Y+4927600D02*
X+3328762Y+4941662D01*
X+3328762Y+5026644D01*
X+3328762Y+5067300D02*
X+3328762Y+5133329D01*
X+3351633Y+5156200D01*
X+3277791Y+5156200D01*
X+3300663Y+5133328D01*
X+3300663Y+5026669D01*
X+3224462Y+4950468D01*
X+3224462Y+4063514D01*
X+3401776Y+3886200D01*
X+3404936Y+3886200D01*
X+3404970Y+4950436D01*
X+3328762Y+5026644D01*
X+3732479Y+4927600D02*
X+3822700Y+4927600D01*
X+3822700Y+4419600D01*
X+4076700Y+4673600D02*
X+4330700Y+4419600D01*
X+4584700Y+4673600D02*
X+4584700Y+4165600D01*
X+4330700Y+3911600D02*
X+4076700Y+4165600D01*
X+4508500Y+3657600D02*
X+4330700Y+3657600D01*
X+4261995Y+3657600D01*
X+4261974Y+3657600D01*
X+4232837Y+3686737D01*
X+3732479Y+4927600D02*
X+3732479Y+4187116D01*
X+4261995Y+3657600D01*
X+4761491Y+3158104D01*
X+4761491Y+3080910D01*
X+4723068Y+3042487D01*
X+4723068Y+2979482D01*
X+4742877Y+2959673D01*
X+4508500Y+3657600D02*
X+4584700Y+3657600D01*
X+4991100Y+4927600D02*
X+4991100Y+4419600D01*
X+4991100Y+3911600D02*
X+4991100Y+3403600D01*
X+5245100Y+4165600D02*
X+5245100Y+3657600D01*
X+5499100Y+4927600D02*
X+5499100Y+4419600D01*
X+5499100Y+3911600D02*
X+5499100Y+3403600D01*
X+5753100Y+4673600D02*
X+5753100Y+4419600D01*
X+5753100Y+4165600D02*
X+5753100Y+3657600D01*
X+6007100Y+4927600D02*
X+6007100Y+4419600D01*
X+6007100Y+3911600D02*
X+6007100Y+3652764D01*
X+5993643Y+3639307D01*
X+6261100Y+4165600D02*
X+6261100Y+3814874D01*
X+6239613Y+3793387D01*
X+6187387Y+5192973D02*
X+6247092Y+5133268D01*
X+6247092Y+5026734D01*
X+6170887Y+4950529D01*
X+6170887Y+3724663D01*
X+6239613Y+3793387D01*
X+6261100Y+3814874D02*
X+6351330Y+3905102D01*
X+6351330Y+4950445D01*
X+6275160Y+5026615D01*
X+6275160Y+5133311D01*
X+6334822Y+5192973D01*
X+6515100Y+4927600D02*
X+6515100Y+4419600D01*
X+6559697Y+3743453D02*
X+6429503Y+3743453D01*
X+6293765Y+3743453D01*
X+6259906Y+3709594D01*
X+6464300Y+3778250D02*
X+6429503Y+3743453D01*
X+6343650Y+3657600D01*
X+6261100Y+3657600D01*
X+6261100Y+3149600D02*
X+6769100Y+3149600D01*
X+6769100Y+2641600D02*
X+6769100Y+2133600D01*
X+6769100Y+1625600D02*
X+6769100Y+1117600D01*
X+6515100Y+1371600D02*
X+6515100Y+1879600D01*
X+6515100Y+2387600D02*
X+6515100Y+2895600D01*
X+6515100Y+3911600D02*
X+6515100Y+3841750D01*
X+6515100Y+3829050D01*
X+6464300Y+3778250D01*
X+6261100Y+2641600D02*
X+6261100Y+2133600D01*
X+6261100Y+1625600D02*
X+6007100Y+1879600D01*
X+5753100Y+2133600D02*
X+5499100Y+2387600D01*
X+5245100Y+2641600D02*
X+5499100Y+2895600D01*
X+5753100Y+3149600D02*
X+6007100Y+3403600D01*
X+6007100Y+2895600D02*
X+6007100Y+2387600D01*
X+5753100Y+2641600D02*
X+5753100Y+3149600D01*
X+5753100Y+5245100D02*
X+5245100Y+5245100D01*
X+1550600Y+5305506D02*
X+6261100Y+5305506D01*
X+6503254Y+5305506D01*
X+6531755Y+5277005D01*
X+6613557Y+5195203D01*
X+6613557Y+5143900D01*
X+6613557Y+5020861D01*
X+5753100Y+4845050D02*
X+5753100Y+4927600D01*
X+5753100Y+5192973D01*
X+5753100Y+5245100D01*
X+5679425Y+5192973D02*
X+5753100Y+5192973D01*
X+5826820Y+5192973D01*
X+5753100Y+4845050D02*
X+5753100Y+4673600D01*
X+5245100Y+4857750D02*
X+5245100Y+4927600D01*
X+5245100Y+5192973D01*
X+5245100Y+5245100D01*
X+4917416Y+5192973D02*
X+5245100Y+5192973D01*
X+5353050Y+5192973D01*
X+5245100Y+4857750D02*
X+5245100Y+4673600D01*
X+6261100Y+4883150D02*
X+6261100Y+4927600D01*
X+6261100Y+5192973D01*
X+6261100Y+5245100D01*
X+6261100Y+5257800D01*
X+6187387Y+5192973D02*
X+6261100Y+5192973D01*
X+6334822Y+5192973D01*
X+6261100Y+4883150D02*
X+6261100Y+4673600D01*
X+6261100Y+5305506D02*
X+6261100Y+5257800D01*
X+3822700Y+4927600D02*
X+4330700Y+4927600D01*
X+4827362Y+4927600D01*
X+6445250Y+28540D02*
X+6445250Y+101600D01*
X+6515100Y+101600D01*
X+6007100Y+101600D02*
X+5897802Y+101600D01*
X+5499100Y+101600D01*
X+5885026Y+88824D02*
X+5897802Y+101600D01*
X+5968326Y+172124D01*
X+6487550Y+28540D02*
X+6445250Y+28540D01*
X+6144661Y+28540D01*
X+6144650Y+28529D01*
X+5750950Y+28529D01*
X+6261100Y+393700D02*
X+6261100Y+901700D01*
X+6097306Y+647700D02*
X+6007100Y+647700D01*
X+6007100Y+1155700D02*
X+6007100Y+1409700D01*
X+5753100Y+1663700D01*
X+5499100Y+1917700D02*
X+5245100Y+2171700D01*
X+6021136Y+307344D02*
X+6097306Y+383514D01*
X+6097306Y+647700D01*
X+6097306Y+1362451D01*
X+5103907Y+2355850D01*
X+5063973Y+2355850D01*
X+5753100Y+393700D02*
X+5753100Y+901700D01*
X+5753100Y+1409700D02*
X+5753100Y+1522754D01*
X+5720727Y+1555127D01*
X+5826712Y+141054D02*
X+5767114Y+200652D01*
X+5767114Y+307299D01*
X+5843361Y+383546D01*
X+5843318Y+1432536D01*
X+5753100Y+1522754D01*
X+5720727Y+1555127D02*
X+5662954Y+1612900D01*
X+5662862Y+1612900D01*
X+5662869Y+383550D01*
X+5739045Y+307374D01*
X+5739045Y+200686D01*
X+5679413Y+141054D01*
X+5499100Y+647700D02*
X+5499100Y+1155700D01*
X+5245100Y+1409700D02*
X+5245100Y+901700D01*
X+5245100Y+393700D02*
X+5245100Y+141054D01*
X+5245100Y+37250D01*
X+5833452Y+37250D02*
X+5815950Y+37250D01*
X+5245100Y+37250D01*
X+5318775Y+141054D02*
X+5245100Y+141054D01*
X+4969380Y+141054D01*
X+4932556Y+104230D01*
X+4401800Y+104230D01*
X+5054600Y+647700D02*
X+5054600Y+1155700D01*
X+5054600Y+1663700D02*
X+5054600Y+1945499D01*
X+5054600Y+1945502D01*
X+5033576Y+1966526D01*
X+4794845Y+2000845D02*
X+5027836Y+1767854D01*
X+5027836Y+330016D01*
X+5081339Y+383492D01*
X+5081339Y+1918757D01*
X+5054600Y+1945499D01*
X+5033576Y+1966526D01*
X+4866522Y+2133600D01*
X+4787900Y+2133600D01*
X+4314202Y+2425700D02*
X+4229100Y+2425700D01*
X+3975100Y+2679700D02*
X+3721100Y+2933700D01*
X+3913342Y+2682542D02*
X+4233305Y+2362578D01*
X+4255078Y+2362578D01*
X+4314202Y+2421702D01*
X+4314202Y+2425700D01*
X+4314202Y+2469418D01*
X+4203220Y+2580400D01*
X+4142492Y+2580400D01*
X+3944550Y+2778341D01*
X+3944550Y+2796413D01*
X+4011333Y+2863196D01*
X+4011333Y+2882374D01*
X+3932078Y+2961628D01*
X+2705100Y+3695700D02*
X+2451100Y+3441700D01*
X+2451100Y+4442606D02*
X+2405453Y+4488253D01*
X+3904360Y+2989346D02*
X+2451100Y+4442606D01*
X+2405453Y+4488253D02*
X+2255678Y+4638028D01*
X+3213100Y+2989346D02*
X+3213100Y+3441700D01*
X+2959100Y+3695700D02*
X+2705100Y+3949700D01*
X+2451100Y+3949700D02*
X+2451100Y+4203700D01*
X+2451100Y+4442606D01*
X+2451100Y+3695700D02*
X+2705100Y+3695700D01*
X+2959100Y+3695700D01*
X+3139455Y+366931D02*
X+3199042Y+307344D01*
X+3199042Y+265850D01*
X+3199042Y+193008D01*
X+3213100Y+178950D01*
X+3214296Y+177754D01*
X+3225596Y+177754D01*
X+3232750Y+177754D01*
X+3139455Y+366931D02*
X+3213100Y+366931D01*
X+3286751Y+366931D01*
X+2394573Y+901700D02*
X+2394573Y+757921D01*
X+1689100Y+901700D02*
X+1581007Y+901700D01*
X+1581007Y+1536511D01*
X+1594409Y+1549913D01*
X+2282803Y+1549913D01*
X+2394573Y+1661683D01*
X+2394573Y+901700D01*
X+1025228Y+697650D02*
X+1118450Y+697650D01*
X+1181100Y+635000D01*
X+1181100Y+901700D02*
X+1181100Y+704850D01*
X+1181100Y+901700D02*
X+1435100Y+1155700D01*
X+1181100Y+1409700D02*
X+927100Y+1155700D01*
X+673100Y+901700D02*
X+673100Y+1409700D01*
X+1943100Y+28542D02*
X+1943100Y+37250D01*
X+1943100Y+139700D01*
X+1601472Y+28542D02*
X+1943100Y+28542D01*
X+5824744Y+28542D01*
X+5833452Y+37250D01*
X+5245100Y+37250D02*
X+1943100Y+37250D01*
X+1610180Y+37250D01*
X+1181100Y+28480D02*
X+1181100Y+28542D01*
X+1181100Y+37250D01*
X+1181100Y+139700D01*
X+1610180Y+37250D02*
X+1181100Y+37250D01*
X+1080510Y+37250D01*
X+1071802Y+28542D02*
X+1181100Y+28542D01*
X+1601472Y+28542D01*
X+1544250Y+2162550D02*
X+1540429Y+2162550D01*
X+1549350Y+2162550D02*
X+1540429Y+2162550D01*
X+2527300Y+3441700D02*
X+2451100Y+3441700D01*
X+2197100Y+3441700D01*
X+2705100Y+3441700D02*
X+2527300Y+3441700D01*
X+1943100Y+3695700D02*
X+2197100Y+3949700D01*
X+1943100Y+4203700D02*
X+2197100Y+4457700D01*
X+3568700Y+4673600D02*
X+3568700Y+4165600D01*
X+3822700Y+3911600D02*
X+4076700Y+3657600D01*
X+4330700Y+3403600D02*
X+4446674Y+3287626D01*
X+4478424Y+3255876D01*
X+4510174Y+3224126D01*
X+4599095Y+3135205D01*
X+4632336Y+3101964D01*
X+4648200Y+3086100D01*
D13*
X+4632336Y+3065355D02*
X+4632336Y+3101964D01*
X+4632336Y+3114623D01*
D10*
X+4543040Y+3166558D02*
X+4574393Y+3135205D01*
X+4599095Y+3135205D01*
X+4611754Y+3135205D01*
X+4466073Y+3243525D02*
X+4478424Y+3255876D01*
X+4497823Y+3275275D01*
X+4529573Y+3243525D01*
X+4516873Y+3230825D02*
X+4510174Y+3224126D01*
X+4504173Y+3218125D01*
X+4402573Y+3243525D02*
X+4446674Y+3287626D01*
X+4466073Y+3307025D01*
X+3314700Y+4927600D02*
X+3314700Y+4419600D01*
X+3060700Y+4210050D02*
X+3060700Y+4165600D01*
X+3060700Y+4135318D01*
X+3074134Y+4121884D01*
X+3133444Y+4967976D02*
X+3150916Y+4950504D01*
X+3150916Y+4045102D01*
X+3074134Y+4121884D01*
X+3060700Y+4135318D02*
X+3036070Y+4159948D01*
X+3036070Y+4160020D01*
X+2970452Y+4225638D01*
X+2970452Y+4950424D01*
X+3046643Y+5026615D01*
X+3046643Y+5133324D01*
X+3023767Y+5156200D01*
X+3097633Y+5156200D01*
X+3074738Y+5133305D01*
X+3074753Y+5026667D01*
X+3104560Y+4996860D01*
X+3060700Y+4673600D02*
X+3060700Y+4210050D01*
X+2587625Y+4638675D02*
X+2552700Y+4673600D01*
X+2298700Y+4927600D01*
X+2806700Y+4419600D02*
X+2587625Y+4638675D01*
X+2197100Y+4457700D02*
X+1689100Y+4457700D01*
X+1689100Y+3949700D02*
X+1485371Y+3949700D01*
X+1643950Y+3303100D02*
X+1609814Y+3337236D01*
X+1515954Y+3337236D01*
X+1485390Y+3367800D01*
X+1485371Y+3949700D01*
X+1485352Y+4545138D01*
X+1485424Y+4545210D01*
X+1485424Y+4607221D01*
X+1591942Y+4713739D01*
X+1591942Y+4669570D01*
X+1626192Y+4635320D01*
X+1682056Y+4635320D01*
X+1707505Y+4660769D01*
X+2232940Y+4660766D01*
X+927100Y+3387528D02*
X+919261Y+3379689D01*
X+547971Y+3952000D02*
X+547971Y+3876472D01*
X+522451Y+3850952D01*
X+522451Y+3472883D01*
X+770432Y+3224902D01*
X+770432Y+3321230D01*
X+786411Y+3337209D01*
X+876781Y+3337209D01*
X+919261Y+3379689D01*
X+927100Y+3387528D02*
X+969578Y+3430006D01*
X+1218999Y+3430006D01*
X+1292824Y+3503831D01*
X+1353448Y+3503831D01*
X+1375121Y+3525504D01*
X+1375121Y+4652917D01*
X+1614004Y+4891800D01*
X+1485185Y+4891800D01*
X+1374065Y+5002920D01*
X+1374065Y+5156747D01*
X+1484586Y+5267268D01*
X+927100Y+3695700D02*
X+927100Y+4203700D01*
X+673100Y+4457700D02*
X+673100Y+3949700D01*
X+673100Y+3441700D02*
X+1230692Y+3441700D01*
X+1243996Y+3455004D01*
X+1181100Y+4425950D02*
X+1181100Y+4457700D01*
X+1181100Y+4965700D01*
X+673100Y+4965700D02*
X+927100Y+5219700D01*
X+1181100Y+4425950D02*
X+1181100Y+3949700D01*
X+419100Y+4965700D02*
X+260700Y+5124100D01*
X+165100Y+5219700D01*
X+165100Y+4711700D02*
X+165100Y+4203700D01*
X+260700Y+4697500D02*
X+260700Y+5124100D01*
X+260700Y+5162200D01*
X+260350Y+5162550D01*
X+260700Y+5157500D01*
X+165100Y+3308350D02*
X+165100Y+3187700D01*
X+165100Y+2817850D01*
X+165100Y+2679700D01*
X+241650Y+2817850D02*
X+165100Y+2817850D01*
X+28546Y+2817850D01*
X+165100Y+3695700D02*
X+165100Y+3308350D01*
X+1873250Y+2234771D02*
X+1939643Y+2234771D01*
X+1939645Y+2234769D01*
X+1885416Y+2234769D01*
X+1776650Y+2410200D02*
X+1776650Y+2293304D01*
X+1835183Y+2234771D01*
X+1873250Y+2234771D01*
X+1939645Y+2234769D02*
X+1949881Y+2234769D01*
X+1984213Y+2200437D01*
X+2397871Y+2200437D01*
X+2431340Y+2166968D01*
X+2431354Y+361254D01*
X+2400300Y+330200D01*
X+2273300Y+2237180D02*
X+2152655Y+2237180D01*
X+1999420Y+2237180D01*
X+1965036Y+2271564D01*
X+1901995Y+2271564D01*
X+2292950Y+2237180D02*
X+2273300Y+2237180D01*
X+1901995Y+2271564D02*
X+1850431Y+2271564D01*
X+1816650Y+2305345D01*
X+1816650Y+2410200D01*
X+1966396Y+2989346D02*
X+2197100Y+2989346D01*
X+3213100Y+2989346D01*
X+3538150Y+2989346D01*
X+3606470Y+2989346D01*
X+3779958Y+2815858D01*
X+3606470Y+2989346D02*
X+3606537Y+2989346D01*
X+1849050Y+2952600D02*
X+1874450Y+2952600D01*
X+1887150Y+2952600D01*
X+1951144Y+2952600D01*
X+2318935Y+2952600D01*
X+2318993Y+2952542D01*
X+3591316Y+2952542D01*
X+3672528Y+2871330D01*
X+3828341Y+2715517D01*
X+3852932Y+2690926D01*
X+3852976Y+2690926D01*
X+3828331Y+2715517D02*
X+3828341Y+2715517D01*
X+3828385Y+2715517D01*
X+3852976Y+2690926D01*
X+3869576Y+2674326D01*
X+2015375Y+2782375D02*
X+2015423Y+2782375D01*
X+2034722Y+2801674D01*
X+2042378Y+2809330D01*
X+2042424Y+2809376D01*
X+2035086Y+2816714D02*
X+2042424Y+2809376D01*
X+2034722Y+2801674D02*
X+2034674Y+2801674D01*
X+2028075Y+2795075D01*
X+2042378Y+2809330D02*
X+2028075Y+2823632D01*
X+3877187Y+2614637D02*
X+3830112Y+2661712D01*
X+1891650Y+2605200D02*
X+2186300Y+2605200D01*
X+2209150Y+2628050D01*
X+1891650Y+2565200D02*
X+2113250Y+2565200D01*
X+2209150Y+2469300D01*
X+2209150Y+2462950D01*
X+1891650Y+2685200D02*
X+2107550Y+2685200D01*
X+2209150Y+2786800D01*
X+2209150Y+2793150D01*
X+2369150Y+2462950D02*
X+2369150Y+2628050D01*
X+2369150Y+2793150D01*
X+3340100Y+284900D02*
X+3340100Y+330200D01*
X+3340100Y+284900D02*
X+3340100Y+254000D01*
X+762000Y+330200D02*
X+800100Y+330200D01*
X+800100Y+349250D01*
X+781050Y+368300D01*
X+742950Y+368300D01*
X+723900Y+349250D01*
X+723900Y+311150D01*
X+742950Y+292100D01*
X+781050Y+292100D01*
X+800100Y+311150D01*
X+800100Y+342900D01*
X+889000Y+330200D02*
X+927100Y+330200D01*
X+927100Y+349250D01*
X+908050Y+368300D01*
X+869950Y+368300D01*
X+850900Y+349250D01*
X+850900Y+311150D01*
X+869950Y+292100D01*
X+908050Y+292100D01*
X+927100Y+311150D01*
X+927100Y+349250D01*
X+2095500Y+2419350D02*
X+2095500Y+2444750D01*
X+2114550Y+2438400D02*
X+2108200Y+2444750D01*
X+2095500Y+2457450D01*
X+2108200Y+2444750D02*
X+2095500Y+2444750D01*
X+2095500Y+2457450D01*
X+2095500Y+2496194D01*
X+2066494Y+2525200D01*
X+1891650Y+2525200D01*
X+2076450Y+2438400D02*
X+2082800Y+2444750D01*
X+2095500Y+2457450D01*
X+2095500Y+2444750D02*
X+2082800Y+2444750D01*
X+2095500Y+2419350D02*
X+2114550Y+2400300D01*
X+2159000Y+2305050D02*
X+2137382Y+2305050D01*
X+2133600Y+2305050D02*
X+2137382Y+2305050D01*
X+2146300Y+2330450D02*
X+2133600Y+2317750D01*
X+2120900Y+2305050D01*
X+2133600Y+2305050D02*
X+2133600Y+2317750D01*
X+2146300Y+2330450D02*
X+2171700Y+2330450D01*
X+2120900Y+2305050D02*
X+2133600Y+2305050D01*
X+2139950Y+2286000D02*
X+2133600Y+2292350D01*
X+2120900Y+2305050D01*
X+2159000Y+2305050D02*
X+2159000Y+2330450D01*
X+2171700Y+2330450D01*
X+2184400Y+2317750D01*
X+2184400Y+2292350D01*
X+2171700Y+2279650D01*
X+2146300Y+2279650D01*
X+2139950Y+2286000D01*
X+2133600Y+2292350D02*
X+2133600Y+2305050D01*
X+1891650Y+2485200D02*
X+1991550Y+2485200D01*
X+2033336Y+2443414D01*
X+2033336Y+2335464D01*
X+2063750Y+2305050D01*
X+2120900Y+2305050D01*
X+2127250Y+2387600D02*
X+2145065Y+2369785D01*
X+4025779Y+2362079D02*
X+4086104Y+2301754D01*
X+4362385Y+2025473D01*
X+4578173Y+2025473D01*
X+4634805Y+2082105D01*
X+4634805Y+2228457D01*
X+4665598Y+2259250D01*
X+2145065Y+2369785D02*
X+2147613Y+2367237D01*
X+4020621Y+2367237D01*
X+4025779Y+2362079D01*
X+2120900Y+2425700D02*
X+2120900Y+2419350D01*
X+2120900Y+2406650D01*
X+2120900Y+2393950D01*
X+2095500Y+2419350D02*
X+2120900Y+2419350D01*
X+2120900Y+2425700D02*
X+2120900Y+2432050D01*
X+2114550Y+2438400D01*
X+2114550Y+2400300D02*
X+2120900Y+2406650D01*
X+2120900Y+2425700D02*
X+2120900Y+2432050D01*
X+2114550Y+2400300D02*
X+2120900Y+2393950D01*
X+2089150Y+2393950D02*
X+2108200Y+2393950D01*
X+2120900Y+2393950D01*
X+2127250Y+2387600D01*
X+2076450Y+2438400D02*
X+2070100Y+2432050D01*
X+2070100Y+2406650D01*
X+2082800Y+2393950D01*
X+2089150Y+2393950D01*
X+2108200Y+2393950D02*
X+2114550Y+2400300D01*
X+2209150Y+2793150D02*
X+2209150Y+2799700D01*
X+2288496Y+2879046D01*
X+3560826Y+2879046D01*
X+4342697Y+2097174D01*
X+4548274Y+2097174D01*
X+2028075Y+2823725D02*
X+2056773Y+2823725D01*
X+2077149Y+2844101D01*
X+2042424Y+2809376D02*
X+2056773Y+2823725D01*
X+2077149Y+2844101D02*
X+2148911Y+2915863D01*
X+2266950Y+2915863D01*
X+2267032Y+2915781D01*
X+2484590Y+2915781D01*
X+3576064Y+2915781D01*
X+3729269Y+2762576D01*
X+3830112Y+2661733D01*
X+3830112Y+2661712D01*
X+2691066Y+307282D02*
X+2631417Y+366931D01*
X+4940300Y+215900D02*
X+4911725Y+187325D01*
X+2719166Y+196103D02*
X+2719166Y+195234D01*
X+2736610Y+177790D01*
X+2668478Y+177790D01*
X+2668459Y+177809D01*
X+2691066Y+200416D01*
X+2691066Y+253150D01*
X+2691066Y+307282D01*
X+3625850Y+366941D02*
X+3540749Y+366941D01*
X+3430200Y+366941D01*
X+3393453Y+366941D01*
X+3139465Y+366941D01*
X+3139455Y+366931D01*
X+3625850Y+366941D02*
X+3633400Y+366941D01*
X+3975100Y+2171700D02*
X+4229100Y+1917700D01*
X+4737100Y+1917700D02*
X+4483100Y+1663700D01*
X+3975100Y+1663700D02*
X+3721100Y+1917700D01*
X+3467100Y+1663700D02*
X+3213100Y+1917700D01*
X+2959100Y+1663700D02*
X+2705100Y+1917700D01*
X+2705100Y+1409700D02*
X+3213100Y+1409700D01*
X+3721100Y+1409700D02*
X+4229100Y+1409700D01*
X+4737100Y+1409700D02*
X+4483100Y+1155700D01*
X+3975100Y+1155700D02*
X+3467100Y+1155700D01*
X+2959100Y+1155700D02*
X+3213100Y+901700D01*
X+3721100Y+901700D02*
X+4229100Y+901700D01*
X+4737100Y+901700D02*
X+4483100Y+647700D01*
X+3721100Y+393700D02*
X+4229100Y+393700D01*
X+4954339Y+393700D01*
X+4954338Y+229938D01*
X+4940300Y+215900D01*
X+3625850Y+647700D02*
X+3467100Y+647700D01*
X+2885436Y+366931D02*
X+2965450Y+366931D01*
X+3032715Y+366931D01*
X+3975100Y+647700D02*
X+3625850Y+647700D01*
X+3467100Y+647700D02*
X+2705100Y+647700D01*
X+2959100Y+393700D02*
X+2965450Y+366931D01*
X+2197100Y+393700D02*
X+2394550Y+393700D01*
X+2394550Y+469050D02*
X+2394550Y+393700D01*
X+2394550Y+379134D01*
X+2382358Y+366942D01*
X+2270717Y+366931D01*
X+2210400Y+306614D01*
X+2210400Y+253349D01*
X+1916502Y+547288D01*
X+1410300Y+547261D01*
X+1410300Y+549532D01*
X+1581007Y+720239D01*
X+1581007Y+901700D01*
X+2197100Y+393700D02*
X+1943100Y+647700D01*
X+2197100Y+901700D02*
X+2394573Y+901700D01*
X+1181100Y+635000D02*
X+1181100Y+647700D01*
X+1181100Y+704850D01*
X+1689100Y+1155700D02*
X+1943100Y+1409700D01*
X+1689100Y+901700D02*
X+1689100Y+1155700D01*
X+1689100Y+1409700D01*
X+2114550Y+1968500D02*
X+2114550Y+1951150D01*
X+2114550Y+1885100D01*
X+2051650Y+1888250D02*
X+2114550Y+1951150D01*
X+2148450Y+1985050D01*
X+2159600Y+1985050D01*
X+2159600Y+2081950D02*
X+2267550Y+2081950D01*
X+2267550Y+1885100D01*
X+2114550Y+1885100D01*
X+2051650Y+1885100D01*
X+3702050Y+2444750D02*
X+3721100Y+2425700D01*
X+3702050Y+2444750D02*
X+3467100Y+2679700D01*
X+3721100Y+2425700D02*
X+3742778Y+2404022D01*
X+3759200Y+2404022D01*
X+3191372Y+2403972D02*
X+3213100Y+2425700D01*
X+3203575Y+2435225D02*
X+3213100Y+2425700D01*
X+3234828Y+2403972D01*
X+3238500Y+2403972D01*
X+3203575Y+2435225D02*
X+2959100Y+2679700D01*
X+3191372Y+2403972D02*
X+3234828Y+2403972D01*
X+3238500Y+2403972D02*
X+3759150Y+2403972D01*
X+3759200Y+2404022D01*
X+2527300Y+2705100D02*
X+2441404Y+2705100D01*
X+3759200Y+2404022D02*
X+3983903Y+2404022D01*
X+3545621Y+2842269D01*
X+2473969Y+2842269D01*
X+2441404Y+2809704D01*
X+2441404Y+2705100D01*
X+2441404Y+2435396D01*
X+2472828Y+2403972D01*
X+3191372Y+2403972D01*
X+2527300Y+2330443D02*
X+2527300Y+2260600D01*
X+2631417Y+366931D02*
X+2517112Y+366969D01*
X+2504876Y+379205D01*
X+2504876Y+2197471D01*
X+2428414Y+2273933D01*
X+2234567Y+2273933D01*
X+2221162Y+2287338D01*
X+2221162Y+2318477D01*
X+2233128Y+2330443D01*
X+2527300Y+2330443D01*
X+4005457Y+2330442D01*
X+4347206Y+1988693D01*
X+4593370Y+1988693D01*
X+4648206Y+2043528D01*
X+4954351Y+1737383D01*
X+4954339Y+393700D01*
D16*
X+1404550Y+2334000D03*
X+1050700Y+2419750D03*
X+1191650Y+2756300D03*
X+1529650Y+3265000D03*
X+1191650Y+2845200D03*
X+1191650Y+2934100D03*
X+1102750Y+2845200D03*
X+1320800Y+3441700D03*
X+1696650Y+2997050D03*
X+1849050Y+2952600D03*
X+1694750Y+3265000D03*
X+1193100Y+3318360D03*
X+485700Y+4697500D03*
X+1654100Y+4697500D03*
X+1355600Y+2415350D03*
X+387700Y+1549450D03*
X+1334700Y+2270500D03*
X+2050350Y+3105000D03*
X+1874450Y+2162550D03*
X+1694750Y+3435200D03*
X+1210700Y+2419750D03*
X+1709350Y+2162550D03*
X+4352936Y+3130387D03*
X+2369150Y+2139100D03*
X+4775200Y+2552700D03*
X+693350Y+2002550D03*
X+324200Y+3468400D03*
X+387700Y+1022300D03*
X+566350Y+2002550D03*
X+693350Y+1875550D03*
X+996950Y+311150D03*
X+996950Y+635000D03*
X+2369150Y+2050200D03*
X+2369150Y+1961300D03*
X+1696650Y+2605200D03*
X+4584700Y+2552700D03*
X+4965700Y+2552700D03*
X+4775200Y+2362200D03*
X+4775200Y+2743200D03*
X+4775200Y+2108200D03*
X+1917700Y+4927600D03*
X+3314700Y+4927600D03*
X+3822700Y+4927600D03*
X+3822700Y+4419600D03*
X+4076700Y+4673600D03*
X+4330700Y+4419600D03*
X+4584700Y+4673600D03*
X+4584700Y+4165600D03*
X+4330700Y+3911600D03*
X+4076700Y+4165600D03*
X+4584700Y+3657600D03*
X+4991100Y+4927600D03*
X+4991100Y+4419600D03*
X+4991100Y+3911600D03*
X+4991100Y+3403600D03*
X+5245100Y+4673600D03*
X+5245100Y+4165600D03*
X+5245100Y+3657600D03*
X+5499100Y+4927600D03*
X+5499100Y+4419600D03*
X+5499100Y+3911600D03*
X+5499100Y+3403600D03*
X+5753100Y+4673600D03*
X+5753100Y+4165600D03*
X+5753100Y+3657600D03*
X+6007100Y+4927600D03*
X+6007100Y+4419600D03*
X+6007100Y+3911600D03*
X+6261100Y+4673600D03*
X+6261100Y+4165600D03*
X+6515100Y+4927600D03*
X+6515100Y+4419600D03*
X+6515100Y+3911600D03*
X+6261100Y+3657600D03*
X+6261100Y+3149600D03*
X+6769100Y+3149600D03*
X+6769100Y+2641600D03*
X+6769100Y+2133600D03*
X+6769100Y+1625600D03*
X+6769100Y+1117600D03*
X+6515100Y+1371600D03*
X+6515100Y+1879600D03*
X+6515100Y+2387600D03*
X+6515100Y+2895600D03*
X+6261100Y+2641600D03*
X+6261100Y+2133600D03*
X+6261100Y+1625600D03*
X+6007100Y+1879600D03*
X+5753100Y+2133600D03*
X+5499100Y+2387600D03*
X+5245100Y+2641600D03*
X+5499100Y+2895600D03*
X+5753100Y+3149600D03*
X+6007100Y+3403600D03*
X+6007100Y+2895600D03*
X+6007100Y+2387600D03*
X+5753100Y+2641600D03*
X+6261100Y+5245100D03*
X+5753100Y+5245100D03*
X+5245100Y+5245100D03*
X+4737100Y+5245100D03*
X+4330700Y+4927600D03*
X+6515100Y+101600D03*
X+6007100Y+101600D03*
X+5499100Y+101600D03*
X+6261100Y+393700D03*
X+6261100Y+901700D03*
X+6007100Y+647700D03*
X+6007100Y+1155700D03*
X+5753100Y+1663700D03*
X+5499100Y+1917700D03*
X+5245100Y+2171700D03*
X+5753100Y+393700D03*
X+5753100Y+901700D03*
X+5753100Y+1409700D03*
X+5499100Y+647700D03*
X+5499100Y+1155700D03*
X+5245100Y+1409700D03*
X+5245100Y+901700D03*
X+5245100Y+393700D03*
X+5054600Y+647700D03*
X+5054600Y+1155700D03*
X+5054600Y+1663700D03*
X+4229100Y+2425700D03*
X+3975100Y+2679700D03*
X+3721100Y+2933700D03*
X+3213100Y+3441700D03*
X+2959100Y+3695700D03*
X+2705100Y+3949700D03*
X+2451100Y+4203700D03*
X+2451100Y+3695700D03*
X+2451100Y+3187700D03*
X+2705100Y+3441700D03*
X+1689100Y+1409700D03*
X+1181100Y+901700D03*
X+1435100Y+1155700D03*
X+1181100Y+1409700D03*
X+927100Y+1155700D03*
X+673100Y+901700D03*
X+673100Y+1409700D03*
X+1943100Y+139700D03*
X+1181100Y+139700D03*
X+165100Y+139700D03*
X+1887150Y+1843800D03*
X+1709350Y+1843800D03*
X+1709350Y+2002550D03*
X+1540429Y+2162550D03*
X+1379150Y+2162550D03*
X+953700Y+2162550D03*
X+693350Y+2162550D03*
X+486650Y+2217700D03*
X+2197100Y+3441700D03*
X+1943100Y+3695700D03*
X+2197100Y+3949700D03*
X+1943100Y+4203700D03*
X+2197100Y+4457700D03*
X+3568700Y+4673600D03*
X+3568700Y+4165600D03*
X+3822700Y+3911600D03*
X+4076700Y+3657600D03*
X+4330700Y+3403600D03*
X+3314700Y+4419600D03*
X+3060700Y+4673600D03*
X+2806700Y+4419600D03*
X+2552700Y+4673600D03*
X+2298700Y+4927600D03*
X+1689100Y+4457700D03*
X+1689100Y+3949700D03*
X+2050350Y+3265000D03*
X+1872550Y+3318360D03*
X+1181100Y+4457700D03*
X+1181100Y+3949700D03*
X+927100Y+3695700D03*
X+927100Y+4203700D03*
X+673100Y+4457700D03*
X+673100Y+3949700D03*
X+673100Y+3441700D03*
X+1181100Y+4965700D03*
X+673100Y+4965700D03*
X+927100Y+5219700D03*
X+419100Y+4965700D03*
X+165100Y+5219700D03*
X+165100Y+4711700D03*
X+165100Y+4203700D03*
X+165100Y+3695700D03*
X+165100Y+3187700D03*
X+1015300Y+3265000D03*
X+241650Y+2947700D03*
X+165100Y+2679700D03*
X+165100Y+2171700D03*
X+2209150Y+2462950D03*
X+2209150Y+2628050D03*
X+2369150Y+2462950D03*
X+2095500Y+2419350D03*
X+2159000Y+2305050D03*
X+3721100Y+2425700D03*
X+3975100Y+2171700D03*
X+4229100Y+1917700D03*
X+4737100Y+1917700D03*
X+4483100Y+1663700D03*
X+3975100Y+1663700D03*
X+3721100Y+1917700D03*
X+3467100Y+1663700D03*
X+3213100Y+1917700D03*
X+2959100Y+1663700D03*
X+2705100Y+1917700D03*
X+2705100Y+1409700D03*
X+3213100Y+1409700D03*
X+3721100Y+1409700D03*
X+4229100Y+1409700D03*
X+4737100Y+1409700D03*
X+4483100Y+1155700D03*
X+3975100Y+1155700D03*
X+3467100Y+1155700D03*
X+2959100Y+1155700D03*
X+3213100Y+901700D03*
X+3721100Y+901700D03*
X+4229100Y+901700D03*
X+4737100Y+901700D03*
X+4483100Y+647700D03*
X+3975100Y+647700D03*
X+3721100Y+393700D03*
X+3467100Y+647700D03*
X+2705100Y+647700D03*
X+2959100Y+393700D03*
X+2197100Y+393700D03*
X+1943100Y+647700D03*
X+2197100Y+901700D03*
X+1181100Y+647700D03*
X+1435100Y+901700D03*
X+1689100Y+1155700D03*
X+1943100Y+1409700D03*
X+2114550Y+1968500D03*
X+2527300Y+2705100D03*
X+2527300Y+2260600D03*
D10*
X+691450Y+2737950D02*
X+653350Y+2699850D01*
X+526350Y+2699850D01*
X+691450Y+2864950D01*
X+691450Y+2737950D01*
X+4349587Y+3254386D02*
X+4400387Y+3254386D01*
X+4463887Y+3190886D01*
X+4501987Y+3190886D01*
X+4622637Y+3070236D01*
X+4635337Y+3070236D01*
X+4679787Y+3114686D01*
X+4679787Y+3127386D01*
X+3651087Y+4156086D01*
X+3651087Y+4943486D01*
X+3574887Y+5019686D01*
X+3574887Y+5140336D01*
X+3581237Y+5146686D01*
X+3555837Y+5146686D01*
X+3562187Y+5140336D01*
X+3562187Y+5019686D01*
X+3485987Y+4943486D01*
X+3485987Y+3908436D01*
X+4216237Y+3178186D01*
X+4273387Y+3178186D01*
X+4349587Y+3254386D01*
X+1543650Y+1561250D02*
X+1575400Y+1593000D01*
X+2261200Y+1593000D01*
X+2388200Y+1720000D01*
X+2388200Y+2151800D01*
X+2381850Y+2158150D01*
X+2045300Y+2158150D01*
X+1924650Y+2037500D01*
X+1924650Y+2018450D01*
X+2032600Y+2126400D01*
X+2286600Y+2126400D01*
X+2312000Y+2101000D01*
X+2312000Y+1815250D01*
X+2273900Y+1777150D01*
X+2051650Y+1777150D01*
X+1937350Y+1662850D01*
X+1810350Y+1662850D01*
X+1759550Y+1713650D01*
X+1473800Y+1713650D01*
X+1467450Y+1720000D01*
X+1384900Y+1720000D01*
X+1543650Y+1561250D01*
X+2045900Y+2066050D02*
X+2045900Y+1894600D01*
X+1963350Y+1812050D01*
X+1658550Y+1812050D01*
X+1633150Y+1837450D01*
X+1633150Y+2047000D01*
X+1645850Y+2034300D01*
X+1747450Y+2034300D01*
X+1753800Y+2027950D01*
X+1753800Y+1958100D01*
X+1791900Y+1920000D01*
X+1944300Y+1920000D01*
X+1963350Y+1939050D01*
X+1963350Y+1983500D01*
X+2045900Y+2066050D01*
X+1207700Y+1843800D02*
X+1207700Y+1913650D01*
X+1258500Y+1964450D01*
X+1258500Y+2027950D01*
X+1252150Y+2034300D01*
X+1169600Y+2034300D01*
X+1087050Y+1951750D01*
X+820350Y+1951750D01*
X+737800Y+2034300D01*
X+566350Y+2034300D01*
X+547300Y+2015250D01*
X+547300Y+1989850D01*
X+833050Y+1704100D01*
X+1175950Y+1704100D01*
X+1195000Y+1723150D01*
X+1188650Y+1729500D01*
X+1175950Y+1729500D01*
X+1156900Y+1748550D01*
X+1156900Y+1818400D01*
X+1182300Y+1843800D01*
X+1207700Y+1843800D01*
X+661600Y+1773950D02*
X+801300Y+1634250D01*
X+1271200Y+1634250D01*
X+1315650Y+1678700D01*
X+1334700Y+1659650D01*
X+1372800Y+1659650D01*
X+1499800Y+1532650D01*
X+1499800Y+751600D01*
X+1099750Y+351550D01*
X+1061650Y+351550D01*
X+1042600Y+370600D01*
X+1042600Y+580150D01*
X+1068000Y+605550D01*
X+1068000Y+669050D01*
X+1029900Y+707150D01*
X+966400Y+707150D01*
X+928300Y+669050D01*
X+928300Y+599200D01*
X+953700Y+573800D01*
X+953700Y+434100D01*
X+934650Y+415050D01*
X+598100Y+415050D01*
X+553650Y+370600D01*
X+553650Y+275350D01*
X+591750Y+237250D01*
X+591750Y+199150D01*
X+515550Y+275350D01*
X+515550Y+383300D01*
X+477450Y+421400D01*
X+477450Y+1767600D01*
X+471100Y+1773950D01*
X+661600Y+1773950D01*
X+267900Y+1507250D02*
X+306000Y+1469150D01*
X+464750Y+1469150D01*
X+464750Y+1253250D01*
X+452050Y+1265950D01*
X+191700Y+1265950D01*
X+179000Y+1253250D01*
X+179000Y+1475500D01*
X+210750Y+1507250D01*
X+267900Y+1507250D01*
X+464750Y+942100D02*
X+464750Y+675400D01*
X+179000Y+675400D01*
X+179000Y+948450D01*
X+210750Y+980200D01*
X+267900Y+980200D01*
X+306000Y+942100D01*
X+464750Y+942100D01*
X+509200Y+2421650D02*
X+572700Y+2421650D01*
X+610800Y+2383550D01*
X+610800Y+2332750D01*
X+502850Y+2224800D01*
X+502850Y+2040650D01*
X+591750Y+2129550D01*
X+794950Y+2129550D01*
X+852100Y+2072400D01*
X+1061650Y+2072400D01*
X+1125150Y+2135900D01*
X+1595050Y+2135900D01*
X+1620450Y+2110500D01*
X+1620450Y+2237500D01*
X+1645850Y+2262900D01*
X+1645850Y+2288300D01*
X+1582350Y+2224800D01*
X+1391850Y+2224800D01*
X+1366450Y+2199400D01*
X+1302950Y+2199400D01*
X+1264850Y+2237500D01*
X+1264850Y+2320050D01*
X+1252150Y+2332750D01*
X+1112450Y+2332750D01*
X+1080700Y+2364500D01*
X+1080700Y+2466100D01*
X+1048950Y+2497850D01*
X+509200Y+2497850D01*
X+509200Y+2421650D01*
X+401250Y+2497850D02*
X+401250Y+2402600D01*
X+420300Y+2421650D01*
X+496500Y+2421650D01*
X+496500Y+2497850D01*
X+401250Y+2497850D01*
X+515550Y+2402600D02*
X+528250Y+2389900D01*
X+528250Y+2320050D01*
X+496500Y+2288300D01*
X+547300Y+2288300D01*
X+598100Y+2339100D01*
X+598100Y+2377200D01*
X+572700Y+2402600D01*
X+515550Y+2402600D01*
X+2007800Y+3234450D02*
X+2090350Y+3234450D01*
X+2096700Y+3240800D01*
X+2096700Y+3304300D01*
X+1957000Y+3444000D01*
X+1772850Y+3444000D01*
X+1766500Y+3437650D01*
X+1766500Y+3405900D01*
X+1728400Y+3367800D01*
X+1658550Y+3367800D01*
X+1626800Y+3399550D01*
X+1626800Y+3469400D01*
X+1664900Y+3507500D01*
X+1696650Y+3507500D01*
X+1715700Y+3526550D01*
X+1493450Y+3526550D01*
X+1493450Y+3374150D01*
X+1518850Y+3348750D01*
X+1614100Y+3348750D01*
X+1652200Y+3310650D01*
X+1652200Y+3247150D01*
X+1664900Y+3234450D01*
X+1741100Y+3234450D01*
X+1791900Y+3285250D01*
X+1957000Y+3285250D01*
X+2007800Y+3234450D01*
X+4306500Y+2466100D02*
X+4306500Y+2428000D01*
X+4249350Y+2370850D01*
X+4236650Y+2370850D01*
X+3627050Y+2980450D01*
X+3900100Y+2980450D01*
X+4001700Y+2878850D01*
X+4001700Y+2866150D01*
X+3938200Y+2802650D01*
X+3938200Y+2770900D01*
X+4135050Y+2574050D01*
X+4198550Y+2574050D01*
X+4306500Y+2466100D01*
X+3881050Y+2999500D02*
X+1906200Y+2999500D01*
X+1899850Y+3005850D01*
X+1912550Y+3018550D01*
X+2122100Y+3018550D01*
X+2147500Y+3043950D01*
X+2147500Y+3120150D01*
X+2198300Y+3170950D01*
X+2198300Y+3336050D01*
X+1995100Y+3539250D01*
X+1493450Y+3539250D01*
X+1493450Y+4606050D01*
X+1582350Y+4694950D01*
X+1582350Y+4669550D01*
X+1626800Y+4625100D01*
X+1683950Y+4625100D01*
X+1709350Y+4650500D01*
X+2230050Y+4650500D01*
X+3881050Y+2999500D01*
X+1290250Y+3513850D02*
X+1214050Y+3437650D01*
X+966400Y+3437650D01*
X+877500Y+3348750D01*
X+788600Y+3348750D01*
X+763200Y+3323350D01*
X+763200Y+3247150D01*
X+756850Y+3247150D01*
X+528250Y+3475750D01*
X+528250Y+3844050D01*
X+560000Y+3875800D01*
X+560000Y+4015500D01*
X+528250Y+4047250D01*
X+528250Y+4307600D01*
X+560000Y+4339350D01*
X+560000Y+4764800D01*
X+528250Y+4796550D01*
X+528250Y+5056900D01*
X+560000Y+5088650D01*
X+560000Y+5228350D01*
X+540950Y+5247400D01*
X+458400Y+5247400D01*
X+509200Y+5298200D01*
X+1499800Y+5298200D01*
X+1366450Y+5164850D01*
X+1366450Y+4999750D01*
X+1480750Y+4885450D01*
X+1595050Y+4885450D01*
X+1366450Y+4656850D01*
X+1366450Y+3532900D01*
X+1347400Y+3513850D01*
X+1290250Y+3513850D01*
X+540950Y+4612400D02*
X+540950Y+4491750D01*
X+433000Y+4491750D01*
X+433000Y+4606050D01*
X+528250Y+4606050D01*
X+534600Y+4612400D01*
X+540950Y+4612400D01*
X+39300Y+4028200D02*
X+426650Y+4028200D01*
X+439350Y+4040900D01*
X+439350Y+4307600D01*
X+413950Y+4333000D01*
X+413950Y+4764800D01*
X+439350Y+4790200D01*
X+439350Y+5063250D01*
X+413950Y+5088650D01*
X+413950Y+5228350D01*
X+483800Y+5298200D01*
X+134550Y+5298200D01*
X+115074Y+5296178D01*
X+97064Y+5290362D01*
X+66833Y+5268831D01*
X+46648Y+5236585D01*
X+41195Y+5217374D01*
X+39300Y+5196600D01*
X+39300Y+4028200D01*
X+39300Y+4015500D02*
X+413950Y+4015500D01*
X+413950Y+3875800D01*
X+439350Y+3850400D01*
X+439350Y+3437650D01*
X+763200Y+3113800D01*
X+763200Y+3082050D01*
X+725100Y+3043950D01*
X+680650Y+3043950D01*
X+648900Y+3012200D01*
X+648900Y+2897900D01*
X+579050Y+2828050D01*
X+39300Y+2828050D01*
X+39300Y+4015500D01*
X+39300Y+2809000D02*
X+394900Y+2809000D01*
X+369500Y+2783600D01*
X+369500Y+2516900D01*
X+388550Y+2497850D01*
X+388550Y+2320050D01*
X+471100Y+2237500D01*
X+471100Y+1964450D01*
X+648900Y+1786650D01*
X+39300Y+1786650D01*
X+39300Y+2809000D01*
X+39300Y+1773950D02*
X+166300Y+1773950D01*
X+166300Y+1608850D01*
X+204400Y+1570750D01*
X+204400Y+1519950D01*
X+166300Y+1481850D01*
X+166300Y+1081800D01*
X+204400Y+1043700D01*
X+204400Y+992900D01*
X+166300Y+954800D01*
X+166300Y+497600D01*
X+306000Y+357900D01*
X+407600Y+357900D01*
X+426650Y+338850D01*
X+426650Y+237250D01*
X+579050Y+84850D01*
X+763200Y+84850D01*
X+801300Y+46750D01*
X+801300Y+34050D01*
X+128200Y+34050D01*
X+110023Y+36198D01*
X+93213Y+42378D01*
X+78096Y+52195D01*
X+64997Y+65254D01*
X+46158Y+99516D01*
X+39300Y+142000D01*
X+39300Y+1773950D01*
X+1620450Y+59450D02*
X+1595050Y+34050D01*
X+960050Y+34050D01*
X+1391850Y+465850D01*
X+1601400Y+465850D01*
X+1620450Y+446800D01*
X+1480750Y+446800D01*
X+1366450Y+332500D01*
X+1366450Y+161050D01*
X+1468050Y+59450D01*
X+1620450Y+59450D01*
X+1626800Y+465850D02*
X+1760150Y+332500D01*
X+1760150Y+173750D01*
X+1626800Y+40400D01*
X+5824150Y+34050D01*
X+5925750Y+135650D01*
X+4973250Y+135650D01*
X+4935150Y+97550D01*
X+3550850Y+97550D01*
X+3512750Y+59450D01*
X+3163500Y+59450D01*
X+3125400Y+97550D01*
X+2249100Y+97550D01*
X+1880800Y+465850D01*
X+1626800Y+465850D01*
X+2388200Y+386500D02*
X+2375500Y+373800D01*
X+2267550Y+373800D01*
X+2204050Y+310300D01*
X+2204050Y+272200D01*
X+1918300Y+557950D01*
X+1429350Y+557950D01*
X+1588100Y+716700D01*
X+1588100Y+1535850D01*
X+1594450Y+1542200D01*
X+2286600Y+1542200D01*
X+2388200Y+1643800D01*
X+2388200Y+386500D01*
X+4680550Y+361100D02*
X+4947250Y+361100D01*
X+4947250Y+234100D01*
X+4896450Y+183300D01*
X+4718650Y+183300D01*
X+4731350Y+196000D01*
X+4731350Y+310300D01*
X+4680550Y+361100D01*
X+4540850Y+361100D02*
X+4490050Y+310300D01*
X+4490050Y+196000D01*
X+4502750Y+183300D01*
X+3956650Y+183300D01*
X+3969350Y+196000D01*
X+3969350Y+310300D01*
X+3918550Y+361100D01*
X+4540850Y+361100D01*
X+3664550Y+361100D02*
X+3778850Y+361100D01*
X+3728050Y+310300D01*
X+3728050Y+196000D01*
X+3740750Y+183300D01*
X+3702650Y+183300D01*
X+3715350Y+196000D01*
X+3715350Y+310300D01*
X+3664550Y+361100D01*
X+3410550Y+361100D02*
X+3524850Y+361100D01*
X+3474050Y+310300D01*
X+3474050Y+196000D01*
X+3461350Y+183300D01*
X+3448650Y+183300D01*
X+3461350Y+196000D01*
X+3461350Y+310300D01*
X+3410550Y+361100D01*
X+3156550Y+361100D02*
X+3270850Y+361100D01*
X+3220050Y+310300D01*
X+3220050Y+196000D01*
X+3232750Y+183300D01*
X+3220050Y+183300D01*
X+3207350Y+196000D01*
X+3207350Y+310300D01*
X+3156550Y+361100D01*
X+2902550Y+361100D02*
X+3016850Y+361100D01*
X+2966050Y+310300D01*
X+2966050Y+196000D01*
X+2978750Y+183300D01*
X+2940650Y+183300D01*
X+2953350Y+196000D01*
X+2953350Y+310300D01*
X+2902550Y+361100D01*
X+2648550Y+361100D02*
X+2762850Y+361100D01*
X+2712050Y+310300D01*
X+2712050Y+189650D01*
X+2718400Y+183300D01*
X+2686650Y+183300D01*
X+2699350Y+196000D01*
X+2699350Y+310300D01*
X+2648550Y+361100D01*
X+6000750Y+215900D02*
X+6013450Y+228600D01*
X+6013450Y+311150D01*
X+6089650Y+387350D01*
X+6089650Y+1358900D01*
X+5099050Y+2349500D01*
X+5073650Y+2349500D01*
X+5073650Y+2317750D01*
X+5924550Y+1466850D01*
X+5924550Y+387350D01*
X+6000750Y+311150D01*
X+6000750Y+215900D01*
X+6178550Y+1358900D02*
X+6343650Y+1193800D01*
X+6343650Y+387350D01*
X+6267450Y+311150D01*
X+6267450Y+196850D01*
X+6318250Y+146050D01*
X+6203950Y+146050D01*
X+6254750Y+196850D01*
X+6254750Y+311150D01*
X+6178550Y+387350D01*
X+6178550Y+1358900D01*
X+6604000Y+266700D02*
X+6858000Y+520700D01*
X+6858000Y+698500D01*
X+6724650Y+565150D01*
X+6559550Y+565150D01*
X+6432550Y+692150D01*
X+6432550Y+387350D01*
X+6508750Y+311150D01*
X+6508750Y+196850D01*
X+6445250Y+133350D01*
X+6076950Y+133350D01*
X+6013450Y+196850D01*
X+6013450Y+203200D01*
X+5848350Y+38100D01*
X+6515100Y+38100D01*
X+6533277Y+39995D01*
X+6550087Y+45448D01*
X+6578302Y+65633D01*
X+6597141Y+95864D01*
X+6604000Y+133350D01*
X+6604000Y+266700D01*
X+6508750Y+5111750D02*
X+6604000Y+5016500D01*
X+6604000Y+4051300D01*
X+6858000Y+3797300D01*
X+6858000Y+3619500D01*
X+6724650Y+3752850D01*
X+6318250Y+3752850D01*
X+6432550Y+3867150D01*
X+6432550Y+4946650D01*
X+6508750Y+5022850D01*
X+6508750Y+5111750D01*
X+6540500Y+3740150D02*
X+6445250Y+3644900D01*
X+6445250Y+3473450D01*
X+6559550Y+3359150D01*
X+6724650Y+3359150D01*
X+6838950Y+3473450D01*
X+6838950Y+3613150D01*
X+6858000Y+3594100D01*
X+6858000Y+723900D01*
X+6838950Y+704850D01*
X+6838950Y+844550D01*
X+6724650Y+958850D01*
X+6559550Y+958850D01*
X+6445250Y+844550D01*
X+6445250Y+704850D01*
X+6432550Y+717550D01*
X+6432550Y+1231900D01*
X+5207000Y+2457450D01*
X+5207000Y+2647950D01*
X+6299200Y+3740150D01*
X+6540500Y+3740150D01*
X+1504950Y+5276850D02*
X+1644650Y+5276850D01*
X+1739900Y+5181600D01*
X+1835150Y+5276850D01*
X+4070350Y+5276850D01*
X+4146550Y+5200650D01*
X+6445250Y+5200650D01*
X+6604000Y+5041900D01*
X+6604000Y+5194300D01*
X+6502400Y+5295900D01*
X+1524000Y+5295900D01*
X+1504950Y+5276850D01*
X+5035550Y+349250D02*
X+5073650Y+387350D01*
X+5073650Y+1917700D01*
X+4864100Y+2127250D01*
X+4749800Y+2127250D01*
X+4730750Y+2108200D01*
X+4730750Y+2076450D01*
X+5035550Y+1771650D01*
X+5035550Y+349250D01*
X+5187950Y+146050D02*
X+5302250Y+146050D01*
X+5251450Y+196850D01*
X+5251450Y+311150D01*
X+5327650Y+387350D01*
X+5327650Y+1752600D01*
X+5162550Y+1917700D01*
X+5162550Y+387350D01*
X+5238750Y+311150D01*
X+5238750Y+196850D01*
X+5187950Y+146050D01*
X+5441950Y+146050D02*
X+5556250Y+146050D01*
X+5505450Y+196850D01*
X+5505450Y+311150D01*
X+5581650Y+387350D01*
X+5581650Y+1593850D01*
X+5416550Y+1758950D01*
X+5416550Y+387350D01*
X+5492750Y+311150D01*
X+5492750Y+196850D01*
X+5441950Y+146050D01*
X+5695950Y+146050D02*
X+5810250Y+146050D01*
X+5759450Y+196850D01*
X+5759450Y+311150D01*
X+5835650Y+387350D01*
X+5835650Y+1428750D01*
X+5670550Y+1593850D01*
X+5670550Y+387350D01*
X+5746750Y+311150D01*
X+5746750Y+196850D01*
X+5695950Y+146050D01*
X+3765550Y+4972050D02*
X+3879850Y+4972050D01*
X+3829050Y+5022850D01*
X+3829050Y+5137150D01*
X+3816350Y+5149850D01*
X+3803650Y+5149850D01*
X+3816350Y+5137150D01*
X+3816350Y+5022850D01*
X+3765550Y+4972050D01*
X+4032250Y+5187950D02*
X+4083050Y+5137150D01*
X+4083050Y+5022850D01*
X+4133850Y+4972050D01*
X+4019550Y+4972050D01*
X+4070350Y+5022850D01*
X+4070350Y+5137150D01*
X+4019550Y+5187950D01*
X+4032250Y+5187950D01*
X+4273550Y+5187950D02*
X+4540250Y+5187950D01*
X+4489450Y+5137150D01*
X+4489450Y+5022850D01*
X+4540250Y+4972050D01*
X+4273550Y+4972050D01*
X+4324350Y+5022850D01*
X+4324350Y+5137150D01*
X+4273550Y+5187950D01*
X+4679950Y+5187950D02*
X+4794250Y+5187950D01*
X+4743450Y+5137150D01*
X+4743450Y+5022850D01*
X+4794250Y+4972050D01*
X+4679950Y+4972050D01*
X+4730750Y+5022850D01*
X+4730750Y+5137150D01*
X+4679950Y+5187950D01*
X+3740150Y+4946650D02*
X+3752850Y+4959350D01*
X+4806950Y+4959350D01*
X+4819650Y+4946650D01*
X+4819650Y+2990850D01*
X+4794250Y+2965450D01*
X+4749800Y+2965450D01*
X+4730750Y+2984500D01*
X+4730750Y+3041650D01*
X+4768850Y+3079750D01*
X+4768850Y+3162300D01*
X+3740150Y+4191000D01*
X+3740150Y+4946650D01*
X+4933950Y+5187950D02*
X+5048250Y+5187950D01*
X+4997450Y+5137150D01*
X+4997450Y+5022850D01*
X+5073650Y+4946650D01*
X+5073650Y+3098800D01*
X+4927600Y+2952750D01*
X+4914900Y+2952750D01*
X+4908550Y+2959100D01*
X+4908550Y+4946650D01*
X+4984750Y+5022850D01*
X+4984750Y+5137150D01*
X+4933950Y+5187950D01*
X+5187950Y+5187950D02*
X+5302250Y+5187950D01*
X+5251450Y+5137150D01*
X+5251450Y+5022850D01*
X+5327650Y+4946650D01*
X+5327650Y+3257550D01*
X+5162550Y+3092450D01*
X+5162550Y+4946650D01*
X+5238750Y+5022850D01*
X+5238750Y+5137150D01*
X+5187950Y+5187950D01*
X+5441950Y+5187950D02*
X+5556250Y+5187950D01*
X+5505450Y+5137150D01*
X+5505450Y+5022850D01*
X+5581650Y+4946650D01*
X+5581650Y+3422650D01*
X+5416550Y+3257550D01*
X+5416550Y+4946650D01*
X+5492750Y+5022850D01*
X+5492750Y+5137150D01*
X+5441950Y+5187950D01*
X+5695950Y+5187950D02*
X+5810250Y+5187950D01*
X+5759450Y+5137150D01*
X+5759450Y+5022850D01*
X+5835650Y+4946650D01*
X+5835650Y+3581400D01*
X+5670550Y+3416300D01*
X+5670550Y+4946650D01*
X+5746750Y+5022850D01*
X+5746750Y+5137150D01*
X+5695950Y+5187950D01*
X+5949950Y+5187950D02*
X+6064250Y+5187950D01*
X+6013450Y+5137150D01*
X+6013450Y+5022850D01*
X+6089650Y+4946650D01*
X+6089650Y+3746500D01*
X+5924550Y+3581400D01*
X+5924550Y+4946650D01*
X+6000750Y+5022850D01*
X+6000750Y+5137150D01*
X+5949950Y+5187950D01*
X+6203950Y+5187950D02*
X+6318250Y+5187950D01*
X+6267450Y+5137150D01*
X+6267450Y+5022850D01*
X+6343650Y+4946650D01*
X+6343650Y+3905250D01*
X+6178550Y+3740150D01*
X+6178550Y+4946650D01*
X+6254750Y+5022850D01*
X+6254750Y+5137150D01*
X+6203950Y+5187950D01*
X+1682750Y+4794250D02*
X+1682750Y+4768850D01*
X+1708150Y+4743450D01*
X+2190750Y+4743450D01*
X+1974850Y+4959350D01*
X+1847850Y+4959350D01*
X+1682750Y+4794250D01*
X+2279650Y+5149850D02*
X+2317750Y+5149850D01*
X+2305050Y+5137150D01*
X+2305050Y+5022850D01*
X+2355850Y+4972050D01*
X+2241550Y+4972050D01*
X+2292350Y+5022850D01*
X+2292350Y+5137150D01*
X+2279650Y+5149850D01*
X+2533650Y+5149850D02*
X+2825750Y+5149850D01*
X+2813050Y+5137150D01*
X+2813050Y+5022850D01*
X+2857500Y+4978400D01*
X+2501900Y+4978400D01*
X+2546350Y+5022850D01*
X+2546350Y+5137150D01*
X+2533650Y+5149850D01*
X+2216150Y+4946650D02*
X+2228850Y+4959350D01*
X+2876550Y+4959350D01*
X+2889250Y+4946650D01*
X+2889250Y+4229100D01*
X+2216150Y+4902200D01*
X+2216150Y+4946650D01*
X+3041650Y+5149850D02*
X+3079750Y+5149850D01*
X+3067050Y+5137150D01*
X+3067050Y+5022850D01*
X+3143250Y+4946650D01*
X+3143250Y+4064000D01*
X+2978150Y+4229100D01*
X+2978150Y+4946650D01*
X+3054350Y+5022850D01*
X+3054350Y+5137150D01*
X+3041650Y+5149850D01*
X+3295650Y+5149850D02*
X+3333750Y+5149850D01*
X+3321050Y+5137150D01*
X+3321050Y+5022850D01*
X+3397250Y+4946650D01*
X+3397250Y+3905250D01*
X+3390900Y+3905250D01*
X+3232150Y+4064000D01*
X+3232150Y+4946650D01*
X+3308350Y+5022850D01*
X+3308350Y+5137150D01*
X+3295650Y+5149850D01*
X+4946650Y+374650D02*
X+2520950Y+374650D01*
X+2514600Y+381000D01*
X+2514600Y+2203450D01*
X+2432050Y+2286000D01*
X+2235200Y+2286000D01*
X+2228850Y+2292350D01*
X+2228850Y+2317750D01*
X+2235200Y+2324100D01*
X+4000500Y+2324100D01*
X+4343400Y+1981200D01*
X+4597400Y+1981200D01*
X+4648200Y+2032000D01*
X+4946650Y+1733550D01*
X+4946650Y+374650D01*
X+2451100Y+2438400D02*
X+2476500Y+2413000D01*
X+3962400Y+2413000D01*
X+3543300Y+2832100D01*
X+2476500Y+2832100D01*
X+2451100Y+2806700D01*
X+2451100Y+2438400D01*
D17*
X+4610100Y+5080000D03*
X+4864100Y+5080000D03*
X+5118100Y+5080000D03*
X+5372100Y+5080000D03*
X+5626100Y+5080000D03*
X+5880100Y+5080000D03*
X+6134100Y+5080000D03*
X+6388100Y+5080000D03*
X+1917700Y+5080000D03*
X+2171700Y+5080000D03*
X+2425700Y+5080000D03*
X+2679700Y+5080000D03*
X+2933700Y+5080000D03*
X+3187700Y+5080000D03*
X+3441700Y+5080000D03*
X+3695700Y+5080000D03*
X+3949700Y+5080000D03*
X+4203700Y+5080000D03*
D18*
X+4838840Y+2213289D03*
X+4884801Y+2259250D03*
X+4930763Y+2305212D03*
X+4976725Y+2351174D03*
X+5022687Y+2397136D03*
X+5068649Y+2443098D03*
X+5114611Y+2489060D03*
D19*
X+5114611Y+2616339D03*
X+5068649Y+2662301D03*
X+5022687Y+2708263D03*
X+4976725Y+2754225D03*
X+4930763Y+2800187D03*
X+4884801Y+2846149D03*
X+4838840Y+2892111D03*
D70*
X+4711560Y+2892111D03*
X+4665598Y+2846149D03*
X+4619636Y+2800187D03*
X+4573674Y+2754225D03*
X+4527713Y+2708263D03*
X+4481751Y+2662301D03*
X+4435789Y+2616339D03*
D71*
X+4435789Y+2489060D03*
X+4481751Y+2443098D03*
X+4527713Y+2397136D03*
X+4573674Y+2351174D03*
X+4619636Y+2305212D03*
X+4665598Y+2259250D03*
X+4711560Y+2213289D03*
D20*
X+4775200Y+2552700D03*
D17*
X+2324100Y+254000D03*
X+2578100Y+254000D03*
X+2832100Y+254000D03*
X+3086100Y+254000D03*
X+3340100Y+254000D03*
X+3594100Y+254000D03*
X+3848100Y+254000D03*
X+4102100Y+254000D03*
X+4356100Y+254000D03*
X+4610100Y+254000D03*
X+4864100Y+254000D03*
X+5118100Y+254000D03*
X+5372100Y+254000D03*
X+5626100Y+254000D03*
X+5880100Y+254000D03*
X+6134100Y+254000D03*
X+6388100Y+254000D03*
D21*
X+1891650Y+2485200D03*
X+1891650Y+2525200D03*
X+1891650Y+2565200D03*
X+1891650Y+2605200D03*
X+1891650Y+2645200D03*
X+1891650Y+2685200D03*
X+1891650Y+2725200D03*
D22*
X+1816650Y+2800200D03*
X+1776650Y+2800200D03*
X+1736650Y+2800200D03*
X+1696650Y+2800200D03*
X+1656650Y+2800200D03*
X+1616650Y+2800200D03*
X+1576650Y+2800200D03*
D21*
X+1501650Y+2725200D03*
X+1501650Y+2685200D03*
X+1501650Y+2645200D03*
X+1501650Y+2605200D03*
X+1501650Y+2565200D03*
X+1501650Y+2525200D03*
X+1501650Y+2485200D03*
D22*
X+1576650Y+2410200D03*
X+1616650Y+2410200D03*
X+1656650Y+2410200D03*
X+1696650Y+2410200D03*
X+1736650Y+2410200D03*
X+1776650Y+2410200D03*
X+1816650Y+2410200D03*
D23*
X+1696650Y+2605200D03*
D24*
X+1891650Y+2410200D03*
X+1891650Y+2800200D03*
X+1501650Y+2800200D03*
X+1501650Y+2410200D03*
D25*
X+501650Y+2682700D03*
X+501650Y+2617700D03*
X+501650Y+2552700D03*
X+501650Y+2487700D03*
X+501650Y+2422700D03*
D26*
X+241650Y+2157700D03*
D27*
X+486650Y+2217700D03*
X+486650Y+2887700D03*
D26*
X+241650Y+2947700D03*
D28*
X+889000Y+203200D03*
D29*
X+762000Y+203200D03*
X+635000Y+203200D03*
X+889000Y+330200D03*
X+762000Y+330200D03*
X+635000Y+330200D03*
D72*
X+1214050Y+1829500D03*
X+1214050Y+1779500D03*
X+1214050Y+1729500D03*
D73*
X+1389050Y+1729500D03*
X+1389050Y+1779500D03*
X+1389050Y+1829500D03*
D30*
X+1301550Y+1779500D03*
D31*
X+485700Y+3944650D03*
X+485700Y+4404650D03*
X+260700Y+4404650D03*
X+260700Y+3944650D03*
X+485700Y+4697500D03*
X+485700Y+5157500D03*
X+260700Y+5157500D03*
X+260700Y+4697500D03*
D32*
X+241650Y+1709450D03*
X+241650Y+1544450D03*
X+241650Y+598100D03*
X+241650Y+433100D03*
X+241650Y+1182300D03*
X+241650Y+1017300D03*
D33*
X+771650Y+2845200D03*
X+1191650Y+2845200D03*
D34*
X+693350Y+2002550D03*
X+693350Y+2162550D03*
D35*
X+953700Y+1862550D03*
X+953700Y+2162550D03*
D34*
X+1544250Y+1683800D03*
X+1544250Y+1843800D03*
X+1544250Y+2002550D03*
X+1544250Y+2162550D03*
D36*
X+4548274Y+2097174D03*
X+4433974Y+2211474D03*
X+4319674Y+2325774D03*
D37*
X+324200Y+3468400D03*
D38*
X+4460886Y+2984337D03*
X+4611754Y+3135205D03*
D39*
X+4352936Y+3130387D03*
X+4466073Y+3243525D03*
D34*
X+1529650Y+3265000D03*
X+1529650Y+3105000D03*
X+1694750Y+3265000D03*
X+1694750Y+3105000D03*
X+1709350Y+2162550D03*
X+1709350Y+2002550D03*
D40*
X+1872550Y+3105000D03*
X+1872550Y+3318360D03*
D34*
X+2050350Y+3105000D03*
X+2050350Y+3265000D03*
X+1015300Y+3105000D03*
X+1015300Y+3265000D03*
D40*
X+1193100Y+3105000D03*
X+1193100Y+3318360D03*
D41*
X+1210700Y+2419750D03*
X+1050700Y+2419750D03*
D34*
X+850200Y+3105000D03*
X+850200Y+3265000D03*
D41*
X+2369150Y+2793150D03*
X+2209150Y+2793150D03*
X+2369150Y+2462950D03*
X+2209150Y+2462950D03*
D34*
X+1874450Y+2002550D03*
X+1874450Y+2162550D03*
D41*
X+2369150Y+2628050D03*
X+2209150Y+2628050D03*
D34*
X+387700Y+1182300D03*
X+387700Y+1022300D03*
X+387700Y+1709450D03*
X+387700Y+1549450D03*
D42*
X+4042949Y+2792674D03*
X+4156086Y+2679537D03*
D34*
X+387700Y+598100D03*
X+387700Y+438100D03*
X+1214050Y+2002550D03*
X+1214050Y+2162550D03*
X+1379150Y+2002550D03*
X+1379150Y+2162550D03*
X+1709350Y+1683800D03*
X+1709350Y+1843800D03*
D40*
X+1887150Y+1630440D03*
X+1887150Y+1843800D03*
D35*
X+2160200Y+1685050D03*
X+2160200Y+1985050D03*
D43*
X+6800850Y+762000D02*
X+6800320Y+774958D01*
X+6796016Y+800876D01*
X+6787025Y+826794D01*
X+6772380Y+852712D01*
X+6749976Y+878466D01*
X+6724058Y+897958D01*
X+6698140Y+910530D01*
X+6672222Y+917866D01*
X+6646304Y+920694D01*
X+6642100Y+920750D01*
X+6483350Y+762000D02*
X+6483880Y+774958D01*
X+6488184Y+800876D01*
X+6497175Y+826794D01*
X+6511820Y+852712D01*
X+6534224Y+878466D01*
X+6560142Y+897958D01*
X+6586060Y+910530D01*
X+6611978Y+917866D01*
X+6637896Y+920694D01*
X+6642100Y+920750D01*
X+6483350Y+762000D02*
X+6483880Y+749042D01*
X+6488184Y+723124D01*
X+6497175Y+697206D01*
X+6511820Y+671288D01*
X+6534224Y+645534D01*
X+6560142Y+626042D01*
X+6586060Y+613470D01*
X+6611978Y+606134D01*
X+6637896Y+603306D01*
X+6642100Y+603250D01*
X+6800850Y+762000D02*
X+6800320Y+749042D01*
X+6796016Y+723124D01*
X+6787025Y+697206D01*
X+6772380Y+671288D01*
X+6749976Y+645534D01*
X+6724058Y+626042D01*
X+6698140Y+613470D01*
X+6672222Y+606134D01*
X+6646304Y+603306D01*
X+6642100Y+603250D01*
X+6800850Y+3556000D02*
X+6800320Y+3568958D01*
X+6796016Y+3594876D01*
X+6787025Y+3620794D01*
X+6772380Y+3646712D01*
X+6749976Y+3672466D01*
X+6724058Y+3691958D01*
X+6698140Y+3704530D01*
X+6672222Y+3711866D01*
X+6646304Y+3714694D01*
X+6642100Y+3714750D01*
X+6483350Y+3556000D02*
X+6483880Y+3568958D01*
X+6488184Y+3594876D01*
X+6497175Y+3620794D01*
X+6511820Y+3646712D01*
X+6534224Y+3672466D01*
X+6560142Y+3691958D01*
X+6586060Y+3704530D01*
X+6611978Y+3711866D01*
X+6637896Y+3714694D01*
X+6642100Y+3714750D01*
X+6483350Y+3556000D02*
X+6483880Y+3543042D01*
X+6488184Y+3517124D01*
X+6497175Y+3491206D01*
X+6511820Y+3465288D01*
X+6534224Y+3439534D01*
X+6560142Y+3420042D01*
X+6586060Y+3407470D01*
X+6611978Y+3400134D01*
X+6637896Y+3397306D01*
X+6642100Y+3397250D01*
X+6800850Y+3556000D02*
X+6800320Y+3543042D01*
X+6796016Y+3517124D01*
X+6787025Y+3491206D01*
X+6772380Y+3465288D01*
X+6749976Y+3439534D01*
X+6724058Y+3420042D01*
X+6698140Y+3407470D01*
X+6672222Y+3400134D01*
X+6646304Y+3397306D01*
X+6642100Y+3397250D01*
X+1720850Y+5080000D02*
X+1720320Y+5092958D01*
X+1716016Y+5118876D01*
X+1707025Y+5144794D01*
X+1692380Y+5170712D01*
X+1669976Y+5196466D01*
X+1644058Y+5215958D01*
X+1618140Y+5228530D01*
X+1592222Y+5235866D01*
X+1566304Y+5238694D01*
X+1562100Y+5238750D01*
X+1403350Y+5080000D02*
X+1403880Y+5092958D01*
X+1408184Y+5118876D01*
X+1417175Y+5144794D01*
X+1431820Y+5170712D01*
X+1454224Y+5196466D01*
X+1480142Y+5215958D01*
X+1506060Y+5228530D01*
X+1531978Y+5235866D01*
X+1557896Y+5238694D01*
X+1562100Y+5238750D01*
X+1403350Y+5080000D02*
X+1403880Y+5067042D01*
X+1408184Y+5041124D01*
X+1417175Y+5015206D01*
X+1431820Y+4989288D01*
X+1454224Y+4963534D01*
X+1480142Y+4944042D01*
X+1506060Y+4931470D01*
X+1531978Y+4924134D01*
X+1557896Y+4921306D01*
X+1562100Y+4921250D01*
X+1720850Y+5080000D02*
X+1720320Y+5067042D01*
X+1716016Y+5041124D01*
X+1707025Y+5015206D01*
X+1692380Y+4989288D01*
X+1669976Y+4963534D01*
X+1644058Y+4944042D01*
X+1618140Y+4931470D01*
X+1592222Y+4924134D01*
X+1566304Y+4921306D01*
X+1562100Y+4921250D01*
X+1720850Y+254000D02*
X+1720320Y+266958D01*
X+1716016Y+292876D01*
X+1707025Y+318794D01*
X+1692380Y+344712D01*
X+1669976Y+370466D01*
X+1644058Y+389958D01*
X+1618140Y+402530D01*
X+1592222Y+409866D01*
X+1566304Y+412694D01*
X+1562100Y+412750D01*
X+1403350Y+254000D02*
X+1403880Y+266958D01*
X+1408184Y+292876D01*
X+1417175Y+318794D01*
X+1431820Y+344712D01*
X+1454224Y+370466D01*
X+1480142Y+389958D01*
X+1506060Y+402530D01*
X+1531978Y+409866D01*
X+1557896Y+412694D01*
X+1562100Y+412750D01*
X+1403350Y+254000D02*
X+1403880Y+241042D01*
X+1408184Y+215124D01*
X+1417175Y+189206D01*
X+1431820Y+163288D01*
X+1454224Y+137534D01*
X+1480142Y+118042D01*
X+1506060Y+105470D01*
X+1531978Y+98134D01*
X+1557896Y+95306D01*
X+1562100Y+95250D01*
X+1720850Y+254000D02*
X+1720320Y+241042D01*
X+1716016Y+215124D01*
X+1707025Y+189206D01*
X+1692380Y+163288D01*
X+1669976Y+137534D01*
X+1644058Y+118042D01*
X+1618140Y+105470D01*
X+1592222Y+98134D01*
X+1566304Y+95306D01*
X+1562100Y+95250D01*
X+127000Y+0D02*
X+101032Y+2527D01*
X+77018Y+9798D01*
X+55423Y+21347D01*
X+36711Y+36711D01*
X+21348Y+55423D01*
X+9798Y+77018D01*
X+2527Y+101032D01*
X+0Y+127000D01*
X+0Y+5207000D01*
X+2527Y+5232967D01*
X+9798Y+5256981D01*
X+21348Y+5278577D01*
X+36711Y+5297289D01*
X+55423Y+5312652D01*
X+77018Y+5324202D01*
X+101032Y+5331473D01*
X+127000Y+5334000D01*
X+6515100Y+5334000D01*
X+6642100Y+5207000D01*
X+6642100Y+4064000D01*
X+6896100Y+3810000D01*
X+6896100Y+508000D01*
X+6642100Y+254000D01*
X+6642100Y+127000D01*
X+6639573Y+101032D01*
X+6632302Y+77018D01*
X+6620752Y+55423D01*
X+6605389Y+36711D01*
X+6586677Y+21347D01*
X+6565081Y+9798D01*
X+6541067Y+2527D01*
X+6515100Y+0D01*
X+127000Y+0D01*
X+486650Y+2352700D02*
X+486547Y+2355189D01*
X+485705Y+2360169D01*
X+483945Y+2365149D01*
X+481068Y+2370129D01*
X+476667Y+2375045D01*
X+471687Y+2378659D01*
X+466707Y+2380964D01*
X+461727Y+2382267D01*
X+456747Y+2382700D01*
X+456650Y+2382700D01*
X+426650Y+2352700D02*
X+426753Y+2355189D01*
X+427595Y+2360169D01*
X+429355Y+2365149D01*
X+432232Y+2370129D01*
X+436633Y+2375045D01*
X+441613Y+2378659D01*
X+446593Y+2380964D01*
X+451573Y+2382267D01*
X+456553Y+2382700D01*
X+456650Y+2382700D01*
X+426650Y+2352700D02*
X+426753Y+2350211D01*
X+427595Y+2345231D01*
X+429355Y+2340251D01*
X+432232Y+2335271D01*
X+436633Y+2330355D01*
X+441613Y+2326741D01*
X+446593Y+2324436D01*
X+451573Y+2323133D01*
X+456553Y+2322700D01*
X+456650Y+2322700D01*
X+486650Y+2352700D02*
X+486547Y+2350211D01*
X+485705Y+2345231D01*
X+483945Y+2340251D01*
X+481068Y+2335271D01*
X+476667Y+2330355D01*
X+471687Y+2326741D01*
X+466707Y+2324436D01*
X+461727Y+2323133D01*
X+456747Y+2322700D01*
X+456650Y+2322700D01*
X+486650Y+2752700D02*
X+486547Y+2755189D01*
X+485705Y+2760169D01*
X+483945Y+2765149D01*
X+481068Y+2770129D01*
X+476667Y+2775045D01*
X+471687Y+2778659D01*
X+466707Y+2780964D01*
X+461727Y+2782267D01*
X+456747Y+2782700D01*
X+456650Y+2782700D01*
X+426650Y+2752700D02*
X+426753Y+2755189D01*
X+427595Y+2760169D01*
X+429355Y+2765149D01*
X+432232Y+2770129D01*
X+436633Y+2775045D01*
X+441613Y+2778659D01*
X+446593Y+2780964D01*
X+451573Y+2782267D01*
X+456553Y+2782700D01*
X+456650Y+2782700D01*
X+426650Y+2752700D02*
X+426753Y+2750211D01*
X+427595Y+2745231D01*
X+429355Y+2740251D01*
X+432232Y+2735271D01*
X+436633Y+2730355D01*
X+441613Y+2726741D01*
X+446593Y+2724436D01*
X+451573Y+2723133D01*
X+456553Y+2722700D01*
X+456650Y+2722700D01*
X+486650Y+2752700D02*
X+486547Y+2750211D01*
X+485705Y+2745231D01*
X+483945Y+2740251D01*
X+481068Y+2735271D01*
X+476667Y+2730355D01*
X+471687Y+2726741D01*
X+466707Y+2724436D01*
X+461727Y+2723133D01*
X+456747Y+2722700D01*
X+456650Y+2722700D01*
M02*
