G04 PROTEUS RS274X GERBER FILE*
%FSLAX45Y45*%
%MOMM*%
G01*
%ADD45C,0.152400*%
%ADD43C,0.025400*%
%ADD108C,0.127000*%
%ADD109C,0.063500*%
D45*
X+1404550Y+2397500D02*
X+1404550Y+2270500D01*
X+1341050Y+2334000D02*
X+1468050Y+2334000D01*
X+1359649Y+2378901D02*
X+1449451Y+2289099D01*
X+1359649Y+2289099D02*
X+1449451Y+2378901D01*
X+1050700Y+2483250D02*
X+1050700Y+2356250D01*
X+987200Y+2419750D02*
X+1114200Y+2419750D01*
X+1005799Y+2464651D02*
X+1095601Y+2374849D01*
X+1005799Y+2374849D02*
X+1095601Y+2464651D01*
X+1191650Y+2819800D02*
X+1191650Y+2692800D01*
X+1128150Y+2756300D02*
X+1255150Y+2756300D01*
X+1146749Y+2801201D02*
X+1236551Y+2711399D01*
X+1146749Y+2711399D02*
X+1236551Y+2801201D01*
X+1529650Y+3328500D02*
X+1529650Y+3201500D01*
X+1466150Y+3265000D02*
X+1593150Y+3265000D01*
X+1484749Y+3309901D02*
X+1574551Y+3220099D01*
X+1484749Y+3220099D02*
X+1574551Y+3309901D01*
X+1191650Y+2908700D02*
X+1191650Y+2781700D01*
X+1128150Y+2845200D02*
X+1255150Y+2845200D01*
X+1146749Y+2890101D02*
X+1236551Y+2800299D01*
X+1146749Y+2800299D02*
X+1236551Y+2890101D01*
X+1191650Y+2997600D02*
X+1191650Y+2870600D01*
X+1128150Y+2934100D02*
X+1255150Y+2934100D01*
X+1146749Y+2979001D02*
X+1236551Y+2889199D01*
X+1146749Y+2889199D02*
X+1236551Y+2979001D01*
X+1102750Y+2908700D02*
X+1102750Y+2781700D01*
X+1039250Y+2845200D02*
X+1166250Y+2845200D01*
X+1057849Y+2890101D02*
X+1147651Y+2800299D01*
X+1057849Y+2800299D02*
X+1147651Y+2890101D01*
X+1320800Y+3505200D02*
X+1320800Y+3378200D01*
X+1257300Y+3441700D02*
X+1384300Y+3441700D01*
X+1275899Y+3486601D02*
X+1365701Y+3396799D01*
X+1275899Y+3396799D02*
X+1365701Y+3486601D01*
X+1696650Y+3060550D02*
X+1696650Y+2933550D01*
X+1633150Y+2997050D02*
X+1760150Y+2997050D01*
X+1651749Y+3041951D02*
X+1741551Y+2952149D01*
X+1651749Y+2952149D02*
X+1741551Y+3041951D01*
X+1849050Y+3016100D02*
X+1849050Y+2889100D01*
X+1785550Y+2952600D02*
X+1912550Y+2952600D01*
X+1804149Y+2997501D02*
X+1893951Y+2907699D01*
X+1804149Y+2907699D02*
X+1893951Y+2997501D01*
X+1694750Y+3328500D02*
X+1694750Y+3201500D01*
X+1631250Y+3265000D02*
X+1758250Y+3265000D01*
X+1649849Y+3309901D02*
X+1739651Y+3220099D01*
X+1649849Y+3220099D02*
X+1739651Y+3309901D01*
X+1193100Y+3381860D02*
X+1193100Y+3254860D01*
X+1129600Y+3318360D02*
X+1256600Y+3318360D01*
X+1148199Y+3363261D02*
X+1238001Y+3273459D01*
X+1148199Y+3273459D02*
X+1238001Y+3363261D01*
X+485700Y+4761000D02*
X+485700Y+4634000D01*
X+422200Y+4697500D02*
X+549200Y+4697500D01*
X+440799Y+4742401D02*
X+530601Y+4652599D01*
X+440799Y+4652599D02*
X+530601Y+4742401D01*
X+1654100Y+4761000D02*
X+1654100Y+4634000D01*
X+1590600Y+4697500D02*
X+1717600Y+4697500D01*
X+1609199Y+4742401D02*
X+1699001Y+4652599D01*
X+1609199Y+4652599D02*
X+1699001Y+4742401D01*
X+1355600Y+2478850D02*
X+1355600Y+2351850D01*
X+1292100Y+2415350D02*
X+1419100Y+2415350D01*
X+1310699Y+2460251D02*
X+1400501Y+2370449D01*
X+1310699Y+2370449D02*
X+1400501Y+2460251D01*
X+387700Y+1612950D02*
X+387700Y+1485950D01*
X+324200Y+1549450D02*
X+451200Y+1549450D01*
X+342799Y+1594351D02*
X+432601Y+1504549D01*
X+342799Y+1504549D02*
X+432601Y+1594351D01*
X+1334700Y+2334000D02*
X+1334700Y+2207000D01*
X+1271200Y+2270500D02*
X+1398200Y+2270500D01*
X+1289799Y+2315401D02*
X+1379601Y+2225599D01*
X+1289799Y+2225599D02*
X+1379601Y+2315401D01*
X+2050350Y+3168500D02*
X+2050350Y+3041500D01*
X+1986850Y+3105000D02*
X+2113850Y+3105000D01*
X+2005449Y+3149901D02*
X+2095251Y+3060099D01*
X+2005449Y+3060099D02*
X+2095251Y+3149901D01*
X+1874450Y+2226050D02*
X+1874450Y+2099050D01*
X+1810950Y+2162550D02*
X+1937950Y+2162550D01*
X+1829549Y+2207451D02*
X+1919351Y+2117649D01*
X+1829549Y+2117649D02*
X+1919351Y+2207451D01*
X+1694750Y+3498700D02*
X+1694750Y+3371700D01*
X+1631250Y+3435200D02*
X+1758250Y+3435200D01*
X+1649849Y+3480101D02*
X+1739651Y+3390299D01*
X+1649849Y+3390299D02*
X+1739651Y+3480101D01*
X+1210700Y+2483250D02*
X+1210700Y+2356250D01*
X+1147200Y+2419750D02*
X+1274200Y+2419750D01*
X+1165799Y+2464651D02*
X+1255601Y+2374849D01*
X+1165799Y+2374849D02*
X+1255601Y+2464651D01*
X+1709350Y+2226050D02*
X+1709350Y+2099050D01*
X+1645850Y+2162550D02*
X+1772850Y+2162550D01*
X+1664449Y+2207451D02*
X+1754251Y+2117649D01*
X+1664449Y+2117649D02*
X+1754251Y+2207451D01*
X+4352936Y+3193887D02*
X+4352936Y+3066887D01*
X+4289436Y+3130387D02*
X+4416436Y+3130387D01*
X+4308035Y+3175288D02*
X+4397837Y+3085486D01*
X+4308035Y+3085486D02*
X+4397837Y+3175288D01*
X+2369150Y+2202600D02*
X+2369150Y+2075600D01*
X+2305650Y+2139100D02*
X+2432650Y+2139100D01*
X+2324249Y+2184001D02*
X+2414051Y+2094199D01*
X+2324249Y+2094199D02*
X+2414051Y+2184001D01*
X+4775200Y+2616200D02*
X+4775200Y+2489200D01*
X+4711700Y+2552700D02*
X+4838700Y+2552700D01*
X+4730299Y+2597601D02*
X+4820101Y+2507799D01*
X+4730299Y+2507799D02*
X+4820101Y+2597601D01*
X+693350Y+2066050D02*
X+693350Y+1939050D01*
X+629850Y+2002550D02*
X+756850Y+2002550D01*
X+648449Y+2047451D02*
X+738251Y+1957649D01*
X+648449Y+1957649D02*
X+738251Y+2047451D01*
X+324200Y+3531900D02*
X+324200Y+3404900D01*
X+260700Y+3468400D02*
X+387700Y+3468400D01*
X+279299Y+3513301D02*
X+369101Y+3423499D01*
X+279299Y+3423499D02*
X+369101Y+3513301D01*
X+387700Y+1085800D02*
X+387700Y+958800D01*
X+324200Y+1022300D02*
X+451200Y+1022300D01*
X+342799Y+1067201D02*
X+432601Y+977399D01*
X+342799Y+977399D02*
X+432601Y+1067201D01*
X+566350Y+2066050D02*
X+566350Y+1939050D01*
X+502850Y+2002550D02*
X+629850Y+2002550D01*
X+521449Y+2047451D02*
X+611251Y+1957649D01*
X+521449Y+1957649D02*
X+611251Y+2047451D01*
X+693350Y+1939050D02*
X+693350Y+1812050D01*
X+629850Y+1875550D02*
X+756850Y+1875550D01*
X+648449Y+1920451D02*
X+738251Y+1830649D01*
X+648449Y+1830649D02*
X+738251Y+1920451D01*
X+996950Y+374650D02*
X+996950Y+247650D01*
X+933450Y+311150D02*
X+1060450Y+311150D01*
X+952049Y+356051D02*
X+1041851Y+266249D01*
X+952049Y+266249D02*
X+1041851Y+356051D01*
X+996950Y+698500D02*
X+996950Y+571500D01*
X+933450Y+635000D02*
X+1060450Y+635000D01*
X+952049Y+679901D02*
X+1041851Y+590099D01*
X+952049Y+590099D02*
X+1041851Y+679901D01*
X+2369150Y+2113700D02*
X+2369150Y+1986700D01*
X+2305650Y+2050200D02*
X+2432650Y+2050200D01*
X+2324249Y+2095101D02*
X+2414051Y+2005299D01*
X+2324249Y+2005299D02*
X+2414051Y+2095101D01*
X+2369150Y+2024800D02*
X+2369150Y+1897800D01*
X+2305650Y+1961300D02*
X+2432650Y+1961300D01*
X+2324249Y+2006201D02*
X+2414051Y+1916399D01*
X+2324249Y+1916399D02*
X+2414051Y+2006201D01*
X+1696650Y+2668700D02*
X+1696650Y+2541700D01*
X+1633150Y+2605200D02*
X+1760150Y+2605200D01*
X+1651749Y+2650101D02*
X+1741551Y+2560299D01*
X+1651749Y+2560299D02*
X+1741551Y+2650101D01*
X+4584700Y+2616200D02*
X+4584700Y+2489200D01*
X+4521200Y+2552700D02*
X+4648200Y+2552700D01*
X+4539799Y+2597601D02*
X+4629601Y+2507799D01*
X+4539799Y+2507799D02*
X+4629601Y+2597601D01*
X+4965700Y+2616200D02*
X+4965700Y+2489200D01*
X+4902200Y+2552700D02*
X+5029200Y+2552700D01*
X+4920799Y+2597601D02*
X+5010601Y+2507799D01*
X+4920799Y+2507799D02*
X+5010601Y+2597601D01*
X+4775200Y+2425700D02*
X+4775200Y+2298700D01*
X+4711700Y+2362200D02*
X+4838700Y+2362200D01*
X+4730299Y+2407101D02*
X+4820101Y+2317299D01*
X+4730299Y+2317299D02*
X+4820101Y+2407101D01*
X+4775200Y+2806700D02*
X+4775200Y+2679700D01*
X+4711700Y+2743200D02*
X+4838700Y+2743200D01*
X+4730299Y+2788101D02*
X+4820101Y+2698299D01*
X+4730299Y+2698299D02*
X+4820101Y+2788101D01*
X+4775200Y+2171700D02*
X+4775200Y+2044700D01*
X+4711700Y+2108200D02*
X+4838700Y+2108200D01*
X+4730299Y+2153101D02*
X+4820101Y+2063299D01*
X+4730299Y+2063299D02*
X+4820101Y+2153101D01*
X+1917700Y+4991100D02*
X+1917700Y+4864100D01*
X+1854200Y+4927600D02*
X+1981200Y+4927600D01*
X+1872799Y+4972501D02*
X+1962601Y+4882699D01*
X+1872799Y+4882699D02*
X+1962601Y+4972501D01*
X+3314700Y+4991100D02*
X+3314700Y+4864100D01*
X+3251200Y+4927600D02*
X+3378200Y+4927600D01*
X+3269799Y+4972501D02*
X+3359601Y+4882699D01*
X+3269799Y+4882699D02*
X+3359601Y+4972501D01*
X+3822700Y+4991100D02*
X+3822700Y+4864100D01*
X+3759200Y+4927600D02*
X+3886200Y+4927600D01*
X+3777799Y+4972501D02*
X+3867601Y+4882699D01*
X+3777799Y+4882699D02*
X+3867601Y+4972501D01*
X+3822700Y+4483100D02*
X+3822700Y+4356100D01*
X+3759200Y+4419600D02*
X+3886200Y+4419600D01*
X+3777799Y+4464501D02*
X+3867601Y+4374699D01*
X+3777799Y+4374699D02*
X+3867601Y+4464501D01*
X+4076700Y+4737100D02*
X+4076700Y+4610100D01*
X+4013200Y+4673600D02*
X+4140200Y+4673600D01*
X+4031799Y+4718501D02*
X+4121601Y+4628699D01*
X+4031799Y+4628699D02*
X+4121601Y+4718501D01*
X+4330700Y+4483100D02*
X+4330700Y+4356100D01*
X+4267200Y+4419600D02*
X+4394200Y+4419600D01*
X+4285799Y+4464501D02*
X+4375601Y+4374699D01*
X+4285799Y+4374699D02*
X+4375601Y+4464501D01*
X+4584700Y+4737100D02*
X+4584700Y+4610100D01*
X+4521200Y+4673600D02*
X+4648200Y+4673600D01*
X+4539799Y+4718501D02*
X+4629601Y+4628699D01*
X+4539799Y+4628699D02*
X+4629601Y+4718501D01*
X+4584700Y+4229100D02*
X+4584700Y+4102100D01*
X+4521200Y+4165600D02*
X+4648200Y+4165600D01*
X+4539799Y+4210501D02*
X+4629601Y+4120699D01*
X+4539799Y+4120699D02*
X+4629601Y+4210501D01*
X+4330700Y+3975100D02*
X+4330700Y+3848100D01*
X+4267200Y+3911600D02*
X+4394200Y+3911600D01*
X+4285799Y+3956501D02*
X+4375601Y+3866699D01*
X+4285799Y+3866699D02*
X+4375601Y+3956501D01*
X+4076700Y+4229100D02*
X+4076700Y+4102100D01*
X+4013200Y+4165600D02*
X+4140200Y+4165600D01*
X+4031799Y+4210501D02*
X+4121601Y+4120699D01*
X+4031799Y+4120699D02*
X+4121601Y+4210501D01*
X+4584700Y+3721100D02*
X+4584700Y+3594100D01*
X+4521200Y+3657600D02*
X+4648200Y+3657600D01*
X+4539799Y+3702501D02*
X+4629601Y+3612699D01*
X+4539799Y+3612699D02*
X+4629601Y+3702501D01*
X+4991100Y+4991100D02*
X+4991100Y+4864100D01*
X+4927600Y+4927600D02*
X+5054600Y+4927600D01*
X+4946199Y+4972501D02*
X+5036001Y+4882699D01*
X+4946199Y+4882699D02*
X+5036001Y+4972501D01*
X+4991100Y+4483100D02*
X+4991100Y+4356100D01*
X+4927600Y+4419600D02*
X+5054600Y+4419600D01*
X+4946199Y+4464501D02*
X+5036001Y+4374699D01*
X+4946199Y+4374699D02*
X+5036001Y+4464501D01*
X+4991100Y+3975100D02*
X+4991100Y+3848100D01*
X+4927600Y+3911600D02*
X+5054600Y+3911600D01*
X+4946199Y+3956501D02*
X+5036001Y+3866699D01*
X+4946199Y+3866699D02*
X+5036001Y+3956501D01*
X+4991100Y+3467100D02*
X+4991100Y+3340100D01*
X+4927600Y+3403600D02*
X+5054600Y+3403600D01*
X+4946199Y+3448501D02*
X+5036001Y+3358699D01*
X+4946199Y+3358699D02*
X+5036001Y+3448501D01*
X+5245100Y+4737100D02*
X+5245100Y+4610100D01*
X+5181600Y+4673600D02*
X+5308600Y+4673600D01*
X+5200199Y+4718501D02*
X+5290001Y+4628699D01*
X+5200199Y+4628699D02*
X+5290001Y+4718501D01*
X+5245100Y+4229100D02*
X+5245100Y+4102100D01*
X+5181600Y+4165600D02*
X+5308600Y+4165600D01*
X+5200199Y+4210501D02*
X+5290001Y+4120699D01*
X+5200199Y+4120699D02*
X+5290001Y+4210501D01*
X+5245100Y+3721100D02*
X+5245100Y+3594100D01*
X+5181600Y+3657600D02*
X+5308600Y+3657600D01*
X+5200199Y+3702501D02*
X+5290001Y+3612699D01*
X+5200199Y+3612699D02*
X+5290001Y+3702501D01*
X+5499100Y+4991100D02*
X+5499100Y+4864100D01*
X+5435600Y+4927600D02*
X+5562600Y+4927600D01*
X+5454199Y+4972501D02*
X+5544001Y+4882699D01*
X+5454199Y+4882699D02*
X+5544001Y+4972501D01*
X+5499100Y+4483100D02*
X+5499100Y+4356100D01*
X+5435600Y+4419600D02*
X+5562600Y+4419600D01*
X+5454199Y+4464501D02*
X+5544001Y+4374699D01*
X+5454199Y+4374699D02*
X+5544001Y+4464501D01*
X+5499100Y+3975100D02*
X+5499100Y+3848100D01*
X+5435600Y+3911600D02*
X+5562600Y+3911600D01*
X+5454199Y+3956501D02*
X+5544001Y+3866699D01*
X+5454199Y+3866699D02*
X+5544001Y+3956501D01*
X+5499100Y+3467100D02*
X+5499100Y+3340100D01*
X+5435600Y+3403600D02*
X+5562600Y+3403600D01*
X+5454199Y+3448501D02*
X+5544001Y+3358699D01*
X+5454199Y+3358699D02*
X+5544001Y+3448501D01*
X+5753100Y+4737100D02*
X+5753100Y+4610100D01*
X+5689600Y+4673600D02*
X+5816600Y+4673600D01*
X+5708199Y+4718501D02*
X+5798001Y+4628699D01*
X+5708199Y+4628699D02*
X+5798001Y+4718501D01*
X+5753100Y+4229100D02*
X+5753100Y+4102100D01*
X+5689600Y+4165600D02*
X+5816600Y+4165600D01*
X+5708199Y+4210501D02*
X+5798001Y+4120699D01*
X+5708199Y+4120699D02*
X+5798001Y+4210501D01*
X+5753100Y+3721100D02*
X+5753100Y+3594100D01*
X+5689600Y+3657600D02*
X+5816600Y+3657600D01*
X+5708199Y+3702501D02*
X+5798001Y+3612699D01*
X+5708199Y+3612699D02*
X+5798001Y+3702501D01*
X+6007100Y+4991100D02*
X+6007100Y+4864100D01*
X+5943600Y+4927600D02*
X+6070600Y+4927600D01*
X+5962199Y+4972501D02*
X+6052001Y+4882699D01*
X+5962199Y+4882699D02*
X+6052001Y+4972501D01*
X+6007100Y+4483100D02*
X+6007100Y+4356100D01*
X+5943600Y+4419600D02*
X+6070600Y+4419600D01*
X+5962199Y+4464501D02*
X+6052001Y+4374699D01*
X+5962199Y+4374699D02*
X+6052001Y+4464501D01*
X+6007100Y+3975100D02*
X+6007100Y+3848100D01*
X+5943600Y+3911600D02*
X+6070600Y+3911600D01*
X+5962199Y+3956501D02*
X+6052001Y+3866699D01*
X+5962199Y+3866699D02*
X+6052001Y+3956501D01*
X+6261100Y+4737100D02*
X+6261100Y+4610100D01*
X+6197600Y+4673600D02*
X+6324600Y+4673600D01*
X+6216199Y+4718501D02*
X+6306001Y+4628699D01*
X+6216199Y+4628699D02*
X+6306001Y+4718501D01*
X+6261100Y+4229100D02*
X+6261100Y+4102100D01*
X+6197600Y+4165600D02*
X+6324600Y+4165600D01*
X+6216199Y+4210501D02*
X+6306001Y+4120699D01*
X+6216199Y+4120699D02*
X+6306001Y+4210501D01*
X+6515100Y+4991100D02*
X+6515100Y+4864100D01*
X+6451600Y+4927600D02*
X+6578600Y+4927600D01*
X+6470199Y+4972501D02*
X+6560001Y+4882699D01*
X+6470199Y+4882699D02*
X+6560001Y+4972501D01*
X+6515100Y+4483100D02*
X+6515100Y+4356100D01*
X+6451600Y+4419600D02*
X+6578600Y+4419600D01*
X+6470199Y+4464501D02*
X+6560001Y+4374699D01*
X+6470199Y+4374699D02*
X+6560001Y+4464501D01*
X+6515100Y+3975100D02*
X+6515100Y+3848100D01*
X+6451600Y+3911600D02*
X+6578600Y+3911600D01*
X+6470199Y+3956501D02*
X+6560001Y+3866699D01*
X+6470199Y+3866699D02*
X+6560001Y+3956501D01*
X+6261100Y+3721100D02*
X+6261100Y+3594100D01*
X+6197600Y+3657600D02*
X+6324600Y+3657600D01*
X+6216199Y+3702501D02*
X+6306001Y+3612699D01*
X+6216199Y+3612699D02*
X+6306001Y+3702501D01*
X+6261100Y+3213100D02*
X+6261100Y+3086100D01*
X+6197600Y+3149600D02*
X+6324600Y+3149600D01*
X+6216199Y+3194501D02*
X+6306001Y+3104699D01*
X+6216199Y+3104699D02*
X+6306001Y+3194501D01*
X+6769100Y+3213100D02*
X+6769100Y+3086100D01*
X+6705600Y+3149600D02*
X+6832600Y+3149600D01*
X+6724199Y+3194501D02*
X+6814001Y+3104699D01*
X+6724199Y+3104699D02*
X+6814001Y+3194501D01*
X+6769100Y+2705100D02*
X+6769100Y+2578100D01*
X+6705600Y+2641600D02*
X+6832600Y+2641600D01*
X+6724199Y+2686501D02*
X+6814001Y+2596699D01*
X+6724199Y+2596699D02*
X+6814001Y+2686501D01*
X+6769100Y+2197100D02*
X+6769100Y+2070100D01*
X+6705600Y+2133600D02*
X+6832600Y+2133600D01*
X+6724199Y+2178501D02*
X+6814001Y+2088699D01*
X+6724199Y+2088699D02*
X+6814001Y+2178501D01*
X+6769100Y+1689100D02*
X+6769100Y+1562100D01*
X+6705600Y+1625600D02*
X+6832600Y+1625600D01*
X+6724199Y+1670501D02*
X+6814001Y+1580699D01*
X+6724199Y+1580699D02*
X+6814001Y+1670501D01*
X+6769100Y+1181100D02*
X+6769100Y+1054100D01*
X+6705600Y+1117600D02*
X+6832600Y+1117600D01*
X+6724199Y+1162501D02*
X+6814001Y+1072699D01*
X+6724199Y+1072699D02*
X+6814001Y+1162501D01*
X+6515100Y+1435100D02*
X+6515100Y+1308100D01*
X+6451600Y+1371600D02*
X+6578600Y+1371600D01*
X+6470199Y+1416501D02*
X+6560001Y+1326699D01*
X+6470199Y+1326699D02*
X+6560001Y+1416501D01*
X+6515100Y+1943100D02*
X+6515100Y+1816100D01*
X+6451600Y+1879600D02*
X+6578600Y+1879600D01*
X+6470199Y+1924501D02*
X+6560001Y+1834699D01*
X+6470199Y+1834699D02*
X+6560001Y+1924501D01*
X+6515100Y+2451100D02*
X+6515100Y+2324100D01*
X+6451600Y+2387600D02*
X+6578600Y+2387600D01*
X+6470199Y+2432501D02*
X+6560001Y+2342699D01*
X+6470199Y+2342699D02*
X+6560001Y+2432501D01*
X+6515100Y+2959100D02*
X+6515100Y+2832100D01*
X+6451600Y+2895600D02*
X+6578600Y+2895600D01*
X+6470199Y+2940501D02*
X+6560001Y+2850699D01*
X+6470199Y+2850699D02*
X+6560001Y+2940501D01*
X+6261100Y+2705100D02*
X+6261100Y+2578100D01*
X+6197600Y+2641600D02*
X+6324600Y+2641600D01*
X+6216199Y+2686501D02*
X+6306001Y+2596699D01*
X+6216199Y+2596699D02*
X+6306001Y+2686501D01*
X+6261100Y+2197100D02*
X+6261100Y+2070100D01*
X+6197600Y+2133600D02*
X+6324600Y+2133600D01*
X+6216199Y+2178501D02*
X+6306001Y+2088699D01*
X+6216199Y+2088699D02*
X+6306001Y+2178501D01*
X+6261100Y+1689100D02*
X+6261100Y+1562100D01*
X+6197600Y+1625600D02*
X+6324600Y+1625600D01*
X+6216199Y+1670501D02*
X+6306001Y+1580699D01*
X+6216199Y+1580699D02*
X+6306001Y+1670501D01*
X+6007100Y+1943100D02*
X+6007100Y+1816100D01*
X+5943600Y+1879600D02*
X+6070600Y+1879600D01*
X+5962199Y+1924501D02*
X+6052001Y+1834699D01*
X+5962199Y+1834699D02*
X+6052001Y+1924501D01*
X+5753100Y+2197100D02*
X+5753100Y+2070100D01*
X+5689600Y+2133600D02*
X+5816600Y+2133600D01*
X+5708199Y+2178501D02*
X+5798001Y+2088699D01*
X+5708199Y+2088699D02*
X+5798001Y+2178501D01*
X+5499100Y+2451100D02*
X+5499100Y+2324100D01*
X+5435600Y+2387600D02*
X+5562600Y+2387600D01*
X+5454199Y+2432501D02*
X+5544001Y+2342699D01*
X+5454199Y+2342699D02*
X+5544001Y+2432501D01*
X+5245100Y+2705100D02*
X+5245100Y+2578100D01*
X+5181600Y+2641600D02*
X+5308600Y+2641600D01*
X+5200199Y+2686501D02*
X+5290001Y+2596699D01*
X+5200199Y+2596699D02*
X+5290001Y+2686501D01*
X+5499100Y+2959100D02*
X+5499100Y+2832100D01*
X+5435600Y+2895600D02*
X+5562600Y+2895600D01*
X+5454199Y+2940501D02*
X+5544001Y+2850699D01*
X+5454199Y+2850699D02*
X+5544001Y+2940501D01*
X+5753100Y+3213100D02*
X+5753100Y+3086100D01*
X+5689600Y+3149600D02*
X+5816600Y+3149600D01*
X+5708199Y+3194501D02*
X+5798001Y+3104699D01*
X+5708199Y+3104699D02*
X+5798001Y+3194501D01*
X+6007100Y+3467100D02*
X+6007100Y+3340100D01*
X+5943600Y+3403600D02*
X+6070600Y+3403600D01*
X+5962199Y+3448501D02*
X+6052001Y+3358699D01*
X+5962199Y+3358699D02*
X+6052001Y+3448501D01*
X+6007100Y+2959100D02*
X+6007100Y+2832100D01*
X+5943600Y+2895600D02*
X+6070600Y+2895600D01*
X+5962199Y+2940501D02*
X+6052001Y+2850699D01*
X+5962199Y+2850699D02*
X+6052001Y+2940501D01*
X+6007100Y+2451100D02*
X+6007100Y+2324100D01*
X+5943600Y+2387600D02*
X+6070600Y+2387600D01*
X+5962199Y+2432501D02*
X+6052001Y+2342699D01*
X+5962199Y+2342699D02*
X+6052001Y+2432501D01*
X+5753100Y+2705100D02*
X+5753100Y+2578100D01*
X+5689600Y+2641600D02*
X+5816600Y+2641600D01*
X+5708199Y+2686501D02*
X+5798001Y+2596699D01*
X+5708199Y+2596699D02*
X+5798001Y+2686501D01*
X+6261100Y+5308600D02*
X+6261100Y+5181600D01*
X+6197600Y+5245100D02*
X+6324600Y+5245100D01*
X+6216199Y+5290001D02*
X+6306001Y+5200199D01*
X+6216199Y+5200199D02*
X+6306001Y+5290001D01*
X+5753100Y+5308600D02*
X+5753100Y+5181600D01*
X+5689600Y+5245100D02*
X+5816600Y+5245100D01*
X+5708199Y+5290001D02*
X+5798001Y+5200199D01*
X+5708199Y+5200199D02*
X+5798001Y+5290001D01*
X+5245100Y+5308600D02*
X+5245100Y+5181600D01*
X+5181600Y+5245100D02*
X+5308600Y+5245100D01*
X+5200199Y+5290001D02*
X+5290001Y+5200199D01*
X+5200199Y+5200199D02*
X+5290001Y+5290001D01*
X+4737100Y+5308600D02*
X+4737100Y+5181600D01*
X+4673600Y+5245100D02*
X+4800600Y+5245100D01*
X+4692199Y+5290001D02*
X+4782001Y+5200199D01*
X+4692199Y+5200199D02*
X+4782001Y+5290001D01*
X+4330700Y+4991100D02*
X+4330700Y+4864100D01*
X+4267200Y+4927600D02*
X+4394200Y+4927600D01*
X+4285799Y+4972501D02*
X+4375601Y+4882699D01*
X+4285799Y+4882699D02*
X+4375601Y+4972501D01*
X+6515100Y+165100D02*
X+6515100Y+38100D01*
X+6451600Y+101600D02*
X+6578600Y+101600D01*
X+6470199Y+146501D02*
X+6560001Y+56699D01*
X+6470199Y+56699D02*
X+6560001Y+146501D01*
X+6007100Y+165100D02*
X+6007100Y+38100D01*
X+5943600Y+101600D02*
X+6070600Y+101600D01*
X+5962199Y+146501D02*
X+6052001Y+56699D01*
X+5962199Y+56699D02*
X+6052001Y+146501D01*
X+5499100Y+165100D02*
X+5499100Y+38100D01*
X+5435600Y+101600D02*
X+5562600Y+101600D01*
X+5454199Y+146501D02*
X+5544001Y+56699D01*
X+5454199Y+56699D02*
X+5544001Y+146501D01*
X+6261100Y+457200D02*
X+6261100Y+330200D01*
X+6197600Y+393700D02*
X+6324600Y+393700D01*
X+6216199Y+438601D02*
X+6306001Y+348799D01*
X+6216199Y+348799D02*
X+6306001Y+438601D01*
X+6261100Y+965200D02*
X+6261100Y+838200D01*
X+6197600Y+901700D02*
X+6324600Y+901700D01*
X+6216199Y+946601D02*
X+6306001Y+856799D01*
X+6216199Y+856799D02*
X+6306001Y+946601D01*
X+6007100Y+711200D02*
X+6007100Y+584200D01*
X+5943600Y+647700D02*
X+6070600Y+647700D01*
X+5962199Y+692601D02*
X+6052001Y+602799D01*
X+5962199Y+602799D02*
X+6052001Y+692601D01*
X+6007100Y+1219200D02*
X+6007100Y+1092200D01*
X+5943600Y+1155700D02*
X+6070600Y+1155700D01*
X+5962199Y+1200601D02*
X+6052001Y+1110799D01*
X+5962199Y+1110799D02*
X+6052001Y+1200601D01*
X+5753100Y+1727200D02*
X+5753100Y+1600200D01*
X+5689600Y+1663700D02*
X+5816600Y+1663700D01*
X+5708199Y+1708601D02*
X+5798001Y+1618799D01*
X+5708199Y+1618799D02*
X+5798001Y+1708601D01*
X+5499100Y+1981200D02*
X+5499100Y+1854200D01*
X+5435600Y+1917700D02*
X+5562600Y+1917700D01*
X+5454199Y+1962601D02*
X+5544001Y+1872799D01*
X+5454199Y+1872799D02*
X+5544001Y+1962601D01*
X+5245100Y+2235200D02*
X+5245100Y+2108200D01*
X+5181600Y+2171700D02*
X+5308600Y+2171700D01*
X+5200199Y+2216601D02*
X+5290001Y+2126799D01*
X+5200199Y+2126799D02*
X+5290001Y+2216601D01*
X+5753100Y+457200D02*
X+5753100Y+330200D01*
X+5689600Y+393700D02*
X+5816600Y+393700D01*
X+5708199Y+438601D02*
X+5798001Y+348799D01*
X+5708199Y+348799D02*
X+5798001Y+438601D01*
X+5753100Y+965200D02*
X+5753100Y+838200D01*
X+5689600Y+901700D02*
X+5816600Y+901700D01*
X+5708199Y+946601D02*
X+5798001Y+856799D01*
X+5708199Y+856799D02*
X+5798001Y+946601D01*
X+5753100Y+1473200D02*
X+5753100Y+1346200D01*
X+5689600Y+1409700D02*
X+5816600Y+1409700D01*
X+5708199Y+1454601D02*
X+5798001Y+1364799D01*
X+5708199Y+1364799D02*
X+5798001Y+1454601D01*
X+5499100Y+711200D02*
X+5499100Y+584200D01*
X+5435600Y+647700D02*
X+5562600Y+647700D01*
X+5454199Y+692601D02*
X+5544001Y+602799D01*
X+5454199Y+602799D02*
X+5544001Y+692601D01*
X+5499100Y+1219200D02*
X+5499100Y+1092200D01*
X+5435600Y+1155700D02*
X+5562600Y+1155700D01*
X+5454199Y+1200601D02*
X+5544001Y+1110799D01*
X+5454199Y+1110799D02*
X+5544001Y+1200601D01*
X+5245100Y+1473200D02*
X+5245100Y+1346200D01*
X+5181600Y+1409700D02*
X+5308600Y+1409700D01*
X+5200199Y+1454601D02*
X+5290001Y+1364799D01*
X+5200199Y+1364799D02*
X+5290001Y+1454601D01*
X+5245100Y+965200D02*
X+5245100Y+838200D01*
X+5181600Y+901700D02*
X+5308600Y+901700D01*
X+5200199Y+946601D02*
X+5290001Y+856799D01*
X+5200199Y+856799D02*
X+5290001Y+946601D01*
X+5245100Y+457200D02*
X+5245100Y+330200D01*
X+5181600Y+393700D02*
X+5308600Y+393700D01*
X+5200199Y+438601D02*
X+5290001Y+348799D01*
X+5200199Y+348799D02*
X+5290001Y+438601D01*
X+5054600Y+711200D02*
X+5054600Y+584200D01*
X+4991100Y+647700D02*
X+5118100Y+647700D01*
X+5009699Y+692601D02*
X+5099501Y+602799D01*
X+5009699Y+602799D02*
X+5099501Y+692601D01*
X+5054600Y+1219200D02*
X+5054600Y+1092200D01*
X+4991100Y+1155700D02*
X+5118100Y+1155700D01*
X+5009699Y+1200601D02*
X+5099501Y+1110799D01*
X+5009699Y+1110799D02*
X+5099501Y+1200601D01*
X+5054600Y+1727200D02*
X+5054600Y+1600200D01*
X+4991100Y+1663700D02*
X+5118100Y+1663700D01*
X+5009699Y+1708601D02*
X+5099501Y+1618799D01*
X+5009699Y+1618799D02*
X+5099501Y+1708601D01*
X+4229100Y+2489200D02*
X+4229100Y+2362200D01*
X+4165600Y+2425700D02*
X+4292600Y+2425700D01*
X+4184199Y+2470601D02*
X+4274001Y+2380799D01*
X+4184199Y+2380799D02*
X+4274001Y+2470601D01*
X+3975100Y+2743200D02*
X+3975100Y+2616200D01*
X+3911600Y+2679700D02*
X+4038600Y+2679700D01*
X+3930199Y+2724601D02*
X+4020001Y+2634799D01*
X+3930199Y+2634799D02*
X+4020001Y+2724601D01*
X+3721100Y+2997200D02*
X+3721100Y+2870200D01*
X+3657600Y+2933700D02*
X+3784600Y+2933700D01*
X+3676199Y+2978601D02*
X+3766001Y+2888799D01*
X+3676199Y+2888799D02*
X+3766001Y+2978601D01*
X+3213100Y+3505200D02*
X+3213100Y+3378200D01*
X+3149600Y+3441700D02*
X+3276600Y+3441700D01*
X+3168199Y+3486601D02*
X+3258001Y+3396799D01*
X+3168199Y+3396799D02*
X+3258001Y+3486601D01*
X+2959100Y+3759200D02*
X+2959100Y+3632200D01*
X+2895600Y+3695700D02*
X+3022600Y+3695700D01*
X+2914199Y+3740601D02*
X+3004001Y+3650799D01*
X+2914199Y+3650799D02*
X+3004001Y+3740601D01*
X+2705100Y+4013200D02*
X+2705100Y+3886200D01*
X+2641600Y+3949700D02*
X+2768600Y+3949700D01*
X+2660199Y+3994601D02*
X+2750001Y+3904799D01*
X+2660199Y+3904799D02*
X+2750001Y+3994601D01*
X+2451100Y+4267200D02*
X+2451100Y+4140200D01*
X+2387600Y+4203700D02*
X+2514600Y+4203700D01*
X+2406199Y+4248601D02*
X+2496001Y+4158799D01*
X+2406199Y+4158799D02*
X+2496001Y+4248601D01*
X+2451100Y+3759200D02*
X+2451100Y+3632200D01*
X+2387600Y+3695700D02*
X+2514600Y+3695700D01*
X+2406199Y+3740601D02*
X+2496001Y+3650799D01*
X+2406199Y+3650799D02*
X+2496001Y+3740601D01*
X+2451100Y+3251200D02*
X+2451100Y+3124200D01*
X+2387600Y+3187700D02*
X+2514600Y+3187700D01*
X+2406199Y+3232601D02*
X+2496001Y+3142799D01*
X+2406199Y+3142799D02*
X+2496001Y+3232601D01*
X+2705100Y+3505200D02*
X+2705100Y+3378200D01*
X+2641600Y+3441700D02*
X+2768600Y+3441700D01*
X+2660199Y+3486601D02*
X+2750001Y+3396799D01*
X+2660199Y+3396799D02*
X+2750001Y+3486601D01*
X+1689100Y+1473200D02*
X+1689100Y+1346200D01*
X+1625600Y+1409700D02*
X+1752600Y+1409700D01*
X+1644199Y+1454601D02*
X+1734001Y+1364799D01*
X+1644199Y+1364799D02*
X+1734001Y+1454601D01*
X+1181100Y+965200D02*
X+1181100Y+838200D01*
X+1117600Y+901700D02*
X+1244600Y+901700D01*
X+1136199Y+946601D02*
X+1226001Y+856799D01*
X+1136199Y+856799D02*
X+1226001Y+946601D01*
X+1435100Y+1219200D02*
X+1435100Y+1092200D01*
X+1371600Y+1155700D02*
X+1498600Y+1155700D01*
X+1390199Y+1200601D02*
X+1480001Y+1110799D01*
X+1390199Y+1110799D02*
X+1480001Y+1200601D01*
X+1181100Y+1473200D02*
X+1181100Y+1346200D01*
X+1117600Y+1409700D02*
X+1244600Y+1409700D01*
X+1136199Y+1454601D02*
X+1226001Y+1364799D01*
X+1136199Y+1364799D02*
X+1226001Y+1454601D01*
X+927100Y+1219200D02*
X+927100Y+1092200D01*
X+863600Y+1155700D02*
X+990600Y+1155700D01*
X+882199Y+1200601D02*
X+972001Y+1110799D01*
X+882199Y+1110799D02*
X+972001Y+1200601D01*
X+673100Y+965200D02*
X+673100Y+838200D01*
X+609600Y+901700D02*
X+736600Y+901700D01*
X+628199Y+946601D02*
X+718001Y+856799D01*
X+628199Y+856799D02*
X+718001Y+946601D01*
X+673100Y+1473200D02*
X+673100Y+1346200D01*
X+609600Y+1409700D02*
X+736600Y+1409700D01*
X+628199Y+1454601D02*
X+718001Y+1364799D01*
X+628199Y+1364799D02*
X+718001Y+1454601D01*
X+1943100Y+203200D02*
X+1943100Y+76200D01*
X+1879600Y+139700D02*
X+2006600Y+139700D01*
X+1898199Y+184601D02*
X+1988001Y+94799D01*
X+1898199Y+94799D02*
X+1988001Y+184601D01*
X+1181100Y+203200D02*
X+1181100Y+76200D01*
X+1117600Y+139700D02*
X+1244600Y+139700D01*
X+1136199Y+184601D02*
X+1226001Y+94799D01*
X+1136199Y+94799D02*
X+1226001Y+184601D01*
X+165100Y+203200D02*
X+165100Y+76200D01*
X+101600Y+139700D02*
X+228600Y+139700D01*
X+120199Y+184601D02*
X+210001Y+94799D01*
X+120199Y+94799D02*
X+210001Y+184601D01*
X+1887150Y+1907300D02*
X+1887150Y+1780300D01*
X+1823650Y+1843800D02*
X+1950650Y+1843800D01*
X+1842249Y+1888701D02*
X+1932051Y+1798899D01*
X+1842249Y+1798899D02*
X+1932051Y+1888701D01*
X+1709350Y+1907300D02*
X+1709350Y+1780300D01*
X+1645850Y+1843800D02*
X+1772850Y+1843800D01*
X+1664449Y+1888701D02*
X+1754251Y+1798899D01*
X+1664449Y+1798899D02*
X+1754251Y+1888701D01*
X+1709350Y+2066050D02*
X+1709350Y+1939050D01*
X+1645850Y+2002550D02*
X+1772850Y+2002550D01*
X+1664449Y+2047451D02*
X+1754251Y+1957649D01*
X+1664449Y+1957649D02*
X+1754251Y+2047451D01*
X+1540429Y+2226050D02*
X+1540429Y+2099050D01*
X+1476929Y+2162550D02*
X+1603929Y+2162550D01*
X+1495528Y+2207451D02*
X+1585330Y+2117649D01*
X+1495528Y+2117649D02*
X+1585330Y+2207451D01*
X+1379150Y+2226050D02*
X+1379150Y+2099050D01*
X+1315650Y+2162550D02*
X+1442650Y+2162550D01*
X+1334249Y+2207451D02*
X+1424051Y+2117649D01*
X+1334249Y+2117649D02*
X+1424051Y+2207451D01*
X+953700Y+2226050D02*
X+953700Y+2099050D01*
X+890200Y+2162550D02*
X+1017200Y+2162550D01*
X+908799Y+2207451D02*
X+998601Y+2117649D01*
X+908799Y+2117649D02*
X+998601Y+2207451D01*
X+693350Y+2226050D02*
X+693350Y+2099050D01*
X+629850Y+2162550D02*
X+756850Y+2162550D01*
X+648449Y+2207451D02*
X+738251Y+2117649D01*
X+648449Y+2117649D02*
X+738251Y+2207451D01*
X+486650Y+2281200D02*
X+486650Y+2154200D01*
X+423150Y+2217700D02*
X+550150Y+2217700D01*
X+441749Y+2262601D02*
X+531551Y+2172799D01*
X+441749Y+2172799D02*
X+531551Y+2262601D01*
X+2197100Y+3505200D02*
X+2197100Y+3378200D01*
X+2133600Y+3441700D02*
X+2260600Y+3441700D01*
X+2152199Y+3486601D02*
X+2242001Y+3396799D01*
X+2152199Y+3396799D02*
X+2242001Y+3486601D01*
X+1943100Y+3759200D02*
X+1943100Y+3632200D01*
X+1879600Y+3695700D02*
X+2006600Y+3695700D01*
X+1898199Y+3740601D02*
X+1988001Y+3650799D01*
X+1898199Y+3650799D02*
X+1988001Y+3740601D01*
X+2197100Y+4013200D02*
X+2197100Y+3886200D01*
X+2133600Y+3949700D02*
X+2260600Y+3949700D01*
X+2152199Y+3994601D02*
X+2242001Y+3904799D01*
X+2152199Y+3904799D02*
X+2242001Y+3994601D01*
X+1943100Y+4267200D02*
X+1943100Y+4140200D01*
X+1879600Y+4203700D02*
X+2006600Y+4203700D01*
X+1898199Y+4248601D02*
X+1988001Y+4158799D01*
X+1898199Y+4158799D02*
X+1988001Y+4248601D01*
X+2197100Y+4521200D02*
X+2197100Y+4394200D01*
X+2133600Y+4457700D02*
X+2260600Y+4457700D01*
X+2152199Y+4502601D02*
X+2242001Y+4412799D01*
X+2152199Y+4412799D02*
X+2242001Y+4502601D01*
X+3568700Y+4737100D02*
X+3568700Y+4610100D01*
X+3505200Y+4673600D02*
X+3632200Y+4673600D01*
X+3523799Y+4718501D02*
X+3613601Y+4628699D01*
X+3523799Y+4628699D02*
X+3613601Y+4718501D01*
X+3568700Y+4229100D02*
X+3568700Y+4102100D01*
X+3505200Y+4165600D02*
X+3632200Y+4165600D01*
X+3523799Y+4210501D02*
X+3613601Y+4120699D01*
X+3523799Y+4120699D02*
X+3613601Y+4210501D01*
X+3822700Y+3975100D02*
X+3822700Y+3848100D01*
X+3759200Y+3911600D02*
X+3886200Y+3911600D01*
X+3777799Y+3956501D02*
X+3867601Y+3866699D01*
X+3777799Y+3866699D02*
X+3867601Y+3956501D01*
X+4076700Y+3721100D02*
X+4076700Y+3594100D01*
X+4013200Y+3657600D02*
X+4140200Y+3657600D01*
X+4031799Y+3702501D02*
X+4121601Y+3612699D01*
X+4031799Y+3612699D02*
X+4121601Y+3702501D01*
X+4330700Y+3467100D02*
X+4330700Y+3340100D01*
X+4267200Y+3403600D02*
X+4394200Y+3403600D01*
X+4285799Y+3448501D02*
X+4375601Y+3358699D01*
X+4285799Y+3358699D02*
X+4375601Y+3448501D01*
X+3314700Y+4483100D02*
X+3314700Y+4356100D01*
X+3251200Y+4419600D02*
X+3378200Y+4419600D01*
X+3269799Y+4464501D02*
X+3359601Y+4374699D01*
X+3269799Y+4374699D02*
X+3359601Y+4464501D01*
X+3060700Y+4737100D02*
X+3060700Y+4610100D01*
X+2997200Y+4673600D02*
X+3124200Y+4673600D01*
X+3015799Y+4718501D02*
X+3105601Y+4628699D01*
X+3015799Y+4628699D02*
X+3105601Y+4718501D01*
X+2806700Y+4483100D02*
X+2806700Y+4356100D01*
X+2743200Y+4419600D02*
X+2870200Y+4419600D01*
X+2761799Y+4464501D02*
X+2851601Y+4374699D01*
X+2761799Y+4374699D02*
X+2851601Y+4464501D01*
X+2552700Y+4737100D02*
X+2552700Y+4610100D01*
X+2489200Y+4673600D02*
X+2616200Y+4673600D01*
X+2507799Y+4718501D02*
X+2597601Y+4628699D01*
X+2507799Y+4628699D02*
X+2597601Y+4718501D01*
X+2298700Y+4991100D02*
X+2298700Y+4864100D01*
X+2235200Y+4927600D02*
X+2362200Y+4927600D01*
X+2253799Y+4972501D02*
X+2343601Y+4882699D01*
X+2253799Y+4882699D02*
X+2343601Y+4972501D01*
X+1689100Y+4521200D02*
X+1689100Y+4394200D01*
X+1625600Y+4457700D02*
X+1752600Y+4457700D01*
X+1644199Y+4502601D02*
X+1734001Y+4412799D01*
X+1644199Y+4412799D02*
X+1734001Y+4502601D01*
X+1689100Y+4013200D02*
X+1689100Y+3886200D01*
X+1625600Y+3949700D02*
X+1752600Y+3949700D01*
X+1644199Y+3994601D02*
X+1734001Y+3904799D01*
X+1644199Y+3904799D02*
X+1734001Y+3994601D01*
X+2050350Y+3328500D02*
X+2050350Y+3201500D01*
X+1986850Y+3265000D02*
X+2113850Y+3265000D01*
X+2005449Y+3309901D02*
X+2095251Y+3220099D01*
X+2005449Y+3220099D02*
X+2095251Y+3309901D01*
X+1872550Y+3381860D02*
X+1872550Y+3254860D01*
X+1809050Y+3318360D02*
X+1936050Y+3318360D01*
X+1827649Y+3363261D02*
X+1917451Y+3273459D01*
X+1827649Y+3273459D02*
X+1917451Y+3363261D01*
X+1181100Y+4521200D02*
X+1181100Y+4394200D01*
X+1117600Y+4457700D02*
X+1244600Y+4457700D01*
X+1136199Y+4502601D02*
X+1226001Y+4412799D01*
X+1136199Y+4412799D02*
X+1226001Y+4502601D01*
X+1181100Y+4013200D02*
X+1181100Y+3886200D01*
X+1117600Y+3949700D02*
X+1244600Y+3949700D01*
X+1136199Y+3994601D02*
X+1226001Y+3904799D01*
X+1136199Y+3904799D02*
X+1226001Y+3994601D01*
X+927100Y+3759200D02*
X+927100Y+3632200D01*
X+863600Y+3695700D02*
X+990600Y+3695700D01*
X+882199Y+3740601D02*
X+972001Y+3650799D01*
X+882199Y+3650799D02*
X+972001Y+3740601D01*
X+927100Y+4267200D02*
X+927100Y+4140200D01*
X+863600Y+4203700D02*
X+990600Y+4203700D01*
X+882199Y+4248601D02*
X+972001Y+4158799D01*
X+882199Y+4158799D02*
X+972001Y+4248601D01*
X+673100Y+4521200D02*
X+673100Y+4394200D01*
X+609600Y+4457700D02*
X+736600Y+4457700D01*
X+628199Y+4502601D02*
X+718001Y+4412799D01*
X+628199Y+4412799D02*
X+718001Y+4502601D01*
X+673100Y+4013200D02*
X+673100Y+3886200D01*
X+609600Y+3949700D02*
X+736600Y+3949700D01*
X+628199Y+3994601D02*
X+718001Y+3904799D01*
X+628199Y+3904799D02*
X+718001Y+3994601D01*
X+673100Y+3505200D02*
X+673100Y+3378200D01*
X+609600Y+3441700D02*
X+736600Y+3441700D01*
X+628199Y+3486601D02*
X+718001Y+3396799D01*
X+628199Y+3396799D02*
X+718001Y+3486601D01*
X+1181100Y+5029200D02*
X+1181100Y+4902200D01*
X+1117600Y+4965700D02*
X+1244600Y+4965700D01*
X+1136199Y+5010601D02*
X+1226001Y+4920799D01*
X+1136199Y+4920799D02*
X+1226001Y+5010601D01*
X+673100Y+5029200D02*
X+673100Y+4902200D01*
X+609600Y+4965700D02*
X+736600Y+4965700D01*
X+628199Y+5010601D02*
X+718001Y+4920799D01*
X+628199Y+4920799D02*
X+718001Y+5010601D01*
X+927100Y+5283200D02*
X+927100Y+5156200D01*
X+863600Y+5219700D02*
X+990600Y+5219700D01*
X+882199Y+5264601D02*
X+972001Y+5174799D01*
X+882199Y+5174799D02*
X+972001Y+5264601D01*
X+419100Y+5029200D02*
X+419100Y+4902200D01*
X+355600Y+4965700D02*
X+482600Y+4965700D01*
X+374199Y+5010601D02*
X+464001Y+4920799D01*
X+374199Y+4920799D02*
X+464001Y+5010601D01*
X+165100Y+5283200D02*
X+165100Y+5156200D01*
X+101600Y+5219700D02*
X+228600Y+5219700D01*
X+120199Y+5264601D02*
X+210001Y+5174799D01*
X+120199Y+5174799D02*
X+210001Y+5264601D01*
X+165100Y+4775200D02*
X+165100Y+4648200D01*
X+101600Y+4711700D02*
X+228600Y+4711700D01*
X+120199Y+4756601D02*
X+210001Y+4666799D01*
X+120199Y+4666799D02*
X+210001Y+4756601D01*
X+165100Y+4267200D02*
X+165100Y+4140200D01*
X+101600Y+4203700D02*
X+228600Y+4203700D01*
X+120199Y+4248601D02*
X+210001Y+4158799D01*
X+120199Y+4158799D02*
X+210001Y+4248601D01*
X+165100Y+3759200D02*
X+165100Y+3632200D01*
X+101600Y+3695700D02*
X+228600Y+3695700D01*
X+120199Y+3740601D02*
X+210001Y+3650799D01*
X+120199Y+3650799D02*
X+210001Y+3740601D01*
X+165100Y+3251200D02*
X+165100Y+3124200D01*
X+101600Y+3187700D02*
X+228600Y+3187700D01*
X+120199Y+3232601D02*
X+210001Y+3142799D01*
X+120199Y+3142799D02*
X+210001Y+3232601D01*
X+1015300Y+3328500D02*
X+1015300Y+3201500D01*
X+951800Y+3265000D02*
X+1078800Y+3265000D01*
X+970399Y+3309901D02*
X+1060201Y+3220099D01*
X+970399Y+3220099D02*
X+1060201Y+3309901D01*
X+241650Y+3011200D02*
X+241650Y+2884200D01*
X+178150Y+2947700D02*
X+305150Y+2947700D01*
X+196749Y+2992601D02*
X+286551Y+2902799D01*
X+196749Y+2902799D02*
X+286551Y+2992601D01*
X+165100Y+2743200D02*
X+165100Y+2616200D01*
X+101600Y+2679700D02*
X+228600Y+2679700D01*
X+120199Y+2724601D02*
X+210001Y+2634799D01*
X+120199Y+2634799D02*
X+210001Y+2724601D01*
X+165100Y+2235200D02*
X+165100Y+2108200D01*
X+101600Y+2171700D02*
X+228600Y+2171700D01*
X+120199Y+2216601D02*
X+210001Y+2126799D01*
X+120199Y+2126799D02*
X+210001Y+2216601D01*
X+2209150Y+2526450D02*
X+2209150Y+2399450D01*
X+2145650Y+2462950D02*
X+2272650Y+2462950D01*
X+2164249Y+2507851D02*
X+2254051Y+2418049D01*
X+2164249Y+2418049D02*
X+2254051Y+2507851D01*
X+2209150Y+2691550D02*
X+2209150Y+2564550D01*
X+2145650Y+2628050D02*
X+2272650Y+2628050D01*
X+2164249Y+2672951D02*
X+2254051Y+2583149D01*
X+2164249Y+2583149D02*
X+2254051Y+2672951D01*
X+2369150Y+2526450D02*
X+2369150Y+2399450D01*
X+2305650Y+2462950D02*
X+2432650Y+2462950D01*
X+2324249Y+2507851D02*
X+2414051Y+2418049D01*
X+2324249Y+2418049D02*
X+2414051Y+2507851D01*
X+2095500Y+2482850D02*
X+2095500Y+2355850D01*
X+2032000Y+2419350D02*
X+2159000Y+2419350D01*
X+2050599Y+2464251D02*
X+2140401Y+2374449D01*
X+2050599Y+2374449D02*
X+2140401Y+2464251D01*
X+2159000Y+2368550D02*
X+2159000Y+2241550D01*
X+2095500Y+2305050D02*
X+2222500Y+2305050D01*
X+2114099Y+2349951D02*
X+2203901Y+2260149D01*
X+2114099Y+2260149D02*
X+2203901Y+2349951D01*
X+3721100Y+2489200D02*
X+3721100Y+2362200D01*
X+3657600Y+2425700D02*
X+3784600Y+2425700D01*
X+3676199Y+2470601D02*
X+3766001Y+2380799D01*
X+3676199Y+2380799D02*
X+3766001Y+2470601D01*
X+3975100Y+2235200D02*
X+3975100Y+2108200D01*
X+3911600Y+2171700D02*
X+4038600Y+2171700D01*
X+3930199Y+2216601D02*
X+4020001Y+2126799D01*
X+3930199Y+2126799D02*
X+4020001Y+2216601D01*
X+4229100Y+1981200D02*
X+4229100Y+1854200D01*
X+4165600Y+1917700D02*
X+4292600Y+1917700D01*
X+4184199Y+1962601D02*
X+4274001Y+1872799D01*
X+4184199Y+1872799D02*
X+4274001Y+1962601D01*
X+4737100Y+1981200D02*
X+4737100Y+1854200D01*
X+4673600Y+1917700D02*
X+4800600Y+1917700D01*
X+4692199Y+1962601D02*
X+4782001Y+1872799D01*
X+4692199Y+1872799D02*
X+4782001Y+1962601D01*
X+4483100Y+1727200D02*
X+4483100Y+1600200D01*
X+4419600Y+1663700D02*
X+4546600Y+1663700D01*
X+4438199Y+1708601D02*
X+4528001Y+1618799D01*
X+4438199Y+1618799D02*
X+4528001Y+1708601D01*
X+3975100Y+1727200D02*
X+3975100Y+1600200D01*
X+3911600Y+1663700D02*
X+4038600Y+1663700D01*
X+3930199Y+1708601D02*
X+4020001Y+1618799D01*
X+3930199Y+1618799D02*
X+4020001Y+1708601D01*
X+3721100Y+1981200D02*
X+3721100Y+1854200D01*
X+3657600Y+1917700D02*
X+3784600Y+1917700D01*
X+3676199Y+1962601D02*
X+3766001Y+1872799D01*
X+3676199Y+1872799D02*
X+3766001Y+1962601D01*
X+3467100Y+1727200D02*
X+3467100Y+1600200D01*
X+3403600Y+1663700D02*
X+3530600Y+1663700D01*
X+3422199Y+1708601D02*
X+3512001Y+1618799D01*
X+3422199Y+1618799D02*
X+3512001Y+1708601D01*
X+3213100Y+1981200D02*
X+3213100Y+1854200D01*
X+3149600Y+1917700D02*
X+3276600Y+1917700D01*
X+3168199Y+1962601D02*
X+3258001Y+1872799D01*
X+3168199Y+1872799D02*
X+3258001Y+1962601D01*
X+2959100Y+1727200D02*
X+2959100Y+1600200D01*
X+2895600Y+1663700D02*
X+3022600Y+1663700D01*
X+2914199Y+1708601D02*
X+3004001Y+1618799D01*
X+2914199Y+1618799D02*
X+3004001Y+1708601D01*
X+2705100Y+1981200D02*
X+2705100Y+1854200D01*
X+2641600Y+1917700D02*
X+2768600Y+1917700D01*
X+2660199Y+1962601D02*
X+2750001Y+1872799D01*
X+2660199Y+1872799D02*
X+2750001Y+1962601D01*
X+2705100Y+1473200D02*
X+2705100Y+1346200D01*
X+2641600Y+1409700D02*
X+2768600Y+1409700D01*
X+2660199Y+1454601D02*
X+2750001Y+1364799D01*
X+2660199Y+1364799D02*
X+2750001Y+1454601D01*
X+3213100Y+1473200D02*
X+3213100Y+1346200D01*
X+3149600Y+1409700D02*
X+3276600Y+1409700D01*
X+3168199Y+1454601D02*
X+3258001Y+1364799D01*
X+3168199Y+1364799D02*
X+3258001Y+1454601D01*
X+3721100Y+1473200D02*
X+3721100Y+1346200D01*
X+3657600Y+1409700D02*
X+3784600Y+1409700D01*
X+3676199Y+1454601D02*
X+3766001Y+1364799D01*
X+3676199Y+1364799D02*
X+3766001Y+1454601D01*
X+4229100Y+1473200D02*
X+4229100Y+1346200D01*
X+4165600Y+1409700D02*
X+4292600Y+1409700D01*
X+4184199Y+1454601D02*
X+4274001Y+1364799D01*
X+4184199Y+1364799D02*
X+4274001Y+1454601D01*
X+4737100Y+1473200D02*
X+4737100Y+1346200D01*
X+4673600Y+1409700D02*
X+4800600Y+1409700D01*
X+4692199Y+1454601D02*
X+4782001Y+1364799D01*
X+4692199Y+1364799D02*
X+4782001Y+1454601D01*
X+4483100Y+1219200D02*
X+4483100Y+1092200D01*
X+4419600Y+1155700D02*
X+4546600Y+1155700D01*
X+4438199Y+1200601D02*
X+4528001Y+1110799D01*
X+4438199Y+1110799D02*
X+4528001Y+1200601D01*
X+3975100Y+1219200D02*
X+3975100Y+1092200D01*
X+3911600Y+1155700D02*
X+4038600Y+1155700D01*
X+3930199Y+1200601D02*
X+4020001Y+1110799D01*
X+3930199Y+1110799D02*
X+4020001Y+1200601D01*
X+3467100Y+1219200D02*
X+3467100Y+1092200D01*
X+3403600Y+1155700D02*
X+3530600Y+1155700D01*
X+3422199Y+1200601D02*
X+3512001Y+1110799D01*
X+3422199Y+1110799D02*
X+3512001Y+1200601D01*
X+2959100Y+1219200D02*
X+2959100Y+1092200D01*
X+2895600Y+1155700D02*
X+3022600Y+1155700D01*
X+2914199Y+1200601D02*
X+3004001Y+1110799D01*
X+2914199Y+1110799D02*
X+3004001Y+1200601D01*
X+3213100Y+965200D02*
X+3213100Y+838200D01*
X+3149600Y+901700D02*
X+3276600Y+901700D01*
X+3168199Y+946601D02*
X+3258001Y+856799D01*
X+3168199Y+856799D02*
X+3258001Y+946601D01*
X+3721100Y+965200D02*
X+3721100Y+838200D01*
X+3657600Y+901700D02*
X+3784600Y+901700D01*
X+3676199Y+946601D02*
X+3766001Y+856799D01*
X+3676199Y+856799D02*
X+3766001Y+946601D01*
X+4229100Y+965200D02*
X+4229100Y+838200D01*
X+4165600Y+901700D02*
X+4292600Y+901700D01*
X+4184199Y+946601D02*
X+4274001Y+856799D01*
X+4184199Y+856799D02*
X+4274001Y+946601D01*
X+4737100Y+965200D02*
X+4737100Y+838200D01*
X+4673600Y+901700D02*
X+4800600Y+901700D01*
X+4692199Y+946601D02*
X+4782001Y+856799D01*
X+4692199Y+856799D02*
X+4782001Y+946601D01*
X+4483100Y+711200D02*
X+4483100Y+584200D01*
X+4419600Y+647700D02*
X+4546600Y+647700D01*
X+4438199Y+692601D02*
X+4528001Y+602799D01*
X+4438199Y+602799D02*
X+4528001Y+692601D01*
X+3975100Y+711200D02*
X+3975100Y+584200D01*
X+3911600Y+647700D02*
X+4038600Y+647700D01*
X+3930199Y+692601D02*
X+4020001Y+602799D01*
X+3930199Y+602799D02*
X+4020001Y+692601D01*
X+3721100Y+457200D02*
X+3721100Y+330200D01*
X+3657600Y+393700D02*
X+3784600Y+393700D01*
X+3676199Y+438601D02*
X+3766001Y+348799D01*
X+3676199Y+348799D02*
X+3766001Y+438601D01*
X+3467100Y+711200D02*
X+3467100Y+584200D01*
X+3403600Y+647700D02*
X+3530600Y+647700D01*
X+3422199Y+692601D02*
X+3512001Y+602799D01*
X+3422199Y+602799D02*
X+3512001Y+692601D01*
X+2705100Y+711200D02*
X+2705100Y+584200D01*
X+2641600Y+647700D02*
X+2768600Y+647700D01*
X+2660199Y+692601D02*
X+2750001Y+602799D01*
X+2660199Y+602799D02*
X+2750001Y+692601D01*
X+2959100Y+457200D02*
X+2959100Y+330200D01*
X+2895600Y+393700D02*
X+3022600Y+393700D01*
X+2914199Y+438601D02*
X+3004001Y+348799D01*
X+2914199Y+348799D02*
X+3004001Y+438601D01*
X+2197100Y+457200D02*
X+2197100Y+330200D01*
X+2133600Y+393700D02*
X+2260600Y+393700D01*
X+2152199Y+438601D02*
X+2242001Y+348799D01*
X+2152199Y+348799D02*
X+2242001Y+438601D01*
X+1943100Y+711200D02*
X+1943100Y+584200D01*
X+1879600Y+647700D02*
X+2006600Y+647700D01*
X+1898199Y+692601D02*
X+1988001Y+602799D01*
X+1898199Y+602799D02*
X+1988001Y+692601D01*
X+2197100Y+965200D02*
X+2197100Y+838200D01*
X+2133600Y+901700D02*
X+2260600Y+901700D01*
X+2152199Y+946601D02*
X+2242001Y+856799D01*
X+2152199Y+856799D02*
X+2242001Y+946601D01*
X+1181100Y+711200D02*
X+1181100Y+584200D01*
X+1117600Y+647700D02*
X+1244600Y+647700D01*
X+1136199Y+692601D02*
X+1226001Y+602799D01*
X+1136199Y+602799D02*
X+1226001Y+692601D01*
X+1435100Y+965200D02*
X+1435100Y+838200D01*
X+1371600Y+901700D02*
X+1498600Y+901700D01*
X+1390199Y+946601D02*
X+1480001Y+856799D01*
X+1390199Y+856799D02*
X+1480001Y+946601D01*
X+1689100Y+1219200D02*
X+1689100Y+1092200D01*
X+1625600Y+1155700D02*
X+1752600Y+1155700D01*
X+1644199Y+1200601D02*
X+1734001Y+1110799D01*
X+1644199Y+1110799D02*
X+1734001Y+1200601D01*
X+1943100Y+1473200D02*
X+1943100Y+1346200D01*
X+1879600Y+1409700D02*
X+2006600Y+1409700D01*
X+1898199Y+1454601D02*
X+1988001Y+1364799D01*
X+1898199Y+1364799D02*
X+1988001Y+1454601D01*
X+2114550Y+2032000D02*
X+2114550Y+1905000D01*
X+2051050Y+1968500D02*
X+2178050Y+1968500D01*
X+2069649Y+2013401D02*
X+2159451Y+1923599D01*
X+2069649Y+1923599D02*
X+2159451Y+2013401D01*
X+2527300Y+2768600D02*
X+2527300Y+2641600D01*
X+2463800Y+2705100D02*
X+2590800Y+2705100D01*
X+2482399Y+2750001D02*
X+2572201Y+2660199D01*
X+2482399Y+2660199D02*
X+2572201Y+2750001D01*
X+2527300Y+2324100D02*
X+2527300Y+2197100D01*
X+2463800Y+2260600D02*
X+2590800Y+2260600D01*
X+2482399Y+2305501D02*
X+2572201Y+2215699D01*
X+2482399Y+2215699D02*
X+2572201Y+2305501D01*
X+4565199Y+5124901D02*
X+4655001Y+5035099D01*
X+4565199Y+5035099D02*
X+4655001Y+5124901D01*
X+4819199Y+5124901D02*
X+4909001Y+5035099D01*
X+4819199Y+5035099D02*
X+4909001Y+5124901D01*
X+5073199Y+5124901D02*
X+5163001Y+5035099D01*
X+5073199Y+5035099D02*
X+5163001Y+5124901D01*
X+5327199Y+5124901D02*
X+5417001Y+5035099D01*
X+5327199Y+5035099D02*
X+5417001Y+5124901D01*
X+5581199Y+5124901D02*
X+5671001Y+5035099D01*
X+5581199Y+5035099D02*
X+5671001Y+5124901D01*
X+5835199Y+5124901D02*
X+5925001Y+5035099D01*
X+5835199Y+5035099D02*
X+5925001Y+5124901D01*
X+6089199Y+5124901D02*
X+6179001Y+5035099D01*
X+6089199Y+5035099D02*
X+6179001Y+5124901D01*
X+6343199Y+5124901D02*
X+6433001Y+5035099D01*
X+6343199Y+5035099D02*
X+6433001Y+5124901D01*
X+1872799Y+5124901D02*
X+1962601Y+5035099D01*
X+1872799Y+5035099D02*
X+1962601Y+5124901D01*
X+2126799Y+5124901D02*
X+2216601Y+5035099D01*
X+2126799Y+5035099D02*
X+2216601Y+5124901D01*
X+2380799Y+5124901D02*
X+2470601Y+5035099D01*
X+2380799Y+5035099D02*
X+2470601Y+5124901D01*
X+2634799Y+5124901D02*
X+2724601Y+5035099D01*
X+2634799Y+5035099D02*
X+2724601Y+5124901D01*
X+2888799Y+5124901D02*
X+2978601Y+5035099D01*
X+2888799Y+5035099D02*
X+2978601Y+5124901D01*
X+3142799Y+5124901D02*
X+3232601Y+5035099D01*
X+3142799Y+5035099D02*
X+3232601Y+5124901D01*
X+3396799Y+5124901D02*
X+3486601Y+5035099D01*
X+3396799Y+5035099D02*
X+3486601Y+5124901D01*
X+3650799Y+5124901D02*
X+3740601Y+5035099D01*
X+3650799Y+5035099D02*
X+3740601Y+5124901D01*
X+3904799Y+5124901D02*
X+3994601Y+5035099D01*
X+3904799Y+5035099D02*
X+3994601Y+5124901D01*
X+4158799Y+5124901D02*
X+4248601Y+5035099D01*
X+4158799Y+5035099D02*
X+4248601Y+5124901D01*
X+2279199Y+298901D02*
X+2369001Y+209099D01*
X+2279199Y+209099D02*
X+2369001Y+298901D01*
X+2533199Y+298901D02*
X+2623001Y+209099D01*
X+2533199Y+209099D02*
X+2623001Y+298901D01*
X+2787199Y+298901D02*
X+2877001Y+209099D01*
X+2787199Y+209099D02*
X+2877001Y+298901D01*
X+3041199Y+298901D02*
X+3131001Y+209099D01*
X+3041199Y+209099D02*
X+3131001Y+298901D01*
X+3295199Y+298901D02*
X+3385001Y+209099D01*
X+3295199Y+209099D02*
X+3385001Y+298901D01*
X+3549199Y+298901D02*
X+3639001Y+209099D01*
X+3549199Y+209099D02*
X+3639001Y+298901D01*
X+3803199Y+298901D02*
X+3893001Y+209099D01*
X+3803199Y+209099D02*
X+3893001Y+298901D01*
X+4057199Y+298901D02*
X+4147001Y+209099D01*
X+4057199Y+209099D02*
X+4147001Y+298901D01*
X+4311199Y+298901D02*
X+4401001Y+209099D01*
X+4311199Y+209099D02*
X+4401001Y+298901D01*
X+4565199Y+298901D02*
X+4655001Y+209099D01*
X+4565199Y+209099D02*
X+4655001Y+298901D01*
X+4819199Y+298901D02*
X+4909001Y+209099D01*
X+4819199Y+209099D02*
X+4909001Y+298901D01*
X+5073199Y+298901D02*
X+5163001Y+209099D01*
X+5073199Y+209099D02*
X+5163001Y+298901D01*
X+5327199Y+298901D02*
X+5417001Y+209099D01*
X+5327199Y+209099D02*
X+5417001Y+298901D01*
X+5581199Y+298901D02*
X+5671001Y+209099D01*
X+5581199Y+209099D02*
X+5671001Y+298901D01*
X+5835199Y+298901D02*
X+5925001Y+209099D01*
X+5835199Y+209099D02*
X+5925001Y+298901D01*
X+6089199Y+298901D02*
X+6179001Y+209099D01*
X+6089199Y+209099D02*
X+6179001Y+298901D01*
X+6343199Y+298901D02*
X+6433001Y+209099D01*
X+6343199Y+209099D02*
X+6433001Y+298901D01*
X+889000Y+266700D02*
X+889000Y+139700D01*
X+825500Y+203200D02*
X+952500Y+203200D01*
X+762000Y+266700D02*
X+762000Y+139700D01*
X+698500Y+203200D02*
X+825500Y+203200D01*
X+635000Y+266700D02*
X+635000Y+139700D01*
X+571500Y+203200D02*
X+698500Y+203200D01*
X+889000Y+393700D02*
X+889000Y+266700D01*
X+825500Y+330200D02*
X+952500Y+330200D01*
X+762000Y+393700D02*
X+762000Y+266700D01*
X+698500Y+330200D02*
X+825500Y+330200D01*
X+635000Y+393700D02*
X+635000Y+266700D01*
X+571500Y+330200D02*
X+698500Y+330200D01*
D43*
X+6800850Y+762000D02*
X+6800320Y+774958D01*
X+6796016Y+800876D01*
X+6787025Y+826794D01*
X+6772380Y+852712D01*
X+6749976Y+878466D01*
X+6724058Y+897958D01*
X+6698140Y+910530D01*
X+6672222Y+917866D01*
X+6646304Y+920694D01*
X+6642100Y+920750D01*
X+6483350Y+762000D02*
X+6483880Y+774958D01*
X+6488184Y+800876D01*
X+6497175Y+826794D01*
X+6511820Y+852712D01*
X+6534224Y+878466D01*
X+6560142Y+897958D01*
X+6586060Y+910530D01*
X+6611978Y+917866D01*
X+6637896Y+920694D01*
X+6642100Y+920750D01*
X+6483350Y+762000D02*
X+6483880Y+749042D01*
X+6488184Y+723124D01*
X+6497175Y+697206D01*
X+6511820Y+671288D01*
X+6534224Y+645534D01*
X+6560142Y+626042D01*
X+6586060Y+613470D01*
X+6611978Y+606134D01*
X+6637896Y+603306D01*
X+6642100Y+603250D01*
X+6800850Y+762000D02*
X+6800320Y+749042D01*
X+6796016Y+723124D01*
X+6787025Y+697206D01*
X+6772380Y+671288D01*
X+6749976Y+645534D01*
X+6724058Y+626042D01*
X+6698140Y+613470D01*
X+6672222Y+606134D01*
X+6646304Y+603306D01*
X+6642100Y+603250D01*
X+6800850Y+3556000D02*
X+6800320Y+3568958D01*
X+6796016Y+3594876D01*
X+6787025Y+3620794D01*
X+6772380Y+3646712D01*
X+6749976Y+3672466D01*
X+6724058Y+3691958D01*
X+6698140Y+3704530D01*
X+6672222Y+3711866D01*
X+6646304Y+3714694D01*
X+6642100Y+3714750D01*
X+6483350Y+3556000D02*
X+6483880Y+3568958D01*
X+6488184Y+3594876D01*
X+6497175Y+3620794D01*
X+6511820Y+3646712D01*
X+6534224Y+3672466D01*
X+6560142Y+3691958D01*
X+6586060Y+3704530D01*
X+6611978Y+3711866D01*
X+6637896Y+3714694D01*
X+6642100Y+3714750D01*
X+6483350Y+3556000D02*
X+6483880Y+3543042D01*
X+6488184Y+3517124D01*
X+6497175Y+3491206D01*
X+6511820Y+3465288D01*
X+6534224Y+3439534D01*
X+6560142Y+3420042D01*
X+6586060Y+3407470D01*
X+6611978Y+3400134D01*
X+6637896Y+3397306D01*
X+6642100Y+3397250D01*
X+6800850Y+3556000D02*
X+6800320Y+3543042D01*
X+6796016Y+3517124D01*
X+6787025Y+3491206D01*
X+6772380Y+3465288D01*
X+6749976Y+3439534D01*
X+6724058Y+3420042D01*
X+6698140Y+3407470D01*
X+6672222Y+3400134D01*
X+6646304Y+3397306D01*
X+6642100Y+3397250D01*
X+1720850Y+5080000D02*
X+1720320Y+5092958D01*
X+1716016Y+5118876D01*
X+1707025Y+5144794D01*
X+1692380Y+5170712D01*
X+1669976Y+5196466D01*
X+1644058Y+5215958D01*
X+1618140Y+5228530D01*
X+1592222Y+5235866D01*
X+1566304Y+5238694D01*
X+1562100Y+5238750D01*
X+1403350Y+5080000D02*
X+1403880Y+5092958D01*
X+1408184Y+5118876D01*
X+1417175Y+5144794D01*
X+1431820Y+5170712D01*
X+1454224Y+5196466D01*
X+1480142Y+5215958D01*
X+1506060Y+5228530D01*
X+1531978Y+5235866D01*
X+1557896Y+5238694D01*
X+1562100Y+5238750D01*
X+1403350Y+5080000D02*
X+1403880Y+5067042D01*
X+1408184Y+5041124D01*
X+1417175Y+5015206D01*
X+1431820Y+4989288D01*
X+1454224Y+4963534D01*
X+1480142Y+4944042D01*
X+1506060Y+4931470D01*
X+1531978Y+4924134D01*
X+1557896Y+4921306D01*
X+1562100Y+4921250D01*
X+1720850Y+5080000D02*
X+1720320Y+5067042D01*
X+1716016Y+5041124D01*
X+1707025Y+5015206D01*
X+1692380Y+4989288D01*
X+1669976Y+4963534D01*
X+1644058Y+4944042D01*
X+1618140Y+4931470D01*
X+1592222Y+4924134D01*
X+1566304Y+4921306D01*
X+1562100Y+4921250D01*
X+1720850Y+254000D02*
X+1720320Y+266958D01*
X+1716016Y+292876D01*
X+1707025Y+318794D01*
X+1692380Y+344712D01*
X+1669976Y+370466D01*
X+1644058Y+389958D01*
X+1618140Y+402530D01*
X+1592222Y+409866D01*
X+1566304Y+412694D01*
X+1562100Y+412750D01*
X+1403350Y+254000D02*
X+1403880Y+266958D01*
X+1408184Y+292876D01*
X+1417175Y+318794D01*
X+1431820Y+344712D01*
X+1454224Y+370466D01*
X+1480142Y+389958D01*
X+1506060Y+402530D01*
X+1531978Y+409866D01*
X+1557896Y+412694D01*
X+1562100Y+412750D01*
X+1403350Y+254000D02*
X+1403880Y+241042D01*
X+1408184Y+215124D01*
X+1417175Y+189206D01*
X+1431820Y+163288D01*
X+1454224Y+137534D01*
X+1480142Y+118042D01*
X+1506060Y+105470D01*
X+1531978Y+98134D01*
X+1557896Y+95306D01*
X+1562100Y+95250D01*
X+1720850Y+254000D02*
X+1720320Y+241042D01*
X+1716016Y+215124D01*
X+1707025Y+189206D01*
X+1692380Y+163288D01*
X+1669976Y+137534D01*
X+1644058Y+118042D01*
X+1618140Y+105470D01*
X+1592222Y+98134D01*
X+1566304Y+95306D01*
X+1562100Y+95250D01*
X+127000Y+0D02*
X+101032Y+2527D01*
X+77018Y+9798D01*
X+55423Y+21347D01*
X+36711Y+36711D01*
X+21348Y+55423D01*
X+9798Y+77018D01*
X+2527Y+101032D01*
X+0Y+127000D01*
X+0Y+5207000D01*
X+2527Y+5232967D01*
X+9798Y+5256981D01*
X+21348Y+5278577D01*
X+36711Y+5297289D01*
X+55423Y+5312652D01*
X+77018Y+5324202D01*
X+101032Y+5331473D01*
X+127000Y+5334000D01*
X+6515100Y+5334000D01*
X+6642100Y+5207000D01*
X+6642100Y+4064000D01*
X+6896100Y+3810000D01*
X+6896100Y+508000D01*
X+6642100Y+254000D01*
X+6642100Y+127000D01*
X+6639573Y+101032D01*
X+6632302Y+77018D01*
X+6620752Y+55423D01*
X+6605389Y+36711D01*
X+6586677Y+21347D01*
X+6565081Y+9798D01*
X+6541067Y+2527D01*
X+6515100Y+0D01*
X+127000Y+0D01*
X+486650Y+2352700D02*
X+486547Y+2355189D01*
X+485705Y+2360169D01*
X+483945Y+2365149D01*
X+481068Y+2370129D01*
X+476667Y+2375045D01*
X+471687Y+2378659D01*
X+466707Y+2380964D01*
X+461727Y+2382267D01*
X+456747Y+2382700D01*
X+456650Y+2382700D01*
X+426650Y+2352700D02*
X+426753Y+2355189D01*
X+427595Y+2360169D01*
X+429355Y+2365149D01*
X+432232Y+2370129D01*
X+436633Y+2375045D01*
X+441613Y+2378659D01*
X+446593Y+2380964D01*
X+451573Y+2382267D01*
X+456553Y+2382700D01*
X+456650Y+2382700D01*
X+426650Y+2352700D02*
X+426753Y+2350211D01*
X+427595Y+2345231D01*
X+429355Y+2340251D01*
X+432232Y+2335271D01*
X+436633Y+2330355D01*
X+441613Y+2326741D01*
X+446593Y+2324436D01*
X+451573Y+2323133D01*
X+456553Y+2322700D01*
X+456650Y+2322700D01*
X+486650Y+2352700D02*
X+486547Y+2350211D01*
X+485705Y+2345231D01*
X+483945Y+2340251D01*
X+481068Y+2335271D01*
X+476667Y+2330355D01*
X+471687Y+2326741D01*
X+466707Y+2324436D01*
X+461727Y+2323133D01*
X+456747Y+2322700D01*
X+456650Y+2322700D01*
X+486650Y+2752700D02*
X+486547Y+2755189D01*
X+485705Y+2760169D01*
X+483945Y+2765149D01*
X+481068Y+2770129D01*
X+476667Y+2775045D01*
X+471687Y+2778659D01*
X+466707Y+2780964D01*
X+461727Y+2782267D01*
X+456747Y+2782700D01*
X+456650Y+2782700D01*
X+426650Y+2752700D02*
X+426753Y+2755189D01*
X+427595Y+2760169D01*
X+429355Y+2765149D01*
X+432232Y+2770129D01*
X+436633Y+2775045D01*
X+441613Y+2778659D01*
X+446593Y+2780964D01*
X+451573Y+2782267D01*
X+456553Y+2782700D01*
X+456650Y+2782700D01*
X+426650Y+2752700D02*
X+426753Y+2750211D01*
X+427595Y+2745231D01*
X+429355Y+2740251D01*
X+432232Y+2735271D01*
X+436633Y+2730355D01*
X+441613Y+2726741D01*
X+446593Y+2724436D01*
X+451573Y+2723133D01*
X+456553Y+2722700D01*
X+456650Y+2722700D01*
X+486650Y+2752700D02*
X+486547Y+2750211D01*
X+485705Y+2745231D01*
X+483945Y+2740251D01*
X+481068Y+2735271D01*
X+476667Y+2730355D01*
X+471687Y+2726741D01*
X+466707Y+2724436D01*
X+461727Y+2723133D01*
X+456747Y+2722700D01*
X+456650Y+2722700D01*
D108*
X-133997Y-1258570D02*
X+2611743Y-1258570D01*
X+2611743Y-255270D01*
X-133997Y-255270D01*
X-133997Y-1258570D01*
D109*
X+333365Y-255270D02*
X+333365Y-1258570D01*
X+1247765Y-255270D02*
X+1247765Y-1258570D01*
X+2080885Y-255270D02*
X+2080885Y-1258570D01*
X-133997Y-528320D02*
X+2611743Y-528320D01*
X-133997Y-769620D02*
X+2611743Y-769620D01*
X-133997Y-1010920D02*
X+2611743Y-1010920D01*
D108*
X-76847Y-419100D02*
X-61607Y-434340D01*
X-647Y-434340D01*
X+14593Y-419100D01*
X+14593Y-403860D01*
X-647Y-388620D01*
X-61607Y-388620D01*
X-76847Y-373380D01*
X-76847Y-358140D01*
X-61607Y-342900D01*
X-647Y-342900D01*
X+14593Y-358140D01*
X+136513Y-342900D02*
X+45073Y-434340D01*
X+45073Y-342900D02*
X+90793Y-388620D01*
X+166993Y-434340D02*
X+166993Y-342900D01*
X+212713Y-388620D01*
X+258433Y-342900D01*
X+258433Y-434340D01*
X+390513Y-419100D02*
X+405753Y-434340D01*
X+466713Y-434340D01*
X+481953Y-419100D01*
X+481953Y-403860D01*
X+466713Y-388620D01*
X+405753Y-388620D01*
X+390513Y-373380D01*
X+390513Y-358140D01*
X+405753Y-342900D01*
X+466713Y-342900D01*
X+481953Y-358140D01*
X+527673Y-342900D02*
X+588633Y-342900D01*
X+558153Y-342900D02*
X+558153Y-434340D01*
X+527673Y-434340D02*
X+588633Y-434340D01*
X+634353Y-342900D02*
X+725793Y-342900D01*
X+634353Y-434340D01*
X+725793Y-434340D01*
X+847713Y-434340D02*
X+756273Y-434340D01*
X+756273Y-342900D01*
X+847713Y-342900D01*
X+756273Y-388620D02*
X+817233Y-388620D01*
X+1304913Y-434340D02*
X+1304913Y-342900D01*
X+1381113Y-342900D01*
X+1396353Y-358140D01*
X+1396353Y-373380D01*
X+1381113Y-388620D01*
X+1304913Y-388620D01*
X+1426833Y-342900D02*
X+1426833Y-434340D01*
X+1518273Y-434340D01*
X+1548753Y-434340D02*
X+1548753Y-373380D01*
X+1579233Y-342900D01*
X+1609713Y-342900D01*
X+1640193Y-373380D01*
X+1640193Y-434340D01*
X+1548753Y-403860D02*
X+1640193Y-403860D01*
X+1670673Y-342900D02*
X+1762113Y-342900D01*
X+1716393Y-342900D02*
X+1716393Y-434340D01*
X+1884033Y-434340D02*
X+1792593Y-434340D01*
X+1792593Y-342900D01*
X+1884033Y-342900D01*
X+1792593Y-388620D02*
X+1853553Y-388620D01*
X+1914513Y-434340D02*
X+1914513Y-342900D01*
X+1975473Y-342900D01*
X+2005953Y-373380D01*
X+2005953Y-403860D01*
X+1975473Y-434340D01*
X+1914513Y-434340D01*
X+2138033Y-373380D02*
X+2168513Y-342900D01*
X+2198993Y-342900D01*
X+2229473Y-373380D01*
X+2229473Y-403860D01*
X+2198993Y-434340D01*
X+2168513Y-434340D01*
X+2138033Y-403860D01*
X+2138033Y-373380D01*
X+2198993Y-403860D02*
X+2229473Y-434340D01*
X+2259953Y-342900D02*
X+2351393Y-342900D01*
X+2305673Y-342900D02*
X+2305673Y-434340D01*
X+2473313Y-342900D02*
X+2381873Y-434340D01*
X+2381873Y-342900D02*
X+2427593Y-388620D01*
D45*
X+112383Y-579120D02*
X+112383Y-706120D01*
X+48883Y-642620D02*
X+175883Y-642620D01*
D108*
X+409563Y-668020D02*
X+409563Y-617220D01*
X+422263Y-604520D01*
X+473063Y-604520D01*
X+485763Y-617220D01*
X+485763Y-668020D01*
X+473063Y-680720D01*
X+422263Y-680720D01*
X+409563Y-668020D01*
X+409563Y-680720D02*
X+485763Y-604520D01*
X+549263Y-668020D02*
X+561963Y-668020D01*
X+561963Y-680720D01*
X+549263Y-680720D01*
X+549263Y-668020D01*
X+688963Y-617220D02*
X+676263Y-604520D01*
X+638163Y-604520D01*
X+625463Y-617220D01*
X+625463Y-668020D01*
X+638163Y-680720D01*
X+676263Y-680720D01*
X+688963Y-668020D01*
X+688963Y-655320D01*
X+676263Y-642620D01*
X+625463Y-642620D01*
X+714363Y-680720D02*
X+714363Y-629920D01*
X+714363Y-642620D02*
X+727063Y-629920D01*
X+752463Y-655320D01*
X+777863Y-629920D01*
X+790563Y-642620D01*
X+790563Y-680720D01*
X+815963Y-680720D02*
X+815963Y-629920D01*
X+815963Y-642620D02*
X+828663Y-629920D01*
X+854063Y-655320D01*
X+879463Y-629920D01*
X+892163Y-642620D01*
X+892163Y-680720D01*
X+1412863Y-604520D02*
X+1336663Y-680720D01*
X+1336663Y-604520D02*
X+1374763Y-642620D01*
X+1514463Y-680720D02*
X+1438263Y-680720D01*
X+1438263Y-604520D01*
X+1514463Y-604520D01*
X+1438263Y-642620D02*
X+1489063Y-642620D01*
X+1539863Y-668020D02*
X+1552563Y-680720D01*
X+1603363Y-680720D01*
X+1616063Y-668020D01*
X+1616063Y-655320D01*
X+1603363Y-642620D01*
X+1552563Y-642620D01*
X+1539863Y-629920D01*
X+1539863Y-617220D01*
X+1552563Y-604520D01*
X+1603363Y-604520D01*
X+1616063Y-617220D01*
X+2258683Y-617220D02*
X+2245983Y-604520D01*
X+2207883Y-604520D01*
X+2195183Y-617220D01*
X+2195183Y-668020D01*
X+2207883Y-680720D01*
X+2245983Y-680720D01*
X+2258683Y-668020D01*
X+2258683Y-655320D01*
X+2245983Y-642620D01*
X+2195183Y-642620D01*
D45*
X+67482Y-839019D02*
X+157284Y-928821D01*
X+67482Y-928821D02*
X+157284Y-839019D01*
D108*
X+409563Y-909320D02*
X+409563Y-858520D01*
X+422263Y-845820D01*
X+473063Y-845820D01*
X+485763Y-858520D01*
X+485763Y-909320D01*
X+473063Y-922020D01*
X+422263Y-922020D01*
X+409563Y-909320D01*
X+409563Y-922020D02*
X+485763Y-845820D01*
X+549263Y-909320D02*
X+561963Y-909320D01*
X+561963Y-922020D01*
X+549263Y-922020D01*
X+549263Y-909320D01*
X+688963Y-871220D02*
X+676263Y-883920D01*
X+638163Y-883920D01*
X+625463Y-871220D01*
X+625463Y-858520D01*
X+638163Y-845820D01*
X+676263Y-845820D01*
X+688963Y-858520D01*
X+688963Y-909320D01*
X+676263Y-922020D01*
X+638163Y-922020D01*
X+790563Y-845820D02*
X+727063Y-845820D01*
X+727063Y-871220D01*
X+777863Y-871220D01*
X+790563Y-883920D01*
X+790563Y-909320D01*
X+777863Y-922020D01*
X+739763Y-922020D01*
X+727063Y-909320D01*
X+815963Y-922020D02*
X+815963Y-871220D01*
X+815963Y-883920D02*
X+828663Y-871220D01*
X+854063Y-896620D01*
X+879463Y-871220D01*
X+892163Y-883920D01*
X+892163Y-922020D01*
X+917563Y-922020D02*
X+917563Y-871220D01*
X+917563Y-883920D02*
X+930263Y-871220D01*
X+955663Y-896620D01*
X+981063Y-871220D01*
X+993763Y-883920D01*
X+993763Y-922020D01*
X+1412863Y-845820D02*
X+1336663Y-922020D01*
X+1336663Y-845820D02*
X+1374763Y-883920D01*
X+1514463Y-922020D02*
X+1438263Y-922020D01*
X+1438263Y-845820D01*
X+1514463Y-845820D01*
X+1438263Y-883920D02*
X+1489063Y-883920D01*
X+1539863Y-909320D02*
X+1552563Y-922020D01*
X+1603363Y-922020D01*
X+1616063Y-909320D01*
X+1616063Y-896620D01*
X+1603363Y-883920D01*
X+1552563Y-883920D01*
X+1539863Y-871220D01*
X+1539863Y-858520D01*
X+1552563Y-845820D01*
X+1603363Y-845820D01*
X+1616063Y-858520D01*
X+2195183Y-858520D02*
X+2207883Y-845820D01*
X+2245983Y-845820D01*
X+2258683Y-858520D01*
X+2258683Y-871220D01*
X+2245983Y-883920D01*
X+2258683Y-896620D01*
X+2258683Y-909320D01*
X+2245983Y-922020D01*
X+2207883Y-922020D01*
X+2195183Y-909320D01*
X+2220583Y-883920D02*
X+2245983Y-883920D01*
X+2360283Y-845820D02*
X+2296783Y-845820D01*
X+2296783Y-871220D01*
X+2347583Y-871220D01*
X+2360283Y-883920D01*
X+2360283Y-909320D01*
X+2347583Y-922020D01*
X+2309483Y-922020D01*
X+2296783Y-909320D01*
D45*
X+112383Y-1061720D02*
X+112383Y-1188720D01*
X+48883Y-1125220D02*
X+175883Y-1125220D01*
X+67482Y-1080319D02*
X+157284Y-1170121D01*
X+67482Y-1170121D02*
X+157284Y-1080319D01*
D108*
X+409563Y-1150620D02*
X+409563Y-1099820D01*
X+422263Y-1087120D01*
X+473063Y-1087120D01*
X+485763Y-1099820D01*
X+485763Y-1150620D01*
X+473063Y-1163320D01*
X+422263Y-1163320D01*
X+409563Y-1150620D01*
X+409563Y-1163320D02*
X+485763Y-1087120D01*
X+549263Y-1150620D02*
X+561963Y-1150620D01*
X+561963Y-1163320D01*
X+549263Y-1163320D01*
X+549263Y-1150620D01*
X+625463Y-1099820D02*
X+638163Y-1087120D01*
X+676263Y-1087120D01*
X+688963Y-1099820D01*
X+688963Y-1112520D01*
X+676263Y-1125220D01*
X+688963Y-1137920D01*
X+688963Y-1150620D01*
X+676263Y-1163320D01*
X+638163Y-1163320D01*
X+625463Y-1150620D01*
X+650863Y-1125220D02*
X+676263Y-1125220D01*
X+714363Y-1150620D02*
X+714363Y-1099820D01*
X+727063Y-1087120D01*
X+777863Y-1087120D01*
X+790563Y-1099820D01*
X+790563Y-1150620D01*
X+777863Y-1163320D01*
X+727063Y-1163320D01*
X+714363Y-1150620D01*
X+714363Y-1163320D02*
X+790563Y-1087120D01*
X+892163Y-1137920D02*
X+815963Y-1137920D01*
X+866763Y-1087120D01*
X+866763Y-1163320D01*
X+942963Y-1125220D02*
X+930263Y-1112520D01*
X+930263Y-1099820D01*
X+942963Y-1087120D01*
X+981063Y-1087120D01*
X+993763Y-1099820D01*
X+993763Y-1112520D01*
X+981063Y-1125220D01*
X+942963Y-1125220D01*
X+930263Y-1137920D01*
X+930263Y-1150620D01*
X+942963Y-1163320D01*
X+981063Y-1163320D01*
X+993763Y-1150620D01*
X+993763Y-1137920D01*
X+981063Y-1125220D01*
X+1019163Y-1163320D02*
X+1019163Y-1112520D01*
X+1019163Y-1125220D02*
X+1031863Y-1112520D01*
X+1057263Y-1137920D01*
X+1082663Y-1112520D01*
X+1095363Y-1125220D01*
X+1095363Y-1163320D01*
X+1120763Y-1163320D02*
X+1120763Y-1112520D01*
X+1120763Y-1125220D02*
X+1133463Y-1112520D01*
X+1158863Y-1137920D01*
X+1184263Y-1112520D01*
X+1196963Y-1125220D01*
X+1196963Y-1163320D01*
X+1412863Y-1087120D02*
X+1336663Y-1163320D01*
X+1336663Y-1087120D02*
X+1374763Y-1125220D01*
X+1514463Y-1163320D02*
X+1438263Y-1163320D01*
X+1438263Y-1087120D01*
X+1514463Y-1087120D01*
X+1438263Y-1125220D02*
X+1489063Y-1125220D01*
X+1539863Y-1150620D02*
X+1552563Y-1163320D01*
X+1603363Y-1163320D01*
X+1616063Y-1150620D01*
X+1616063Y-1137920D01*
X+1603363Y-1125220D01*
X+1552563Y-1125220D01*
X+1539863Y-1112520D01*
X+1539863Y-1099820D01*
X+1552563Y-1087120D01*
X+1603363Y-1087120D01*
X+1616063Y-1099820D01*
X+2195183Y-1099820D02*
X+2207883Y-1087120D01*
X+2245983Y-1087120D01*
X+2258683Y-1099820D01*
X+2258683Y-1112520D01*
X+2245983Y-1125220D01*
X+2207883Y-1125220D01*
X+2195183Y-1137920D01*
X+2195183Y-1163320D01*
X+2258683Y-1163320D01*
X+2296783Y-1099820D02*
X+2309483Y-1087120D01*
X+2347583Y-1087120D01*
X+2360283Y-1099820D01*
X+2360283Y-1112520D01*
X+2347583Y-1125220D01*
X+2360283Y-1137920D01*
X+2360283Y-1150620D01*
X+2347583Y-1163320D01*
X+2309483Y-1163320D01*
X+2296783Y-1150620D01*
X+2322183Y-1125220D02*
X+2347583Y-1125220D01*
X+2461883Y-1087120D02*
X+2398383Y-1087120D01*
X+2398383Y-1112520D01*
X+2449183Y-1112520D01*
X+2461883Y-1125220D01*
X+2461883Y-1150620D01*
X+2449183Y-1163320D01*
X+2411083Y-1163320D01*
X+2398383Y-1150620D01*
M02*
