G04 PROTEUS RS274X GERBER FILE*
%FSLAX45Y45*%
%MOMM*%
G01*
%ADD48C,0.127000*%
%ADD46C,0.025400*%
%ADD125C,0.063500*%
D48*
X+5975950Y+2553500D02*
X+5975950Y+2426500D01*
X+5912450Y+2490000D02*
X+6039450Y+2490000D01*
X+5931049Y+2534901D02*
X+6020851Y+2445099D01*
X+5931049Y+2445099D02*
X+6020851Y+2534901D01*
X+6135950Y+3193500D02*
X+6135950Y+3066500D01*
X+6072450Y+3130000D02*
X+6199450Y+3130000D01*
X+6091049Y+3174901D02*
X+6180851Y+3085099D01*
X+6091049Y+3085099D02*
X+6180851Y+3174901D01*
X+5740400Y+2443500D02*
X+5740400Y+2316500D01*
X+5676900Y+2380000D02*
X+5803900Y+2380000D01*
X+5695499Y+2424901D02*
X+5785301Y+2335099D01*
X+5695499Y+2335099D02*
X+5785301Y+2424901D01*
X+1092200Y+2518500D02*
X+1092200Y+2391500D01*
X+1028700Y+2455000D02*
X+1155700Y+2455000D01*
X+1047299Y+2499901D02*
X+1137101Y+2410099D01*
X+1047299Y+2410099D02*
X+1137101Y+2499901D01*
X+1092240Y+2880800D02*
X+1092240Y+2753800D01*
X+1028740Y+2817300D02*
X+1155740Y+2817300D01*
X+1047339Y+2862201D02*
X+1137141Y+2772399D01*
X+1047339Y+2772399D02*
X+1137141Y+2862201D01*
X+1252200Y+2518500D02*
X+1252200Y+2391500D01*
X+1188700Y+2455000D02*
X+1315700Y+2455000D01*
X+1207299Y+2499901D02*
X+1297101Y+2410099D01*
X+1207299Y+2410099D02*
X+1297101Y+2499901D01*
X+1768100Y+2668700D02*
X+1768100Y+2541700D01*
X+1704600Y+2605200D02*
X+1831600Y+2605200D01*
X+1723199Y+2650101D02*
X+1813001Y+2560299D01*
X+1723199Y+2560299D02*
X+1813001Y+2650101D01*
X+2636610Y+2688700D02*
X+2636610Y+2561700D01*
X+2573110Y+2625200D02*
X+2700110Y+2625200D01*
X+2591709Y+2670101D02*
X+2681511Y+2580299D01*
X+2591709Y+2580299D02*
X+2681511Y+2670101D01*
X+2337560Y+2483700D02*
X+2337560Y+2356700D01*
X+2274060Y+2420200D02*
X+2401060Y+2420200D01*
X+2292659Y+2465101D02*
X+2382461Y+2375299D01*
X+2292659Y+2375299D02*
X+2382461Y+2465101D01*
X+2337560Y+3148350D02*
X+2337560Y+3021350D01*
X+2274060Y+3084850D02*
X+2401060Y+3084850D01*
X+2292659Y+3129751D02*
X+2382461Y+3039949D01*
X+2292659Y+3039949D02*
X+2382461Y+3129751D01*
X+1130300Y+635000D02*
X+1130300Y+508000D01*
X+1066800Y+571500D02*
X+1193800Y+571500D01*
X+1085399Y+616401D02*
X+1175201Y+526599D01*
X+1085399Y+526599D02*
X+1175201Y+616401D01*
X+1193800Y+793750D02*
X+1193800Y+666750D01*
X+1130300Y+730250D02*
X+1257300Y+730250D01*
X+1148899Y+775151D02*
X+1238701Y+685349D01*
X+1148899Y+685349D02*
X+1238701Y+775151D01*
X+387700Y+501600D02*
X+387700Y+374600D01*
X+324200Y+438100D02*
X+451200Y+438100D01*
X+342799Y+483001D02*
X+432601Y+393199D01*
X+342799Y+393199D02*
X+432601Y+483001D01*
X+241650Y+2221200D02*
X+241650Y+2094200D01*
X+178150Y+2157700D02*
X+305150Y+2157700D01*
X+196749Y+2202601D02*
X+286551Y+2112799D01*
X+196749Y+2112799D02*
X+286551Y+2202601D01*
X+486650Y+2281200D02*
X+486650Y+2154200D01*
X+423150Y+2217700D02*
X+550150Y+2217700D01*
X+441749Y+2262601D02*
X+531551Y+2172799D01*
X+441749Y+2172799D02*
X+531551Y+2262601D01*
X+1257762Y+952338D02*
X+1257762Y+825338D01*
X+1194262Y+888838D02*
X+1321262Y+888838D01*
X+1212861Y+933739D02*
X+1302663Y+843937D01*
X+1212861Y+843937D02*
X+1302663Y+933739D01*
X+4060650Y+2898150D02*
X+4060650Y+2771150D01*
X+3997150Y+2834650D02*
X+4124150Y+2834650D01*
X+4015749Y+2879551D02*
X+4105551Y+2789749D01*
X+4015749Y+2789749D02*
X+4105551Y+2879551D01*
X+1667825Y+3150025D02*
X+1667825Y+3023025D01*
X+1604325Y+3086525D02*
X+1731325Y+3086525D01*
X+1622924Y+3131426D02*
X+1712726Y+3041624D01*
X+1622924Y+3041624D02*
X+1712726Y+3131426D01*
X+1252200Y+3229700D02*
X+1252200Y+3102700D01*
X+1188700Y+3166200D02*
X+1315700Y+3166200D01*
X+1207299Y+3211101D02*
X+1297101Y+3121299D01*
X+1207299Y+3121299D02*
X+1297101Y+3211101D01*
X+1420700Y+3036350D02*
X+1420700Y+2909350D01*
X+1357200Y+2972850D02*
X+1484200Y+2972850D01*
X+1375799Y+3017751D02*
X+1465601Y+2927949D01*
X+1375799Y+2927949D02*
X+1465601Y+3017751D01*
X+485700Y+4008150D02*
X+485700Y+3881150D01*
X+422200Y+3944650D02*
X+549200Y+3944650D01*
X+440799Y+3989551D02*
X+530601Y+3899749D01*
X+440799Y+3899749D02*
X+530601Y+3989551D01*
X+486650Y+2951200D02*
X+486650Y+2824200D01*
X+423150Y+2887700D02*
X+550150Y+2887700D01*
X+441749Y+2932601D02*
X+531551Y+2842799D01*
X+441749Y+2842799D02*
X+531551Y+2932601D01*
X+241650Y+3011200D02*
X+241650Y+2884200D01*
X+178150Y+2947700D02*
X+305150Y+2947700D01*
X+196749Y+2992601D02*
X+286551Y+2902799D01*
X+196749Y+2902799D02*
X+286551Y+2992601D01*
X+1808100Y+3327250D02*
X+1808100Y+3200250D01*
X+1744600Y+3263750D02*
X+1871600Y+3263750D01*
X+1763199Y+3308651D02*
X+1853001Y+3218849D01*
X+1763199Y+3218849D02*
X+1853001Y+3308651D01*
X+485700Y+4761000D02*
X+485700Y+4634000D01*
X+422200Y+4697500D02*
X+549200Y+4697500D01*
X+440799Y+4742401D02*
X+530601Y+4652599D01*
X+440799Y+4652599D02*
X+530601Y+4742401D01*
X+5317700Y+3734842D02*
X+5317700Y+3607842D01*
X+5254200Y+3671342D02*
X+5381200Y+3671342D01*
X+5272799Y+3716243D02*
X+5362601Y+3626441D01*
X+5272799Y+3626441D02*
X+5362601Y+3716243D01*
X+5477700Y+3734842D02*
X+5477700Y+3607842D01*
X+5414200Y+3671342D02*
X+5541200Y+3671342D01*
X+5432799Y+3716243D02*
X+5522601Y+3626441D01*
X+5432799Y+3626441D02*
X+5522601Y+3716243D01*
X+5791200Y+2363500D02*
X+5791200Y+2236500D01*
X+5727700Y+2300000D02*
X+5854700Y+2300000D01*
X+5746299Y+2344901D02*
X+5836101Y+2255099D01*
X+5746299Y+2255099D02*
X+5836101Y+2344901D01*
X+1034450Y+4588600D02*
X+1034450Y+4461600D01*
X+970950Y+4525100D02*
X+1097950Y+4525100D01*
X+989549Y+4570001D02*
X+1079351Y+4480199D01*
X+989549Y+4480199D02*
X+1079351Y+4570001D01*
X+1808100Y+3149450D02*
X+1808100Y+3022450D01*
X+1744600Y+3085950D02*
X+1871600Y+3085950D01*
X+1763199Y+3130851D02*
X+1853001Y+3041049D01*
X+1763199Y+3041049D02*
X+1853001Y+3130851D01*
X+1768100Y+2200650D02*
X+1768100Y+2073650D01*
X+1704600Y+2137150D02*
X+1831600Y+2137150D01*
X+1723199Y+2182051D02*
X+1813001Y+2092249D01*
X+1723199Y+2092249D02*
X+1813001Y+2182051D01*
X+1252200Y+2391500D02*
X+1252200Y+2264500D01*
X+1188700Y+2328000D02*
X+1315700Y+2328000D01*
X+1207299Y+2372901D02*
X+1297101Y+2283099D01*
X+1207299Y+2283099D02*
X+1297101Y+2372901D01*
X+744200Y+4048850D02*
X+744200Y+3921850D01*
X+680700Y+3985350D02*
X+807700Y+3985350D01*
X+699299Y+4030251D02*
X+789101Y+3940449D01*
X+699299Y+3940449D02*
X+789101Y+4030251D01*
X+896600Y+4048850D02*
X+896600Y+3921850D01*
X+833100Y+3985350D02*
X+960100Y+3985350D01*
X+851699Y+4030251D02*
X+941501Y+3940449D01*
X+851699Y+3940449D02*
X+941501Y+4030251D01*
X+690880Y+3834220D02*
X+690880Y+3707220D01*
X+627380Y+3770720D02*
X+754380Y+3770720D01*
X+645979Y+3815621D02*
X+735781Y+3725819D01*
X+645979Y+3725819D02*
X+735781Y+3815621D01*
X+4778000Y+3656100D02*
X+4778000Y+3529100D01*
X+4714500Y+3592600D02*
X+4841500Y+3592600D01*
X+4733099Y+3637501D02*
X+4822901Y+3547699D01*
X+4733099Y+3547699D02*
X+4822901Y+3637501D01*
X+5178050Y+3478300D02*
X+5178050Y+3351300D01*
X+5114550Y+3414800D02*
X+5241550Y+3414800D01*
X+5133149Y+3459701D02*
X+5222951Y+3369899D01*
X+5133149Y+3369899D02*
X+5222951Y+3459701D01*
X+5058000Y+4035492D02*
X+5058000Y+3908492D01*
X+4994500Y+3971992D02*
X+5121500Y+3971992D01*
X+5013099Y+4016893D02*
X+5102901Y+3927091D01*
X+5013099Y+3927091D02*
X+5102901Y+4016893D01*
X+4600400Y+2842300D02*
X+4600400Y+2715300D01*
X+4536900Y+2778800D02*
X+4663900Y+2778800D01*
X+4555499Y+2823701D02*
X+4645301Y+2733899D01*
X+4555499Y+2733899D02*
X+4645301Y+2823701D01*
X+4600400Y+2645450D02*
X+4600400Y+2518450D01*
X+4536900Y+2581950D02*
X+4663900Y+2581950D01*
X+4555499Y+2626851D02*
X+4645301Y+2537049D01*
X+4555499Y+2537049D02*
X+4645301Y+2626851D01*
X+4600400Y+2283500D02*
X+4600400Y+2156500D01*
X+4536900Y+2220000D02*
X+4663900Y+2220000D01*
X+4555499Y+2264901D02*
X+4645301Y+2175099D01*
X+4555499Y+2175099D02*
X+4645301Y+2264901D01*
X+5740400Y+3050500D02*
X+5740400Y+2923500D01*
X+5676900Y+2987000D02*
X+5803900Y+2987000D01*
X+5695499Y+3031901D02*
X+5785301Y+2942099D01*
X+5695499Y+2942099D02*
X+5785301Y+3031901D01*
X+2636610Y+2587100D02*
X+2636610Y+2460100D01*
X+2573110Y+2523600D02*
X+2700110Y+2523600D01*
X+2591709Y+2568501D02*
X+2681511Y+2478699D01*
X+2591709Y+2478699D02*
X+2681511Y+2568501D01*
X+4778000Y+2185900D02*
X+4778000Y+2058900D01*
X+4714500Y+2122400D02*
X+4841500Y+2122400D01*
X+4733099Y+2167301D02*
X+4822901Y+2077499D01*
X+4733099Y+2077499D02*
X+4822901Y+2167301D01*
X+4938000Y+2185900D02*
X+4938000Y+2058900D01*
X+4874500Y+2122400D02*
X+5001500Y+2122400D01*
X+4893099Y+2167301D02*
X+4982901Y+2077499D01*
X+4893099Y+2077499D02*
X+4982901Y+2167301D01*
X+4858000Y+2236700D02*
X+4858000Y+2109700D01*
X+4794500Y+2173200D02*
X+4921500Y+2173200D01*
X+4813099Y+2218101D02*
X+4902901Y+2128299D01*
X+4813099Y+2128299D02*
X+4902901Y+2218101D01*
X+1399800Y+2200650D02*
X+1399800Y+2073650D01*
X+1336300Y+2137150D02*
X+1463300Y+2137150D01*
X+1354899Y+2182051D02*
X+1444701Y+2092249D01*
X+1354899Y+2092249D02*
X+1444701Y+2182051D01*
X+2636610Y+2491850D02*
X+2636610Y+2364850D01*
X+2573110Y+2428350D02*
X+2700110Y+2428350D01*
X+2591709Y+2473251D02*
X+2681511Y+2383449D01*
X+2591709Y+2383449D02*
X+2681511Y+2473251D01*
X+2648820Y+3149450D02*
X+2648820Y+3022450D01*
X+2585320Y+3085950D02*
X+2712320Y+3085950D01*
X+2603919Y+3130851D02*
X+2693721Y+3041049D01*
X+2603919Y+3041049D02*
X+2693721Y+3130851D01*
X+1521775Y+3162725D02*
X+1521775Y+3035725D01*
X+1458275Y+3099225D02*
X+1585275Y+3099225D01*
X+1476874Y+3144126D02*
X+1566676Y+3054324D01*
X+1476874Y+3054324D02*
X+1566676Y+3144126D01*
X+2488820Y+3149450D02*
X+2488820Y+3022450D01*
X+2425320Y+3085950D02*
X+2552320Y+3085950D01*
X+2443919Y+3130851D02*
X+2533721Y+3041049D01*
X+2443919Y+3041049D02*
X+2533721Y+3130851D01*
X+4667250Y+4032250D02*
X+4667250Y+3905250D01*
X+4603750Y+3968750D02*
X+4730750Y+3968750D01*
X+4622349Y+4013651D02*
X+4712151Y+3923849D01*
X+4622349Y+3923849D02*
X+4712151Y+4013651D01*
X+4858000Y+3338600D02*
X+4858000Y+3211600D01*
X+4794500Y+3275100D02*
X+4921500Y+3275100D01*
X+4813099Y+3320001D02*
X+4902901Y+3230199D01*
X+4813099Y+3230199D02*
X+4902901Y+3320001D01*
X+4543300Y+3478300D02*
X+4543300Y+3351300D01*
X+4479800Y+3414800D02*
X+4606800Y+3414800D01*
X+4498399Y+3459701D02*
X+4588201Y+3369899D01*
X+4498399Y+3369899D02*
X+4588201Y+3459701D01*
X+2445470Y+1329020D02*
X+2445470Y+1202020D01*
X+2381970Y+1265520D02*
X+2508970Y+1265520D01*
X+2400569Y+1310421D02*
X+2490371Y+1220619D01*
X+2400569Y+1220619D02*
X+2490371Y+1310421D01*
X+5889310Y+1918500D02*
X+5889310Y+1791500D01*
X+5825810Y+1855000D02*
X+5952810Y+1855000D01*
X+5844409Y+1899901D02*
X+5934211Y+1810099D01*
X+5844409Y+1810099D02*
X+5934211Y+1899901D01*
X+3454400Y+717550D02*
X+3454400Y+590550D01*
X+3390900Y+654050D02*
X+3517900Y+654050D01*
X+3409499Y+698951D02*
X+3499301Y+609149D01*
X+3409499Y+609149D02*
X+3499301Y+698951D01*
X+1420175Y+3162725D02*
X+1420175Y+3035725D01*
X+1356675Y+3099225D02*
X+1483675Y+3099225D01*
X+1375274Y+3144126D02*
X+1465076Y+3054324D01*
X+1375274Y+3054324D02*
X+1465076Y+3144126D01*
X+4238450Y+2203500D02*
X+4238450Y+2076500D01*
X+4174950Y+2140000D02*
X+4301950Y+2140000D01*
X+4193549Y+2184901D02*
X+4283351Y+2095099D01*
X+4193549Y+2095099D02*
X+4283351Y+2184901D01*
X+4238450Y+2015500D02*
X+4238450Y+1888500D01*
X+4174950Y+1952000D02*
X+4301950Y+1952000D01*
X+4193549Y+1996901D02*
X+4283351Y+1907099D01*
X+4193549Y+1907099D02*
X+4283351Y+1996901D01*
X+1488700Y+2149850D02*
X+1488700Y+2022850D01*
X+1425200Y+2086350D02*
X+1552200Y+2086350D01*
X+1443799Y+2131251D02*
X+1533601Y+2041449D01*
X+1443799Y+2041449D02*
X+1533601Y+2131251D01*
X+4325070Y+1189320D02*
X+4325070Y+1062320D01*
X+4261570Y+1125820D02*
X+4388570Y+1125820D01*
X+4280169Y+1170721D02*
X+4369971Y+1080919D01*
X+4280169Y+1080919D02*
X+4369971Y+1170721D01*
X+1317250Y+2149850D02*
X+1317250Y+2022850D01*
X+1253750Y+2086350D02*
X+1380750Y+2086350D01*
X+1272349Y+2131251D02*
X+1362151Y+2041449D01*
X+1272349Y+2041449D02*
X+1362151Y+2131251D01*
X+3550370Y+1189320D02*
X+3550370Y+1062320D01*
X+3486870Y+1125820D02*
X+3613870Y+1125820D01*
X+3505469Y+1170721D02*
X+3595271Y+1080919D01*
X+3505469Y+1080919D02*
X+3595271Y+1170721D01*
X+3390370Y+1189320D02*
X+3390370Y+1062320D01*
X+3326870Y+1125820D02*
X+3453870Y+1125820D01*
X+3345469Y+1170721D02*
X+3435271Y+1080919D01*
X+3345469Y+1080919D02*
X+3435271Y+1170721D01*
X+3937720Y+1189320D02*
X+3937720Y+1062320D01*
X+3874220Y+1125820D02*
X+4001220Y+1125820D01*
X+3892819Y+1170721D02*
X+3982621Y+1080919D01*
X+3892819Y+1080919D02*
X+3982621Y+1170721D01*
X+1939550Y+2149850D02*
X+1939550Y+2022850D01*
X+1876050Y+2086350D02*
X+2003050Y+2086350D01*
X+1894649Y+2131251D02*
X+1984451Y+2041449D01*
X+1894649Y+2041449D02*
X+1984451Y+2131251D01*
X+2009400Y+2219700D02*
X+2009400Y+2092700D01*
X+1945900Y+2156200D02*
X+2072900Y+2156200D01*
X+1964499Y+2201101D02*
X+2054301Y+2111299D01*
X+1964499Y+2111299D02*
X+2054301Y+2201101D01*
X+1808100Y+3492350D02*
X+1808100Y+3365350D01*
X+1744600Y+3428850D02*
X+1871600Y+3428850D01*
X+1763199Y+3473751D02*
X+1853001Y+3383949D01*
X+1763199Y+3383949D02*
X+1853001Y+3473751D01*
X+5098000Y+3021100D02*
X+5098000Y+2894100D01*
X+5034500Y+2957600D02*
X+5161500Y+2957600D01*
X+5053099Y+3002501D02*
X+5142901Y+2912699D01*
X+5053099Y+2912699D02*
X+5142901Y+3002501D01*
X+4060650Y+3310900D02*
X+4060650Y+3183900D01*
X+3997150Y+3247400D02*
X+4124150Y+3247400D01*
X+4015749Y+3292301D02*
X+4105551Y+3202499D01*
X+4015749Y+3202499D02*
X+4105551Y+3292301D01*
X+2235200Y+2070100D02*
X+2235200Y+1943100D01*
X+2171700Y+2006600D02*
X+2298700Y+2006600D01*
X+2190299Y+2051501D02*
X+2280101Y+1961699D01*
X+2190299Y+1961699D02*
X+2280101Y+2051501D01*
X+5258000Y+3021100D02*
X+5258000Y+2894100D01*
X+5194500Y+2957600D02*
X+5321500Y+2957600D01*
X+5213099Y+3002501D02*
X+5302901Y+2912699D01*
X+5213099Y+2912699D02*
X+5302901Y+3002501D01*
X+6439100Y+4881650D02*
X+6439100Y+4754650D01*
X+6375600Y+4818150D02*
X+6502600Y+4818150D01*
X+6394199Y+4863051D02*
X+6484001Y+4773249D01*
X+6394199Y+4773249D02*
X+6484001Y+4863051D01*
X+3086100Y+717550D02*
X+3086100Y+590550D01*
X+3022600Y+654050D02*
X+3149600Y+654050D01*
X+3041199Y+698951D02*
X+3131001Y+609149D01*
X+3041199Y+609149D02*
X+3131001Y+698951D01*
X+1492830Y+749900D02*
X+1492830Y+622900D01*
X+1429330Y+686400D02*
X+1556330Y+686400D01*
X+1447929Y+731301D02*
X+1537731Y+641499D01*
X+1447929Y+641499D02*
X+1537731Y+731301D01*
X+4257500Y+2999700D02*
X+4257500Y+2872700D01*
X+4194000Y+2936200D02*
X+4321000Y+2936200D01*
X+4212599Y+2981101D02*
X+4302401Y+2891299D01*
X+4212599Y+2891299D02*
X+4302401Y+2981101D01*
X+4543300Y+3605300D02*
X+4543300Y+3478300D01*
X+4479800Y+3541800D02*
X+4606800Y+3541800D01*
X+4498399Y+3586701D02*
X+4588201Y+3496899D01*
X+4498399Y+3496899D02*
X+4588201Y+3586701D01*
X+5018000Y+2236700D02*
X+5018000Y+2109700D01*
X+4954500Y+2173200D02*
X+5081500Y+2173200D01*
X+4973099Y+2218101D02*
X+5062901Y+2128299D01*
X+4973099Y+2128299D02*
X+5062901Y+2218101D01*
X+4257500Y+2894300D02*
X+4257500Y+2767300D01*
X+4194000Y+2830800D02*
X+4321000Y+2830800D01*
X+4212599Y+2875701D02*
X+4302401Y+2785899D01*
X+4212599Y+2785899D02*
X+4302401Y+2875701D01*
X+5190700Y+4156142D02*
X+5190700Y+4029142D01*
X+5127200Y+4092642D02*
X+5254200Y+4092642D01*
X+5145799Y+4137543D02*
X+5235601Y+4047741D01*
X+5145799Y+4047741D02*
X+5235601Y+4137543D01*
X+4333500Y+3605300D02*
X+4333500Y+3478300D01*
X+4270000Y+3541800D02*
X+4397000Y+3541800D01*
X+4288599Y+3586701D02*
X+4378401Y+3496899D01*
X+4288599Y+3496899D02*
X+4378401Y+3586701D01*
X+4698000Y+3338600D02*
X+4698000Y+3211600D01*
X+4634500Y+3275100D02*
X+4761500Y+3275100D01*
X+4653099Y+3320001D02*
X+4742901Y+3230199D01*
X+4653099Y+3230199D02*
X+4742901Y+3320001D01*
X+5702300Y+1841500D02*
X+5702300Y+1714500D01*
X+5638800Y+1778000D02*
X+5765800Y+1778000D01*
X+5657399Y+1822901D02*
X+5747201Y+1733099D01*
X+5657399Y+1733099D02*
X+5747201Y+1822901D01*
X+5081500Y+3338600D02*
X+5081500Y+3211600D01*
X+5018000Y+3275100D02*
X+5145000Y+3275100D01*
X+5036599Y+3320001D02*
X+5126401Y+3230199D01*
X+5036599Y+3230199D02*
X+5126401Y+3320001D01*
X+4988800Y+3338600D02*
X+4988800Y+3211600D01*
X+4925300Y+3275100D02*
X+5052300Y+3275100D01*
X+4943899Y+3320001D02*
X+5033701Y+3230199D01*
X+4943899Y+3230199D02*
X+5033701Y+3320001D01*
X+4543300Y+3732300D02*
X+4543300Y+3605300D01*
X+4479800Y+3668800D02*
X+4606800Y+3668800D01*
X+4498399Y+3713701D02*
X+4588201Y+3623899D01*
X+4498399Y+3623899D02*
X+4588201Y+3713701D01*
X+4203700Y+4889500D02*
X+4203700Y+4762500D01*
X+4140200Y+4826000D02*
X+4267200Y+4826000D01*
X+4158799Y+4870901D02*
X+4248601Y+4781099D01*
X+4158799Y+4781099D02*
X+4248601Y+4870901D01*
X+4969100Y+4035492D02*
X+4969100Y+3908492D01*
X+4905600Y+3971992D02*
X+5032600Y+3971992D01*
X+4924199Y+4016893D02*
X+5014001Y+3927091D01*
X+4924199Y+3927091D02*
X+5014001Y+4016893D01*
X+3550370Y+1779870D02*
X+3550370Y+1652870D01*
X+3486870Y+1716370D02*
X+3613870Y+1716370D01*
X+3505469Y+1761271D02*
X+3595271Y+1671469D01*
X+3505469Y+1671469D02*
X+3595271Y+1761271D01*
X+5080000Y+2400300D02*
X+5080000Y+2273300D01*
X+5016500Y+2336800D02*
X+5143500Y+2336800D01*
X+5035099Y+2381701D02*
X+5124901Y+2291899D01*
X+5035099Y+2291899D02*
X+5124901Y+2381701D01*
X+4689300Y+2283500D02*
X+4689300Y+2156500D01*
X+4625800Y+2220000D02*
X+4752800Y+2220000D01*
X+4644399Y+2264901D02*
X+4734201Y+2175099D01*
X+4644399Y+2175099D02*
X+4734201Y+2264901D01*
X+3900650Y+2733050D02*
X+3900650Y+2606050D01*
X+3837150Y+2669550D02*
X+3964150Y+2669550D01*
X+3855749Y+2714451D02*
X+3945551Y+2624649D01*
X+3855749Y+2624649D02*
X+3945551Y+2714451D01*
X+2235200Y+1968943D02*
X+2235200Y+1841943D01*
X+2171700Y+1905443D02*
X+2298700Y+1905443D01*
X+2190299Y+1950344D02*
X+2280101Y+1860542D01*
X+2190299Y+1860542D02*
X+2280101Y+1950344D01*
X+2413000Y+1949450D02*
X+2413000Y+1822450D01*
X+2349500Y+1885950D02*
X+2476500Y+1885950D01*
X+2368099Y+1930851D02*
X+2457901Y+1841049D01*
X+2368099Y+1841049D02*
X+2457901Y+1930851D01*
X+3900650Y+1888500D02*
X+3900650Y+1761500D01*
X+3837150Y+1825000D02*
X+3964150Y+1825000D01*
X+3855749Y+1869901D02*
X+3945551Y+1780099D01*
X+3855749Y+1780099D02*
X+3945551Y+1869901D01*
X+2664700Y+2200650D02*
X+2664700Y+2073650D01*
X+2601200Y+2137150D02*
X+2728200Y+2137150D01*
X+2619799Y+2182051D02*
X+2709601Y+2092249D01*
X+2619799Y+2092249D02*
X+2709601Y+2182051D01*
X+4060650Y+2359400D02*
X+4060650Y+2232400D01*
X+3997150Y+2295900D02*
X+4124150Y+2295900D01*
X+4015749Y+2340801D02*
X+4105551Y+2250999D01*
X+4015749Y+2250999D02*
X+4105551Y+2340801D01*
X+4060650Y+2733050D02*
X+4060650Y+2606050D01*
X+3997150Y+2669550D02*
X+4124150Y+2669550D01*
X+4015749Y+2714451D02*
X+4105551Y+2624649D01*
X+4015749Y+2624649D02*
X+4105551Y+2714451D01*
X+4448000Y+2603500D02*
X+4448000Y+2476500D01*
X+4384500Y+2540000D02*
X+4511500Y+2540000D01*
X+4403099Y+2584901D02*
X+4492901Y+2495099D01*
X+4403099Y+2495099D02*
X+4492901Y+2584901D01*
X+2911100Y+4827675D02*
X+2911100Y+4700675D01*
X+2847600Y+4764175D02*
X+2974600Y+4764175D01*
X+2866199Y+4809076D02*
X+2956001Y+4719274D01*
X+2866199Y+4719274D02*
X+2956001Y+4809076D01*
X+2974600Y+4894350D02*
X+2974600Y+4767350D01*
X+2911100Y+4830850D02*
X+3038100Y+4830850D01*
X+2929699Y+4875751D02*
X+3019501Y+4785949D01*
X+2929699Y+4785949D02*
X+3019501Y+4875751D01*
X+1321450Y+4753700D02*
X+1321450Y+4626700D01*
X+1257950Y+4690200D02*
X+1384950Y+4690200D01*
X+1276549Y+4735101D02*
X+1366351Y+4645299D01*
X+1276549Y+4645299D02*
X+1366351Y+4735101D01*
X+3965200Y+3732300D02*
X+3965200Y+3605300D01*
X+3901700Y+3668800D02*
X+4028700Y+3668800D01*
X+3920299Y+3713701D02*
X+4010101Y+3623899D01*
X+3920299Y+3623899D02*
X+4010101Y+3713701D01*
X+3086100Y+806450D02*
X+3086100Y+679450D01*
X+3022600Y+742950D02*
X+3149600Y+742950D01*
X+3041199Y+787851D02*
X+3131001Y+698049D01*
X+3041199Y+698049D02*
X+3131001Y+787851D01*
X+1706190Y+749900D02*
X+1706190Y+622900D01*
X+1642690Y+686400D02*
X+1769690Y+686400D01*
X+1661289Y+731301D02*
X+1751091Y+641499D01*
X+1661289Y+641499D02*
X+1751091Y+731301D01*
X+1795090Y+749900D02*
X+1795090Y+622900D01*
X+1731590Y+686400D02*
X+1858590Y+686400D01*
X+1750189Y+731301D02*
X+1839991Y+641499D01*
X+1750189Y+641499D02*
X+1839991Y+731301D01*
X+4609100Y+3338600D02*
X+4609100Y+3211600D01*
X+4545600Y+3275100D02*
X+4672600Y+3275100D01*
X+4564199Y+3320001D02*
X+4654001Y+3230199D01*
X+4564199Y+3230199D02*
X+4654001Y+3320001D01*
X+6134100Y+571500D02*
X+6134100Y+444500D01*
X+6070600Y+508000D02*
X+6197600Y+508000D01*
X+6089199Y+552901D02*
X+6179001Y+463099D01*
X+6089199Y+463099D02*
X+6179001Y+552901D01*
X+4238499Y+2330500D02*
X+4238499Y+2203500D01*
X+4174999Y+2267000D02*
X+4301999Y+2267000D01*
X+4193598Y+2311901D02*
X+4283400Y+2222099D01*
X+4193598Y+2222099D02*
X+4283400Y+2311901D01*
X+4381500Y+2070100D02*
X+4381500Y+1943100D01*
X+4318000Y+2006600D02*
X+4445000Y+2006600D01*
X+4336599Y+2051501D02*
X+4426401Y+1961699D01*
X+4336599Y+1961699D02*
X+4426401Y+2051501D01*
X+254000Y+825500D02*
X+254000Y+698500D01*
X+190500Y+762000D02*
X+317500Y+762000D01*
X+209099Y+806901D02*
X+298901Y+717099D01*
X+209099Y+717099D02*
X+298901Y+806901D01*
X+254000Y+1346200D02*
X+254000Y+1219200D01*
X+190500Y+1282700D02*
X+317500Y+1282700D01*
X+209099Y+1327601D02*
X+298901Y+1237799D01*
X+209099Y+1237799D02*
X+298901Y+1327601D01*
X+1939550Y+1895850D02*
X+1939550Y+1768850D01*
X+1876050Y+1832350D02*
X+2003050Y+1832350D01*
X+1894649Y+1877251D02*
X+1984451Y+1787449D01*
X+1894649Y+1787449D02*
X+1984451Y+1877251D01*
X+4333500Y+3478300D02*
X+4333500Y+3351300D01*
X+4270000Y+3414800D02*
X+4397000Y+3414800D01*
X+4288599Y+3459701D02*
X+4378401Y+3369899D01*
X+4288599Y+3369899D02*
X+4378401Y+3459701D01*
X+5258000Y+2185900D02*
X+5258000Y+2058900D01*
X+5194500Y+2122400D02*
X+5321500Y+2122400D01*
X+5213099Y+2167301D02*
X+5302901Y+2077499D01*
X+5213099Y+2077499D02*
X+5302901Y+2167301D01*
X+4076700Y+5054600D02*
X+4076700Y+4927600D01*
X+4013200Y+4991100D02*
X+4140200Y+4991100D01*
X+4031799Y+5036001D02*
X+4121601Y+4946199D01*
X+4031799Y+4946199D02*
X+4121601Y+5036001D01*
X+3568700Y+5054600D02*
X+3568700Y+4927600D01*
X+3505200Y+4991100D02*
X+3632200Y+4991100D01*
X+3523799Y+5036001D02*
X+3613601Y+4946199D01*
X+3523799Y+4946199D02*
X+3613601Y+5036001D01*
X+127000Y+190500D02*
X+127000Y+63500D01*
X+63500Y+127000D02*
X+190500Y+127000D01*
X+82099Y+171901D02*
X+171901Y+82099D01*
X+82099Y+82099D02*
X+171901Y+171901D01*
X+1352550Y+190500D02*
X+1352550Y+63500D01*
X+1289050Y+127000D02*
X+1416050Y+127000D01*
X+1307649Y+171901D02*
X+1397451Y+82099D01*
X+1307649Y+82099D02*
X+1397451Y+171901D01*
X+1844040Y+266700D02*
X+1844040Y+139700D01*
X+1780540Y+203200D02*
X+1907540Y+203200D01*
X+1799139Y+248101D02*
X+1888941Y+158299D01*
X+1799139Y+158299D02*
X+1888941Y+248101D01*
X+2574040Y+476700D02*
X+2574040Y+349700D01*
X+2510540Y+413200D02*
X+2637540Y+413200D01*
X+2529139Y+458101D02*
X+2618941Y+368299D01*
X+2529139Y+368299D02*
X+2618941Y+458101D01*
X+2574040Y+266700D02*
X+2574040Y+139700D01*
X+2510540Y+203200D02*
X+2637540Y+203200D01*
X+2529139Y+248101D02*
X+2618941Y+158299D01*
X+2529139Y+158299D02*
X+2618941Y+248101D01*
X+2959100Y+419100D02*
X+2959100Y+292100D01*
X+2895600Y+355600D02*
X+3022600Y+355600D01*
X+2914199Y+400501D02*
X+3004001Y+310699D01*
X+2914199Y+310699D02*
X+3004001Y+400501D01*
X+3213100Y+419100D02*
X+3213100Y+292100D01*
X+3149600Y+355600D02*
X+3276600Y+355600D01*
X+3168199Y+400501D02*
X+3258001Y+310699D01*
X+3168199Y+310699D02*
X+3258001Y+400501D01*
X+3467100Y+419100D02*
X+3467100Y+292100D01*
X+3403600Y+355600D02*
X+3530600Y+355600D01*
X+3422199Y+400501D02*
X+3512001Y+310699D01*
X+3422199Y+310699D02*
X+3512001Y+400501D01*
X+2159000Y+635000D02*
X+2159000Y+508000D01*
X+2095500Y+571500D02*
X+2222500Y+571500D01*
X+2114099Y+616401D02*
X+2203901Y+526599D01*
X+2114099Y+526599D02*
X+2203901Y+616401D01*
X+1546190Y+927700D02*
X+1546190Y+800700D01*
X+1482690Y+864200D02*
X+1609690Y+864200D01*
X+1501289Y+909101D02*
X+1591091Y+819299D01*
X+1501289Y+819299D02*
X+1591091Y+909101D01*
X+1130300Y+488950D02*
X+1130300Y+361950D01*
X+1066800Y+425450D02*
X+1193800Y+425450D01*
X+1085399Y+470351D02*
X+1175201Y+380549D01*
X+1085399Y+380549D02*
X+1175201Y+470351D01*
X+996950Y+381000D02*
X+996950Y+254000D01*
X+933450Y+317500D02*
X+1060450Y+317500D01*
X+952049Y+362401D02*
X+1041851Y+272599D01*
X+952049Y+272599D02*
X+1041851Y+362401D01*
X+241650Y+496600D02*
X+241650Y+369600D01*
X+178150Y+433100D02*
X+305150Y+433100D01*
X+196749Y+478001D02*
X+286551Y+388199D01*
X+196749Y+388199D02*
X+286551Y+478001D01*
X+622300Y+635000D02*
X+622300Y+508000D01*
X+558800Y+571500D02*
X+685800Y+571500D01*
X+577399Y+616401D02*
X+667201Y+526599D01*
X+577399Y+526599D02*
X+667201Y+616401D01*
X+876300Y+889000D02*
X+876300Y+762000D01*
X+812800Y+825500D02*
X+939800Y+825500D01*
X+831399Y+870401D02*
X+921201Y+780599D01*
X+831399Y+780599D02*
X+921201Y+870401D01*
X+1250950Y+2254250D02*
X+1250950Y+2127250D01*
X+1187450Y+2190750D02*
X+1314450Y+2190750D01*
X+1206049Y+2235651D02*
X+1295851Y+2145849D01*
X+1206049Y+2145849D02*
X+1295851Y+2235651D01*
X+1638300Y+1143000D02*
X+1638300Y+1016000D01*
X+1574800Y+1079500D02*
X+1701800Y+1079500D01*
X+1593399Y+1124401D02*
X+1683201Y+1034599D01*
X+1593399Y+1034599D02*
X+1683201Y+1124401D01*
X+1384300Y+889000D02*
X+1384300Y+762000D01*
X+1320800Y+825500D02*
X+1447800Y+825500D01*
X+1339399Y+870401D02*
X+1429201Y+780599D01*
X+1339399Y+780599D02*
X+1429201Y+870401D01*
X+1892300Y+1397000D02*
X+1892300Y+1270000D01*
X+1828800Y+1333500D02*
X+1955800Y+1333500D01*
X+1847399Y+1378401D02*
X+1937201Y+1288599D01*
X+1847399Y+1288599D02*
X+1937201Y+1378401D01*
X+2146300Y+1651000D02*
X+2146300Y+1524000D01*
X+2082800Y+1587500D02*
X+2209800Y+1587500D01*
X+2101399Y+1632401D02*
X+2191201Y+1542599D01*
X+2101399Y+1542599D02*
X+2191201Y+1632401D01*
X+2445470Y+1138520D02*
X+2445470Y+1011520D01*
X+2381970Y+1075020D02*
X+2508970Y+1075020D01*
X+2400569Y+1119921D02*
X+2490371Y+1030119D01*
X+2400569Y+1030119D02*
X+2490371Y+1119921D01*
X+2133070Y+1329020D02*
X+2133070Y+1202020D01*
X+2069570Y+1265520D02*
X+2196570Y+1265520D01*
X+2088169Y+1310421D02*
X+2177971Y+1220619D01*
X+2088169Y+1220619D02*
X+2177971Y+1310421D01*
X+2654300Y+889000D02*
X+2654300Y+762000D01*
X+2590800Y+825500D02*
X+2717800Y+825500D01*
X+2609399Y+870401D02*
X+2699201Y+780599D01*
X+2609399Y+780599D02*
X+2699201Y+870401D01*
X+2908300Y+1143000D02*
X+2908300Y+1016000D01*
X+2844800Y+1079500D02*
X+2971800Y+1079500D01*
X+2863399Y+1124401D02*
X+2953201Y+1034599D01*
X+2863399Y+1034599D02*
X+2953201Y+1124401D01*
X+3162300Y+1905000D02*
X+3162300Y+1778000D01*
X+3098800Y+1841500D02*
X+3225800Y+1841500D01*
X+3117399Y+1886401D02*
X+3207201Y+1796599D01*
X+3117399Y+1796599D02*
X+3207201Y+1886401D01*
X+2654300Y+1905000D02*
X+2654300Y+1778000D01*
X+2590800Y+1841500D02*
X+2717800Y+1841500D01*
X+2609399Y+1886401D02*
X+2699201Y+1796599D01*
X+2609399Y+1796599D02*
X+2699201Y+1886401D01*
X+2908300Y+1651000D02*
X+2908300Y+1524000D01*
X+2844800Y+1587500D02*
X+2971800Y+1587500D01*
X+2863399Y+1632401D02*
X+2953201Y+1542599D01*
X+2863399Y+1542599D02*
X+2953201Y+1632401D01*
X+3282950Y+1746250D02*
X+3282950Y+1619250D01*
X+3219450Y+1682750D02*
X+3346450Y+1682750D01*
X+3238049Y+1727651D02*
X+3327851Y+1637849D01*
X+3238049Y+1637849D02*
X+3327851Y+1727651D01*
X+3225800Y+1143000D02*
X+3225800Y+1016000D01*
X+3162300Y+1079500D02*
X+3289300Y+1079500D01*
X+3180899Y+1124401D02*
X+3270701Y+1034599D01*
X+3180899Y+1034599D02*
X+3270701Y+1124401D01*
X+3416300Y+889000D02*
X+3416300Y+762000D01*
X+3352800Y+825500D02*
X+3479800Y+825500D01*
X+3371399Y+870401D02*
X+3461201Y+780599D01*
X+3371399Y+780599D02*
X+3461201Y+870401D01*
X+3924300Y+889000D02*
X+3924300Y+762000D01*
X+3860800Y+825500D02*
X+3987800Y+825500D01*
X+3879399Y+870401D02*
X+3969201Y+780599D01*
X+3879399Y+780599D02*
X+3969201Y+870401D01*
X+4432300Y+889000D02*
X+4432300Y+762000D01*
X+4368800Y+825500D02*
X+4495800Y+825500D01*
X+4387399Y+870401D02*
X+4477201Y+780599D01*
X+4387399Y+780599D02*
X+4477201Y+870401D01*
X+4940300Y+889000D02*
X+4940300Y+762000D01*
X+4876800Y+825500D02*
X+5003800Y+825500D01*
X+4895399Y+870401D02*
X+4985201Y+780599D01*
X+4895399Y+780599D02*
X+4985201Y+870401D01*
X+4686300Y+635000D02*
X+4686300Y+508000D01*
X+4622800Y+571500D02*
X+4749800Y+571500D01*
X+4641399Y+616401D02*
X+4731201Y+526599D01*
X+4641399Y+526599D02*
X+4731201Y+616401D01*
X+5194300Y+635000D02*
X+5194300Y+508000D01*
X+5130800Y+571500D02*
X+5257800Y+571500D01*
X+5149399Y+616401D02*
X+5239201Y+526599D01*
X+5149399Y+526599D02*
X+5239201Y+616401D01*
X+4686300Y+1143000D02*
X+4686300Y+1016000D01*
X+4622800Y+1079500D02*
X+4749800Y+1079500D01*
X+4641399Y+1124401D02*
X+4731201Y+1034599D01*
X+4641399Y+1034599D02*
X+4731201Y+1124401D01*
X+5194300Y+1143000D02*
X+5194300Y+1016000D01*
X+5130800Y+1079500D02*
X+5257800Y+1079500D01*
X+5149399Y+1124401D02*
X+5239201Y+1034599D01*
X+5149399Y+1034599D02*
X+5239201Y+1124401D01*
X+4940300Y+1397000D02*
X+4940300Y+1270000D01*
X+4876800Y+1333500D02*
X+5003800Y+1333500D01*
X+4895399Y+1378401D02*
X+4985201Y+1288599D01*
X+4895399Y+1288599D02*
X+4985201Y+1378401D01*
X+5194300Y+1651000D02*
X+5194300Y+1524000D01*
X+5130800Y+1587500D02*
X+5257800Y+1587500D01*
X+5149399Y+1632401D02*
X+5239201Y+1542599D01*
X+5149399Y+1542599D02*
X+5239201Y+1632401D01*
X+4178300Y+1466850D02*
X+4178300Y+1339850D01*
X+4114800Y+1403350D02*
X+4241800Y+1403350D01*
X+4133399Y+1448251D02*
X+4223201Y+1358449D01*
X+4133399Y+1358449D02*
X+4223201Y+1448251D01*
X+3924300Y+635000D02*
X+3924300Y+508000D01*
X+3860800Y+571500D02*
X+3987800Y+571500D01*
X+3879399Y+616401D02*
X+3969201Y+526599D01*
X+3879399Y+526599D02*
X+3969201Y+616401D01*
X+4343400Y+635000D02*
X+4343400Y+508000D01*
X+4279900Y+571500D02*
X+4406900Y+571500D01*
X+4298499Y+616401D02*
X+4388301Y+526599D01*
X+4298499Y+526599D02*
X+4388301Y+616401D01*
X+5880100Y+825500D02*
X+5880100Y+698500D01*
X+5816600Y+762000D02*
X+5943600Y+762000D01*
X+5835199Y+806901D02*
X+5925001Y+717099D01*
X+5835199Y+717099D02*
X+5925001Y+806901D01*
X+5626100Y+1079500D02*
X+5626100Y+952500D01*
X+5562600Y+1016000D02*
X+5689600Y+1016000D01*
X+5581199Y+1060901D02*
X+5671001Y+971099D01*
X+5581199Y+971099D02*
X+5671001Y+1060901D01*
X+5816600Y+1333500D02*
X+5816600Y+1206500D01*
X+5753100Y+1270000D02*
X+5880100Y+1270000D01*
X+5771699Y+1314901D02*
X+5861501Y+1225099D01*
X+5771699Y+1225099D02*
X+5861501Y+1314901D01*
X+5626100Y+1587500D02*
X+5626100Y+1460500D01*
X+5562600Y+1524000D02*
X+5689600Y+1524000D01*
X+5581199Y+1568901D02*
X+5671001Y+1479099D01*
X+5581199Y+1479099D02*
X+5671001Y+1568901D01*
X+5848350Y+2178050D02*
X+5848350Y+2051050D01*
X+5784850Y+2114550D02*
X+5911850Y+2114550D01*
X+5803449Y+2159451D02*
X+5893251Y+2069649D01*
X+5803449Y+2069649D02*
X+5893251Y+2159451D01*
X+5626100Y+1911350D02*
X+5626100Y+1784350D01*
X+5562600Y+1847850D02*
X+5689600Y+1847850D01*
X+5581199Y+1892751D02*
X+5671001Y+1802949D01*
X+5581199Y+1802949D02*
X+5671001Y+1892751D01*
X+6134100Y+1587500D02*
X+6134100Y+1460500D01*
X+6070600Y+1524000D02*
X+6197600Y+1524000D01*
X+6089199Y+1568901D02*
X+6179001Y+1479099D01*
X+6089199Y+1479099D02*
X+6179001Y+1568901D01*
X+6134100Y+1079500D02*
X+6134100Y+952500D01*
X+6070600Y+1016000D02*
X+6197600Y+1016000D01*
X+6089199Y+1060901D02*
X+6179001Y+971099D01*
X+6089199Y+971099D02*
X+6179001Y+1060901D01*
X+6388100Y+1333500D02*
X+6388100Y+1206500D01*
X+6324600Y+1270000D02*
X+6451600Y+1270000D01*
X+6343199Y+1314901D02*
X+6433001Y+1225099D01*
X+6343199Y+1225099D02*
X+6433001Y+1314901D01*
X+6642100Y+1079500D02*
X+6642100Y+952500D01*
X+6578600Y+1016000D02*
X+6705600Y+1016000D01*
X+6597199Y+1060901D02*
X+6687001Y+971099D01*
X+6597199Y+971099D02*
X+6687001Y+1060901D01*
X+6642100Y+1587500D02*
X+6642100Y+1460500D01*
X+6578600Y+1524000D02*
X+6705600Y+1524000D01*
X+6597199Y+1568901D02*
X+6687001Y+1479099D01*
X+6597199Y+1479099D02*
X+6687001Y+1568901D01*
X+6388100Y+1841500D02*
X+6388100Y+1714500D01*
X+6324600Y+1778000D02*
X+6451600Y+1778000D01*
X+6343199Y+1822901D02*
X+6433001Y+1733099D01*
X+6343199Y+1733099D02*
X+6433001Y+1822901D01*
X+6642100Y+2095500D02*
X+6642100Y+1968500D01*
X+6578600Y+2032000D02*
X+6705600Y+2032000D01*
X+6597199Y+2076901D02*
X+6687001Y+1987099D01*
X+6597199Y+1987099D02*
X+6687001Y+2076901D01*
X+6189310Y+2191550D02*
X+6189310Y+2064550D01*
X+6125810Y+2128050D02*
X+6252810Y+2128050D01*
X+6144409Y+2172951D02*
X+6234211Y+2083149D01*
X+6144409Y+2083149D02*
X+6234211Y+2172951D01*
X+6189310Y+1918500D02*
X+6189310Y+1791500D01*
X+6125810Y+1855000D02*
X+6252810Y+1855000D01*
X+6144409Y+1899901D02*
X+6234211Y+1810099D01*
X+6144409Y+1810099D02*
X+6234211Y+1899901D01*
X+6642100Y+2603500D02*
X+6642100Y+2476500D01*
X+6578600Y+2540000D02*
X+6705600Y+2540000D01*
X+6597199Y+2584901D02*
X+6687001Y+2495099D01*
X+6597199Y+2495099D02*
X+6687001Y+2584901D01*
X+6642100Y+3111500D02*
X+6642100Y+2984500D01*
X+6578600Y+3048000D02*
X+6705600Y+3048000D01*
X+6597199Y+3092901D02*
X+6687001Y+3003099D01*
X+6597199Y+3003099D02*
X+6687001Y+3092901D01*
X+5803900Y+2921000D02*
X+5803900Y+2794000D01*
X+5740400Y+2857500D02*
X+5867400Y+2857500D01*
X+5758999Y+2902401D02*
X+5848801Y+2812599D01*
X+5758999Y+2812599D02*
X+5848801Y+2902401D01*
X+5632450Y+3092450D02*
X+5632450Y+2965450D01*
X+5568950Y+3028950D02*
X+5695950Y+3028950D01*
X+5587549Y+3073851D02*
X+5677351Y+2984049D01*
X+5587549Y+2984049D02*
X+5677351Y+3073851D01*
X+6134100Y+3873500D02*
X+6134100Y+3746500D01*
X+6070600Y+3810000D02*
X+6197600Y+3810000D01*
X+6089199Y+3854901D02*
X+6179001Y+3765099D01*
X+6089199Y+3765099D02*
X+6179001Y+3854901D01*
X+6642100Y+3873500D02*
X+6642100Y+3746500D01*
X+6578600Y+3810000D02*
X+6705600Y+3810000D01*
X+6597199Y+3854901D02*
X+6687001Y+3765099D01*
X+6597199Y+3765099D02*
X+6687001Y+3854901D01*
X+6134100Y+4381500D02*
X+6134100Y+4254500D01*
X+6070600Y+4318000D02*
X+6197600Y+4318000D01*
X+6089199Y+4362901D02*
X+6179001Y+4273099D01*
X+6089199Y+4273099D02*
X+6179001Y+4362901D01*
X+6134100Y+4889500D02*
X+6134100Y+4762500D01*
X+6070600Y+4826000D02*
X+6197600Y+4826000D01*
X+6089199Y+4870901D02*
X+6179001Y+4781099D01*
X+6089199Y+4781099D02*
X+6179001Y+4870901D01*
X+6496050Y+4127500D02*
X+6496050Y+4000500D01*
X+6432550Y+4064000D02*
X+6559550Y+4064000D01*
X+6451149Y+4108901D02*
X+6540951Y+4019099D01*
X+6451149Y+4019099D02*
X+6540951Y+4108901D01*
X+6496050Y+4635500D02*
X+6496050Y+4508500D01*
X+6432550Y+4572000D02*
X+6559550Y+4572000D01*
X+6451149Y+4616901D02*
X+6540951Y+4527099D01*
X+6451149Y+4527099D02*
X+6540951Y+4616901D01*
X+5626100Y+4635500D02*
X+5626100Y+4508500D01*
X+5562600Y+4572000D02*
X+5689600Y+4572000D01*
X+5581199Y+4616901D02*
X+5671001Y+4527099D01*
X+5581199Y+4527099D02*
X+5671001Y+4616901D01*
X+5372100Y+4381500D02*
X+5372100Y+4254500D01*
X+5308600Y+4318000D02*
X+5435600Y+4318000D01*
X+5327199Y+4362901D02*
X+5417001Y+4273099D01*
X+5327199Y+4273099D02*
X+5417001Y+4362901D01*
X+5118100Y+4635500D02*
X+5118100Y+4508500D01*
X+5054600Y+4572000D02*
X+5181600Y+4572000D01*
X+5073199Y+4616901D02*
X+5163001Y+4527099D01*
X+5073199Y+4527099D02*
X+5163001Y+4616901D01*
X+4610100Y+4635500D02*
X+4610100Y+4508500D01*
X+4546600Y+4572000D02*
X+4673600Y+4572000D01*
X+4565199Y+4616901D02*
X+4655001Y+4527099D01*
X+4565199Y+4527099D02*
X+4655001Y+4616901D01*
X+4864100Y+4381500D02*
X+4864100Y+4254500D01*
X+4800600Y+4318000D02*
X+4927600Y+4318000D01*
X+4819199Y+4362901D02*
X+4909001Y+4273099D01*
X+4819199Y+4273099D02*
X+4909001Y+4362901D01*
X+5626100Y+4127500D02*
X+5626100Y+4000500D01*
X+5562600Y+4064000D02*
X+5689600Y+4064000D01*
X+5581199Y+4108901D02*
X+5671001Y+4019099D01*
X+5581199Y+4019099D02*
X+5671001Y+4108901D01*
X+5626100Y+3619500D02*
X+5626100Y+3492500D01*
X+5562600Y+3556000D02*
X+5689600Y+3556000D01*
X+5581199Y+3600901D02*
X+5671001Y+3511099D01*
X+5581199Y+3511099D02*
X+5671001Y+3600901D01*
X+5270500Y+3340100D02*
X+5270500Y+3213100D01*
X+5207000Y+3276600D02*
X+5334000Y+3276600D01*
X+5225599Y+3321501D02*
X+5315401Y+3231699D01*
X+5225599Y+3231699D02*
X+5315401Y+3321501D01*
X+4413250Y+4032250D02*
X+4413250Y+3905250D01*
X+4349750Y+3968750D02*
X+4476750Y+3968750D01*
X+4368349Y+4013651D02*
X+4458151Y+3923849D01*
X+4368349Y+3923849D02*
X+4458151Y+4013651D01*
X+4159250Y+4286250D02*
X+4159250Y+4159250D01*
X+4095750Y+4222750D02*
X+4222750Y+4222750D01*
X+4114349Y+4267651D02*
X+4204151Y+4177849D01*
X+4114349Y+4177849D02*
X+4204151Y+4267651D01*
X+4051300Y+4635500D02*
X+4051300Y+4508500D01*
X+3987800Y+4572000D02*
X+4114800Y+4572000D01*
X+4006399Y+4616901D02*
X+4096201Y+4527099D01*
X+4006399Y+4527099D02*
X+4096201Y+4616901D01*
X+3594100Y+4635500D02*
X+3594100Y+4508500D01*
X+3530600Y+4572000D02*
X+3657600Y+4572000D01*
X+3549199Y+4616901D02*
X+3639001Y+4527099D01*
X+3549199Y+4527099D02*
X+3639001Y+4616901D01*
X+3848100Y+4889500D02*
X+3848100Y+4762500D01*
X+3784600Y+4826000D02*
X+3911600Y+4826000D01*
X+3803199Y+4870901D02*
X+3893001Y+4781099D01*
X+3803199Y+4781099D02*
X+3893001Y+4870901D01*
X+3340100Y+4889500D02*
X+3340100Y+4762500D01*
X+3276600Y+4826000D02*
X+3403600Y+4826000D01*
X+3295199Y+4870901D02*
X+3385001Y+4781099D01*
X+3295199Y+4781099D02*
X+3385001Y+4870901D01*
X+3797300Y+4127500D02*
X+3797300Y+4000500D01*
X+3733800Y+4064000D02*
X+3860800Y+4064000D01*
X+3752399Y+4108901D02*
X+3842201Y+4019099D01*
X+3752399Y+4019099D02*
X+3842201Y+4108901D01*
X+3340100Y+4127500D02*
X+3340100Y+4000500D01*
X+3276600Y+4064000D02*
X+3403600Y+4064000D01*
X+3295199Y+4108901D02*
X+3385001Y+4019099D01*
X+3295199Y+4019099D02*
X+3385001Y+4108901D01*
X+3086100Y+4381500D02*
X+3086100Y+4254500D01*
X+3022600Y+4318000D02*
X+3149600Y+4318000D01*
X+3041199Y+4362901D02*
X+3131001Y+4273099D01*
X+3041199Y+4273099D02*
X+3131001Y+4362901D01*
X+3594100Y+3873500D02*
X+3594100Y+3746500D01*
X+3530600Y+3810000D02*
X+3657600Y+3810000D01*
X+3549199Y+3854901D02*
X+3639001Y+3765099D01*
X+3549199Y+3765099D02*
X+3639001Y+3854901D01*
X+3848100Y+3619500D02*
X+3848100Y+3492500D01*
X+3784600Y+3556000D02*
X+3911600Y+3556000D01*
X+3803199Y+3600901D02*
X+3893001Y+3511099D01*
X+3803199Y+3511099D02*
X+3893001Y+3600901D01*
X+3902350Y+3312600D02*
X+3902350Y+3185600D01*
X+3838850Y+3249100D02*
X+3965850Y+3249100D01*
X+3857449Y+3294001D02*
X+3947251Y+3204199D01*
X+3857449Y+3204199D02*
X+3947251Y+3294001D01*
X+3594100Y+3365500D02*
X+3594100Y+3238500D01*
X+3530600Y+3302000D02*
X+3657600Y+3302000D01*
X+3549199Y+3346901D02*
X+3639001Y+3257099D01*
X+3549199Y+3257099D02*
X+3639001Y+3346901D01*
X+3340100Y+3619500D02*
X+3340100Y+3492500D01*
X+3276600Y+3556000D02*
X+3403600Y+3556000D01*
X+3295199Y+3600901D02*
X+3385001Y+3511099D01*
X+3295199Y+3511099D02*
X+3385001Y+3600901D01*
X+3086100Y+3365500D02*
X+3086100Y+3238500D01*
X+3022600Y+3302000D02*
X+3149600Y+3302000D01*
X+3041199Y+3346901D02*
X+3131001Y+3257099D01*
X+3041199Y+3257099D02*
X+3131001Y+3346901D01*
X+3086100Y+3873500D02*
X+3086100Y+3746500D01*
X+3022600Y+3810000D02*
X+3149600Y+3810000D01*
X+3041199Y+3854901D02*
X+3131001Y+3765099D01*
X+3041199Y+3765099D02*
X+3131001Y+3854901D01*
X+2578100Y+4127500D02*
X+2578100Y+4000500D01*
X+2514600Y+4064000D02*
X+2641600Y+4064000D01*
X+2533199Y+4108901D02*
X+2623001Y+4019099D01*
X+2533199Y+4019099D02*
X+2623001Y+4108901D01*
X+2578100Y+3619500D02*
X+2578100Y+3492500D01*
X+2514600Y+3556000D02*
X+2641600Y+3556000D01*
X+2533199Y+3600901D02*
X+2623001Y+3511099D01*
X+2533199Y+3511099D02*
X+2623001Y+3600901D01*
X+2578100Y+4635500D02*
X+2578100Y+4508500D01*
X+2514600Y+4572000D02*
X+2641600Y+4572000D01*
X+2533199Y+4616901D02*
X+2623001Y+4527099D01*
X+2533199Y+4527099D02*
X+2623001Y+4616901D01*
X+2324100Y+4889500D02*
X+2324100Y+4762500D01*
X+2260600Y+4826000D02*
X+2387600Y+4826000D01*
X+2279199Y+4870901D02*
X+2369001Y+4781099D01*
X+2279199Y+4781099D02*
X+2369001Y+4870901D01*
X+2070100Y+4635500D02*
X+2070100Y+4508500D01*
X+2006600Y+4572000D02*
X+2133600Y+4572000D01*
X+2025199Y+4616901D02*
X+2115001Y+4527099D01*
X+2025199Y+4527099D02*
X+2115001Y+4616901D01*
X+2324100Y+4381500D02*
X+2324100Y+4254500D01*
X+2260600Y+4318000D02*
X+2387600Y+4318000D01*
X+2279199Y+4362901D02*
X+2369001Y+4273099D01*
X+2279199Y+4273099D02*
X+2369001Y+4362901D01*
X+2324100Y+3873500D02*
X+2324100Y+3746500D01*
X+2260600Y+3810000D02*
X+2387600Y+3810000D01*
X+2279199Y+3854901D02*
X+2369001Y+3765099D01*
X+2279199Y+3765099D02*
X+2369001Y+3854901D01*
X+2324100Y+3365500D02*
X+2324100Y+3238500D01*
X+2260600Y+3302000D02*
X+2387600Y+3302000D01*
X+2279199Y+3346901D02*
X+2369001Y+3257099D01*
X+2279199Y+3257099D02*
X+2369001Y+3346901D01*
X+2337560Y+2356700D02*
X+2337560Y+2229700D01*
X+2274060Y+2293200D02*
X+2401060Y+2293200D01*
X+2292659Y+2338101D02*
X+2382461Y+2248299D01*
X+2292659Y+2248299D02*
X+2382461Y+2338101D01*
X+3900650Y+2358400D02*
X+3900650Y+2231400D01*
X+3837150Y+2294900D02*
X+3964150Y+2294900D01*
X+3855749Y+2339801D02*
X+3945551Y+2249999D01*
X+3855749Y+2249999D02*
X+3945551Y+2339801D01*
X+3847290Y+2540000D02*
X+3847290Y+2413000D01*
X+3783790Y+2476500D02*
X+3910790Y+2476500D01*
X+3802389Y+2521401D02*
X+3892191Y+2431599D01*
X+3802389Y+2431599D02*
X+3892191Y+2521401D01*
X+3392650Y+2358400D02*
X+3392650Y+2231400D01*
X+3329150Y+2294900D02*
X+3456150Y+2294900D01*
X+3347749Y+2339801D02*
X+3437551Y+2249999D01*
X+3347749Y+2249999D02*
X+3437551Y+2339801D01*
X+3138650Y+2612400D02*
X+3138650Y+2485400D01*
X+3075150Y+2548900D02*
X+3202150Y+2548900D01*
X+3093749Y+2593801D02*
X+3183551Y+2503999D01*
X+3093749Y+2503999D02*
X+3183551Y+2593801D01*
X+3646650Y+2612400D02*
X+3646650Y+2485400D01*
X+3583150Y+2548900D02*
X+3710150Y+2548900D01*
X+3601749Y+2593801D02*
X+3691551Y+2503999D01*
X+3601749Y+2503999D02*
X+3691551Y+2593801D01*
X+3392650Y+2866400D02*
X+3392650Y+2739400D01*
X+3329150Y+2802900D02*
X+3456150Y+2802900D01*
X+3347749Y+2847801D02*
X+3437551Y+2757999D01*
X+3347749Y+2757999D02*
X+3437551Y+2847801D01*
X+2884650Y+2358400D02*
X+2884650Y+2231400D01*
X+2821150Y+2294900D02*
X+2948150Y+2294900D01*
X+2839749Y+2339801D02*
X+2929551Y+2249999D01*
X+2839749Y+2249999D02*
X+2929551Y+2339801D01*
X+838240Y+2518540D02*
X+838240Y+2391540D01*
X+774740Y+2455040D02*
X+901740Y+2455040D01*
X+793339Y+2499941D02*
X+883141Y+2410139D01*
X+793339Y+2410139D02*
X+883141Y+2499941D01*
X+838240Y+2264540D02*
X+838240Y+2137540D01*
X+774740Y+2201040D02*
X+901740Y+2201040D01*
X+793339Y+2245941D02*
X+883141Y+2156139D01*
X+793339Y+2156139D02*
X+883141Y+2245941D01*
X+584240Y+2010540D02*
X+584240Y+1883540D01*
X+520740Y+1947040D02*
X+647740Y+1947040D01*
X+539339Y+1991941D02*
X+629141Y+1902139D01*
X+539339Y+1902139D02*
X+629141Y+1991941D01*
X+241650Y+2475200D02*
X+241650Y+2348200D01*
X+178150Y+2411700D02*
X+305150Y+2411700D01*
X+196749Y+2456601D02*
X+286551Y+2366799D01*
X+196749Y+2366799D02*
X+286551Y+2456601D01*
X+241650Y+2729200D02*
X+241650Y+2602200D01*
X+178150Y+2665700D02*
X+305150Y+2665700D01*
X+196749Y+2710601D02*
X+286551Y+2620799D01*
X+196749Y+2620799D02*
X+286551Y+2710601D01*
X+749650Y+3237200D02*
X+749650Y+3110200D01*
X+686150Y+3173700D02*
X+813150Y+3173700D01*
X+704749Y+3218601D02*
X+794551Y+3128799D01*
X+704749Y+3128799D02*
X+794551Y+3218601D01*
X+324200Y+3531900D02*
X+324200Y+3404900D01*
X+260700Y+3468400D02*
X+387700Y+3468400D01*
X+279299Y+3513301D02*
X+369101Y+3423499D01*
X+279299Y+3423499D02*
X+369101Y+3513301D01*
X+1003650Y+3669000D02*
X+1003650Y+3542000D01*
X+940150Y+3605500D02*
X+1067150Y+3605500D01*
X+958749Y+3650401D02*
X+1048551Y+3560599D01*
X+958749Y+3560599D02*
X+1048551Y+3650401D01*
X+1252200Y+3394800D02*
X+1252200Y+3267800D01*
X+1188700Y+3331300D02*
X+1315700Y+3331300D01*
X+1207299Y+3376201D02*
X+1297101Y+3286399D01*
X+1207299Y+3286399D02*
X+1297101Y+3376201D01*
X+1486250Y+3694400D02*
X+1486250Y+3567400D01*
X+1422750Y+3630900D02*
X+1549750Y+3630900D01*
X+1441349Y+3675801D02*
X+1531151Y+3585999D01*
X+1441349Y+3585999D02*
X+1531151Y+3675801D01*
X+1840230Y+3674220D02*
X+1840230Y+3547220D01*
X+1776730Y+3610720D02*
X+1903730Y+3610720D01*
X+1795329Y+3655621D02*
X+1885131Y+3565819D01*
X+1795329Y+3565819D02*
X+1885131Y+3655621D01*
X+1827180Y+3998820D02*
X+1827180Y+3871820D01*
X+1763680Y+3935320D02*
X+1890680Y+3935320D01*
X+1782279Y+3980221D02*
X+1872081Y+3890419D01*
X+1782279Y+3890419D02*
X+1872081Y+3980221D01*
X+1655730Y+3999670D02*
X+1655730Y+3872670D01*
X+1592230Y+3936170D02*
X+1719230Y+3936170D01*
X+1610829Y+3981071D02*
X+1700631Y+3891269D01*
X+1610829Y+3891269D02*
X+1700631Y+3981071D01*
X+1655730Y+4189320D02*
X+1655730Y+4062320D01*
X+1592230Y+4125820D02*
X+1719230Y+4125820D01*
X+1610829Y+4170721D02*
X+1700631Y+4080919D01*
X+1610829Y+4080919D02*
X+1700631Y+4170721D01*
X+260700Y+4468150D02*
X+260700Y+4341150D01*
X+197200Y+4404650D02*
X+324200Y+4404650D01*
X+215799Y+4449551D02*
X+305601Y+4359749D01*
X+215799Y+4359749D02*
X+305601Y+4449551D01*
X+260700Y+4761000D02*
X+260700Y+4634000D01*
X+197200Y+4697500D02*
X+324200Y+4697500D01*
X+215799Y+4742401D02*
X+305601Y+4652599D01*
X+215799Y+4652599D02*
X+305601Y+4742401D01*
X+260700Y+5221000D02*
X+260700Y+5094000D01*
X+197200Y+5157500D02*
X+324200Y+5157500D01*
X+215799Y+5202401D02*
X+305601Y+5112599D01*
X+215799Y+5112599D02*
X+305601Y+5202401D01*
X+1143000Y+5270500D02*
X+1143000Y+5143500D01*
X+1079500Y+5207000D02*
X+1206500Y+5207000D01*
X+1098099Y+5251901D02*
X+1187901Y+5162099D01*
X+1098099Y+5162099D02*
X+1187901Y+5251901D01*
X+1778000Y+5270500D02*
X+1778000Y+5143500D01*
X+1714500Y+5207000D02*
X+1841500Y+5207000D01*
X+1733099Y+5251901D02*
X+1822901Y+5162099D01*
X+1733099Y+5162099D02*
X+1822901Y+5251901D01*
X+1320800Y+5016500D02*
X+1320800Y+4889500D01*
X+1257300Y+4953000D02*
X+1384300Y+4953000D01*
X+1275899Y+4997901D02*
X+1365701Y+4908099D01*
X+1275899Y+4908099D02*
X+1365701Y+4997901D01*
X+635000Y+4762500D02*
X+635000Y+4635500D01*
X+571500Y+4699000D02*
X+698500Y+4699000D01*
X+590099Y+4743901D02*
X+679901Y+4654099D01*
X+590099Y+4654099D02*
X+679901Y+4743901D01*
X+744200Y+4348850D02*
X+744200Y+4221850D01*
X+680700Y+4285350D02*
X+807700Y+4285350D01*
X+699299Y+4330251D02*
X+789101Y+4240449D01*
X+699299Y+4240449D02*
X+789101Y+4330251D01*
X+1400180Y+4468720D02*
X+1400180Y+4341720D01*
X+1336680Y+4405220D02*
X+1463680Y+4405220D01*
X+1355279Y+4450121D02*
X+1445081Y+4360319D01*
X+1355279Y+4360319D02*
X+1445081Y+4450121D01*
X+1194450Y+4353650D02*
X+1194450Y+4226650D01*
X+1130950Y+4290150D02*
X+1257950Y+4290150D01*
X+1149549Y+4335051D02*
X+1239351Y+4245249D01*
X+1149549Y+4245249D02*
X+1239351Y+4335051D01*
X+4368800Y+3187700D02*
X+4368800Y+3060700D01*
X+4305300Y+3124200D02*
X+4432300Y+3124200D01*
X+4323899Y+3169101D02*
X+4413701Y+3079299D01*
X+4323899Y+3079299D02*
X+4413701Y+3169101D01*
X+4622800Y+3009900D02*
X+4622800Y+2882900D01*
X+4559300Y+2946400D02*
X+4686300Y+2946400D01*
X+4577899Y+2991301D02*
X+4667701Y+2901499D01*
X+4577899Y+2901499D02*
X+4667701Y+2991301D01*
X+4953000Y+2984500D02*
X+4953000Y+2857500D01*
X+4889500Y+2921000D02*
X+5016500Y+2921000D01*
X+4908099Y+2965901D02*
X+4997901Y+2876099D01*
X+4908099Y+2876099D02*
X+4997901Y+2965901D01*
X+4851400Y+2730500D02*
X+4851400Y+2603500D01*
X+4787900Y+2667000D02*
X+4914900Y+2667000D01*
X+4806499Y+2711901D02*
X+4896301Y+2622099D01*
X+4806499Y+2622099D02*
X+4896301Y+2711901D01*
X+4673600Y+2578100D02*
X+4673600Y+2451100D01*
X+4610100Y+2514600D02*
X+4737100Y+2514600D01*
X+4628699Y+2559501D02*
X+4718501Y+2469699D01*
X+4628699Y+2469699D02*
X+4718501Y+2559501D01*
X+4940300Y+2400300D02*
X+4940300Y+2273300D01*
X+4876800Y+2336800D02*
X+5003800Y+2336800D01*
X+4895399Y+2381701D02*
X+4985201Y+2291899D01*
X+4895399Y+2291899D02*
X+4985201Y+2381701D01*
X+5334000Y+2400300D02*
X+5334000Y+2273300D01*
X+5270500Y+2336800D02*
X+5397500Y+2336800D01*
X+5289099Y+2381701D02*
X+5378901Y+2291899D01*
X+5289099Y+2291899D02*
X+5378901Y+2381701D01*
X+5397500Y+2857500D02*
X+5397500Y+2730500D01*
X+5334000Y+2794000D02*
X+5461000Y+2794000D01*
X+5352599Y+2838901D02*
X+5442401Y+2749099D01*
X+5352599Y+2749099D02*
X+5442401Y+2838901D01*
X+3670300Y+1466850D02*
X+3670300Y+1339850D01*
X+3606800Y+1403350D02*
X+3733800Y+1403350D01*
X+3625399Y+1448251D02*
X+3715201Y+1358449D01*
X+3625399Y+1358449D02*
X+3715201Y+1448251D01*
X+4864100Y+4888000D02*
X+4864100Y+4761000D01*
X+4800600Y+4824500D02*
X+4927600Y+4824500D01*
X+4819199Y+4869401D02*
X+4909001Y+4779599D01*
X+4819199Y+4779599D02*
X+4909001Y+4869401D01*
X+5373600Y+4888000D02*
X+5373600Y+4761000D01*
X+5310100Y+4824500D02*
X+5437100Y+4824500D01*
X+5328699Y+4869401D02*
X+5418501Y+4779599D01*
X+5328699Y+4779599D02*
X+5418501Y+4869401D01*
X+1206500Y+4000500D02*
X+1206500Y+3873500D01*
X+1143000Y+3937000D02*
X+1270000Y+3937000D01*
X+1161599Y+3981901D02*
X+1251401Y+3892099D01*
X+1161599Y+3892099D02*
X+1251401Y+3981901D01*
X+590900Y+5221000D02*
X+590900Y+5094000D01*
X+527400Y+5157500D02*
X+654400Y+5157500D01*
X+545999Y+5202401D02*
X+635801Y+5112599D01*
X+545999Y+5112599D02*
X+635801Y+5202401D01*
X+1778000Y+1790700D02*
X+1778000Y+1663700D01*
X+1714500Y+1727200D02*
X+1841500Y+1727200D01*
X+1733099Y+1772101D02*
X+1822901Y+1682299D01*
X+1733099Y+1682299D02*
X+1822901Y+1772101D01*
X+4565199Y+5124901D02*
X+4655001Y+5035099D01*
X+4565199Y+5035099D02*
X+4655001Y+5124901D01*
X+4819199Y+5124901D02*
X+4909001Y+5035099D01*
X+4819199Y+5035099D02*
X+4909001Y+5124901D01*
X+5073199Y+5124901D02*
X+5163001Y+5035099D01*
X+5073199Y+5035099D02*
X+5163001Y+5124901D01*
X+5327199Y+5124901D02*
X+5417001Y+5035099D01*
X+5327199Y+5035099D02*
X+5417001Y+5124901D01*
X+5581199Y+5124901D02*
X+5671001Y+5035099D01*
X+5581199Y+5035099D02*
X+5671001Y+5124901D01*
X+5835199Y+5124901D02*
X+5925001Y+5035099D01*
X+5835199Y+5035099D02*
X+5925001Y+5124901D01*
X+6089199Y+5124901D02*
X+6179001Y+5035099D01*
X+6089199Y+5035099D02*
X+6179001Y+5124901D01*
X+6343199Y+5124901D02*
X+6433001Y+5035099D01*
X+6343199Y+5035099D02*
X+6433001Y+5124901D01*
X+1872799Y+5124901D02*
X+1962601Y+5035099D01*
X+1872799Y+5035099D02*
X+1962601Y+5124901D01*
X+2126799Y+5124901D02*
X+2216601Y+5035099D01*
X+2126799Y+5035099D02*
X+2216601Y+5124901D01*
X+2380799Y+5124901D02*
X+2470601Y+5035099D01*
X+2380799Y+5035099D02*
X+2470601Y+5124901D01*
X+2634799Y+5124901D02*
X+2724601Y+5035099D01*
X+2634799Y+5035099D02*
X+2724601Y+5124901D01*
X+2888799Y+5124901D02*
X+2978601Y+5035099D01*
X+2888799Y+5035099D02*
X+2978601Y+5124901D01*
X+3142799Y+5124901D02*
X+3232601Y+5035099D01*
X+3142799Y+5035099D02*
X+3232601Y+5124901D01*
X+3396799Y+5124901D02*
X+3486601Y+5035099D01*
X+3396799Y+5035099D02*
X+3486601Y+5124901D01*
X+3650799Y+5124901D02*
X+3740601Y+5035099D01*
X+3650799Y+5035099D02*
X+3740601Y+5124901D01*
X+3904799Y+5124901D02*
X+3994601Y+5035099D01*
X+3904799Y+5035099D02*
X+3994601Y+5124901D01*
X+4158799Y+5124901D02*
X+4248601Y+5035099D01*
X+4158799Y+5035099D02*
X+4248601Y+5124901D01*
X+889000Y+266700D02*
X+889000Y+139700D01*
X+825500Y+203200D02*
X+952500Y+203200D01*
X+762000Y+266700D02*
X+762000Y+139700D01*
X+698500Y+203200D02*
X+825500Y+203200D01*
X+635000Y+266700D02*
X+635000Y+139700D01*
X+571500Y+203200D02*
X+698500Y+203200D01*
X+889000Y+393700D02*
X+889000Y+266700D01*
X+825500Y+330200D02*
X+952500Y+330200D01*
X+762000Y+393700D02*
X+762000Y+266700D01*
X+698500Y+330200D02*
X+825500Y+330200D01*
X+635000Y+393700D02*
X+635000Y+266700D01*
X+571500Y+330200D02*
X+698500Y+330200D01*
X+2787199Y+298901D02*
X+2877001Y+209099D01*
X+2787199Y+209099D02*
X+2877001Y+298901D01*
X+3041199Y+298901D02*
X+3131001Y+209099D01*
X+3041199Y+209099D02*
X+3131001Y+298901D01*
X+3295199Y+298901D02*
X+3385001Y+209099D01*
X+3295199Y+209099D02*
X+3385001Y+298901D01*
X+3549199Y+298901D02*
X+3639001Y+209099D01*
X+3549199Y+209099D02*
X+3639001Y+298901D01*
X+3803199Y+298901D02*
X+3893001Y+209099D01*
X+3803199Y+209099D02*
X+3893001Y+298901D01*
X+4057199Y+298901D02*
X+4147001Y+209099D01*
X+4057199Y+209099D02*
X+4147001Y+298901D01*
X+4311199Y+298901D02*
X+4401001Y+209099D01*
X+4311199Y+209099D02*
X+4401001Y+298901D01*
X+4565199Y+298901D02*
X+4655001Y+209099D01*
X+4565199Y+209099D02*
X+4655001Y+298901D01*
X+4819199Y+298901D02*
X+4909001Y+209099D01*
X+4819199Y+209099D02*
X+4909001Y+298901D01*
X+5073199Y+298901D02*
X+5163001Y+209099D01*
X+5073199Y+209099D02*
X+5163001Y+298901D01*
X+5327199Y+298901D02*
X+5417001Y+209099D01*
X+5327199Y+209099D02*
X+5417001Y+298901D01*
X+5581199Y+298901D02*
X+5671001Y+209099D01*
X+5581199Y+209099D02*
X+5671001Y+298901D01*
X+5835199Y+298901D02*
X+5925001Y+209099D01*
X+5835199Y+209099D02*
X+5925001Y+298901D01*
X+6089199Y+298901D02*
X+6179001Y+209099D01*
X+6089199Y+209099D02*
X+6179001Y+298901D01*
X+6343199Y+298901D02*
X+6433001Y+209099D01*
X+6343199Y+209099D02*
X+6433001Y+298901D01*
D46*
X+6800850Y+762000D02*
X+6800320Y+774958D01*
X+6796016Y+800876D01*
X+6787025Y+826794D01*
X+6772380Y+852712D01*
X+6749976Y+878466D01*
X+6724058Y+897958D01*
X+6698140Y+910530D01*
X+6672222Y+917866D01*
X+6646304Y+920694D01*
X+6642100Y+920750D01*
X+6483350Y+762000D02*
X+6483880Y+774958D01*
X+6488184Y+800876D01*
X+6497175Y+826794D01*
X+6511820Y+852712D01*
X+6534224Y+878466D01*
X+6560142Y+897958D01*
X+6586060Y+910530D01*
X+6611978Y+917866D01*
X+6637896Y+920694D01*
X+6642100Y+920750D01*
X+6483350Y+762000D02*
X+6483880Y+749042D01*
X+6488184Y+723124D01*
X+6497175Y+697206D01*
X+6511820Y+671288D01*
X+6534224Y+645534D01*
X+6560142Y+626042D01*
X+6586060Y+613470D01*
X+6611978Y+606134D01*
X+6637896Y+603306D01*
X+6642100Y+603250D01*
X+6800850Y+762000D02*
X+6800320Y+749042D01*
X+6796016Y+723124D01*
X+6787025Y+697206D01*
X+6772380Y+671288D01*
X+6749976Y+645534D01*
X+6724058Y+626042D01*
X+6698140Y+613470D01*
X+6672222Y+606134D01*
X+6646304Y+603306D01*
X+6642100Y+603250D01*
X+6800850Y+3556000D02*
X+6800320Y+3568958D01*
X+6796016Y+3594876D01*
X+6787025Y+3620794D01*
X+6772380Y+3646712D01*
X+6749976Y+3672466D01*
X+6724058Y+3691958D01*
X+6698140Y+3704530D01*
X+6672222Y+3711866D01*
X+6646304Y+3714694D01*
X+6642100Y+3714750D01*
X+6483350Y+3556000D02*
X+6483880Y+3568958D01*
X+6488184Y+3594876D01*
X+6497175Y+3620794D01*
X+6511820Y+3646712D01*
X+6534224Y+3672466D01*
X+6560142Y+3691958D01*
X+6586060Y+3704530D01*
X+6611978Y+3711866D01*
X+6637896Y+3714694D01*
X+6642100Y+3714750D01*
X+6483350Y+3556000D02*
X+6483880Y+3543042D01*
X+6488184Y+3517124D01*
X+6497175Y+3491206D01*
X+6511820Y+3465288D01*
X+6534224Y+3439534D01*
X+6560142Y+3420042D01*
X+6586060Y+3407470D01*
X+6611978Y+3400134D01*
X+6637896Y+3397306D01*
X+6642100Y+3397250D01*
X+6800850Y+3556000D02*
X+6800320Y+3543042D01*
X+6796016Y+3517124D01*
X+6787025Y+3491206D01*
X+6772380Y+3465288D01*
X+6749976Y+3439534D01*
X+6724058Y+3420042D01*
X+6698140Y+3407470D01*
X+6672222Y+3400134D01*
X+6646304Y+3397306D01*
X+6642100Y+3397250D01*
X+1720850Y+5080000D02*
X+1720320Y+5092958D01*
X+1716016Y+5118876D01*
X+1707025Y+5144794D01*
X+1692380Y+5170712D01*
X+1669976Y+5196466D01*
X+1644058Y+5215958D01*
X+1618140Y+5228530D01*
X+1592222Y+5235866D01*
X+1566304Y+5238694D01*
X+1562100Y+5238750D01*
X+1403350Y+5080000D02*
X+1403880Y+5092958D01*
X+1408184Y+5118876D01*
X+1417175Y+5144794D01*
X+1431820Y+5170712D01*
X+1454224Y+5196466D01*
X+1480142Y+5215958D01*
X+1506060Y+5228530D01*
X+1531978Y+5235866D01*
X+1557896Y+5238694D01*
X+1562100Y+5238750D01*
X+1403350Y+5080000D02*
X+1403880Y+5067042D01*
X+1408184Y+5041124D01*
X+1417175Y+5015206D01*
X+1431820Y+4989288D01*
X+1454224Y+4963534D01*
X+1480142Y+4944042D01*
X+1506060Y+4931470D01*
X+1531978Y+4924134D01*
X+1557896Y+4921306D01*
X+1562100Y+4921250D01*
X+1720850Y+5080000D02*
X+1720320Y+5067042D01*
X+1716016Y+5041124D01*
X+1707025Y+5015206D01*
X+1692380Y+4989288D01*
X+1669976Y+4963534D01*
X+1644058Y+4944042D01*
X+1618140Y+4931470D01*
X+1592222Y+4924134D01*
X+1566304Y+4921306D01*
X+1562100Y+4921250D01*
X+1720850Y+254000D02*
X+1720320Y+266958D01*
X+1716016Y+292876D01*
X+1707025Y+318794D01*
X+1692380Y+344712D01*
X+1669976Y+370466D01*
X+1644058Y+389958D01*
X+1618140Y+402530D01*
X+1592222Y+409866D01*
X+1566304Y+412694D01*
X+1562100Y+412750D01*
X+1403350Y+254000D02*
X+1403880Y+266958D01*
X+1408184Y+292876D01*
X+1417175Y+318794D01*
X+1431820Y+344712D01*
X+1454224Y+370466D01*
X+1480142Y+389958D01*
X+1506060Y+402530D01*
X+1531978Y+409866D01*
X+1557896Y+412694D01*
X+1562100Y+412750D01*
X+1403350Y+254000D02*
X+1403880Y+241042D01*
X+1408184Y+215124D01*
X+1417175Y+189206D01*
X+1431820Y+163288D01*
X+1454224Y+137534D01*
X+1480142Y+118042D01*
X+1506060Y+105470D01*
X+1531978Y+98134D01*
X+1557896Y+95306D01*
X+1562100Y+95250D01*
X+1720850Y+254000D02*
X+1720320Y+241042D01*
X+1716016Y+215124D01*
X+1707025Y+189206D01*
X+1692380Y+163288D01*
X+1669976Y+137534D01*
X+1644058Y+118042D01*
X+1618140Y+105470D01*
X+1592222Y+98134D01*
X+1566304Y+95306D01*
X+1562100Y+95250D01*
X+127000Y+0D02*
X+101032Y+2527D01*
X+77018Y+9798D01*
X+55423Y+21347D01*
X+36711Y+36711D01*
X+21348Y+55423D01*
X+9798Y+77018D01*
X+2527Y+101032D01*
X+0Y+127000D01*
X+0Y+5207000D01*
X+2527Y+5232967D01*
X+9798Y+5256981D01*
X+21348Y+5278577D01*
X+36711Y+5297289D01*
X+55423Y+5312652D01*
X+77018Y+5324202D01*
X+101032Y+5331473D01*
X+127000Y+5334000D01*
X+6515100Y+5334000D01*
X+6642100Y+5207000D01*
X+6642100Y+4064000D01*
X+6896100Y+3810000D01*
X+6896100Y+508000D01*
X+6642100Y+254000D01*
X+6642100Y+127000D01*
X+6639573Y+101032D01*
X+6632302Y+77018D01*
X+6620752Y+55423D01*
X+6605389Y+36711D01*
X+6586677Y+21347D01*
X+6565081Y+9798D01*
X+6541067Y+2527D01*
X+6515100Y+0D01*
X+127000Y+0D01*
X+486650Y+2352700D02*
X+486547Y+2355189D01*
X+485705Y+2360169D01*
X+483945Y+2365149D01*
X+481068Y+2370129D01*
X+476667Y+2375045D01*
X+471687Y+2378659D01*
X+466707Y+2380964D01*
X+461727Y+2382267D01*
X+456747Y+2382700D01*
X+456650Y+2382700D01*
X+426650Y+2352700D02*
X+426753Y+2355189D01*
X+427595Y+2360169D01*
X+429355Y+2365149D01*
X+432232Y+2370129D01*
X+436633Y+2375045D01*
X+441613Y+2378659D01*
X+446593Y+2380964D01*
X+451573Y+2382267D01*
X+456553Y+2382700D01*
X+456650Y+2382700D01*
X+426650Y+2352700D02*
X+426753Y+2350211D01*
X+427595Y+2345231D01*
X+429355Y+2340251D01*
X+432232Y+2335271D01*
X+436633Y+2330355D01*
X+441613Y+2326741D01*
X+446593Y+2324436D01*
X+451573Y+2323133D01*
X+456553Y+2322700D01*
X+456650Y+2322700D01*
X+486650Y+2352700D02*
X+486547Y+2350211D01*
X+485705Y+2345231D01*
X+483945Y+2340251D01*
X+481068Y+2335271D01*
X+476667Y+2330355D01*
X+471687Y+2326741D01*
X+466707Y+2324436D01*
X+461727Y+2323133D01*
X+456747Y+2322700D01*
X+456650Y+2322700D01*
X+486650Y+2752700D02*
X+486547Y+2755189D01*
X+485705Y+2760169D01*
X+483945Y+2765149D01*
X+481068Y+2770129D01*
X+476667Y+2775045D01*
X+471687Y+2778659D01*
X+466707Y+2780964D01*
X+461727Y+2782267D01*
X+456747Y+2782700D01*
X+456650Y+2782700D01*
X+426650Y+2752700D02*
X+426753Y+2755189D01*
X+427595Y+2760169D01*
X+429355Y+2765149D01*
X+432232Y+2770129D01*
X+436633Y+2775045D01*
X+441613Y+2778659D01*
X+446593Y+2780964D01*
X+451573Y+2782267D01*
X+456553Y+2782700D01*
X+456650Y+2782700D01*
X+426650Y+2752700D02*
X+426753Y+2750211D01*
X+427595Y+2745231D01*
X+429355Y+2740251D01*
X+432232Y+2735271D01*
X+436633Y+2730355D01*
X+441613Y+2726741D01*
X+446593Y+2724436D01*
X+451573Y+2723133D01*
X+456553Y+2722700D01*
X+456650Y+2722700D01*
X+486650Y+2752700D02*
X+486547Y+2750211D01*
X+485705Y+2745231D01*
X+483945Y+2740251D01*
X+481068Y+2735271D01*
X+476667Y+2730355D01*
X+471687Y+2726741D01*
X+466707Y+2724436D01*
X+461727Y+2723133D01*
X+456747Y+2722700D01*
X+456650Y+2722700D01*
X+2104040Y+308200D02*
X+2103885Y+311927D01*
X+2102629Y+319382D01*
X+2099999Y+326837D01*
X+2095703Y+334292D01*
X+2089133Y+341658D01*
X+2081678Y+347091D01*
X+2074223Y+350561D01*
X+2066768Y+352531D01*
X+2059313Y+353199D01*
X+2059040Y+353200D01*
X+2014040Y+308200D02*
X+2014195Y+311927D01*
X+2015451Y+319382D01*
X+2018081Y+326837D01*
X+2022377Y+334292D01*
X+2028947Y+341658D01*
X+2036402Y+347091D01*
X+2043857Y+350561D01*
X+2051312Y+352531D01*
X+2058767Y+353199D01*
X+2059040Y+353200D01*
X+2014040Y+308200D02*
X+2014195Y+304473D01*
X+2015451Y+297018D01*
X+2018081Y+289563D01*
X+2022377Y+282108D01*
X+2028947Y+274742D01*
X+2036402Y+269309D01*
X+2043857Y+265839D01*
X+2051312Y+263869D01*
X+2058767Y+263201D01*
X+2059040Y+263200D01*
X+2104040Y+308200D02*
X+2103885Y+304473D01*
X+2102629Y+297018D01*
X+2099999Y+289563D01*
X+2095703Y+282108D01*
X+2089133Y+274742D01*
X+2081678Y+269309D01*
X+2074223Y+265839D01*
X+2066768Y+263869D01*
X+2059313Y+263201D01*
X+2059040Y+263200D01*
X+2404040Y+308200D02*
X+2403885Y+311927D01*
X+2402629Y+319382D01*
X+2399999Y+326837D01*
X+2395703Y+334292D01*
X+2389133Y+341658D01*
X+2381678Y+347091D01*
X+2374223Y+350561D01*
X+2366768Y+352531D01*
X+2359313Y+353199D01*
X+2359040Y+353200D01*
X+2314040Y+308200D02*
X+2314195Y+311927D01*
X+2315451Y+319382D01*
X+2318081Y+326837D01*
X+2322377Y+334292D01*
X+2328947Y+341658D01*
X+2336402Y+347091D01*
X+2343857Y+350561D01*
X+2351312Y+352531D01*
X+2358767Y+353199D01*
X+2359040Y+353200D01*
X+2314040Y+308200D02*
X+2314195Y+304473D01*
X+2315451Y+297018D01*
X+2318081Y+289563D01*
X+2322377Y+282108D01*
X+2328947Y+274742D01*
X+2336402Y+269309D01*
X+2343857Y+265839D01*
X+2351312Y+263869D01*
X+2358767Y+263201D01*
X+2359040Y+263200D01*
X+2404040Y+308200D02*
X+2403885Y+304473D01*
X+2402629Y+297018D01*
X+2399999Y+289563D01*
X+2395703Y+282108D01*
X+2389133Y+274742D01*
X+2381678Y+269309D01*
X+2374223Y+265839D01*
X+2366768Y+263869D01*
X+2359313Y+263201D01*
X+2359040Y+263200D01*
D48*
X-133985Y-1263650D02*
X+2510155Y-1263650D01*
X+2510155Y-260350D01*
X-133985Y-260350D01*
X-133985Y-1263650D01*
D125*
X+333377Y-260350D02*
X+333377Y-1263650D01*
X+1146177Y-260350D02*
X+1146177Y-1263650D01*
X+1979297Y-260350D02*
X+1979297Y-1263650D01*
X-133985Y-533400D02*
X+2510155Y-533400D01*
X-133985Y-774700D02*
X+2510155Y-774700D01*
X-133985Y-1016000D02*
X+2510155Y-1016000D01*
D48*
X-76835Y-424180D02*
X-61595Y-439420D01*
X-635Y-439420D01*
X+14605Y-424180D01*
X+14605Y-408940D01*
X-635Y-393700D01*
X-61595Y-393700D01*
X-76835Y-378460D01*
X-76835Y-363220D01*
X-61595Y-347980D01*
X-635Y-347980D01*
X+14605Y-363220D01*
X+136525Y-347980D02*
X+45085Y-439420D01*
X+45085Y-347980D02*
X+90805Y-393700D01*
X+167005Y-439420D02*
X+167005Y-347980D01*
X+212725Y-393700D01*
X+258445Y-347980D01*
X+258445Y-439420D01*
X+390525Y-424180D02*
X+405765Y-439420D01*
X+466725Y-439420D01*
X+481965Y-424180D01*
X+481965Y-408940D01*
X+466725Y-393700D01*
X+405765Y-393700D01*
X+390525Y-378460D01*
X+390525Y-363220D01*
X+405765Y-347980D01*
X+466725Y-347980D01*
X+481965Y-363220D01*
X+527685Y-347980D02*
X+588645Y-347980D01*
X+558165Y-347980D02*
X+558165Y-439420D01*
X+527685Y-439420D02*
X+588645Y-439420D01*
X+634365Y-347980D02*
X+725805Y-347980D01*
X+634365Y-439420D01*
X+725805Y-439420D01*
X+847725Y-439420D02*
X+756285Y-439420D01*
X+756285Y-347980D01*
X+847725Y-347980D01*
X+756285Y-393700D02*
X+817245Y-393700D01*
X+1203325Y-439420D02*
X+1203325Y-347980D01*
X+1279525Y-347980D01*
X+1294765Y-363220D01*
X+1294765Y-378460D01*
X+1279525Y-393700D01*
X+1203325Y-393700D01*
X+1325245Y-347980D02*
X+1325245Y-439420D01*
X+1416685Y-439420D01*
X+1447165Y-439420D02*
X+1447165Y-378460D01*
X+1477645Y-347980D01*
X+1508125Y-347980D01*
X+1538605Y-378460D01*
X+1538605Y-439420D01*
X+1447165Y-408940D02*
X+1538605Y-408940D01*
X+1569085Y-347980D02*
X+1660525Y-347980D01*
X+1614805Y-347980D02*
X+1614805Y-439420D01*
X+1782445Y-439420D02*
X+1691005Y-439420D01*
X+1691005Y-347980D01*
X+1782445Y-347980D01*
X+1691005Y-393700D02*
X+1751965Y-393700D01*
X+1812925Y-439420D02*
X+1812925Y-347980D01*
X+1873885Y-347980D01*
X+1904365Y-378460D01*
X+1904365Y-408940D01*
X+1873885Y-439420D01*
X+1812925Y-439420D01*
X+2036445Y-378460D02*
X+2066925Y-347980D01*
X+2097405Y-347980D01*
X+2127885Y-378460D01*
X+2127885Y-408940D01*
X+2097405Y-439420D01*
X+2066925Y-439420D01*
X+2036445Y-408940D01*
X+2036445Y-378460D01*
X+2097405Y-408940D02*
X+2127885Y-439420D01*
X+2158365Y-347980D02*
X+2249805Y-347980D01*
X+2204085Y-347980D02*
X+2204085Y-439420D01*
X+2371725Y-347980D02*
X+2280285Y-439420D01*
X+2280285Y-347980D02*
X+2326005Y-393700D01*
X+112395Y-584200D02*
X+112395Y-711200D01*
X+48895Y-647700D02*
X+175895Y-647700D01*
X+409575Y-673100D02*
X+409575Y-622300D01*
X+422275Y-609600D01*
X+473075Y-609600D01*
X+485775Y-622300D01*
X+485775Y-673100D01*
X+473075Y-685800D01*
X+422275Y-685800D01*
X+409575Y-673100D01*
X+409575Y-685800D02*
X+485775Y-609600D01*
X+549275Y-673100D02*
X+561975Y-673100D01*
X+561975Y-685800D01*
X+549275Y-685800D01*
X+549275Y-673100D01*
X+688975Y-622300D02*
X+676275Y-609600D01*
X+638175Y-609600D01*
X+625475Y-622300D01*
X+625475Y-673100D01*
X+638175Y-685800D01*
X+676275Y-685800D01*
X+688975Y-673100D01*
X+688975Y-660400D01*
X+676275Y-647700D01*
X+625475Y-647700D01*
X+714375Y-685800D02*
X+714375Y-635000D01*
X+714375Y-647700D02*
X+727075Y-635000D01*
X+752475Y-660400D01*
X+777875Y-635000D01*
X+790575Y-647700D01*
X+790575Y-685800D01*
X+815975Y-685800D02*
X+815975Y-635000D01*
X+815975Y-647700D02*
X+828675Y-635000D01*
X+854075Y-660400D01*
X+879475Y-635000D01*
X+892175Y-647700D01*
X+892175Y-685800D01*
X+1311275Y-609600D02*
X+1235075Y-685800D01*
X+1235075Y-609600D02*
X+1273175Y-647700D01*
X+1412875Y-685800D02*
X+1336675Y-685800D01*
X+1336675Y-609600D01*
X+1412875Y-609600D01*
X+1336675Y-647700D02*
X+1387475Y-647700D01*
X+1438275Y-673100D02*
X+1450975Y-685800D01*
X+1501775Y-685800D01*
X+1514475Y-673100D01*
X+1514475Y-660400D01*
X+1501775Y-647700D01*
X+1450975Y-647700D01*
X+1438275Y-635000D01*
X+1438275Y-622300D01*
X+1450975Y-609600D01*
X+1501775Y-609600D01*
X+1514475Y-622300D01*
X+2157095Y-622300D02*
X+2144395Y-609600D01*
X+2106295Y-609600D01*
X+2093595Y-622300D01*
X+2093595Y-673100D01*
X+2106295Y-685800D01*
X+2144395Y-685800D01*
X+2157095Y-673100D01*
X+2157095Y-660400D01*
X+2144395Y-647700D01*
X+2093595Y-647700D01*
X+67494Y-844099D02*
X+157296Y-933901D01*
X+67494Y-933901D02*
X+157296Y-844099D01*
X+409575Y-914400D02*
X+409575Y-863600D01*
X+422275Y-850900D01*
X+473075Y-850900D01*
X+485775Y-863600D01*
X+485775Y-914400D01*
X+473075Y-927100D01*
X+422275Y-927100D01*
X+409575Y-914400D01*
X+409575Y-927100D02*
X+485775Y-850900D01*
X+549275Y-914400D02*
X+561975Y-914400D01*
X+561975Y-927100D01*
X+549275Y-927100D01*
X+549275Y-914400D01*
X+688975Y-876300D02*
X+676275Y-889000D01*
X+638175Y-889000D01*
X+625475Y-876300D01*
X+625475Y-863600D01*
X+638175Y-850900D01*
X+676275Y-850900D01*
X+688975Y-863600D01*
X+688975Y-914400D01*
X+676275Y-927100D01*
X+638175Y-927100D01*
X+790575Y-850900D02*
X+727075Y-850900D01*
X+727075Y-876300D01*
X+777875Y-876300D01*
X+790575Y-889000D01*
X+790575Y-914400D01*
X+777875Y-927100D01*
X+739775Y-927100D01*
X+727075Y-914400D01*
X+815975Y-927100D02*
X+815975Y-876300D01*
X+815975Y-889000D02*
X+828675Y-876300D01*
X+854075Y-901700D01*
X+879475Y-876300D01*
X+892175Y-889000D01*
X+892175Y-927100D01*
X+917575Y-927100D02*
X+917575Y-876300D01*
X+917575Y-889000D02*
X+930275Y-876300D01*
X+955675Y-901700D01*
X+981075Y-876300D01*
X+993775Y-889000D01*
X+993775Y-927100D01*
X+1311275Y-850900D02*
X+1235075Y-927100D01*
X+1235075Y-850900D02*
X+1273175Y-889000D01*
X+1412875Y-927100D02*
X+1336675Y-927100D01*
X+1336675Y-850900D01*
X+1412875Y-850900D01*
X+1336675Y-889000D02*
X+1387475Y-889000D01*
X+1438275Y-914400D02*
X+1450975Y-927100D01*
X+1501775Y-927100D01*
X+1514475Y-914400D01*
X+1514475Y-901700D01*
X+1501775Y-889000D01*
X+1450975Y-889000D01*
X+1438275Y-876300D01*
X+1438275Y-863600D01*
X+1450975Y-850900D01*
X+1501775Y-850900D01*
X+1514475Y-863600D01*
X+2093595Y-863600D02*
X+2106295Y-850900D01*
X+2144395Y-850900D01*
X+2157095Y-863600D01*
X+2157095Y-876300D01*
X+2144395Y-889000D01*
X+2157095Y-901700D01*
X+2157095Y-914400D01*
X+2144395Y-927100D01*
X+2106295Y-927100D01*
X+2093595Y-914400D01*
X+2118995Y-889000D02*
X+2144395Y-889000D01*
X+2195195Y-863600D02*
X+2207895Y-850900D01*
X+2245995Y-850900D01*
X+2258695Y-863600D01*
X+2258695Y-876300D01*
X+2245995Y-889000D01*
X+2258695Y-901700D01*
X+2258695Y-914400D01*
X+2245995Y-927100D01*
X+2207895Y-927100D01*
X+2195195Y-914400D01*
X+2220595Y-889000D02*
X+2245995Y-889000D01*
X+112395Y-1066800D02*
X+112395Y-1193800D01*
X+48895Y-1130300D02*
X+175895Y-1130300D01*
X+67494Y-1085399D02*
X+157296Y-1175201D01*
X+67494Y-1175201D02*
X+157296Y-1085399D01*
X+409575Y-1155700D02*
X+409575Y-1104900D01*
X+422275Y-1092200D01*
X+473075Y-1092200D01*
X+485775Y-1104900D01*
X+485775Y-1155700D01*
X+473075Y-1168400D01*
X+422275Y-1168400D01*
X+409575Y-1155700D01*
X+409575Y-1168400D02*
X+485775Y-1092200D01*
X+549275Y-1155700D02*
X+561975Y-1155700D01*
X+561975Y-1168400D01*
X+549275Y-1168400D01*
X+549275Y-1155700D01*
X+625475Y-1104900D02*
X+638175Y-1092200D01*
X+676275Y-1092200D01*
X+688975Y-1104900D01*
X+688975Y-1117600D01*
X+676275Y-1130300D01*
X+688975Y-1143000D01*
X+688975Y-1155700D01*
X+676275Y-1168400D01*
X+638175Y-1168400D01*
X+625475Y-1155700D01*
X+650875Y-1130300D02*
X+676275Y-1130300D01*
X+714375Y-1155700D02*
X+714375Y-1104900D01*
X+727075Y-1092200D01*
X+777875Y-1092200D01*
X+790575Y-1104900D01*
X+790575Y-1155700D01*
X+777875Y-1168400D01*
X+727075Y-1168400D01*
X+714375Y-1155700D01*
X+714375Y-1168400D02*
X+790575Y-1092200D01*
X+892175Y-1092200D02*
X+828675Y-1092200D01*
X+828675Y-1117600D01*
X+879475Y-1117600D01*
X+892175Y-1130300D01*
X+892175Y-1155700D01*
X+879475Y-1168400D01*
X+841375Y-1168400D01*
X+828675Y-1155700D01*
X+917575Y-1168400D02*
X+917575Y-1117600D01*
X+917575Y-1130300D02*
X+930275Y-1117600D01*
X+955675Y-1143000D01*
X+981075Y-1117600D01*
X+993775Y-1130300D01*
X+993775Y-1168400D01*
X+1019175Y-1168400D02*
X+1019175Y-1117600D01*
X+1019175Y-1130300D02*
X+1031875Y-1117600D01*
X+1057275Y-1143000D01*
X+1082675Y-1117600D01*
X+1095375Y-1130300D01*
X+1095375Y-1168400D01*
X+1311275Y-1092200D02*
X+1235075Y-1168400D01*
X+1235075Y-1092200D02*
X+1273175Y-1130300D01*
X+1412875Y-1168400D02*
X+1336675Y-1168400D01*
X+1336675Y-1092200D01*
X+1412875Y-1092200D01*
X+1336675Y-1130300D02*
X+1387475Y-1130300D01*
X+1438275Y-1155700D02*
X+1450975Y-1168400D01*
X+1501775Y-1168400D01*
X+1514475Y-1155700D01*
X+1514475Y-1143000D01*
X+1501775Y-1130300D01*
X+1450975Y-1130300D01*
X+1438275Y-1117600D01*
X+1438275Y-1104900D01*
X+1450975Y-1092200D01*
X+1501775Y-1092200D01*
X+1514475Y-1104900D01*
X+2093595Y-1104900D02*
X+2106295Y-1092200D01*
X+2144395Y-1092200D01*
X+2157095Y-1104900D01*
X+2157095Y-1117600D01*
X+2144395Y-1130300D01*
X+2106295Y-1130300D01*
X+2093595Y-1143000D01*
X+2093595Y-1168400D01*
X+2157095Y-1168400D01*
X+2258695Y-1104900D02*
X+2245995Y-1092200D01*
X+2207895Y-1092200D01*
X+2195195Y-1104900D01*
X+2195195Y-1155700D01*
X+2207895Y-1168400D01*
X+2245995Y-1168400D01*
X+2258695Y-1155700D01*
X+2258695Y-1143000D01*
X+2245995Y-1130300D01*
X+2195195Y-1130300D01*
X+2296795Y-1104900D02*
X+2309495Y-1092200D01*
X+2347595Y-1092200D01*
X+2360295Y-1104900D01*
X+2360295Y-1117600D01*
X+2347595Y-1130300D01*
X+2360295Y-1143000D01*
X+2360295Y-1155700D01*
X+2347595Y-1168400D01*
X+2309495Y-1168400D01*
X+2296795Y-1155700D01*
X+2322195Y-1130300D02*
X+2347595Y-1130300D01*
M02*
