G04 PROTEUS RS274X GERBER FILE*
%FSLAX45Y45*%
%MOMM*%
G01*
%ADD10C,0.400000*%
%ADD11C,0.355600*%
%ADD12C,0.190500*%
%ADD13C,0.508000*%
%ADD14C,0.300000*%
%ADD15C,0.609600*%
%ADD16C,1.600000*%
%ADD17R,0.609600X2.057400*%
%ADD18R,1.700000X0.400000*%
%ADD19R,1.500000X1.500000*%
%ADD70R,1.900000X1.900000*%
%ADD71R,1.041400X0.355600*%
%ADD20R,0.355600X1.041400*%
%ADD21R,1.000000X0.700000*%
%ADD22R,0.800000X1.000000*%
%ADD23R,1.500000X0.700000*%
%ADD24R,0.660000X1.000000*%
%AMPPAD017*
4,1,36,
-0.323000,0.450000,
0.323000,0.450000,
0.348970,0.447470,
0.372980,0.440200,
0.394580,0.428650,
0.413290,0.413290,
0.428650,0.394570,
0.440200,0.372980,
0.447470,0.348970,
0.450000,0.323000,
0.450000,-0.323000,
0.447470,-0.348970,
0.440200,-0.372980,
0.428650,-0.394570,
0.413290,-0.413290,
0.394580,-0.428650,
0.372980,-0.440200,
0.348970,-0.447470,
0.323000,-0.450000,
-0.323000,-0.450000,
-0.348970,-0.447470,
-0.372980,-0.440200,
-0.394580,-0.428650,
-0.413290,-0.413290,
-0.428650,-0.394570,
-0.440200,-0.372980,
-0.447470,-0.348970,
-0.450000,-0.323000,
-0.450000,0.323000,
-0.447470,0.348970,
-0.440200,0.372980,
-0.428650,0.394570,
-0.413290,0.413290,
-0.394580,0.428650,
-0.372980,0.440200,
-0.348970,0.447470,
-0.323000,0.450000,
0*%
%ADD25PPAD017*%
%ADD26C,0.900000*%
%ADD27R,0.650000X0.650000*%
%ADD28R,0.800000X0.800000*%
%ADD29R,0.750000X0.550000*%
%ADD72R,1.050000X0.900000*%
%ADD73C,0.025400*%
G36*
X+3449391Y+2407706D02*
X+3467995Y+2402073D01*
X+3484618Y+2393183D01*
X+3498986Y+2381386D01*
X+3510783Y+2367018D01*
X+3519673Y+2350395D01*
X+3525306Y+2331791D01*
X+3527425Y+2310020D01*
X+3527425Y-24020D01*
X+3525306Y-45791D01*
X+3519673Y-64395D01*
X+3510783Y-81018D01*
X+3498986Y-95386D01*
X+3484618Y-107183D01*
X+3467995Y-116073D01*
X+3449391Y-121706D01*
X+3427620Y-123825D01*
X-24020Y-123825D01*
X-45791Y-121706D01*
X-64395Y-116073D01*
X-81018Y-107183D01*
X-95386Y-95386D01*
X-107183Y-81018D01*
X-116073Y-64395D01*
X-121706Y-45791D01*
X-123825Y-24020D01*
X-123825Y+1435965D01*
X+3175Y+1562965D01*
X+3175Y+2310020D01*
X+5294Y+2331791D01*
X+10927Y+2350395D01*
X+19817Y+2367018D01*
X+31614Y+2381386D01*
X+45982Y+2393183D01*
X+62604Y+2402073D01*
X+81208Y+2407706D01*
X+102980Y+2409825D01*
X+3427620Y+2409825D01*
X+3449391Y+2407706D01*
G37*
%LPC*%
G36*
X+3434837Y+66072D02*
X+3466446Y+59476D01*
X+3501623Y+33144D01*
X+3522903Y-25400D01*
X+3501623Y-83944D01*
X+3466446Y-110276D01*
X+3429000Y-118090D01*
X+3391554Y-110276D01*
X+3356377Y-83944D01*
X+3335097Y-25400D01*
X+3356377Y+33144D01*
X+3391554Y+59476D01*
X+3429000Y+67290D01*
X+3434837Y+66072D01*
G37*
G36*
X+3434837Y+2402872D02*
X+3466446Y+2396276D01*
X+3501623Y+2369944D01*
X+3522903Y+2311400D01*
X+3501623Y+2252856D01*
X+3466446Y+2226524D01*
X+3429000Y+2218710D01*
X+3391554Y+2226524D01*
X+3356377Y+2252856D01*
X+3335097Y+2311400D01*
X+3356377Y+2369944D01*
X+3391554Y+2396276D01*
X+3429000Y+2404090D01*
X+3434837Y+2402872D01*
G37*
G36*
X-19563Y+1437672D02*
X+12046Y+1431076D01*
X+47223Y+1404744D01*
X+68503Y+1346200D01*
X+47223Y+1287656D01*
X+12046Y+1261324D01*
X-25400Y+1253510D01*
X-62846Y+1261324D01*
X-98023Y+1287656D01*
X-119303Y+1346200D01*
X-98023Y+1404744D01*
X-62846Y+1431076D01*
X-25400Y+1438890D01*
X-19563Y+1437672D01*
G37*
G36*
X+2604142Y+2388242D02*
X+2653029Y+2339355D01*
X+2653029Y+2232645D01*
X+2593355Y+2172971D01*
X+2479055Y+2172971D01*
X+2440679Y+2134595D01*
X+2440679Y+2059595D01*
X+2416563Y+2035479D01*
X+2431805Y+2035479D01*
X+2451475Y+2015809D01*
X+2471145Y+2035479D01*
X+2584287Y+2035479D01*
X+2675936Y+2127128D01*
X+2675936Y+2220020D01*
X+2719071Y+2263155D01*
X+2719071Y+2339355D01*
X+2721696Y+2341980D01*
X+2721696Y+2358304D01*
X+2738020Y+2358304D01*
X+2740645Y+2360929D01*
X+2847355Y+2360929D01*
X+2849980Y+2358304D01*
X+2866304Y+2358304D01*
X+2866304Y+2341980D01*
X+2867025Y+2341259D01*
X+2886695Y+2360929D01*
X+2955305Y+2360929D01*
X+2984500Y+2331734D01*
X+3013695Y+2360929D01*
X+3082305Y+2360929D01*
X+3122929Y+2320305D01*
X+3122929Y+2216163D01*
X+3140695Y+2233929D01*
X+3209305Y+2233929D01*
X+3249929Y+2193305D01*
X+3249929Y+2124695D01*
X+3209305Y+2084071D01*
X+3152155Y+2084071D01*
X+3115393Y+2047309D01*
X+2843573Y+2047309D01*
X+2839414Y+2043150D01*
X+2839414Y+2035554D01*
X+2970104Y+2035554D01*
X+2970104Y+2010079D01*
X+3275496Y+2010079D01*
X+3275496Y+2035554D01*
X+3430104Y+2035554D01*
X+3430104Y+1910946D01*
X+3275496Y+1910946D01*
X+3275496Y+1936421D01*
X+2970104Y+1936421D01*
X+2970104Y+1910946D01*
X+2839330Y+1910946D01*
X+2798854Y+1870470D01*
X+2798854Y+1818446D01*
X+2669246Y+1818446D01*
X+2669246Y+1836421D01*
X+2633754Y+1836421D01*
X+2633754Y+1818446D01*
X+2504146Y+1818446D01*
X+2504146Y+1836421D01*
X+2066305Y+1836421D01*
X+1911984Y+1682100D01*
X+1911984Y+1664350D01*
X+1920255Y+1656079D01*
X+2079005Y+1656079D01*
X+2084830Y+1650254D01*
X+2096804Y+1650254D01*
X+2096804Y+1638280D01*
X+2100579Y+1634505D01*
X+2100579Y+1432545D01*
X+2096804Y+1428770D01*
X+2096804Y+1416796D01*
X+2084830Y+1416796D01*
X+2079005Y+1410971D01*
X+2010547Y+1410971D01*
X+1998104Y+1398528D01*
X+1998104Y+1344672D01*
X+2057272Y+1285504D01*
X+2072362Y+1285504D01*
X+2071371Y+1286495D01*
X+2071371Y+1342405D01*
X+2105645Y+1376679D01*
X+2125946Y+1376679D01*
X+2125946Y+1428770D01*
X+2122171Y+1432545D01*
X+2122171Y+1564655D01*
X+2162795Y+1605279D01*
X+2218705Y+1605279D01*
X+2252979Y+1571005D01*
X+2252979Y+1526404D01*
X+2255554Y+1526404D01*
X+2255554Y+1517630D01*
X+2304430Y+1468754D01*
X+2375520Y+1468754D01*
X+2457476Y+1550710D01*
X+2666974Y+1550710D01*
X+2749730Y+1467954D01*
X+2759054Y+1467954D01*
X+2759054Y+1458630D01*
X+2760979Y+1456705D01*
X+2760979Y+1324595D01*
X+2759054Y+1322670D01*
X+2759054Y+1313346D01*
X+2749730Y+1313346D01*
X+2709324Y+1272940D01*
X+2450980Y+1272940D01*
X+2450964Y+1272956D01*
X+2419884Y+1272956D01*
X+2419884Y+1199805D01*
X+2480609Y+1199805D01*
X+2492330Y+1188084D01*
X+2948396Y+1188084D01*
X+2948396Y+1190304D01*
X+3173004Y+1190304D01*
X+3173004Y+965696D01*
X+3156161Y+965696D01*
X+3164275Y+949912D01*
X+3164275Y+936088D01*
X+3143160Y+895012D01*
X+3105700Y+882990D01*
X+3068240Y+895012D01*
X+3047125Y+936088D01*
X+3047125Y+949912D01*
X+3055239Y+965696D01*
X+2953292Y+965696D01*
X+2937304Y+949708D01*
X+2937304Y+864496D01*
X+2777696Y+864496D01*
X+2777696Y+1009104D01*
X+2862908Y+1009104D01*
X+2886720Y+1032916D01*
X+2663042Y+1032916D01*
X+2683854Y+1012104D01*
X+2772204Y+1012104D01*
X+2772204Y+867496D01*
X+2612596Y+867496D01*
X+2612596Y+955846D01*
X+2606674Y+961768D01*
X+2606674Y+902916D01*
X+2564129Y+902916D01*
X+2564129Y+795941D01*
X+2711248Y+648822D01*
X+2806394Y+648822D01*
X+2795271Y+659945D01*
X+2795271Y+698045D01*
X+2788820Y+704496D01*
X+2777696Y+704496D01*
X+2777696Y+715620D01*
X+2769871Y+723445D01*
X+2769871Y+830155D01*
X+2777696Y+837980D01*
X+2777696Y+849104D01*
X+2788820Y+849104D01*
X+2791445Y+851729D01*
X+2923555Y+851729D01*
X+2926180Y+849104D01*
X+2937304Y+849104D01*
X+2937304Y+837980D01*
X+2945129Y+830155D01*
X+2945129Y+723445D01*
X+2937304Y+715620D01*
X+2937304Y+704496D01*
X+2926180Y+704496D01*
X+2919729Y+698045D01*
X+2919729Y+659945D01*
X+2885455Y+625671D01*
X+2841113Y+625671D01*
X+2854780Y+612004D01*
X+2923720Y+612004D01*
X+2931145Y+619429D01*
X+3075955Y+619429D01*
X+3083380Y+612004D01*
X+3088820Y+612004D01*
X+3096245Y+619429D01*
X+3241055Y+619429D01*
X+3248480Y+612004D01*
X+3258854Y+612004D01*
X+3258854Y+601630D01*
X+3262629Y+597855D01*
X+3262629Y+516545D01*
X+3258854Y+512770D01*
X+3258854Y+512542D01*
X+3294346Y+548034D01*
X+3294346Y+612004D01*
X+3423954Y+612004D01*
X+3423954Y+402396D01*
X+3395979Y+402396D01*
X+3395979Y+395904D01*
X+3426454Y+395904D01*
X+3426454Y+261296D01*
X+3322229Y+261296D01*
X+3322229Y+194487D01*
X+3203913Y+76171D01*
X+2884213Y+76171D01*
X+2907029Y+53355D01*
X+2907029Y-53355D01*
X+2847355Y-113029D01*
X+2740645Y-113029D01*
X+2680971Y-53355D01*
X+2680971Y+53355D01*
X+2680972Y+53356D01*
X+2680972Y+60920D01*
X+2665736Y+76156D01*
X+2630228Y+76156D01*
X+2653029Y+53355D01*
X+2653029Y-53355D01*
X+2593355Y-113029D01*
X+2486645Y-113029D01*
X+2426971Y-53355D01*
X+2426971Y+60945D01*
X+2188482Y+299434D01*
X+2188482Y+580766D01*
X+2161484Y+607764D01*
X+2161484Y+789356D01*
X+2199716Y+827588D01*
X+2199716Y+848983D01*
X+1999807Y+848983D01*
X+1943984Y+904806D01*
X+1943984Y+942978D01*
X+1653570Y+1233392D01*
X+1653570Y+1425046D01*
X+1624329Y+1454287D01*
X+1624329Y+1419845D01*
X+1590055Y+1385571D01*
X+1534145Y+1385571D01*
X+1499871Y+1419845D01*
X+1499871Y+1457945D01*
X+1481440Y+1476376D01*
X+1415416Y+1476376D01*
X+1415416Y+1736724D01*
X+1530984Y+1736724D01*
X+1530984Y+1531000D01*
X+1542416Y+1519568D01*
X+1542416Y+1736724D01*
X+1657984Y+1736724D01*
X+1657984Y+1524800D01*
X+1669416Y+1513368D01*
X+1669416Y+1736724D01*
X+1754490Y+1736724D01*
X+1800845Y+1783079D01*
X+1856807Y+1783079D01*
X+2020588Y+1946860D01*
X+2240021Y+1946860D01*
X+2240021Y+2001205D01*
X+2274295Y+2035479D01*
X+2312395Y+2035479D01*
X+2367021Y+2090105D01*
X+2367021Y+2165105D01*
X+2426971Y+2225055D01*
X+2426971Y+2339355D01*
X+2486645Y+2399029D01*
X+2593355Y+2399029D01*
X+2604142Y+2388242D01*
G37*
G36*
X+3131890Y+1394605D02*
X+3143160Y+1390988D01*
X+3164275Y+1349912D01*
X+3164275Y+1336088D01*
X+3143160Y+1295012D01*
X+3105700Y+1282990D01*
X+3068240Y+1295012D01*
X+3047125Y+1336088D01*
X+3047125Y+1349912D01*
X+3068240Y+1390988D01*
X+3105700Y+1403010D01*
X+3131890Y+1394605D01*
G37*
G36*
X+35802Y+624502D02*
X+35802Y+624503D01*
X+65034Y+617114D01*
X+94977Y+586295D01*
X+103169Y+551800D01*
X+94977Y+517305D01*
X+65034Y+486486D01*
X+28800Y+477328D01*
X+21798Y+479097D01*
X-7434Y+486486D01*
X-37377Y+517305D01*
X-45569Y+551800D01*
X-37377Y+586295D01*
X-7434Y+617114D01*
X+28800Y+626272D01*
X+35802Y+624502D01*
G37*
G36*
X+35802Y+924502D02*
X+35802Y+924503D01*
X+65034Y+917114D01*
X+94977Y+886295D01*
X+103169Y+851800D01*
X+94977Y+817305D01*
X+65034Y+786486D01*
X+28800Y+777328D01*
X+21798Y+779097D01*
X-7434Y+786486D01*
X-37377Y+817305D01*
X-45569Y+851800D01*
X-37377Y+886295D01*
X-7434Y+917114D01*
X+28800Y+926272D01*
X+35802Y+924502D01*
G37*
G36*
X+2688605Y+1752579D02*
X+2707655Y+1733529D01*
X+2739405Y+1733529D01*
X+2744980Y+1727954D01*
X+2759054Y+1727954D01*
X+2759054Y+1713880D01*
X+2771155Y+1701779D01*
X+2891805Y+1701779D01*
X+2945129Y+1648455D01*
X+2945129Y+1490945D01*
X+2943654Y+1489470D01*
X+2943654Y+1478346D01*
X+2932530Y+1478346D01*
X+2923555Y+1469371D01*
X+2804145Y+1469371D01*
X+2795170Y+1478346D01*
X+2784046Y+1478346D01*
X+2784046Y+1489470D01*
X+2708895Y+1564621D01*
X+2658095Y+1564621D01*
X+2649370Y+1573346D01*
X+2638446Y+1573346D01*
X+2638446Y+1584270D01*
X+2636521Y+1586195D01*
X+2636521Y+1697971D01*
X+2574305Y+1697971D01*
X+2570479Y+1694145D01*
X+2570479Y+1586195D01*
X+2569054Y+1584770D01*
X+2569054Y+1573346D01*
X+2557630Y+1573346D01*
X+2548905Y+1564621D01*
X+2467595Y+1564621D01*
X+2458870Y+1573346D01*
X+2448446Y+1573346D01*
X+2448446Y+1583770D01*
X+2446021Y+1586195D01*
X+2446021Y+1711955D01*
X+2448446Y+1714380D01*
X+2448446Y+1727954D01*
X+2462020Y+1727954D01*
X+2467595Y+1733529D01*
X+2505695Y+1733529D01*
X+2543795Y+1771629D01*
X+2669555Y+1771629D01*
X+2688605Y+1752579D01*
G37*
G36*
X+2343025Y+2309621D02*
X+2343025Y+2262379D01*
X+2309621Y+2228975D01*
X+2262379Y+2228975D01*
X+2228975Y+2262379D01*
X+2228975Y+2309621D01*
X+2262379Y+2343025D01*
X+2309621Y+2343025D01*
X+2343025Y+2309621D01*
G37*
G36*
X+2096142Y+2388242D02*
X+2145029Y+2339355D01*
X+2145029Y+2232645D01*
X+2085355Y+2172971D01*
X+2015505Y+2172971D01*
X+1791406Y+1948872D01*
X+1776150Y+1948872D01*
X+1641455Y+1948871D01*
X+1496645Y+1948871D01*
X+1462371Y+1983145D01*
X+1462371Y+2039055D01*
X+1496645Y+2073329D01*
X+1744795Y+2073329D01*
X+1918971Y+2247505D01*
X+1918971Y+2339355D01*
X+1978645Y+2399029D01*
X+2085355Y+2399029D01*
X+2096142Y+2388242D01*
G37*
G36*
X+1835025Y+2309621D02*
X+1835025Y+2262379D01*
X+1801621Y+2228975D01*
X+1754379Y+2228975D01*
X+1720975Y+2262379D01*
X+1720975Y+2309621D01*
X+1754379Y+2343025D01*
X+1801621Y+2343025D01*
X+1835025Y+2309621D01*
G37*
G36*
X+1588142Y+2388242D02*
X+1637029Y+2339355D01*
X+1637029Y+2232645D01*
X+1577355Y+2172971D01*
X+1470645Y+2172971D01*
X+1410971Y+2232645D01*
X+1410971Y+2339355D01*
X+1470645Y+2399029D01*
X+1577355Y+2399029D01*
X+1588142Y+2388242D01*
G37*
G36*
X+1200025Y+2309621D02*
X+1200025Y+2262379D01*
X+1166621Y+2228975D01*
X+1119379Y+2228975D01*
X+1085975Y+2262379D01*
X+1085975Y+2309621D01*
X+1119379Y+2343025D01*
X+1166621Y+2343025D01*
X+1200025Y+2309621D01*
G37*
G36*
X+953142Y+2388242D02*
X+1002029Y+2339355D01*
X+1002029Y+2225055D01*
X+1129029Y+2098055D01*
X+1129029Y+1736724D01*
X+1149984Y+1736724D01*
X+1149984Y+1476376D01*
X+1034416Y+1476376D01*
X+1034416Y+1736724D01*
X+1055371Y+1736724D01*
X+1055371Y+2067545D01*
X+949945Y+2172971D01*
X+835645Y+2172971D01*
X+775971Y+2232645D01*
X+775971Y+2339355D01*
X+835645Y+2399029D01*
X+942355Y+2399029D01*
X+953142Y+2388242D01*
G37*
G36*
X+699142Y+2388242D02*
X+748029Y+2339355D01*
X+748029Y+2225055D01*
X+1002029Y+1971055D01*
X+1002029Y+1736724D01*
X+1022984Y+1736724D01*
X+1022984Y+1476376D01*
X+907416Y+1476376D01*
X+907416Y+1736724D01*
X+928371Y+1736724D01*
X+928371Y+1940545D01*
X+695945Y+2172971D01*
X+581645Y+2172971D01*
X+521971Y+2232645D01*
X+521971Y+2339355D01*
X+581645Y+2399029D01*
X+688355Y+2399029D01*
X+699142Y+2388242D01*
G37*
G36*
X+445142Y+2388242D02*
X+494029Y+2339355D01*
X+494029Y+2225055D01*
X+875029Y+1844055D01*
X+875029Y+1736724D01*
X+895984Y+1736724D01*
X+895984Y+1476376D01*
X+780416Y+1476376D01*
X+780416Y+1736724D01*
X+801371Y+1736724D01*
X+801371Y+1813545D01*
X+441945Y+2172971D01*
X+327645Y+2172971D01*
X+267971Y+2232645D01*
X+267971Y+2339355D01*
X+327645Y+2399029D01*
X+434355Y+2399029D01*
X+445142Y+2388242D01*
G37*
G36*
X+191142Y+2388242D02*
X+240029Y+2339355D01*
X+240029Y+2202805D01*
X+706110Y+1736724D01*
X+768984Y+1736724D01*
X+768984Y+1476376D01*
X+653416Y+1476376D01*
X+653416Y+1685250D01*
X+165695Y+2172971D01*
X+73645Y+2172971D01*
X+13971Y+2232645D01*
X+13971Y+2339355D01*
X+73645Y+2399029D01*
X+180355Y+2399029D01*
X+191142Y+2388242D01*
G37*
G36*
X+1403984Y+1476376D02*
X+1344110Y+1476376D01*
X+690292Y+822558D01*
X+690292Y+806724D01*
X+768984Y+806724D01*
X+768984Y+546376D01*
X+748029Y+546376D01*
X+748029Y+187945D01*
X+621029Y+60945D01*
X+621029Y-53355D01*
X+561355Y-113029D01*
X+454645Y-113029D01*
X+394971Y-53355D01*
X+394971Y+53355D01*
X+454645Y+113029D01*
X+568945Y+113029D01*
X+674371Y+218455D01*
X+674371Y+368287D01*
X+367029Y+60945D01*
X+367029Y-53355D01*
X+307355Y-113029D01*
X+200645Y-113029D01*
X+140971Y-53355D01*
X+140971Y+53355D01*
X+163754Y+76138D01*
X+128222Y+76138D01*
X+113029Y+60945D01*
X+113029Y-53355D01*
X+53355Y-113029D01*
X-53355Y-113029D01*
X-113029Y-53355D01*
X-113029Y+53355D01*
X-53355Y+113029D01*
X+60945Y+113029D01*
X+97712Y+149796D01*
X+299687Y+149796D01*
X+579900Y+430009D01*
X+579900Y+868313D01*
X+1182371Y+1470784D01*
X+1182371Y+1476376D01*
X+1161416Y+1476376D01*
X+1161416Y+1736724D01*
X+1276984Y+1736724D01*
X+1276984Y+1513418D01*
X+1288416Y+1524850D01*
X+1288416Y+1736724D01*
X+1403984Y+1736724D01*
X+1403984Y+1476376D01*
G37*
G36*
X+895984Y+546376D02*
X+875029Y+546376D01*
X+875029Y-53355D01*
X+815355Y-113029D01*
X+708645Y-113029D01*
X+648971Y-53355D01*
X+648971Y+53355D01*
X+708645Y+113029D01*
X+784845Y+113029D01*
X+801371Y+129555D01*
X+801371Y+546376D01*
X+780416Y+546376D01*
X+780416Y+806724D01*
X+895984Y+806724D01*
X+895984Y+546376D01*
G37*
G36*
X+1149984Y+546376D02*
X+1129029Y+546376D01*
X+1129029Y+193055D01*
X+1209055Y+113029D01*
X+1323355Y+113029D01*
X+1383029Y+53355D01*
X+1383029Y-53355D01*
X+1323355Y-113029D01*
X+1216645Y-113029D01*
X+1156971Y-53355D01*
X+1156971Y+60945D01*
X+1055371Y+162545D01*
X+1055371Y+546376D01*
X+1052829Y+546376D01*
X+1052829Y+129555D01*
X+1129029Y+53355D01*
X+1129029Y-53355D01*
X+1069355Y-113029D01*
X+962645Y-113029D01*
X+902971Y-53355D01*
X+902971Y+53355D01*
X+979171Y+129555D01*
X+979171Y+534645D01*
X+967440Y+546376D01*
X+907416Y+546376D01*
X+907416Y+806724D01*
X+1022984Y+806724D01*
X+1022984Y+595000D01*
X+1034416Y+583568D01*
X+1034416Y+806724D01*
X+1149984Y+806724D01*
X+1149984Y+546376D01*
G37*
G36*
X+1276984Y+546376D02*
X+1256029Y+546376D01*
X+1256029Y+320055D01*
X+1463055Y+113029D01*
X+1577355Y+113029D01*
X+1637029Y+53355D01*
X+1637029Y-53355D01*
X+1577355Y-113029D01*
X+1470645Y-113029D01*
X+1410971Y-53355D01*
X+1410971Y+60945D01*
X+1182371Y+289545D01*
X+1182371Y+546376D01*
X+1161416Y+546376D01*
X+1161416Y+806724D01*
X+1276984Y+806724D01*
X+1276984Y+546376D01*
G37*
G36*
X+1403984Y+546376D02*
X+1383029Y+546376D01*
X+1383029Y+447055D01*
X+1717055Y+113029D01*
X+1831355Y+113029D01*
X+1891029Y+53355D01*
X+1891029Y-53355D01*
X+1831355Y-113029D01*
X+1724645Y-113029D01*
X+1664971Y-53355D01*
X+1664971Y+60945D01*
X+1309371Y+416545D01*
X+1309371Y+546376D01*
X+1288416Y+546376D01*
X+1288416Y+806724D01*
X+1403984Y+806724D01*
X+1403984Y+546376D01*
G37*
G36*
X+1784984Y+546376D02*
X+1764029Y+546376D01*
X+1764029Y+372077D01*
X+1986298Y+149808D01*
X+2188276Y+149808D01*
X+2225055Y+113029D01*
X+2339355Y+113029D01*
X+2399029Y+53355D01*
X+2399029Y-53355D01*
X+2339355Y-113029D01*
X+2232645Y-113029D01*
X+2172971Y-53355D01*
X+2172971Y+60945D01*
X+2157766Y+76150D01*
X+2122234Y+76150D01*
X+2145029Y+53355D01*
X+2145029Y-53355D01*
X+2085355Y-113029D01*
X+1978645Y-113029D01*
X+1918971Y-53355D01*
X+1918971Y+60945D01*
X+1653634Y+326282D01*
X+1653634Y+491382D01*
X+1626779Y+518237D01*
X+1626779Y+481395D01*
X+1592505Y+447121D01*
X+1536595Y+447121D01*
X+1502321Y+481395D01*
X+1502321Y+519495D01*
X+1475440Y+546376D01*
X+1415416Y+546376D01*
X+1415416Y+806724D01*
X+1530984Y+806724D01*
X+1530984Y+595000D01*
X+1542416Y+583568D01*
X+1542416Y+806724D01*
X+1657984Y+806724D01*
X+1657984Y+591200D01*
X+1669416Y+579768D01*
X+1669416Y+806724D01*
X+1784984Y+806724D01*
X+1784984Y+546376D01*
G37*
G36*
X+1878965Y+686808D02*
X+1878965Y+666292D01*
X+1864458Y+651785D01*
X+1843942Y+651785D01*
X+1829435Y+666292D01*
X+1829435Y+686808D01*
X+1843942Y+701315D01*
X+1864458Y+701315D01*
X+1878965Y+686808D01*
G37*
G36*
X+3064645Y+1198475D02*
X+3056755Y+1198475D01*
X+3051175Y+1204055D01*
X+3051175Y+1211945D01*
X+3056755Y+1217525D01*
X+3064645Y+1217525D01*
X+3070225Y+1211945D01*
X+3070225Y+1204055D01*
X+3064645Y+1198475D01*
G37*
G36*
X+3064645Y+1263475D02*
X+3056755Y+1263475D01*
X+3051175Y+1269055D01*
X+3051175Y+1276945D01*
X+3056755Y+1282525D01*
X+3064645Y+1282525D01*
X+3070225Y+1276945D01*
X+3070225Y+1269055D01*
X+3064645Y+1263475D01*
G37*
G36*
X+3100465Y+1488258D02*
X+3100465Y+1467742D01*
X+3085958Y+1453235D01*
X+3065442Y+1453235D01*
X+3050935Y+1467742D01*
X+3050935Y+1488258D01*
X+3065442Y+1502765D01*
X+3085958Y+1502765D01*
X+3100465Y+1488258D01*
G37*
G36*
X+3100465Y+818258D02*
X+3100465Y+797742D01*
X+3085958Y+783235D01*
X+3065442Y+783235D01*
X+3050935Y+797742D01*
X+3050935Y+818258D01*
X+3065442Y+832765D01*
X+3085958Y+832765D01*
X+3100465Y+818258D01*
G37*
G36*
X+3345465Y+758258D02*
X+3345465Y+737742D01*
X+3330958Y+723235D01*
X+3310442Y+723235D01*
X+3295935Y+737742D01*
X+3295935Y+758258D01*
X+3310442Y+772765D01*
X+3330958Y+772765D01*
X+3345465Y+758258D01*
G37*
G36*
X+3345465Y+1548258D02*
X+3345465Y+1527742D01*
X+3330958Y+1513235D01*
X+3310442Y+1513235D01*
X+3295935Y+1527742D01*
X+3295935Y+1548258D01*
X+3310442Y+1562765D01*
X+3330958Y+1562765D01*
X+3345465Y+1548258D01*
G37*
G36*
X+2430275Y+1226555D02*
X+2430275Y+1234445D01*
X+2435855Y+1240025D01*
X+2443745Y+1240025D01*
X+2449325Y+1234445D01*
X+2449325Y+1226555D01*
X+2443745Y+1220975D01*
X+2435855Y+1220975D01*
X+2430275Y+1226555D01*
G37*
G36*
X+2902325Y+1752195D02*
X+2902325Y+1744305D01*
X+2896745Y+1738725D01*
X+2888855Y+1738725D01*
X+2883275Y+1744305D01*
X+2883275Y+1752195D01*
X+2888855Y+1757775D01*
X+2896745Y+1757775D01*
X+2902325Y+1752195D01*
G37*
G36*
X+3362325Y+1752195D02*
X+3362325Y+1744305D01*
X+3356745Y+1738725D01*
X+3348855Y+1738725D01*
X+3343275Y+1744305D01*
X+3343275Y+1752195D01*
X+3348855Y+1757775D01*
X+3356745Y+1757775D01*
X+3362325Y+1752195D01*
G37*
G36*
X+158565Y+347058D02*
X+158565Y+326542D01*
X+144058Y+312035D01*
X+123542Y+312035D01*
X+109035Y+326542D01*
X+109035Y+347058D01*
X+123542Y+361565D01*
X+144058Y+361565D01*
X+158565Y+347058D01*
G37*
G36*
X-51435Y+1077058D02*
X-51435Y+1056542D01*
X-65942Y+1042035D01*
X-86458Y+1042035D01*
X-100965Y+1056542D01*
X-100965Y+1077058D01*
X-86458Y+1091565D01*
X-65942Y+1091565D01*
X-51435Y+1077058D01*
G37*
G36*
X+158565Y+1077058D02*
X+158565Y+1056542D01*
X+144058Y+1042035D01*
X+123542Y+1042035D01*
X+109035Y+1056542D01*
X+109035Y+1077058D01*
X+123542Y+1091565D01*
X+144058Y+1091565D01*
X+158565Y+1077058D01*
G37*
G36*
X-51435Y+347058D02*
X-51435Y+326542D01*
X-65942Y+312035D01*
X-86458Y+312035D01*
X-100965Y+326542D01*
X-100965Y+347058D01*
X-86458Y+361565D01*
X-65942Y+361565D01*
X-51435Y+347058D01*
G37*
G36*
X+350492Y+984592D02*
X+380329Y+954755D01*
X+380329Y+898845D01*
X+339705Y+858221D01*
X+118695Y+858221D01*
X+112420Y+864496D01*
X+101496Y+864496D01*
X+101496Y+875420D01*
X+97121Y+879795D01*
X+97121Y+973805D01*
X+101496Y+978180D01*
X+101496Y+989104D01*
X+112420Y+989104D01*
X+118695Y+995379D01*
X+339705Y+995379D01*
X+350492Y+984592D01*
G37*
G36*
X+434955Y+689029D02*
X+469229Y+654755D01*
X+469229Y+598845D01*
X+428605Y+558221D01*
X+118695Y+558221D01*
X+112420Y+564496D01*
X+101496Y+564496D01*
X+101496Y+575420D01*
X+97121Y+579795D01*
X+97121Y+673805D01*
X+101496Y+678180D01*
X+101496Y+689104D01*
X+112420Y+689104D01*
X+118695Y+695379D01*
X+428605Y+695379D01*
X+434955Y+689029D01*
G37*
G36*
X+350492Y+534592D02*
X+380329Y+504755D01*
X+380329Y+448845D01*
X+339705Y+408221D01*
X+118695Y+408221D01*
X+112420Y+414496D01*
X+101496Y+414496D01*
X+101496Y+425420D01*
X+97121Y+429795D01*
X+97121Y+523805D01*
X+101496Y+528180D01*
X+101496Y+539104D01*
X+112420Y+539104D01*
X+118695Y+545379D01*
X+339705Y+545379D01*
X+350492Y+534592D01*
G37*
G36*
X+2613275Y+1654595D02*
X+2613275Y+1646705D01*
X+2607695Y+1641125D01*
X+2599805Y+1641125D01*
X+2594225Y+1646705D01*
X+2594225Y+1654595D01*
X+2599805Y+1660175D01*
X+2607695Y+1660175D01*
X+2613275Y+1654595D01*
G37*
G36*
X+3135475Y+2269628D02*
X+3135475Y+2302372D01*
X+3158628Y+2325525D01*
X+3191372Y+2325525D01*
X+3214525Y+2302372D01*
X+3214525Y+2269628D01*
X+3191372Y+2246475D01*
X+3158628Y+2246475D01*
X+3135475Y+2269628D01*
G37*
G36*
X+3383915Y+173858D02*
X+3383915Y+153342D01*
X+3369408Y+138835D01*
X+3348892Y+138835D01*
X+3334385Y+153342D01*
X+3334385Y+173858D01*
X+3348892Y+188365D01*
X+3369408Y+188365D01*
X+3383915Y+173858D01*
G37*
G36*
X+2888615Y+1400908D02*
X+2888615Y+1380392D01*
X+2874108Y+1365885D01*
X+2853592Y+1365885D01*
X+2839085Y+1380392D01*
X+2839085Y+1400908D01*
X+2853592Y+1415415D01*
X+2874108Y+1415415D01*
X+2888615Y+1400908D01*
G37*
G36*
X+2717165Y+790058D02*
X+2717165Y+769542D01*
X+2702658Y+755035D01*
X+2682142Y+755035D01*
X+2667635Y+769542D01*
X+2667635Y+790058D01*
X+2682142Y+804565D01*
X+2702658Y+804565D01*
X+2717165Y+790058D01*
G37*
G36*
X+2347095Y+1541125D02*
X+2339205Y+1541125D01*
X+2333625Y+1546705D01*
X+2333625Y+1554595D01*
X+2339205Y+1560175D01*
X+2347095Y+1560175D01*
X+2352675Y+1554595D01*
X+2352675Y+1546705D01*
X+2347095Y+1541125D01*
G37*
G36*
X+2035945Y+1362075D02*
X+2028055Y+1362075D01*
X+2022475Y+1367655D01*
X+2022475Y+1375545D01*
X+2028055Y+1381125D01*
X+2035945Y+1381125D01*
X+2041525Y+1375545D01*
X+2041525Y+1367655D01*
X+2035945Y+1362075D01*
G37*
G36*
X+2028055Y+1704975D02*
X+2035945Y+1704975D01*
X+2041525Y+1699395D01*
X+2041525Y+1691505D01*
X+2035945Y+1685925D01*
X+2028055Y+1685925D01*
X+2022475Y+1691505D01*
X+2022475Y+1699395D01*
X+2028055Y+1704975D01*
G37*
G36*
X+2781935Y+1230992D02*
X+2781935Y+1251508D01*
X+2796442Y+1266015D01*
X+2816958Y+1266015D01*
X+2831465Y+1251508D01*
X+2831465Y+1230992D01*
X+2816958Y+1216485D01*
X+2796442Y+1216485D01*
X+2781935Y+1230992D01*
G37*
G36*
X+2375535Y+1767742D02*
X+2375535Y+1788258D01*
X+2390042Y+1802765D01*
X+2410558Y+1802765D01*
X+2425065Y+1788258D01*
X+2425065Y+1767742D01*
X+2410558Y+1753235D01*
X+2390042Y+1753235D01*
X+2375535Y+1767742D01*
G37*
G36*
X+2121535Y+1767742D02*
X+2121535Y+1788258D01*
X+2136042Y+1802765D01*
X+2156558Y+1802765D01*
X+2171065Y+1788258D01*
X+2171065Y+1767742D01*
X+2156558Y+1753235D01*
X+2136042Y+1753235D01*
X+2121535Y+1767742D01*
G37*
G36*
X+1613535Y+1767742D02*
X+1613535Y+1788258D01*
X+1628042Y+1802765D01*
X+1648558Y+1802765D01*
X+1663065Y+1788258D01*
X+1663065Y+1767742D01*
X+1648558Y+1753235D01*
X+1628042Y+1753235D01*
X+1613535Y+1767742D01*
G37*
G36*
X+889635Y+1259742D02*
X+889635Y+1280258D01*
X+904142Y+1294765D01*
X+924658Y+1294765D01*
X+939165Y+1280258D01*
X+939165Y+1259742D01*
X+924658Y+1245235D01*
X+904142Y+1245235D01*
X+889635Y+1259742D01*
G37*
G36*
X+635635Y+1005742D02*
X+635635Y+1026258D01*
X+650142Y+1040765D01*
X+670658Y+1040765D01*
X+685165Y+1026258D01*
X+685165Y+1005742D01*
X+670658Y+991235D01*
X+650142Y+991235D01*
X+635635Y+1005742D01*
G37*
G36*
X+381635Y+751742D02*
X+381635Y+772258D01*
X+396142Y+786765D01*
X+416658Y+786765D01*
X+431165Y+772258D01*
X+431165Y+751742D01*
X+416658Y+737235D01*
X+396142Y+737235D01*
X+381635Y+751742D01*
G37*
G36*
X+1397635Y+1259742D02*
X+1397635Y+1280258D01*
X+1412142Y+1294765D01*
X+1432658Y+1294765D01*
X+1447165Y+1280258D01*
X+1447165Y+1259742D01*
X+1432658Y+1245235D01*
X+1412142Y+1245235D01*
X+1397635Y+1259742D01*
G37*
G36*
X+1143635Y+1005742D02*
X+1143635Y+1026258D01*
X+1158142Y+1040765D01*
X+1178658Y+1040765D01*
X+1193165Y+1026258D01*
X+1193165Y+1005742D01*
X+1178658Y+991235D01*
X+1158142Y+991235D01*
X+1143635Y+1005742D01*
G37*
G36*
X+1651635Y+1005742D02*
X+1651635Y+1026258D01*
X+1666142Y+1040765D01*
X+1686658Y+1040765D01*
X+1701165Y+1026258D01*
X+1701165Y+1005742D01*
X+1686658Y+991235D01*
X+1666142Y+991235D01*
X+1651635Y+1005742D01*
G37*
G36*
X+1918335Y+218342D02*
X+1918335Y+238858D01*
X+1932842Y+253365D01*
X+1953358Y+253365D01*
X+1967865Y+238858D01*
X+1967865Y+218342D01*
X+1953358Y+203835D01*
X+1932842Y+203835D01*
X+1918335Y+218342D01*
G37*
G36*
X+1651635Y+243742D02*
X+1651635Y+264258D01*
X+1666142Y+278765D01*
X+1686658Y+278765D01*
X+1701165Y+264258D01*
X+1701165Y+243742D01*
X+1686658Y+229235D01*
X+1666142Y+229235D01*
X+1651635Y+243742D01*
G37*
G36*
X+1397635Y+243742D02*
X+1397635Y+264258D01*
X+1412142Y+278765D01*
X+1432658Y+278765D01*
X+1447165Y+264258D01*
X+1447165Y+243742D01*
X+1432658Y+229235D01*
X+1412142Y+229235D01*
X+1397635Y+243742D01*
G37*
G36*
X+1143635Y+243742D02*
X+1143635Y+264258D01*
X+1158142Y+278765D01*
X+1178658Y+278765D01*
X+1193165Y+264258D01*
X+1193165Y+243742D01*
X+1178658Y+229235D01*
X+1158142Y+229235D01*
X+1143635Y+243742D01*
G37*
G36*
X+889635Y+243742D02*
X+889635Y+264258D01*
X+904142Y+278765D01*
X+924658Y+278765D01*
X+939165Y+264258D01*
X+939165Y+243742D01*
X+924658Y+229235D01*
X+904142Y+229235D01*
X+889635Y+243742D01*
G37*
G36*
X+622935Y+243742D02*
X+622935Y+264258D01*
X+637442Y+278765D01*
X+657958Y+278765D01*
X+672465Y+264258D01*
X+672465Y+243742D01*
X+657958Y+229235D01*
X+637442Y+229235D01*
X+622935Y+243742D01*
G37*
G36*
X+2921635Y-10258D02*
X+2921635Y+10258D01*
X+2936142Y+24765D01*
X+2956658Y+24765D01*
X+2971165Y+10258D01*
X+2971165Y-10258D01*
X+2956658Y-24765D01*
X+2936142Y-24765D01*
X+2921635Y-10258D01*
G37*
G36*
X+2707073Y+1772754D02*
X+2707073Y+1793270D01*
X+2721580Y+1807777D01*
X+2742096Y+1807777D01*
X+2756603Y+1793270D01*
X+2756603Y+1772754D01*
X+2742096Y+1758247D01*
X+2721580Y+1758247D01*
X+2707073Y+1772754D01*
G37*
G36*
X+3175635Y+1767742D02*
X+3175635Y+1788258D01*
X+3190142Y+1802765D01*
X+3210658Y+1802765D01*
X+3225165Y+1788258D01*
X+3225165Y+1767742D01*
X+3210658Y+1753235D01*
X+3190142Y+1753235D01*
X+3175635Y+1767742D01*
G37*
G36*
X+2007235Y+2021742D02*
X+2007235Y+2042258D01*
X+2021742Y+2056765D01*
X+2042258Y+2056765D01*
X+2056765Y+2042258D01*
X+2056765Y+2021742D01*
X+2042258Y+2007235D01*
X+2021742Y+2007235D01*
X+2007235Y+2021742D01*
G37*
G36*
X+991235Y+2021742D02*
X+991235Y+2042258D01*
X+1005742Y+2056765D01*
X+1026258Y+2056765D01*
X+1040765Y+2042258D01*
X+1040765Y+2021742D01*
X+1026258Y+2007235D01*
X+1005742Y+2007235D01*
X+991235Y+2021742D01*
G37*
G36*
X+229235Y+2021742D02*
X+229235Y+2042258D01*
X+243742Y+2056765D01*
X+264258Y+2056765D01*
X+278765Y+2042258D01*
X+278765Y+2021742D01*
X+264258Y+2007235D01*
X+243742Y+2007235D01*
X+229235Y+2021742D01*
G37*
G36*
X+483235Y+2021742D02*
X+483235Y+2042258D01*
X+497742Y+2056765D01*
X+518258Y+2056765D01*
X+532765Y+2042258D01*
X+532765Y+2021742D01*
X+518258Y+2007235D01*
X+497742Y+2007235D01*
X+483235Y+2021742D01*
G37*
G36*
X+737235Y+2021742D02*
X+737235Y+2042258D01*
X+751742Y+2056765D01*
X+772258Y+2056765D01*
X+786765Y+2042258D01*
X+786765Y+2021742D01*
X+772258Y+2007235D01*
X+751742Y+2007235D01*
X+737235Y+2021742D01*
G37*
G36*
X+229235Y+1513742D02*
X+229235Y+1534258D01*
X+243742Y+1548765D01*
X+264258Y+1548765D01*
X+278765Y+1534258D01*
X+278765Y+1513742D01*
X+264258Y+1499235D01*
X+243742Y+1499235D01*
X+229235Y+1513742D01*
G37*
G36*
X+483235Y+1767742D02*
X+483235Y+1788258D01*
X+497742Y+1802765D01*
X+518258Y+1802765D01*
X+532765Y+1788258D01*
X+532765Y+1767742D01*
X+518258Y+1753235D01*
X+497742Y+1753235D01*
X+483235Y+1767742D01*
G37*
G36*
X+483235Y+1259742D02*
X+483235Y+1280258D01*
X+497742Y+1294765D01*
X+518258Y+1294765D01*
X+532765Y+1280258D01*
X+532765Y+1259742D01*
X+518258Y+1245235D01*
X+497742Y+1245235D01*
X+483235Y+1259742D01*
G37*
%LPD*%
G36*
X+2755900Y+1658600D02*
X+2847877Y+1658600D01*
X+2839085Y+1649808D01*
X+2839085Y+1629292D01*
X+2853592Y+1614785D01*
X+2874108Y+1614785D01*
X+2888615Y+1629292D01*
X+2888615Y+1646535D01*
X+2901950Y+1633200D01*
X+2901950Y+1518900D01*
X+2895600Y+1512550D01*
X+2819400Y+1512550D01*
X+2730500Y+1601450D01*
X+2730500Y+1677650D01*
X+2736850Y+1677650D01*
X+2755900Y+1658600D01*
G37*
%LPC*%
G36*
X+2888615Y+1560908D02*
X+2888615Y+1540392D01*
X+2874108Y+1525885D01*
X+2853592Y+1525885D01*
X+2839085Y+1540392D01*
X+2839085Y+1560908D01*
X+2853592Y+1575415D01*
X+2874108Y+1575415D01*
X+2888615Y+1560908D01*
G37*
%LPD*%
G36*
X+2165985Y+1532792D02*
X+2180492Y+1518285D01*
X+2201008Y+1518285D01*
X+2209800Y+1527077D01*
X+2209800Y+1504950D01*
X+2292350Y+1422400D01*
X+2292350Y+1421569D01*
X+2285366Y+1414585D01*
X+2285366Y+1403984D01*
X+2235200Y+1454150D01*
X+2171700Y+1454150D01*
X+2165350Y+1460500D01*
X+2165350Y+1549400D01*
X+2165985Y+1550035D01*
X+2165985Y+1532792D01*
G37*
%LPC*%
G36*
X+2186805Y+1481125D02*
X+2194695Y+1481125D01*
X+2200275Y+1475545D01*
X+2200275Y+1467655D01*
X+2194695Y+1462075D01*
X+2186805Y+1462075D01*
X+2181225Y+1467655D01*
X+2181225Y+1475545D01*
X+2186805Y+1481125D01*
G37*
%LPD*%
G36*
X+2717800Y+1441450D02*
X+2717800Y+1339850D01*
X+2692400Y+1314450D01*
X+2569054Y+1314450D01*
X+2569054Y+1318104D01*
X+2578100Y+1327150D01*
X+2578100Y+1454150D01*
X+2569054Y+1463196D01*
X+2569054Y+1467954D01*
X+2564296Y+1467954D01*
X+2559050Y+1473200D01*
X+2463800Y+1473200D01*
X+2458554Y+1467954D01*
X+2448446Y+1467954D01*
X+2448446Y+1457846D01*
X+2444750Y+1454150D01*
X+2444750Y+1320800D01*
X+2448446Y+1317104D01*
X+2448446Y+1314450D01*
X+2336800Y+1314450D01*
X+2311400Y+1339850D01*
X+2311400Y+1422400D01*
X+2317750Y+1428750D01*
X+2393950Y+1428750D01*
X+2470150Y+1504950D01*
X+2654300Y+1504950D01*
X+2717800Y+1441450D01*
G37*
%LPC*%
G36*
X+2708275Y+1394595D02*
X+2708275Y+1386705D01*
X+2702695Y+1381125D01*
X+2694805Y+1381125D01*
X+2689225Y+1386705D01*
X+2689225Y+1394595D01*
X+2694805Y+1400175D01*
X+2702695Y+1400175D01*
X+2708275Y+1394595D01*
G37*
G36*
X+2367915Y+1400908D02*
X+2367915Y+1380392D01*
X+2353408Y+1365885D01*
X+2332892Y+1365885D01*
X+2318385Y+1380392D01*
X+2318385Y+1400908D01*
X+2332892Y+1415415D01*
X+2353408Y+1415415D01*
X+2367915Y+1400908D01*
G37*
%LPD*%
G36*
X+1905000Y+1612900D02*
X+2051050Y+1612900D01*
X+2057400Y+1606550D01*
X+2057400Y+1460500D01*
X+2051050Y+1454150D01*
X+1987550Y+1454150D01*
X+1955800Y+1422400D01*
X+1949450Y+1422400D01*
X+1847850Y+1524000D01*
X+1847850Y+1599430D01*
X+1850255Y+1597025D01*
X+1858145Y+1597025D01*
X+1863725Y+1602605D01*
X+1863725Y+1610495D01*
X+1858145Y+1616075D01*
X+1850255Y+1616075D01*
X+1847850Y+1613670D01*
X+1847850Y+1651000D01*
X+1866900Y+1651000D01*
X+1905000Y+1612900D01*
G37*
%LPC*%
G36*
X+2035945Y+1462075D02*
X+2028055Y+1462075D01*
X+2022475Y+1467655D01*
X+2022475Y+1475545D01*
X+2028055Y+1481125D01*
X+2035945Y+1481125D01*
X+2041525Y+1475545D01*
X+2041525Y+1467655D01*
X+2035945Y+1462075D01*
G37*
G36*
X+2028055Y+1604975D02*
X+2035945Y+1604975D01*
X+2041525Y+1599395D01*
X+2041525Y+1591505D01*
X+2035945Y+1585925D01*
X+2028055Y+1585925D01*
X+2022475Y+1591505D01*
X+2022475Y+1599395D01*
X+2028055Y+1604975D01*
G37*
G36*
X+2007235Y+1520092D02*
X+2007235Y+1540608D01*
X+2021742Y+1555115D01*
X+2042258Y+1555115D01*
X+2056765Y+1540608D01*
X+2056765Y+1520092D01*
X+2042258Y+1505585D01*
X+2021742Y+1505585D01*
X+2007235Y+1520092D01*
G37*
G36*
X+1918335Y+1520092D02*
X+1918335Y+1540608D01*
X+1932842Y+1555115D01*
X+1953358Y+1555115D01*
X+1967865Y+1540608D01*
X+1967865Y+1520092D01*
X+1953358Y+1505585D01*
X+1932842Y+1505585D01*
X+1918335Y+1520092D01*
G37*
%LPD*%
G36*
X+1913496Y+1399920D02*
X+1913496Y+1313179D01*
X+1896095Y+1313179D01*
X+1861821Y+1278905D01*
X+1861821Y+1233279D01*
X+1827529Y+1267571D01*
X+1827529Y+1476376D01*
X+1837040Y+1476376D01*
X+1913496Y+1399920D01*
G37*
%LPC*%
G36*
X+1842135Y+1361342D02*
X+1842135Y+1381858D01*
X+1856642Y+1396365D01*
X+1877158Y+1396365D01*
X+1891665Y+1381858D01*
X+1891665Y+1361342D01*
X+1877158Y+1346835D01*
X+1856642Y+1346835D01*
X+1842135Y+1361342D01*
G37*
%LPD*%
G36*
X+2640296Y+563570D02*
X+2640296Y+563529D01*
X+2598421Y+521654D01*
X+2598421Y+383555D01*
X+2587666Y+372800D01*
X+2568037Y+392429D01*
X+2512127Y+392429D01*
X+2477853Y+358155D01*
X+2477853Y+302245D01*
X+2512127Y+267971D01*
X+2550145Y+267971D01*
X+2586885Y+231231D01*
X+2665743Y+231231D01*
X+2665774Y+231200D01*
X+2720356Y+231200D01*
X+2720387Y+231231D01*
X+2830834Y+231231D01*
X+2900679Y+301076D01*
X+2900679Y+402396D01*
X+2928654Y+402396D01*
X+2928654Y+497462D01*
X+2931145Y+494971D01*
X+2964146Y+494971D01*
X+2964146Y+402396D01*
X+2985562Y+402396D01*
X+2966721Y+383555D01*
X+2966721Y+356654D01*
X+2943746Y+356654D01*
X+2943746Y+237046D01*
X+3148354Y+237046D01*
X+3148354Y+304570D01*
X+3230879Y+387095D01*
X+3230879Y+402396D01*
X+3248571Y+402396D01*
X+3248571Y+224997D01*
X+3173403Y+149829D01*
X+2748221Y+149829D01*
X+2708238Y+189812D01*
X+2548322Y+189812D01*
X+2506979Y+231155D01*
X+2506979Y+269255D01*
X+2472705Y+303529D01*
X+2416795Y+303529D01*
X+2382521Y+269255D01*
X+2382521Y+261595D01*
X+2298904Y+345212D01*
X+2298904Y+596020D01*
X+2324304Y+621420D01*
X+2324304Y+677330D01*
X+2303059Y+698575D01*
X+2317650Y+713166D01*
X+2346845Y+683971D01*
X+2402755Y+683971D01*
X+2437029Y+718245D01*
X+2437029Y+766837D01*
X+2640296Y+563570D01*
G37*
%LPC*%
G36*
X+3084605Y+201375D02*
X+3092495Y+201375D01*
X+3098075Y+195795D01*
X+3098075Y+187905D01*
X+3092495Y+182325D01*
X+3084605Y+182325D01*
X+3079025Y+187905D01*
X+3079025Y+195795D01*
X+3084605Y+201375D01*
G37*
G36*
X+2999605Y+201375D02*
X+3007495Y+201375D01*
X+3013075Y+195795D01*
X+3013075Y+187905D01*
X+3007495Y+182325D01*
X+2999605Y+182325D01*
X+2994025Y+187905D01*
X+2994025Y+195795D01*
X+2999605Y+201375D01*
G37*
G36*
X+3152685Y+181592D02*
X+3152685Y+202108D01*
X+3167192Y+216615D01*
X+3187708Y+216615D01*
X+3202215Y+202108D01*
X+3202215Y+181592D01*
X+3187708Y+167085D01*
X+3167192Y+167085D01*
X+3152685Y+181592D01*
G37*
G36*
X+2413635Y+497742D02*
X+2413635Y+518258D01*
X+2428142Y+532765D01*
X+2448658Y+532765D01*
X+2463165Y+518258D01*
X+2463165Y+497742D01*
X+2448658Y+483235D01*
X+2428142Y+483235D01*
X+2413635Y+497742D01*
G37*
%LPD*%
D10*
X+2857500Y+936800D02*
X+2933700Y+1013000D01*
X+3060700Y+1013000D01*
D11*
X+3060700Y+1078000D02*
X+2527300Y+1078000D01*
X+2527300Y+1143000D02*
X+3060700Y+1143000D01*
D12*
X+3359150Y+328600D02*
X+3359150Y+457200D01*
X+3088550Y+296850D02*
X+3194050Y+402350D01*
X+3194050Y+457200D01*
X+3060700Y+1273000D02*
X+2806700Y+1273000D01*
X+2806700Y+1241250D01*
X+2806700Y+1208000D01*
D11*
X+2692400Y+939800D02*
X+2619200Y+1013000D01*
X+2527300Y+1013000D01*
D12*
X+1524000Y+2286000D02*
X+1524000Y+2362200D01*
X+1562100Y+2362200D01*
X+1600200Y+2324100D01*
X+1600200Y+2247900D01*
X+1562100Y+2209800D01*
X+1485900Y+2209800D01*
X+1447800Y+2247900D01*
X+1447800Y+2324100D01*
X+1485900Y+2362200D01*
X+1524000Y+2362200D01*
X+2921000Y+2286000D02*
X+2921000Y+2247900D01*
X+3048000Y+2286000D02*
X+3048000Y+2247900D01*
X+3175000Y+2247900D02*
X+3194050Y+2247900D01*
X+3203575Y+2257425D01*
X+3213100Y+2266950D01*
X+3213100Y+2286000D01*
X+3048000Y+2120900D02*
X+3067050Y+2120900D01*
X+3076575Y+2130425D01*
X+3086100Y+2139950D01*
X+3086100Y+2159000D01*
X+3048000Y+2197100D02*
X+3048000Y+2159000D01*
X+2921000Y+2120900D02*
X+2940050Y+2120900D01*
X+2949575Y+2130425D01*
X+2959100Y+2139950D01*
X+2959100Y+2159000D01*
X+2921000Y+2197100D02*
X+2921000Y+2159000D01*
X+2794000Y+2159000D02*
X+2832100Y+2159000D01*
X+2832100Y+2178050D01*
X+2813050Y+2197100D01*
X+2794000Y+2197100D01*
X+3175000Y+2286000D02*
X+3203575Y+2257425D01*
X+3340100Y+2120900D01*
X+3320700Y+1538000D02*
X+3460750Y+1538000D01*
X+3527473Y+1604723D01*
X+3527473Y+1746250D01*
X+3527473Y+2073227D01*
X+3479800Y+2120900D01*
X+3340100Y+2120900D01*
X+2870200Y+814900D02*
X+2857500Y+814900D01*
X+2857500Y+776800D02*
X+2857500Y+814900D01*
X+2870200Y+814900D02*
X+2908300Y+814900D01*
X+2908300Y+738700D01*
X+2882900Y+700600D02*
X+2882900Y+694250D01*
X+2882900Y+681550D01*
X+2832100Y+700600D02*
X+2832100Y+694250D01*
X+2857500Y+814900D02*
X+2806700Y+814900D01*
X+2806700Y+738700D01*
X+2908300Y+738700D01*
X+2857500Y+687900D02*
X+2882900Y+687900D01*
X+2882900Y+675200D01*
X+2870200Y+662500D01*
X+2844800Y+662500D01*
X+2832100Y+675200D01*
X+2832100Y+694250D01*
X+2832100Y+713300D02*
X+2844800Y+713300D01*
X+2870200Y+713300D01*
X+2882900Y+713300D01*
X+2882900Y+700600D01*
X+2832100Y+713300D02*
X+2832100Y+700600D01*
X+2844800Y+713300D01*
X+2870200Y+713300D02*
X+2882900Y+700600D01*
X+2819400Y+726000D02*
X+2895600Y+726000D01*
X+2908300Y+738700D02*
X+2895600Y+726000D01*
X+2882900Y+713300D01*
X+2806700Y+738700D02*
X+2819400Y+726000D01*
X+2832100Y+713300D01*
X+3320700Y+1538000D02*
X+3352800Y+1570100D01*
X+3352800Y+1748250D01*
X+2439800Y+1208000D02*
X+2439800Y+1230500D01*
X+2362200Y+30200D02*
X+2362200Y+38100D01*
X+2343150Y+57150D02*
X+2362200Y+38100D01*
X+2286000Y+76200D02*
X+2324100Y+76200D01*
X+2286000Y+0D02*
X+2286000Y+76200D01*
X+2324100Y+76200D02*
X+2343150Y+57150D01*
X+2108200Y+4800D02*
X+2108200Y+38100D01*
X+2089150Y+57150D02*
X+2108200Y+38100D01*
X+2040650Y+76200D02*
X+2070100Y+76200D01*
X+2089150Y+57150D01*
X+3194050Y+557200D02*
X+3124200Y+557200D01*
X+3028950Y+557200D02*
X+2959100Y+557200D01*
X+3060700Y+569900D02*
X+2959100Y+569900D01*
X+2933700Y+569900D01*
X+2959100Y+557200D02*
X+2959100Y+569900D01*
X+2959100Y+582600D01*
X+2971800Y+582600D01*
X+3060700Y+582600D01*
X+3060700Y+569900D01*
X+2933700Y+569900D02*
X+2946400Y+582600D01*
X+2978150Y+582600D01*
X+3060700Y+544500D02*
X+2933700Y+544500D01*
X+3060700Y+569900D02*
X+3060700Y+544500D01*
X+3060700Y+531800D01*
X+2946400Y+531800D01*
X+2933700Y+544500D01*
X+2933700Y+569900D01*
X+3225800Y+569900D02*
X+3124200Y+569900D01*
X+3098800Y+569900D01*
X+3124200Y+557200D02*
X+3124200Y+569900D01*
X+3124200Y+582600D01*
X+3225800Y+582600D01*
X+3225800Y+569900D01*
X+3098800Y+569900D02*
X+3111500Y+582600D01*
X+3130550Y+582600D01*
X+3225800Y+544500D02*
X+3098800Y+544500D01*
X+3225800Y+569900D02*
X+3225800Y+544500D01*
X+3225800Y+531800D01*
X+3111500Y+531800D01*
X+3098800Y+544500D01*
X+3098800Y+569900D01*
X+3003550Y+191850D02*
X+3048000Y+191850D01*
X+3088550Y+191850D01*
X+2374800Y+771600D02*
X+2374800Y+746200D01*
X+2393850Y+765250D02*
X+2387500Y+771600D01*
X+2374800Y+784300D01*
X+2374800Y+746200D02*
X+2400200Y+746200D01*
X+2400200Y+758900D01*
X+2393850Y+765250D01*
X+2387500Y+771600D02*
X+2374800Y+771600D01*
X+2374800Y+860500D02*
X+2374800Y+784300D01*
X+2374800Y+771600D01*
X+2355750Y+765250D02*
X+2362100Y+771600D01*
X+2374800Y+784300D01*
X+2374800Y+771600D02*
X+2362100Y+771600D01*
X+2355750Y+765250D02*
X+2349400Y+758900D01*
X+2349400Y+733500D01*
X+2362100Y+720800D01*
X+2387500Y+720800D01*
X+2400200Y+733500D01*
X+2400200Y+746200D01*
X+2284400Y+760400D02*
X+2284400Y+739850D01*
X+2284400Y+760400D02*
X+2279550Y+765250D01*
X+2260500Y+746200D02*
X+2260500Y+720800D01*
X+2273200Y+720800D01*
X+2285900Y+733500D01*
X+2285900Y+739850D01*
X+2285900Y+758900D02*
X+2284400Y+760400D01*
X+2241450Y+765250D02*
X+2247800Y+771600D01*
X+2241450Y+765250D02*
X+2235100Y+758900D01*
X+2235100Y+733500D01*
X+2247800Y+720800D01*
X+2266850Y+720800D01*
X+2279550Y+765250D02*
X+2273200Y+771600D01*
X+2260500Y+746200D02*
X+2279550Y+765250D01*
X+2285900Y+746200D02*
X+2285900Y+758900D01*
X+2285900Y+771600D01*
X+2285900Y+739850D02*
X+2285900Y+746200D01*
X+2279550Y+765250D02*
X+2285900Y+771600D01*
X+2297850Y+783550D02*
X+2309800Y+795500D01*
X+2309800Y+860500D01*
X+2252650Y+771600D02*
X+2273200Y+771600D01*
X+2285900Y+771600D01*
X+2297850Y+783550D01*
X+2252650Y+771600D02*
X+2247800Y+771600D01*
X+2863850Y+557200D02*
X+2860202Y+557200D01*
X+2343150Y+57150D02*
X+2286000Y+0D01*
X+2705100Y+557200D02*
X+2701611Y+557200D01*
X+2089150Y+57150D02*
X+2032000Y+0D01*
X+2701611Y+557200D02*
X+2698750Y+557200D01*
X+2439800Y+816150D01*
X+2439800Y+860500D01*
X+2860202Y+557200D02*
X+2859812Y+557200D01*
X+2857500Y+557200D01*
X+2527300Y+948000D02*
X+2527300Y+780686D01*
X+2695993Y+611993D01*
X+2802707Y+611993D01*
X+2857500Y+557200D01*
X+2540000Y+0D02*
X+2597150Y+57150D01*
X+2787650Y+342900D02*
X+2787650Y+330200D01*
X+2771775Y+307975D02*
X+2774950Y+304800D01*
X+2800350Y+304800D01*
X+2813050Y+317500D01*
X+2813050Y+342900D01*
X+2787650Y+355600D02*
X+2787650Y+342900D01*
X+2787650Y+330200D02*
X+2787650Y+323850D01*
X+2771775Y+307975D01*
X+2806700Y+349250D02*
X+2800350Y+355600D01*
X+2787650Y+368300D01*
X+2787650Y+330200D02*
X+2813050Y+330200D01*
X+2813050Y+342900D01*
X+2806700Y+349250D01*
X+2800350Y+355600D02*
X+2787650Y+355600D01*
X+2857500Y+557200D02*
X+2844800Y+557200D01*
X+2787650Y+500050D01*
X+2787650Y+368300D01*
X+2787650Y+355600D01*
X+2768600Y+349250D02*
X+2774950Y+355600D01*
X+2787650Y+368300D01*
X+2787650Y+355600D02*
X+2774950Y+355600D01*
X+2768600Y+349250D02*
X+2762250Y+342900D01*
X+2762250Y+317500D01*
X+2771775Y+307975D01*
X+2616200Y+311150D02*
X+2622550Y+304800D01*
X+2647950Y+304800D01*
X+2660650Y+317500D01*
X+2660650Y+342900D01*
X+2635250Y+355600D02*
X+2635250Y+330200D01*
X+2616200Y+311150D01*
X+2654300Y+349250D02*
X+2647950Y+355600D01*
X+2635250Y+368300D01*
X+2635250Y+330200D02*
X+2660650Y+330200D01*
X+2660650Y+342900D01*
X+2654300Y+349250D01*
X+2647950Y+355600D02*
X+2635250Y+355600D01*
X+2698750Y+557200D02*
X+2686051Y+557200D01*
X+2635250Y+506399D01*
X+2635250Y+368300D01*
X+2635250Y+355600D01*
X+2616200Y+349250D02*
X+2622550Y+355600D01*
X+2635250Y+368300D01*
X+2635250Y+355600D02*
X+2622550Y+355600D01*
X+2616200Y+349250D02*
X+2609850Y+342900D01*
X+2609850Y+317500D01*
X+2616200Y+311150D01*
X+2286000Y+0D02*
X+2228850Y+57150D01*
X+2032000Y+0D02*
X+1974850Y+57150D01*
X+1727200Y+603250D02*
X+1727200Y+558800D01*
X+1727200Y+356822D01*
X+1824619Y+259403D01*
X+1971043Y+112979D01*
X+2173021Y+112979D01*
X+1727200Y+603250D02*
X+1727200Y+676550D01*
X+2209800Y+6350D02*
X+2209800Y+38100D01*
X+2209800Y+76200D01*
X+2362200Y+30200D02*
X+2362200Y-38100D01*
X+2324100Y-76200D01*
X+2247900Y-76200D01*
X+2209800Y-38100D01*
X+2209800Y+6350D01*
X+2209800Y+38100D02*
X+2228850Y+57150D01*
X+2173021Y+112979D02*
X+2197100Y+88900D01*
X+2228850Y+57150D02*
X+2209800Y+76200D01*
X+2260600Y+76200D02*
X+2247900Y+76200D01*
X+2209800Y+76200D01*
X+2206625Y+79375D01*
X+2197100Y+88900D01*
X+2228850Y+57150D02*
X+2247900Y+76200D01*
X+2260600Y+76200D02*
X+2286000Y+76200D01*
X+2040650Y+76200D02*
X+2032000Y+76200D01*
X+1993900Y+76200D01*
X+1955800Y+76200D01*
X+2032000Y+0D02*
X+2032000Y+76200D01*
X+1974850Y+57150D02*
X+1955800Y+76200D01*
X+1974850Y+57150D02*
X+1993900Y+76200D01*
X+1955800Y+19050D02*
X+1955800Y+38100D01*
X+1955800Y+76200D01*
X+2108200Y+4800D02*
X+2108200Y-38100D01*
X+2070100Y-76200D01*
X+1993900Y-76200D01*
X+1955800Y-38100D01*
X+1955800Y+19050D01*
X+1955800Y+38100D02*
X+1974850Y+57150D01*
X+1600200Y+676550D02*
X+1600200Y+596900D01*
X+1690463Y+506637D01*
X+1690463Y+341537D01*
X+1955800Y+76200D01*
X+2540000Y+76200D02*
X+2540000Y+0D01*
X+2794000Y+0D02*
X+2736850Y+57150D01*
X+2281125Y+630325D02*
X+2262075Y+649375D01*
X+2287475Y+655725D02*
X+2287475Y+636675D01*
X+2268425Y+623975D02*
X+2274775Y+623975D01*
X+2024328Y+967428D02*
X+2043000Y+948000D01*
X+2068400Y+948000D01*
X+2065225Y+932125D02*
X+2068400Y+935300D01*
X+2081100Y+948000D01*
X+2068400Y+948000D02*
X+2068400Y+935300D01*
X+2068400Y+948000D02*
X+2081100Y+948000D01*
X+2157300Y+948000D01*
X+2065225Y+963875D02*
X+2068400Y+960700D01*
X+2081100Y+948000D01*
X+2068400Y+960700D02*
X+2068400Y+948000D01*
X+2043000Y+948000D02*
X+2023950Y+967050D01*
X+2024328Y+967428D01*
X+1727200Y+1316300D02*
X+1727200Y+1276601D01*
X+1727200Y+1263800D01*
X+1727200Y+1606550D02*
X+1727200Y+1316300D01*
X+2017600Y+948000D02*
X+2017600Y+960700D01*
X+2017600Y+973400D01*
X+2065225Y+932125D02*
X+2055700Y+922600D01*
X+2030300Y+922600D01*
X+2017600Y+935300D01*
X+2017600Y+948000D01*
X+2017600Y+960700D02*
X+2023950Y+967050D01*
X+2017600Y+973400D01*
X+1727200Y+1263800D01*
X+2049350Y+973400D02*
X+2043000Y+973400D01*
X+2030300Y+973400D01*
X+2017600Y+973400D01*
X+2024328Y+967428D02*
X+2030300Y+973400D01*
X+2043000Y+948000D02*
X+2043000Y+973400D01*
X+2049350Y+973400D02*
X+2055700Y+973400D01*
X+2065225Y+963875D01*
X+2244800Y+852750D02*
X+2237050Y+860500D01*
X+2244800Y+860500D02*
X+2244800Y+852750D01*
X+2237050Y+860500D02*
X+2244800Y+860500D01*
X+2219488Y+885812D01*
X+2187498Y+885812D01*
X+2244800Y+860500D02*
X+2244800Y+885812D01*
X+2219488Y+885812D01*
X+2187498Y+885812D02*
X+2015062Y+885812D01*
X+1980813Y+920061D01*
X+1980813Y+958233D01*
X+1690399Y+1248647D01*
X+1690399Y+1440301D01*
X+1600200Y+1530500D01*
X+1600200Y+1606550D01*
X+2589025Y+65275D02*
X+2578100Y+76200D01*
X+2540000Y+76200D02*
X+2578100Y+76200D01*
X+2589025Y+65275D02*
X+2597150Y+57150D01*
X+2492450Y+66750D02*
X+2501900Y+76200D01*
X+2482850Y+57150D02*
X+2492450Y+66750D01*
X+2717800Y+8200D02*
X+2717800Y+38100D01*
X+2794000Y+0D02*
X+2794000Y+76200D01*
X+2832100Y+76200D01*
X+2870200Y+38100D01*
X+2870200Y-38100D01*
X+2832100Y-76200D01*
X+2755900Y-76200D01*
X+2717800Y-38100D01*
X+2717800Y+8200D01*
X+2736850Y+57150D02*
X+2717800Y+76200D01*
X+2779600Y+76200D02*
X+2755900Y+76200D01*
X+2717800Y+76200D01*
X+2736850Y+57150D02*
X+2755900Y+76200D01*
X+2779600Y+76200D02*
X+2794000Y+76200D01*
X+3139350Y+191850D02*
X+3177450Y+191850D01*
X+3088550Y+191850D02*
X+3139350Y+191850D01*
X+3152050Y+191850D01*
X+3177450Y+191850D01*
X+3183800Y+166450D02*
X+3164750Y+166450D01*
X+3164750Y+217250D02*
X+3177450Y+217250D01*
X+3202850Y+204550D02*
X+3152050Y+204550D01*
X+2974250Y+204550D01*
X+2974250Y+217250D01*
X+3164750Y+217250D01*
X+3177450Y+191850D02*
X+3202850Y+191850D01*
X+3202850Y+204550D01*
X+3190150Y+217250D01*
X+3177450Y+217250D01*
X+3164750Y+217250D02*
X+3152050Y+204550D01*
X+3152050Y+191850D01*
X+2974250Y+179150D02*
X+3152050Y+179150D01*
X+3202850Y+179150D01*
X+3152050Y+191850D02*
X+3152050Y+179150D01*
X+3164750Y+166450D01*
X+3183800Y+166450D02*
X+3190150Y+166450D01*
X+3202850Y+179150D01*
X+3202850Y+198200D01*
X+3164750Y+166450D02*
X+2974250Y+166450D01*
X+2974250Y+179150D01*
X+2974250Y+204550D01*
X+2444750Y+234950D02*
X+2444750Y+241300D01*
X+2444750Y+215900D02*
X+2432050Y+215900D01*
X+2419350Y+228600D01*
X+2419350Y+254000D01*
X+2432050Y+266700D01*
X+2451100Y+266700D01*
X+2444750Y+215900D02*
X+2444750Y+234950D01*
X+2470150Y+247650D02*
X+2470150Y+228600D01*
X+2470150Y+215900D01*
X+2444750Y+241300D02*
X+2444750Y+266700D01*
X+2457450Y+266700D01*
X+2470150Y+254000D01*
X+2470150Y+247650D01*
X+2470150Y+228600D02*
X+2463800Y+222250D01*
X+2444750Y+215900D02*
X+2457450Y+215900D01*
X+2470150Y+215900D01*
X+2463800Y+222250D02*
X+2457450Y+215900D01*
X+1545500Y+528400D02*
X+1564550Y+509350D01*
X+1570900Y+534750D02*
X+1551850Y+534750D01*
X+1539150Y+534750D01*
X+1564550Y+509350D02*
X+1589950Y+509350D01*
X+1589950Y+522050D01*
X+1577250Y+534750D01*
X+1570900Y+534750D01*
X+1551850Y+534750D02*
X+1545500Y+528400D01*
X+1473200Y+676550D02*
X+1473200Y+600700D01*
X+1539150Y+534750D01*
X+1545500Y+528400D01*
X+1539150Y+515700D02*
X+1539150Y+522050D01*
X+1539150Y+534750D01*
X+1545500Y+528400D02*
X+1539150Y+522050D01*
X+1539150Y+515700D02*
X+1539150Y+496650D01*
X+1551850Y+483950D01*
X+1577250Y+483950D01*
X+1589950Y+496650D01*
X+1589950Y+515700D01*
X+3359150Y+163600D02*
X+3429439Y+233889D01*
X+3429439Y+639261D01*
X+3320700Y+748000D01*
X+1212850Y+57150D02*
X+1270000Y+0D01*
X+1466850Y+57150D02*
X+1524000Y+0D01*
X+1720850Y+57150D02*
X+1778000Y+0D01*
X+1767750Y+76200D02*
X+1739900Y+76200D01*
X+1701800Y+76200D01*
X+1346200Y+676550D02*
X+1346200Y+431800D01*
X+1701800Y+76200D01*
X+1720850Y+57150D01*
X+1739900Y+76200D01*
X+1767750Y+76200D02*
X+1778000Y+76200D01*
X+1701800Y+14050D02*
X+1701800Y+38100D01*
X+1701800Y+76200D01*
X+1778000Y+0D02*
X+1778000Y+76200D01*
X+1816100Y+76200D01*
X+1854200Y+38100D01*
X+1854200Y-38100D01*
X+1816100Y-76200D01*
X+1739900Y-76200D01*
X+1701800Y-38100D01*
X+1701800Y+14050D01*
X+1701800Y+38100D02*
X+1720850Y+57150D01*
X+1513750Y+76200D02*
X+1485900Y+76200D01*
X+1447800Y+76200D01*
X+1219200Y+676550D02*
X+1219200Y+304800D01*
X+1447800Y+76200D01*
X+1466850Y+57150D01*
X+1485900Y+76200D01*
X+1513750Y+76200D02*
X+1524000Y+76200D01*
X+1447800Y+20400D02*
X+1447800Y+38100D01*
X+1447800Y+76200D01*
X+1524000Y+0D02*
X+1524000Y+76200D01*
X+1562100Y+76200D01*
X+1600200Y+38100D01*
X+1600200Y-38100D01*
X+1562100Y-76200D01*
X+1485900Y-76200D01*
X+1447800Y-38100D01*
X+1447800Y+20400D01*
X+1447800Y+38100D02*
X+1466850Y+57150D01*
X+1270000Y+76200D02*
X+1231900Y+76200D01*
X+1193800Y+76200D01*
X+1092200Y+676550D02*
X+1092200Y+177800D01*
X+1193800Y+76200D01*
X+1212850Y+57150D01*
X+1270000Y+0D02*
X+1270000Y+76200D01*
X+1212850Y+57150D02*
X+1231900Y+76200D01*
X+1193800Y+14050D02*
X+1193800Y+38100D01*
X+1193800Y+76200D01*
X+1270000Y+76200D02*
X+1308100Y+76200D01*
X+1346200Y+38100D01*
X+1346200Y-38100D01*
X+1308100Y-76200D01*
X+1231900Y-76200D01*
X+1193800Y-38100D01*
X+1193800Y+14050D01*
X+1193800Y+38100D02*
X+1212850Y+57150D01*
X+1016000Y+0D02*
X+1016000Y+76200D01*
X+1080050Y+50250D02*
X+1054100Y+76200D01*
X+1016000Y+76200D02*
X+1054100Y+76200D01*
X+1016000Y+114300D02*
X+1016000Y+549900D01*
X+965200Y+600700D01*
X+965200Y+676550D01*
X+960750Y+59050D02*
X+977900Y+76200D01*
X+1080050Y+50250D02*
X+1092200Y+38100D01*
X+1092200Y-38100D01*
X+1054100Y-76200D01*
X+977900Y-76200D01*
X+939800Y-38100D01*
X+939800Y+38100D01*
X+960750Y+59050D01*
X+977900Y+76200D02*
X+1016000Y+76200D01*
X+992500Y+90800D02*
X+1016000Y+90800D01*
X+1039500Y+90800D01*
X+1051475Y+78825D01*
X+1054100Y+76200D02*
X+1051475Y+78825D01*
X+1039500Y+90800D02*
X+1016000Y+114300D01*
X+1016000Y+76200D02*
X+1016000Y+90800D01*
X+1016000Y+114300D01*
X+977900Y+76200D02*
X+992500Y+90800D01*
X+1016000Y+114300D01*
X+819150Y+57150D02*
X+762000Y+0D01*
X+838200Y+20400D02*
X+838200Y+38100D01*
X+838200Y+76200D01*
X+819150Y+57150D01*
X+838200Y+38100D01*
X+838200Y+20400D02*
X+838200Y-38100D01*
X+800100Y-76200D01*
X+723900Y-76200D01*
X+685800Y-38100D01*
X+685800Y+38100D01*
X+723900Y+76200D01*
X+762000Y+76200D01*
X+800100Y+76200D02*
X+838200Y+114300D01*
X+762000Y+0D02*
X+762000Y+76200D01*
X+800100Y+76200D01*
X+838200Y+676550D02*
X+838200Y+114300D01*
X+810175Y+66125D02*
X+838200Y+94150D01*
X+838200Y+113025D01*
X+800100Y+76200D02*
X+810175Y+66125D01*
X+819150Y+57150D01*
X+838200Y+114300D02*
X+838200Y+113025D01*
X+838200Y+94150D02*
X+838200Y+76200D01*
X+508000Y+0D02*
X+565150Y+57150D01*
X+584200Y+20400D02*
X+584200Y+38100D01*
X+584200Y+76200D01*
X+565150Y+57150D02*
X+584200Y+76200D01*
X+598800Y+90800D02*
X+711200Y+203200D01*
X+711200Y+676550D01*
X+565150Y+57150D02*
X+584200Y+38100D01*
X+584200Y+20400D02*
X+584200Y-38100D01*
X+546100Y-76200D01*
X+469900Y-76200D01*
X+431800Y-38100D01*
X+431800Y+38100D01*
X+469900Y+76200D01*
X+508000Y+76200D01*
X+535850Y+76200D02*
X+546100Y+76200D01*
X+584200Y+76200D01*
X+598800Y+90800D01*
X+508000Y+0D02*
X+508000Y+76200D01*
X+535850Y+76200D01*
X+546100Y+76200D02*
X+565150Y+57150D01*
X+1543050Y+1466850D02*
X+1562100Y+1447800D01*
X+1574800Y+1473200D02*
X+1549400Y+1473200D01*
X+1536700Y+1473200D01*
X+1562100Y+1447800D02*
X+1587500Y+1447800D01*
X+1587500Y+1460500D01*
X+1574800Y+1473200D01*
X+1549400Y+1473200D02*
X+1543050Y+1466850D01*
X+1473200Y+1606550D02*
X+1479550Y+1606550D01*
X+1479550Y+1530350D01*
X+1536700Y+1473200D01*
X+1543050Y+1466850D01*
X+1536700Y+1454150D02*
X+1536700Y+1460500D01*
X+1536700Y+1473200D01*
X+1543050Y+1466850D02*
X+1536700Y+1460500D01*
X+1536700Y+1454150D02*
X+1536700Y+1435100D01*
X+1549400Y+1422400D01*
X+1574800Y+1422400D01*
X+1587500Y+1435100D01*
X+1587500Y+1454150D01*
X+2030711Y+1122116D02*
X+2005311Y+1128800D01*
X+2024361Y+1109750D02*
X+2005311Y+1128800D01*
X+2030711Y+1128800D02*
X+2030711Y+1122116D01*
X+2030711Y+1116100D01*
X+2030711Y+1103400D01*
X+2005311Y+1128800D02*
X+2005311Y+1154200D01*
X+2018011Y+1154200D01*
X+2030711Y+1141500D01*
X+2030711Y+1128800D01*
X+2157300Y+1078000D02*
X+2056111Y+1078000D01*
X+2030711Y+1103400D01*
X+2024361Y+1109750D01*
X+2030711Y+1116100D02*
X+2024361Y+1109750D01*
X+2011250Y+1103400D02*
X+2018011Y+1103400D01*
X+2030711Y+1103400D01*
X+2024361Y+1109750D02*
X+2018011Y+1103400D01*
X+2011250Y+1103400D02*
X+1992611Y+1103400D01*
X+1979911Y+1116100D01*
X+1979911Y+1141500D01*
X+1992611Y+1154200D01*
X+2018011Y+1154200D01*
X+3175000Y+2286000D02*
X+3146425Y+2314575D01*
X+3051089Y+2409911D01*
X+2819906Y+2409911D01*
X+2409911Y+2409911D01*
X+2343150Y+2343150D01*
X+2286000Y+2286000D01*
X+2286000Y+2362200D01*
X+2324100Y+2362200D01*
X+2343150Y+2343150D01*
X+3175000Y+2286000D02*
X+3213100Y+2286000D01*
X+3213100Y+2305050D01*
X+3194050Y+2324100D01*
X+3155950Y+2324100D01*
X+3146425Y+2314575D01*
X+3136900Y+2305050D01*
X+3136900Y+2266950D01*
X+3155950Y+2247900D01*
X+3175000Y+2247900D01*
X+2286000Y+2286000D02*
X+2228850Y+2343150D01*
X+2162078Y+2409922D01*
X+1985876Y+2409922D01*
X+1901922Y+2409922D01*
X+1835150Y+2343150D01*
X+1778000Y+2286000D01*
X+1778000Y+2362200D01*
X+1816100Y+2362200D01*
X+1835150Y+2343150D01*
X+2343150Y+2343150D02*
X+2362200Y+2324100D01*
X+2362200Y+2247900D01*
X+2324100Y+2209800D01*
X+2247900Y+2209800D01*
X+2209800Y+2247900D01*
X+2209800Y+2324100D01*
X+2228850Y+2343150D01*
X+2247900Y+2362200D01*
X+2286000Y+2362200D01*
X+1778000Y+2286000D02*
X+1720850Y+2343150D01*
X+1654138Y+2409862D01*
X+1528650Y+2409862D01*
X+1266862Y+2409862D01*
X+1212850Y+2355850D01*
X+1143000Y+2286000D01*
X+1835150Y+2343150D02*
X+1854200Y+2324100D01*
X+1854200Y+2247900D01*
X+1816100Y+2209800D01*
X+1739900Y+2209800D01*
X+1701800Y+2247900D01*
X+1701800Y+2324100D01*
X+1720850Y+2343150D01*
X+1739900Y+2362200D01*
X+1778000Y+2362200D01*
X+127000Y+2286000D02*
X+184150Y+2228850D01*
X+203200Y+2259100D02*
X+203200Y+2247900D01*
X+203200Y+2187550D01*
X+217375Y+2173375D01*
X+127000Y+2286000D02*
X+127000Y+2362200D01*
X+165100Y+2362200D01*
X+203200Y+2324100D01*
X+203200Y+2259100D01*
X+217375Y+2173375D02*
X+711200Y+1679550D01*
X+711200Y+1606550D01*
X+195250Y+2239950D02*
X+195250Y+2195500D01*
X+203200Y+2247900D02*
X+195250Y+2239950D01*
X+184150Y+2228850D01*
X+157050Y+2209800D02*
X+165100Y+2209800D01*
X+180950Y+2209800D01*
X+184150Y+2206600D01*
X+195250Y+2195500D01*
X+201500Y+2189250D01*
X+184150Y+2228850D02*
X+165100Y+2209800D01*
X+157050Y+2209800D02*
X+88900Y+2209800D01*
X+50800Y+2247900D01*
X+50800Y+2324100D01*
X+88900Y+2362200D01*
X+127000Y+2362200D01*
X+201500Y+2189250D02*
X+203200Y+2187550D01*
X+184150Y+2228850D02*
X+184150Y+2206600D01*
X+438150Y+2228850D02*
X+381000Y+2286000D01*
X+457200Y+2284500D02*
X+457200Y+2247900D01*
X+457200Y+2209800D01*
X+438150Y+2228850D01*
X+381000Y+2286000D02*
X+381000Y+2362200D01*
X+419100Y+2362200D01*
X+457200Y+2324100D01*
X+457200Y+2284500D01*
X+457200Y+2247900D02*
X+438150Y+2228850D01*
X+392000Y+2209800D02*
X+419100Y+2209800D01*
X+457200Y+2209800D01*
X+469800Y+2197200D01*
X+476150Y+2190850D01*
X+438150Y+2228850D02*
X+419100Y+2209800D01*
X+392000Y+2209800D02*
X+342900Y+2209800D01*
X+304800Y+2247900D01*
X+304800Y+2324100D01*
X+342900Y+2362200D01*
X+381000Y+2362200D01*
X+838200Y+1606550D02*
X+838200Y+1828800D01*
X+476150Y+2190850D01*
X+692150Y+2228850D02*
X+635000Y+2286000D01*
X+639650Y+2209800D02*
X+673100Y+2209800D01*
X+711200Y+2209800D01*
X+965200Y+1606550D02*
X+965200Y+1955800D01*
X+711200Y+2209800D01*
X+692150Y+2228850D01*
X+673100Y+2209800D01*
X+639650Y+2209800D02*
X+596900Y+2209800D01*
X+558800Y+2247900D01*
X+558800Y+2324100D01*
X+596900Y+2362200D01*
X+635000Y+2362200D01*
X+711200Y+2271800D02*
X+711200Y+2247900D01*
X+711200Y+2209800D01*
X+635000Y+2286000D02*
X+635000Y+2362200D01*
X+673100Y+2362200D01*
X+711200Y+2324100D01*
X+711200Y+2271800D01*
X+711200Y+2247900D02*
X+692150Y+2228850D01*
X+889000Y+2286000D02*
X+946150Y+2228850D01*
X+906350Y+2209800D02*
X+927100Y+2209800D01*
X+965200Y+2209800D01*
X+946150Y+2228850D02*
X+965200Y+2209800D01*
X+946150Y+2228850D02*
X+927100Y+2209800D01*
X+906350Y+2209800D02*
X+850900Y+2209800D01*
X+812800Y+2247900D01*
X+812800Y+2324100D01*
X+850900Y+2362200D01*
X+889000Y+2362200D01*
X+965200Y+2278150D02*
X+965200Y+2247900D01*
X+965200Y+2209800D01*
X+990500Y+2184500D01*
X+889000Y+2286000D02*
X+889000Y+2362200D01*
X+927100Y+2362200D01*
X+965200Y+2324100D01*
X+965200Y+2278150D01*
X+965200Y+2247900D02*
X+946150Y+2228850D01*
X+990500Y+2184500D02*
X+1092200Y+2082800D01*
X+1092200Y+1606550D01*
X+254000Y+0D02*
X+311150Y+57150D01*
X+1219200Y+1606550D02*
X+1219200Y+1559353D01*
X+1219200Y+1455529D01*
X+1159767Y+1396096D01*
X+616729Y+853058D01*
X+616729Y+716050D01*
X+616729Y+414754D01*
X+539988Y+338013D01*
X+314942Y+112967D01*
X+248598Y+112967D01*
X+112967Y+112967D01*
X+277700Y+76200D02*
X+292100Y+76200D01*
X+330200Y+76200D01*
X+254000Y+0D02*
X+254000Y+76200D01*
X+277700Y+76200D01*
X+292100Y+76200D02*
X+311150Y+57150D01*
X+330200Y+76200D01*
X+330200Y+23900D02*
X+330200Y+38100D01*
X+330200Y+76200D01*
X+347650Y+93650D01*
X+311150Y+57150D02*
X+330200Y+38100D01*
X+330200Y+23900D02*
X+330200Y-38100D01*
X+292100Y-76200D01*
X+215900Y-76200D01*
X+177800Y-38100D01*
X+177800Y+38100D01*
X+215900Y+76200D01*
X+254000Y+76200D01*
X+347650Y+93650D02*
X+653463Y+399463D01*
X+653463Y+837813D01*
X+1346200Y+1530550D01*
X+1346200Y+1606550D01*
X+69850Y+69850D02*
X+76200Y+76200D01*
X+87300Y+87300D01*
X+93650Y+93650D01*
X+112967Y+112967D01*
X+2794000Y+2120900D02*
X+2794000Y+2159000D01*
X+2892800Y+1973250D02*
X+3352800Y+1973250D01*
X+3203575Y+2130425D02*
X+3175000Y+2159000D01*
X+3213100Y+2159000D02*
X+3213100Y+2139950D01*
X+3175000Y+2159000D02*
X+3213100Y+2159000D01*
X+3203575Y+2130425D02*
X+3213100Y+2139950D01*
X+3175000Y+2120900D02*
X+3194050Y+2120900D01*
X+3203575Y+2130425D01*
X+2826725Y+2134575D02*
X+2822575Y+2130425D01*
X+2794000Y+2120900D02*
X+2813050Y+2120900D01*
X+2826725Y+2134575D02*
X+2832100Y+2139950D01*
X+2832100Y+2159000D01*
X+2794000Y+2286000D02*
X+2794000Y+2324100D01*
X+2832100Y+2324100D01*
X+2832100Y+2247900D01*
X+2755900Y+2247900D01*
X+343500Y+476800D02*
X+343500Y+464100D01*
X+330800Y+451400D01*
X+324450Y+445050D01*
X+305400Y+445050D01*
X+292700Y+445050D01*
X+318100Y+476800D02*
X+343500Y+476800D01*
X+280000Y+445050D02*
X+280000Y+476800D01*
X+280000Y+508550D01*
X+203800Y+476800D02*
X+280000Y+476800D01*
X+280000Y+508550D02*
X+133950Y+508550D01*
X+133950Y+445050D01*
X+280000Y+445050D01*
X+292700Y+445050D01*
X+292700Y+508550D02*
X+292700Y+476800D01*
X+292700Y+445050D01*
X+280000Y+476800D02*
X+292700Y+476800D01*
X+292700Y+508550D02*
X+280000Y+508550D01*
X+305400Y+445050D02*
X+305400Y+476800D01*
X+305400Y+508550D01*
X+292700Y+476800D02*
X+305400Y+476800D01*
X+318100Y+476800D01*
X+343500Y+476800D02*
X+343500Y+489500D01*
X+330800Y+502200D01*
X+324450Y+508550D01*
X+305400Y+508550D01*
X+292700Y+508550D01*
X+292700Y+595050D02*
X+280000Y+595050D01*
X+318100Y+595050D02*
X+318100Y+626800D01*
X+318100Y+658550D01*
X+305400Y+658550D02*
X+305400Y+626800D01*
X+305400Y+595050D01*
X+318100Y+595050D02*
X+305400Y+595050D01*
X+292700Y+595050D01*
X+318100Y+658550D02*
X+305400Y+658550D01*
X+292700Y+595050D02*
X+292700Y+626800D01*
X+292700Y+658550D01*
X+305400Y+658550D02*
X+292700Y+658550D01*
X+280000Y+658550D02*
X+280000Y+626800D01*
X+280000Y+595050D01*
X+292700Y+658550D02*
X+280000Y+658550D01*
X+133950Y+658550D01*
X+133950Y+595050D01*
X+280000Y+595050D01*
X+343500Y+926800D02*
X+343500Y+914100D01*
X+324450Y+895050D01*
X+318100Y+926800D02*
X+343500Y+926800D01*
X+318100Y+895050D02*
X+318100Y+926800D01*
X+318100Y+958550D01*
X+343500Y+926800D02*
X+343500Y+939500D01*
X+324450Y+958550D01*
X+318100Y+958550D01*
X+318100Y+895050D02*
X+324450Y+895050D01*
X+305400Y+958550D02*
X+305400Y+926800D01*
X+305400Y+895050D01*
X+305400Y+926800D02*
X+318100Y+926800D01*
X+318100Y+958550D02*
X+305400Y+958550D01*
X+305400Y+895050D02*
X+318100Y+895050D01*
X+292700Y+895050D02*
X+292700Y+926800D01*
X+292700Y+958550D01*
X+292700Y+926800D02*
X+305400Y+926800D01*
X+305400Y+958550D02*
X+292700Y+958550D01*
X+292700Y+895050D02*
X+305400Y+895050D01*
X+280000Y+958550D02*
X+280000Y+926800D01*
X+280000Y+895050D01*
D13*
X+203800Y+926800D02*
X+280000Y+926800D01*
D12*
X+292700Y+926800D01*
X+292700Y+958550D02*
X+280000Y+958550D01*
X+133950Y+958550D01*
X+133950Y+895050D01*
X+280000Y+895050D01*
X+292700Y+895050D01*
X+2482850Y+57150D02*
X+2540000Y+0D01*
X+2515200Y+76200D02*
X+2501900Y+76200D01*
X+2515200Y+76200D02*
X+2540000Y+76200D01*
X+2463800Y+25100D02*
X+2463800Y+38100D01*
X+2463800Y+76200D02*
X+2457900Y+82100D01*
X+2597150Y+57150D02*
X+2616200Y+38100D01*
X+2616200Y-38100D01*
X+2578100Y-76200D01*
X+2501900Y-76200D01*
X+2463800Y-38100D01*
X+2463800Y+25100D01*
X+2463800Y+38100D02*
X+2482850Y+57150D01*
X+2457900Y+82100D02*
X+2454725Y+85275D01*
X+2463800Y+50500D02*
X+2476650Y+63350D01*
X+2489500Y+76200D01*
X+2494081Y+76200D01*
X+2501900Y+76200D02*
X+2494081Y+76200D01*
X+2489500Y+76200D02*
X+2463800Y+76200D01*
X+2476650Y+63350D01*
X+2482850Y+57150D01*
X+2463800Y+38100D02*
X+2463800Y+50500D01*
X+2463800Y+76200D01*
X+2717800Y+76176D02*
X+2736838Y+57138D01*
X+2793976Y+0D01*
X+2794000Y+0D01*
X+2268425Y+623975D02*
X+2262075Y+623975D01*
X+2717800Y+38100D02*
X+2717800Y+76176D01*
X+2717800Y+76200D01*
X+2717800Y+38100D02*
X+2736838Y+57138D01*
X+2736850Y+57150D01*
X+2287475Y+636675D02*
X+2281125Y+630325D01*
X+2274775Y+623975D01*
X+2262075Y+611275D01*
X+2249375Y+623975D02*
X+2262075Y+611275D01*
X+2262075Y+623975D02*
X+2249375Y+623975D01*
X+2451100Y+234950D02*
X+2463800Y+222250D01*
X+2470150Y+215900D01*
X+2533067Y+152983D01*
X+2692983Y+152983D01*
X+2444750Y+241300D02*
X+2451100Y+234950D01*
X+3359150Y+557200D02*
X+3355596Y+557200D01*
X+3285400Y+487004D01*
X+3285400Y+477600D01*
X+3285400Y+209742D01*
X+3188658Y+113000D01*
X+2777400Y+113000D01*
X+2732966Y+113000D01*
X+2692983Y+152983D01*
X+2705100Y+457200D02*
X+2705100Y+450850D01*
X+2705100Y+322658D02*
X+2705100Y+359557D01*
X+2705100Y+450850D02*
X+2705100Y+359557D01*
X+2705100Y+309904D02*
X+2705100Y+322658D01*
X+2705100Y+292100D02*
X+2729140Y+268060D01*
X+2740801Y+268060D01*
X+2705100Y+309904D02*
X+2705100Y+292100D01*
X+2705101Y+268060D01*
X+2863850Y+457200D02*
X+2863850Y+316331D01*
X+2815579Y+268060D01*
X+2740801Y+268060D01*
X+2705100Y+292100D02*
X+2705100Y+309904D01*
X+2705101Y+268060D02*
X+2705101Y+268029D01*
X+2681029Y+268029D01*
X+2540000Y+304800D02*
X+2540000Y+330200D01*
X+2559091Y+311109D01*
X+2681060Y+268060D02*
X+2705099Y+268060D01*
X+2705101Y+268060D01*
X+2729140Y+268060D01*
X+2705099Y+268060D02*
X+2705100Y+292100D01*
X+2681060Y+268060D01*
X+2681029Y+268029D01*
X+2565482Y+323850D02*
X+2565482Y+317500D01*
X+2565482Y+304718D01*
X+2540000Y+330200D02*
X+2540000Y+355600D01*
X+2552782Y+355600D01*
X+2565482Y+342900D01*
X+2565482Y+323850D01*
X+2565482Y+317500D02*
X+2559091Y+311109D01*
X+2533650Y+304800D02*
X+2540000Y+304800D01*
X+2552782Y+304800D01*
X+2565400Y+304800D01*
X+2565482Y+304718D01*
X+2578100Y+292100D01*
X+2533650Y+304800D02*
X+2527382Y+304800D01*
X+2514682Y+317500D01*
X+2514682Y+342900D01*
X+2527382Y+355600D01*
X+2546432Y+355600D01*
X+2559091Y+311109D02*
X+2552782Y+304800D01*
X+2559091Y+311109D02*
X+2565400Y+304800D01*
X+2578100Y+292100D02*
X+2602140Y+268060D01*
X+2681060Y+268060D01*
X+2266825Y+674775D02*
X+2262075Y+674775D01*
X+2247800Y+674775D01*
X+2236675Y+663650D01*
X+2236675Y+636675D01*
X+2243575Y+629775D01*
X+2247800Y+625550D01*
X+2262075Y+649375D02*
X+2262075Y+674775D01*
X+2266825Y+674775D02*
X+2274775Y+674775D01*
X+2287475Y+662075D01*
X+2287475Y+655725D01*
X+2247800Y+625550D02*
X+2249375Y+623975D01*
X+2262075Y+649375D02*
X+2262075Y+623975D01*
X+2262075Y+611275D01*
X+2262075Y+558900D01*
X+2262075Y+484821D01*
X+2262075Y+329957D01*
X+2302256Y+289776D01*
X+2479047Y+112985D01*
X+2680991Y+112985D01*
X+2717800Y+76176D01*
X+2198313Y+727150D02*
X+2198313Y+623019D01*
X+2225311Y+596021D01*
X+2225311Y+545216D01*
X+2225311Y+314689D01*
X+2257875Y+282125D01*
X+2274800Y+265200D01*
X+2244800Y+852750D02*
X+2244800Y+820588D01*
X+2198313Y+774101D01*
X+2198313Y+727150D01*
X+2274800Y+265200D02*
X+2454725Y+85275D01*
X+2032000Y+1595450D02*
X+1865300Y+1595450D01*
X+1854200Y+1606550D01*
X+2184400Y+1371600D02*
X+2190750Y+1371600D01*
X+2184400Y+1371600D02*
X+2182812Y+1363662D01*
X+2032000Y+1471600D02*
X+2032000Y+1479550D01*
X+2863850Y+1390650D02*
X+2988350Y+1390650D01*
X+3075700Y+1478000D01*
X+2603750Y+1650650D02*
X+2603750Y+1575050D01*
X+2579350Y+1550650D01*
X+2343150Y+1550650D01*
X+2190750Y+1371600D02*
X+2182812Y+1363662D01*
X+2152650Y+1333500D02*
X+2133600Y+1314450D01*
X+2133600Y+1339850D01*
X+2146300Y+1339850D01*
X+2152650Y+1333500D01*
X+2159000Y+1320800D02*
X+2159000Y+1327150D01*
X+2159000Y+1339850D01*
X+2159000Y+1352550D01*
X+2152650Y+1333500D02*
X+2159000Y+1327150D01*
X+2159000Y+1320800D02*
X+2159000Y+1301750D01*
X+2146300Y+1289050D01*
X+2120900Y+1289050D01*
X+2108200Y+1301750D01*
X+2108200Y+1327150D01*
X+2120900Y+1339850D01*
X+2139950Y+1339850D01*
X+2182812Y+1363662D02*
X+2159000Y+1339850D01*
X+2152650Y+1333500D01*
X+2146300Y+1339850D02*
X+2159000Y+1352550D01*
X+2178050Y+1371600D01*
X+2032000Y+1695450D02*
X+2125880Y+1695450D01*
X+2032000Y+1371600D02*
X+2051050Y+1371600D01*
X+2108200Y+1428750D01*
X+2108200Y+1677770D01*
X+2125880Y+1695450D01*
X+2734050Y+1873250D02*
X+2613726Y+1873250D01*
X+2568950Y+1873250D02*
X+2575300Y+1873250D01*
X+2613726Y+1873250D01*
X+1854200Y+1676400D02*
X+2051050Y+1873250D01*
X+2568950Y+1873250D01*
X+2695950Y+1973250D02*
X+2664200Y+1973250D01*
X+2734050Y+1973250D02*
X+2695950Y+1973250D01*
X+2638800Y+1966900D02*
X+2638800Y+1973250D01*
X+2664200Y+1973250D02*
X+2638800Y+1973250D01*
X+2765800Y+1985950D02*
X+2759450Y+1985950D01*
X+2734050Y+1973250D02*
X+2746750Y+1973250D01*
X+2759450Y+1985950D01*
X+2765800Y+1992300D01*
X+2638800Y+1973250D02*
X+2638800Y+1985950D01*
X+2765800Y+1960550D02*
X+2638800Y+1960550D01*
X+2638800Y+1966900D02*
X+2638800Y+1960550D01*
X+2651500Y+1947850D01*
X+2765800Y+1947850D01*
X+2765800Y+1960550D01*
X+2530850Y+1973250D02*
X+2499100Y+1973250D01*
X+2568950Y+1973250D02*
X+2530850Y+1973250D01*
X+2600700Y+1960550D02*
X+2600700Y+1947850D01*
X+2499100Y+1947850D01*
X+2486400Y+1947850D01*
X+2600700Y+1960550D02*
X+2499100Y+1960550D01*
X+2473700Y+1960550D01*
X+2499100Y+1973250D02*
X+2499100Y+1960550D01*
X+2499100Y+1947850D01*
X+2486400Y+1947850D02*
X+2473700Y+1960550D01*
X+2473700Y+1985950D02*
X+2568950Y+1985950D01*
X+2600700Y+1985950D01*
X+2568950Y+1998650D02*
X+2568950Y+1985950D01*
X+2568950Y+1973250D01*
X+2473700Y+1960550D02*
X+2473700Y+1985950D01*
X+2486400Y+1998650D01*
X+2568950Y+1998650D01*
X+2600700Y+1998650D01*
X+2600700Y+1979600D02*
X+2600700Y+1985950D01*
X+2600700Y+1998650D01*
X+2600700Y+1999808D01*
X+2712765Y+2111873D01*
X+2712765Y+2166665D01*
X+2712765Y+2182800D01*
X+2600700Y+1979600D02*
X+2600700Y+1960550D01*
X+2794000Y+2286000D02*
X+2755900Y+2247900D01*
X+2712765Y+2204765D02*
X+2712765Y+2182800D01*
X+2755900Y+2278050D02*
X+2755900Y+2247900D01*
X+2747350Y+2239350D01*
X+2755900Y+2278050D02*
X+2755900Y+2324100D01*
X+2800350Y+2324100D01*
X+2747350Y+2239350D02*
X+2712765Y+2204765D01*
X+2403850Y+1973250D02*
X+2429250Y+1973250D01*
X+2403850Y+1973250D02*
X+2378450Y+1973250D01*
X+2378450Y+1985950D01*
X+2391150Y+1998650D01*
X+2416550Y+1998650D01*
X+2429250Y+1985950D01*
X+2429250Y+1960550D01*
X+2032000Y+1479550D02*
X+2032000Y+1530350D01*
X+203800Y+626800D02*
X+280000Y+626800D01*
X+292700Y+626800D01*
X+305400Y+626800D01*
X+318100Y+626800D01*
X+343500Y+626800D01*
X+1974850Y+2228850D02*
X+2032000Y+2286000D01*
D13*
X+1524600Y+2011100D02*
X+1613500Y+2011100D01*
X+1638900Y+2011100D01*
D12*
X+2032000Y+2286000D02*
X+2032000Y+2362200D01*
X+2070100Y+2362200D01*
X+2108200Y+2324100D01*
X+2108200Y+2247900D01*
X+2070100Y+2209800D01*
X+2019900Y+2209800D01*
D13*
X+1955800Y+2209800D02*
X+1974850Y+2228850D01*
D12*
X+1955800Y+2277800D02*
X+1955800Y+2247900D01*
X+1955800Y+2209800D01*
X+1974850Y+2228850D02*
X+1955800Y+2247900D01*
X+1955800Y+2277800D02*
X+1955800Y+2324100D01*
X+1993900Y+2362200D01*
X+2032000Y+2362200D01*
X+2863850Y+1614150D02*
X+2863850Y+1639550D01*
X+2403850Y+1973250D02*
X+2384800Y+1954200D01*
X+2400300Y+1947850D02*
X+2391150Y+1947850D01*
X+2378450Y+1947850D01*
X+2384800Y+1954200D02*
X+2378450Y+1947850D01*
X+2429250Y+1973250D02*
X+2429250Y+1960550D01*
X+2416550Y+1947850D01*
X+2400300Y+1947850D01*
X+2391150Y+1947850D02*
X+2384800Y+1954200D01*
X+2378450Y+1973250D02*
X+2378450Y+1960550D01*
X+2378450Y+1947850D01*
X+2384800Y+1954200D02*
X+2378450Y+1960550D01*
X+2463800Y+2209800D02*
X+2470150Y+2216150D01*
X+2482850Y+2228850D01*
X+2540000Y+2286000D01*
X+2518150Y+2209800D02*
X+2501900Y+2209800D01*
X+2463800Y+2209800D01*
X+2540000Y+2286000D02*
X+2540000Y+2362200D01*
X+2578100Y+2362200D01*
X+2616200Y+2324100D01*
X+2616200Y+2247900D01*
X+2578100Y+2209800D01*
X+2518150Y+2209800D01*
X+2501900Y+2209800D02*
X+2482850Y+2228850D01*
X+2463800Y+2265350D02*
X+2463800Y+2247900D01*
X+2463800Y+2209800D01*
X+2482850Y+2228850D02*
X+2463800Y+2247900D01*
X+2463800Y+2265350D02*
X+2463800Y+2324100D01*
X+2501900Y+2362200D01*
X+2540000Y+2362200D01*
X+2302250Y+1979600D02*
X+2302250Y+1973250D01*
X+2302250Y+1947850D01*
X+2302250Y+1998650D02*
X+2289550Y+1998650D01*
X+2276850Y+1985950D01*
X+2276850Y+1960550D01*
X+2289550Y+1947850D01*
X+2302250Y+1947850D01*
X+2302250Y+1979600D02*
X+2302250Y+1998650D01*
X+2302250Y+1973250D02*
X+2321300Y+1992300D01*
X+2327650Y+1966900D02*
X+2327650Y+1985950D01*
X+2327650Y+1998650D01*
X+2302250Y+1947850D02*
X+2314950Y+1947850D01*
X+2327650Y+1960550D01*
X+2327650Y+1966900D01*
X+2327650Y+1985950D02*
X+2321300Y+1992300D01*
X+2327650Y+1998650D01*
X+2403850Y+2074850D01*
X+2403850Y+2149850D01*
X+2463800Y+2209800D01*
X+2302250Y+1998650D02*
X+2314950Y+1998650D01*
X+2327650Y+1998650D01*
X+2321300Y+1992300D02*
X+2314950Y+1998650D01*
X+2400300Y+1778000D02*
X+2400300Y+1727200D01*
X+2400300Y+1695450D01*
X+2400300Y+1670066D01*
X+2343150Y+1612916D01*
X+2343150Y+1550650D01*
X+2400300Y+1778000D02*
X+2317750Y+1695450D01*
X+2476500Y+1783012D02*
X+2456112Y+1783012D01*
X+2405312Y+1783012D01*
X+2400300Y+1778000D01*
X+2482850Y+1783012D02*
X+2476500Y+1783012D01*
X+1924050Y+1250950D02*
X+1943100Y+1231900D01*
X+1949450Y+1250950D02*
X+1949450Y+1238250D01*
X+1949450Y+1225550D01*
X+1943100Y+1231900D02*
X+1949450Y+1225550D01*
X+1924050Y+1250950D02*
X+1924050Y+1276350D01*
X+1936750Y+1276350D01*
X+1949450Y+1263650D01*
X+1949450Y+1250950D01*
X+1949450Y+1238250D02*
X+1943100Y+1231900D01*
X+1924050Y+1225550D02*
X+1936750Y+1225550D01*
X+1949450Y+1225550D01*
X+1943100Y+1231900D02*
X+1936750Y+1225550D01*
X+1924050Y+1225550D02*
X+1911350Y+1225550D01*
X+1898650Y+1238250D01*
X+1898650Y+1263650D01*
X+1911350Y+1276350D01*
X+1930400Y+1276350D01*
X+2146300Y+1695450D02*
X+2146300Y+1778000D01*
X+2125880Y+1695450D02*
X+2146300Y+1695450D01*
X+2317750Y+1695450D01*
X+1638300Y+1778000D02*
X+1524000Y+1892300D01*
X+1143000Y+2273300D01*
X+1143000Y+2286000D01*
X+914400Y+1270000D02*
X+660400Y+1016000D01*
X+3028950Y+457200D02*
X+3028950Y+393700D01*
X+3003550Y+368300D01*
X+3003550Y+296850D01*
X+2863850Y+1639550D02*
X+2882900Y+1620500D01*
X+2863850Y+1550650D02*
X+2819400Y+1595100D01*
X+2863850Y+1614150D02*
X+2876550Y+1614150D01*
X+2882900Y+1620500D01*
X+2889250Y+1626850D01*
X+2889250Y+1645900D01*
X+2908300Y+1569700D02*
X+2908300Y+1595100D01*
X+2889250Y+1652250D02*
X+2886075Y+1655425D01*
X+2863850Y+1639550D02*
X+2889250Y+1639550D01*
X+2889250Y+1652250D01*
X+2806700Y+1607800D02*
X+2819400Y+1607800D01*
X+2863850Y+1607800D01*
X+2895600Y+1607800D01*
X+2908300Y+1607800D01*
X+2863850Y+1607800D02*
X+2863850Y+1614150D01*
X+2908300Y+1607800D02*
X+2908300Y+1633200D01*
X+2889250Y+1652250D01*
X+2882900Y+1620500D02*
X+2895600Y+1607800D01*
X+2711450Y+1607800D02*
X+2698750Y+1607800D01*
X+2698750Y+1650650D02*
X+2698750Y+1607800D01*
X+2673350Y+1684000D02*
X+2673350Y+1607800D01*
X+2813050Y+1601450D02*
X+2819400Y+1601450D01*
X+2863850Y+1601450D01*
X+2901950Y+1601450D01*
X+2908300Y+1601450D01*
X+2863850Y+1550650D02*
X+2863850Y+1601450D01*
X+2863850Y+1607800D01*
X+2819400Y+1595100D02*
X+2819400Y+1601450D01*
X+2819400Y+1607800D01*
X+2819400Y+1595100D02*
X+2813050Y+1601450D01*
X+2806700Y+1607800D01*
X+2908300Y+1595100D02*
X+2908300Y+1601450D01*
X+2908300Y+1607800D01*
X+2895600Y+1607800D02*
X+2901950Y+1601450D01*
X+2908300Y+1595100D01*
X+2698750Y+1607800D02*
X+2673350Y+1607800D01*
X+2673350Y+1684000D02*
X+2673350Y+1696700D01*
X+2819400Y+1506200D02*
X+2724150Y+1601450D01*
X+2717800Y+1607800D01*
X+2711450Y+1614150D01*
X+2908300Y+1569700D02*
X+2908300Y+1506200D01*
X+2819400Y+1506200D01*
X+2819400Y+1595100D01*
X+2711450Y+1607800D02*
X+2717800Y+1607800D01*
X+2673350Y+1607800D02*
X+2673350Y+1601450D01*
X+2724150Y+1601450D01*
X+2813050Y+1601450D01*
X+2724150Y+1650650D02*
X+2724150Y+1607800D01*
X+2724150Y+1601450D01*
X+2806700Y+1607800D02*
X+2763850Y+1650650D01*
X+2724150Y+1650650D01*
X+2698750Y+1650650D01*
X+2717800Y+1607800D02*
X+2724150Y+1607800D01*
X+2806700Y+1607800D01*
X+2673350Y+1715750D02*
X+2692400Y+1696700D01*
X+2698750Y+1690350D01*
X+2673350Y+1696700D02*
X+2692400Y+1696700D01*
X+2698750Y+1696700D01*
X+2698750Y+1690350D01*
X+2698750Y+1650650D01*
X+2673350Y+1696700D02*
X+2673350Y+1715750D01*
X+2508750Y+1650650D02*
X+2533650Y+1650650D01*
X+2533650Y+1601450D01*
X+2482850Y+1601450D01*
X+2482850Y+1696700D01*
X+2508750Y+1696700D01*
X+2508750Y+1650650D02*
X+2508750Y+1696700D01*
X+2533650Y+1696700D02*
X+2533650Y+1639550D01*
X+2533650Y+1703050D02*
X+2527300Y+1696700D01*
X+2520950Y+1690350D01*
X+2533650Y+1696700D02*
X+2533650Y+1703050D01*
X+2527300Y+1696700D02*
X+2533650Y+1696700D01*
X+2508750Y+1696700D02*
X+2520950Y+1696700D01*
X+2527300Y+1696700D01*
X+2533650Y+1703050D02*
X+2533650Y+1709400D01*
X+2540000Y+1715750D02*
X+2533650Y+1709400D01*
X+2520950Y+1696700D01*
X+2514600Y+1690350D01*
X+2540000Y+1715750D02*
X+2559050Y+1734800D01*
X+2654300Y+1734800D01*
X+2673350Y+1715750D01*
X+2724150Y+1696700D02*
X+2755900Y+1664950D01*
X+2851150Y+1664950D01*
X+2863850Y+1664950D01*
X+2886075Y+1655425D02*
X+2876550Y+1664950D01*
X+2863850Y+1664950D01*
X+2851150Y+1664950D02*
X+2838450Y+1652250D01*
X+2838450Y+1626850D01*
X+2851150Y+1614150D01*
X+2863850Y+1614150D01*
X+2698750Y+1696700D02*
X+2724150Y+1696700D01*
X+2724150Y+1650650D01*
X+2698750Y+1390650D02*
X+2698750Y+1339850D01*
X+2343150Y+1390650D02*
X+2349500Y+1390650D01*
X+2343150Y+1390650D02*
X+2330450Y+1390650D01*
X+2298700Y+1422400D01*
X+2387600Y+1428750D02*
X+2387600Y+1431925D01*
X+2298700Y+1431925D01*
X+2289175Y+1431925D01*
X+2349500Y+1390650D02*
X+2387600Y+1390650D01*
X+2298700Y+1422400D02*
X+2298700Y+1431925D01*
X+2298700Y+1422400D02*
X+2289175Y+1431925D01*
X+2387600Y+1428750D02*
X+2349500Y+1390650D01*
X+2387600Y+1409700D02*
X+2387600Y+1428750D01*
X+2724150Y+1441450D02*
X+2651719Y+1513881D01*
X+2550462Y+1513881D01*
X+2472731Y+1513881D01*
X+2432050Y+1473200D01*
X+2419350Y+1460500D01*
X+2387600Y+1428750D01*
X+2495550Y+1467894D02*
X+2464456Y+1467894D01*
X+2387600Y+1384300D02*
X+2387600Y+1367826D01*
X+2387600Y+1346200D01*
X+2387600Y+1388404D02*
X+2387600Y+1390650D01*
X+2387600Y+1391038D01*
X+2387600Y+1397000D01*
X+2698750Y+1339850D02*
X+2724150Y+1339850D01*
X+2724150Y+1435100D01*
X+2724150Y+1441450D01*
X+2387600Y+1388404D02*
X+2387600Y+1384300D01*
X+2387600Y+1397000D02*
X+2387600Y+1409700D01*
X+2450906Y+1454344D02*
X+2448529Y+1451967D01*
X+2448529Y+1329361D01*
X+2464505Y+1313385D01*
X+2500297Y+1313385D01*
X+2505620Y+1313385D01*
X+2464456Y+1467894D02*
X+2450906Y+1454344D01*
X+2462619Y+1313385D02*
X+2464505Y+1313385D01*
X+2466219Y+1309785D02*
X+2478879Y+1309785D01*
X+2478895Y+1309769D01*
X+2724150Y+1339850D02*
X+2694069Y+1309769D01*
X+2592900Y+1309769D01*
X+2478895Y+1309769D01*
X+2466235Y+1309769D01*
X+2466219Y+1309785D01*
X+2462619Y+1313385D01*
X+2571750Y+1454150D02*
X+2571750Y+1332129D01*
X+2553006Y+1313385D01*
X+2527300Y+1313385D01*
X+2495550Y+1467894D02*
X+2508250Y+1467894D01*
X+2558006Y+1467894D01*
X+2571750Y+1454150D01*
X+2505620Y+1313385D02*
X+2527300Y+1313385D01*
X+2298700Y+1346200D02*
X+2335087Y+1309813D01*
X+2423987Y+1309813D01*
X+2429985Y+1309813D01*
X+2430013Y+1309785D01*
X+2387600Y+1346200D02*
X+2298700Y+1346200D01*
X+2423987Y+1309813D02*
X+2424015Y+1309785D01*
X+2430013Y+1309785D01*
X+2466219Y+1309785D01*
X+2190750Y+1530350D02*
X+2190750Y+1543050D01*
X+2249500Y+1471600D02*
X+2254250Y+1466850D01*
X+2190750Y+1471600D02*
X+2190750Y+1530350D01*
X+2289175Y+1431925D02*
X+2254250Y+1466850D01*
X+2249500Y+1471600D02*
X+2190750Y+1471600D01*
X+2190750Y+1568450D02*
X+2178050Y+1568450D01*
X+2165350Y+1555750D01*
X+2159000Y+1549400D01*
X+2159000Y+1447800D01*
X+2235200Y+1447800D01*
X+2298700Y+1384300D01*
X+2298700Y+1346200D02*
X+2298700Y+1384300D01*
X+2298700Y+1422400D01*
X+2190750Y+1543050D02*
X+2190750Y+1568450D01*
X+2203450Y+1568450D01*
X+2216150Y+1555750D01*
X+2216150Y+1504950D01*
X+2249500Y+1471600D01*
X+2032000Y+1530350D02*
X+1943100Y+1530350D01*
X+2032000Y+1530350D02*
X+2032000Y+1595450D01*
D14*
X+1987550Y+1447800D02*
X+2019300Y+1479550D01*
X+2032000Y+1479550D01*
D12*
X+2038350Y+1619250D02*
X+2032000Y+1619250D01*
X+2032000Y+1595450D02*
X+2032000Y+1619250D01*
X+2038350Y+1619250D02*
X+2063750Y+1619250D01*
X+2063750Y+1447800D01*
X+1987550Y+1447800D01*
X+1955800Y+1409700D02*
X+1847850Y+1517650D01*
X+1847850Y+1606550D01*
X+1854200Y+1612900D01*
D14*
X+1955800Y+1409700D02*
X+1955800Y+1416050D01*
X+1987550Y+1447800D01*
D12*
X+1854200Y+1606550D02*
X+1854200Y+1612900D01*
X+1854200Y+1619250D01*
X+1905000Y+1619250D02*
X+1866900Y+1657350D01*
X+1854200Y+1657350D01*
X+2032000Y+1619250D02*
X+1905000Y+1619250D01*
X+1854200Y+1619250D01*
X+1854200Y+1657350D01*
X+1854200Y+1676400D01*
X+2882900Y+2279650D02*
X+2882900Y+2266950D01*
X+2882900Y+2178050D02*
X+2882900Y+2156001D01*
X+2882900Y+2266950D02*
X+2901950Y+2247900D01*
X+2921000Y+2247900D01*
X+2921000Y+2197100D02*
X+2901950Y+2197100D01*
X+2882900Y+2178050D01*
X+2882900Y+2156001D02*
X+2882900Y+2139950D01*
X+2901950Y+2120900D01*
X+2921000Y+2120900D01*
X+2959100Y+2286000D02*
X+2959100Y+2266950D01*
X+2959100Y+2178050D02*
X+2959100Y+2165350D01*
X+2921000Y+2247900D02*
X+2940050Y+2247900D01*
X+2959100Y+2266950D01*
X+2921000Y+2159000D02*
X+2959100Y+2159000D01*
X+2959100Y+2165350D01*
X+2959100Y+2178050D02*
X+2940050Y+2197100D01*
X+2921000Y+2197100D01*
X+2921000Y+2286000D02*
X+2959100Y+2286000D01*
X+2959100Y+2305050D01*
X+2940050Y+2324100D01*
X+2901950Y+2324100D01*
X+2882900Y+2305050D01*
X+2882900Y+2279650D01*
X+2959100Y+2241550D02*
X+2921000Y+2241550D01*
X+2882900Y+2241550D01*
X+2921000Y+2247900D02*
X+2921000Y+2241550D01*
X+2882900Y+2266950D02*
X+2882900Y+2241550D01*
X+2959100Y+2266950D02*
X+2959100Y+2241550D01*
X+2882900Y+2228850D02*
X+2921000Y+2228850D01*
X+2959100Y+2228850D01*
X+2921000Y+2241550D02*
X+2921000Y+2228850D01*
X+2882900Y+2241550D02*
X+2882900Y+2228850D01*
X+2959100Y+2241550D02*
X+2959100Y+2228850D01*
X+2959100Y+2216150D02*
X+2921000Y+2216150D01*
X+2882900Y+2216150D01*
X+2921000Y+2228850D02*
X+2921000Y+2216150D01*
X+2882900Y+2228850D02*
X+2882900Y+2216150D01*
X+2959100Y+2228850D02*
X+2959100Y+2216150D01*
X+2882900Y+2203450D02*
X+2921000Y+2203450D01*
X+2959100Y+2203450D01*
X+2921000Y+2216150D02*
X+2921000Y+2203450D01*
X+2921000Y+2197100D01*
X+2882900Y+2216150D02*
X+2882900Y+2203450D01*
X+2882900Y+2178050D01*
X+2959100Y+2216150D02*
X+2959100Y+2203450D01*
X+2959100Y+2178050D01*
X+3009900Y+2279650D02*
X+3009900Y+2266950D01*
X+3009900Y+2178050D02*
X+3009900Y+2171700D01*
X+3048000Y+2286000D02*
X+3086100Y+2286000D01*
X+3086100Y+2305050D01*
X+3067050Y+2324100D01*
X+3028950Y+2324100D01*
X+3009900Y+2305050D01*
X+3009900Y+2279650D01*
X+3048000Y+2197100D02*
X+3028950Y+2197100D01*
X+3009900Y+2178050D01*
X+3009900Y+2171700D02*
X+3009900Y+2139950D01*
X+3028950Y+2120900D01*
X+3048000Y+2120900D01*
X+3086100Y+2279650D02*
X+3086100Y+2266950D01*
X+3086100Y+2178050D02*
X+3086100Y+2165350D01*
X+3086100Y+2279650D02*
X+3086100Y+2286000D01*
X+3048000Y+2159000D02*
X+3086100Y+2159000D01*
X+3086100Y+2165350D01*
X+3086100Y+2178050D02*
X+3067050Y+2197100D01*
X+3048000Y+2197100D01*
X+3086100Y+2203450D02*
X+3048000Y+2203450D01*
X+3009900Y+2203450D01*
X+3048000Y+2203450D02*
X+3048000Y+2197100D01*
X+3009900Y+2203450D02*
X+3009900Y+2178050D01*
X+3086100Y+2203450D02*
X+3086100Y+2178050D01*
X+3009900Y+2247900D02*
X+3028950Y+2247900D01*
X+3048000Y+2247900D01*
X+3067050Y+2247900D01*
X+3086100Y+2247900D01*
X+3009900Y+2266950D02*
X+3028950Y+2247900D01*
X+3067050Y+2247900D02*
X+3086100Y+2266950D01*
X+3009900Y+2266950D02*
X+3009900Y+2247900D01*
X+3086100Y+2266950D02*
X+3086100Y+2247900D01*
X+3086100Y+2235200D02*
X+3048000Y+2235200D01*
X+3009900Y+2235200D01*
X+3048000Y+2247900D02*
X+3048000Y+2235200D01*
X+3009900Y+2247900D02*
X+3009900Y+2235200D01*
X+3086100Y+2247900D02*
X+3086100Y+2235200D01*
X+3009900Y+2216150D02*
X+3048000Y+2216150D01*
X+3086100Y+2216150D01*
X+3048000Y+2216150D02*
X+3048000Y+2203450D01*
X+3009900Y+2216150D02*
X+3009900Y+2203450D01*
X+3086100Y+2216150D02*
X+3086100Y+2203450D01*
X+3086100Y+2228850D02*
X+3048000Y+2228850D01*
X+3009900Y+2228850D01*
X+3048000Y+2235200D02*
X+3048000Y+2228850D01*
X+3048000Y+2216150D01*
X+3009900Y+2235200D02*
X+3009900Y+2228850D01*
X+3009900Y+2216150D01*
X+3086100Y+2235200D02*
X+3086100Y+2228850D01*
X+3086100Y+2216150D01*
X+1600200Y+2036500D02*
X+1626200Y+2036500D01*
X+1782500Y+2036500D01*
X+1638900Y+2011100D02*
X+1638900Y+2023800D01*
X+1626200Y+2036500D01*
X+1600200Y+2036500D02*
X+1511900Y+2036500D01*
D13*
X+1638900Y+2011100D02*
X+1757100Y+2011100D01*
X+1782500Y+2036500D01*
X+1955800Y+2209800D01*
D12*
X+1600200Y+1985700D02*
X+1626200Y+1985700D01*
X+1989400Y+2209800D02*
X+1991650Y+2212050D01*
X+2002100Y+2222500D01*
X+1524600Y+2011100D02*
X+1524600Y+2036500D01*
X+1511900Y+2036500D01*
X+1499200Y+2023800D01*
X+1499200Y+1998400D01*
X+1511900Y+1985700D01*
X+1600200Y+1985700D01*
X+1626200Y+1985700D02*
X+1638900Y+1998400D01*
X+1638900Y+2011100D01*
X+1993900Y+2209800D02*
X+1989400Y+2209800D01*
X+1955800Y+2209800D01*
X+1993900Y+2209800D02*
X+1991650Y+2212050D01*
X+1974850Y+2228850D01*
X+1968500Y+2178050D02*
X+1989400Y+2198950D01*
X+2000250Y+2209800D01*
X+2006600Y+2216150D01*
X+2019900Y+2209800D02*
X+2000250Y+2209800D01*
X+1993900Y+2209800D01*
X+1626200Y+1985700D02*
X+1776150Y+1985700D01*
X+1968500Y+2178050D01*
X+1989400Y+2198950D02*
X+1989400Y+2209800D01*
X+2157300Y+1013000D02*
X+2030016Y+1013000D01*
X+1790700Y+1252316D01*
X+1790700Y+1720850D01*
X+1816100Y+1746250D01*
X+1872062Y+1746250D01*
X+2035843Y+1910031D01*
X+2340631Y+1910031D01*
X+2378450Y+1947850D01*
X+343500Y+626800D02*
X+381600Y+626800D01*
X+407000Y+626800D01*
X+318100Y+595050D02*
X+324450Y+595050D01*
X+413350Y+595050D01*
X+419700Y+601400D01*
X+426050Y+607750D01*
X+318100Y+658550D02*
X+324450Y+658550D01*
X+413350Y+658550D01*
X+419700Y+652200D01*
X+429225Y+642675D01*
X+407000Y+642675D01*
X+384775Y+642675D01*
X+340325Y+642675D01*
X+333975Y+642675D01*
X+318100Y+626800D01*
X+381600Y+626800D02*
X+381600Y+639500D01*
X+384775Y+642675D01*
X+394300Y+652200D01*
X+413350Y+652200D01*
X+343500Y+626800D02*
X+343500Y+639500D01*
X+340325Y+642675D01*
X+324450Y+658550D01*
X+407000Y+626800D02*
X+407000Y+642675D01*
X+407000Y+652200D01*
X+419700Y+652200D01*
X+432400Y+614100D02*
X+381600Y+614100D01*
X+343500Y+614100D01*
X+343500Y+626800D02*
X+343500Y+614100D01*
X+381600Y+614100D02*
X+381600Y+626800D01*
X+429225Y+642675D02*
X+432400Y+639500D01*
X+432400Y+614100D01*
X+426050Y+607750D01*
X+419700Y+601400D02*
X+394300Y+601400D01*
X+343500Y+601400D01*
X+337150Y+607750D01*
X+330800Y+614100D01*
X+318100Y+626800D01*
X+343500Y+614100D02*
X+330800Y+614100D01*
X+343500Y+614100D02*
X+337150Y+607750D01*
X+330800Y+601400D01*
X+324450Y+595050D01*
X+394300Y+601400D02*
X+381600Y+614100D01*
X+2439800Y+1230500D02*
X+2462300Y+1208000D01*
X+2983768Y+1208000D02*
X+3024000Y+1208000D01*
X+3060700Y+1208000D02*
X+3024000Y+1208000D01*
X+2806700Y+1208000D02*
X+2462300Y+1208000D01*
X+2969750Y+1208000D02*
X+2983768Y+1208000D01*
X+2969750Y+1208000D02*
X+2806700Y+1208000D01*
X+2462300Y+1208000D02*
X+2439800Y+1208000D01*
X+2439800Y+1187988D01*
X+2484250Y+1273000D02*
X+2443236Y+1273000D01*
X+2439800Y+1269564D01*
X+2806700Y+1273000D02*
X+2484250Y+1273000D01*
X+2443236Y+1273000D02*
X+2439800Y+1273000D01*
X+2439800Y+1269564D01*
X+2439800Y+1230500D01*
X+2439800Y+1187988D02*
X+2419786Y+1187988D01*
X+2439800Y+1269564D02*
X+2419786Y+1269564D01*
X+2419786Y+1187988D01*
X+2439800Y+1167974D01*
X+2439800Y+1167000D01*
X+2342300Y+1045500D02*
X+2439800Y+1143000D01*
X+2439800Y+1167000D01*
X+2459814Y+1187988D02*
X+2474607Y+1187988D01*
X+2458850Y+1187988D02*
X+2459814Y+1187988D01*
X+2474607Y+1187988D02*
X+2949738Y+1187988D01*
X+2969750Y+1208000D01*
X+2439800Y+1172500D02*
X+2455288Y+1187988D01*
X+2458850Y+1187988D02*
X+2455288Y+1187988D01*
X+2439800Y+1187988D01*
X+2439800Y+1167974D02*
X+2439800Y+1172500D01*
X+2439800Y+1187988D01*
D14*
X+2244800Y+1230500D02*
X+2244800Y+1241350D01*
X+2242950Y+1243200D01*
X+2039750Y+1243200D01*
X+1955800Y+1327150D01*
X+1955800Y+1409700D01*
D12*
X+2157300Y+1143000D02*
X+2120901Y+1143000D01*
X+2072945Y+1190956D01*
X+1984044Y+1190956D01*
X+1949450Y+1225550D01*
X+1422400Y+1270000D02*
X+1168400Y+1016000D01*
X+1930400Y+531212D02*
X+1903906Y+557706D01*
X+1854200Y+607412D01*
X+1854200Y+676550D01*
X+1930400Y+531212D02*
X+1943100Y+518512D01*
X+1943100Y+228600D01*
X+1943100Y+518512D01*
X+0Y+0D02*
X+57150Y+57150D01*
X+69850Y+69850D01*
X+76200Y+12700D02*
X+76200Y+38100D01*
X+76200Y+76200D01*
X+57150Y+57150D02*
X+76200Y+38100D01*
X+76200Y+12700D02*
X+76200Y+0D01*
X+19050Y+76200D02*
X+38100Y+76200D01*
X+76200Y+76200D01*
X+0Y+0D02*
X+76200Y+0D01*
X+76200Y-38100D01*
X+38100Y-76200D01*
X-38100Y-76200D01*
X-76200Y-38100D01*
X-76200Y+38100D01*
X-38100Y+76200D01*
X+19050Y+76200D01*
X+38100Y+76200D02*
X+57150Y+57150D01*
X+2978150Y+0D02*
X+2960245Y+0D01*
X+2946400Y+0D01*
X+3359150Y+163600D02*
X+3195550Y+0D01*
X+2978150Y+0D01*
X+2960245Y+0D02*
X+2847271Y-112974D01*
X+2486728Y-112974D01*
X+2427048Y-53294D01*
X+2427048Y+34564D01*
X+1943100Y+518512D01*
X+2892800Y+1748250D02*
X+2766600Y+1748250D01*
X+2731838Y+1783012D01*
X+2482850Y+1783012D01*
X+2765800Y+1968500D02*
X+2765800Y+1985950D01*
X+2765800Y+1992300D01*
X+2765800Y+2130050D02*
X+2774950Y+2120900D01*
X+2765800Y+1960550D02*
X+2765800Y+1968500D01*
X+2794000Y+2159000D02*
X+2765800Y+2130800D01*
X+2765425Y+2130425D01*
X+2765800Y+2130050D02*
X+2765800Y+2130800D01*
X+2764825Y+2131025D02*
X+2765425Y+2130425D01*
X+2765800Y+2130050D01*
X+2755900Y+2146300D02*
X+2755900Y+2139950D01*
X+2755900Y+1998650D02*
X+2755900Y+1995100D01*
X+2746750Y+1985950D01*
X+2734050Y+1973250D01*
X+2794000Y+2197100D02*
X+2774950Y+2197100D01*
X+2755900Y+2178050D01*
X+2755900Y+2146300D01*
X+2755900Y+2139950D02*
X+2764825Y+2131025D01*
X+2759450Y+1985950D02*
X+2746750Y+1985950D01*
X+2638800Y+1985950D01*
X+2755900Y+1998650D02*
X+2765800Y+1998650D01*
X+2755900Y+2008550D01*
X+2755900Y+1998650D01*
X+2755900Y+2012950D02*
X+2741600Y+1998650D01*
X+2728605Y+1998650D01*
X+2638800Y+1985950D02*
X+2651500Y+1998650D01*
X+2728605Y+1998650D01*
X+2741600Y+1998650D02*
X+2755900Y+1998650D01*
X+2755900Y+2008550D02*
X+2755900Y+2012950D01*
X+2755900Y+2020870D01*
X+2819400Y+2127250D02*
X+2813050Y+2120900D01*
X+2755900Y+2063750D02*
X+2755900Y+2052867D01*
X+2822575Y+2130425D02*
X+2819400Y+2127250D01*
X+2755900Y+2052867D02*
X+2755900Y+2020870D01*
X+2800350Y+2108200D02*
X+2755900Y+2108200D01*
X+2813050Y+2120900D02*
X+2800350Y+2108200D01*
X+2787650Y+2120900D02*
X+2774950Y+2120900D01*
X+2755900Y+2120900D01*
X+2787650Y+2120900D02*
X+2794000Y+2120900D01*
X+2755900Y+2139950D02*
X+2755900Y+2120900D01*
X+2755900Y+2108200D01*
X+2800350Y+2108200D02*
X+2787650Y+2095500D01*
X+2755900Y+2108200D02*
X+2755900Y+2095500D01*
X+2755900Y+2084163D01*
X+2755900Y+2063750D01*
X+2765800Y+1992300D02*
X+2765800Y+1998650D01*
X+2765800Y+2073650D01*
X+2765800Y+2084163D01*
X+2765800Y+2095500D01*
X+2787650Y+2095500D02*
X+2765800Y+2095500D01*
X+2755900Y+2095500D01*
X+2787650Y+2095500D02*
X+2765800Y+2073650D01*
X+2755900Y+2063750D01*
X+2774950Y+2084163D02*
X+2765800Y+2084163D01*
X+2755900Y+2084163D01*
X+3146425Y+2130425D02*
X+3175000Y+2159000D01*
X+3162300Y+2120900D02*
X+3155950Y+2120900D01*
X+3136900Y+2120900D01*
X+3146425Y+2130425D01*
X+3155950Y+2120900D01*
X+3162300Y+2120900D02*
X+3175000Y+2120900D01*
X+3136900Y+2152650D02*
X+3136900Y+2139950D01*
X+3136900Y+2120900D01*
X+3213100Y+2159000D02*
X+3213100Y+2178050D01*
X+3194050Y+2197100D01*
X+3155950Y+2197100D01*
X+3136900Y+2178050D01*
X+3136900Y+2152650D01*
X+3136900Y+2139950D02*
X+3146425Y+2130425D01*
X+2734050Y+1873250D02*
X+2749550Y+1873250D01*
X+2802585Y+1926285D01*
X+2802585Y+2058405D01*
X+2828318Y+2084138D01*
X+3100138Y+2084138D01*
X+3136900Y+2120900D01*
X+1638300Y+1778000D02*
X+1892300Y+2032000D01*
X+2032000Y+2032000D01*
X+254000Y+2032000D02*
X+254000Y+1524000D01*
X+508000Y+1778000D02*
X+508000Y+1270000D01*
D15*
X+3075700Y+1478000D03*
X+3320700Y+1538000D03*
X+2806700Y+1241250D03*
X+3075700Y+808000D03*
X+3320700Y+748000D03*
X+2692400Y+779800D03*
X+2857500Y+776800D03*
X+2857500Y+687900D03*
X+2692400Y+939800D03*
X+2959100Y+557200D03*
X+3124200Y+557200D03*
X+3359150Y+163600D03*
X+2374800Y+746200D03*
X+2260500Y+746200D03*
X+2787650Y+330200D03*
X+2635250Y+330200D03*
X+2262075Y+649375D03*
X+2043000Y+948000D03*
X+3177450Y+191850D03*
X+2444750Y+241300D03*
X+1564550Y+509350D03*
X+1562100Y+1447800D03*
X+2005311Y+1128800D03*
X+133800Y+1066800D03*
X+203800Y+926800D03*
X+203800Y+476800D03*
X+318100Y+476800D03*
X+2540000Y+330200D03*
X+318100Y+626800D03*
X+2863850Y+1550650D03*
X+2133600Y+1314450D03*
X+2343150Y+1390650D03*
X+2190750Y+1543050D03*
X+2664200Y+1973250D03*
X+2499100Y+1973250D03*
X+2403850Y+1973250D03*
X+2032000Y+1530350D03*
X+407000Y+626800D03*
X+1524600Y+2011100D03*
X+2892800Y+1973250D03*
X+1613500Y+2011100D03*
X+1943100Y+1530350D03*
X+318100Y+926800D03*
X+2863850Y+1639550D03*
X+2302250Y+1973250D03*
X+2400300Y+1778000D03*
X+1924050Y+1250950D03*
X+2146300Y+1778000D03*
X+1638300Y+1778000D03*
X+914400Y+1270000D03*
X+660400Y+1016000D03*
X+406400Y+762000D03*
X+133800Y+336800D03*
X-76200Y+336800D03*
X-76200Y+1066800D03*
X+1854200Y+676550D03*
X+1866900Y+1371600D03*
X+1422400Y+1270000D03*
X+1168400Y+1016000D03*
X+1676400Y+1016000D03*
X+2438400Y+508000D03*
X+1943100Y+228600D03*
X+1676400Y+254000D03*
X+1422400Y+254000D03*
X+1168400Y+254000D03*
X+914400Y+254000D03*
X+647700Y+254000D03*
X+2946400Y+0D03*
X+2863850Y+1390650D03*
X+2731838Y+1783012D03*
X+2342300Y+1045500D03*
X+3200400Y+1778000D03*
X+2032000Y+2032000D03*
X+1016000Y+2032000D03*
X+254000Y+2032000D03*
X+508000Y+2032000D03*
X+762000Y+2032000D03*
X+254000Y+1524000D03*
X+508000Y+1778000D03*
X+508000Y+1270000D03*
D12*
X+2755900Y+1658600D02*
X+2847877Y+1658600D01*
X+2839085Y+1649808D01*
X+2839085Y+1629292D01*
X+2853592Y+1614785D01*
X+2874108Y+1614785D01*
X+2888615Y+1629292D01*
X+2888615Y+1646535D01*
X+2901950Y+1633200D01*
X+2901950Y+1518900D01*
X+2895600Y+1512550D01*
X+2819400Y+1512550D01*
X+2730500Y+1601450D01*
X+2730500Y+1677650D01*
X+2736850Y+1677650D01*
X+2755900Y+1658600D01*
X+2888615Y+1560908D02*
X+2888615Y+1540392D01*
X+2874108Y+1525885D01*
X+2853592Y+1525885D01*
X+2839085Y+1540392D01*
X+2839085Y+1560908D01*
X+2853592Y+1575415D01*
X+2874108Y+1575415D01*
X+2888615Y+1560908D01*
X+2165985Y+1532792D02*
X+2180492Y+1518285D01*
X+2201008Y+1518285D01*
X+2209800Y+1527077D01*
X+2209800Y+1504950D01*
X+2292350Y+1422400D01*
X+2292350Y+1421569D01*
X+2285366Y+1414585D01*
X+2285366Y+1403984D01*
X+2235200Y+1454150D01*
X+2171700Y+1454150D01*
X+2165350Y+1460500D01*
X+2165350Y+1549400D01*
X+2165985Y+1550035D01*
X+2165985Y+1532792D01*
X+2186805Y+1481125D02*
X+2194695Y+1481125D01*
X+2200275Y+1475545D01*
X+2200275Y+1467655D01*
X+2194695Y+1462075D01*
X+2186805Y+1462075D01*
X+2181225Y+1467655D01*
X+2181225Y+1475545D01*
X+2186805Y+1481125D01*
X+2190750Y+1481125D02*
X+2190750Y+1471600D01*
X+2190750Y+1462075D02*
X+2190750Y+1471600D01*
X+2181225Y+1471600D02*
X+2190750Y+1471600D01*
X+2200275Y+1471600D02*
X+2190750Y+1471600D01*
X+2717800Y+1441450D02*
X+2717800Y+1339850D01*
X+2692400Y+1314450D01*
X+2569054Y+1314450D01*
X+2569054Y+1318104D01*
X+2578100Y+1327150D01*
X+2578100Y+1454150D01*
X+2569054Y+1463196D01*
X+2569054Y+1467954D01*
X+2564296Y+1467954D01*
X+2559050Y+1473200D01*
X+2463800Y+1473200D01*
X+2458554Y+1467954D01*
X+2448446Y+1467954D01*
X+2448446Y+1457846D01*
X+2444750Y+1454150D01*
X+2444750Y+1320800D01*
X+2448446Y+1317104D01*
X+2448446Y+1314450D01*
X+2336800Y+1314450D01*
X+2311400Y+1339850D01*
X+2311400Y+1422400D01*
X+2317750Y+1428750D01*
X+2393950Y+1428750D01*
X+2470150Y+1504950D01*
X+2654300Y+1504950D01*
X+2717800Y+1441450D01*
X+2708275Y+1394595D02*
X+2708275Y+1386705D01*
X+2702695Y+1381125D01*
X+2694805Y+1381125D01*
X+2689225Y+1386705D01*
X+2689225Y+1394595D01*
X+2694805Y+1400175D01*
X+2702695Y+1400175D01*
X+2708275Y+1394595D01*
X+2367915Y+1400908D02*
X+2367915Y+1380392D01*
X+2353408Y+1365885D01*
X+2332892Y+1365885D01*
X+2318385Y+1380392D01*
X+2318385Y+1400908D01*
X+2332892Y+1415415D01*
X+2353408Y+1415415D01*
X+2367915Y+1400908D01*
X+2708275Y+1390650D02*
X+2698750Y+1390650D01*
X+2689225Y+1390650D02*
X+2698750Y+1390650D01*
X+2698750Y+1400175D02*
X+2698750Y+1390650D01*
X+2698750Y+1381125D02*
X+2698750Y+1390650D01*
X+1905000Y+1612900D02*
X+2051050Y+1612900D01*
X+2057400Y+1606550D01*
X+2057400Y+1460500D01*
X+2051050Y+1454150D01*
X+1987550Y+1454150D01*
X+1955800Y+1422400D01*
X+1949450Y+1422400D01*
X+1847850Y+1524000D01*
X+1847850Y+1599430D01*
X+1850255Y+1597025D01*
X+1858145Y+1597025D01*
X+1863725Y+1602605D01*
X+1863725Y+1610495D01*
X+1858145Y+1616075D01*
X+1850255Y+1616075D01*
X+1847850Y+1613670D01*
X+1847850Y+1651000D01*
X+1866900Y+1651000D01*
X+1905000Y+1612900D01*
X+2035945Y+1462075D02*
X+2028055Y+1462075D01*
X+2022475Y+1467655D01*
X+2022475Y+1475545D01*
X+2028055Y+1481125D01*
X+2035945Y+1481125D01*
X+2041525Y+1475545D01*
X+2041525Y+1467655D01*
X+2035945Y+1462075D01*
X+2028055Y+1604975D02*
X+2035945Y+1604975D01*
X+2041525Y+1599395D01*
X+2041525Y+1591505D01*
X+2035945Y+1585925D01*
X+2028055Y+1585925D01*
X+2022475Y+1591505D01*
X+2022475Y+1599395D01*
X+2028055Y+1604975D01*
X+2007235Y+1520092D02*
X+2007235Y+1540608D01*
X+2021742Y+1555115D01*
X+2042258Y+1555115D01*
X+2056765Y+1540608D01*
X+2056765Y+1520092D01*
X+2042258Y+1505585D01*
X+2021742Y+1505585D01*
X+2007235Y+1520092D01*
X+1918335Y+1520092D02*
X+1918335Y+1540608D01*
X+1932842Y+1555115D01*
X+1953358Y+1555115D01*
X+1967865Y+1540608D01*
X+1967865Y+1520092D01*
X+1953358Y+1505585D01*
X+1932842Y+1505585D01*
X+1918335Y+1520092D01*
X+1863725Y+1606550D02*
X+1854200Y+1606550D01*
X+1854200Y+1597025D02*
X+1854200Y+1606550D01*
X+1854200Y+1616075D02*
X+1854200Y+1606550D01*
X+2032000Y+1462075D02*
X+2032000Y+1471600D01*
X+2032000Y+1481125D02*
X+2032000Y+1471600D01*
X+2041525Y+1471600D02*
X+2032000Y+1471600D01*
X+2022475Y+1471600D02*
X+2032000Y+1471600D01*
X+2032000Y+1604975D02*
X+2032000Y+1595450D01*
X+2032000Y+1585925D02*
X+2032000Y+1595450D01*
X+2022475Y+1595450D02*
X+2032000Y+1595450D01*
X+2041525Y+1595450D02*
X+2032000Y+1595450D01*
X+3449391Y+2407706D02*
X+3467995Y+2402073D01*
X+3484618Y+2393183D01*
X+3498986Y+2381386D01*
X+3510783Y+2367018D01*
X+3519673Y+2350395D01*
X+3525306Y+2331791D01*
X+3527425Y+2310020D01*
X+3527425Y-24020D01*
X+3525306Y-45791D01*
X+3519673Y-64395D01*
X+3510783Y-81018D01*
X+3498986Y-95386D01*
X+3484618Y-107183D01*
X+3467995Y-116073D01*
X+3449391Y-121706D01*
X+3427620Y-123825D01*
X-24020Y-123825D01*
X-45791Y-121706D01*
X-64395Y-116073D01*
X-81018Y-107183D01*
X-95386Y-95386D01*
X-107183Y-81018D01*
X-116073Y-64395D01*
X-121706Y-45791D01*
X-123825Y-24020D01*
X-123825Y+1435965D01*
X+3175Y+1562965D01*
X+3175Y+2310020D01*
X+5294Y+2331791D01*
X+10927Y+2350395D01*
X+19817Y+2367018D01*
X+31614Y+2381386D01*
X+45982Y+2393183D01*
X+62604Y+2402073D01*
X+81208Y+2407706D01*
X+102980Y+2409825D01*
X+3427620Y+2409825D01*
X+3449391Y+2407706D01*
X+3434837Y+66072D02*
X+3466446Y+59476D01*
X+3501623Y+33144D01*
X+3522903Y-25400D01*
X+3501623Y-83944D01*
X+3466446Y-110276D01*
X+3429000Y-118090D01*
X+3391554Y-110276D01*
X+3356377Y-83944D01*
X+3335097Y-25400D01*
X+3356377Y+33144D01*
X+3391554Y+59476D01*
X+3429000Y+67290D01*
X+3434837Y+66072D01*
X+3434837Y+2402872D02*
X+3466446Y+2396276D01*
X+3501623Y+2369944D01*
X+3522903Y+2311400D01*
X+3501623Y+2252856D01*
X+3466446Y+2226524D01*
X+3429000Y+2218710D01*
X+3391554Y+2226524D01*
X+3356377Y+2252856D01*
X+3335097Y+2311400D01*
X+3356377Y+2369944D01*
X+3391554Y+2396276D01*
X+3429000Y+2404090D01*
X+3434837Y+2402872D01*
X-19563Y+1437672D02*
X+12046Y+1431076D01*
X+47223Y+1404744D01*
X+68503Y+1346200D01*
X+47223Y+1287656D01*
X+12046Y+1261324D01*
X-25400Y+1253510D01*
X-62846Y+1261324D01*
X-98023Y+1287656D01*
X-119303Y+1346200D01*
X-98023Y+1404744D01*
X-62846Y+1431076D01*
X-25400Y+1438890D01*
X-19563Y+1437672D01*
X+2604142Y+2388242D02*
X+2653029Y+2339355D01*
X+2653029Y+2232645D01*
X+2593355Y+2172971D01*
X+2479055Y+2172971D01*
X+2440679Y+2134595D01*
X+2440679Y+2059595D01*
X+2416563Y+2035479D01*
X+2431805Y+2035479D01*
X+2451475Y+2015809D01*
X+2471145Y+2035479D01*
X+2584287Y+2035479D01*
X+2675936Y+2127128D01*
X+2675936Y+2220020D01*
X+2719071Y+2263155D01*
X+2719071Y+2339355D01*
X+2721696Y+2341980D01*
X+2721696Y+2358304D01*
X+2738020Y+2358304D01*
X+2740645Y+2360929D01*
X+2847355Y+2360929D01*
X+2849980Y+2358304D01*
X+2866304Y+2358304D01*
X+2866304Y+2341980D01*
X+2867025Y+2341259D01*
X+2886695Y+2360929D01*
X+2955305Y+2360929D01*
X+2984500Y+2331734D01*
X+3013695Y+2360929D01*
X+3082305Y+2360929D01*
X+3122929Y+2320305D01*
X+3122929Y+2216163D01*
X+3140695Y+2233929D01*
X+3209305Y+2233929D01*
X+3249929Y+2193305D01*
X+3249929Y+2124695D01*
X+3209305Y+2084071D01*
X+3152155Y+2084071D01*
X+3115393Y+2047309D01*
X+2843573Y+2047309D01*
X+2839414Y+2043150D01*
X+2839414Y+2035554D01*
X+2970104Y+2035554D01*
X+2970104Y+2010079D01*
X+3275496Y+2010079D01*
X+3275496Y+2035554D01*
X+3430104Y+2035554D01*
X+3430104Y+1910946D01*
X+3275496Y+1910946D01*
X+3275496Y+1936421D01*
X+2970104Y+1936421D01*
X+2970104Y+1910946D01*
X+2839330Y+1910946D01*
X+2798854Y+1870470D01*
X+2798854Y+1818446D01*
X+2669246Y+1818446D01*
X+2669246Y+1836421D01*
X+2633754Y+1836421D01*
X+2633754Y+1818446D01*
X+2504146Y+1818446D01*
X+2504146Y+1836421D01*
X+2066305Y+1836421D01*
X+1911984Y+1682100D01*
X+1911984Y+1664350D01*
X+1920255Y+1656079D01*
X+2079005Y+1656079D01*
X+2084830Y+1650254D01*
X+2096804Y+1650254D01*
X+2096804Y+1638280D01*
X+2100579Y+1634505D01*
X+2100579Y+1432545D01*
X+2096804Y+1428770D01*
X+2096804Y+1416796D01*
X+2084830Y+1416796D01*
X+2079005Y+1410971D01*
X+2010547Y+1410971D01*
X+1998104Y+1398528D01*
X+1998104Y+1344672D01*
X+2057272Y+1285504D01*
X+2072362Y+1285504D01*
X+2071371Y+1286495D01*
X+2071371Y+1342405D01*
X+2105645Y+1376679D01*
X+2125946Y+1376679D01*
X+2125946Y+1428770D01*
X+2122171Y+1432545D01*
X+2122171Y+1564655D01*
X+2162795Y+1605279D01*
X+2218705Y+1605279D01*
X+2252979Y+1571005D01*
X+2252979Y+1526404D01*
X+2255554Y+1526404D01*
X+2255554Y+1517630D01*
X+2304430Y+1468754D01*
X+2375520Y+1468754D01*
X+2457476Y+1550710D01*
X+2666974Y+1550710D01*
X+2749730Y+1467954D01*
X+2759054Y+1467954D01*
X+2759054Y+1458630D01*
X+2760979Y+1456705D01*
X+2760979Y+1324595D01*
X+2759054Y+1322670D01*
X+2759054Y+1313346D01*
X+2749730Y+1313346D01*
X+2709324Y+1272940D01*
X+2450980Y+1272940D01*
X+2450964Y+1272956D01*
X+2419884Y+1272956D01*
X+2419884Y+1199805D01*
X+2480609Y+1199805D01*
X+2492330Y+1188084D01*
X+2948396Y+1188084D01*
X+2948396Y+1190304D01*
X+3173004Y+1190304D01*
X+3173004Y+965696D01*
X+3156161Y+965696D01*
X+3164275Y+949912D01*
X+3164275Y+936088D01*
X+3143160Y+895012D01*
X+3105700Y+882990D01*
X+3068240Y+895012D01*
X+3047125Y+936088D01*
X+3047125Y+949912D01*
X+3055239Y+965696D01*
X+2953292Y+965696D01*
X+2937304Y+949708D01*
X+2937304Y+864496D01*
X+2777696Y+864496D01*
X+2777696Y+1009104D01*
X+2862908Y+1009104D01*
X+2886720Y+1032916D01*
X+2663042Y+1032916D01*
X+2683854Y+1012104D01*
X+2772204Y+1012104D01*
X+2772204Y+867496D01*
X+2612596Y+867496D01*
X+2612596Y+955846D01*
X+2606674Y+961768D01*
X+2606674Y+902916D01*
X+2564129Y+902916D01*
X+2564129Y+795941D01*
X+2711248Y+648822D01*
X+2806394Y+648822D01*
X+2795271Y+659945D01*
X+2795271Y+698045D01*
X+2788820Y+704496D01*
X+2777696Y+704496D01*
X+2777696Y+715620D01*
X+2769871Y+723445D01*
X+2769871Y+830155D01*
X+2777696Y+837980D01*
X+2777696Y+849104D01*
X+2788820Y+849104D01*
X+2791445Y+851729D01*
X+2923555Y+851729D01*
X+2926180Y+849104D01*
X+2937304Y+849104D01*
X+2937304Y+837980D01*
X+2945129Y+830155D01*
X+2945129Y+723445D01*
X+2937304Y+715620D01*
X+2937304Y+704496D01*
X+2926180Y+704496D01*
X+2919729Y+698045D01*
X+2919729Y+659945D01*
X+2885455Y+625671D01*
X+2841113Y+625671D01*
X+2854780Y+612004D01*
X+2923720Y+612004D01*
X+2931145Y+619429D01*
X+3075955Y+619429D01*
X+3083380Y+612004D01*
X+3088820Y+612004D01*
X+3096245Y+619429D01*
X+3241055Y+619429D01*
X+3248480Y+612004D01*
X+3258854Y+612004D01*
X+3258854Y+601630D01*
X+3262629Y+597855D01*
X+3262629Y+516545D01*
X+3258854Y+512770D01*
X+3258854Y+512542D01*
X+3294346Y+548034D01*
X+3294346Y+612004D01*
X+3423954Y+612004D01*
X+3423954Y+402396D01*
X+3395979Y+402396D01*
X+3395979Y+395904D01*
X+3426454Y+395904D01*
X+3426454Y+261296D01*
X+3322229Y+261296D01*
X+3322229Y+194487D01*
X+3203913Y+76171D01*
X+2884213Y+76171D01*
X+2907029Y+53355D01*
X+2907029Y-53355D01*
X+2847355Y-113029D01*
X+2740645Y-113029D01*
X+2680971Y-53355D01*
X+2680971Y+53355D01*
X+2680972Y+53356D01*
X+2680972Y+60920D01*
X+2665736Y+76156D01*
X+2630228Y+76156D01*
X+2653029Y+53355D01*
X+2653029Y-53355D01*
X+2593355Y-113029D01*
X+2486645Y-113029D01*
X+2426971Y-53355D01*
X+2426971Y+60945D01*
X+2188482Y+299434D01*
X+2188482Y+580766D01*
X+2161484Y+607764D01*
X+2161484Y+789356D01*
X+2199716Y+827588D01*
X+2199716Y+848983D01*
X+1999807Y+848983D01*
X+1943984Y+904806D01*
X+1943984Y+942978D01*
X+1653570Y+1233392D01*
X+1653570Y+1425046D01*
X+1624329Y+1454287D01*
X+1624329Y+1419845D01*
X+1590055Y+1385571D01*
X+1534145Y+1385571D01*
X+1499871Y+1419845D01*
X+1499871Y+1457945D01*
X+1481440Y+1476376D01*
X+1415416Y+1476376D01*
X+1415416Y+1736724D01*
X+1530984Y+1736724D01*
X+1530984Y+1531000D01*
X+1542416Y+1519568D01*
X+1542416Y+1736724D01*
X+1657984Y+1736724D01*
X+1657984Y+1524800D01*
X+1669416Y+1513368D01*
X+1669416Y+1736724D01*
X+1754490Y+1736724D01*
X+1800845Y+1783079D01*
X+1856807Y+1783079D01*
X+2020588Y+1946860D01*
X+2240021Y+1946860D01*
X+2240021Y+2001205D01*
X+2274295Y+2035479D01*
X+2312395Y+2035479D01*
X+2367021Y+2090105D01*
X+2367021Y+2165105D01*
X+2426971Y+2225055D01*
X+2426971Y+2339355D01*
X+2486645Y+2399029D01*
X+2593355Y+2399029D01*
X+2604142Y+2388242D01*
X+3131890Y+1394605D02*
X+3143160Y+1390988D01*
X+3164275Y+1349912D01*
X+3164275Y+1336088D01*
X+3143160Y+1295012D01*
X+3105700Y+1282990D01*
X+3068240Y+1295012D01*
X+3047125Y+1336088D01*
X+3047125Y+1349912D01*
X+3068240Y+1390988D01*
X+3105700Y+1403010D01*
X+3131890Y+1394605D01*
X+35802Y+624502D02*
X+35802Y+624503D01*
X+65034Y+617114D01*
X+94977Y+586295D01*
X+103169Y+551800D01*
X+94977Y+517305D01*
X+65034Y+486486D01*
X+28800Y+477328D01*
X+21798Y+479097D01*
X-7434Y+486486D01*
X-37377Y+517305D01*
X-45569Y+551800D01*
X-37377Y+586295D01*
X-7434Y+617114D01*
X+28800Y+626272D01*
X+35802Y+624502D01*
X+35802Y+924502D02*
X+35802Y+924503D01*
X+65034Y+917114D01*
X+94977Y+886295D01*
X+103169Y+851800D01*
X+94977Y+817305D01*
X+65034Y+786486D01*
X+28800Y+777328D01*
X+21798Y+779097D01*
X-7434Y+786486D01*
X-37377Y+817305D01*
X-45569Y+851800D01*
X-37377Y+886295D01*
X-7434Y+917114D01*
X+28800Y+926272D01*
X+35802Y+924502D01*
X+2688605Y+1752579D02*
X+2707655Y+1733529D01*
X+2739405Y+1733529D01*
X+2744980Y+1727954D01*
X+2759054Y+1727954D01*
X+2759054Y+1713880D01*
X+2771155Y+1701779D01*
X+2891805Y+1701779D01*
X+2945129Y+1648455D01*
X+2945129Y+1490945D01*
X+2943654Y+1489470D01*
X+2943654Y+1478346D01*
X+2932530Y+1478346D01*
X+2923555Y+1469371D01*
X+2804145Y+1469371D01*
X+2795170Y+1478346D01*
X+2784046Y+1478346D01*
X+2784046Y+1489470D01*
X+2708895Y+1564621D01*
X+2658095Y+1564621D01*
X+2649370Y+1573346D01*
X+2638446Y+1573346D01*
X+2638446Y+1584270D01*
X+2636521Y+1586195D01*
X+2636521Y+1697971D01*
X+2574305Y+1697971D01*
X+2570479Y+1694145D01*
X+2570479Y+1586195D01*
X+2569054Y+1584770D01*
X+2569054Y+1573346D01*
X+2557630Y+1573346D01*
X+2548905Y+1564621D01*
X+2467595Y+1564621D01*
X+2458870Y+1573346D01*
X+2448446Y+1573346D01*
X+2448446Y+1583770D01*
X+2446021Y+1586195D01*
X+2446021Y+1711955D01*
X+2448446Y+1714380D01*
X+2448446Y+1727954D01*
X+2462020Y+1727954D01*
X+2467595Y+1733529D01*
X+2505695Y+1733529D01*
X+2543795Y+1771629D01*
X+2669555Y+1771629D01*
X+2688605Y+1752579D01*
X+2343025Y+2309621D02*
X+2343025Y+2262379D01*
X+2309621Y+2228975D01*
X+2262379Y+2228975D01*
X+2228975Y+2262379D01*
X+2228975Y+2309621D01*
X+2262379Y+2343025D01*
X+2309621Y+2343025D01*
X+2343025Y+2309621D01*
X+2096142Y+2388242D02*
X+2145029Y+2339355D01*
X+2145029Y+2232645D01*
X+2085355Y+2172971D01*
X+2015505Y+2172971D01*
X+1791406Y+1948872D01*
X+1776150Y+1948872D01*
X+1641455Y+1948871D01*
X+1496645Y+1948871D01*
X+1462371Y+1983145D01*
X+1462371Y+2039055D01*
X+1496645Y+2073329D01*
X+1744795Y+2073329D01*
X+1918971Y+2247505D01*
X+1918971Y+2339355D01*
X+1978645Y+2399029D01*
X+2085355Y+2399029D01*
X+2096142Y+2388242D01*
X+1835025Y+2309621D02*
X+1835025Y+2262379D01*
X+1801621Y+2228975D01*
X+1754379Y+2228975D01*
X+1720975Y+2262379D01*
X+1720975Y+2309621D01*
X+1754379Y+2343025D01*
X+1801621Y+2343025D01*
X+1835025Y+2309621D01*
X+1588142Y+2388242D02*
X+1637029Y+2339355D01*
X+1637029Y+2232645D01*
X+1577355Y+2172971D01*
X+1470645Y+2172971D01*
X+1410971Y+2232645D01*
X+1410971Y+2339355D01*
X+1470645Y+2399029D01*
X+1577355Y+2399029D01*
X+1588142Y+2388242D01*
X+1200025Y+2309621D02*
X+1200025Y+2262379D01*
X+1166621Y+2228975D01*
X+1119379Y+2228975D01*
X+1085975Y+2262379D01*
X+1085975Y+2309621D01*
X+1119379Y+2343025D01*
X+1166621Y+2343025D01*
X+1200025Y+2309621D01*
X+953142Y+2388242D02*
X+1002029Y+2339355D01*
X+1002029Y+2225055D01*
X+1129029Y+2098055D01*
X+1129029Y+1736724D01*
X+1149984Y+1736724D01*
X+1149984Y+1476376D01*
X+1034416Y+1476376D01*
X+1034416Y+1736724D01*
X+1055371Y+1736724D01*
X+1055371Y+2067545D01*
X+949945Y+2172971D01*
X+835645Y+2172971D01*
X+775971Y+2232645D01*
X+775971Y+2339355D01*
X+835645Y+2399029D01*
X+942355Y+2399029D01*
X+953142Y+2388242D01*
X+699142Y+2388242D02*
X+748029Y+2339355D01*
X+748029Y+2225055D01*
X+1002029Y+1971055D01*
X+1002029Y+1736724D01*
X+1022984Y+1736724D01*
X+1022984Y+1476376D01*
X+907416Y+1476376D01*
X+907416Y+1736724D01*
X+928371Y+1736724D01*
X+928371Y+1940545D01*
X+695945Y+2172971D01*
X+581645Y+2172971D01*
X+521971Y+2232645D01*
X+521971Y+2339355D01*
X+581645Y+2399029D01*
X+688355Y+2399029D01*
X+699142Y+2388242D01*
X+445142Y+2388242D02*
X+494029Y+2339355D01*
X+494029Y+2225055D01*
X+875029Y+1844055D01*
X+875029Y+1736724D01*
X+895984Y+1736724D01*
X+895984Y+1476376D01*
X+780416Y+1476376D01*
X+780416Y+1736724D01*
X+801371Y+1736724D01*
X+801371Y+1813545D01*
X+441945Y+2172971D01*
X+327645Y+2172971D01*
X+267971Y+2232645D01*
X+267971Y+2339355D01*
X+327645Y+2399029D01*
X+434355Y+2399029D01*
X+445142Y+2388242D01*
X+191142Y+2388242D02*
X+240029Y+2339355D01*
X+240029Y+2202805D01*
X+706110Y+1736724D01*
X+768984Y+1736724D01*
X+768984Y+1476376D01*
X+653416Y+1476376D01*
X+653416Y+1685250D01*
X+165695Y+2172971D01*
X+73645Y+2172971D01*
X+13971Y+2232645D01*
X+13971Y+2339355D01*
X+73645Y+2399029D01*
X+180355Y+2399029D01*
X+191142Y+2388242D01*
X+1403984Y+1476376D02*
X+1344110Y+1476376D01*
X+690292Y+822558D01*
X+690292Y+806724D01*
X+768984Y+806724D01*
X+768984Y+546376D01*
X+748029Y+546376D01*
X+748029Y+187945D01*
X+621029Y+60945D01*
X+621029Y-53355D01*
X+561355Y-113029D01*
X+454645Y-113029D01*
X+394971Y-53355D01*
X+394971Y+53355D01*
X+454645Y+113029D01*
X+568945Y+113029D01*
X+674371Y+218455D01*
X+674371Y+368287D01*
X+367029Y+60945D01*
X+367029Y-53355D01*
X+307355Y-113029D01*
X+200645Y-113029D01*
X+140971Y-53355D01*
X+140971Y+53355D01*
X+163754Y+76138D01*
X+128222Y+76138D01*
X+113029Y+60945D01*
X+113029Y-53355D01*
X+53355Y-113029D01*
X-53355Y-113029D01*
X-113029Y-53355D01*
X-113029Y+53355D01*
X-53355Y+113029D01*
X+60945Y+113029D01*
X+97712Y+149796D01*
X+299687Y+149796D01*
X+579900Y+430009D01*
X+579900Y+868313D01*
X+1182371Y+1470784D01*
X+1182371Y+1476376D01*
X+1161416Y+1476376D01*
X+1161416Y+1736724D01*
X+1276984Y+1736724D01*
X+1276984Y+1513418D01*
X+1288416Y+1524850D01*
X+1288416Y+1736724D01*
X+1403984Y+1736724D01*
X+1403984Y+1476376D01*
X+895984Y+546376D02*
X+875029Y+546376D01*
X+875029Y-53355D01*
X+815355Y-113029D01*
X+708645Y-113029D01*
X+648971Y-53355D01*
X+648971Y+53355D01*
X+708645Y+113029D01*
X+784845Y+113029D01*
X+801371Y+129555D01*
X+801371Y+546376D01*
X+780416Y+546376D01*
X+780416Y+806724D01*
X+895984Y+806724D01*
X+895984Y+546376D01*
X+1149984Y+546376D02*
X+1129029Y+546376D01*
X+1129029Y+193055D01*
X+1209055Y+113029D01*
X+1323355Y+113029D01*
X+1383029Y+53355D01*
X+1383029Y-53355D01*
X+1323355Y-113029D01*
X+1216645Y-113029D01*
X+1156971Y-53355D01*
X+1156971Y+60945D01*
X+1055371Y+162545D01*
X+1055371Y+546376D01*
X+1052829Y+546376D01*
X+1052829Y+129555D01*
X+1129029Y+53355D01*
X+1129029Y-53355D01*
X+1069355Y-113029D01*
X+962645Y-113029D01*
X+902971Y-53355D01*
X+902971Y+53355D01*
X+979171Y+129555D01*
X+979171Y+534645D01*
X+967440Y+546376D01*
X+907416Y+546376D01*
X+907416Y+806724D01*
X+1022984Y+806724D01*
X+1022984Y+595000D01*
X+1034416Y+583568D01*
X+1034416Y+806724D01*
X+1149984Y+806724D01*
X+1149984Y+546376D01*
X+1276984Y+546376D02*
X+1256029Y+546376D01*
X+1256029Y+320055D01*
X+1463055Y+113029D01*
X+1577355Y+113029D01*
X+1637029Y+53355D01*
X+1637029Y-53355D01*
X+1577355Y-113029D01*
X+1470645Y-113029D01*
X+1410971Y-53355D01*
X+1410971Y+60945D01*
X+1182371Y+289545D01*
X+1182371Y+546376D01*
X+1161416Y+546376D01*
X+1161416Y+806724D01*
X+1276984Y+806724D01*
X+1276984Y+546376D01*
X+1403984Y+546376D02*
X+1383029Y+546376D01*
X+1383029Y+447055D01*
X+1717055Y+113029D01*
X+1831355Y+113029D01*
X+1891029Y+53355D01*
X+1891029Y-53355D01*
X+1831355Y-113029D01*
X+1724645Y-113029D01*
X+1664971Y-53355D01*
X+1664971Y+60945D01*
X+1309371Y+416545D01*
X+1309371Y+546376D01*
X+1288416Y+546376D01*
X+1288416Y+806724D01*
X+1403984Y+806724D01*
X+1403984Y+546376D01*
X+1784984Y+546376D02*
X+1764029Y+546376D01*
X+1764029Y+372077D01*
X+1986298Y+149808D01*
X+2188276Y+149808D01*
X+2225055Y+113029D01*
X+2339355Y+113029D01*
X+2399029Y+53355D01*
X+2399029Y-53355D01*
X+2339355Y-113029D01*
X+2232645Y-113029D01*
X+2172971Y-53355D01*
X+2172971Y+60945D01*
X+2157766Y+76150D01*
X+2122234Y+76150D01*
X+2145029Y+53355D01*
X+2145029Y-53355D01*
X+2085355Y-113029D01*
X+1978645Y-113029D01*
X+1918971Y-53355D01*
X+1918971Y+60945D01*
X+1653634Y+326282D01*
X+1653634Y+491382D01*
X+1626779Y+518237D01*
X+1626779Y+481395D01*
X+1592505Y+447121D01*
X+1536595Y+447121D01*
X+1502321Y+481395D01*
X+1502321Y+519495D01*
X+1475440Y+546376D01*
X+1415416Y+546376D01*
X+1415416Y+806724D01*
X+1530984Y+806724D01*
X+1530984Y+595000D01*
X+1542416Y+583568D01*
X+1542416Y+806724D01*
X+1657984Y+806724D01*
X+1657984Y+591200D01*
X+1669416Y+579768D01*
X+1669416Y+806724D01*
X+1784984Y+806724D01*
X+1784984Y+546376D01*
X+1878965Y+686808D02*
X+1878965Y+666292D01*
X+1864458Y+651785D01*
X+1843942Y+651785D01*
X+1829435Y+666292D01*
X+1829435Y+686808D01*
X+1843942Y+701315D01*
X+1864458Y+701315D01*
X+1878965Y+686808D01*
X+3064645Y+1198475D02*
X+3056755Y+1198475D01*
X+3051175Y+1204055D01*
X+3051175Y+1211945D01*
X+3056755Y+1217525D01*
X+3064645Y+1217525D01*
X+3070225Y+1211945D01*
X+3070225Y+1204055D01*
X+3064645Y+1198475D01*
X+3064645Y+1263475D02*
X+3056755Y+1263475D01*
X+3051175Y+1269055D01*
X+3051175Y+1276945D01*
X+3056755Y+1282525D01*
X+3064645Y+1282525D01*
X+3070225Y+1276945D01*
X+3070225Y+1269055D01*
X+3064645Y+1263475D01*
X+3100465Y+1488258D02*
X+3100465Y+1467742D01*
X+3085958Y+1453235D01*
X+3065442Y+1453235D01*
X+3050935Y+1467742D01*
X+3050935Y+1488258D01*
X+3065442Y+1502765D01*
X+3085958Y+1502765D01*
X+3100465Y+1488258D01*
X+3100465Y+818258D02*
X+3100465Y+797742D01*
X+3085958Y+783235D01*
X+3065442Y+783235D01*
X+3050935Y+797742D01*
X+3050935Y+818258D01*
X+3065442Y+832765D01*
X+3085958Y+832765D01*
X+3100465Y+818258D01*
X+3345465Y+758258D02*
X+3345465Y+737742D01*
X+3330958Y+723235D01*
X+3310442Y+723235D01*
X+3295935Y+737742D01*
X+3295935Y+758258D01*
X+3310442Y+772765D01*
X+3330958Y+772765D01*
X+3345465Y+758258D01*
X+3345465Y+1548258D02*
X+3345465Y+1527742D01*
X+3330958Y+1513235D01*
X+3310442Y+1513235D01*
X+3295935Y+1527742D01*
X+3295935Y+1548258D01*
X+3310442Y+1562765D01*
X+3330958Y+1562765D01*
X+3345465Y+1548258D01*
X+2430275Y+1226555D02*
X+2430275Y+1234445D01*
X+2435855Y+1240025D01*
X+2443745Y+1240025D01*
X+2449325Y+1234445D01*
X+2449325Y+1226555D01*
X+2443745Y+1220975D01*
X+2435855Y+1220975D01*
X+2430275Y+1226555D01*
X+2902325Y+1752195D02*
X+2902325Y+1744305D01*
X+2896745Y+1738725D01*
X+2888855Y+1738725D01*
X+2883275Y+1744305D01*
X+2883275Y+1752195D01*
X+2888855Y+1757775D01*
X+2896745Y+1757775D01*
X+2902325Y+1752195D01*
X+3362325Y+1752195D02*
X+3362325Y+1744305D01*
X+3356745Y+1738725D01*
X+3348855Y+1738725D01*
X+3343275Y+1744305D01*
X+3343275Y+1752195D01*
X+3348855Y+1757775D01*
X+3356745Y+1757775D01*
X+3362325Y+1752195D01*
X+158565Y+347058D02*
X+158565Y+326542D01*
X+144058Y+312035D01*
X+123542Y+312035D01*
X+109035Y+326542D01*
X+109035Y+347058D01*
X+123542Y+361565D01*
X+144058Y+361565D01*
X+158565Y+347058D01*
X-51435Y+1077058D02*
X-51435Y+1056542D01*
X-65942Y+1042035D01*
X-86458Y+1042035D01*
X-100965Y+1056542D01*
X-100965Y+1077058D01*
X-86458Y+1091565D01*
X-65942Y+1091565D01*
X-51435Y+1077058D01*
X+158565Y+1077058D02*
X+158565Y+1056542D01*
X+144058Y+1042035D01*
X+123542Y+1042035D01*
X+109035Y+1056542D01*
X+109035Y+1077058D01*
X+123542Y+1091565D01*
X+144058Y+1091565D01*
X+158565Y+1077058D01*
X-51435Y+347058D02*
X-51435Y+326542D01*
X-65942Y+312035D01*
X-86458Y+312035D01*
X-100965Y+326542D01*
X-100965Y+347058D01*
X-86458Y+361565D01*
X-65942Y+361565D01*
X-51435Y+347058D01*
X+350492Y+984592D02*
X+380329Y+954755D01*
X+380329Y+898845D01*
X+339705Y+858221D01*
X+118695Y+858221D01*
X+112420Y+864496D01*
X+101496Y+864496D01*
X+101496Y+875420D01*
X+97121Y+879795D01*
X+97121Y+973805D01*
X+101496Y+978180D01*
X+101496Y+989104D01*
X+112420Y+989104D01*
X+118695Y+995379D01*
X+339705Y+995379D01*
X+350492Y+984592D01*
X+434955Y+689029D02*
X+469229Y+654755D01*
X+469229Y+598845D01*
X+428605Y+558221D01*
X+118695Y+558221D01*
X+112420Y+564496D01*
X+101496Y+564496D01*
X+101496Y+575420D01*
X+97121Y+579795D01*
X+97121Y+673805D01*
X+101496Y+678180D01*
X+101496Y+689104D01*
X+112420Y+689104D01*
X+118695Y+695379D01*
X+428605Y+695379D01*
X+434955Y+689029D01*
X+350492Y+534592D02*
X+380329Y+504755D01*
X+380329Y+448845D01*
X+339705Y+408221D01*
X+118695Y+408221D01*
X+112420Y+414496D01*
X+101496Y+414496D01*
X+101496Y+425420D01*
X+97121Y+429795D01*
X+97121Y+523805D01*
X+101496Y+528180D01*
X+101496Y+539104D01*
X+112420Y+539104D01*
X+118695Y+545379D01*
X+339705Y+545379D01*
X+350492Y+534592D01*
X+2613275Y+1654595D02*
X+2613275Y+1646705D01*
X+2607695Y+1641125D01*
X+2599805Y+1641125D01*
X+2594225Y+1646705D01*
X+2594225Y+1654595D01*
X+2599805Y+1660175D01*
X+2607695Y+1660175D01*
X+2613275Y+1654595D01*
X+3135475Y+2269628D02*
X+3135475Y+2302372D01*
X+3158628Y+2325525D01*
X+3191372Y+2325525D01*
X+3214525Y+2302372D01*
X+3214525Y+2269628D01*
X+3191372Y+2246475D01*
X+3158628Y+2246475D01*
X+3135475Y+2269628D01*
X+3383915Y+173858D02*
X+3383915Y+153342D01*
X+3369408Y+138835D01*
X+3348892Y+138835D01*
X+3334385Y+153342D01*
X+3334385Y+173858D01*
X+3348892Y+188365D01*
X+3369408Y+188365D01*
X+3383915Y+173858D01*
X+2888615Y+1400908D02*
X+2888615Y+1380392D01*
X+2874108Y+1365885D01*
X+2853592Y+1365885D01*
X+2839085Y+1380392D01*
X+2839085Y+1400908D01*
X+2853592Y+1415415D01*
X+2874108Y+1415415D01*
X+2888615Y+1400908D01*
X+2717165Y+790058D02*
X+2717165Y+769542D01*
X+2702658Y+755035D01*
X+2682142Y+755035D01*
X+2667635Y+769542D01*
X+2667635Y+790058D01*
X+2682142Y+804565D01*
X+2702658Y+804565D01*
X+2717165Y+790058D01*
X+2347095Y+1541125D02*
X+2339205Y+1541125D01*
X+2333625Y+1546705D01*
X+2333625Y+1554595D01*
X+2339205Y+1560175D01*
X+2347095Y+1560175D01*
X+2352675Y+1554595D01*
X+2352675Y+1546705D01*
X+2347095Y+1541125D01*
X+2035945Y+1362075D02*
X+2028055Y+1362075D01*
X+2022475Y+1367655D01*
X+2022475Y+1375545D01*
X+2028055Y+1381125D01*
X+2035945Y+1381125D01*
X+2041525Y+1375545D01*
X+2041525Y+1367655D01*
X+2035945Y+1362075D01*
X+2028055Y+1704975D02*
X+2035945Y+1704975D01*
X+2041525Y+1699395D01*
X+2041525Y+1691505D01*
X+2035945Y+1685925D01*
X+2028055Y+1685925D01*
X+2022475Y+1691505D01*
X+2022475Y+1699395D01*
X+2028055Y+1704975D01*
X+2781935Y+1230992D02*
X+2781935Y+1251508D01*
X+2796442Y+1266015D01*
X+2816958Y+1266015D01*
X+2831465Y+1251508D01*
X+2831465Y+1230992D01*
X+2816958Y+1216485D01*
X+2796442Y+1216485D01*
X+2781935Y+1230992D01*
X+2375535Y+1767742D02*
X+2375535Y+1788258D01*
X+2390042Y+1802765D01*
X+2410558Y+1802765D01*
X+2425065Y+1788258D01*
X+2425065Y+1767742D01*
X+2410558Y+1753235D01*
X+2390042Y+1753235D01*
X+2375535Y+1767742D01*
X+2121535Y+1767742D02*
X+2121535Y+1788258D01*
X+2136042Y+1802765D01*
X+2156558Y+1802765D01*
X+2171065Y+1788258D01*
X+2171065Y+1767742D01*
X+2156558Y+1753235D01*
X+2136042Y+1753235D01*
X+2121535Y+1767742D01*
X+1613535Y+1767742D02*
X+1613535Y+1788258D01*
X+1628042Y+1802765D01*
X+1648558Y+1802765D01*
X+1663065Y+1788258D01*
X+1663065Y+1767742D01*
X+1648558Y+1753235D01*
X+1628042Y+1753235D01*
X+1613535Y+1767742D01*
X+889635Y+1259742D02*
X+889635Y+1280258D01*
X+904142Y+1294765D01*
X+924658Y+1294765D01*
X+939165Y+1280258D01*
X+939165Y+1259742D01*
X+924658Y+1245235D01*
X+904142Y+1245235D01*
X+889635Y+1259742D01*
X+635635Y+1005742D02*
X+635635Y+1026258D01*
X+650142Y+1040765D01*
X+670658Y+1040765D01*
X+685165Y+1026258D01*
X+685165Y+1005742D01*
X+670658Y+991235D01*
X+650142Y+991235D01*
X+635635Y+1005742D01*
X+381635Y+751742D02*
X+381635Y+772258D01*
X+396142Y+786765D01*
X+416658Y+786765D01*
X+431165Y+772258D01*
X+431165Y+751742D01*
X+416658Y+737235D01*
X+396142Y+737235D01*
X+381635Y+751742D01*
X+1397635Y+1259742D02*
X+1397635Y+1280258D01*
X+1412142Y+1294765D01*
X+1432658Y+1294765D01*
X+1447165Y+1280258D01*
X+1447165Y+1259742D01*
X+1432658Y+1245235D01*
X+1412142Y+1245235D01*
X+1397635Y+1259742D01*
X+1143635Y+1005742D02*
X+1143635Y+1026258D01*
X+1158142Y+1040765D01*
X+1178658Y+1040765D01*
X+1193165Y+1026258D01*
X+1193165Y+1005742D01*
X+1178658Y+991235D01*
X+1158142Y+991235D01*
X+1143635Y+1005742D01*
X+1651635Y+1005742D02*
X+1651635Y+1026258D01*
X+1666142Y+1040765D01*
X+1686658Y+1040765D01*
X+1701165Y+1026258D01*
X+1701165Y+1005742D01*
X+1686658Y+991235D01*
X+1666142Y+991235D01*
X+1651635Y+1005742D01*
X+1918335Y+218342D02*
X+1918335Y+238858D01*
X+1932842Y+253365D01*
X+1953358Y+253365D01*
X+1967865Y+238858D01*
X+1967865Y+218342D01*
X+1953358Y+203835D01*
X+1932842Y+203835D01*
X+1918335Y+218342D01*
X+1651635Y+243742D02*
X+1651635Y+264258D01*
X+1666142Y+278765D01*
X+1686658Y+278765D01*
X+1701165Y+264258D01*
X+1701165Y+243742D01*
X+1686658Y+229235D01*
X+1666142Y+229235D01*
X+1651635Y+243742D01*
X+1397635Y+243742D02*
X+1397635Y+264258D01*
X+1412142Y+278765D01*
X+1432658Y+278765D01*
X+1447165Y+264258D01*
X+1447165Y+243742D01*
X+1432658Y+229235D01*
X+1412142Y+229235D01*
X+1397635Y+243742D01*
X+1143635Y+243742D02*
X+1143635Y+264258D01*
X+1158142Y+278765D01*
X+1178658Y+278765D01*
X+1193165Y+264258D01*
X+1193165Y+243742D01*
X+1178658Y+229235D01*
X+1158142Y+229235D01*
X+1143635Y+243742D01*
X+889635Y+243742D02*
X+889635Y+264258D01*
X+904142Y+278765D01*
X+924658Y+278765D01*
X+939165Y+264258D01*
X+939165Y+243742D01*
X+924658Y+229235D01*
X+904142Y+229235D01*
X+889635Y+243742D01*
X+622935Y+243742D02*
X+622935Y+264258D01*
X+637442Y+278765D01*
X+657958Y+278765D01*
X+672465Y+264258D01*
X+672465Y+243742D01*
X+657958Y+229235D01*
X+637442Y+229235D01*
X+622935Y+243742D01*
X+2921635Y-10258D02*
X+2921635Y+10258D01*
X+2936142Y+24765D01*
X+2956658Y+24765D01*
X+2971165Y+10258D01*
X+2971165Y-10258D01*
X+2956658Y-24765D01*
X+2936142Y-24765D01*
X+2921635Y-10258D01*
X+2707073Y+1772754D02*
X+2707073Y+1793270D01*
X+2721580Y+1807777D01*
X+2742096Y+1807777D01*
X+2756603Y+1793270D01*
X+2756603Y+1772754D01*
X+2742096Y+1758247D01*
X+2721580Y+1758247D01*
X+2707073Y+1772754D01*
X+3175635Y+1767742D02*
X+3175635Y+1788258D01*
X+3190142Y+1802765D01*
X+3210658Y+1802765D01*
X+3225165Y+1788258D01*
X+3225165Y+1767742D01*
X+3210658Y+1753235D01*
X+3190142Y+1753235D01*
X+3175635Y+1767742D01*
X+2007235Y+2021742D02*
X+2007235Y+2042258D01*
X+2021742Y+2056765D01*
X+2042258Y+2056765D01*
X+2056765Y+2042258D01*
X+2056765Y+2021742D01*
X+2042258Y+2007235D01*
X+2021742Y+2007235D01*
X+2007235Y+2021742D01*
X+991235Y+2021742D02*
X+991235Y+2042258D01*
X+1005742Y+2056765D01*
X+1026258Y+2056765D01*
X+1040765Y+2042258D01*
X+1040765Y+2021742D01*
X+1026258Y+2007235D01*
X+1005742Y+2007235D01*
X+991235Y+2021742D01*
X+229235Y+2021742D02*
X+229235Y+2042258D01*
X+243742Y+2056765D01*
X+264258Y+2056765D01*
X+278765Y+2042258D01*
X+278765Y+2021742D01*
X+264258Y+2007235D01*
X+243742Y+2007235D01*
X+229235Y+2021742D01*
X+483235Y+2021742D02*
X+483235Y+2042258D01*
X+497742Y+2056765D01*
X+518258Y+2056765D01*
X+532765Y+2042258D01*
X+532765Y+2021742D01*
X+518258Y+2007235D01*
X+497742Y+2007235D01*
X+483235Y+2021742D01*
X+737235Y+2021742D02*
X+737235Y+2042258D01*
X+751742Y+2056765D01*
X+772258Y+2056765D01*
X+786765Y+2042258D01*
X+786765Y+2021742D01*
X+772258Y+2007235D01*
X+751742Y+2007235D01*
X+737235Y+2021742D01*
X+229235Y+1513742D02*
X+229235Y+1534258D01*
X+243742Y+1548765D01*
X+264258Y+1548765D01*
X+278765Y+1534258D01*
X+278765Y+1513742D01*
X+264258Y+1499235D01*
X+243742Y+1499235D01*
X+229235Y+1513742D01*
X+483235Y+1767742D02*
X+483235Y+1788258D01*
X+497742Y+1802765D01*
X+518258Y+1802765D01*
X+532765Y+1788258D01*
X+532765Y+1767742D01*
X+518258Y+1753235D01*
X+497742Y+1753235D01*
X+483235Y+1767742D01*
X+483235Y+1259742D02*
X+483235Y+1280258D01*
X+497742Y+1294765D01*
X+518258Y+1294765D01*
X+532765Y+1280258D01*
X+532765Y+1259742D01*
X+518258Y+1245235D01*
X+497742Y+1245235D01*
X+483235Y+1259742D01*
X+1913496Y+1399920D02*
X+1913496Y+1313179D01*
X+1896095Y+1313179D01*
X+1861821Y+1278905D01*
X+1861821Y+1233279D01*
X+1827529Y+1267571D01*
X+1827529Y+1476376D01*
X+1837040Y+1476376D01*
X+1913496Y+1399920D01*
X+1842135Y+1361342D02*
X+1842135Y+1381858D01*
X+1856642Y+1396365D01*
X+1877158Y+1396365D01*
X+1891665Y+1381858D01*
X+1891665Y+1361342D01*
X+1877158Y+1346835D01*
X+1856642Y+1346835D01*
X+1842135Y+1361342D01*
X+2640296Y+563570D02*
X+2640296Y+563529D01*
X+2598421Y+521654D01*
X+2598421Y+383555D01*
X+2587666Y+372800D01*
X+2568037Y+392429D01*
X+2512127Y+392429D01*
X+2477853Y+358155D01*
X+2477853Y+302245D01*
X+2512127Y+267971D01*
X+2550145Y+267971D01*
X+2586885Y+231231D01*
X+2665743Y+231231D01*
X+2665774Y+231200D01*
X+2720356Y+231200D01*
X+2720387Y+231231D01*
X+2830834Y+231231D01*
X+2900679Y+301076D01*
X+2900679Y+402396D01*
X+2928654Y+402396D01*
X+2928654Y+497462D01*
X+2931145Y+494971D01*
X+2964146Y+494971D01*
X+2964146Y+402396D01*
X+2985562Y+402396D01*
X+2966721Y+383555D01*
X+2966721Y+356654D01*
X+2943746Y+356654D01*
X+2943746Y+237046D01*
X+3148354Y+237046D01*
X+3148354Y+304570D01*
X+3230879Y+387095D01*
X+3230879Y+402396D01*
X+3248571Y+402396D01*
X+3248571Y+224997D01*
X+3173403Y+149829D01*
X+2748221Y+149829D01*
X+2708238Y+189812D01*
X+2548322Y+189812D01*
X+2506979Y+231155D01*
X+2506979Y+269255D01*
X+2472705Y+303529D01*
X+2416795Y+303529D01*
X+2382521Y+269255D01*
X+2382521Y+261595D01*
X+2298904Y+345212D01*
X+2298904Y+596020D01*
X+2324304Y+621420D01*
X+2324304Y+677330D01*
X+2303059Y+698575D01*
X+2317650Y+713166D01*
X+2346845Y+683971D01*
X+2402755Y+683971D01*
X+2437029Y+718245D01*
X+2437029Y+766837D01*
X+2640296Y+563570D01*
X+3084605Y+201375D02*
X+3092495Y+201375D01*
X+3098075Y+195795D01*
X+3098075Y+187905D01*
X+3092495Y+182325D01*
X+3084605Y+182325D01*
X+3079025Y+187905D01*
X+3079025Y+195795D01*
X+3084605Y+201375D01*
X+2999605Y+201375D02*
X+3007495Y+201375D01*
X+3013075Y+195795D01*
X+3013075Y+187905D01*
X+3007495Y+182325D01*
X+2999605Y+182325D01*
X+2994025Y+187905D01*
X+2994025Y+195795D01*
X+2999605Y+201375D01*
X+3152685Y+181592D02*
X+3152685Y+202108D01*
X+3167192Y+216615D01*
X+3187708Y+216615D01*
X+3202215Y+202108D01*
X+3202215Y+181592D01*
X+3187708Y+167085D01*
X+3167192Y+167085D01*
X+3152685Y+181592D01*
X+2413635Y+497742D02*
X+2413635Y+518258D01*
X+2428142Y+532765D01*
X+2448658Y+532765D01*
X+2463165Y+518258D01*
X+2463165Y+497742D01*
X+2448658Y+483235D01*
X+2428142Y+483235D01*
X+2413635Y+497742D01*
X+2228975Y+2286000D02*
X+2286000Y+2286000D01*
X+2343025Y+2286000D02*
X+2286000Y+2286000D01*
X+2286000Y+2228975D02*
X+2286000Y+2286000D01*
X+2286000Y+2343025D02*
X+2286000Y+2286000D01*
X+1720975Y+2286000D02*
X+1778000Y+2286000D01*
X+1835025Y+2286000D02*
X+1778000Y+2286000D01*
X+1778000Y+2228975D02*
X+1778000Y+2286000D01*
X+1778000Y+2343025D02*
X+1778000Y+2286000D01*
X+1085975Y+2286000D02*
X+1143000Y+2286000D01*
X+1200025Y+2286000D02*
X+1143000Y+2286000D01*
X+1143000Y+2228975D02*
X+1143000Y+2286000D01*
X+1143000Y+2343025D02*
X+1143000Y+2286000D01*
X+2228975Y+2286000D02*
X+2286000Y+2286000D01*
X+2343025Y+2286000D02*
X+2286000Y+2286000D01*
X+2286000Y+2228975D02*
X+2286000Y+2286000D01*
X+2286000Y+2343025D02*
X+2286000Y+2286000D01*
X+1720975Y+2286000D02*
X+1778000Y+2286000D01*
X+1835025Y+2286000D02*
X+1778000Y+2286000D01*
X+1778000Y+2228975D02*
X+1778000Y+2286000D01*
X+1778000Y+2343025D02*
X+1778000Y+2286000D01*
X+1085975Y+2286000D02*
X+1143000Y+2286000D01*
X+1200025Y+2286000D02*
X+1143000Y+2286000D01*
X+1143000Y+2228975D02*
X+1143000Y+2286000D01*
X+1143000Y+2343025D02*
X+1143000Y+2286000D01*
X+3060700Y+1198475D02*
X+3060700Y+1208000D01*
X+3060700Y+1217525D02*
X+3060700Y+1208000D01*
X+3070225Y+1208000D02*
X+3060700Y+1208000D01*
X+3051175Y+1208000D02*
X+3060700Y+1208000D01*
X+3060700Y+1263475D02*
X+3060700Y+1273000D01*
X+3060700Y+1282525D02*
X+3060700Y+1273000D01*
X+3070225Y+1273000D02*
X+3060700Y+1273000D01*
X+3051175Y+1273000D02*
X+3060700Y+1273000D01*
X+2430275Y+1230500D02*
X+2439800Y+1230500D01*
X+2449325Y+1230500D02*
X+2439800Y+1230500D01*
X+2439800Y+1220975D02*
X+2439800Y+1230500D01*
X+2439800Y+1240025D02*
X+2439800Y+1230500D01*
X+2902325Y+1748250D02*
X+2892800Y+1748250D01*
X+2883275Y+1748250D02*
X+2892800Y+1748250D01*
X+2892800Y+1757775D02*
X+2892800Y+1748250D01*
X+2892800Y+1738725D02*
X+2892800Y+1748250D01*
X+3362325Y+1748250D02*
X+3352800Y+1748250D01*
X+3343275Y+1748250D02*
X+3352800Y+1748250D01*
X+3352800Y+1757775D02*
X+3352800Y+1748250D01*
X+3352800Y+1738725D02*
X+3352800Y+1748250D01*
X+2613275Y+1650650D02*
X+2603750Y+1650650D01*
X+2594225Y+1650650D02*
X+2603750Y+1650650D01*
X+2603750Y+1660175D02*
X+2603750Y+1650650D01*
X+2603750Y+1641125D02*
X+2603750Y+1650650D01*
X+3135475Y+2286000D02*
X+3175000Y+2286000D01*
X+3214525Y+2286000D02*
X+3175000Y+2286000D01*
X+3175000Y+2246475D02*
X+3175000Y+2286000D01*
X+3175000Y+2325525D02*
X+3175000Y+2286000D01*
X+3088550Y+201375D02*
X+3088550Y+191850D01*
X+3088550Y+182325D02*
X+3088550Y+191850D01*
X+3079025Y+191850D02*
X+3088550Y+191850D01*
X+3098075Y+191850D02*
X+3088550Y+191850D01*
X+3003550Y+201375D02*
X+3003550Y+191850D01*
X+3003550Y+182325D02*
X+3003550Y+191850D01*
X+2994025Y+191850D02*
X+3003550Y+191850D01*
X+3013075Y+191850D02*
X+3003550Y+191850D01*
X+2343150Y+1541125D02*
X+2343150Y+1550650D01*
X+2343150Y+1560175D02*
X+2343150Y+1550650D01*
X+2352675Y+1550650D02*
X+2343150Y+1550650D01*
X+2333625Y+1550650D02*
X+2343150Y+1550650D01*
X+2032000Y+1362075D02*
X+2032000Y+1371600D01*
X+2032000Y+1381125D02*
X+2032000Y+1371600D01*
X+2041525Y+1371600D02*
X+2032000Y+1371600D01*
X+2022475Y+1371600D02*
X+2032000Y+1371600D01*
X+2032000Y+1704975D02*
X+2032000Y+1695450D01*
X+2032000Y+1685925D02*
X+2032000Y+1695450D01*
X+2022475Y+1695450D02*
X+2032000Y+1695450D01*
X+2041525Y+1695450D02*
X+2032000Y+1695450D01*
D16*
X+2540000Y+2286000D03*
X+2286000Y+2286000D03*
X+2032000Y+2286000D03*
X+1778000Y+2286000D03*
X+1524000Y+2286000D03*
X+1143000Y+2286000D03*
X+889000Y+2286000D03*
X+635000Y+2286000D03*
X+381000Y+2286000D03*
X+127000Y+2286000D03*
X+0Y+0D03*
X+254000Y+0D03*
X+508000Y+0D03*
X+762000Y+0D03*
X+1016000Y+0D03*
X+1270000Y+0D03*
X+1524000Y+0D03*
X+1778000Y+0D03*
X+2032000Y+0D03*
X+2286000Y+0D03*
X+2540000Y+0D03*
X+2794000Y+0D03*
X+2540000Y+2286000D03*
X+2286000Y+2286000D03*
X+2032000Y+2286000D03*
X+1778000Y+2286000D03*
X+1524000Y+2286000D03*
X+1143000Y+2286000D03*
X+889000Y+2286000D03*
X+635000Y+2286000D03*
X+381000Y+2286000D03*
X+127000Y+2286000D03*
X+0Y+0D03*
X+254000Y+0D03*
X+508000Y+0D03*
X+762000Y+0D03*
X+1016000Y+0D03*
X+1270000Y+0D03*
X+1524000Y+0D03*
X+1778000Y+0D03*
X+2032000Y+0D03*
X+2286000Y+0D03*
X+2540000Y+0D03*
X+2794000Y+0D03*
D17*
X+1854200Y+1606550D03*
X+1727200Y+1606550D03*
X+1600200Y+1606550D03*
X+1473200Y+1606550D03*
X+1346200Y+1606550D03*
X+1219200Y+1606550D03*
X+1092200Y+1606550D03*
X+965200Y+1606550D03*
X+838200Y+1606550D03*
X+711200Y+1606550D03*
X+711200Y+676550D03*
X+838200Y+676550D03*
X+965200Y+676550D03*
X+1092200Y+676550D03*
X+1219200Y+676550D03*
X+1346200Y+676550D03*
X+1473200Y+676550D03*
X+1600200Y+676550D03*
X+1727200Y+676550D03*
X+1854200Y+676550D03*
D18*
X+3060700Y+1013000D03*
X+3060700Y+1078000D03*
X+3060700Y+1143000D03*
X+3060700Y+1208000D03*
X+3060700Y+1273000D03*
D19*
X+3075700Y+1478000D03*
X+3075700Y+808000D03*
D70*
X+3320700Y+748000D03*
X+3320700Y+1538000D03*
D71*
X+2157300Y+1143000D03*
X+2157300Y+1078000D03*
X+2157300Y+1013000D03*
X+2157300Y+948000D03*
D20*
X+2244800Y+860500D03*
X+2309800Y+860500D03*
X+2374800Y+860500D03*
X+2439800Y+860500D03*
D71*
X+2527300Y+948000D03*
X+2527300Y+1013000D03*
X+2527300Y+1078000D03*
X+2527300Y+1143000D03*
D20*
X+2439800Y+1230500D03*
X+2374800Y+1230500D03*
X+2309800Y+1230500D03*
X+2244800Y+1230500D03*
D70*
X+2342300Y+1045500D03*
D21*
X+3352800Y+1973250D03*
X+2892800Y+1973250D03*
X+2892800Y+1748250D03*
X+3352800Y+1748250D03*
D22*
X+133800Y+336800D03*
X-76200Y+1066800D03*
X+133800Y+1066800D03*
X-76200Y+336800D03*
D23*
X+203800Y+926800D03*
X+203800Y+626800D03*
X+203800Y+476800D03*
D24*
X+2698750Y+1650650D03*
X+2603750Y+1650650D03*
X+2508750Y+1650650D03*
X+2508750Y+1390650D03*
X+2698750Y+1390650D03*
D25*
X+2794000Y+2286000D03*
D26*
X+2794000Y+2159000D03*
X+2921000Y+2286000D03*
X+2921000Y+2159000D03*
X+3048000Y+2286000D03*
X+3048000Y+2159000D03*
X+3175000Y+2286000D03*
X+3175000Y+2159000D03*
D27*
X+3088550Y+296850D03*
X+3088550Y+191850D03*
X+3003550Y+296850D03*
X+3003550Y+191850D03*
D28*
X+3359150Y+328600D03*
X+3359150Y+163600D03*
D29*
X+3194050Y+457200D03*
X+3194050Y+557200D03*
X+3028950Y+557200D03*
X+3028950Y+457200D03*
X+2190750Y+1471600D03*
X+2190750Y+1371600D03*
D72*
X+2857500Y+936800D03*
X+2857500Y+776800D03*
X+2863850Y+1550650D03*
X+2863850Y+1390650D03*
X+2692400Y+779800D03*
X+2692400Y+939800D03*
D29*
X+3359150Y+557200D03*
X+3359150Y+457200D03*
D72*
X+2343150Y+1390650D03*
X+2343150Y+1550650D03*
D29*
X+2032000Y+1371600D03*
X+2032000Y+1471600D03*
X+2863850Y+457200D03*
X+2863850Y+557200D03*
X+2705100Y+457200D03*
X+2705100Y+557200D03*
X+2568950Y+1873250D03*
X+2568950Y+1973250D03*
X+2734050Y+1873250D03*
X+2734050Y+1973250D03*
X+2032000Y+1695450D03*
X+2032000Y+1595450D03*
D73*
X-152400Y-25400D02*
X-149873Y-51367D01*
X-142602Y-75381D01*
X-131052Y-96977D01*
X-115689Y-115689D01*
X-96977Y-131052D01*
X-75381Y-142602D01*
X-51367Y-149873D01*
X-25400Y-152400D01*
X+3429000Y-152400D01*
X+3454967Y-149873D01*
X+3478981Y-142602D01*
X+3500577Y-131052D01*
X+3519289Y-115689D01*
X+3534652Y-96977D01*
X+3546202Y-75381D01*
X+3553473Y-51367D01*
X+3556000Y-25400D01*
X+3556000Y+2311400D01*
X+3553473Y+2337367D01*
X+3546202Y+2361381D01*
X+3534652Y+2382977D01*
X+3519289Y+2401689D01*
X+3500577Y+2417052D01*
X+3478981Y+2428602D01*
X+3454967Y+2435873D01*
X+3429000Y+2438400D01*
X+101600Y+2438400D01*
X+75632Y+2435873D01*
X+51618Y+2428602D01*
X+30023Y+2417052D01*
X+11311Y+2401689D01*
X-4052Y+2382977D01*
X-15602Y+2361381D01*
X-22873Y+2337367D01*
X-25400Y+2311400D01*
X-25400Y+1574800D01*
X-152400Y+1447800D01*
X-152400Y-25400D01*
X+3492500Y-25400D02*
X+3492283Y-20153D01*
X+3490518Y-9658D01*
X+3486826Y+837D01*
X+3480798Y+11332D01*
X+3471576Y+21712D01*
X+3461081Y+29400D01*
X+3450586Y+34318D01*
X+3440091Y+37124D01*
X+3429596Y+38097D01*
X+3429000Y+38100D01*
X+3365500Y-25400D02*
X+3365717Y-20153D01*
X+3367482Y-9658D01*
X+3371174Y+837D01*
X+3377202Y+11332D01*
X+3386424Y+21712D01*
X+3396919Y+29400D01*
X+3407414Y+34318D01*
X+3417909Y+37124D01*
X+3428404Y+38097D01*
X+3429000Y+38100D01*
X+3365500Y-25400D02*
X+3365717Y-30647D01*
X+3367482Y-41142D01*
X+3371174Y-51637D01*
X+3377202Y-62132D01*
X+3386424Y-72512D01*
X+3396919Y-80200D01*
X+3407414Y-85118D01*
X+3417909Y-87924D01*
X+3428404Y-88897D01*
X+3429000Y-88900D01*
X+3492500Y-25400D02*
X+3492283Y-30647D01*
X+3490518Y-41142D01*
X+3486826Y-51637D01*
X+3480798Y-62132D01*
X+3471576Y-72512D01*
X+3461081Y-80200D01*
X+3450586Y-85118D01*
X+3440091Y-87924D01*
X+3429596Y-88897D01*
X+3429000Y-88900D01*
X+3492500Y+2311400D02*
X+3492283Y+2316647D01*
X+3490518Y+2327142D01*
X+3486826Y+2337637D01*
X+3480798Y+2348132D01*
X+3471576Y+2358512D01*
X+3461081Y+2366200D01*
X+3450586Y+2371118D01*
X+3440091Y+2373924D01*
X+3429596Y+2374897D01*
X+3429000Y+2374900D01*
X+3365500Y+2311400D02*
X+3365717Y+2316647D01*
X+3367482Y+2327142D01*
X+3371174Y+2337637D01*
X+3377202Y+2348132D01*
X+3386424Y+2358512D01*
X+3396919Y+2366200D01*
X+3407414Y+2371118D01*
X+3417909Y+2373924D01*
X+3428404Y+2374897D01*
X+3429000Y+2374900D01*
X+3365500Y+2311400D02*
X+3365717Y+2306153D01*
X+3367482Y+2295658D01*
X+3371174Y+2285163D01*
X+3377202Y+2274668D01*
X+3386424Y+2264288D01*
X+3396919Y+2256600D01*
X+3407414Y+2251682D01*
X+3417909Y+2248876D01*
X+3428404Y+2247903D01*
X+3429000Y+2247900D01*
X+3492500Y+2311400D02*
X+3492283Y+2306153D01*
X+3490518Y+2295658D01*
X+3486826Y+2285163D01*
X+3480798Y+2274668D01*
X+3471576Y+2264288D01*
X+3461081Y+2256600D01*
X+3450586Y+2251682D01*
X+3440091Y+2248876D01*
X+3429596Y+2247903D01*
X+3429000Y+2247900D01*
X+38100Y+1346200D02*
X+37883Y+1351447D01*
X+36118Y+1361942D01*
X+32426Y+1372437D01*
X+26398Y+1382932D01*
X+17176Y+1393312D01*
X+6681Y+1401000D01*
X-3814Y+1405918D01*
X-14309Y+1408724D01*
X-24804Y+1409697D01*
X-25400Y+1409700D01*
X-88900Y+1346200D02*
X-88683Y+1351447D01*
X-86918Y+1361942D01*
X-83226Y+1372437D01*
X-77198Y+1382932D01*
X-67976Y+1393312D01*
X-57481Y+1401000D01*
X-46986Y+1405918D01*
X-36491Y+1408724D01*
X-25996Y+1409697D01*
X-25400Y+1409700D01*
X-88900Y+1346200D02*
X-88683Y+1340953D01*
X-86918Y+1330458D01*
X-83226Y+1319963D01*
X-77198Y+1309468D01*
X-67976Y+1299088D01*
X-57481Y+1291400D01*
X-46986Y+1286482D01*
X-36491Y+1283676D01*
X-25996Y+1282703D01*
X-25400Y+1282700D01*
X+38100Y+1346200D02*
X+37883Y+1340953D01*
X+36118Y+1330458D01*
X+32426Y+1319963D01*
X+26398Y+1309468D01*
X+17176Y+1299088D01*
X+6681Y+1291400D01*
X-3814Y+1286482D01*
X-14309Y+1283676D01*
X-24804Y+1282703D01*
X-25400Y+1282700D01*
X+3135700Y+943000D02*
X+3135597Y+945489D01*
X+3134755Y+950469D01*
X+3132995Y+955449D01*
X+3130118Y+960429D01*
X+3125717Y+965345D01*
X+3120737Y+968959D01*
X+3115757Y+971264D01*
X+3110777Y+972567D01*
X+3105797Y+973000D01*
X+3105700Y+973000D01*
X+3075700Y+943000D02*
X+3075803Y+945489D01*
X+3076645Y+950469D01*
X+3078405Y+955449D01*
X+3081282Y+960429D01*
X+3085683Y+965345D01*
X+3090663Y+968959D01*
X+3095643Y+971264D01*
X+3100623Y+972567D01*
X+3105603Y+973000D01*
X+3105700Y+973000D01*
X+3075700Y+943000D02*
X+3075803Y+940511D01*
X+3076645Y+935531D01*
X+3078405Y+930551D01*
X+3081282Y+925571D01*
X+3085683Y+920655D01*
X+3090663Y+917041D01*
X+3095643Y+914736D01*
X+3100623Y+913433D01*
X+3105603Y+913000D01*
X+3105700Y+913000D01*
X+3135700Y+943000D02*
X+3135597Y+940511D01*
X+3134755Y+935531D01*
X+3132995Y+930551D01*
X+3130118Y+925571D01*
X+3125717Y+920655D01*
X+3120737Y+917041D01*
X+3115757Y+914736D01*
X+3110777Y+913433D01*
X+3105797Y+913000D01*
X+3105700Y+913000D01*
X+3135700Y+1343000D02*
X+3135597Y+1345489D01*
X+3134755Y+1350469D01*
X+3132995Y+1355449D01*
X+3130118Y+1360429D01*
X+3125717Y+1365345D01*
X+3120737Y+1368959D01*
X+3115757Y+1371264D01*
X+3110777Y+1372567D01*
X+3105797Y+1373000D01*
X+3105700Y+1373000D01*
X+3075700Y+1343000D02*
X+3075803Y+1345489D01*
X+3076645Y+1350469D01*
X+3078405Y+1355449D01*
X+3081282Y+1360429D01*
X+3085683Y+1365345D01*
X+3090663Y+1368959D01*
X+3095643Y+1371264D01*
X+3100623Y+1372567D01*
X+3105603Y+1373000D01*
X+3105700Y+1373000D01*
X+3075700Y+1343000D02*
X+3075803Y+1340511D01*
X+3076645Y+1335531D01*
X+3078405Y+1330551D01*
X+3081282Y+1325571D01*
X+3085683Y+1320655D01*
X+3090663Y+1317041D01*
X+3095643Y+1314736D01*
X+3100623Y+1313433D01*
X+3105603Y+1313000D01*
X+3105700Y+1313000D01*
X+3135700Y+1343000D02*
X+3135597Y+1340511D01*
X+3134755Y+1335531D01*
X+3132995Y+1330551D01*
X+3130118Y+1325571D01*
X+3125717Y+1320655D01*
X+3120737Y+1317041D01*
X+3115757Y+1314736D01*
X+3110777Y+1313433D01*
X+3105797Y+1313000D01*
X+3105700Y+1313000D01*
X+73800Y+551800D02*
X+73645Y+555527D01*
X+72389Y+562982D01*
X+69759Y+570437D01*
X+65463Y+577892D01*
X+58893Y+585258D01*
X+51438Y+590691D01*
X+43983Y+594161D01*
X+36528Y+596131D01*
X+29073Y+596799D01*
X+28800Y+596800D01*
X-16200Y+551800D02*
X-16045Y+555527D01*
X-14789Y+562982D01*
X-12159Y+570437D01*
X-7863Y+577892D01*
X-1293Y+585258D01*
X+6162Y+590691D01*
X+13617Y+594161D01*
X+21072Y+596131D01*
X+28527Y+596799D01*
X+28800Y+596800D01*
X-16200Y+551800D02*
X-16045Y+548073D01*
X-14789Y+540618D01*
X-12159Y+533163D01*
X-7863Y+525708D01*
X-1293Y+518342D01*
X+6162Y+512909D01*
X+13617Y+509439D01*
X+21072Y+507469D01*
X+28527Y+506801D01*
X+28800Y+506800D01*
X+73800Y+551800D02*
X+73645Y+548073D01*
X+72389Y+540618D01*
X+69759Y+533163D01*
X+65463Y+525708D01*
X+58893Y+518342D01*
X+51438Y+512909D01*
X+43983Y+509439D01*
X+36528Y+507469D01*
X+29073Y+506801D01*
X+28800Y+506800D01*
X+73800Y+851800D02*
X+73645Y+855527D01*
X+72389Y+862982D01*
X+69759Y+870437D01*
X+65463Y+877892D01*
X+58893Y+885258D01*
X+51438Y+890691D01*
X+43983Y+894161D01*
X+36528Y+896131D01*
X+29073Y+896799D01*
X+28800Y+896800D01*
X-16200Y+851800D02*
X-16045Y+855527D01*
X-14789Y+862982D01*
X-12159Y+870437D01*
X-7863Y+877892D01*
X-1293Y+885258D01*
X+6162Y+890691D01*
X+13617Y+894161D01*
X+21072Y+896131D01*
X+28527Y+896799D01*
X+28800Y+896800D01*
X-16200Y+851800D02*
X-16045Y+848073D01*
X-14789Y+840618D01*
X-12159Y+833163D01*
X-7863Y+825708D01*
X-1293Y+818342D01*
X+6162Y+812909D01*
X+13617Y+809439D01*
X+21072Y+807469D01*
X+28527Y+806801D01*
X+28800Y+806800D01*
X+73800Y+851800D02*
X+73645Y+848073D01*
X+72389Y+840618D01*
X+69759Y+833163D01*
X+65463Y+825708D01*
X+58893Y+818342D01*
X+51438Y+812909D01*
X+43983Y+809439D01*
X+36528Y+807469D01*
X+29073Y+806801D01*
X+28800Y+806800D01*
M02*
