G04 PROTEUS RS274X GERBER FILE*
%FSLAX45Y45*%
%MOMM*%
G01*
%ADD54C,0.127000*%
%ADD52C,0.025400*%
%ADD134C,0.063500*%
D54*
X+989350Y+2394700D02*
X+989350Y+2267700D01*
X+925850Y+2331200D02*
X+1052850Y+2331200D01*
X+944449Y+2376101D02*
X+1034251Y+2286299D01*
X+944449Y+2286299D02*
X+1034251Y+2376101D01*
X+989350Y+2750300D02*
X+989350Y+2623300D01*
X+925850Y+2686800D02*
X+1052850Y+2686800D01*
X+944449Y+2731701D02*
X+1034251Y+2641899D01*
X+944449Y+2641899D02*
X+1034251Y+2731701D01*
X+1263000Y+4340350D02*
X+1263000Y+4213350D01*
X+1199500Y+4276850D02*
X+1326500Y+4276850D01*
X+1218099Y+4321751D02*
X+1307901Y+4231949D01*
X+1218099Y+4231949D02*
X+1307901Y+4321751D01*
X+1672250Y+4644050D02*
X+1672250Y+4517050D01*
X+1608750Y+4580550D02*
X+1735750Y+4580550D01*
X+1627349Y+4625451D02*
X+1717151Y+4535649D01*
X+1627349Y+4535649D02*
X+1717151Y+4625451D01*
X+1367450Y+4339250D02*
X+1367450Y+4212250D01*
X+1303950Y+4275750D02*
X+1430950Y+4275750D01*
X+1322549Y+4320651D02*
X+1412351Y+4230849D01*
X+1322549Y+4230849D02*
X+1412351Y+4320651D01*
X+1596375Y+4813425D02*
X+1596375Y+4686425D01*
X+1532875Y+4749925D02*
X+1659875Y+4749925D01*
X+1551474Y+4794826D02*
X+1641276Y+4705024D01*
X+1551474Y+4705024D02*
X+1641276Y+4794826D01*
X+1953950Y+2289875D02*
X+1953950Y+2162875D01*
X+1890450Y+2226375D02*
X+2017450Y+2226375D01*
X+1909049Y+2271276D02*
X+1998851Y+2181474D01*
X+1909049Y+2181474D02*
X+1998851Y+2271276D01*
X+1953950Y+2194300D02*
X+1953950Y+2067300D01*
X+1890450Y+2130800D02*
X+2017450Y+2130800D01*
X+1909049Y+2175701D02*
X+1998851Y+2085899D01*
X+1909049Y+2085899D02*
X+1998851Y+2175701D01*
X+1953950Y+2099050D02*
X+1953950Y+1972050D01*
X+1890450Y+2035550D02*
X+2017450Y+2035550D01*
X+1909049Y+2080451D02*
X+1998851Y+1990649D01*
X+1909049Y+1990649D02*
X+1998851Y+2080451D01*
X+908050Y+4075450D02*
X+908050Y+3948450D01*
X+844550Y+4011950D02*
X+971550Y+4011950D01*
X+863149Y+4056851D02*
X+952951Y+3967049D01*
X+863149Y+3967049D02*
X+952951Y+4056851D01*
X+1499350Y+3325400D02*
X+1499350Y+3198400D01*
X+1435850Y+3261900D02*
X+1562850Y+3261900D01*
X+1454449Y+3306801D02*
X+1544251Y+3216999D01*
X+1454449Y+3216999D02*
X+1544251Y+3306801D01*
X+5153600Y+1682250D02*
X+5153600Y+1555250D01*
X+5090100Y+1618750D02*
X+5217100Y+1618750D01*
X+5108699Y+1663651D02*
X+5198501Y+1573849D01*
X+5108699Y+1573849D02*
X+5198501Y+1663651D01*
X+4842450Y+1682250D02*
X+4842450Y+1555250D01*
X+4778950Y+1618750D02*
X+4905950Y+1618750D01*
X+4797549Y+1663651D02*
X+4887351Y+1573849D01*
X+4797549Y+1573849D02*
X+4887351Y+1663651D01*
X+4412900Y+2570499D02*
X+4412900Y+2443499D01*
X+4349400Y+2506999D02*
X+4476400Y+2506999D01*
X+4367999Y+2551900D02*
X+4457801Y+2462098D01*
X+4367999Y+2462098D02*
X+4457801Y+2551900D01*
X+4412900Y+2446049D02*
X+4412900Y+2319049D01*
X+4349400Y+2382549D02*
X+4476400Y+2382549D01*
X+4367999Y+2427450D02*
X+4457801Y+2337648D01*
X+4367999Y+2337648D02*
X+4457801Y+2427450D01*
X+1620500Y+958950D02*
X+1620500Y+831950D01*
X+1557000Y+895450D02*
X+1684000Y+895450D01*
X+1575599Y+940351D02*
X+1665401Y+850549D01*
X+1575599Y+850549D02*
X+1665401Y+940351D01*
X+4724050Y+3013749D02*
X+4724050Y+2886749D01*
X+4660550Y+2950249D02*
X+4787550Y+2950249D01*
X+4679149Y+2995150D02*
X+4768951Y+2905348D01*
X+4679149Y+2905348D02*
X+4768951Y+2995150D01*
X+4821650Y+3554499D02*
X+4821650Y+3427499D01*
X+4758150Y+3490999D02*
X+4885150Y+3490999D01*
X+4776749Y+3535900D02*
X+4866551Y+3446098D01*
X+4776749Y+3446098D02*
X+4866551Y+3535900D01*
X+4901650Y+3446549D02*
X+4901650Y+3319549D01*
X+4838150Y+3383049D02*
X+4965150Y+3383049D01*
X+4856749Y+3427950D02*
X+4946551Y+3338148D01*
X+4856749Y+3338148D02*
X+4946551Y+3427950D01*
X+4064000Y+2978150D02*
X+4064000Y+2851150D01*
X+4000500Y+2914650D02*
X+4127500Y+2914650D01*
X+4019099Y+2959551D02*
X+4108901Y+2869749D01*
X+4019099Y+2869749D02*
X+4108901Y+2959551D01*
X+1933050Y+2560750D02*
X+1933050Y+2433750D01*
X+1869550Y+2497250D02*
X+1996550Y+2497250D01*
X+1888149Y+2542151D02*
X+1977951Y+2452349D01*
X+1888149Y+2452349D02*
X+1977951Y+2542151D01*
X+5018000Y+4089400D02*
X+5018000Y+3962400D01*
X+4954500Y+4025900D02*
X+5081500Y+4025900D01*
X+4973099Y+4070801D02*
X+5062901Y+3980999D01*
X+4973099Y+3980999D02*
X+5062901Y+4070801D01*
X+4064000Y+3822700D02*
X+4064000Y+3695700D01*
X+4000500Y+3759200D02*
X+4127500Y+3759200D01*
X+4019099Y+3804101D02*
X+4108901Y+3714299D01*
X+4019099Y+3714299D02*
X+4108901Y+3804101D01*
X+1948800Y+4554050D02*
X+1948800Y+4427050D01*
X+1885300Y+4490550D02*
X+2012300Y+4490550D01*
X+1903899Y+4535451D02*
X+1993701Y+4445649D01*
X+1903899Y+4445649D02*
X+1993701Y+4535451D01*
X+4787550Y+2858300D02*
X+4787550Y+2731300D01*
X+4724050Y+2794800D02*
X+4851050Y+2794800D01*
X+4742649Y+2839701D02*
X+4832451Y+2749899D01*
X+4742649Y+2749899D02*
X+4832451Y+2839701D01*
X+4229725Y+3137525D02*
X+4229725Y+3010525D01*
X+4166225Y+3074025D02*
X+4293225Y+3074025D01*
X+4184824Y+3118926D02*
X+4274626Y+3029124D01*
X+4184824Y+3029124D02*
X+4274626Y+3118926D01*
X+4224000Y+3308350D02*
X+4224000Y+3181350D01*
X+4160500Y+3244850D02*
X+4287500Y+3244850D01*
X+4179099Y+3289751D02*
X+4268901Y+3199949D01*
X+4179099Y+3199949D02*
X+4268901Y+3289751D01*
X+908050Y+4881900D02*
X+908050Y+4754900D01*
X+844550Y+4818400D02*
X+971550Y+4818400D01*
X+863149Y+4863301D02*
X+952951Y+4773499D01*
X+863149Y+4773499D02*
X+952951Y+4863301D01*
X+1948800Y+4724400D02*
X+1948800Y+4597400D01*
X+1885300Y+4660900D02*
X+2012300Y+4660900D01*
X+1903899Y+4705801D02*
X+1993701Y+4615999D01*
X+1903899Y+4615999D02*
X+1993701Y+4705801D01*
X+4143950Y+1682250D02*
X+4143950Y+1555250D01*
X+4080450Y+1618750D02*
X+4207450Y+1618750D01*
X+4099049Y+1663651D02*
X+4188851Y+1573849D01*
X+4099049Y+1573849D02*
X+4188851Y+1663651D01*
X+1541200Y+2099050D02*
X+1541200Y+1972050D01*
X+1477700Y+2035550D02*
X+1604700Y+2035550D01*
X+1496299Y+2080451D02*
X+1586101Y+1990649D01*
X+1496299Y+1990649D02*
X+1586101Y+2080451D01*
X+1666300Y+3181200D02*
X+1666300Y+3054200D01*
X+1602800Y+3117700D02*
X+1729800Y+3117700D01*
X+1621399Y+3162601D02*
X+1711201Y+3072799D01*
X+1621399Y+3072799D02*
X+1711201Y+3162601D01*
X+1541200Y+2560750D02*
X+1541200Y+2433750D01*
X+1477700Y+2497250D02*
X+1604700Y+2497250D01*
X+1496299Y+2542151D02*
X+1586101Y+2452349D01*
X+1496299Y+2452349D02*
X+1586101Y+2542151D01*
X+1996500Y+2494150D02*
X+1996500Y+2367150D01*
X+1933000Y+2430650D02*
X+2060000Y+2430650D01*
X+1951599Y+2475551D02*
X+2041401Y+2385749D01*
X+1951599Y+2385749D02*
X+2041401Y+2475551D01*
X+4216400Y+2444750D02*
X+4216400Y+2317750D01*
X+4152900Y+2381250D02*
X+4279900Y+2381250D01*
X+4171499Y+2426151D02*
X+4261301Y+2336349D01*
X+4171499Y+2336349D02*
X+4261301Y+2426151D01*
X+1666300Y+3021200D02*
X+1666300Y+2894200D01*
X+1602800Y+2957700D02*
X+1729800Y+2957700D01*
X+1621399Y+3002601D02*
X+1711201Y+2912799D01*
X+1621399Y+2912799D02*
X+1711201Y+3002601D01*
X+1149350Y+2394700D02*
X+1149350Y+2267700D01*
X+1085850Y+2331200D02*
X+1212850Y+2331200D01*
X+1104449Y+2376101D02*
X+1194251Y+2286299D01*
X+1104449Y+2286299D02*
X+1194251Y+2376101D01*
X+4224000Y+2978150D02*
X+4224000Y+2851150D01*
X+4160500Y+2914650D02*
X+4287500Y+2914650D01*
X+4179099Y+2959551D02*
X+4268901Y+2869749D01*
X+4179099Y+2869749D02*
X+4268901Y+2959551D01*
X+1818700Y+3021200D02*
X+1818700Y+2894200D01*
X+1755200Y+2957700D02*
X+1882200Y+2957700D01*
X+1773799Y+3002601D02*
X+1863601Y+2912799D01*
X+1773799Y+2912799D02*
X+1863601Y+3002601D01*
X+762000Y+4883150D02*
X+762000Y+4756150D01*
X+698500Y+4819650D02*
X+825500Y+4819650D01*
X+717099Y+4864551D02*
X+806901Y+4774749D01*
X+717099Y+4774749D02*
X+806901Y+4864551D01*
X+4064000Y+3308350D02*
X+4064000Y+3181350D01*
X+4000500Y+3244850D02*
X+4127500Y+3244850D01*
X+4019099Y+3289751D02*
X+4108901Y+3199949D01*
X+4019099Y+3199949D02*
X+4108901Y+3289751D01*
X+4064000Y+3143250D02*
X+4064000Y+3016250D01*
X+4000500Y+3079750D02*
X+4127500Y+3079750D01*
X+4019099Y+3124651D02*
X+4108901Y+3034849D01*
X+4019099Y+3034849D02*
X+4108901Y+3124651D01*
X+1244600Y+4464050D02*
X+1244600Y+4337050D01*
X+1181100Y+4400550D02*
X+1308100Y+4400550D01*
X+1199699Y+4445451D02*
X+1289501Y+4355649D01*
X+1199699Y+4355649D02*
X+1289501Y+4445451D01*
X+1363980Y+1760320D02*
X+1363980Y+1633320D01*
X+1300480Y+1696820D02*
X+1427480Y+1696820D01*
X+1319079Y+1741721D02*
X+1408881Y+1651919D01*
X+1319079Y+1651919D02*
X+1408881Y+1741721D01*
X+1501200Y+3181200D02*
X+1501200Y+3054200D01*
X+1437700Y+3117700D02*
X+1564700Y+3117700D01*
X+1456299Y+3162601D02*
X+1546101Y+3072799D01*
X+1456299Y+3072799D02*
X+1546101Y+3162601D01*
X+1646100Y+1198800D02*
X+1646100Y+1071800D01*
X+1582600Y+1135300D02*
X+1709600Y+1135300D01*
X+1601199Y+1180201D02*
X+1691001Y+1090399D01*
X+1601199Y+1090399D02*
X+1691001Y+1180201D01*
X+1646100Y+1300400D02*
X+1646100Y+1173400D01*
X+1582600Y+1236900D02*
X+1709600Y+1236900D01*
X+1601199Y+1281801D02*
X+1691001Y+1191999D01*
X+1601199Y+1191999D02*
X+1691001Y+1281801D01*
X+1131200Y+3063700D02*
X+1131200Y+2936700D01*
X+1067700Y+3000200D02*
X+1194700Y+3000200D01*
X+1086299Y+3045101D02*
X+1176101Y+2955299D01*
X+1086299Y+2955299D02*
X+1176101Y+3045101D01*
X+1306830Y+1817470D02*
X+1306830Y+1690470D01*
X+1243330Y+1753970D02*
X+1370330Y+1753970D01*
X+1261929Y+1798871D02*
X+1351731Y+1709069D01*
X+1261929Y+1709069D02*
X+1351731Y+1798871D01*
X+5018000Y+3962400D02*
X+5018000Y+3835400D01*
X+4954500Y+3898900D02*
X+5081500Y+3898900D01*
X+4973099Y+3943801D02*
X+5062901Y+3853999D01*
X+4973099Y+3853999D02*
X+5062901Y+3943801D01*
X+6170100Y+3162299D02*
X+6170100Y+3035299D01*
X+6106600Y+3098799D02*
X+6233600Y+3098799D01*
X+6125199Y+3143700D02*
X+6215001Y+3053898D01*
X+6125199Y+3053898D02*
X+6215001Y+3143700D01*
X+4064000Y+2813050D02*
X+4064000Y+2686050D01*
X+4000500Y+2749550D02*
X+4127500Y+2749550D01*
X+4019099Y+2794451D02*
X+4108901Y+2704649D01*
X+4019099Y+2704649D02*
X+4108901Y+2794451D01*
X+1460500Y+793850D02*
X+1460500Y+666850D01*
X+1397000Y+730350D02*
X+1524000Y+730350D01*
X+1415599Y+775251D02*
X+1505401Y+685449D01*
X+1415599Y+685449D02*
X+1505401Y+775251D01*
X+1460500Y+958950D02*
X+1460500Y+831950D01*
X+1397000Y+895450D02*
X+1524000Y+895450D01*
X+1415599Y+940351D02*
X+1505401Y+850549D01*
X+1415599Y+850549D02*
X+1505401Y+940351D01*
X+4224000Y+2260600D02*
X+4224000Y+2133600D01*
X+4160500Y+2197100D02*
X+4287500Y+2197100D01*
X+4179099Y+2242001D02*
X+4268901Y+2152199D01*
X+4179099Y+2152199D02*
X+4268901Y+2242001D01*
X+4325600Y+2260600D02*
X+4325600Y+2133600D01*
X+4262100Y+2197100D02*
X+4389100Y+2197100D01*
X+4280699Y+2242001D02*
X+4370501Y+2152199D01*
X+4280699Y+2152199D02*
X+4370501Y+2242001D01*
X+5154350Y+1843000D02*
X+5154350Y+1716000D01*
X+5090850Y+1779500D02*
X+5217850Y+1779500D01*
X+5109449Y+1824401D02*
X+5199251Y+1734599D01*
X+5109449Y+1734599D02*
X+5199251Y+1824401D01*
X+5238750Y+2794000D02*
X+5238750Y+2667000D01*
X+5175250Y+2730500D02*
X+5302250Y+2730500D01*
X+5193849Y+2775401D02*
X+5283651Y+2685599D01*
X+5193849Y+2685599D02*
X+5283651Y+2775401D01*
X+5201900Y+3708400D02*
X+5201900Y+3581400D01*
X+5138400Y+3644900D02*
X+5265400Y+3644900D01*
X+5156999Y+3689801D02*
X+5246801Y+3599999D01*
X+5156999Y+3599999D02*
X+5246801Y+3689801D01*
X+6010100Y+3160592D02*
X+6010100Y+3033592D01*
X+5946600Y+3097092D02*
X+6073600Y+3097092D01*
X+5965199Y+3141993D02*
X+6055001Y+3052191D01*
X+5965199Y+3052191D02*
X+6055001Y+3141993D01*
X+4224000Y+3708400D02*
X+4224000Y+3581400D01*
X+4160500Y+3644900D02*
X+4287500Y+3644900D01*
X+4179099Y+3689801D02*
X+4268901Y+3599999D01*
X+4179099Y+3599999D02*
X+4268901Y+3689801D01*
X+4914900Y+2794000D02*
X+4914900Y+2667000D01*
X+4851400Y+2730500D02*
X+4978400Y+2730500D01*
X+4869999Y+2775401D02*
X+4959801Y+2685599D01*
X+4869999Y+2685599D02*
X+4959801Y+2775401D01*
X+4224000Y+2813050D02*
X+4224000Y+2686050D01*
X+4160500Y+2749550D02*
X+4287500Y+2749550D01*
X+4179099Y+2794451D02*
X+4268901Y+2704649D01*
X+4179099Y+2704649D02*
X+4268901Y+2794451D01*
X+5361900Y+3708400D02*
X+5361900Y+3581400D01*
X+5298400Y+3644900D02*
X+5425400Y+3644900D01*
X+5316999Y+3689801D02*
X+5406801Y+3599999D01*
X+5316999Y+3599999D02*
X+5406801Y+3689801D01*
X+1131200Y+2974800D02*
X+1131200Y+2847800D01*
X+1067700Y+2911300D02*
X+1194700Y+2911300D01*
X+1086299Y+2956201D02*
X+1176101Y+2866399D01*
X+1086299Y+2866399D02*
X+1176101Y+2956201D01*
X+1131200Y+3152600D02*
X+1131200Y+3025600D01*
X+1067700Y+3089100D02*
X+1194700Y+3089100D01*
X+1086299Y+3134001D02*
X+1176101Y+3044199D01*
X+1086299Y+3044199D02*
X+1176101Y+3134001D01*
X+4407150Y+1593500D02*
X+4407150Y+1466500D01*
X+4343650Y+1530000D02*
X+4470650Y+1530000D01*
X+4362249Y+1574901D02*
X+4452051Y+1485099D01*
X+4362249Y+1485099D02*
X+4452051Y+1574901D01*
X+1948800Y+4382600D02*
X+1948800Y+4255600D01*
X+1885300Y+4319100D02*
X+2012300Y+4319100D01*
X+1903899Y+4364001D02*
X+1993701Y+4274199D01*
X+1903899Y+4274199D02*
X+1993701Y+4364001D01*
X+4914900Y+2616200D02*
X+4914900Y+2489200D01*
X+4851400Y+2552700D02*
X+4978400Y+2552700D01*
X+4869999Y+2597601D02*
X+4959801Y+2507799D01*
X+4869999Y+2507799D02*
X+4959801Y+2597601D01*
X+1765300Y+4889500D02*
X+1765300Y+4762500D01*
X+1701800Y+4826000D02*
X+1828800Y+4826000D01*
X+1720399Y+4870901D02*
X+1810201Y+4781099D01*
X+1720399Y+4781099D02*
X+1810201Y+4870901D01*
X+1746250Y+2241550D02*
X+1746250Y+2114550D01*
X+1682750Y+2178050D02*
X+1809750Y+2178050D01*
X+1701349Y+2222951D02*
X+1791151Y+2133149D01*
X+1701349Y+2133149D02*
X+1791151Y+2222951D01*
X+4826000Y+3759200D02*
X+4826000Y+3632200D01*
X+4762500Y+3695700D02*
X+4889500Y+3695700D01*
X+4781099Y+3740601D02*
X+4870901Y+3650799D01*
X+4781099Y+3650799D02*
X+4870901Y+3740601D01*
X+1168400Y+5143500D02*
X+1168400Y+5016500D01*
X+1104900Y+5080000D02*
X+1231900Y+5080000D01*
X+1123499Y+5124901D02*
X+1213301Y+5035099D01*
X+1123499Y+5035099D02*
X+1213301Y+5124901D01*
X+241300Y+5194300D02*
X+241300Y+5067300D01*
X+177800Y+5130800D02*
X+304800Y+5130800D01*
X+196399Y+5175701D02*
X+286201Y+5085899D01*
X+196399Y+5085899D02*
X+286201Y+5175701D01*
X+241300Y+4734300D02*
X+241300Y+4607300D01*
X+177800Y+4670800D02*
X+304800Y+4670800D01*
X+196399Y+4715701D02*
X+286201Y+4625899D01*
X+196399Y+4625899D02*
X+286201Y+4715701D01*
X+241300Y+4387850D02*
X+241300Y+4260850D01*
X+177800Y+4324350D02*
X+304800Y+4324350D01*
X+196399Y+4369251D02*
X+286201Y+4279449D01*
X+196399Y+4279449D02*
X+286201Y+4369251D01*
X+241300Y+3927850D02*
X+241300Y+3800850D01*
X+177800Y+3864350D02*
X+304800Y+3864350D01*
X+196399Y+3909251D02*
X+286201Y+3819449D01*
X+196399Y+3819449D02*
X+286201Y+3909251D01*
X+355600Y+3530600D02*
X+355600Y+3403600D01*
X+292100Y+3467100D02*
X+419100Y+3467100D01*
X+310699Y+3512001D02*
X+400501Y+3422199D01*
X+310699Y+3422199D02*
X+400501Y+3512001D01*
X+241650Y+3125500D02*
X+241650Y+2998500D01*
X+178150Y+3062000D02*
X+305150Y+3062000D01*
X+196749Y+3106901D02*
X+286551Y+3017099D01*
X+196749Y+3017099D02*
X+286551Y+3106901D01*
X+240001Y+2335500D02*
X+240001Y+2208500D01*
X+176501Y+2272000D02*
X+303501Y+2272000D01*
X+195100Y+2316901D02*
X+284902Y+2227099D01*
X+195100Y+2227099D02*
X+284902Y+2316901D01*
X+240001Y+1573500D02*
X+240001Y+1446500D01*
X+176501Y+1510000D02*
X+303501Y+1510000D01*
X+195100Y+1554901D02*
X+284902Y+1465099D01*
X+195100Y+1465099D02*
X+284902Y+1554901D01*
X+240250Y+265650D02*
X+240250Y+138650D01*
X+176750Y+202150D02*
X+303750Y+202150D01*
X+195349Y+247051D02*
X+285151Y+157249D01*
X+195349Y+157249D02*
X+285151Y+247051D01*
X+1383250Y+140750D02*
X+1383250Y+13750D01*
X+1319750Y+77250D02*
X+1446750Y+77250D01*
X+1338349Y+122151D02*
X+1428151Y+32349D01*
X+1338349Y+32349D02*
X+1428151Y+122151D01*
X+1891250Y+140750D02*
X+1891250Y+13750D01*
X+1827750Y+77250D02*
X+1954750Y+77250D01*
X+1846349Y+122151D02*
X+1936151Y+32349D01*
X+1846349Y+32349D02*
X+1936151Y+122151D01*
X+2399250Y+140750D02*
X+2399250Y+13750D01*
X+2335750Y+77250D02*
X+2462750Y+77250D01*
X+2354349Y+122151D02*
X+2444151Y+32349D01*
X+2354349Y+32349D02*
X+2444151Y+122151D01*
X+2907250Y+140750D02*
X+2907250Y+13750D01*
X+2843750Y+77250D02*
X+2970750Y+77250D01*
X+2862349Y+122151D02*
X+2952151Y+32349D01*
X+2862349Y+32349D02*
X+2952151Y+122151D01*
X+3669250Y+140750D02*
X+3669250Y+13750D01*
X+3605750Y+77250D02*
X+3732750Y+77250D01*
X+3624349Y+122151D02*
X+3714151Y+32349D01*
X+3624349Y+32349D02*
X+3714151Y+122151D01*
X+4177250Y+140750D02*
X+4177250Y+13750D01*
X+4113750Y+77250D02*
X+4240750Y+77250D01*
X+4132349Y+122151D02*
X+4222151Y+32349D01*
X+4132349Y+32349D02*
X+4222151Y+122151D01*
X+4685250Y+140750D02*
X+4685250Y+13750D01*
X+4621750Y+77250D02*
X+4748750Y+77250D01*
X+4640349Y+122151D02*
X+4730151Y+32349D01*
X+4640349Y+32349D02*
X+4730151Y+122151D01*
X+5193250Y+140750D02*
X+5193250Y+13750D01*
X+5129750Y+77250D02*
X+5256750Y+77250D01*
X+5148349Y+122151D02*
X+5238151Y+32349D01*
X+5148349Y+32349D02*
X+5238151Y+122151D01*
X+5701250Y+140750D02*
X+5701250Y+13750D01*
X+5637750Y+77250D02*
X+5764750Y+77250D01*
X+5656349Y+122151D02*
X+5746151Y+32349D01*
X+5656349Y+32349D02*
X+5746151Y+122151D01*
X+6209250Y+140750D02*
X+6209250Y+13750D01*
X+6145750Y+77250D02*
X+6272750Y+77250D01*
X+6164349Y+122151D02*
X+6254151Y+32349D01*
X+6164349Y+32349D02*
X+6254151Y+122151D01*
X+6564850Y+394750D02*
X+6564850Y+267750D01*
X+6501350Y+331250D02*
X+6628350Y+331250D01*
X+6519949Y+376151D02*
X+6609751Y+286349D01*
X+6519949Y+286349D02*
X+6609751Y+376151D01*
X+6818850Y+648750D02*
X+6818850Y+521750D01*
X+6755350Y+585250D02*
X+6882350Y+585250D01*
X+6773949Y+630151D02*
X+6863751Y+540349D01*
X+6773949Y+540349D02*
X+6863751Y+630151D01*
X+735301Y+2633950D02*
X+735301Y+2506950D01*
X+671801Y+2570450D02*
X+798801Y+2570450D01*
X+690400Y+2615351D02*
X+780202Y+2525549D01*
X+690400Y+2525549D02*
X+780202Y+2615351D01*
X+1433801Y+2894300D02*
X+1433801Y+2767300D01*
X+1370301Y+2830800D02*
X+1497301Y+2830800D01*
X+1388900Y+2875701D02*
X+1478702Y+2785899D01*
X+1388900Y+2785899D02*
X+1478702Y+2875701D01*
X+1865601Y+2748250D02*
X+1865601Y+2621250D01*
X+1802101Y+2684750D02*
X+1929101Y+2684750D01*
X+1820700Y+2729651D02*
X+1910502Y+2639849D01*
X+1820700Y+2639849D02*
X+1910502Y+2729651D01*
X+2336800Y+2844800D02*
X+2336800Y+2717800D01*
X+2273300Y+2781300D02*
X+2400300Y+2781300D01*
X+2291899Y+2826201D02*
X+2381701Y+2736399D01*
X+2291899Y+2736399D02*
X+2381701Y+2826201D01*
X+2336800Y+2336800D02*
X+2336800Y+2209800D01*
X+2273300Y+2273300D02*
X+2400300Y+2273300D01*
X+2291899Y+2318201D02*
X+2381701Y+2228399D01*
X+2291899Y+2228399D02*
X+2381701Y+2318201D01*
X+3860800Y+2336800D02*
X+3860800Y+2209800D01*
X+3797300Y+2273300D02*
X+3924300Y+2273300D01*
X+3815899Y+2318201D02*
X+3905701Y+2228399D01*
X+3815899Y+2228399D02*
X+3905701Y+2318201D01*
X+3606800Y+3606800D02*
X+3606800Y+3479800D01*
X+3543300Y+3543300D02*
X+3670300Y+3543300D01*
X+3561899Y+3588201D02*
X+3651701Y+3498399D01*
X+3561899Y+3498399D02*
X+3651701Y+3588201D01*
X+3098800Y+3606800D02*
X+3098800Y+3479800D01*
X+3035300Y+3543300D02*
X+3162300Y+3543300D01*
X+3053899Y+3588201D02*
X+3143701Y+3498399D01*
X+3053899Y+3498399D02*
X+3143701Y+3588201D01*
X+2590800Y+3606800D02*
X+2590800Y+3479800D01*
X+2527300Y+3543300D02*
X+2654300Y+3543300D01*
X+2545899Y+3588201D02*
X+2635701Y+3498399D01*
X+2545899Y+3498399D02*
X+2635701Y+3588201D01*
X+2336800Y+3352800D02*
X+2336800Y+3225800D01*
X+2273300Y+3289300D02*
X+2400300Y+3289300D01*
X+2291899Y+3334201D02*
X+2381701Y+3244399D01*
X+2291899Y+3244399D02*
X+2381701Y+3334201D01*
X+2082800Y+3606800D02*
X+2082800Y+3479800D01*
X+2019300Y+3543300D02*
X+2146300Y+3543300D01*
X+2037899Y+3588201D02*
X+2127701Y+3498399D01*
X+2037899Y+3498399D02*
X+2127701Y+3588201D01*
X+1828800Y+3860800D02*
X+1828800Y+3733800D01*
X+1765300Y+3797300D02*
X+1892300Y+3797300D01*
X+1783899Y+3842201D02*
X+1873701Y+3752399D01*
X+1783899Y+3752399D02*
X+1873701Y+3842201D01*
X+1574800Y+4114800D02*
X+1574800Y+3987800D01*
X+1511300Y+4051300D02*
X+1638300Y+4051300D01*
X+1529899Y+4096201D02*
X+1619701Y+4006399D01*
X+1529899Y+4006399D02*
X+1619701Y+4096201D01*
X+2082800Y+4114800D02*
X+2082800Y+3987800D01*
X+2019300Y+4051300D02*
X+2146300Y+4051300D01*
X+2037899Y+4096201D02*
X+2127701Y+4006399D01*
X+2037899Y+4006399D02*
X+2127701Y+4096201D01*
X+2590800Y+4114800D02*
X+2590800Y+3987800D01*
X+2527300Y+4051300D02*
X+2654300Y+4051300D01*
X+2545899Y+4096201D02*
X+2635701Y+4006399D01*
X+2545899Y+4006399D02*
X+2635701Y+4096201D01*
X+3098800Y+4114800D02*
X+3098800Y+3987800D01*
X+3035300Y+4051300D02*
X+3162300Y+4051300D01*
X+3053899Y+4096201D02*
X+3143701Y+4006399D01*
X+3053899Y+4006399D02*
X+3143701Y+4096201D01*
X+3352800Y+3860800D02*
X+3352800Y+3733800D01*
X+3289300Y+3797300D02*
X+3416300Y+3797300D01*
X+3307899Y+3842201D02*
X+3397701Y+3752399D01*
X+3307899Y+3752399D02*
X+3397701Y+3842201D01*
X+2844800Y+3860800D02*
X+2844800Y+3733800D01*
X+2781300Y+3797300D02*
X+2908300Y+3797300D01*
X+2799899Y+3842201D02*
X+2889701Y+3752399D01*
X+2799899Y+3752399D02*
X+2889701Y+3842201D01*
X+2336800Y+3860800D02*
X+2336800Y+3733800D01*
X+2273300Y+3797300D02*
X+2400300Y+3797300D01*
X+2291899Y+3842201D02*
X+2381701Y+3752399D01*
X+2291899Y+3752399D02*
X+2381701Y+3842201D01*
X+2456800Y+4382600D02*
X+2456800Y+4255600D01*
X+2393300Y+4319100D02*
X+2520300Y+4319100D01*
X+2411899Y+4364001D02*
X+2501701Y+4274199D01*
X+2411899Y+4274199D02*
X+2501701Y+4364001D01*
X+2964800Y+4382600D02*
X+2964800Y+4255600D01*
X+2901300Y+4319100D02*
X+3028300Y+4319100D01*
X+2919899Y+4364001D02*
X+3009701Y+4274199D01*
X+2919899Y+4274199D02*
X+3009701Y+4364001D01*
X+2590800Y+4622800D02*
X+2590800Y+4495800D01*
X+2527300Y+4559300D02*
X+2654300Y+4559300D01*
X+2545899Y+4604201D02*
X+2635701Y+4514399D01*
X+2545899Y+4514399D02*
X+2635701Y+4604201D01*
X+2082800Y+4622800D02*
X+2082800Y+4495800D01*
X+2019300Y+4559300D02*
X+2146300Y+4559300D01*
X+2037899Y+4604201D02*
X+2127701Y+4514399D01*
X+2037899Y+4514399D02*
X+2127701Y+4604201D01*
X+1485900Y+3619500D02*
X+1485900Y+3492500D01*
X+1422400Y+3556000D02*
X+1549400Y+3556000D01*
X+1440999Y+3600901D02*
X+1530801Y+3511099D01*
X+1440999Y+3511099D02*
X+1530801Y+3600901D01*
X+1739900Y+3365500D02*
X+1739900Y+3238500D01*
X+1676400Y+3302000D02*
X+1803400Y+3302000D01*
X+1694999Y+3346901D02*
X+1784801Y+3257099D01*
X+1694999Y+3257099D02*
X+1784801Y+3346901D01*
X+1993900Y+3111500D02*
X+1993900Y+2984500D01*
X+1930400Y+3048000D02*
X+2057400Y+3048000D01*
X+1948999Y+3092901D02*
X+2038801Y+3003099D01*
X+1948999Y+3003099D02*
X+2038801Y+3092901D01*
X+1104900Y+4000500D02*
X+1104900Y+3873500D01*
X+1041400Y+3937000D02*
X+1168400Y+3937000D01*
X+1059999Y+3981901D02*
X+1149801Y+3892099D01*
X+1059999Y+3892099D02*
X+1149801Y+3981901D01*
X+1131050Y+3325400D02*
X+1131050Y+3198400D01*
X+1067550Y+3261900D02*
X+1194550Y+3261900D01*
X+1086149Y+3306801D02*
X+1175951Y+3216999D01*
X+1086149Y+3216999D02*
X+1175951Y+3306801D01*
X+1131050Y+3579400D02*
X+1131050Y+3452400D01*
X+1067550Y+3515900D02*
X+1194550Y+3515900D01*
X+1086149Y+3560801D02*
X+1175951Y+3470999D01*
X+1086149Y+3470999D02*
X+1175951Y+3560801D01*
X+623050Y+4087400D02*
X+623050Y+3960400D01*
X+559550Y+4023900D02*
X+686550Y+4023900D01*
X+578149Y+4068801D02*
X+667951Y+3978999D01*
X+578149Y+3978999D02*
X+667951Y+4068801D01*
X+623050Y+4595400D02*
X+623050Y+4468400D01*
X+559550Y+4531900D02*
X+686550Y+4531900D01*
X+578149Y+4576801D02*
X+667951Y+4486999D01*
X+578149Y+4486999D02*
X+667951Y+4576801D01*
X+1084600Y+4464050D02*
X+1084600Y+4337050D01*
X+1021100Y+4400550D02*
X+1148100Y+4400550D01*
X+1039699Y+4445451D02*
X+1129501Y+4355649D01*
X+1039699Y+4355649D02*
X+1129501Y+4445451D01*
X+1084600Y+4629150D02*
X+1084600Y+4502150D01*
X+1021100Y+4565650D02*
X+1148100Y+4565650D01*
X+1039699Y+4610551D02*
X+1129501Y+4520749D01*
X+1039699Y+4520749D02*
X+1129501Y+4610551D01*
X+623050Y+5103400D02*
X+623050Y+4976400D01*
X+559550Y+5039900D02*
X+686550Y+5039900D01*
X+578149Y+5084801D02*
X+667951Y+4994999D01*
X+578149Y+4994999D02*
X+667951Y+5084801D01*
X+749300Y+5321300D02*
X+749300Y+5194300D01*
X+685800Y+5257800D02*
X+812800Y+5257800D01*
X+704399Y+5302701D02*
X+794201Y+5212899D01*
X+704399Y+5212899D02*
X+794201Y+5302701D01*
X+1257300Y+5321300D02*
X+1257300Y+5194300D01*
X+1193800Y+5257800D02*
X+1320800Y+5257800D01*
X+1212399Y+5302701D02*
X+1302201Y+5212899D01*
X+1212399Y+5212899D02*
X+1302201Y+5302701D01*
X+1765300Y+5321300D02*
X+1765300Y+5194300D01*
X+1701800Y+5257800D02*
X+1828800Y+5257800D01*
X+1720399Y+5302701D02*
X+1810201Y+5212899D01*
X+1720399Y+5212899D02*
X+1810201Y+5302701D01*
X+2273300Y+5321300D02*
X+2273300Y+5194300D01*
X+2209800Y+5257800D02*
X+2336800Y+5257800D01*
X+2228399Y+5302701D02*
X+2318201Y+5212899D01*
X+2228399Y+5212899D02*
X+2318201Y+5302701D01*
X+2781300Y+5321300D02*
X+2781300Y+5194300D01*
X+2717800Y+5257800D02*
X+2844800Y+5257800D01*
X+2736399Y+5302701D02*
X+2826201Y+5212899D01*
X+2736399Y+5212899D02*
X+2826201Y+5302701D01*
X+3289300Y+5321300D02*
X+3289300Y+5194300D01*
X+3225800Y+5257800D02*
X+3352800Y+5257800D01*
X+3244399Y+5302701D02*
X+3334201Y+5212899D01*
X+3244399Y+5212899D02*
X+3334201Y+5302701D01*
X+3797300Y+5321300D02*
X+3797300Y+5194300D01*
X+3733800Y+5257800D02*
X+3860800Y+5257800D01*
X+3752399Y+5302701D02*
X+3842201Y+5212899D01*
X+3752399Y+5212899D02*
X+3842201Y+5302701D01*
X+4305300Y+5321300D02*
X+4305300Y+5194300D01*
X+4241800Y+5257800D02*
X+4368800Y+5257800D01*
X+4260399Y+5302701D02*
X+4350201Y+5212899D01*
X+4260399Y+5212899D02*
X+4350201Y+5302701D01*
X+4813300Y+5321300D02*
X+4813300Y+5194300D01*
X+4749800Y+5257800D02*
X+4876800Y+5257800D01*
X+4768399Y+5302701D02*
X+4858201Y+5212899D01*
X+4768399Y+5212899D02*
X+4858201Y+5302701D01*
X+5321300Y+5321300D02*
X+5321300Y+5194300D01*
X+5257800Y+5257800D02*
X+5384800Y+5257800D01*
X+5276399Y+5302701D02*
X+5366201Y+5212899D01*
X+5276399Y+5212899D02*
X+5366201Y+5302701D01*
X+5829300Y+5321300D02*
X+5829300Y+5194300D01*
X+5765800Y+5257800D02*
X+5892800Y+5257800D01*
X+5784399Y+5302701D02*
X+5874201Y+5212899D01*
X+5784399Y+5212899D02*
X+5874201Y+5302701D01*
X+6337300Y+5321300D02*
X+6337300Y+5194300D01*
X+6273800Y+5257800D02*
X+6400800Y+5257800D01*
X+6292399Y+5302701D02*
X+6382201Y+5212899D01*
X+6292399Y+5212899D02*
X+6382201Y+5302701D01*
X+6559550Y+5067300D02*
X+6559550Y+4940300D01*
X+6496050Y+5003800D02*
X+6623050Y+5003800D01*
X+6514649Y+5048701D02*
X+6604451Y+4958899D01*
X+6514649Y+4958899D02*
X+6604451Y+5048701D01*
X+6559550Y+4559300D02*
X+6559550Y+4432300D01*
X+6496050Y+4495800D02*
X+6623050Y+4495800D01*
X+6514649Y+4540701D02*
X+6604451Y+4450899D01*
X+6514649Y+4450899D02*
X+6604451Y+4540701D01*
X+6559550Y+4051300D02*
X+6559550Y+3924300D01*
X+6496050Y+3987800D02*
X+6623050Y+3987800D01*
X+6514649Y+4032701D02*
X+6604451Y+3942899D01*
X+6514649Y+3942899D02*
X+6604451Y+4032701D01*
X+6813550Y+3797300D02*
X+6813550Y+3670300D01*
X+6750050Y+3733800D02*
X+6877050Y+3733800D01*
X+6768649Y+3778701D02*
X+6858451Y+3688899D01*
X+6768649Y+3688899D02*
X+6858451Y+3778701D01*
X+6813550Y+3289300D02*
X+6813550Y+3162300D01*
X+6750050Y+3225800D02*
X+6877050Y+3225800D01*
X+6768649Y+3270701D02*
X+6858451Y+3180899D01*
X+6768649Y+3180899D02*
X+6858451Y+3270701D01*
X+6813550Y+2781300D02*
X+6813550Y+2654300D01*
X+6750050Y+2717800D02*
X+6877050Y+2717800D01*
X+6768649Y+2762701D02*
X+6858451Y+2672899D01*
X+6768649Y+2672899D02*
X+6858451Y+2762701D01*
X+6813550Y+2273300D02*
X+6813550Y+2146300D01*
X+6750050Y+2209800D02*
X+6877050Y+2209800D01*
X+6768649Y+2254701D02*
X+6858451Y+2164899D01*
X+6768649Y+2164899D02*
X+6858451Y+2254701D01*
X+6813550Y+1765300D02*
X+6813550Y+1638300D01*
X+6750050Y+1701800D02*
X+6877050Y+1701800D01*
X+6768649Y+1746701D02*
X+6858451Y+1656899D01*
X+6768649Y+1656899D02*
X+6858451Y+1746701D01*
X+6813550Y+1257300D02*
X+6813550Y+1130300D01*
X+6750050Y+1193800D02*
X+6877050Y+1193800D01*
X+6768649Y+1238701D02*
X+6858451Y+1148899D01*
X+6768649Y+1148899D02*
X+6858451Y+1238701D01*
X+6305550Y+1257300D02*
X+6305550Y+1130300D01*
X+6242050Y+1193800D02*
X+6369050Y+1193800D01*
X+6260649Y+1238701D02*
X+6350451Y+1148899D01*
X+6260649Y+1148899D02*
X+6350451Y+1238701D01*
X+6305550Y+749300D02*
X+6305550Y+622300D01*
X+6242050Y+685800D02*
X+6369050Y+685800D01*
X+6260649Y+730701D02*
X+6350451Y+640899D01*
X+6260649Y+640899D02*
X+6350451Y+730701D01*
X+6051550Y+1003300D02*
X+6051550Y+876300D01*
X+5988050Y+939800D02*
X+6115050Y+939800D01*
X+6006649Y+984701D02*
X+6096451Y+894899D01*
X+6006649Y+894899D02*
X+6096451Y+984701D01*
X+6051550Y+1511300D02*
X+6051550Y+1384300D01*
X+5988050Y+1447800D02*
X+6115050Y+1447800D01*
X+6006649Y+1492701D02*
X+6096451Y+1402899D01*
X+6006649Y+1402899D02*
X+6096451Y+1492701D01*
X+6559550Y+1511300D02*
X+6559550Y+1384300D01*
X+6496050Y+1447800D02*
X+6623050Y+1447800D01*
X+6514649Y+1492701D02*
X+6604451Y+1402899D01*
X+6514649Y+1402899D02*
X+6604451Y+1492701D01*
X+6305550Y+1765300D02*
X+6305550Y+1638300D01*
X+6242050Y+1701800D02*
X+6369050Y+1701800D01*
X+6260649Y+1746701D02*
X+6350451Y+1656899D01*
X+6260649Y+1656899D02*
X+6350451Y+1746701D01*
X+6051550Y+2019300D02*
X+6051550Y+1892300D01*
X+5988050Y+1955800D02*
X+6115050Y+1955800D01*
X+6006649Y+2000701D02*
X+6096451Y+1910899D01*
X+6006649Y+1910899D02*
X+6096451Y+2000701D01*
X+6559550Y+2019300D02*
X+6559550Y+1892300D01*
X+6496050Y+1955800D02*
X+6623050Y+1955800D01*
X+6514649Y+2000701D02*
X+6604451Y+1910899D01*
X+6514649Y+1910899D02*
X+6604451Y+2000701D01*
X+6305550Y+2273300D02*
X+6305550Y+2146300D01*
X+6242050Y+2209800D02*
X+6369050Y+2209800D01*
X+6260649Y+2254701D02*
X+6350451Y+2164899D01*
X+6260649Y+2164899D02*
X+6350451Y+2254701D01*
X+6559550Y+2527300D02*
X+6559550Y+2400300D01*
X+6496050Y+2463800D02*
X+6623050Y+2463800D01*
X+6514649Y+2508701D02*
X+6604451Y+2418899D01*
X+6514649Y+2418899D02*
X+6604451Y+2508701D01*
X+6559550Y+3035300D02*
X+6559550Y+2908300D01*
X+6496050Y+2971800D02*
X+6623050Y+2971800D01*
X+6514649Y+3016701D02*
X+6604451Y+2926899D01*
X+6514649Y+2926899D02*
X+6604451Y+3016701D01*
X+6051550Y+749300D02*
X+6051550Y+622300D01*
X+5988050Y+685800D02*
X+6115050Y+685800D01*
X+6006649Y+730701D02*
X+6096451Y+640899D01*
X+6006649Y+640899D02*
X+6096451Y+730701D01*
X+5797550Y+1003300D02*
X+5797550Y+876300D01*
X+5734050Y+939800D02*
X+5861050Y+939800D01*
X+5752649Y+984701D02*
X+5842451Y+894899D01*
X+5752649Y+894899D02*
X+5842451Y+984701D01*
X+5543550Y+1257300D02*
X+5543550Y+1130300D01*
X+5480050Y+1193800D02*
X+5607050Y+1193800D01*
X+5498649Y+1238701D02*
X+5588451Y+1148899D01*
X+5498649Y+1148899D02*
X+5588451Y+1238701D01*
X+5797550Y+1511300D02*
X+5797550Y+1384300D01*
X+5734050Y+1447800D02*
X+5861050Y+1447800D01*
X+5752649Y+1492701D02*
X+5842451Y+1402899D01*
X+5752649Y+1402899D02*
X+5842451Y+1492701D01*
X+5543550Y+1765300D02*
X+5543550Y+1638300D01*
X+5480050Y+1701800D02*
X+5607050Y+1701800D01*
X+5498649Y+1746701D02*
X+5588451Y+1656899D01*
X+5498649Y+1656899D02*
X+5588451Y+1746701D01*
X+5797550Y+2019300D02*
X+5797550Y+1892300D01*
X+5734050Y+1955800D02*
X+5861050Y+1955800D01*
X+5752649Y+2000701D02*
X+5842451Y+1910899D01*
X+5752649Y+1910899D02*
X+5842451Y+2000701D01*
X+5153600Y+1428250D02*
X+5153600Y+1301250D01*
X+5090100Y+1364750D02*
X+5217100Y+1364750D01*
X+5108699Y+1409651D02*
X+5198501Y+1319849D01*
X+5108699Y+1319849D02*
X+5198501Y+1409651D01*
X+5153600Y+920250D02*
X+5153600Y+793250D01*
X+5090100Y+856750D02*
X+5217100Y+856750D01*
X+5108699Y+901651D02*
X+5198501Y+811849D01*
X+5108699Y+811849D02*
X+5198501Y+901651D01*
X+2451100Y+825500D02*
X+2451100Y+698500D01*
X+2387600Y+762000D02*
X+2514600Y+762000D01*
X+2406199Y+806901D02*
X+2496001Y+717099D01*
X+2406199Y+717099D02*
X+2496001Y+806901D01*
X+2235200Y+825500D02*
X+2235200Y+698500D01*
X+2171700Y+762000D02*
X+2298700Y+762000D01*
X+2190299Y+806901D02*
X+2280101Y+717099D01*
X+2190299Y+717099D02*
X+2280101Y+806901D01*
X+4516073Y+2095500D02*
X+4516073Y+1968500D01*
X+4452573Y+2032000D02*
X+4579573Y+2032000D01*
X+4471172Y+2076901D02*
X+4560974Y+1987099D01*
X+4471172Y+1987099D02*
X+4560974Y+2076901D01*
X+5035550Y+2381250D02*
X+5035550Y+2254250D01*
X+4972050Y+2317750D02*
X+5099050Y+2317750D01*
X+4990649Y+2362651D02*
X+5080451Y+2272849D01*
X+4990649Y+2272849D02*
X+5080451Y+2362651D01*
X+5543550Y+2381250D02*
X+5543550Y+2254250D01*
X+5480050Y+2317750D02*
X+5607050Y+2317750D01*
X+5498649Y+2362651D02*
X+5588451Y+2272849D01*
X+5498649Y+2272849D02*
X+5588451Y+2362651D01*
X+5543550Y+2800350D02*
X+5543550Y+2673350D01*
X+5480050Y+2736850D02*
X+5607050Y+2736850D01*
X+5498649Y+2781751D02*
X+5588451Y+2691949D01*
X+5498649Y+2691949D02*
X+5588451Y+2781751D01*
X+6170100Y+2609849D02*
X+6170100Y+2482849D01*
X+6106600Y+2546349D02*
X+6233600Y+2546349D01*
X+6125199Y+2591250D02*
X+6215001Y+2501448D01*
X+6125199Y+2501448D02*
X+6215001Y+2591250D01*
X+6271720Y+2884169D02*
X+6271720Y+2757169D01*
X+6208220Y+2820669D02*
X+6335220Y+2820669D01*
X+6226819Y+2865570D02*
X+6316621Y+2775768D01*
X+6226819Y+2775768D02*
X+6316621Y+2865570D01*
X+5543550Y+2990850D02*
X+5543550Y+2863850D01*
X+5480050Y+2927350D02*
X+5607050Y+2927350D01*
X+5498649Y+2972251D02*
X+5588451Y+2882449D01*
X+5498649Y+2882449D02*
X+5588451Y+2972251D01*
X+5308600Y+2990850D02*
X+5308600Y+2863850D01*
X+5245100Y+2927350D02*
X+5372100Y+2927350D01*
X+5263699Y+2972251D02*
X+5353501Y+2882449D01*
X+5263699Y+2882449D02*
X+5353501Y+2972251D01*
X+6170100Y+3416299D02*
X+6170100Y+3289299D01*
X+6106600Y+3352799D02*
X+6233600Y+3352799D01*
X+6125199Y+3397700D02*
X+6215001Y+3307898D01*
X+6125199Y+3307898D02*
X+6215001Y+3397700D01*
X+6170100Y+4432299D02*
X+6170100Y+4305299D01*
X+6106600Y+4368799D02*
X+6233600Y+4368799D01*
X+6125199Y+4413700D02*
X+6215001Y+4323898D01*
X+6125199Y+4323898D02*
X+6215001Y+4413700D01*
X+5916100Y+4686299D02*
X+5916100Y+4559299D01*
X+5852600Y+4622799D02*
X+5979600Y+4622799D01*
X+5871199Y+4667700D02*
X+5961001Y+4577898D01*
X+5871199Y+4577898D02*
X+5961001Y+4667700D01*
X+5662100Y+3924299D02*
X+5662100Y+3797299D01*
X+5598600Y+3860799D02*
X+5725600Y+3860799D01*
X+5617199Y+3905700D02*
X+5707001Y+3815898D01*
X+5617199Y+3815898D02*
X+5707001Y+3905700D01*
X+5662100Y+3416299D02*
X+5662100Y+3289299D01*
X+5598600Y+3352799D02*
X+5725600Y+3352799D01*
X+5617199Y+3397700D02*
X+5707001Y+3307898D01*
X+5617199Y+3307898D02*
X+5707001Y+3397700D01*
X+5408100Y+4432299D02*
X+5408100Y+4305299D01*
X+5344600Y+4368799D02*
X+5471600Y+4368799D01*
X+5363199Y+4413700D02*
X+5453001Y+4323898D01*
X+5363199Y+4323898D02*
X+5453001Y+4413700D01*
X+4900100Y+4686299D02*
X+4900100Y+4559299D01*
X+4836600Y+4622799D02*
X+4963600Y+4622799D01*
X+4855199Y+4667700D02*
X+4945001Y+4577898D01*
X+4855199Y+4577898D02*
X+4945001Y+4667700D01*
X+4900100Y+4432299D02*
X+4900100Y+4305299D01*
X+4836600Y+4368799D02*
X+4963600Y+4368799D01*
X+4855199Y+4413700D02*
X+4945001Y+4323898D01*
X+4855199Y+4323898D02*
X+4945001Y+4413700D01*
X+4646100Y+4686299D02*
X+4646100Y+4559299D01*
X+4582600Y+4622799D02*
X+4709600Y+4622799D01*
X+4601199Y+4667700D02*
X+4691001Y+4577898D01*
X+4601199Y+4577898D02*
X+4691001Y+4667700D01*
X+4764000Y+4089400D02*
X+4764000Y+3962400D01*
X+4700500Y+4025900D02*
X+4827500Y+4025900D01*
X+4719099Y+4070801D02*
X+4808901Y+3980999D01*
X+4719099Y+3980999D02*
X+4808901Y+4070801D01*
X+4510000Y+4343400D02*
X+4510000Y+4216400D01*
X+4446500Y+4279900D02*
X+4573500Y+4279900D01*
X+4465099Y+4324801D02*
X+4554901Y+4234999D01*
X+4465099Y+4234999D02*
X+4554901Y+4324801D01*
X+4256000Y+4597400D02*
X+4256000Y+4470400D01*
X+4192500Y+4533900D02*
X+4319500Y+4533900D01*
X+4211099Y+4578801D02*
X+4300901Y+4488999D01*
X+4211099Y+4488999D02*
X+4300901Y+4578801D01*
X+4002000Y+4597400D02*
X+4002000Y+4470400D01*
X+3938500Y+4533900D02*
X+4065500Y+4533900D01*
X+3957099Y+4578801D02*
X+4046901Y+4488999D01*
X+3957099Y+4488999D02*
X+4046901Y+4578801D01*
X+3748000Y+4089400D02*
X+3748000Y+3962400D01*
X+3684500Y+4025900D02*
X+3811500Y+4025900D01*
X+3703099Y+4070801D02*
X+3792901Y+3980999D01*
X+3703099Y+3980999D02*
X+3792901Y+4070801D01*
X+3494000Y+4597400D02*
X+3494000Y+4470400D01*
X+3430500Y+4533900D02*
X+3557500Y+4533900D01*
X+3449099Y+4578801D02*
X+3538901Y+4488999D01*
X+3449099Y+4488999D02*
X+3538901Y+4578801D01*
X+3494000Y+4343400D02*
X+3494000Y+4216400D01*
X+3430500Y+4279900D02*
X+3557500Y+4279900D01*
X+3449099Y+4324801D02*
X+3538901Y+4234999D01*
X+3449099Y+4234999D02*
X+3538901Y+4324801D01*
X+1970000Y+533530D02*
X+1970000Y+406530D01*
X+1906500Y+470030D02*
X+2033500Y+470030D01*
X+1925099Y+514931D02*
X+2014901Y+425129D01*
X+1925099Y+425129D02*
X+2014901Y+514931D01*
X+4567650Y+3554499D02*
X+4567650Y+3427499D01*
X+4504150Y+3490999D02*
X+4631150Y+3490999D01*
X+4522749Y+3535900D02*
X+4612551Y+3446098D01*
X+4522749Y+3446098D02*
X+4612551Y+3535900D01*
X+240200Y+1046749D02*
X+240200Y+919749D01*
X+176700Y+983249D02*
X+303700Y+983249D01*
X+195299Y+1028150D02*
X+285101Y+938348D01*
X+195299Y+938348D02*
X+285101Y+1028150D01*
X+3860800Y+3352800D02*
X+3860800Y+3225800D01*
X+3797300Y+3289300D02*
X+3924300Y+3289300D01*
X+3815899Y+3334201D02*
X+3905701Y+3244399D01*
X+3815899Y+3244399D02*
X+3905701Y+3334201D01*
X+3352800Y+3352800D02*
X+3352800Y+3225800D01*
X+3289300Y+3289300D02*
X+3416300Y+3289300D01*
X+3307899Y+3334201D02*
X+3397701Y+3244399D01*
X+3307899Y+3244399D02*
X+3397701Y+3334201D01*
X+2844800Y+3352800D02*
X+2844800Y+3225800D01*
X+2781300Y+3289300D02*
X+2908300Y+3289300D01*
X+2799899Y+3334201D02*
X+2889701Y+3244399D01*
X+2799899Y+3244399D02*
X+2889701Y+3334201D01*
X+2590800Y+3098800D02*
X+2590800Y+2971800D01*
X+2527300Y+3035300D02*
X+2654300Y+3035300D01*
X+2545899Y+3080201D02*
X+2635701Y+2990399D01*
X+2545899Y+2990399D02*
X+2635701Y+3080201D01*
X+1716000Y+1549400D02*
X+1716000Y+1422400D01*
X+1652500Y+1485900D02*
X+1779500Y+1485900D01*
X+1671099Y+1530801D02*
X+1760901Y+1440999D01*
X+1671099Y+1440999D02*
X+1760901Y+1530801D01*
X+3669250Y+1156750D02*
X+3669250Y+1029750D01*
X+3605750Y+1093250D02*
X+3732750Y+1093250D01*
X+3624349Y+1138151D02*
X+3714151Y+1048349D01*
X+3624349Y+1048349D02*
X+3714151Y+1138151D01*
X+4177250Y+1156750D02*
X+4177250Y+1029750D01*
X+4113750Y+1093250D02*
X+4240750Y+1093250D01*
X+4132349Y+1138151D02*
X+4222151Y+1048349D01*
X+4132349Y+1048349D02*
X+4222151Y+1138151D01*
X+4685250Y+1156750D02*
X+4685250Y+1029750D01*
X+4621750Y+1093250D02*
X+4748750Y+1093250D01*
X+4640349Y+1138151D02*
X+4730151Y+1048349D01*
X+4640349Y+1048349D02*
X+4730151Y+1138151D01*
X+4431250Y+902750D02*
X+4431250Y+775750D01*
X+4367750Y+839250D02*
X+4494750Y+839250D01*
X+4386349Y+884151D02*
X+4476151Y+794349D01*
X+4386349Y+794349D02*
X+4476151Y+884151D01*
X+4667250Y+1493500D02*
X+4667250Y+1366500D01*
X+4603750Y+1430000D02*
X+4730750Y+1430000D01*
X+4622349Y+1474901D02*
X+4712151Y+1385099D01*
X+4622349Y+1385099D02*
X+4712151Y+1474901D01*
X+4845050Y+1546860D02*
X+4845050Y+1419860D01*
X+4781550Y+1483360D02*
X+4908550Y+1483360D01*
X+4800149Y+1528261D02*
X+4889951Y+1438459D01*
X+4800149Y+1438459D02*
X+4889951Y+1528261D01*
X+877050Y+3325400D02*
X+877050Y+3198400D01*
X+813550Y+3261900D02*
X+940550Y+3261900D01*
X+832149Y+3306801D02*
X+921951Y+3216999D01*
X+832149Y+3216999D02*
X+921951Y+3306801D01*
X+623050Y+3833400D02*
X+623050Y+3706400D01*
X+559550Y+3769900D02*
X+686550Y+3769900D01*
X+578149Y+3814801D02*
X+667951Y+3724999D01*
X+578149Y+3724999D02*
X+667951Y+3814801D01*
X+3204150Y+1841803D02*
X+3204150Y+1714803D01*
X+3140650Y+1778303D02*
X+3267650Y+1778303D01*
X+3159249Y+1823204D02*
X+3249051Y+1733402D01*
X+3159249Y+1733402D02*
X+3249051Y+1823204D01*
X+2001450Y+1844800D02*
X+2001450Y+1717800D01*
X+1937950Y+1781300D02*
X+2064950Y+1781300D01*
X+1956549Y+1826201D02*
X+2046351Y+1736399D01*
X+1956549Y+1736399D02*
X+2046351Y+1826201D01*
X+2355850Y+1720850D02*
X+2355850Y+1593850D01*
X+2292350Y+1657350D02*
X+2419350Y+1657350D01*
X+2310949Y+1702251D02*
X+2400751Y+1612449D01*
X+2310949Y+1612449D02*
X+2400751Y+1702251D01*
X+2001450Y+1333000D02*
X+2001450Y+1206000D01*
X+1937950Y+1269500D02*
X+2064950Y+1269500D01*
X+1956549Y+1314401D02*
X+2046351Y+1224599D01*
X+1956549Y+1224599D02*
X+2046351Y+1314401D01*
X+2552700Y+1342350D02*
X+2552700Y+1215350D01*
X+2489200Y+1278850D02*
X+2616200Y+1278850D01*
X+2507799Y+1323751D02*
X+2597601Y+1233949D01*
X+2507799Y+1233949D02*
X+2597601Y+1323751D01*
X+2654300Y+1342350D02*
X+2654300Y+1215350D01*
X+2590800Y+1278850D02*
X+2717800Y+1278850D01*
X+2609399Y+1323751D02*
X+2699201Y+1233949D01*
X+2609399Y+1233949D02*
X+2699201Y+1323751D01*
X+2451100Y+1342350D02*
X+2451100Y+1215350D01*
X+2387600Y+1278850D02*
X+2514600Y+1278850D01*
X+2406199Y+1323751D02*
X+2496001Y+1233949D01*
X+2406199Y+1233949D02*
X+2496001Y+1323751D01*
X+2927350Y+1439900D02*
X+2927350Y+1312900D01*
X+2863850Y+1376400D02*
X+2990850Y+1376400D01*
X+2882449Y+1421301D02*
X+2972251Y+1331499D01*
X+2882449Y+1331499D02*
X+2972251Y+1421301D01*
X+2705100Y+825500D02*
X+2705100Y+698500D01*
X+2641600Y+762000D02*
X+2768600Y+762000D01*
X+2660199Y+806901D02*
X+2750001Y+717099D01*
X+2660199Y+717099D02*
X+2750001Y+806901D01*
X+2959100Y+825500D02*
X+2959100Y+698500D01*
X+2895600Y+762000D02*
X+3022600Y+762000D01*
X+2914199Y+806901D02*
X+3004001Y+717099D01*
X+2914199Y+717099D02*
X+3004001Y+806901D01*
X+3467100Y+825500D02*
X+3467100Y+698500D01*
X+3403600Y+762000D02*
X+3530600Y+762000D01*
X+3422199Y+806901D02*
X+3512001Y+717099D01*
X+3422199Y+717099D02*
X+3512001Y+806901D01*
X+3721100Y+825500D02*
X+3721100Y+698500D01*
X+3657600Y+762000D02*
X+3784600Y+762000D01*
X+3676199Y+806901D02*
X+3766001Y+717099D01*
X+3676199Y+717099D02*
X+3766001Y+806901D01*
X+4229100Y+825500D02*
X+4229100Y+698500D01*
X+4165600Y+762000D02*
X+4292600Y+762000D01*
X+4184199Y+806901D02*
X+4274001Y+717099D01*
X+4184199Y+717099D02*
X+4274001Y+806901D01*
X+3161250Y+1156750D02*
X+3161250Y+1029750D01*
X+3097750Y+1093250D02*
X+3224750Y+1093250D01*
X+3116349Y+1138151D02*
X+3206151Y+1048349D01*
X+3116349Y+1048349D02*
X+3206151Y+1138151D01*
X+3204150Y+1333000D02*
X+3204150Y+1206000D01*
X+3140650Y+1269500D02*
X+3267650Y+1269500D01*
X+3159249Y+1314401D02*
X+3249051Y+1224599D01*
X+3159249Y+1224599D02*
X+3249051Y+1314401D01*
X+2627850Y+1156750D02*
X+2627850Y+1029750D01*
X+2564350Y+1093250D02*
X+2691350Y+1093250D01*
X+2582949Y+1138151D02*
X+2672751Y+1048349D01*
X+2582949Y+1048349D02*
X+2672751Y+1138151D01*
X+2005550Y+1156750D02*
X+2005550Y+1029750D01*
X+1942050Y+1093250D02*
X+2069050Y+1093250D01*
X+1960649Y+1138151D02*
X+2050451Y+1048349D01*
X+1960649Y+1048349D02*
X+2050451Y+1138151D01*
X+2001450Y+1493000D02*
X+2001450Y+1366000D01*
X+1937950Y+1429500D02*
X+2064950Y+1429500D01*
X+1956549Y+1474401D02*
X+2046351Y+1384599D01*
X+1956549Y+1384599D02*
X+2046351Y+1474401D01*
X+2001450Y+1684800D02*
X+2001450Y+1557800D01*
X+1937950Y+1621300D02*
X+2064950Y+1621300D01*
X+1956549Y+1666201D02*
X+2046351Y+1576399D01*
X+1956549Y+1576399D02*
X+2046351Y+1666201D01*
X+3364450Y+1664750D02*
X+3364450Y+1537750D01*
X+3300950Y+1601250D02*
X+3427950Y+1601250D01*
X+3319549Y+1646151D02*
X+3409351Y+1556349D01*
X+3319549Y+1556349D02*
X+3409351Y+1646151D01*
X+3860800Y+3073400D02*
X+3860800Y+2946400D01*
X+3797300Y+3009900D02*
X+3924300Y+3009900D01*
X+3815899Y+3054801D02*
X+3905701Y+2964999D01*
X+3815899Y+2964999D02*
X+3905701Y+3054801D01*
X+1318950Y+2162550D02*
X+1318950Y+2035550D01*
X+1255450Y+2099050D02*
X+1382450Y+2099050D01*
X+1274049Y+2143951D02*
X+1363851Y+2054149D01*
X+1274049Y+2054149D02*
X+1363851Y+2143951D01*
X+1293550Y+2073650D02*
X+1293550Y+1946650D01*
X+1230050Y+2010150D02*
X+1357050Y+2010150D01*
X+1248649Y+2055051D02*
X+1338451Y+1965249D01*
X+1248649Y+1965249D02*
X+1338451Y+2055051D01*
X+1382450Y+2099050D02*
X+1382450Y+1972050D01*
X+1318950Y+2035550D02*
X+1445950Y+2035550D01*
X+1337549Y+2080451D02*
X+1427351Y+1990649D01*
X+1337549Y+1990649D02*
X+1427351Y+2080451D01*
X+895350Y+589200D02*
X+895350Y+462200D01*
X+831850Y+525700D02*
X+958850Y+525700D01*
X+850449Y+570601D02*
X+940251Y+480799D01*
X+850449Y+480799D02*
X+940251Y+570601D01*
X+570230Y+1563470D02*
X+570230Y+1436470D01*
X+506730Y+1499970D02*
X+633730Y+1499970D01*
X+525329Y+1544871D02*
X+615131Y+1455069D01*
X+525329Y+1455069D02*
X+615131Y+1544871D01*
X+678180Y+1563470D02*
X+678180Y+1436470D01*
X+614680Y+1499970D02*
X+741680Y+1499970D01*
X+633279Y+1544871D02*
X+723081Y+1455069D01*
X+633279Y+1455069D02*
X+723081Y+1544871D01*
X+1847850Y+647700D02*
X+1847850Y+520700D01*
X+1784350Y+584200D02*
X+1911350Y+584200D01*
X+1802949Y+629101D02*
X+1892751Y+539299D01*
X+1802949Y+539299D02*
X+1892751Y+629101D01*
X+1606550Y+647700D02*
X+1606550Y+520700D01*
X+1543050Y+584200D02*
X+1670050Y+584200D01*
X+1561649Y+629101D02*
X+1651451Y+539299D01*
X+1561649Y+539299D02*
X+1651451Y+629101D01*
X+1257050Y+936090D02*
X+1257050Y+809090D01*
X+1193550Y+872590D02*
X+1320550Y+872590D01*
X+1212149Y+917491D02*
X+1301951Y+827689D01*
X+1212149Y+827689D02*
X+1301951Y+917491D01*
X+1158240Y+721460D02*
X+1158240Y+594460D01*
X+1094740Y+657960D02*
X+1221740Y+657960D01*
X+1113339Y+702861D02*
X+1203141Y+613059D01*
X+1113339Y+613059D02*
X+1203141Y+702861D01*
X+678180Y+1652370D02*
X+678180Y+1525370D01*
X+614680Y+1588870D02*
X+741680Y+1588870D01*
X+633279Y+1633771D02*
X+723081Y+1543969D01*
X+633279Y+1543969D02*
X+723081Y+1633771D01*
X+1158240Y+632560D02*
X+1158240Y+505560D01*
X+1094740Y+569060D02*
X+1221740Y+569060D01*
X+1113339Y+613961D02*
X+1203141Y+524159D01*
X+1113339Y+524159D02*
X+1203141Y+613961D01*
X+1158240Y+810360D02*
X+1158240Y+683360D01*
X+1094740Y+746860D02*
X+1221740Y+746860D01*
X+1113339Y+791761D02*
X+1203141Y+701959D01*
X+1113339Y+701959D02*
X+1203141Y+791761D01*
X+1149350Y+2165350D02*
X+1149350Y+2038350D01*
X+1085850Y+2101850D02*
X+1212850Y+2101850D01*
X+1104449Y+2146751D02*
X+1194251Y+2056949D01*
X+1104449Y+2056949D02*
X+1194251Y+2146751D01*
X+571500Y+1746250D02*
X+571500Y+1619250D01*
X+508000Y+1682750D02*
X+635000Y+1682750D01*
X+526599Y+1727651D02*
X+616401Y+1637849D01*
X+526599Y+1637849D02*
X+616401Y+1727651D01*
X+825500Y+2000250D02*
X+825500Y+1873250D01*
X+762000Y+1936750D02*
X+889000Y+1936750D01*
X+780599Y+1981651D02*
X+870401Y+1891849D01*
X+780599Y+1891849D02*
X+870401Y+1981651D01*
X+679200Y+1105000D02*
X+679200Y+978000D01*
X+615700Y+1041500D02*
X+742700Y+1041500D01*
X+634299Y+1086401D02*
X+724101Y+996599D01*
X+634299Y+996599D02*
X+724101Y+1086401D01*
X+678180Y+1350110D02*
X+678180Y+1223110D01*
X+614680Y+1286610D02*
X+741680Y+1286610D01*
X+633279Y+1331511D02*
X+723081Y+1241709D01*
X+633279Y+1241709D02*
X+723081Y+1331511D01*
X+1059180Y+1563470D02*
X+1059180Y+1436470D01*
X+995680Y+1499970D02*
X+1122680Y+1499970D01*
X+1014279Y+1544871D02*
X+1104081Y+1455069D01*
X+1014279Y+1455069D02*
X+1104081Y+1544871D01*
X+1158240Y+524610D02*
X+1158240Y+397610D01*
X+1094740Y+461110D02*
X+1221740Y+461110D01*
X+1113339Y+506011D02*
X+1203141Y+416209D01*
X+1113339Y+416209D02*
X+1203141Y+506011D01*
X+862330Y+721460D02*
X+862330Y+594460D01*
X+798830Y+657960D02*
X+925830Y+657960D01*
X+817429Y+702861D02*
X+907231Y+613059D01*
X+817429Y+613059D02*
X+907231Y+702861D01*
X+240001Y+721460D02*
X+240001Y+594460D01*
X+176501Y+657960D02*
X+303501Y+657960D01*
X+195100Y+702861D02*
X+284902Y+613059D01*
X+195100Y+613059D02*
X+284902Y+702861D01*
X+1149350Y+271700D02*
X+1149350Y+144700D01*
X+1085850Y+208200D02*
X+1212850Y+208200D01*
X+1149350Y+398700D02*
X+1149350Y+271700D01*
X+1085850Y+335200D02*
X+1212850Y+335200D01*
X+1022350Y+271700D02*
X+1022350Y+144700D01*
X+958850Y+208200D02*
X+1085850Y+208200D01*
X+1022350Y+398700D02*
X+1022350Y+271700D01*
X+958850Y+335200D02*
X+1085850Y+335200D01*
X+895350Y+271700D02*
X+895350Y+144700D01*
X+831850Y+208200D02*
X+958850Y+208200D01*
X+895350Y+398700D02*
X+895350Y+271700D01*
X+831850Y+335200D02*
X+958850Y+335200D01*
X+768350Y+271700D02*
X+768350Y+144700D01*
X+704850Y+208200D02*
X+831850Y+208200D01*
X+768350Y+398700D02*
X+768350Y+271700D01*
X+704850Y+335200D02*
X+831850Y+335200D01*
X+4819199Y+298901D02*
X+4909001Y+209099D01*
X+4819199Y+209099D02*
X+4909001Y+298901D01*
X+5073199Y+298901D02*
X+5163001Y+209099D01*
X+5073199Y+209099D02*
X+5163001Y+298901D01*
X+5327199Y+298901D02*
X+5417001Y+209099D01*
X+5327199Y+209099D02*
X+5417001Y+298901D01*
X+5581199Y+298901D02*
X+5671001Y+209099D01*
X+5581199Y+209099D02*
X+5671001Y+298901D01*
X+5835199Y+298901D02*
X+5925001Y+209099D01*
X+5835199Y+209099D02*
X+5925001Y+298901D01*
X+6089199Y+298901D02*
X+6179001Y+209099D01*
X+6089199Y+209099D02*
X+6179001Y+298901D01*
X+6343199Y+298901D02*
X+6433001Y+209099D01*
X+6343199Y+209099D02*
X+6433001Y+298901D01*
X+2279199Y+298901D02*
X+2369001Y+209099D01*
X+2279199Y+209099D02*
X+2369001Y+298901D01*
X+2533199Y+298901D02*
X+2623001Y+209099D01*
X+2533199Y+209099D02*
X+2623001Y+298901D01*
X+2787199Y+298901D02*
X+2877001Y+209099D01*
X+2787199Y+209099D02*
X+2877001Y+298901D01*
X+3041199Y+298901D02*
X+3131001Y+209099D01*
X+3041199Y+209099D02*
X+3131001Y+298901D01*
X+3295199Y+298901D02*
X+3385001Y+209099D01*
X+3295199Y+209099D02*
X+3385001Y+298901D01*
X+3549199Y+298901D02*
X+3639001Y+209099D01*
X+3549199Y+209099D02*
X+3639001Y+298901D01*
X+3803199Y+298901D02*
X+3893001Y+209099D01*
X+3803199Y+209099D02*
X+3893001Y+298901D01*
X+4057199Y+298901D02*
X+4147001Y+209099D01*
X+4057199Y+209099D02*
X+4147001Y+298901D01*
X+4311199Y+298901D02*
X+4401001Y+209099D01*
X+4311199Y+209099D02*
X+4401001Y+298901D01*
X+4565199Y+298901D02*
X+4655001Y+209099D01*
X+4565199Y+209099D02*
X+4655001Y+298901D01*
X+1872799Y+5124901D02*
X+1962601Y+5035099D01*
X+1872799Y+5035099D02*
X+1962601Y+5124901D01*
X+2126799Y+5124901D02*
X+2216601Y+5035099D01*
X+2126799Y+5035099D02*
X+2216601Y+5124901D01*
X+2380799Y+5124901D02*
X+2470601Y+5035099D01*
X+2380799Y+5035099D02*
X+2470601Y+5124901D01*
X+2634799Y+5124901D02*
X+2724601Y+5035099D01*
X+2634799Y+5035099D02*
X+2724601Y+5124901D01*
X+2888799Y+5124901D02*
X+2978601Y+5035099D01*
X+2888799Y+5035099D02*
X+2978601Y+5124901D01*
X+3142799Y+5124901D02*
X+3232601Y+5035099D01*
X+3142799Y+5035099D02*
X+3232601Y+5124901D01*
X+3396799Y+5124901D02*
X+3486601Y+5035099D01*
X+3396799Y+5035099D02*
X+3486601Y+5124901D01*
X+3650799Y+5124901D02*
X+3740601Y+5035099D01*
X+3650799Y+5035099D02*
X+3740601Y+5124901D01*
X+3904799Y+5124901D02*
X+3994601Y+5035099D01*
X+3904799Y+5035099D02*
X+3994601Y+5124901D01*
X+4158799Y+5124901D02*
X+4248601Y+5035099D01*
X+4158799Y+5035099D02*
X+4248601Y+5124901D01*
X+4565199Y+5124901D02*
X+4655001Y+5035099D01*
X+4565199Y+5035099D02*
X+4655001Y+5124901D01*
X+4819199Y+5124901D02*
X+4909001Y+5035099D01*
X+4819199Y+5035099D02*
X+4909001Y+5124901D01*
X+5073199Y+5124901D02*
X+5163001Y+5035099D01*
X+5073199Y+5035099D02*
X+5163001Y+5124901D01*
X+5327199Y+5124901D02*
X+5417001Y+5035099D01*
X+5327199Y+5035099D02*
X+5417001Y+5124901D01*
X+5581199Y+5124901D02*
X+5671001Y+5035099D01*
X+5581199Y+5035099D02*
X+5671001Y+5124901D01*
X+5835199Y+5124901D02*
X+5925001Y+5035099D01*
X+5835199Y+5035099D02*
X+5925001Y+5124901D01*
X+6089199Y+5124901D02*
X+6179001Y+5035099D01*
X+6089199Y+5035099D02*
X+6179001Y+5124901D01*
X+6343199Y+5124901D02*
X+6433001Y+5035099D01*
X+6343199Y+5035099D02*
X+6433001Y+5124901D01*
X+2279199Y+552901D02*
X+2369001Y+463099D01*
X+2279199Y+463099D02*
X+2369001Y+552901D01*
X+2533199Y+552901D02*
X+2623001Y+463099D01*
X+2533199Y+463099D02*
X+2623001Y+552901D01*
X+2787199Y+552901D02*
X+2877001Y+463099D01*
X+2787199Y+463099D02*
X+2877001Y+552901D01*
X+3041199Y+552901D02*
X+3131001Y+463099D01*
X+3041199Y+463099D02*
X+3131001Y+552901D01*
X+3295199Y+552901D02*
X+3385001Y+463099D01*
X+3295199Y+463099D02*
X+3385001Y+552901D01*
X+3549199Y+552901D02*
X+3639001Y+463099D01*
X+3549199Y+463099D02*
X+3639001Y+552901D01*
X+3803199Y+552901D02*
X+3893001Y+463099D01*
X+3803199Y+463099D02*
X+3893001Y+552901D01*
X+4057199Y+552901D02*
X+4147001Y+463099D01*
X+4057199Y+463099D02*
X+4147001Y+552901D01*
X+4311199Y+552901D02*
X+4401001Y+463099D01*
X+4311199Y+463099D02*
X+4401001Y+552901D01*
X+4565199Y+552901D02*
X+4655001Y+463099D01*
X+4565199Y+463099D02*
X+4655001Y+552901D01*
X+4819199Y+552901D02*
X+4909001Y+463099D01*
X+4819199Y+463099D02*
X+4909001Y+552901D01*
X+5073199Y+552901D02*
X+5163001Y+463099D01*
X+5073199Y+463099D02*
X+5163001Y+552901D01*
X+5327199Y+552901D02*
X+5417001Y+463099D01*
X+5327199Y+463099D02*
X+5417001Y+552901D01*
X+5581199Y+552901D02*
X+5671001Y+463099D01*
X+5581199Y+463099D02*
X+5671001Y+552901D01*
X+5835199Y+552901D02*
X+5925001Y+463099D01*
X+5835199Y+463099D02*
X+5925001Y+552901D01*
X+6089199Y+552901D02*
X+6179001Y+463099D01*
X+6089199Y+463099D02*
X+6179001Y+552901D01*
X+6343199Y+552901D02*
X+6433001Y+463099D01*
X+6343199Y+463099D02*
X+6433001Y+552901D01*
X+4565199Y+4870901D02*
X+4655001Y+4781099D01*
X+4565199Y+4781099D02*
X+4655001Y+4870901D01*
X+4819199Y+4870901D02*
X+4909001Y+4781099D01*
X+4819199Y+4781099D02*
X+4909001Y+4870901D01*
X+5073199Y+4870901D02*
X+5163001Y+4781099D01*
X+5073199Y+4781099D02*
X+5163001Y+4870901D01*
X+5327199Y+4870901D02*
X+5417001Y+4781099D01*
X+5327199Y+4781099D02*
X+5417001Y+4870901D01*
X+5581199Y+4870901D02*
X+5671001Y+4781099D01*
X+5581199Y+4781099D02*
X+5671001Y+4870901D01*
X+5835199Y+4870901D02*
X+5925001Y+4781099D01*
X+5835199Y+4781099D02*
X+5925001Y+4870901D01*
X+6089199Y+4870901D02*
X+6179001Y+4781099D01*
X+6089199Y+4781099D02*
X+6179001Y+4870901D01*
X+6343199Y+4870901D02*
X+6433001Y+4781099D01*
X+6343199Y+4781099D02*
X+6433001Y+4870901D01*
X+1872799Y+4870901D02*
X+1962601Y+4781099D01*
X+1872799Y+4781099D02*
X+1962601Y+4870901D01*
X+2126799Y+4870901D02*
X+2216601Y+4781099D01*
X+2126799Y+4781099D02*
X+2216601Y+4870901D01*
X+2380799Y+4870901D02*
X+2470601Y+4781099D01*
X+2380799Y+4781099D02*
X+2470601Y+4870901D01*
X+2634799Y+4870901D02*
X+2724601Y+4781099D01*
X+2634799Y+4781099D02*
X+2724601Y+4870901D01*
X+2888799Y+4870901D02*
X+2978601Y+4781099D01*
X+2888799Y+4781099D02*
X+2978601Y+4870901D01*
X+3142799Y+4870901D02*
X+3232601Y+4781099D01*
X+3142799Y+4781099D02*
X+3232601Y+4870901D01*
X+3396799Y+4870901D02*
X+3486601Y+4781099D01*
X+3396799Y+4781099D02*
X+3486601Y+4870901D01*
X+3650799Y+4870901D02*
X+3740601Y+4781099D01*
X+3650799Y+4781099D02*
X+3740601Y+4870901D01*
X+3904799Y+4870901D02*
X+3994601Y+4781099D01*
X+3904799Y+4781099D02*
X+3994601Y+4870901D01*
X+4158799Y+4870901D02*
X+4248601Y+4781099D01*
X+4158799Y+4781099D02*
X+4248601Y+4870901D01*
D52*
X+6800850Y+762000D02*
X+6800320Y+774958D01*
X+6796016Y+800876D01*
X+6787025Y+826794D01*
X+6772380Y+852712D01*
X+6749976Y+878466D01*
X+6724058Y+897958D01*
X+6698140Y+910530D01*
X+6672222Y+917866D01*
X+6646304Y+920694D01*
X+6642100Y+920750D01*
X+6483350Y+762000D02*
X+6483880Y+774958D01*
X+6488184Y+800876D01*
X+6497175Y+826794D01*
X+6511820Y+852712D01*
X+6534224Y+878466D01*
X+6560142Y+897958D01*
X+6586060Y+910530D01*
X+6611978Y+917866D01*
X+6637896Y+920694D01*
X+6642100Y+920750D01*
X+6483350Y+762000D02*
X+6483880Y+749042D01*
X+6488184Y+723124D01*
X+6497175Y+697206D01*
X+6511820Y+671288D01*
X+6534224Y+645534D01*
X+6560142Y+626042D01*
X+6586060Y+613470D01*
X+6611978Y+606134D01*
X+6637896Y+603306D01*
X+6642100Y+603250D01*
X+6800850Y+762000D02*
X+6800320Y+749042D01*
X+6796016Y+723124D01*
X+6787025Y+697206D01*
X+6772380Y+671288D01*
X+6749976Y+645534D01*
X+6724058Y+626042D01*
X+6698140Y+613470D01*
X+6672222Y+606134D01*
X+6646304Y+603306D01*
X+6642100Y+603250D01*
X+6800850Y+3556000D02*
X+6800320Y+3568958D01*
X+6796016Y+3594876D01*
X+6787025Y+3620794D01*
X+6772380Y+3646712D01*
X+6749976Y+3672466D01*
X+6724058Y+3691958D01*
X+6698140Y+3704530D01*
X+6672222Y+3711866D01*
X+6646304Y+3714694D01*
X+6642100Y+3714750D01*
X+6483350Y+3556000D02*
X+6483880Y+3568958D01*
X+6488184Y+3594876D01*
X+6497175Y+3620794D01*
X+6511820Y+3646712D01*
X+6534224Y+3672466D01*
X+6560142Y+3691958D01*
X+6586060Y+3704530D01*
X+6611978Y+3711866D01*
X+6637896Y+3714694D01*
X+6642100Y+3714750D01*
X+6483350Y+3556000D02*
X+6483880Y+3543042D01*
X+6488184Y+3517124D01*
X+6497175Y+3491206D01*
X+6511820Y+3465288D01*
X+6534224Y+3439534D01*
X+6560142Y+3420042D01*
X+6586060Y+3407470D01*
X+6611978Y+3400134D01*
X+6637896Y+3397306D01*
X+6642100Y+3397250D01*
X+6800850Y+3556000D02*
X+6800320Y+3543042D01*
X+6796016Y+3517124D01*
X+6787025Y+3491206D01*
X+6772380Y+3465288D01*
X+6749976Y+3439534D01*
X+6724058Y+3420042D01*
X+6698140Y+3407470D01*
X+6672222Y+3400134D01*
X+6646304Y+3397306D01*
X+6642100Y+3397250D01*
X+1720850Y+5080000D02*
X+1720320Y+5092958D01*
X+1716016Y+5118876D01*
X+1707025Y+5144794D01*
X+1692380Y+5170712D01*
X+1669976Y+5196466D01*
X+1644058Y+5215958D01*
X+1618140Y+5228530D01*
X+1592222Y+5235866D01*
X+1566304Y+5238694D01*
X+1562100Y+5238750D01*
X+1403350Y+5080000D02*
X+1403880Y+5092958D01*
X+1408184Y+5118876D01*
X+1417175Y+5144794D01*
X+1431820Y+5170712D01*
X+1454224Y+5196466D01*
X+1480142Y+5215958D01*
X+1506060Y+5228530D01*
X+1531978Y+5235866D01*
X+1557896Y+5238694D01*
X+1562100Y+5238750D01*
X+1403350Y+5080000D02*
X+1403880Y+5067042D01*
X+1408184Y+5041124D01*
X+1417175Y+5015206D01*
X+1431820Y+4989288D01*
X+1454224Y+4963534D01*
X+1480142Y+4944042D01*
X+1506060Y+4931470D01*
X+1531978Y+4924134D01*
X+1557896Y+4921306D01*
X+1562100Y+4921250D01*
X+1720850Y+5080000D02*
X+1720320Y+5067042D01*
X+1716016Y+5041124D01*
X+1707025Y+5015206D01*
X+1692380Y+4989288D01*
X+1669976Y+4963534D01*
X+1644058Y+4944042D01*
X+1618140Y+4931470D01*
X+1592222Y+4924134D01*
X+1566304Y+4921306D01*
X+1562100Y+4921250D01*
X+1720850Y+254000D02*
X+1720320Y+266958D01*
X+1716016Y+292876D01*
X+1707025Y+318794D01*
X+1692380Y+344712D01*
X+1669976Y+370466D01*
X+1644058Y+389958D01*
X+1618140Y+402530D01*
X+1592222Y+409866D01*
X+1566304Y+412694D01*
X+1562100Y+412750D01*
X+1403350Y+254000D02*
X+1403880Y+266958D01*
X+1408184Y+292876D01*
X+1417175Y+318794D01*
X+1431820Y+344712D01*
X+1454224Y+370466D01*
X+1480142Y+389958D01*
X+1506060Y+402530D01*
X+1531978Y+409866D01*
X+1557896Y+412694D01*
X+1562100Y+412750D01*
X+1403350Y+254000D02*
X+1403880Y+241042D01*
X+1408184Y+215124D01*
X+1417175Y+189206D01*
X+1431820Y+163288D01*
X+1454224Y+137534D01*
X+1480142Y+118042D01*
X+1506060Y+105470D01*
X+1531978Y+98134D01*
X+1557896Y+95306D01*
X+1562100Y+95250D01*
X+1720850Y+254000D02*
X+1720320Y+241042D01*
X+1716016Y+215124D01*
X+1707025Y+189206D01*
X+1692380Y+163288D01*
X+1669976Y+137534D01*
X+1644058Y+118042D01*
X+1618140Y+105470D01*
X+1592222Y+98134D01*
X+1566304Y+95306D01*
X+1562100Y+95250D01*
X+127000Y+0D02*
X+101032Y+2527D01*
X+77018Y+9798D01*
X+55423Y+21347D01*
X+36711Y+36711D01*
X+21348Y+55423D01*
X+9798Y+77018D01*
X+2527Y+101032D01*
X+0Y+127000D01*
X+0Y+5207000D01*
X+2527Y+5232967D01*
X+9798Y+5256981D01*
X+21348Y+5278577D01*
X+36711Y+5297289D01*
X+55423Y+5312652D01*
X+77018Y+5324202D01*
X+101032Y+5331473D01*
X+127000Y+5334000D01*
X+6515100Y+5334000D01*
X+6642100Y+5207000D01*
X+6642100Y+4064000D01*
X+6896100Y+3810000D01*
X+6896100Y+508000D01*
X+6642100Y+254000D01*
X+6642100Y+127000D01*
X+6639573Y+101032D01*
X+6632302Y+77018D01*
X+6620752Y+55423D01*
X+6605389Y+36711D01*
X+6586677Y+21347D01*
X+6565081Y+9798D01*
X+6541067Y+2527D01*
X+6515100Y+0D01*
X+127000Y+0D01*
X+486650Y+2467000D02*
X+486547Y+2469489D01*
X+485705Y+2474469D01*
X+483945Y+2479449D01*
X+481068Y+2484429D01*
X+476667Y+2489345D01*
X+471687Y+2492959D01*
X+466707Y+2495264D01*
X+461727Y+2496567D01*
X+456747Y+2497000D01*
X+456650Y+2497000D01*
X+426650Y+2467000D02*
X+426753Y+2469489D01*
X+427595Y+2474469D01*
X+429355Y+2479449D01*
X+432232Y+2484429D01*
X+436633Y+2489345D01*
X+441613Y+2492959D01*
X+446593Y+2495264D01*
X+451573Y+2496567D01*
X+456553Y+2497000D01*
X+456650Y+2497000D01*
X+426650Y+2467000D02*
X+426753Y+2464511D01*
X+427595Y+2459531D01*
X+429355Y+2454551D01*
X+432232Y+2449571D01*
X+436633Y+2444655D01*
X+441613Y+2441041D01*
X+446593Y+2438736D01*
X+451573Y+2437433D01*
X+456553Y+2437000D01*
X+456650Y+2437000D01*
X+486650Y+2467000D02*
X+486547Y+2464511D01*
X+485705Y+2459531D01*
X+483945Y+2454551D01*
X+481068Y+2449571D01*
X+476667Y+2444655D01*
X+471687Y+2441041D01*
X+466707Y+2438736D01*
X+461727Y+2437433D01*
X+456747Y+2437000D01*
X+456650Y+2437000D01*
X+486650Y+2867000D02*
X+486547Y+2869489D01*
X+485705Y+2874469D01*
X+483945Y+2879449D01*
X+481068Y+2884429D01*
X+476667Y+2889345D01*
X+471687Y+2892959D01*
X+466707Y+2895264D01*
X+461727Y+2896567D01*
X+456747Y+2897000D01*
X+456650Y+2897000D01*
X+426650Y+2867000D02*
X+426753Y+2869489D01*
X+427595Y+2874469D01*
X+429355Y+2879449D01*
X+432232Y+2884429D01*
X+436633Y+2889345D01*
X+441613Y+2892959D01*
X+446593Y+2895264D01*
X+451573Y+2896567D01*
X+456553Y+2897000D01*
X+456650Y+2897000D01*
X+426650Y+2867000D02*
X+426753Y+2864511D01*
X+427595Y+2859531D01*
X+429355Y+2854551D01*
X+432232Y+2849571D01*
X+436633Y+2844655D01*
X+441613Y+2841041D01*
X+446593Y+2838736D01*
X+451573Y+2837433D01*
X+456553Y+2837000D01*
X+456650Y+2837000D01*
X+486650Y+2867000D02*
X+486547Y+2864511D01*
X+485705Y+2859531D01*
X+483945Y+2854551D01*
X+481068Y+2849571D01*
X+476667Y+2844655D01*
X+471687Y+2841041D01*
X+466707Y+2838736D01*
X+461727Y+2837433D01*
X+456747Y+2837000D01*
X+456650Y+2837000D01*
D54*
X-3869680Y-1258570D02*
X-1225540Y-1258570D01*
X-1225540Y-255270D01*
X-3869680Y-255270D01*
X-3869680Y-1258570D01*
D134*
X-3402318Y-255270D02*
X-3402318Y-1258570D01*
X-2589518Y-255270D02*
X-2589518Y-1258570D01*
X-1756398Y-255270D02*
X-1756398Y-1258570D01*
X-3869680Y-528320D02*
X-1225540Y-528320D01*
X-3869680Y-769620D02*
X-1225540Y-769620D01*
X-3869680Y-1010920D02*
X-1225540Y-1010920D01*
D54*
X-3812530Y-419100D02*
X-3797290Y-434340D01*
X-3736330Y-434340D01*
X-3721090Y-419100D01*
X-3721090Y-403860D01*
X-3736330Y-388620D01*
X-3797290Y-388620D01*
X-3812530Y-373380D01*
X-3812530Y-358140D01*
X-3797290Y-342900D01*
X-3736330Y-342900D01*
X-3721090Y-358140D01*
X-3599170Y-342900D02*
X-3690610Y-434340D01*
X-3690610Y-342900D02*
X-3644890Y-388620D01*
X-3568690Y-434340D02*
X-3568690Y-342900D01*
X-3522970Y-388620D01*
X-3477250Y-342900D01*
X-3477250Y-434340D01*
X-3345170Y-419100D02*
X-3329930Y-434340D01*
X-3268970Y-434340D01*
X-3253730Y-419100D01*
X-3253730Y-403860D01*
X-3268970Y-388620D01*
X-3329930Y-388620D01*
X-3345170Y-373380D01*
X-3345170Y-358140D01*
X-3329930Y-342900D01*
X-3268970Y-342900D01*
X-3253730Y-358140D01*
X-3208010Y-342900D02*
X-3147050Y-342900D01*
X-3177530Y-342900D02*
X-3177530Y-434340D01*
X-3208010Y-434340D02*
X-3147050Y-434340D01*
X-3101330Y-342900D02*
X-3009890Y-342900D01*
X-3101330Y-434340D01*
X-3009890Y-434340D01*
X-2887970Y-434340D02*
X-2979410Y-434340D01*
X-2979410Y-342900D01*
X-2887970Y-342900D01*
X-2979410Y-388620D02*
X-2918450Y-388620D01*
X-2532370Y-434340D02*
X-2532370Y-342900D01*
X-2456170Y-342900D01*
X-2440930Y-358140D01*
X-2440930Y-373380D01*
X-2456170Y-388620D01*
X-2532370Y-388620D01*
X-2410450Y-342900D02*
X-2410450Y-434340D01*
X-2319010Y-434340D01*
X-2288530Y-434340D02*
X-2288530Y-373380D01*
X-2258050Y-342900D01*
X-2227570Y-342900D01*
X-2197090Y-373380D01*
X-2197090Y-434340D01*
X-2288530Y-403860D02*
X-2197090Y-403860D01*
X-2166610Y-342900D02*
X-2075170Y-342900D01*
X-2120890Y-342900D02*
X-2120890Y-434340D01*
X-1953250Y-434340D02*
X-2044690Y-434340D01*
X-2044690Y-342900D01*
X-1953250Y-342900D01*
X-2044690Y-388620D02*
X-1983730Y-388620D01*
X-1922770Y-434340D02*
X-1922770Y-342900D01*
X-1861810Y-342900D01*
X-1831330Y-373380D01*
X-1831330Y-403860D01*
X-1861810Y-434340D01*
X-1922770Y-434340D01*
X-1699250Y-373380D02*
X-1668770Y-342900D01*
X-1638290Y-342900D01*
X-1607810Y-373380D01*
X-1607810Y-403860D01*
X-1638290Y-434340D01*
X-1668770Y-434340D01*
X-1699250Y-403860D01*
X-1699250Y-373380D01*
X-1638290Y-403860D02*
X-1607810Y-434340D01*
X-1577330Y-342900D02*
X-1485890Y-342900D01*
X-1531610Y-342900D02*
X-1531610Y-434340D01*
X-1363970Y-342900D02*
X-1455410Y-434340D01*
X-1455410Y-342900D02*
X-1409690Y-388620D01*
X-3623300Y-579120D02*
X-3623300Y-706120D01*
X-3686800Y-642620D02*
X-3559800Y-642620D01*
X-3326120Y-668020D02*
X-3326120Y-617220D01*
X-3313420Y-604520D01*
X-3262620Y-604520D01*
X-3249920Y-617220D01*
X-3249920Y-668020D01*
X-3262620Y-680720D01*
X-3313420Y-680720D01*
X-3326120Y-668020D01*
X-3326120Y-680720D02*
X-3249920Y-604520D01*
X-3186420Y-668020D02*
X-3173720Y-668020D01*
X-3173720Y-680720D01*
X-3186420Y-680720D01*
X-3186420Y-668020D01*
X-3046720Y-617220D02*
X-3059420Y-604520D01*
X-3097520Y-604520D01*
X-3110220Y-617220D01*
X-3110220Y-668020D01*
X-3097520Y-680720D01*
X-3059420Y-680720D01*
X-3046720Y-668020D01*
X-3046720Y-655320D01*
X-3059420Y-642620D01*
X-3110220Y-642620D01*
X-3021320Y-680720D02*
X-3021320Y-629920D01*
X-3021320Y-642620D02*
X-3008620Y-629920D01*
X-2983220Y-655320D01*
X-2957820Y-629920D01*
X-2945120Y-642620D01*
X-2945120Y-680720D01*
X-2919720Y-680720D02*
X-2919720Y-629920D01*
X-2919720Y-642620D02*
X-2907020Y-629920D01*
X-2881620Y-655320D01*
X-2856220Y-629920D01*
X-2843520Y-642620D01*
X-2843520Y-680720D01*
X-2424420Y-604520D02*
X-2500620Y-680720D01*
X-2500620Y-604520D02*
X-2462520Y-642620D01*
X-2322820Y-680720D02*
X-2399020Y-680720D01*
X-2399020Y-604520D01*
X-2322820Y-604520D01*
X-2399020Y-642620D02*
X-2348220Y-642620D01*
X-2297420Y-668020D02*
X-2284720Y-680720D01*
X-2233920Y-680720D01*
X-2221220Y-668020D01*
X-2221220Y-655320D01*
X-2233920Y-642620D01*
X-2284720Y-642620D01*
X-2297420Y-629920D01*
X-2297420Y-617220D01*
X-2284720Y-604520D01*
X-2233920Y-604520D01*
X-2221220Y-617220D01*
X-1629400Y-642620D02*
X-1642100Y-629920D01*
X-1642100Y-617220D01*
X-1629400Y-604520D01*
X-1591300Y-604520D01*
X-1578600Y-617220D01*
X-1578600Y-629920D01*
X-1591300Y-642620D01*
X-1629400Y-642620D01*
X-1642100Y-655320D01*
X-1642100Y-668020D01*
X-1629400Y-680720D01*
X-1591300Y-680720D01*
X-1578600Y-668020D01*
X-1578600Y-655320D01*
X-1591300Y-642620D01*
X-3668201Y-839019D02*
X-3578399Y-928821D01*
X-3668201Y-928821D02*
X-3578399Y-839019D01*
X-3326120Y-909320D02*
X-3326120Y-858520D01*
X-3313420Y-845820D01*
X-3262620Y-845820D01*
X-3249920Y-858520D01*
X-3249920Y-909320D01*
X-3262620Y-922020D01*
X-3313420Y-922020D01*
X-3326120Y-909320D01*
X-3326120Y-922020D02*
X-3249920Y-845820D01*
X-3186420Y-909320D02*
X-3173720Y-909320D01*
X-3173720Y-922020D01*
X-3186420Y-922020D01*
X-3186420Y-909320D01*
X-3046720Y-871220D02*
X-3059420Y-883920D01*
X-3097520Y-883920D01*
X-3110220Y-871220D01*
X-3110220Y-858520D01*
X-3097520Y-845820D01*
X-3059420Y-845820D01*
X-3046720Y-858520D01*
X-3046720Y-909320D01*
X-3059420Y-922020D01*
X-3097520Y-922020D01*
X-2945120Y-845820D02*
X-3008620Y-845820D01*
X-3008620Y-871220D01*
X-2957820Y-871220D01*
X-2945120Y-883920D01*
X-2945120Y-909320D01*
X-2957820Y-922020D01*
X-2995920Y-922020D01*
X-3008620Y-909320D01*
X-2919720Y-922020D02*
X-2919720Y-871220D01*
X-2919720Y-883920D02*
X-2907020Y-871220D01*
X-2881620Y-896620D01*
X-2856220Y-871220D01*
X-2843520Y-883920D01*
X-2843520Y-922020D01*
X-2818120Y-922020D02*
X-2818120Y-871220D01*
X-2818120Y-883920D02*
X-2805420Y-871220D01*
X-2780020Y-896620D01*
X-2754620Y-871220D01*
X-2741920Y-883920D01*
X-2741920Y-922020D01*
X-2424420Y-845820D02*
X-2500620Y-922020D01*
X-2500620Y-845820D02*
X-2462520Y-883920D01*
X-2322820Y-922020D02*
X-2399020Y-922020D01*
X-2399020Y-845820D01*
X-2322820Y-845820D01*
X-2399020Y-883920D02*
X-2348220Y-883920D01*
X-2297420Y-909320D02*
X-2284720Y-922020D01*
X-2233920Y-922020D01*
X-2221220Y-909320D01*
X-2221220Y-896620D01*
X-2233920Y-883920D01*
X-2284720Y-883920D01*
X-2297420Y-871220D01*
X-2297420Y-858520D01*
X-2284720Y-845820D01*
X-2233920Y-845820D01*
X-2221220Y-858520D01*
X-1642100Y-845820D02*
X-1578600Y-845820D01*
X-1578600Y-858520D01*
X-1642100Y-922020D01*
X-1553200Y-909320D02*
X-1553200Y-858520D01*
X-1540500Y-845820D01*
X-1489700Y-845820D01*
X-1477000Y-858520D01*
X-1477000Y-909320D01*
X-1489700Y-922020D01*
X-1540500Y-922020D01*
X-1553200Y-909320D01*
X-1553200Y-922020D02*
X-1477000Y-845820D01*
X-3623300Y-1061720D02*
X-3623300Y-1188720D01*
X-3686800Y-1125220D02*
X-3559800Y-1125220D01*
X-3668201Y-1080319D02*
X-3578399Y-1170121D01*
X-3668201Y-1170121D02*
X-3578399Y-1080319D01*
X-3326120Y-1150620D02*
X-3326120Y-1099820D01*
X-3313420Y-1087120D01*
X-3262620Y-1087120D01*
X-3249920Y-1099820D01*
X-3249920Y-1150620D01*
X-3262620Y-1163320D01*
X-3313420Y-1163320D01*
X-3326120Y-1150620D01*
X-3326120Y-1163320D02*
X-3249920Y-1087120D01*
X-3186420Y-1150620D02*
X-3173720Y-1150620D01*
X-3173720Y-1163320D01*
X-3186420Y-1163320D01*
X-3186420Y-1150620D01*
X-3110220Y-1099820D02*
X-3097520Y-1087120D01*
X-3059420Y-1087120D01*
X-3046720Y-1099820D01*
X-3046720Y-1112520D01*
X-3059420Y-1125220D01*
X-3046720Y-1137920D01*
X-3046720Y-1150620D01*
X-3059420Y-1163320D01*
X-3097520Y-1163320D01*
X-3110220Y-1150620D01*
X-3084820Y-1125220D02*
X-3059420Y-1125220D01*
X-3021320Y-1150620D02*
X-3021320Y-1099820D01*
X-3008620Y-1087120D01*
X-2957820Y-1087120D01*
X-2945120Y-1099820D01*
X-2945120Y-1150620D01*
X-2957820Y-1163320D01*
X-3008620Y-1163320D01*
X-3021320Y-1150620D01*
X-3021320Y-1163320D02*
X-2945120Y-1087120D01*
X-2843520Y-1087120D02*
X-2907020Y-1087120D01*
X-2907020Y-1112520D01*
X-2856220Y-1112520D01*
X-2843520Y-1125220D01*
X-2843520Y-1150620D01*
X-2856220Y-1163320D01*
X-2894320Y-1163320D01*
X-2907020Y-1150620D01*
X-2818120Y-1163320D02*
X-2818120Y-1112520D01*
X-2818120Y-1125220D02*
X-2805420Y-1112520D01*
X-2780020Y-1137920D01*
X-2754620Y-1112520D01*
X-2741920Y-1125220D01*
X-2741920Y-1163320D01*
X-2716520Y-1163320D02*
X-2716520Y-1112520D01*
X-2716520Y-1125220D02*
X-2703820Y-1112520D01*
X-2678420Y-1137920D01*
X-2653020Y-1112520D01*
X-2640320Y-1125220D01*
X-2640320Y-1163320D01*
X-2424420Y-1087120D02*
X-2500620Y-1163320D01*
X-2500620Y-1087120D02*
X-2462520Y-1125220D01*
X-2322820Y-1163320D02*
X-2399020Y-1163320D01*
X-2399020Y-1087120D01*
X-2322820Y-1087120D01*
X-2399020Y-1125220D02*
X-2348220Y-1125220D01*
X-2297420Y-1150620D02*
X-2284720Y-1163320D01*
X-2233920Y-1163320D01*
X-2221220Y-1150620D01*
X-2221220Y-1137920D01*
X-2233920Y-1125220D01*
X-2284720Y-1125220D01*
X-2297420Y-1112520D01*
X-2297420Y-1099820D01*
X-2284720Y-1087120D01*
X-2233920Y-1087120D01*
X-2221220Y-1099820D01*
X-1642100Y-1099820D02*
X-1629400Y-1087120D01*
X-1591300Y-1087120D01*
X-1578600Y-1099820D01*
X-1578600Y-1112520D01*
X-1591300Y-1125220D01*
X-1629400Y-1125220D01*
X-1642100Y-1137920D01*
X-1642100Y-1163320D01*
X-1578600Y-1163320D01*
X-1477000Y-1087120D02*
X-1540500Y-1087120D01*
X-1540500Y-1112520D01*
X-1489700Y-1112520D01*
X-1477000Y-1125220D01*
X-1477000Y-1150620D01*
X-1489700Y-1163320D01*
X-1527800Y-1163320D01*
X-1540500Y-1150620D01*
X-1438900Y-1099820D02*
X-1426200Y-1087120D01*
X-1388100Y-1087120D01*
X-1375400Y-1099820D01*
X-1375400Y-1112520D01*
X-1388100Y-1125220D01*
X-1375400Y-1137920D01*
X-1375400Y-1150620D01*
X-1388100Y-1163320D01*
X-1426200Y-1163320D01*
X-1438900Y-1150620D01*
X-1413500Y-1125220D02*
X-1388100Y-1125220D01*
M02*
