G04 PROTEUS RS274X GERBER FILE*
%FSLAX45Y45*%
%MOMM*%
G01*
%ADD43C,0.025400*%
%ADD45C,0.152400*%
%ADD81C,0.640000*%
%ADD82C,0.161540*%
%ADD83C,0.050000*%
%ADD84C,0.365350*%
%ADD85C,0.243000*%
%ADD86C,0.180000*%
%ADD87C,0.184180*%
%ADD13C,0.360000*%
%ADD88C,0.344180*%
%ADD89C,0.153240*%
%ADD90C,0.220000*%
%ADD91C,0.080840*%
%ADD12C,0.400000*%
%ADD92C,0.153130*%
%ADD46C,0.320000*%
%ADD93C,0.077720*%
%ADD94C,1.280000*%
%ADD95C,0.204180*%
%ADD96C,0.420000*%
%ADD97C,0.100580*%
%ADD98C,0.914400*%
%ADD99C,0.189180*%
%ADD100C,0.041310*%
%ADD101C,0.070480*%
%ADD102C,0.646570*%
%ADD103C,0.092710*%
%ADD104C,0.551540*%
%ADD105C,0.078420*%
%ADD106C,0.558800*%
%ADD107C,0.115820*%
D43*
X+6800850Y+762000D02*
X+6800320Y+774958D01*
X+6796016Y+800876D01*
X+6787025Y+826794D01*
X+6772380Y+852712D01*
X+6749976Y+878466D01*
X+6724058Y+897958D01*
X+6698140Y+910530D01*
X+6672222Y+917866D01*
X+6646304Y+920694D01*
X+6642100Y+920750D01*
X+6483350Y+762000D02*
X+6483880Y+774958D01*
X+6488184Y+800876D01*
X+6497175Y+826794D01*
X+6511820Y+852712D01*
X+6534224Y+878466D01*
X+6560142Y+897958D01*
X+6586060Y+910530D01*
X+6611978Y+917866D01*
X+6637896Y+920694D01*
X+6642100Y+920750D01*
X+6483350Y+762000D02*
X+6483880Y+749042D01*
X+6488184Y+723124D01*
X+6497175Y+697206D01*
X+6511820Y+671288D01*
X+6534224Y+645534D01*
X+6560142Y+626042D01*
X+6586060Y+613470D01*
X+6611978Y+606134D01*
X+6637896Y+603306D01*
X+6642100Y+603250D01*
X+6800850Y+762000D02*
X+6800320Y+749042D01*
X+6796016Y+723124D01*
X+6787025Y+697206D01*
X+6772380Y+671288D01*
X+6749976Y+645534D01*
X+6724058Y+626042D01*
X+6698140Y+613470D01*
X+6672222Y+606134D01*
X+6646304Y+603306D01*
X+6642100Y+603250D01*
X+6800850Y+3556000D02*
X+6800320Y+3568958D01*
X+6796016Y+3594876D01*
X+6787025Y+3620794D01*
X+6772380Y+3646712D01*
X+6749976Y+3672466D01*
X+6724058Y+3691958D01*
X+6698140Y+3704530D01*
X+6672222Y+3711866D01*
X+6646304Y+3714694D01*
X+6642100Y+3714750D01*
X+6483350Y+3556000D02*
X+6483880Y+3568958D01*
X+6488184Y+3594876D01*
X+6497175Y+3620794D01*
X+6511820Y+3646712D01*
X+6534224Y+3672466D01*
X+6560142Y+3691958D01*
X+6586060Y+3704530D01*
X+6611978Y+3711866D01*
X+6637896Y+3714694D01*
X+6642100Y+3714750D01*
X+6483350Y+3556000D02*
X+6483880Y+3543042D01*
X+6488184Y+3517124D01*
X+6497175Y+3491206D01*
X+6511820Y+3465288D01*
X+6534224Y+3439534D01*
X+6560142Y+3420042D01*
X+6586060Y+3407470D01*
X+6611978Y+3400134D01*
X+6637896Y+3397306D01*
X+6642100Y+3397250D01*
X+6800850Y+3556000D02*
X+6800320Y+3543042D01*
X+6796016Y+3517124D01*
X+6787025Y+3491206D01*
X+6772380Y+3465288D01*
X+6749976Y+3439534D01*
X+6724058Y+3420042D01*
X+6698140Y+3407470D01*
X+6672222Y+3400134D01*
X+6646304Y+3397306D01*
X+6642100Y+3397250D01*
X+1720850Y+5080000D02*
X+1720320Y+5092958D01*
X+1716016Y+5118876D01*
X+1707025Y+5144794D01*
X+1692380Y+5170712D01*
X+1669976Y+5196466D01*
X+1644058Y+5215958D01*
X+1618140Y+5228530D01*
X+1592222Y+5235866D01*
X+1566304Y+5238694D01*
X+1562100Y+5238750D01*
X+1403350Y+5080000D02*
X+1403880Y+5092958D01*
X+1408184Y+5118876D01*
X+1417175Y+5144794D01*
X+1431820Y+5170712D01*
X+1454224Y+5196466D01*
X+1480142Y+5215958D01*
X+1506060Y+5228530D01*
X+1531978Y+5235866D01*
X+1557896Y+5238694D01*
X+1562100Y+5238750D01*
X+1403350Y+5080000D02*
X+1403880Y+5067042D01*
X+1408184Y+5041124D01*
X+1417175Y+5015206D01*
X+1431820Y+4989288D01*
X+1454224Y+4963534D01*
X+1480142Y+4944042D01*
X+1506060Y+4931470D01*
X+1531978Y+4924134D01*
X+1557896Y+4921306D01*
X+1562100Y+4921250D01*
X+1720850Y+5080000D02*
X+1720320Y+5067042D01*
X+1716016Y+5041124D01*
X+1707025Y+5015206D01*
X+1692380Y+4989288D01*
X+1669976Y+4963534D01*
X+1644058Y+4944042D01*
X+1618140Y+4931470D01*
X+1592222Y+4924134D01*
X+1566304Y+4921306D01*
X+1562100Y+4921250D01*
X+1720850Y+254000D02*
X+1720320Y+266958D01*
X+1716016Y+292876D01*
X+1707025Y+318794D01*
X+1692380Y+344712D01*
X+1669976Y+370466D01*
X+1644058Y+389958D01*
X+1618140Y+402530D01*
X+1592222Y+409866D01*
X+1566304Y+412694D01*
X+1562100Y+412750D01*
X+1403350Y+254000D02*
X+1403880Y+266958D01*
X+1408184Y+292876D01*
X+1417175Y+318794D01*
X+1431820Y+344712D01*
X+1454224Y+370466D01*
X+1480142Y+389958D01*
X+1506060Y+402530D01*
X+1531978Y+409866D01*
X+1557896Y+412694D01*
X+1562100Y+412750D01*
X+1403350Y+254000D02*
X+1403880Y+241042D01*
X+1408184Y+215124D01*
X+1417175Y+189206D01*
X+1431820Y+163288D01*
X+1454224Y+137534D01*
X+1480142Y+118042D01*
X+1506060Y+105470D01*
X+1531978Y+98134D01*
X+1557896Y+95306D01*
X+1562100Y+95250D01*
X+1720850Y+254000D02*
X+1720320Y+241042D01*
X+1716016Y+215124D01*
X+1707025Y+189206D01*
X+1692380Y+163288D01*
X+1669976Y+137534D01*
X+1644058Y+118042D01*
X+1618140Y+105470D01*
X+1592222Y+98134D01*
X+1566304Y+95306D01*
X+1562100Y+95250D01*
X+127000Y+0D02*
X+101032Y+2527D01*
X+77018Y+9798D01*
X+55423Y+21347D01*
X+36711Y+36711D01*
X+21348Y+55423D01*
X+9798Y+77018D01*
X+2527Y+101032D01*
X+0Y+127000D01*
X+0Y+5207000D01*
X+2527Y+5232967D01*
X+9798Y+5256981D01*
X+21348Y+5278577D01*
X+36711Y+5297289D01*
X+55423Y+5312652D01*
X+77018Y+5324202D01*
X+101032Y+5331473D01*
X+127000Y+5334000D01*
X+6515100Y+5334000D01*
X+6642100Y+5207000D01*
X+6642100Y+4064000D01*
X+6896100Y+3810000D01*
X+6896100Y+508000D01*
X+6642100Y+254000D01*
X+6642100Y+127000D01*
X+6639573Y+101032D01*
X+6632302Y+77018D01*
X+6620752Y+55423D01*
X+6605389Y+36711D01*
X+6586677Y+21347D01*
X+6565081Y+9798D01*
X+6541067Y+2527D01*
X+6515100Y+0D01*
X+127000Y+0D01*
D45*
X+4475480Y+4945380D02*
X+6522720Y+4945380D01*
X+6522720Y+5214620D01*
X+4475480Y+5214620D01*
X+4475480Y+4945380D01*
D81*
X+4610100Y+5080000D02*
X+4610100Y+5080000D01*
D82*
X+5369865Y+5063845D02*
X+5369865Y+5047691D01*
X+5386019Y+5031536D01*
X+5450636Y+5031536D01*
X+5466791Y+5047691D01*
X+5466791Y+5128463D01*
X+5515254Y+5112308D02*
X+5531408Y+5128463D01*
X+5579871Y+5128463D01*
X+5596026Y+5112308D01*
X+5596026Y+5096154D01*
X+5579871Y+5080000D01*
X+5596026Y+5063845D01*
X+5596026Y+5047691D01*
X+5579871Y+5031536D01*
X+5531408Y+5031536D01*
X+5515254Y+5047691D01*
X+5547563Y+5080000D02*
X+5579871Y+5080000D01*
D45*
X+1783080Y+4945380D02*
X+4338320Y+4945380D01*
X+4338320Y+5214620D01*
X+1783080Y+5214620D01*
X+1783080Y+4945380D01*
D81*
X+1917700Y+5080000D02*
X+1917700Y+5080000D01*
D82*
X+2931465Y+5063845D02*
X+2931465Y+5047691D01*
X+2947619Y+5031536D01*
X+3012236Y+5031536D01*
X+3028391Y+5047691D01*
X+3028391Y+5128463D01*
X+3157626Y+5063845D02*
X+3060700Y+5063845D01*
X+3125317Y+5128463D01*
X+3125317Y+5031536D01*
D83*
X+5287145Y+2552700D02*
X+4775200Y+3064645D01*
X+4263254Y+2552700D01*
X+4775200Y+2040755D01*
X+5287145Y+2552700D01*
D84*
X+4838840Y+2213289D02*
X+4838840Y+2213289D01*
D85*
X+4861113Y+2363690D02*
X+4947027Y+2449604D01*
X+4947027Y+2483969D01*
X+4878296Y+2552700D01*
X+4843931Y+2552700D01*
X+4758017Y+2466787D01*
X+4723651Y+2535518D02*
X+4689286Y+2535518D01*
X+4637738Y+2587066D01*
X+4637738Y+2621431D01*
X+4654921Y+2638614D01*
X+4689286Y+2638614D01*
X+4689286Y+2672979D01*
X+4706469Y+2690162D01*
X+4740834Y+2690162D01*
X+4792382Y+2638614D01*
X+4792382Y+2604249D01*
X+4723651Y+2604249D02*
X+4689286Y+2638614D01*
D45*
X+2189480Y+119380D02*
X+4744720Y+119380D01*
X+4744720Y+388620D01*
X+2189480Y+388620D01*
X+2189480Y+119380D01*
D81*
X+2324100Y+254000D02*
X+2324100Y+254000D01*
D82*
X+3337865Y+237845D02*
X+3337865Y+221691D01*
X+3354019Y+205536D01*
X+3418636Y+205536D01*
X+3434791Y+221691D01*
X+3434791Y+302463D01*
X+3564026Y+302463D02*
X+3483254Y+302463D01*
X+3483254Y+270154D01*
X+3547871Y+270154D01*
X+3564026Y+254000D01*
X+3564026Y+221691D01*
X+3547871Y+205536D01*
X+3499408Y+205536D01*
X+3483254Y+221691D01*
D45*
X+4729480Y+119380D02*
X+6522720Y+119380D01*
X+6522720Y+388620D01*
X+4729480Y+388620D01*
X+4729480Y+119380D01*
D81*
X+4864100Y+254000D02*
X+4864100Y+254000D01*
D82*
X+5496865Y+237845D02*
X+5496865Y+221691D01*
X+5513019Y+205536D01*
X+5577636Y+205536D01*
X+5593791Y+221691D01*
X+5593791Y+302463D01*
X+5723026Y+286308D02*
X+5706871Y+302463D01*
X+5658408Y+302463D01*
X+5642254Y+286308D01*
X+5642254Y+221691D01*
X+5658408Y+205536D01*
X+5706871Y+205536D01*
X+5723026Y+221691D01*
X+5723026Y+237845D01*
X+5706871Y+254000D01*
X+5642254Y+254000D01*
D43*
X+1716650Y+2605200D02*
X+1676650Y+2605200D01*
X+1696650Y+2585200D02*
X+1696650Y+2625200D01*
X+1421650Y+2330200D02*
X+1971650Y+2330200D01*
X+1971650Y+2880200D01*
X+1421650Y+2880200D01*
X+1421650Y+2330200D01*
D86*
X+1891650Y+2485200D02*
X+1891650Y+2485200D01*
D87*
X+1549306Y+2660454D02*
X+1549306Y+2568364D01*
X+1567724Y+2549946D01*
X+1641396Y+2549946D01*
X+1659814Y+2568364D01*
X+1659814Y+2660454D01*
X+1715068Y+2642036D02*
X+1733486Y+2660454D01*
X+1788740Y+2660454D01*
X+1807158Y+2642036D01*
X+1807158Y+2623618D01*
X+1788740Y+2605200D01*
X+1733486Y+2605200D01*
X+1715068Y+2586782D01*
X+1715068Y+2549946D01*
X+1807158Y+2549946D01*
D43*
X+486650Y+2752700D02*
X+486547Y+2755189D01*
X+485705Y+2760169D01*
X+483945Y+2765149D01*
X+481068Y+2770129D01*
X+476667Y+2775045D01*
X+471687Y+2778659D01*
X+466707Y+2780964D01*
X+461727Y+2782267D01*
X+456747Y+2782700D01*
X+456650Y+2782700D01*
X+426650Y+2752700D02*
X+426753Y+2755189D01*
X+427595Y+2760169D01*
X+429355Y+2765149D01*
X+432232Y+2770129D01*
X+436633Y+2775045D01*
X+441613Y+2778659D01*
X+446593Y+2780964D01*
X+451573Y+2782267D01*
X+456553Y+2782700D01*
X+456650Y+2782700D01*
X+426650Y+2752700D02*
X+426753Y+2750211D01*
X+427595Y+2745231D01*
X+429355Y+2740251D01*
X+432232Y+2735271D01*
X+436633Y+2730355D01*
X+441613Y+2726741D01*
X+446593Y+2724436D01*
X+451573Y+2723133D01*
X+456553Y+2722700D01*
X+456650Y+2722700D01*
X+486650Y+2752700D02*
X+486547Y+2750211D01*
X+485705Y+2745231D01*
X+483945Y+2740251D01*
X+481068Y+2735271D01*
X+476667Y+2730355D01*
X+471687Y+2726741D01*
X+466707Y+2724436D01*
X+461727Y+2723133D01*
X+456747Y+2722700D01*
X+456650Y+2722700D01*
X+486650Y+2352700D02*
X+486547Y+2355189D01*
X+485705Y+2360169D01*
X+483945Y+2365149D01*
X+481068Y+2370129D01*
X+476667Y+2375045D01*
X+471687Y+2378659D01*
X+466707Y+2380964D01*
X+461727Y+2382267D01*
X+456747Y+2382700D01*
X+456650Y+2382700D01*
X+426650Y+2352700D02*
X+426753Y+2355189D01*
X+427595Y+2360169D01*
X+429355Y+2365149D01*
X+432232Y+2370129D01*
X+436633Y+2375045D01*
X+441613Y+2378659D01*
X+446593Y+2380964D01*
X+451573Y+2382267D01*
X+456553Y+2382700D01*
X+456650Y+2382700D01*
X+426650Y+2352700D02*
X+426753Y+2350211D01*
X+427595Y+2345231D01*
X+429355Y+2340251D01*
X+432232Y+2335271D01*
X+436633Y+2330355D01*
X+441613Y+2326741D01*
X+446593Y+2324436D01*
X+451573Y+2323133D01*
X+456553Y+2322700D01*
X+456650Y+2322700D01*
X+486650Y+2352700D02*
X+486547Y+2350211D01*
X+485705Y+2345231D01*
X+483945Y+2340251D01*
X+481068Y+2335271D01*
X+476667Y+2330355D01*
X+471687Y+2326741D01*
X+466707Y+2324436D01*
X+461727Y+2323133D01*
X+456747Y+2322700D01*
X+456650Y+2322700D01*
X+456650Y+2367700D02*
X+456650Y+2337700D01*
X+471650Y+2352700D02*
X+441650Y+2352700D01*
X+456650Y+2767700D02*
X+456650Y+2737700D01*
X+471650Y+2752700D02*
X+441650Y+2752700D01*
X-38350Y+2037700D02*
X+611650Y+2037700D01*
X+611650Y+3067700D01*
X-38350Y+3067700D01*
X-38350Y+2037700D01*
D13*
X+501650Y+2682700D02*
X+501650Y+2682700D01*
D88*
X+321068Y+2277356D02*
X+355486Y+2277356D01*
X+389904Y+2311774D01*
X+389904Y+2449446D01*
X+355486Y+2483864D01*
X+183396Y+2483864D01*
X+252232Y+2621536D02*
X+183396Y+2690372D01*
X+389904Y+2690372D01*
D43*
X+533400Y+101600D02*
X+990600Y+101600D01*
X+990600Y+431800D01*
X+533400Y+431800D01*
X+533400Y+101600D01*
D13*
X+889000Y+203200D02*
X+889000Y+203200D01*
D89*
X+639404Y+251375D02*
X+639404Y+236050D01*
X+654728Y+220726D01*
X+716026Y+220726D01*
X+731351Y+236050D01*
X+731351Y+312673D01*
X+777324Y+297349D02*
X+792649Y+312673D01*
X+838622Y+312673D01*
X+853947Y+297349D01*
X+853947Y+282024D01*
X+838622Y+266700D01*
X+792649Y+266700D01*
X+777324Y+251375D01*
X+777324Y+220726D01*
X+853947Y+220726D01*
D43*
X+1181550Y+1669500D02*
X+1421550Y+1669500D01*
X+1421550Y+1889500D01*
X+1181550Y+1889500D01*
X+1181550Y+1669500D01*
D90*
X+1214050Y+1829500D02*
X+1214050Y+1829500D01*
D91*
X+1236874Y+1803753D02*
X+1236874Y+1763330D01*
X+1244958Y+1755246D01*
X+1277296Y+1755246D01*
X+1285381Y+1763330D01*
X+1285381Y+1803753D01*
X+1317719Y+1787584D02*
X+1333888Y+1803753D01*
X+1333888Y+1755246D01*
D43*
X+180700Y+3869650D02*
X+565700Y+3869650D01*
X+565700Y+4479650D01*
X+180700Y+4479650D01*
X+180700Y+3869650D01*
D12*
X+485700Y+3944650D02*
X+485700Y+3944650D01*
D92*
X+419140Y+3990888D02*
X+327259Y+3990888D01*
X+327259Y+4067455D01*
X+342573Y+4082769D01*
X+357886Y+4082769D01*
X+373200Y+4067455D01*
X+388513Y+4082769D01*
X+403827Y+4082769D01*
X+419140Y+4067455D01*
X+419140Y+3990888D01*
X+373200Y+3990888D02*
X+373200Y+4067455D01*
X+327259Y+4113396D02*
X+327259Y+4205277D01*
X+327259Y+4159336D02*
X+419140Y+4159336D01*
X+357886Y+4266531D02*
X+327259Y+4297158D01*
X+419140Y+4297158D01*
D43*
X+180700Y+4622500D02*
X+565700Y+4622500D01*
X+565700Y+5232500D01*
X+180700Y+5232500D01*
X+180700Y+4622500D01*
D12*
X+485700Y+4697500D02*
X+485700Y+4697500D01*
D92*
X+419140Y+4743738D02*
X+327259Y+4743738D01*
X+327259Y+4820305D01*
X+342573Y+4835619D01*
X+357886Y+4835619D01*
X+373200Y+4820305D01*
X+388513Y+4835619D01*
X+403827Y+4835619D01*
X+419140Y+4820305D01*
X+419140Y+4743738D01*
X+373200Y+4743738D02*
X+373200Y+4820305D01*
X+327259Y+4866246D02*
X+327259Y+4958127D01*
X+327259Y+4912186D02*
X+419140Y+4912186D01*
X+342573Y+5004067D02*
X+327259Y+5019381D01*
X+327259Y+5065321D01*
X+342573Y+5080635D01*
X+357886Y+5080635D01*
X+373200Y+5065321D01*
X+373200Y+5019381D01*
X+388513Y+5004067D01*
X+419140Y+5004067D01*
X+419140Y+5080635D01*
D43*
X+178150Y+1480825D02*
X+305150Y+1480825D01*
X+305150Y+1772925D01*
X+178150Y+1772925D01*
X+178150Y+1480825D01*
D46*
X+241650Y+1544450D02*
X+241650Y+1544450D01*
D93*
X+264968Y+1564696D02*
X+218333Y+1564696D01*
X+218333Y+1595785D01*
X+233878Y+1611330D01*
X+249423Y+1611330D01*
X+264968Y+1595785D01*
X+264968Y+1564696D01*
X+233878Y+1642419D02*
X+218333Y+1657964D01*
X+264968Y+1657964D01*
D43*
X+178150Y+369475D02*
X+305150Y+369475D01*
X+305150Y+661575D01*
X+178150Y+661575D01*
X+178150Y+369475D01*
D46*
X+241650Y+433100D02*
X+241650Y+433100D01*
D93*
X+264968Y+453346D02*
X+218333Y+453346D01*
X+218333Y+484435D01*
X+233878Y+499980D01*
X+249423Y+499980D01*
X+264968Y+484435D01*
X+264968Y+453346D01*
X+226106Y+523297D02*
X+218333Y+531069D01*
X+218333Y+554386D01*
X+226106Y+562159D01*
X+233878Y+562159D01*
X+241650Y+554386D01*
X+241650Y+531069D01*
X+249423Y+523297D01*
X+264968Y+523297D01*
X+264968Y+562159D01*
D43*
X+178150Y+953675D02*
X+305150Y+953675D01*
X+305150Y+1245775D01*
X+178150Y+1245775D01*
X+178150Y+953675D01*
D46*
X+241650Y+1017300D02*
X+241650Y+1017300D01*
D93*
X+264968Y+1037546D02*
X+218333Y+1037546D01*
X+218333Y+1068635D01*
X+233878Y+1084180D01*
X+249423Y+1084180D01*
X+264968Y+1068635D01*
X+264968Y+1037546D01*
X+226106Y+1107497D02*
X+218333Y+1115269D01*
X+218333Y+1138586D01*
X+226106Y+1146359D01*
X+233878Y+1146359D01*
X+241650Y+1138586D01*
X+249423Y+1146359D01*
X+257195Y+1146359D01*
X+264968Y+1138586D01*
X+264968Y+1115269D01*
X+257195Y+1107497D01*
X+241650Y+1123042D02*
X+241650Y+1138586D01*
D43*
X+676650Y+2665200D02*
X+1286650Y+2665200D01*
X+1286650Y+3025200D01*
X+676650Y+3025200D01*
X+676650Y+2665200D01*
D94*
X+771650Y+2845200D02*
X+771650Y+2845200D01*
D95*
X+818306Y+2783946D02*
X+818306Y+2906454D01*
X+940814Y+2906454D01*
X+818306Y+2845200D02*
X+899978Y+2845200D01*
X+1022486Y+2865618D02*
X+1063322Y+2906454D01*
X+1063322Y+2783946D01*
D43*
X+610805Y+1926350D02*
X+775905Y+1926350D01*
X+775905Y+2237500D01*
X+610805Y+2237500D01*
X+610805Y+1926350D01*
D96*
X+693350Y+2002550D02*
X+693350Y+2002550D01*
D97*
X+713472Y+2061808D02*
X+723531Y+2051749D01*
X+723531Y+2021574D01*
X+703414Y+2001458D01*
X+683297Y+2001458D01*
X+663180Y+2021574D01*
X+663180Y+2051749D01*
X+673239Y+2061808D01*
X+683297Y+2102041D02*
X+663180Y+2122158D01*
X+723531Y+2122158D01*
D43*
X+776200Y+1730050D02*
X+1131200Y+1730050D01*
X+1131200Y+2295050D01*
X+776200Y+2295050D01*
X+776200Y+1730050D01*
D98*
X+953700Y+2162550D02*
X+953700Y+2162550D01*
D99*
X+991536Y+1974714D02*
X+1010454Y+1955796D01*
X+1010454Y+1899042D01*
X+972618Y+1861206D01*
X+934782Y+1861206D01*
X+896946Y+1899042D01*
X+896946Y+1955796D01*
X+915864Y+1974714D01*
X+915864Y+2031468D02*
X+896946Y+2050386D01*
X+896946Y+2107140D01*
X+915864Y+2126058D01*
X+934782Y+2126058D01*
X+953700Y+2107140D01*
X+953700Y+2050386D01*
X+972618Y+2031468D01*
X+1010454Y+2031468D01*
X+1010454Y+2126058D01*
D43*
X+1461705Y+1607600D02*
X+1626805Y+1607600D01*
X+1626805Y+1918750D01*
X+1461705Y+1918750D01*
X+1461705Y+1607600D01*
D96*
X+1544250Y+1683800D02*
X+1544250Y+1683800D01*
D97*
X+1574431Y+1682708D02*
X+1514080Y+1682708D01*
X+1514080Y+1732999D01*
X+1524139Y+1743058D01*
X+1534197Y+1743058D01*
X+1544255Y+1732999D01*
X+1544255Y+1682708D01*
X+1544255Y+1732999D02*
X+1554314Y+1743058D01*
X+1574431Y+1743058D01*
X+1534197Y+1783291D02*
X+1514080Y+1803408D01*
X+1574431Y+1803408D01*
D43*
X+1461705Y+1926350D02*
X+1626805Y+1926350D01*
X+1626805Y+2237500D01*
X+1461705Y+2237500D01*
X+1461705Y+1926350D01*
D96*
X+1544250Y+2002550D02*
X+1544250Y+2002550D01*
D97*
X+1574431Y+2001458D02*
X+1514080Y+2001458D01*
X+1514080Y+2051749D01*
X+1524139Y+2061808D01*
X+1534197Y+2061808D01*
X+1544255Y+2051749D01*
X+1544255Y+2001458D01*
X+1544255Y+2051749D02*
X+1554314Y+2061808D01*
X+1574431Y+2061808D01*
X+1524139Y+2091983D02*
X+1514080Y+2102041D01*
X+1514080Y+2132216D01*
X+1524139Y+2142275D01*
X+1534197Y+2142275D01*
X+1544255Y+2132216D01*
X+1544255Y+2102041D01*
X+1554314Y+2091983D01*
X+1574431Y+2091983D01*
X+1574431Y+2142275D01*
D45*
X+4465654Y+2014554D02*
X+4630894Y+2014554D01*
X+4630894Y+2179794D01*
X+4465654Y+2179794D01*
X+4465654Y+2014554D01*
D100*
X+4498702Y+2109567D02*
X+4523488Y+2109567D01*
X+4511095Y+2109567D02*
X+4511095Y+2084781D01*
X+4531750Y+2084781D02*
X+4531750Y+2109567D01*
X+4552405Y+2109567D01*
X+4556536Y+2105436D01*
X+4556536Y+2101305D01*
X+4552405Y+2097174D01*
X+4531750Y+2097174D01*
X+4573060Y+2101305D02*
X+4581322Y+2109567D01*
X+4581322Y+2084781D01*
D45*
X+4351354Y+2128854D02*
X+4516594Y+2128854D01*
X+4516594Y+2294094D01*
X+4351354Y+2294094D01*
X+4351354Y+2128854D01*
D100*
X+4384402Y+2223867D02*
X+4409188Y+2223867D01*
X+4396795Y+2223867D02*
X+4396795Y+2199081D01*
X+4417450Y+2199081D02*
X+4417450Y+2223867D01*
X+4438105Y+2223867D01*
X+4442236Y+2219736D01*
X+4442236Y+2215605D01*
X+4438105Y+2211474D01*
X+4417450Y+2211474D01*
X+4454629Y+2219736D02*
X+4458760Y+2223867D01*
X+4471153Y+2223867D01*
X+4475284Y+2219736D01*
X+4475284Y+2215605D01*
X+4471153Y+2211474D01*
X+4458760Y+2211474D01*
X+4454629Y+2207343D01*
X+4454629Y+2199081D01*
X+4475284Y+2199081D01*
D45*
X+4237054Y+2243154D02*
X+4402294Y+2243154D01*
X+4402294Y+2408394D01*
X+4237054Y+2408394D01*
X+4237054Y+2243154D01*
D100*
X+4270102Y+2338167D02*
X+4294888Y+2338167D01*
X+4282495Y+2338167D02*
X+4282495Y+2313381D01*
X+4303150Y+2313381D02*
X+4303150Y+2338167D01*
X+4323805Y+2338167D01*
X+4327936Y+2334036D01*
X+4327936Y+2329905D01*
X+4323805Y+2325774D01*
X+4303150Y+2325774D01*
X+4340329Y+2334036D02*
X+4344460Y+2338167D01*
X+4356853Y+2338167D01*
X+4360984Y+2334036D01*
X+4360984Y+2329905D01*
X+4356853Y+2325774D01*
X+4360984Y+2321643D01*
X+4360984Y+2317512D01*
X+4356853Y+2313381D01*
X+4344460Y+2313381D01*
X+4340329Y+2317512D01*
X+4348591Y+2325774D02*
X+4356853Y+2325774D01*
D45*
X+208630Y+3327430D02*
X+439770Y+3327430D01*
X+439770Y+3609370D01*
X+208630Y+3609370D01*
X+208630Y+3327430D01*
D101*
X+303054Y+3383818D02*
X+303054Y+3426109D01*
X+303054Y+3404963D02*
X+345345Y+3404963D01*
X+345345Y+3440206D02*
X+303054Y+3440206D01*
X+303054Y+3475448D01*
X+310103Y+3482497D01*
X+317151Y+3482497D01*
X+324200Y+3475448D01*
X+324200Y+3440206D01*
X+331248Y+3538885D02*
X+331248Y+3496594D01*
X+303054Y+3524788D01*
X+345345Y+3524788D01*
D43*
X+486650Y+2352700D02*
X+486547Y+2355189D01*
X+485705Y+2360169D01*
X+483945Y+2365149D01*
X+481068Y+2370129D01*
X+476667Y+2375045D01*
X+471687Y+2378659D01*
X+466707Y+2380964D01*
X+461727Y+2382267D01*
X+456747Y+2382700D01*
X+456650Y+2382700D01*
X+426650Y+2352700D02*
X+426753Y+2355189D01*
X+427595Y+2360169D01*
X+429355Y+2365149D01*
X+432232Y+2370129D01*
X+436633Y+2375045D01*
X+441613Y+2378659D01*
X+446593Y+2380964D01*
X+451573Y+2382267D01*
X+456553Y+2382700D01*
X+456650Y+2382700D01*
X+426650Y+2352700D02*
X+426753Y+2350211D01*
X+427595Y+2345231D01*
X+429355Y+2340251D01*
X+432232Y+2335271D01*
X+436633Y+2330355D01*
X+441613Y+2326741D01*
X+446593Y+2324436D01*
X+451573Y+2323133D01*
X+456553Y+2322700D01*
X+456650Y+2322700D01*
X+486650Y+2352700D02*
X+486547Y+2350211D01*
X+485705Y+2345231D01*
X+483945Y+2340251D01*
X+481068Y+2335271D01*
X+476667Y+2330355D01*
X+471687Y+2326741D01*
X+466707Y+2324436D01*
X+461727Y+2323133D01*
X+456747Y+2322700D01*
X+456650Y+2322700D01*
X+486650Y+2752700D02*
X+486547Y+2755189D01*
X+485705Y+2760169D01*
X+483945Y+2765149D01*
X+481068Y+2770129D01*
X+476667Y+2775045D01*
X+471687Y+2778659D01*
X+466707Y+2780964D01*
X+461727Y+2782267D01*
X+456747Y+2782700D01*
X+456650Y+2782700D01*
X+426650Y+2752700D02*
X+426753Y+2755189D01*
X+427595Y+2760169D01*
X+429355Y+2765149D01*
X+432232Y+2770129D01*
X+436633Y+2775045D01*
X+441613Y+2778659D01*
X+446593Y+2780964D01*
X+451573Y+2782267D01*
X+456553Y+2782700D01*
X+456650Y+2782700D01*
X+426650Y+2752700D02*
X+426753Y+2750211D01*
X+427595Y+2745231D01*
X+429355Y+2740251D01*
X+432232Y+2735271D01*
X+436633Y+2730355D01*
X+441613Y+2726741D01*
X+446593Y+2724436D01*
X+451573Y+2723133D01*
X+456553Y+2722700D01*
X+456650Y+2722700D01*
X+486650Y+2752700D02*
X+486547Y+2750211D01*
X+485705Y+2745231D01*
X+483945Y+2740251D01*
X+481068Y+2735271D01*
X+476667Y+2730355D01*
X+471687Y+2726741D01*
X+466707Y+2724436D01*
X+461727Y+2723133D01*
X+456747Y+2722700D01*
X+456650Y+2722700D01*
X+4474353Y+2863100D02*
X+4734780Y+3123527D01*
X+4600077Y+3258231D01*
X+4339649Y+2997804D01*
X+4474353Y+2863100D01*
D102*
X+4460886Y+2984337D02*
X+4460886Y+2984337D01*
D103*
X+4510993Y+3008221D02*
X+4510993Y+2995110D01*
X+4491326Y+2975443D01*
X+4465104Y+2975443D01*
X+4451992Y+2988555D01*
X+4451992Y+3014777D01*
X+4471659Y+3034444D01*
X+4484770Y+3034444D01*
X+4517549Y+3054111D02*
X+4517549Y+3080333D01*
X+4556882Y+3041000D01*
X+4556881Y+3106555D02*
X+4556881Y+3119666D01*
X+4576548Y+3139333D01*
X+4589659Y+3139333D01*
X+4596215Y+3132777D01*
X+4596215Y+3119666D01*
X+4576548Y+3099999D01*
X+4576548Y+3086888D01*
X+4589659Y+3073777D01*
X+4622437Y+3106555D01*
D43*
X+4357430Y+3018130D02*
X+4577446Y+3238146D01*
X+4460703Y+3354890D01*
X+4240687Y+3134873D01*
X+4357430Y+3018130D01*
D104*
X+4352936Y+3130387D02*
X+4352936Y+3130387D01*
D105*
X+4386885Y+3142147D02*
X+4386885Y+3131057D01*
X+4370250Y+3114422D01*
X+4348069Y+3114422D01*
X+4336979Y+3125512D01*
X+4336979Y+3147693D01*
X+4353614Y+3164328D01*
X+4364704Y+3164328D01*
X+4392431Y+3180965D02*
X+4392431Y+3203145D01*
X+4425702Y+3169874D01*
X+4425703Y+3225327D02*
X+4425703Y+3236417D01*
X+4442338Y+3253052D01*
X+4453428Y+3253052D01*
X+4458973Y+3247507D01*
X+4458973Y+3236417D01*
X+4470064Y+3236416D01*
X+4475609Y+3230871D01*
X+4475609Y+3219781D01*
X+4458974Y+3203146D01*
X+4447884Y+3203146D01*
X+4447883Y+3225327D02*
X+4458973Y+3236417D01*
D43*
X+1447095Y+3030050D02*
X+1612195Y+3030050D01*
X+1612195Y+3341200D01*
X+1447095Y+3341200D01*
X+1447095Y+3030050D01*
D96*
X+1529650Y+3265000D02*
X+1529650Y+3265000D01*
D97*
X+1559821Y+3105158D02*
X+1499470Y+3105158D01*
X+1499470Y+3155449D01*
X+1509529Y+3165508D01*
X+1519587Y+3165508D01*
X+1529645Y+3155449D01*
X+1529645Y+3105158D01*
X+1529645Y+3155449D02*
X+1539704Y+3165508D01*
X+1559821Y+3165508D01*
X+1509529Y+3195683D02*
X+1499470Y+3205741D01*
X+1499470Y+3235916D01*
X+1509529Y+3245975D01*
X+1519587Y+3245975D01*
X+1529645Y+3235916D01*
X+1539704Y+3245975D01*
X+1549762Y+3245975D01*
X+1559821Y+3235916D01*
X+1559821Y+3205741D01*
X+1549762Y+3195683D01*
X+1529645Y+3215800D02*
X+1529645Y+3235916D01*
D43*
X+1612195Y+3030050D02*
X+1777295Y+3030050D01*
X+1777295Y+3341200D01*
X+1612195Y+3341200D01*
X+1612195Y+3030050D01*
D96*
X+1694750Y+3265000D02*
X+1694750Y+3265000D01*
D97*
X+1724921Y+3105158D02*
X+1664570Y+3105158D01*
X+1664570Y+3155449D01*
X+1674629Y+3165508D01*
X+1684687Y+3165508D01*
X+1694745Y+3155449D01*
X+1694745Y+3105158D01*
X+1694745Y+3155449D02*
X+1704804Y+3165508D01*
X+1724921Y+3165508D01*
X+1674629Y+3245975D02*
X+1664570Y+3235916D01*
X+1664570Y+3205741D01*
X+1674629Y+3195683D01*
X+1714862Y+3195683D01*
X+1724921Y+3205741D01*
X+1724921Y+3235916D01*
X+1714862Y+3245975D01*
X+1704804Y+3245975D01*
X+1694745Y+3235916D01*
X+1694745Y+3195683D01*
D43*
X+1626795Y+1927600D02*
X+1791895Y+1927600D01*
X+1791895Y+2238750D01*
X+1626795Y+2238750D01*
X+1626795Y+1927600D01*
D96*
X+1709350Y+2162550D02*
X+1709350Y+2162550D01*
D97*
X+1729462Y+2063058D02*
X+1739521Y+2052999D01*
X+1739521Y+2022824D01*
X+1719404Y+2002708D01*
X+1699287Y+2002708D01*
X+1679170Y+2022824D01*
X+1679170Y+2052999D01*
X+1689229Y+2063058D01*
X+1699287Y+2143525D02*
X+1709345Y+2133466D01*
X+1709345Y+2103291D01*
X+1699287Y+2093233D01*
X+1689229Y+2093233D01*
X+1679170Y+2103291D01*
X+1679170Y+2133466D01*
X+1689229Y+2143525D01*
X+1729462Y+2143525D01*
X+1739521Y+2133466D01*
X+1739521Y+2103291D01*
D43*
X+1777300Y+3028795D02*
X+1967800Y+3028795D01*
X+1967800Y+3397095D01*
X+1777300Y+3397095D01*
X+1777300Y+3028795D01*
D106*
X+1872550Y+3105000D02*
X+1872550Y+3105000D01*
D107*
X+1895715Y+3189780D02*
X+1907298Y+3178197D01*
X+1907298Y+3143450D01*
X+1884133Y+3120286D01*
X+1860968Y+3120286D01*
X+1837803Y+3143450D01*
X+1837803Y+3178197D01*
X+1849386Y+3189780D01*
X+1872550Y+3236109D02*
X+1860968Y+3224527D01*
X+1849386Y+3224527D01*
X+1837803Y+3236109D01*
X+1837803Y+3270856D01*
X+1849386Y+3282439D01*
X+1860968Y+3282439D01*
X+1872550Y+3270856D01*
X+1872550Y+3236109D01*
X+1884133Y+3224527D01*
X+1895715Y+3224527D01*
X+1907298Y+3236109D01*
X+1907298Y+3270856D01*
X+1895715Y+3282439D01*
X+1884133Y+3282439D01*
X+1872550Y+3270856D01*
D43*
X+1967805Y+3028800D02*
X+2132905Y+3028800D01*
X+2132905Y+3339950D01*
X+1967805Y+3339950D01*
X+1967805Y+3028800D01*
D96*
X+2050350Y+3105000D02*
X+2050350Y+3105000D01*
D105*
X+2066040Y+3137322D02*
X+2073882Y+3129480D01*
X+2073882Y+3105954D01*
X+2058198Y+3090270D01*
X+2042513Y+3090270D01*
X+2026829Y+3105954D01*
X+2026829Y+3129480D01*
X+2034671Y+3137322D01*
X+2042513Y+3168691D02*
X+2026829Y+3184375D01*
X+2073882Y+3184375D01*
X+2026829Y+3262796D02*
X+2026829Y+3223586D01*
X+2042513Y+3223586D01*
X+2042513Y+3254954D01*
X+2050355Y+3262796D01*
X+2066040Y+3262796D01*
X+2073882Y+3254954D01*
X+2073882Y+3231428D01*
X+2066040Y+3223586D01*
D43*
X+932755Y+3028800D02*
X+1097855Y+3028800D01*
X+1097855Y+3339950D01*
X+932755Y+3339950D01*
X+932755Y+3028800D01*
D96*
X+1015300Y+3105000D02*
X+1015300Y+3105000D01*
D105*
X+1030990Y+3137322D02*
X+1038832Y+3129480D01*
X+1038832Y+3105954D01*
X+1023148Y+3090270D01*
X+1007463Y+3090270D01*
X+991779Y+3105954D01*
X+991779Y+3129480D01*
X+999621Y+3137322D01*
X+1007463Y+3168691D02*
X+991779Y+3184375D01*
X+1038832Y+3184375D01*
X+1030990Y+3215744D02*
X+999621Y+3215744D01*
X+991779Y+3223586D01*
X+991779Y+3254954D01*
X+999621Y+3262796D01*
X+1030990Y+3262796D01*
X+1038832Y+3254954D01*
X+1038832Y+3223586D01*
X+1030990Y+3215744D01*
X+1038832Y+3215744D02*
X+991779Y+3262796D01*
D43*
X+1097850Y+3028795D02*
X+1288350Y+3028795D01*
X+1288350Y+3397095D01*
X+1097850Y+3397095D01*
X+1097850Y+3028795D01*
D106*
X+1193100Y+3105000D02*
X+1193100Y+3105000D01*
D103*
X+1211642Y+3157319D02*
X+1220913Y+3148048D01*
X+1220913Y+3120235D01*
X+1202371Y+3101693D01*
X+1183829Y+3101693D01*
X+1165287Y+3120235D01*
X+1165287Y+3148048D01*
X+1174558Y+3157319D01*
X+1183829Y+3194403D02*
X+1165287Y+3212945D01*
X+1220913Y+3212945D01*
X+1202371Y+3305655D02*
X+1202371Y+3250029D01*
X+1165287Y+3287113D01*
X+1220913Y+3287113D01*
D43*
X+975750Y+2337205D02*
X+1286900Y+2337205D01*
X+1286900Y+2502305D01*
X+975750Y+2502305D01*
X+975750Y+2337205D01*
D96*
X+1210700Y+2419750D02*
X+1210700Y+2419750D01*
D105*
X+1084272Y+2404070D02*
X+1076430Y+2396228D01*
X+1052904Y+2396228D01*
X+1037220Y+2411912D01*
X+1037220Y+2427597D01*
X+1052904Y+2443281D01*
X+1076430Y+2443281D01*
X+1084272Y+2435439D01*
X+1115641Y+2427597D02*
X+1131325Y+2443281D01*
X+1131325Y+2396228D01*
X+1178378Y+2427597D02*
X+1194062Y+2443281D01*
X+1194062Y+2396228D01*
D43*
X+767655Y+3028800D02*
X+932755Y+3028800D01*
X+932755Y+3339950D01*
X+767655Y+3339950D01*
X+767655Y+3028800D01*
D96*
X+850200Y+3105000D02*
X+850200Y+3105000D01*
D105*
X+873732Y+3090270D02*
X+826679Y+3090270D01*
X+826679Y+3129480D01*
X+834521Y+3137322D01*
X+842363Y+3137322D01*
X+850205Y+3129480D01*
X+850205Y+3090270D01*
X+850205Y+3129480D02*
X+858048Y+3137322D01*
X+873732Y+3137322D01*
X+842363Y+3168691D02*
X+826679Y+3184375D01*
X+873732Y+3184375D01*
X+842363Y+3231428D02*
X+826679Y+3247112D01*
X+873732Y+3247112D01*
D43*
X+2134200Y+2710605D02*
X+2445350Y+2710605D01*
X+2445350Y+2875705D01*
X+2134200Y+2875705D01*
X+2134200Y+2710605D01*
D96*
X+2369150Y+2793150D02*
X+2369150Y+2793150D01*
D97*
X+2209308Y+2762979D02*
X+2209308Y+2823330D01*
X+2259599Y+2823330D01*
X+2269658Y+2813271D01*
X+2269658Y+2803213D01*
X+2259599Y+2793155D01*
X+2209308Y+2793155D01*
X+2259599Y+2793155D02*
X+2269658Y+2783096D01*
X+2269658Y+2762979D01*
X+2350125Y+2803213D02*
X+2340066Y+2793155D01*
X+2309891Y+2793155D01*
X+2299833Y+2803213D01*
X+2299833Y+2813271D01*
X+2309891Y+2823330D01*
X+2340066Y+2823330D01*
X+2350125Y+2813271D01*
X+2350125Y+2773038D01*
X+2340066Y+2762979D01*
X+2309891Y+2762979D01*
D43*
X+2134200Y+2380405D02*
X+2445350Y+2380405D01*
X+2445350Y+2545505D01*
X+2134200Y+2545505D01*
X+2134200Y+2380405D01*
D96*
X+2369150Y+2462950D02*
X+2369150Y+2462950D01*
D97*
X+2209308Y+2432779D02*
X+2209308Y+2493130D01*
X+2259599Y+2493130D01*
X+2269658Y+2483071D01*
X+2269658Y+2473013D01*
X+2259599Y+2462955D01*
X+2209308Y+2462955D01*
X+2259599Y+2462955D02*
X+2269658Y+2452896D01*
X+2269658Y+2432779D01*
X+2299833Y+2493130D02*
X+2350125Y+2493130D01*
X+2350125Y+2483071D01*
X+2299833Y+2432779D01*
D43*
X+1791905Y+1926350D02*
X+1957005Y+1926350D01*
X+1957005Y+2237500D01*
X+1791905Y+2237500D01*
X+1791905Y+1926350D01*
D96*
X+1874450Y+2002550D02*
X+1874450Y+2002550D01*
D97*
X+1904631Y+2001458D02*
X+1844280Y+2001458D01*
X+1844280Y+2051749D01*
X+1854339Y+2061808D01*
X+1864397Y+2061808D01*
X+1874455Y+2051749D01*
X+1874455Y+2001458D01*
X+1874455Y+2051749D02*
X+1884514Y+2061808D01*
X+1904631Y+2061808D01*
X+1874455Y+2102041D02*
X+1864397Y+2091983D01*
X+1854339Y+2091983D01*
X+1844280Y+2102041D01*
X+1844280Y+2132216D01*
X+1854339Y+2142275D01*
X+1864397Y+2142275D01*
X+1874455Y+2132216D01*
X+1874455Y+2102041D01*
X+1884514Y+2091983D01*
X+1894572Y+2091983D01*
X+1904631Y+2102041D01*
X+1904631Y+2132216D01*
X+1894572Y+2142275D01*
X+1884514Y+2142275D01*
X+1874455Y+2132216D01*
D43*
X+2134200Y+2545505D02*
X+2445350Y+2545505D01*
X+2445350Y+2710605D01*
X+2134200Y+2710605D01*
X+2134200Y+2545505D01*
D96*
X+2369150Y+2628050D02*
X+2369150Y+2628050D01*
D97*
X+2209308Y+2597879D02*
X+2209308Y+2658230D01*
X+2259599Y+2658230D01*
X+2269658Y+2648171D01*
X+2269658Y+2638113D01*
X+2259599Y+2628055D01*
X+2209308Y+2628055D01*
X+2259599Y+2628055D02*
X+2269658Y+2617996D01*
X+2269658Y+2597879D01*
X+2350125Y+2617996D02*
X+2289775Y+2617996D01*
X+2330008Y+2658230D01*
X+2330008Y+2597879D01*
D43*
X+305145Y+947350D02*
X+470245Y+947350D01*
X+470245Y+1258500D01*
X+305145Y+1258500D01*
X+305145Y+947350D01*
D96*
X+387700Y+1182300D02*
X+387700Y+1182300D01*
D97*
X+417871Y+1022458D02*
X+357520Y+1022458D01*
X+357520Y+1072749D01*
X+367579Y+1082808D01*
X+377637Y+1082808D01*
X+387695Y+1072749D01*
X+387695Y+1022458D01*
X+387695Y+1072749D02*
X+397754Y+1082808D01*
X+417871Y+1082808D01*
X+357520Y+1163275D02*
X+357520Y+1112983D01*
X+377637Y+1112983D01*
X+377637Y+1153216D01*
X+387695Y+1163275D01*
X+407812Y+1163275D01*
X+417871Y+1153216D01*
X+417871Y+1123041D01*
X+407812Y+1112983D01*
D43*
X+305145Y+1474500D02*
X+470245Y+1474500D01*
X+470245Y+1785650D01*
X+305145Y+1785650D01*
X+305145Y+1474500D01*
D96*
X+387700Y+1709450D02*
X+387700Y+1709450D01*
D105*
X+411222Y+1535970D02*
X+364169Y+1535970D01*
X+364169Y+1575180D01*
X+372011Y+1583022D01*
X+379853Y+1583022D01*
X+387695Y+1575180D01*
X+387695Y+1535970D01*
X+387695Y+1575180D02*
X+395538Y+1583022D01*
X+411222Y+1583022D01*
X+379853Y+1614391D02*
X+364169Y+1630075D01*
X+411222Y+1630075D01*
X+372011Y+1669286D02*
X+364169Y+1677128D01*
X+364169Y+1700654D01*
X+372011Y+1708496D01*
X+379853Y+1708496D01*
X+387695Y+1700654D01*
X+387695Y+1677128D01*
X+395538Y+1669286D01*
X+411222Y+1669286D01*
X+411222Y+1708496D01*
D43*
X+3930692Y+2788180D02*
X+4150708Y+2568164D01*
X+4267452Y+2684907D01*
X+4047435Y+2904923D01*
X+3930692Y+2788180D01*
D104*
X+4042949Y+2792674D02*
X+4042949Y+2792674D01*
D105*
X+4182251Y+2686638D02*
X+4148979Y+2653366D01*
X+4121254Y+2681092D01*
X+4121254Y+2692182D01*
X+4126799Y+2697727D01*
X+4137889Y+2697727D01*
X+4165615Y+2670002D01*
X+4137889Y+2697727D02*
X+4137890Y+2708818D01*
X+4148980Y+2719909D01*
X+4104617Y+2719909D02*
X+4082437Y+2719909D01*
X+4115708Y+2753180D01*
X+4049166Y+2797542D02*
X+4082436Y+2764271D01*
X+4038075Y+2764271D01*
X+4071346Y+2797542D01*
D43*
X+305145Y+363150D02*
X+470245Y+363150D01*
X+470245Y+674300D01*
X+305145Y+674300D01*
X+305145Y+363150D01*
D96*
X+387700Y+598100D02*
X+387700Y+598100D01*
D105*
X+411222Y+424620D02*
X+364169Y+424620D01*
X+364169Y+463830D01*
X+372011Y+471672D01*
X+379853Y+471672D01*
X+387695Y+463830D01*
X+387695Y+424620D01*
X+387695Y+463830D02*
X+395538Y+471672D01*
X+411222Y+471672D01*
X+379853Y+503041D02*
X+364169Y+518725D01*
X+411222Y+518725D01*
X+364169Y+597146D02*
X+364169Y+557936D01*
X+379853Y+557936D01*
X+379853Y+589304D01*
X+387695Y+597146D01*
X+403380Y+597146D01*
X+411222Y+589304D01*
X+411222Y+565778D01*
X+403380Y+557936D01*
D43*
X+1131505Y+1926350D02*
X+1296605Y+1926350D01*
X+1296605Y+2237500D01*
X+1131505Y+2237500D01*
X+1131505Y+1926350D01*
D96*
X+1214050Y+2002550D02*
X+1214050Y+2002550D01*
D97*
X+1234172Y+2061808D02*
X+1244231Y+2051749D01*
X+1244231Y+2021574D01*
X+1224114Y+2001458D01*
X+1203997Y+2001458D01*
X+1183880Y+2021574D01*
X+1183880Y+2051749D01*
X+1193939Y+2061808D01*
X+1193939Y+2091983D02*
X+1183880Y+2102041D01*
X+1183880Y+2132216D01*
X+1193939Y+2142275D01*
X+1203997Y+2142275D01*
X+1214055Y+2132216D01*
X+1224114Y+2142275D01*
X+1234172Y+2142275D01*
X+1244231Y+2132216D01*
X+1244231Y+2102041D01*
X+1234172Y+2091983D01*
X+1214055Y+2112100D02*
X+1214055Y+2132216D01*
D43*
X+1296605Y+1926350D02*
X+1461705Y+1926350D01*
X+1461705Y+2237500D01*
X+1296605Y+2237500D01*
X+1296605Y+1926350D01*
D96*
X+1379150Y+2002550D02*
X+1379150Y+2002550D01*
D97*
X+1399272Y+2061808D02*
X+1409331Y+2051749D01*
X+1409331Y+2021574D01*
X+1389214Y+2001458D01*
X+1369097Y+2001458D01*
X+1348980Y+2021574D01*
X+1348980Y+2051749D01*
X+1359039Y+2061808D01*
X+1389214Y+2142275D02*
X+1389214Y+2081925D01*
X+1348980Y+2122158D01*
X+1409331Y+2122158D01*
D43*
X+1626805Y+1607600D02*
X+1791905Y+1607600D01*
X+1791905Y+1918750D01*
X+1626805Y+1918750D01*
X+1626805Y+1607600D01*
D96*
X+1709350Y+1683800D02*
X+1709350Y+1683800D01*
D97*
X+1729472Y+1743058D02*
X+1739531Y+1732999D01*
X+1739531Y+1702824D01*
X+1719414Y+1682708D01*
X+1699297Y+1682708D01*
X+1679180Y+1702824D01*
X+1679180Y+1732999D01*
X+1689239Y+1743058D01*
X+1679180Y+1823525D02*
X+1679180Y+1773233D01*
X+1699297Y+1773233D01*
X+1699297Y+1813466D01*
X+1709355Y+1823525D01*
X+1729472Y+1823525D01*
X+1739531Y+1813466D01*
X+1739531Y+1783291D01*
X+1729472Y+1773233D01*
D43*
X+1791900Y+1554235D02*
X+1982400Y+1554235D01*
X+1982400Y+1922535D01*
X+1791900Y+1922535D01*
X+1791900Y+1554235D01*
D106*
X+1887150Y+1630440D02*
X+1887150Y+1630440D01*
D107*
X+1910315Y+1715220D02*
X+1921898Y+1703637D01*
X+1921898Y+1668890D01*
X+1898733Y+1645726D01*
X+1875568Y+1645726D01*
X+1852403Y+1668890D01*
X+1852403Y+1703637D01*
X+1863986Y+1715220D01*
X+1863986Y+1807879D02*
X+1852403Y+1796296D01*
X+1852403Y+1761549D01*
X+1863986Y+1749967D01*
X+1910315Y+1749967D01*
X+1921898Y+1761549D01*
X+1921898Y+1796296D01*
X+1910315Y+1807879D01*
X+1898733Y+1807879D01*
X+1887150Y+1796296D01*
X+1887150Y+1749967D01*
D43*
X+1982700Y+1552550D02*
X+2337700Y+1552550D01*
X+2337700Y+2117550D01*
X+1982700Y+2117550D01*
X+1982700Y+1552550D01*
D98*
X+2160200Y+1985050D02*
X+2160200Y+1985050D01*
D99*
X+2198036Y+1797214D02*
X+2216954Y+1778296D01*
X+2216954Y+1721542D01*
X+2179118Y+1683706D01*
X+2141282Y+1683706D01*
X+2103446Y+1721542D01*
X+2103446Y+1778296D01*
X+2122364Y+1797214D01*
X+2103446Y+1853968D02*
X+2103446Y+1948558D01*
X+2122364Y+1948558D01*
X+2216954Y+1853968D01*
M02*
