G04 PROTEUS RS274X GERBER FILE*
%FSLAX45Y45*%
%MOMM*%
G01*
%ADD46C,0.025400*%
%ADD48C,0.127000*%
%ADD91C,0.640000*%
%ADD92C,0.177800*%
%ADD93C,0.180000*%
%ADD94C,0.162330*%
%ADD95C,0.360000*%
%ADD96C,0.303330*%
%ADD97C,0.108380*%
%ADD13C,0.400000*%
%ADD98C,0.160210*%
%ADD99C,0.320000*%
%ADD100C,0.067010*%
%ADD101C,1.280000*%
%ADD102C,0.142210*%
%ADD103C,0.088900*%
%ADD104C,0.420000*%
%ADD105C,0.067500*%
%ADD106C,0.495000*%
%ADD107C,0.330430*%
%ADD108C,0.113280*%
%ADD109C,0.050000*%
%ADD110C,0.571500*%
%ADD111C,0.172100*%
%ADD112C,0.102520*%
%ADD113C,0.411480*%
%ADD114C,0.212680*%
%ADD115C,0.600000*%
%ADD116C,0.262590*%
%ADD117C,0.560000*%
%ADD118C,0.123280*%
%ADD119C,0.124610*%
%ADD120C,0.558800*%
%ADD121C,0.084240*%
%ADD122C,0.396240*%
%ADD123C,0.914400*%
%ADD124C,0.121470*%
D46*
X+6800850Y+762000D02*
X+6800320Y+774958D01*
X+6796016Y+800876D01*
X+6787025Y+826794D01*
X+6772380Y+852712D01*
X+6749976Y+878466D01*
X+6724058Y+897958D01*
X+6698140Y+910530D01*
X+6672222Y+917866D01*
X+6646304Y+920694D01*
X+6642100Y+920750D01*
X+6483350Y+762000D02*
X+6483880Y+774958D01*
X+6488184Y+800876D01*
X+6497175Y+826794D01*
X+6511820Y+852712D01*
X+6534224Y+878466D01*
X+6560142Y+897958D01*
X+6586060Y+910530D01*
X+6611978Y+917866D01*
X+6637896Y+920694D01*
X+6642100Y+920750D01*
X+6483350Y+762000D02*
X+6483880Y+749042D01*
X+6488184Y+723124D01*
X+6497175Y+697206D01*
X+6511820Y+671288D01*
X+6534224Y+645534D01*
X+6560142Y+626042D01*
X+6586060Y+613470D01*
X+6611978Y+606134D01*
X+6637896Y+603306D01*
X+6642100Y+603250D01*
X+6800850Y+762000D02*
X+6800320Y+749042D01*
X+6796016Y+723124D01*
X+6787025Y+697206D01*
X+6772380Y+671288D01*
X+6749976Y+645534D01*
X+6724058Y+626042D01*
X+6698140Y+613470D01*
X+6672222Y+606134D01*
X+6646304Y+603306D01*
X+6642100Y+603250D01*
X+6800850Y+3556000D02*
X+6800320Y+3568958D01*
X+6796016Y+3594876D01*
X+6787025Y+3620794D01*
X+6772380Y+3646712D01*
X+6749976Y+3672466D01*
X+6724058Y+3691958D01*
X+6698140Y+3704530D01*
X+6672222Y+3711866D01*
X+6646304Y+3714694D01*
X+6642100Y+3714750D01*
X+6483350Y+3556000D02*
X+6483880Y+3568958D01*
X+6488184Y+3594876D01*
X+6497175Y+3620794D01*
X+6511820Y+3646712D01*
X+6534224Y+3672466D01*
X+6560142Y+3691958D01*
X+6586060Y+3704530D01*
X+6611978Y+3711866D01*
X+6637896Y+3714694D01*
X+6642100Y+3714750D01*
X+6483350Y+3556000D02*
X+6483880Y+3543042D01*
X+6488184Y+3517124D01*
X+6497175Y+3491206D01*
X+6511820Y+3465288D01*
X+6534224Y+3439534D01*
X+6560142Y+3420042D01*
X+6586060Y+3407470D01*
X+6611978Y+3400134D01*
X+6637896Y+3397306D01*
X+6642100Y+3397250D01*
X+6800850Y+3556000D02*
X+6800320Y+3543042D01*
X+6796016Y+3517124D01*
X+6787025Y+3491206D01*
X+6772380Y+3465288D01*
X+6749976Y+3439534D01*
X+6724058Y+3420042D01*
X+6698140Y+3407470D01*
X+6672222Y+3400134D01*
X+6646304Y+3397306D01*
X+6642100Y+3397250D01*
X+1720850Y+5080000D02*
X+1720320Y+5092958D01*
X+1716016Y+5118876D01*
X+1707025Y+5144794D01*
X+1692380Y+5170712D01*
X+1669976Y+5196466D01*
X+1644058Y+5215958D01*
X+1618140Y+5228530D01*
X+1592222Y+5235866D01*
X+1566304Y+5238694D01*
X+1562100Y+5238750D01*
X+1403350Y+5080000D02*
X+1403880Y+5092958D01*
X+1408184Y+5118876D01*
X+1417175Y+5144794D01*
X+1431820Y+5170712D01*
X+1454224Y+5196466D01*
X+1480142Y+5215958D01*
X+1506060Y+5228530D01*
X+1531978Y+5235866D01*
X+1557896Y+5238694D01*
X+1562100Y+5238750D01*
X+1403350Y+5080000D02*
X+1403880Y+5067042D01*
X+1408184Y+5041124D01*
X+1417175Y+5015206D01*
X+1431820Y+4989288D01*
X+1454224Y+4963534D01*
X+1480142Y+4944042D01*
X+1506060Y+4931470D01*
X+1531978Y+4924134D01*
X+1557896Y+4921306D01*
X+1562100Y+4921250D01*
X+1720850Y+5080000D02*
X+1720320Y+5067042D01*
X+1716016Y+5041124D01*
X+1707025Y+5015206D01*
X+1692380Y+4989288D01*
X+1669976Y+4963534D01*
X+1644058Y+4944042D01*
X+1618140Y+4931470D01*
X+1592222Y+4924134D01*
X+1566304Y+4921306D01*
X+1562100Y+4921250D01*
X+1720850Y+254000D02*
X+1720320Y+266958D01*
X+1716016Y+292876D01*
X+1707025Y+318794D01*
X+1692380Y+344712D01*
X+1669976Y+370466D01*
X+1644058Y+389958D01*
X+1618140Y+402530D01*
X+1592222Y+409866D01*
X+1566304Y+412694D01*
X+1562100Y+412750D01*
X+1403350Y+254000D02*
X+1403880Y+266958D01*
X+1408184Y+292876D01*
X+1417175Y+318794D01*
X+1431820Y+344712D01*
X+1454224Y+370466D01*
X+1480142Y+389958D01*
X+1506060Y+402530D01*
X+1531978Y+409866D01*
X+1557896Y+412694D01*
X+1562100Y+412750D01*
X+1403350Y+254000D02*
X+1403880Y+241042D01*
X+1408184Y+215124D01*
X+1417175Y+189206D01*
X+1431820Y+163288D01*
X+1454224Y+137534D01*
X+1480142Y+118042D01*
X+1506060Y+105470D01*
X+1531978Y+98134D01*
X+1557896Y+95306D01*
X+1562100Y+95250D01*
X+1720850Y+254000D02*
X+1720320Y+241042D01*
X+1716016Y+215124D01*
X+1707025Y+189206D01*
X+1692380Y+163288D01*
X+1669976Y+137534D01*
X+1644058Y+118042D01*
X+1618140Y+105470D01*
X+1592222Y+98134D01*
X+1566304Y+95306D01*
X+1562100Y+95250D01*
X+127000Y+0D02*
X+101032Y+2527D01*
X+77018Y+9798D01*
X+55423Y+21347D01*
X+36711Y+36711D01*
X+21348Y+55423D01*
X+9798Y+77018D01*
X+2527Y+101032D01*
X+0Y+127000D01*
X+0Y+5207000D01*
X+2527Y+5232967D01*
X+9798Y+5256981D01*
X+21348Y+5278577D01*
X+36711Y+5297289D01*
X+55423Y+5312652D01*
X+77018Y+5324202D01*
X+101032Y+5331473D01*
X+127000Y+5334000D01*
X+6515100Y+5334000D01*
X+6642100Y+5207000D01*
X+6642100Y+4064000D01*
X+6896100Y+3810000D01*
X+6896100Y+508000D01*
X+6642100Y+254000D01*
X+6642100Y+127000D01*
X+6639573Y+101032D01*
X+6632302Y+77018D01*
X+6620752Y+55423D01*
X+6605389Y+36711D01*
X+6586677Y+21347D01*
X+6565081Y+9798D01*
X+6541067Y+2527D01*
X+6515100Y+0D01*
X+127000Y+0D01*
D48*
X+4476750Y+4946650D02*
X+6521450Y+4946650D01*
X+6521450Y+5213350D01*
X+4476750Y+5213350D01*
X+4476750Y+4946650D01*
D91*
X+4610100Y+5080000D02*
X+4610100Y+5080000D01*
D92*
X+5421755Y+5062220D02*
X+5421755Y+5044440D01*
X+5441757Y+5026660D01*
X+5521767Y+5026660D01*
X+5541770Y+5044440D01*
X+5541770Y+5133340D01*
X+5601777Y+5115560D02*
X+5621780Y+5133340D01*
X+5681787Y+5133340D01*
X+5701790Y+5115560D01*
X+5701790Y+5097780D01*
X+5681787Y+5080000D01*
X+5701790Y+5062220D01*
X+5701790Y+5044440D01*
X+5681787Y+5026660D01*
X+5621780Y+5026660D01*
X+5601777Y+5044440D01*
X+5641782Y+5080000D02*
X+5681787Y+5080000D01*
D48*
X+1784350Y+4946650D02*
X+4337050Y+4946650D01*
X+4337050Y+5213350D01*
X+1784350Y+5213350D01*
X+1784350Y+4946650D01*
D91*
X+1917700Y+5080000D02*
X+1917700Y+5080000D01*
D92*
X+2983355Y+5062220D02*
X+2983355Y+5044440D01*
X+3003357Y+5026660D01*
X+3083367Y+5026660D01*
X+3103370Y+5044440D01*
X+3103370Y+5133340D01*
X+3263390Y+5062220D02*
X+3143375Y+5062220D01*
X+3223385Y+5133340D01*
X+3223385Y+5026660D01*
D46*
X+1788100Y+2605200D02*
X+1748100Y+2605200D01*
X+1768100Y+2585200D02*
X+1768100Y+2625200D01*
X+1493100Y+2330200D02*
X+2043100Y+2330200D01*
X+2043100Y+2880200D01*
X+1493100Y+2880200D01*
X+1493100Y+2330200D01*
D93*
X+1963100Y+2485200D02*
X+1963100Y+2485200D01*
D94*
X+1674264Y+2459097D02*
X+1755432Y+2459097D01*
X+1771666Y+2477359D01*
X+1771666Y+2550411D01*
X+1755432Y+2568674D01*
X+1674264Y+2568674D01*
X+1690498Y+2623462D02*
X+1674264Y+2641725D01*
X+1674264Y+2696514D01*
X+1690498Y+2714777D01*
X+1706731Y+2714777D01*
X+1722965Y+2696514D01*
X+1722965Y+2641725D01*
X+1739199Y+2623462D01*
X+1771666Y+2623462D01*
X+1771666Y+2714777D01*
D46*
X+486650Y+2752700D02*
X+486547Y+2755189D01*
X+485705Y+2760169D01*
X+483945Y+2765149D01*
X+481068Y+2770129D01*
X+476667Y+2775045D01*
X+471687Y+2778659D01*
X+466707Y+2780964D01*
X+461727Y+2782267D01*
X+456747Y+2782700D01*
X+456650Y+2782700D01*
X+426650Y+2752700D02*
X+426753Y+2755189D01*
X+427595Y+2760169D01*
X+429355Y+2765149D01*
X+432232Y+2770129D01*
X+436633Y+2775045D01*
X+441613Y+2778659D01*
X+446593Y+2780964D01*
X+451573Y+2782267D01*
X+456553Y+2782700D01*
X+456650Y+2782700D01*
X+426650Y+2752700D02*
X+426753Y+2750211D01*
X+427595Y+2745231D01*
X+429355Y+2740251D01*
X+432232Y+2735271D01*
X+436633Y+2730355D01*
X+441613Y+2726741D01*
X+446593Y+2724436D01*
X+451573Y+2723133D01*
X+456553Y+2722700D01*
X+456650Y+2722700D01*
X+486650Y+2752700D02*
X+486547Y+2750211D01*
X+485705Y+2745231D01*
X+483945Y+2740251D01*
X+481068Y+2735271D01*
X+476667Y+2730355D01*
X+471687Y+2726741D01*
X+466707Y+2724436D01*
X+461727Y+2723133D01*
X+456747Y+2722700D01*
X+456650Y+2722700D01*
X+486650Y+2352700D02*
X+486547Y+2355189D01*
X+485705Y+2360169D01*
X+483945Y+2365149D01*
X+481068Y+2370129D01*
X+476667Y+2375045D01*
X+471687Y+2378659D01*
X+466707Y+2380964D01*
X+461727Y+2382267D01*
X+456747Y+2382700D01*
X+456650Y+2382700D01*
X+426650Y+2352700D02*
X+426753Y+2355189D01*
X+427595Y+2360169D01*
X+429355Y+2365149D01*
X+432232Y+2370129D01*
X+436633Y+2375045D01*
X+441613Y+2378659D01*
X+446593Y+2380964D01*
X+451573Y+2382267D01*
X+456553Y+2382700D01*
X+456650Y+2382700D01*
X+426650Y+2352700D02*
X+426753Y+2350211D01*
X+427595Y+2345231D01*
X+429355Y+2340251D01*
X+432232Y+2335271D01*
X+436633Y+2330355D01*
X+441613Y+2326741D01*
X+446593Y+2324436D01*
X+451573Y+2323133D01*
X+456553Y+2322700D01*
X+456650Y+2322700D01*
X+486650Y+2352700D02*
X+486547Y+2350211D01*
X+485705Y+2345231D01*
X+483945Y+2340251D01*
X+481068Y+2335271D01*
X+476667Y+2330355D01*
X+471687Y+2326741D01*
X+466707Y+2324436D01*
X+461727Y+2323133D01*
X+456747Y+2322700D01*
X+456650Y+2322700D01*
X+456650Y+2367700D02*
X+456650Y+2337700D01*
X+471650Y+2352700D02*
X+441650Y+2352700D01*
X+456650Y+2767700D02*
X+456650Y+2737700D01*
X+471650Y+2752700D02*
X+441650Y+2752700D01*
X-38350Y+2037700D02*
X+611650Y+2037700D01*
X+611650Y+3067700D01*
X-38350Y+3067700D01*
X-38350Y+2037700D01*
D95*
X+501650Y+2682700D02*
X+501650Y+2682700D01*
D96*
X+252349Y+2279695D02*
X+282683Y+2279695D01*
X+313017Y+2313820D01*
X+313017Y+2450323D01*
X+282683Y+2484448D01*
X+131013Y+2484448D01*
X+191681Y+2620951D02*
X+131013Y+2689202D01*
X+313017Y+2689202D01*
D46*
X+533400Y+101600D02*
X+990600Y+101600D01*
X+990600Y+431800D01*
X+533400Y+431800D01*
X+533400Y+101600D01*
D95*
X+889000Y+203200D02*
X+889000Y+203200D01*
D97*
X+604020Y+255861D02*
X+604020Y+245023D01*
X+616213Y+234184D01*
X+664985Y+234184D01*
X+677178Y+245023D01*
X+677178Y+299215D01*
X+713758Y+288376D02*
X+725951Y+299215D01*
X+762530Y+299215D01*
X+774723Y+288376D01*
X+774723Y+277538D01*
X+762530Y+266700D01*
X+725951Y+266700D01*
X+713758Y+255861D01*
X+713758Y+234184D01*
X+774723Y+234184D01*
D46*
X+180700Y+3869650D02*
X+565700Y+3869650D01*
X+565700Y+4479650D01*
X+180700Y+4479650D01*
X+180700Y+3869650D01*
D13*
X+485700Y+3944650D02*
X+485700Y+3944650D01*
D98*
X+421263Y+4006502D02*
X+325137Y+4006502D01*
X+325137Y+4096620D01*
X+341158Y+4114643D01*
X+357179Y+4114643D01*
X+373200Y+4096620D01*
X+389221Y+4114643D01*
X+405242Y+4114643D01*
X+421263Y+4096620D01*
X+421263Y+4006502D01*
X+373200Y+4006502D02*
X+373200Y+4096620D01*
X+325137Y+4150691D02*
X+325137Y+4258832D01*
X+325137Y+4204761D02*
X+421263Y+4204761D01*
X+357179Y+4330927D02*
X+325137Y+4366974D01*
X+421263Y+4366974D01*
D46*
X+180700Y+4622500D02*
X+565700Y+4622500D01*
X+565700Y+5232500D01*
X+180700Y+5232500D01*
X+180700Y+4622500D01*
D13*
X+485700Y+4697500D02*
X+485700Y+4697500D01*
D98*
X+421263Y+4759352D02*
X+325137Y+4759352D01*
X+325137Y+4849470D01*
X+341158Y+4867493D01*
X+357179Y+4867493D01*
X+373200Y+4849470D01*
X+389221Y+4867493D01*
X+405242Y+4867493D01*
X+421263Y+4849470D01*
X+421263Y+4759352D01*
X+373200Y+4759352D02*
X+373200Y+4849470D01*
X+325137Y+4903541D02*
X+325137Y+5011682D01*
X+325137Y+4957611D02*
X+421263Y+4957611D01*
X+341158Y+5065753D02*
X+325137Y+5083777D01*
X+325137Y+5137848D01*
X+341158Y+5155871D01*
X+357179Y+5155871D01*
X+373200Y+5137848D01*
X+373200Y+5083777D01*
X+389221Y+5065753D01*
X+421263Y+5065753D01*
X+421263Y+5155871D01*
D46*
X+178150Y+1480825D02*
X+305150Y+1480825D01*
X+305150Y+1772925D01*
X+178150Y+1772925D01*
X+178150Y+1480825D01*
D99*
X+241650Y+1544450D02*
X+241650Y+1544450D01*
D100*
X+261754Y+1607010D02*
X+221545Y+1607010D01*
X+221545Y+1637166D01*
X+234948Y+1652244D01*
X+248351Y+1652244D01*
X+261754Y+1637166D01*
X+261754Y+1607010D01*
X+234948Y+1682401D02*
X+221545Y+1697479D01*
X+261754Y+1697479D01*
D46*
X+178150Y+369475D02*
X+305150Y+369475D01*
X+305150Y+661575D01*
X+178150Y+661575D01*
X+178150Y+369475D01*
D99*
X+241650Y+433100D02*
X+241650Y+433100D01*
D100*
X+261754Y+495660D02*
X+221545Y+495660D01*
X+221545Y+525816D01*
X+234948Y+540894D01*
X+248351Y+540894D01*
X+261754Y+525816D01*
X+261754Y+495660D01*
X+228247Y+563512D02*
X+221545Y+571051D01*
X+221545Y+593668D01*
X+228247Y+601207D01*
X+234948Y+601207D01*
X+241650Y+593668D01*
X+241650Y+571051D01*
X+248351Y+563512D01*
X+261754Y+563512D01*
X+261754Y+601207D01*
D46*
X+632800Y+2816300D02*
X+992800Y+2816300D01*
X+992800Y+3426300D01*
X+632800Y+3426300D01*
X+632800Y+2816300D01*
D101*
X+812800Y+2911300D02*
X+812800Y+2911300D01*
D102*
X+855463Y+3073446D02*
X+770137Y+3073446D01*
X+770137Y+3169437D01*
X+812800Y+3073446D02*
X+812800Y+3137440D01*
X+798579Y+3233432D02*
X+770137Y+3265429D01*
X+855463Y+3265429D01*
D48*
X+209900Y+3328700D02*
X+438500Y+3328700D01*
X+438500Y+3608100D01*
X+209900Y+3608100D01*
X+209900Y+3328700D01*
D103*
X+297530Y+3348385D02*
X+297530Y+3408392D01*
X+297530Y+3378388D02*
X+350870Y+3378388D01*
X+350870Y+3428395D02*
X+297530Y+3428395D01*
X+297530Y+3478401D01*
X+306420Y+3488402D01*
X+315310Y+3488402D01*
X+324200Y+3478401D01*
X+324200Y+3428395D01*
X+333090Y+3568412D02*
X+333090Y+3508405D01*
X+297530Y+3548410D01*
X+350870Y+3548410D01*
D46*
X+486650Y+2352700D02*
X+486547Y+2355189D01*
X+485705Y+2360169D01*
X+483945Y+2365149D01*
X+481068Y+2370129D01*
X+476667Y+2375045D01*
X+471687Y+2378659D01*
X+466707Y+2380964D01*
X+461727Y+2382267D01*
X+456747Y+2382700D01*
X+456650Y+2382700D01*
X+426650Y+2352700D02*
X+426753Y+2355189D01*
X+427595Y+2360169D01*
X+429355Y+2365149D01*
X+432232Y+2370129D01*
X+436633Y+2375045D01*
X+441613Y+2378659D01*
X+446593Y+2380964D01*
X+451573Y+2382267D01*
X+456553Y+2382700D01*
X+456650Y+2382700D01*
X+426650Y+2352700D02*
X+426753Y+2350211D01*
X+427595Y+2345231D01*
X+429355Y+2340251D01*
X+432232Y+2335271D01*
X+436633Y+2330355D01*
X+441613Y+2326741D01*
X+446593Y+2324436D01*
X+451573Y+2323133D01*
X+456553Y+2322700D01*
X+456650Y+2322700D01*
X+486650Y+2352700D02*
X+486547Y+2350211D01*
X+485705Y+2345231D01*
X+483945Y+2340251D01*
X+481068Y+2335271D01*
X+476667Y+2330355D01*
X+471687Y+2326741D01*
X+466707Y+2324436D01*
X+461727Y+2323133D01*
X+456747Y+2322700D01*
X+456650Y+2322700D01*
X+486650Y+2752700D02*
X+486547Y+2755189D01*
X+485705Y+2760169D01*
X+483945Y+2765149D01*
X+481068Y+2770129D01*
X+476667Y+2775045D01*
X+471687Y+2778659D01*
X+466707Y+2780964D01*
X+461727Y+2782267D01*
X+456747Y+2782700D01*
X+456650Y+2782700D01*
X+426650Y+2752700D02*
X+426753Y+2755189D01*
X+427595Y+2760169D01*
X+429355Y+2765149D01*
X+432232Y+2770129D01*
X+436633Y+2775045D01*
X+441613Y+2778659D01*
X+446593Y+2780964D01*
X+451573Y+2782267D01*
X+456553Y+2782700D01*
X+456650Y+2782700D01*
X+426650Y+2752700D02*
X+426753Y+2750211D01*
X+427595Y+2745231D01*
X+429355Y+2740251D01*
X+432232Y+2735271D01*
X+436633Y+2730355D01*
X+441613Y+2726741D01*
X+446593Y+2724436D01*
X+451573Y+2723133D01*
X+456553Y+2722700D01*
X+456650Y+2722700D01*
X+486650Y+2752700D02*
X+486547Y+2750211D01*
X+485705Y+2745231D01*
X+483945Y+2740251D01*
X+481068Y+2735271D01*
X+476667Y+2730355D01*
X+471687Y+2726741D01*
X+466707Y+2724436D01*
X+461727Y+2723133D01*
X+456747Y+2722700D01*
X+456650Y+2722700D01*
X+305155Y+941100D02*
X+470255Y+941100D01*
X+470255Y+1252250D01*
X+305155Y+1252250D01*
X+305155Y+941100D01*
D104*
X+387700Y+1017300D02*
X+387700Y+1017300D01*
D105*
X+407957Y+1085155D02*
X+367454Y+1085155D01*
X+367454Y+1123126D01*
X+374204Y+1130721D01*
X+380955Y+1130721D01*
X+387705Y+1123126D01*
X+387705Y+1085155D01*
X+387705Y+1123126D02*
X+394456Y+1130721D01*
X+407957Y+1130721D01*
X+367454Y+1191476D02*
X+367454Y+1153504D01*
X+380955Y+1153504D01*
X+380955Y+1183881D01*
X+387705Y+1191476D01*
X+401207Y+1191476D01*
X+407957Y+1183881D01*
X+407957Y+1161098D01*
X+401207Y+1153504D01*
D46*
X+305155Y+1468250D02*
X+470255Y+1468250D01*
X+470255Y+1779400D01*
X+305155Y+1779400D01*
X+305155Y+1468250D01*
D104*
X+387700Y+1544450D02*
X+387700Y+1544450D01*
D105*
X+407957Y+1581928D02*
X+367454Y+1581928D01*
X+367454Y+1619899D01*
X+374204Y+1627494D01*
X+380955Y+1627494D01*
X+387705Y+1619899D01*
X+387705Y+1581928D01*
X+387705Y+1619899D02*
X+394456Y+1627494D01*
X+407957Y+1627494D01*
X+380955Y+1657871D02*
X+367454Y+1673060D01*
X+407957Y+1673060D01*
X+374204Y+1711032D02*
X+367454Y+1718626D01*
X+367454Y+1741409D01*
X+374204Y+1749004D01*
X+380955Y+1749004D01*
X+387705Y+1741409D01*
X+387705Y+1718626D01*
X+394456Y+1711032D01*
X+407957Y+1711032D01*
X+407957Y+1749004D01*
D46*
X+305145Y+363150D02*
X+470245Y+363150D01*
X+470245Y+674300D01*
X+305145Y+674300D01*
X+305145Y+363150D01*
D104*
X+387700Y+598100D02*
X+387700Y+598100D01*
D105*
X+407947Y+378358D02*
X+367444Y+378358D01*
X+367444Y+416329D01*
X+374194Y+423924D01*
X+380945Y+423924D01*
X+387695Y+416329D01*
X+387695Y+378358D01*
X+387695Y+416329D02*
X+394446Y+423924D01*
X+407947Y+423924D01*
X+380945Y+454301D02*
X+367444Y+469490D01*
X+407947Y+469490D01*
X+367444Y+545434D02*
X+367444Y+507462D01*
X+380945Y+507462D01*
X+380945Y+537839D01*
X+387695Y+545434D01*
X+401197Y+545434D01*
X+407947Y+537839D01*
X+407947Y+515056D01*
X+401197Y+507462D01*
D48*
X+2698750Y+120650D02*
X+6521450Y+120650D01*
X+6521450Y+387350D01*
X+2698750Y+387350D01*
X+2698750Y+120650D01*
D91*
X+2832100Y+254000D02*
X+2832100Y+254000D01*
D92*
X+4532755Y+236220D02*
X+4532755Y+218440D01*
X+4552757Y+200660D01*
X+4632767Y+200660D01*
X+4652770Y+218440D01*
X+4652770Y+307340D01*
X+4812790Y+307340D02*
X+4712777Y+307340D01*
X+4712777Y+271780D01*
X+4792787Y+271780D01*
X+4812790Y+254000D01*
X+4812790Y+218440D01*
X+4792787Y+200660D01*
X+4732780Y+200660D01*
X+4712777Y+218440D01*
D46*
X+4918000Y+2540000D02*
X+5118000Y+2540000D01*
X+5018000Y+2640000D02*
X+5018000Y+2440000D01*
X+4338000Y+1860000D02*
X+5698000Y+1860000D01*
X+5698000Y+3220000D01*
X+4338000Y+3220000D01*
X+4338000Y+1860000D01*
D106*
X+4448000Y+2940000D02*
X+4448000Y+2940000D01*
D107*
X+4986879Y+2242607D02*
X+5152097Y+2242607D01*
X+5185141Y+2279781D01*
X+5185141Y+2428477D01*
X+5152097Y+2465651D01*
X+4986879Y+2465651D01*
X+5019923Y+2577174D02*
X+4986879Y+2614348D01*
X+4986879Y+2725870D01*
X+5019923Y+2763044D01*
X+5052966Y+2763044D01*
X+5086010Y+2725870D01*
X+5119054Y+2763044D01*
X+5152097Y+2763044D01*
X+5185141Y+2725870D01*
X+5185141Y+2614348D01*
X+5152097Y+2577174D01*
X+5086010Y+2651522D02*
X+5086010Y+2725870D01*
D46*
X+1208230Y+4040820D02*
X+1208230Y+4020820D01*
X+1218230Y+4030820D02*
X+1198230Y+4030820D01*
X+1008230Y+3855820D02*
X+1408230Y+3855820D01*
X+1408230Y+4205820D01*
X+1008230Y+4205820D01*
X+1008230Y+3855820D01*
D13*
X+1078230Y+4125820D02*
X+1078230Y+4125820D01*
D108*
X+1219881Y+3928868D02*
X+1276521Y+3928868D01*
X+1287849Y+3941612D01*
X+1287849Y+3992588D01*
X+1276521Y+4005332D01*
X+1219881Y+4005332D01*
X+1242537Y+4056308D02*
X+1219881Y+4081796D01*
X+1287849Y+4081796D01*
D109*
X+4648300Y+3880300D02*
X+3898300Y+3880300D01*
X+3898300Y+3330300D01*
X+4648300Y+3330300D01*
X+4648300Y+3880300D01*
X+4273300Y+3555300D02*
X+4273300Y+3655300D01*
X+4223300Y+3605300D02*
X+4323300Y+3605300D01*
D110*
X+4543300Y+3414800D02*
X+4543300Y+3414800D01*
D111*
X+4050373Y+3656930D02*
X+4050373Y+3570880D01*
X+4069734Y+3553670D01*
X+4147179Y+3553670D01*
X+4166540Y+3570880D01*
X+4166540Y+3656930D01*
X+4224624Y+3656930D02*
X+4321430Y+3656930D01*
X+4321430Y+3639720D01*
X+4224624Y+3553670D01*
D46*
X+4998000Y+3516342D02*
X+5238000Y+3516342D01*
X+5238000Y+3916342D01*
X+4998000Y+3916342D01*
X+4998000Y+3516342D01*
D99*
X+5058000Y+3851342D02*
X+5058000Y+3851342D01*
D112*
X+5087243Y+3582937D02*
X+5138505Y+3582937D01*
X+5148757Y+3594470D01*
X+5148757Y+3640605D01*
X+5138505Y+3652139D01*
X+5087243Y+3652139D01*
X+5118000Y+3698274D02*
X+5107748Y+3686740D01*
X+5097495Y+3686740D01*
X+5087243Y+3698274D01*
X+5087243Y+3732875D01*
X+5097495Y+3744409D01*
X+5107748Y+3744409D01*
X+5118000Y+3732875D01*
X+5118000Y+3698274D01*
X+5128252Y+3686740D01*
X+5138505Y+3686740D01*
X+5148757Y+3698274D01*
X+5148757Y+3732875D01*
X+5138505Y+3744409D01*
X+5128252Y+3744409D01*
X+5118000Y+3732875D01*
D46*
X+569150Y+4420100D02*
X+959150Y+4420100D01*
X+959150Y+5220100D01*
X+569150Y+5220100D01*
X+569150Y+4420100D01*
D113*
X+856650Y+5115100D02*
X+856650Y+5115100D01*
D114*
X+700345Y+4469553D02*
X+806688Y+4469553D01*
X+827956Y+4493480D01*
X+827956Y+4589188D01*
X+806688Y+4613115D01*
X+700345Y+4613115D01*
X+742882Y+4708824D02*
X+700345Y+4756678D01*
X+827956Y+4756678D01*
X+806688Y+4852387D02*
X+721613Y+4852387D01*
X+700345Y+4876314D01*
X+700345Y+4972022D01*
X+721613Y+4995949D01*
X+806688Y+4995949D01*
X+827956Y+4972022D01*
X+827956Y+4876314D01*
X+806688Y+4852387D01*
X+827956Y+4852387D02*
X+700345Y+4995949D01*
D46*
X+2104040Y+308200D02*
X+2103885Y+311927D01*
X+2102629Y+319382D01*
X+2099999Y+326837D01*
X+2095703Y+334292D01*
X+2089133Y+341658D01*
X+2081678Y+347091D01*
X+2074223Y+350561D01*
X+2066768Y+352531D01*
X+2059313Y+353199D01*
X+2059040Y+353200D01*
X+2014040Y+308200D02*
X+2014195Y+311927D01*
X+2015451Y+319382D01*
X+2018081Y+326837D01*
X+2022377Y+334292D01*
X+2028947Y+341658D01*
X+2036402Y+347091D01*
X+2043857Y+350561D01*
X+2051312Y+352531D01*
X+2058767Y+353199D01*
X+2059040Y+353200D01*
X+2014040Y+308200D02*
X+2014195Y+304473D01*
X+2015451Y+297018D01*
X+2018081Y+289563D01*
X+2022377Y+282108D01*
X+2028947Y+274742D01*
X+2036402Y+269309D01*
X+2043857Y+265839D01*
X+2051312Y+263869D01*
X+2058767Y+263201D01*
X+2059040Y+263200D01*
X+2104040Y+308200D02*
X+2103885Y+304473D01*
X+2102629Y+297018D01*
X+2099999Y+289563D01*
X+2095703Y+282108D01*
X+2089133Y+274742D01*
X+2081678Y+269309D01*
X+2074223Y+265839D01*
X+2066768Y+263869D01*
X+2059313Y+263201D01*
X+2059040Y+263200D01*
X+2404040Y+308200D02*
X+2403885Y+311927D01*
X+2402629Y+319382D01*
X+2399999Y+326837D01*
X+2395703Y+334292D01*
X+2389133Y+341658D01*
X+2381678Y+347091D01*
X+2374223Y+350561D01*
X+2366768Y+352531D01*
X+2359313Y+353199D01*
X+2359040Y+353200D01*
X+2314040Y+308200D02*
X+2314195Y+311927D01*
X+2315451Y+319382D01*
X+2318081Y+326837D01*
X+2322377Y+334292D01*
X+2328947Y+341658D01*
X+2336402Y+347091D01*
X+2343857Y+350561D01*
X+2351312Y+352531D01*
X+2358767Y+353199D01*
X+2359040Y+353200D01*
X+2314040Y+308200D02*
X+2314195Y+304473D01*
X+2315451Y+297018D01*
X+2318081Y+289563D01*
X+2322377Y+282108D01*
X+2328947Y+274742D01*
X+2336402Y+269309D01*
X+2343857Y+265839D01*
X+2351312Y+263869D01*
X+2358767Y+263201D01*
X+2359040Y+263200D01*
X+2404040Y+308200D02*
X+2403885Y+304473D01*
X+2402629Y+297018D01*
X+2399999Y+289563D01*
X+2395703Y+282108D01*
X+2389133Y+274742D01*
X+2381678Y+269309D01*
X+2374223Y+265839D01*
X+2366768Y+263869D01*
X+2359313Y+263201D01*
X+2359040Y+263200D01*
X+2339040Y+308200D02*
X+2379040Y+308200D01*
X+2359040Y+328200D02*
X+2359040Y+288200D01*
X+2039040Y+308200D02*
X+2079040Y+308200D01*
X+2059040Y+328200D02*
X+2059040Y+288200D01*
X+1759040Y+128200D02*
X+2659040Y+128200D01*
X+2659040Y+588200D01*
X+1759040Y+588200D01*
X+1759040Y+128200D01*
X+2059040Y+28200D02*
X+2359040Y+28200D01*
X+2359040Y+178200D01*
X+2059040Y+178200D01*
X+2059040Y+28200D01*
D115*
X+1984040Y+483200D02*
X+1984040Y+483200D01*
D116*
X+1854532Y+187545D02*
X+1884074Y+161285D01*
X+2002243Y+161285D01*
X+2031786Y+187545D01*
X+2031786Y+213805D01*
X+2002243Y+240065D01*
X+1884074Y+240065D01*
X+1854532Y+266325D01*
X+1854532Y+292585D01*
X+1884074Y+318845D01*
X+2002243Y+318845D01*
X+2031786Y+292585D01*
X+2090871Y+318845D02*
X+2090871Y+161285D01*
X+2179498Y+240065D01*
X+2268125Y+161285D01*
X+2268125Y+318845D01*
X+2386294Y+266325D02*
X+2445379Y+318845D01*
X+2445379Y+161285D01*
D46*
X+2104040Y+308200D02*
X+2103885Y+311927D01*
X+2102629Y+319382D01*
X+2099999Y+326837D01*
X+2095703Y+334292D01*
X+2089133Y+341658D01*
X+2081678Y+347091D01*
X+2074223Y+350561D01*
X+2066768Y+352531D01*
X+2059313Y+353199D01*
X+2059040Y+353200D01*
X+2014040Y+308200D02*
X+2014195Y+311927D01*
X+2015451Y+319382D01*
X+2018081Y+326837D01*
X+2022377Y+334292D01*
X+2028947Y+341658D01*
X+2036402Y+347091D01*
X+2043857Y+350561D01*
X+2051312Y+352531D01*
X+2058767Y+353199D01*
X+2059040Y+353200D01*
X+2014040Y+308200D02*
X+2014195Y+304473D01*
X+2015451Y+297018D01*
X+2018081Y+289563D01*
X+2022377Y+282108D01*
X+2028947Y+274742D01*
X+2036402Y+269309D01*
X+2043857Y+265839D01*
X+2051312Y+263869D01*
X+2058767Y+263201D01*
X+2059040Y+263200D01*
X+2104040Y+308200D02*
X+2103885Y+304473D01*
X+2102629Y+297018D01*
X+2099999Y+289563D01*
X+2095703Y+282108D01*
X+2089133Y+274742D01*
X+2081678Y+269309D01*
X+2074223Y+265839D01*
X+2066768Y+263869D01*
X+2059313Y+263201D01*
X+2059040Y+263200D01*
X+2404040Y+308200D02*
X+2403885Y+311927D01*
X+2402629Y+319382D01*
X+2399999Y+326837D01*
X+2395703Y+334292D01*
X+2389133Y+341658D01*
X+2381678Y+347091D01*
X+2374223Y+350561D01*
X+2366768Y+352531D01*
X+2359313Y+353199D01*
X+2359040Y+353200D01*
X+2314040Y+308200D02*
X+2314195Y+311927D01*
X+2315451Y+319382D01*
X+2318081Y+326837D01*
X+2322377Y+334292D01*
X+2328947Y+341658D01*
X+2336402Y+347091D01*
X+2343857Y+350561D01*
X+2351312Y+352531D01*
X+2358767Y+353199D01*
X+2359040Y+353200D01*
X+2314040Y+308200D02*
X+2314195Y+304473D01*
X+2315451Y+297018D01*
X+2318081Y+289563D01*
X+2322377Y+282108D01*
X+2328947Y+274742D01*
X+2336402Y+269309D01*
X+2343857Y+265839D01*
X+2351312Y+263869D01*
X+2358767Y+263201D01*
X+2359040Y+263200D01*
X+2404040Y+308200D02*
X+2403885Y+304473D01*
X+2402629Y+297018D01*
X+2399999Y+289563D01*
X+2395703Y+282108D01*
X+2389133Y+274742D01*
X+2381678Y+269309D01*
X+2374223Y+265839D01*
X+2366768Y+263869D01*
X+2359313Y+263201D01*
X+2359040Y+263200D01*
X+5865950Y+2580000D02*
X+6245950Y+2580000D01*
X+6245950Y+3040000D01*
X+5865950Y+3040000D01*
X+5865950Y+2580000D01*
D117*
X+6135950Y+2700000D02*
X+6135950Y+2700000D01*
D118*
X+5944998Y+2921619D02*
X+6028212Y+2847651D01*
X+5944998Y+2847651D02*
X+6028212Y+2921619D01*
X+6083688Y+2896963D02*
X+6111426Y+2921619D01*
X+6111426Y+2847651D01*
D46*
X+5901000Y+2407455D02*
X+6212150Y+2407455D01*
X+6212150Y+2572555D01*
X+5901000Y+2572555D01*
X+5901000Y+2407455D01*
D104*
X+6135950Y+2490000D02*
X+6135950Y+2490000D01*
D105*
X+5961774Y+2476503D02*
X+5954179Y+2469753D01*
X+5931396Y+2469753D01*
X+5916208Y+2483254D01*
X+5916208Y+2496755D01*
X+5931396Y+2510256D01*
X+5954179Y+2510256D01*
X+5961774Y+2503506D01*
X+5984557Y+2503506D02*
X+5992151Y+2510256D01*
X+6014934Y+2510256D01*
X+6022529Y+2503506D01*
X+6022529Y+2496755D01*
X+6014934Y+2490005D01*
X+5992151Y+2490005D01*
X+5984557Y+2483254D01*
X+5984557Y+2469753D01*
X+6022529Y+2469753D01*
X+6045312Y+2503506D02*
X+6052906Y+2510256D01*
X+6075689Y+2510256D01*
X+6083284Y+2503506D01*
X+6083284Y+2496755D01*
X+6075689Y+2490005D01*
X+6083284Y+2483254D01*
X+6083284Y+2476503D01*
X+6075689Y+2469753D01*
X+6052906Y+2469753D01*
X+6045312Y+2476503D01*
X+6060501Y+2490005D02*
X+6075689Y+2490005D01*
D46*
X+5899750Y+3047445D02*
X+6210900Y+3047445D01*
X+6210900Y+3212545D01*
X+5899750Y+3212545D01*
X+5899750Y+3047445D01*
D104*
X+5975950Y+3130000D02*
X+5975950Y+3130000D01*
D105*
X+6058994Y+3116493D02*
X+6051399Y+3109743D01*
X+6028616Y+3109743D01*
X+6013428Y+3123244D01*
X+6013428Y+3136745D01*
X+6028616Y+3150246D01*
X+6051399Y+3150246D01*
X+6058994Y+3143496D01*
X+6081777Y+3143496D02*
X+6089371Y+3150246D01*
X+6112154Y+3150246D01*
X+6119749Y+3143496D01*
X+6119749Y+3136745D01*
X+6112154Y+3129995D01*
X+6089371Y+3129995D01*
X+6081777Y+3123244D01*
X+6081777Y+3109743D01*
X+6119749Y+3109743D01*
X+6180504Y+3123244D02*
X+6134938Y+3123244D01*
X+6165315Y+3150246D01*
X+6165315Y+3109743D01*
D46*
X+2245560Y+2453200D02*
X+2549560Y+2453200D01*
X+2549560Y+2837200D01*
X+2245560Y+2837200D01*
X+2245560Y+2453200D01*
D93*
X+2307560Y+2705200D02*
X+2307560Y+2705200D01*
D119*
X+2396311Y+2533049D02*
X+2458618Y+2533049D01*
X+2471079Y+2547067D01*
X+2471079Y+2603143D01*
X+2458618Y+2617162D01*
X+2396311Y+2617162D01*
X+2446156Y+2729313D02*
X+2446156Y+2645200D01*
X+2396311Y+2701275D01*
X+2471079Y+2701275D01*
D46*
X+5899750Y+2223295D02*
X+6210900Y+2223295D01*
X+6210900Y+2388395D01*
X+5899750Y+2388395D01*
X+5899750Y+2223295D01*
D104*
X+5975950Y+2305850D02*
X+5975950Y+2305850D01*
D105*
X+6058994Y+2292343D02*
X+6051399Y+2285593D01*
X+6028616Y+2285593D01*
X+6013428Y+2299094D01*
X+6013428Y+2312595D01*
X+6028616Y+2326096D01*
X+6051399Y+2326096D01*
X+6058994Y+2319346D01*
X+6089371Y+2312595D02*
X+6104560Y+2326096D01*
X+6104560Y+2285593D01*
X+6142532Y+2319346D02*
X+6150126Y+2326096D01*
X+6172909Y+2326096D01*
X+6180504Y+2319346D01*
X+6180504Y+2312595D01*
X+6172909Y+2305845D01*
X+6150126Y+2305845D01*
X+6142532Y+2299094D01*
X+6142532Y+2285593D01*
X+6180504Y+2285593D01*
D46*
X+655300Y+2631905D02*
X+966450Y+2631905D01*
X+966450Y+2797005D01*
X+655300Y+2797005D01*
X+655300Y+2631905D01*
D104*
X+890250Y+2714450D02*
X+890250Y+2714450D01*
D105*
X+670508Y+2694203D02*
X+670508Y+2734706D01*
X+716074Y+2734706D01*
X+670508Y+2714455D02*
X+700885Y+2714455D01*
X+731263Y+2734706D02*
X+776829Y+2734706D01*
X+754046Y+2734706D02*
X+754046Y+2694203D01*
X+807206Y+2721205D02*
X+822395Y+2734706D01*
X+822395Y+2694203D01*
D46*
X+1016000Y+3248745D02*
X+1327150Y+3248745D01*
X+1327150Y+3413845D01*
X+1016000Y+3413845D01*
X+1016000Y+3248745D01*
D104*
X+1092200Y+3331300D02*
X+1092200Y+3331300D01*
D105*
X+1205621Y+3317793D02*
X+1198026Y+3311043D01*
X+1175243Y+3311043D01*
X+1160055Y+3324544D01*
X+1160055Y+3338045D01*
X+1175243Y+3351546D01*
X+1198026Y+3351546D01*
X+1205621Y+3344796D01*
X+1235998Y+3338045D02*
X+1251187Y+3351546D01*
X+1251187Y+3311043D01*
D46*
X+1016000Y+3083645D02*
X+1327150Y+3083645D01*
X+1327150Y+3248745D01*
X+1016000Y+3248745D01*
X+1016000Y+3083645D01*
D104*
X+1092200Y+3166200D02*
X+1092200Y+3166200D01*
D105*
X+1160055Y+3145943D02*
X+1160055Y+3186446D01*
X+1198026Y+3186446D01*
X+1205621Y+3179696D01*
X+1205621Y+3172945D01*
X+1198026Y+3166195D01*
X+1160055Y+3166195D01*
X+1198026Y+3166195D02*
X+1205621Y+3159444D01*
X+1205621Y+3145943D01*
X+1266376Y+3172945D02*
X+1258781Y+3166195D01*
X+1235998Y+3166195D01*
X+1228404Y+3172945D01*
X+1228404Y+3179696D01*
X+1235998Y+3186446D01*
X+1258781Y+3186446D01*
X+1266376Y+3179696D01*
X+1266376Y+3152693D01*
X+1258781Y+3145943D01*
X+1235998Y+3145943D01*
D46*
X+1017250Y+2918555D02*
X+1328400Y+2918555D01*
X+1328400Y+3083655D01*
X+1017250Y+3083655D01*
X+1017250Y+2918555D01*
D104*
X+1252200Y+3001100D02*
X+1252200Y+3001100D01*
D105*
X+1078024Y+2987603D02*
X+1070429Y+2980853D01*
X+1047646Y+2980853D01*
X+1032458Y+2994354D01*
X+1032458Y+3007855D01*
X+1047646Y+3021356D01*
X+1070429Y+3021356D01*
X+1078024Y+3014606D01*
X+1108401Y+3007855D02*
X+1123590Y+3021356D01*
X+1123590Y+2980853D01*
X+1153968Y+2987603D02*
X+1153968Y+3014606D01*
X+1161562Y+3021356D01*
X+1191939Y+3021356D01*
X+1199534Y+3014606D01*
X+1199534Y+2987603D01*
X+1191939Y+2980853D01*
X+1161562Y+2980853D01*
X+1153968Y+2987603D01*
X+1153968Y+2980853D02*
X+1199534Y+3021356D01*
D46*
X+1017250Y+2372455D02*
X+1328400Y+2372455D01*
X+1328400Y+2537555D01*
X+1017250Y+2537555D01*
X+1017250Y+2372455D01*
D104*
X+1252200Y+2455000D02*
X+1252200Y+2455000D01*
D105*
X+1078024Y+2441503D02*
X+1070429Y+2434753D01*
X+1047646Y+2434753D01*
X+1032458Y+2448254D01*
X+1032458Y+2461755D01*
X+1047646Y+2475256D01*
X+1070429Y+2475256D01*
X+1078024Y+2468506D01*
X+1108401Y+2461755D02*
X+1123590Y+2475256D01*
X+1123590Y+2434753D01*
X+1169156Y+2461755D02*
X+1184345Y+2475256D01*
X+1184345Y+2434753D01*
D46*
X+1013505Y+2722050D02*
X+1381805Y+2722050D01*
X+1381805Y+2912550D01*
X+1013505Y+2912550D01*
X+1013505Y+2722050D01*
D120*
X+1305600Y+2817300D02*
X+1305600Y+2817300D01*
D121*
X+1088086Y+2800452D02*
X+1078609Y+2792028D01*
X+1050178Y+2792028D01*
X+1031224Y+2808876D01*
X+1031224Y+2825724D01*
X+1050178Y+2842572D01*
X+1078609Y+2842572D01*
X+1088086Y+2834148D01*
X+1125994Y+2825724D02*
X+1144948Y+2842572D01*
X+1144948Y+2792028D01*
X+1239718Y+2808876D02*
X+1182856Y+2808876D01*
X+1220764Y+2842572D01*
X+1220764Y+2792028D01*
D46*
X+1731895Y+2990700D02*
X+2100195Y+2990700D01*
X+2100195Y+3181200D01*
X+1731895Y+3181200D01*
X+1731895Y+2990700D01*
D120*
X+1808100Y+3085950D02*
X+1808100Y+3085950D01*
D121*
X+1949798Y+3069102D02*
X+1940321Y+3060678D01*
X+1911890Y+3060678D01*
X+1892936Y+3077526D01*
X+1892936Y+3094374D01*
X+1911890Y+3111222D01*
X+1940321Y+3111222D01*
X+1949798Y+3102798D01*
X+1987706Y+3085950D02*
X+1978229Y+3094374D01*
X+1978229Y+3102798D01*
X+1987706Y+3111222D01*
X+2016137Y+3111222D01*
X+2025614Y+3102798D01*
X+2025614Y+3094374D01*
X+2016137Y+3085950D01*
X+1987706Y+3085950D01*
X+1978229Y+3077526D01*
X+1978229Y+3069102D01*
X+1987706Y+3060678D01*
X+2016137Y+3060678D01*
X+2025614Y+3069102D01*
X+2025614Y+3077526D01*
X+2016137Y+3085950D01*
D46*
X+1533150Y+2054605D02*
X+1844300Y+2054605D01*
X+1844300Y+2219705D01*
X+1533150Y+2219705D01*
X+1533150Y+2054605D01*
D104*
X+1768100Y+2137150D02*
X+1768100Y+2137150D01*
D105*
X+1624301Y+2123653D02*
X+1616706Y+2116903D01*
X+1593923Y+2116903D01*
X+1578735Y+2130404D01*
X+1578735Y+2143905D01*
X+1593923Y+2157406D01*
X+1616706Y+2157406D01*
X+1624301Y+2150656D01*
X+1685056Y+2143905D02*
X+1677461Y+2137155D01*
X+1654678Y+2137155D01*
X+1647084Y+2143905D01*
X+1647084Y+2150656D01*
X+1654678Y+2157406D01*
X+1677461Y+2157406D01*
X+1685056Y+2150656D01*
X+1685056Y+2123653D01*
X+1677461Y+2116903D01*
X+1654678Y+2116903D01*
D46*
X+1731900Y+3181195D02*
X+2043050Y+3181195D01*
X+2043050Y+3346295D01*
X+1731900Y+3346295D01*
X+1731900Y+3181195D01*
D104*
X+1808100Y+3263750D02*
X+1808100Y+3263750D01*
D105*
X+1891144Y+3250243D02*
X+1883549Y+3243493D01*
X+1860766Y+3243493D01*
X+1845578Y+3256994D01*
X+1845578Y+3270495D01*
X+1860766Y+3283996D01*
X+1883549Y+3283996D01*
X+1891144Y+3277246D01*
X+1921521Y+3270495D02*
X+1936710Y+3283996D01*
X+1936710Y+3243493D01*
X+2012654Y+3283996D02*
X+1974682Y+3283996D01*
X+1974682Y+3270495D01*
X+2005059Y+3270495D01*
X+2012654Y+3263745D01*
X+2012654Y+3250243D01*
X+2005059Y+3243493D01*
X+1982276Y+3243493D01*
X+1974682Y+3250243D01*
D48*
X+4157100Y+1870650D02*
X+4319800Y+1870650D01*
X+4319800Y+2033350D01*
X+4157100Y+2033350D01*
X+4157100Y+1870650D01*
D109*
X+4170950Y+1967000D02*
X+4204700Y+1967000D01*
X+4187825Y+1967000D02*
X+4187825Y+1937000D01*
X+4215950Y+1937000D02*
X+4215950Y+1967000D01*
X+4244075Y+1967000D01*
X+4249700Y+1962000D01*
X+4249700Y+1957000D01*
X+4244075Y+1952000D01*
X+4215950Y+1952000D01*
X+4272200Y+1957000D02*
X+4283450Y+1967000D01*
X+4283450Y+1937000D01*
D48*
X+4751720Y+1635020D02*
X+4914420Y+1635020D01*
X+4914420Y+1797720D01*
X+4751720Y+1797720D01*
X+4751720Y+1635020D01*
D109*
X+4765570Y+1731370D02*
X+4799320Y+1731370D01*
X+4782445Y+1731370D02*
X+4782445Y+1701370D01*
X+4810570Y+1701370D02*
X+4810570Y+1731370D01*
X+4838695Y+1731370D01*
X+4844320Y+1726370D01*
X+4844320Y+1721370D01*
X+4838695Y+1716370D01*
X+4810570Y+1716370D01*
X+4861195Y+1726370D02*
X+4866820Y+1731370D01*
X+4883695Y+1731370D01*
X+4889320Y+1726370D01*
X+4889320Y+1721370D01*
X+4883695Y+1716370D01*
X+4866820Y+1716370D01*
X+4861195Y+1711370D01*
X+4861195Y+1701370D01*
X+4889320Y+1701370D01*
D48*
X+4497720Y+1635020D02*
X+4660420Y+1635020D01*
X+4660420Y+1797720D01*
X+4497720Y+1797720D01*
X+4497720Y+1635020D01*
D109*
X+4511570Y+1731370D02*
X+4545320Y+1731370D01*
X+4528445Y+1731370D02*
X+4528445Y+1701370D01*
X+4556570Y+1701370D02*
X+4556570Y+1731370D01*
X+4584695Y+1731370D01*
X+4590320Y+1726370D01*
X+4590320Y+1721370D01*
X+4584695Y+1716370D01*
X+4556570Y+1716370D01*
X+4607195Y+1726370D02*
X+4612820Y+1731370D01*
X+4629695Y+1731370D01*
X+4635320Y+1726370D01*
X+4635320Y+1721370D01*
X+4629695Y+1716370D01*
X+4635320Y+1711370D01*
X+4635320Y+1706370D01*
X+4629695Y+1701370D01*
X+4612820Y+1701370D01*
X+4607195Y+1706370D01*
X+4618445Y+1716370D02*
X+4629695Y+1716370D01*
D48*
X+4157100Y+2058650D02*
X+4319800Y+2058650D01*
X+4319800Y+2221350D01*
X+4157100Y+2221350D01*
X+4157100Y+2058650D01*
D109*
X+4170950Y+2155000D02*
X+4204700Y+2155000D01*
X+4187825Y+2155000D02*
X+4187825Y+2125000D01*
X+4215950Y+2125000D02*
X+4215950Y+2155000D01*
X+4244075Y+2155000D01*
X+4249700Y+2150000D01*
X+4249700Y+2145000D01*
X+4244075Y+2140000D01*
X+4215950Y+2140000D01*
X+4294700Y+2155000D02*
X+4266575Y+2155000D01*
X+4266575Y+2145000D01*
X+4289075Y+2145000D01*
X+4294700Y+2140000D01*
X+4294700Y+2130000D01*
X+4289075Y+2125000D01*
X+4272200Y+2125000D01*
X+4266575Y+2130000D01*
D46*
X+5899745Y+2032800D02*
X+6268045Y+2032800D01*
X+6268045Y+2223300D01*
X+5899745Y+2223300D01*
X+5899745Y+2032800D01*
D120*
X+5975950Y+2128050D02*
X+5975950Y+2128050D01*
D121*
X+6079740Y+2111202D02*
X+6070263Y+2102778D01*
X+6041832Y+2102778D01*
X+6022878Y+2119626D01*
X+6022878Y+2136474D01*
X+6041832Y+2153322D01*
X+6070263Y+2153322D01*
X+6079740Y+2144898D01*
X+6108171Y+2144898D02*
X+6117648Y+2153322D01*
X+6146079Y+2153322D01*
X+6155556Y+2144898D01*
X+6155556Y+2136474D01*
X+6146079Y+2128050D01*
X+6117648Y+2128050D01*
X+6108171Y+2119626D01*
X+6108171Y+2102778D01*
X+6155556Y+2102778D01*
X+6231372Y+2144898D02*
X+6221895Y+2153322D01*
X+6193464Y+2153322D01*
X+6183987Y+2144898D01*
X+6183987Y+2111202D01*
X+6193464Y+2102778D01*
X+6221895Y+2102778D01*
X+6231372Y+2111202D01*
X+6231372Y+2119626D01*
X+6221895Y+2128050D01*
X+6183987Y+2128050D01*
D46*
X+3825700Y+2212355D02*
X+4136850Y+2212355D01*
X+4136850Y+2377455D01*
X+3825700Y+2377455D01*
X+3825700Y+2212355D01*
D104*
X+4060650Y+2294900D02*
X+4060650Y+2294900D01*
D105*
X+3886474Y+2281403D02*
X+3878879Y+2274653D01*
X+3856096Y+2274653D01*
X+3840908Y+2288154D01*
X+3840908Y+2301655D01*
X+3856096Y+2315156D01*
X+3878879Y+2315156D01*
X+3886474Y+2308406D01*
X+3916851Y+2301655D02*
X+3932040Y+2315156D01*
X+3932040Y+2274653D01*
X+3970012Y+2308406D02*
X+3977606Y+2315156D01*
X+4000389Y+2315156D01*
X+4007984Y+2308406D01*
X+4007984Y+2301655D01*
X+4000389Y+2294905D01*
X+4007984Y+2288154D01*
X+4007984Y+2281403D01*
X+4000389Y+2274653D01*
X+3977606Y+2274653D01*
X+3970012Y+2281403D01*
X+3985201Y+2294905D02*
X+4000389Y+2294905D01*
D46*
X+3768555Y+2377450D02*
X+4136855Y+2377450D01*
X+4136855Y+2567950D01*
X+3768555Y+2567950D01*
X+3768555Y+2377450D01*
D120*
X+4060650Y+2472700D02*
X+4060650Y+2472700D01*
D121*
X+3843136Y+2455852D02*
X+3833659Y+2447428D01*
X+3805228Y+2447428D01*
X+3786274Y+2464276D01*
X+3786274Y+2481124D01*
X+3805228Y+2497972D01*
X+3833659Y+2497972D01*
X+3843136Y+2489548D01*
X+3871567Y+2489548D02*
X+3881044Y+2497972D01*
X+3909475Y+2497972D01*
X+3918952Y+2489548D01*
X+3918952Y+2481124D01*
X+3909475Y+2472700D01*
X+3881044Y+2472700D01*
X+3871567Y+2464276D01*
X+3871567Y+2447428D01*
X+3918952Y+2447428D01*
X+3947383Y+2497972D02*
X+3994768Y+2497972D01*
X+3994768Y+2489548D01*
X+3947383Y+2447428D01*
D46*
X+2101510Y+3003405D02*
X+2412660Y+3003405D01*
X+2412660Y+3168505D01*
X+2101510Y+3168505D01*
X+2101510Y+3003405D01*
D104*
X+2336460Y+3085950D02*
X+2336460Y+3085950D01*
D105*
X+2162284Y+3072453D02*
X+2154689Y+3065703D01*
X+2131906Y+3065703D01*
X+2116718Y+3079204D01*
X+2116718Y+3092705D01*
X+2131906Y+3106206D01*
X+2154689Y+3106206D01*
X+2162284Y+3099456D01*
X+2192661Y+3092705D02*
X+2207850Y+3106206D01*
X+2207850Y+3065703D01*
X+2283794Y+3099456D02*
X+2276199Y+3106206D01*
X+2253416Y+3106206D01*
X+2245822Y+3099456D01*
X+2245822Y+3072453D01*
X+2253416Y+3065703D01*
X+2276199Y+3065703D01*
X+2283794Y+3072453D01*
X+2283794Y+3079204D01*
X+2276199Y+3085955D01*
X+2245822Y+3085955D01*
D46*
X+2413870Y+3003405D02*
X+2725020Y+3003405D01*
X+2725020Y+3168505D01*
X+2413870Y+3168505D01*
X+2413870Y+3003405D01*
D104*
X+2648820Y+3085950D02*
X+2648820Y+3085950D01*
D105*
X+2474644Y+3072453D02*
X+2467049Y+3065703D01*
X+2444266Y+3065703D01*
X+2429078Y+3079204D01*
X+2429078Y+3092705D01*
X+2444266Y+3106206D01*
X+2467049Y+3106206D01*
X+2474644Y+3099456D01*
X+2505021Y+3092705D02*
X+2520210Y+3106206D01*
X+2520210Y+3065703D01*
X+2558182Y+3106206D02*
X+2596154Y+3106206D01*
X+2596154Y+3099456D01*
X+2558182Y+3065703D01*
D46*
X+991850Y+120655D02*
X+1303000Y+120655D01*
X+1303000Y+285755D01*
X+991850Y+285755D01*
X+991850Y+120655D01*
D104*
X+1226800Y+203200D02*
X+1226800Y+203200D01*
D105*
X+1037435Y+182953D02*
X+1037435Y+223456D01*
X+1075406Y+223456D01*
X+1083001Y+216706D01*
X+1083001Y+209955D01*
X+1075406Y+203205D01*
X+1037435Y+203205D01*
X+1075406Y+203205D02*
X+1083001Y+196454D01*
X+1083001Y+182953D01*
X+1113378Y+203205D02*
X+1105784Y+209955D01*
X+1105784Y+216706D01*
X+1113378Y+223456D01*
X+1136161Y+223456D01*
X+1143756Y+216706D01*
X+1143756Y+209955D01*
X+1136161Y+203205D01*
X+1113378Y+203205D01*
X+1105784Y+196454D01*
X+1105784Y+189703D01*
X+1113378Y+182953D01*
X+1136161Y+182953D01*
X+1143756Y+189703D01*
X+1143756Y+196454D01*
X+1136161Y+203205D01*
D46*
X+2207840Y+616545D02*
X+2518990Y+616545D01*
X+2518990Y+781645D01*
X+2207840Y+781645D01*
X+2207840Y+616545D01*
D104*
X+2284040Y+699100D02*
X+2284040Y+699100D01*
D105*
X+2367084Y+685593D02*
X+2359489Y+678843D01*
X+2336706Y+678843D01*
X+2321518Y+692344D01*
X+2321518Y+705845D01*
X+2336706Y+719346D01*
X+2359489Y+719346D01*
X+2367084Y+712596D01*
X+2397461Y+705845D02*
X+2412650Y+719346D01*
X+2412650Y+678843D01*
X+2488594Y+705845D02*
X+2480999Y+699095D01*
X+2458216Y+699095D01*
X+2450622Y+705845D01*
X+2450622Y+712596D01*
X+2458216Y+719346D01*
X+2480999Y+719346D01*
X+2488594Y+712596D01*
X+2488594Y+685593D01*
X+2480999Y+678843D01*
X+2458216Y+678843D01*
D46*
X+2207840Y+781645D02*
X+2518990Y+781645D01*
X+2518990Y+946745D01*
X+2207840Y+946745D01*
X+2207840Y+781645D01*
D104*
X+2284040Y+864200D02*
X+2284040Y+864200D01*
D105*
X+2321518Y+843943D02*
X+2321518Y+884446D01*
X+2359489Y+884446D01*
X+2367084Y+877696D01*
X+2367084Y+870945D01*
X+2359489Y+864195D01*
X+2321518Y+864195D01*
X+2359489Y+864195D02*
X+2367084Y+857444D01*
X+2367084Y+843943D01*
X+2397461Y+870945D02*
X+2412650Y+884446D01*
X+2412650Y+843943D01*
X+2450622Y+877696D02*
X+2458216Y+884446D01*
X+2480999Y+884446D01*
X+2488594Y+877696D01*
X+2488594Y+870945D01*
X+2480999Y+864195D01*
X+2488594Y+857444D01*
X+2488594Y+850693D01*
X+2480999Y+843943D01*
X+2458216Y+843943D01*
X+2450622Y+850693D01*
X+2465811Y+864195D02*
X+2480999Y+864195D01*
D46*
X+1786560Y+587670D02*
X+2206560Y+587670D01*
X+2206560Y+972670D01*
X+1786560Y+972670D01*
X+1786560Y+587670D01*
D122*
X+2126560Y+687670D02*
X+2126560Y+687670D01*
D119*
X+1933525Y+667719D02*
X+1908536Y+695831D01*
X+1908536Y+723944D01*
X+1933525Y+752057D01*
X+1958514Y+752057D01*
X+1983503Y+723944D01*
X+1983503Y+695831D01*
X+1958514Y+667719D01*
X+1933525Y+667719D01*
X+1958514Y+723944D02*
X+1983503Y+752057D01*
X+1933525Y+864508D02*
X+1946019Y+850451D01*
X+1946019Y+808282D01*
X+1933525Y+794226D01*
X+1921030Y+794226D01*
X+1908536Y+808282D01*
X+1908536Y+850451D01*
X+1921030Y+864508D01*
X+1971009Y+864508D01*
X+1983503Y+850451D01*
X+1983503Y+808282D01*
D46*
X+1471240Y+781655D02*
X+1782390Y+781655D01*
X+1782390Y+946755D01*
X+1471240Y+946755D01*
X+1471240Y+781655D01*
D104*
X+1706190Y+864200D02*
X+1706190Y+864200D01*
D105*
X+1532014Y+850703D02*
X+1524419Y+843953D01*
X+1501636Y+843953D01*
X+1486448Y+857454D01*
X+1486448Y+870955D01*
X+1501636Y+884456D01*
X+1524419Y+884456D01*
X+1532014Y+877706D01*
X+1562391Y+870955D02*
X+1577580Y+884456D01*
X+1577580Y+843953D01*
X+1623146Y+864205D02*
X+1615552Y+870955D01*
X+1615552Y+877706D01*
X+1623146Y+884456D01*
X+1645929Y+884456D01*
X+1653524Y+877706D01*
X+1653524Y+870955D01*
X+1645929Y+864205D01*
X+1623146Y+864205D01*
X+1615552Y+857454D01*
X+1615552Y+850703D01*
X+1623146Y+843953D01*
X+1645929Y+843953D01*
X+1653524Y+850703D01*
X+1653524Y+857454D01*
X+1645929Y+864205D01*
D46*
X+1414095Y+591150D02*
X+1782395Y+591150D01*
X+1782395Y+781650D01*
X+1414095Y+781650D01*
X+1414095Y+591150D01*
D120*
X+1706190Y+686400D02*
X+1706190Y+686400D01*
D121*
X+1488676Y+669552D02*
X+1479199Y+661128D01*
X+1450768Y+661128D01*
X+1431814Y+677976D01*
X+1431814Y+694824D01*
X+1450768Y+711672D01*
X+1479199Y+711672D01*
X+1488676Y+703248D01*
X+1517107Y+703248D02*
X+1526584Y+711672D01*
X+1555015Y+711672D01*
X+1564492Y+703248D01*
X+1564492Y+694824D01*
X+1555015Y+686400D01*
X+1526584Y+686400D01*
X+1517107Y+677976D01*
X+1517107Y+661128D01*
X+1564492Y+661128D01*
X+1583446Y+669552D02*
X+1583446Y+703248D01*
X+1592923Y+711672D01*
X+1630831Y+711672D01*
X+1640308Y+703248D01*
X+1640308Y+669552D01*
X+1630831Y+661128D01*
X+1592923Y+661128D01*
X+1583446Y+669552D01*
X+1583446Y+661128D02*
X+1640308Y+711672D01*
D46*
X+3824450Y+2917195D02*
X+4135600Y+2917195D01*
X+4135600Y+3082295D01*
X+3824450Y+3082295D01*
X+3824450Y+2917195D01*
D104*
X+3900650Y+2999750D02*
X+3900650Y+2999750D01*
D105*
X+3938128Y+2979493D02*
X+3938128Y+3019996D01*
X+3976099Y+3019996D01*
X+3983694Y+3013246D01*
X+3983694Y+3006495D01*
X+3976099Y+2999745D01*
X+3938128Y+2999745D01*
X+3976099Y+2999745D02*
X+3983694Y+2992994D01*
X+3983694Y+2979493D01*
X+4014071Y+3006495D02*
X+4029260Y+3019996D01*
X+4029260Y+2979493D01*
X+4105204Y+2992994D02*
X+4059638Y+2992994D01*
X+4090015Y+3019996D01*
X+4090015Y+2979493D01*
D46*
X+3825700Y+2752105D02*
X+4136850Y+2752105D01*
X+4136850Y+2917205D01*
X+3825700Y+2917205D01*
X+3825700Y+2752105D01*
D104*
X+4060650Y+2834650D02*
X+4060650Y+2834650D01*
D105*
X+3840908Y+2814403D02*
X+3840908Y+2854906D01*
X+3878879Y+2854906D01*
X+3886474Y+2848156D01*
X+3886474Y+2841405D01*
X+3878879Y+2834655D01*
X+3840908Y+2834655D01*
X+3878879Y+2834655D02*
X+3886474Y+2827904D01*
X+3886474Y+2814403D01*
X+3909257Y+2848156D02*
X+3916851Y+2854906D01*
X+3939634Y+2854906D01*
X+3947229Y+2848156D01*
X+3947229Y+2841405D01*
X+3939634Y+2834655D01*
X+3916851Y+2834655D01*
X+3909257Y+2827904D01*
X+3909257Y+2814403D01*
X+3947229Y+2814403D01*
X+3970012Y+2848156D02*
X+3977606Y+2854906D01*
X+4000389Y+2854906D01*
X+4007984Y+2848156D01*
X+4007984Y+2841405D01*
X+4000389Y+2834655D01*
X+4007984Y+2827904D01*
X+4007984Y+2821153D01*
X+4000389Y+2814403D01*
X+3977606Y+2814403D01*
X+3970012Y+2821153D01*
X+3985201Y+2834655D02*
X+4000389Y+2834655D01*
D46*
X+983730Y+3430720D02*
X+1368730Y+3430720D01*
X+1368730Y+3850720D01*
X+983730Y+3850720D01*
X+983730Y+3430720D01*
D122*
X+1268730Y+3770720D02*
X+1268730Y+3770720D01*
D119*
X+1063779Y+3602673D02*
X+1091891Y+3627662D01*
X+1120004Y+3627662D01*
X+1148117Y+3602673D01*
X+1148117Y+3577684D01*
X+1120004Y+3552695D01*
X+1091891Y+3552695D01*
X+1063779Y+3577684D01*
X+1063779Y+3602673D01*
X+1120004Y+3577684D02*
X+1148117Y+3552695D01*
X+1190286Y+3615168D02*
X+1204342Y+3627662D01*
X+1246511Y+3627662D01*
X+1260568Y+3615168D01*
X+1260568Y+3602673D01*
X+1246511Y+3590179D01*
X+1260568Y+3577684D01*
X+1260568Y+3565189D01*
X+1246511Y+3552695D01*
X+1204342Y+3552695D01*
X+1190286Y+3565189D01*
X+1218399Y+3590179D02*
X+1246511Y+3590179D01*
D46*
X+1371080Y+3430720D02*
X+1756080Y+3430720D01*
X+1756080Y+3850720D01*
X+1371080Y+3850720D01*
X+1371080Y+3430720D01*
D122*
X+1656080Y+3770720D02*
X+1656080Y+3770720D01*
D119*
X+1451129Y+3602673D02*
X+1479241Y+3627662D01*
X+1507354Y+3627662D01*
X+1535467Y+3602673D01*
X+1535467Y+3577684D01*
X+1507354Y+3552695D01*
X+1479241Y+3552695D01*
X+1451129Y+3577684D01*
X+1451129Y+3602673D01*
X+1507354Y+3577684D02*
X+1535467Y+3552695D01*
X+1647918Y+3577684D02*
X+1563580Y+3577684D01*
X+1619805Y+3627662D01*
X+1619805Y+3552695D01*
D46*
X+596380Y+3430720D02*
X+981380Y+3430720D01*
X+981380Y+3850720D01*
X+596380Y+3850720D01*
X+596380Y+3430720D01*
D122*
X+881380Y+3770720D02*
X+881380Y+3770720D01*
D119*
X+676429Y+3602673D02*
X+704541Y+3627662D01*
X+732654Y+3627662D01*
X+760767Y+3602673D01*
X+760767Y+3577684D01*
X+732654Y+3552695D01*
X+704541Y+3552695D01*
X+676429Y+3577684D01*
X+676429Y+3602673D01*
X+732654Y+3577684D02*
X+760767Y+3552695D01*
X+873218Y+3627662D02*
X+802936Y+3627662D01*
X+802936Y+3602673D01*
X+859161Y+3602673D01*
X+873218Y+3590179D01*
X+873218Y+3565189D01*
X+859161Y+3552695D01*
X+816992Y+3552695D01*
X+802936Y+3565189D01*
D46*
X+566700Y+3852850D02*
X+921700Y+3852850D01*
X+921700Y+4417850D01*
X+566700Y+4417850D01*
X+566700Y+3852850D01*
D123*
X+744200Y+4285350D02*
X+744200Y+4285350D01*
D124*
X+768494Y+4018274D02*
X+780641Y+4004608D01*
X+780641Y+3963612D01*
X+756347Y+3936282D01*
X+732053Y+3936282D01*
X+707759Y+3963612D01*
X+707759Y+4004608D01*
X+719906Y+4018274D01*
X+719906Y+4059270D02*
X+707759Y+4072935D01*
X+707759Y+4113931D01*
X+719906Y+4127597D01*
X+732053Y+4127597D01*
X+744200Y+4113931D01*
X+744200Y+4072935D01*
X+756347Y+4059270D01*
X+780641Y+4059270D01*
X+780641Y+4127597D01*
D46*
X+1757675Y+3535770D02*
X+1922775Y+3535770D01*
X+1922775Y+3846920D01*
X+1757675Y+3846920D01*
X+1757675Y+3535770D01*
D104*
X+1840230Y+3770720D02*
X+1840230Y+3770720D01*
D105*
X+1860477Y+3581355D02*
X+1819974Y+3581355D01*
X+1819974Y+3619326D01*
X+1826724Y+3626921D01*
X+1833475Y+3626921D01*
X+1840225Y+3619326D01*
X+1840225Y+3581355D01*
X+1840225Y+3619326D02*
X+1846976Y+3626921D01*
X+1860477Y+3626921D01*
X+1826724Y+3649704D02*
X+1819974Y+3657298D01*
X+1819974Y+3680081D01*
X+1826724Y+3687676D01*
X+1833475Y+3687676D01*
X+1840225Y+3680081D01*
X+1846976Y+3687676D01*
X+1853727Y+3687676D01*
X+1860477Y+3680081D01*
X+1860477Y+3657298D01*
X+1853727Y+3649704D01*
X+1840225Y+3664893D02*
X+1840225Y+3680081D01*
D46*
X+430535Y+3534520D02*
X+595635Y+3534520D01*
X+595635Y+3845670D01*
X+430535Y+3845670D01*
X+430535Y+3534520D01*
D104*
X+513080Y+3610720D02*
X+513080Y+3610720D01*
D105*
X+533337Y+3678575D02*
X+492834Y+3678575D01*
X+492834Y+3716546D01*
X+499584Y+3724141D01*
X+506335Y+3724141D01*
X+513085Y+3716546D01*
X+513085Y+3678575D01*
X+513085Y+3716546D02*
X+519836Y+3724141D01*
X+533337Y+3724141D01*
X+499584Y+3784896D02*
X+492834Y+3777301D01*
X+492834Y+3754518D01*
X+499584Y+3746924D01*
X+526587Y+3746924D01*
X+533337Y+3754518D01*
X+533337Y+3777301D01*
X+526587Y+3784896D01*
X+519836Y+3784896D01*
X+513085Y+3777301D01*
X+513085Y+3746924D01*
D46*
X+958250Y+4442545D02*
X+1269400Y+4442545D01*
X+1269400Y+4607645D01*
X+958250Y+4607645D01*
X+958250Y+4442545D01*
D104*
X+1034450Y+4525100D02*
X+1034450Y+4525100D01*
D105*
X+1117494Y+4511593D02*
X+1109899Y+4504843D01*
X+1087116Y+4504843D01*
X+1071928Y+4518344D01*
X+1071928Y+4531845D01*
X+1087116Y+4545346D01*
X+1109899Y+4545346D01*
X+1117494Y+4538596D01*
X+1140277Y+4538596D02*
X+1147871Y+4545346D01*
X+1170654Y+4545346D01*
X+1178249Y+4538596D01*
X+1178249Y+4531845D01*
X+1170654Y+4525095D01*
X+1147871Y+4525095D01*
X+1140277Y+4518344D01*
X+1140277Y+4504843D01*
X+1178249Y+4504843D01*
X+1239004Y+4531845D02*
X+1231409Y+4525095D01*
X+1208626Y+4525095D01*
X+1201032Y+4531845D01*
X+1201032Y+4538596D01*
X+1208626Y+4545346D01*
X+1231409Y+4545346D01*
X+1239004Y+4538596D01*
X+1239004Y+4511593D01*
X+1231409Y+4504843D01*
X+1208626Y+4504843D01*
D46*
X+958250Y+4607645D02*
X+1269400Y+4607645D01*
X+1269400Y+4772745D01*
X+958250Y+4772745D01*
X+958250Y+4607645D01*
D104*
X+1034450Y+4690200D02*
X+1034450Y+4690200D01*
D105*
X+1071928Y+4669943D02*
X+1071928Y+4710446D01*
X+1109899Y+4710446D01*
X+1117494Y+4703696D01*
X+1117494Y+4696945D01*
X+1109899Y+4690195D01*
X+1071928Y+4690195D01*
X+1109899Y+4690195D02*
X+1117494Y+4683444D01*
X+1117494Y+4669943D01*
X+1140277Y+4703696D02*
X+1147871Y+4710446D01*
X+1170654Y+4710446D01*
X+1178249Y+4703696D01*
X+1178249Y+4696945D01*
X+1170654Y+4690195D01*
X+1178249Y+4683444D01*
X+1178249Y+4676693D01*
X+1170654Y+4669943D01*
X+1147871Y+4669943D01*
X+1140277Y+4676693D01*
X+1155466Y+4690195D02*
X+1170654Y+4690195D01*
X+1193438Y+4676693D02*
X+1193438Y+4703696D01*
X+1201032Y+4710446D01*
X+1231409Y+4710446D01*
X+1239004Y+4703696D01*
X+1239004Y+4676693D01*
X+1231409Y+4669943D01*
X+1201032Y+4669943D01*
X+1193438Y+4676693D01*
X+1193438Y+4669943D02*
X+1239004Y+4710446D01*
D46*
X+958250Y+4207595D02*
X+1269400Y+4207595D01*
X+1269400Y+4372695D01*
X+958250Y+4372695D01*
X+958250Y+4207595D01*
D104*
X+1034450Y+4290150D02*
X+1034450Y+4290150D01*
D105*
X+1147871Y+4276643D02*
X+1140276Y+4269893D01*
X+1117493Y+4269893D01*
X+1102305Y+4283394D01*
X+1102305Y+4296895D01*
X+1117493Y+4310396D01*
X+1140276Y+4310396D01*
X+1147871Y+4303646D01*
X+1208626Y+4283394D02*
X+1163060Y+4283394D01*
X+1193437Y+4310396D01*
X+1193437Y+4269893D01*
D46*
X+1419880Y+3853265D02*
X+1731030Y+3853265D01*
X+1731030Y+4018365D01*
X+1419880Y+4018365D01*
X+1419880Y+3853265D01*
D104*
X+1496080Y+3935820D02*
X+1496080Y+3935820D01*
D105*
X+1609501Y+3922313D02*
X+1601906Y+3915563D01*
X+1579123Y+3915563D01*
X+1563935Y+3929064D01*
X+1563935Y+3942565D01*
X+1579123Y+3956066D01*
X+1601906Y+3956066D01*
X+1609501Y+3949316D01*
X+1632284Y+3949316D02*
X+1639878Y+3956066D01*
X+1662661Y+3956066D01*
X+1670256Y+3949316D01*
X+1670256Y+3942565D01*
X+1662661Y+3935815D01*
X+1670256Y+3929064D01*
X+1670256Y+3922313D01*
X+1662661Y+3915563D01*
X+1639878Y+3915563D01*
X+1632284Y+3922313D01*
X+1647473Y+3935815D02*
X+1662661Y+3935815D01*
D46*
X+1419530Y+4043265D02*
X+1730680Y+4043265D01*
X+1730680Y+4208365D01*
X+1419530Y+4208365D01*
X+1419530Y+4043265D01*
D104*
X+1495730Y+4125820D02*
X+1495730Y+4125820D01*
D105*
X+1609151Y+4112313D02*
X+1601556Y+4105563D01*
X+1578773Y+4105563D01*
X+1563585Y+4119064D01*
X+1563585Y+4132565D01*
X+1578773Y+4146066D01*
X+1601556Y+4146066D01*
X+1609151Y+4139316D01*
X+1669906Y+4146066D02*
X+1631934Y+4146066D01*
X+1631934Y+4132565D01*
X+1662311Y+4132565D01*
X+1669906Y+4125815D01*
X+1669906Y+4112313D01*
X+1662311Y+4105563D01*
X+1639528Y+4105563D01*
X+1631934Y+4112313D01*
D46*
X+1731930Y+3856585D02*
X+1922430Y+3856585D01*
X+1922430Y+4224885D01*
X+1731930Y+4224885D01*
X+1731930Y+3856585D01*
D120*
X+1827180Y+4148680D02*
X+1827180Y+4148680D01*
D121*
X+1844028Y+3969074D02*
X+1852452Y+3959597D01*
X+1852452Y+3931166D01*
X+1835604Y+3912212D01*
X+1818756Y+3912212D01*
X+1801908Y+3931166D01*
X+1801908Y+3959597D01*
X+1810332Y+3969074D01*
X+1810332Y+4044890D02*
X+1801908Y+4035413D01*
X+1801908Y+4006982D01*
X+1810332Y+3997505D01*
X+1844028Y+3997505D01*
X+1852452Y+4006982D01*
X+1852452Y+4035413D01*
X+1844028Y+4044890D01*
X+1835604Y+4044890D01*
X+1827180Y+4035413D01*
X+1827180Y+3997505D01*
D46*
X+1267680Y+4227720D02*
X+1832680Y+4227720D01*
X+1832680Y+4582720D01*
X+1267680Y+4582720D01*
X+1267680Y+4227720D01*
D123*
X+1400180Y+4405220D02*
X+1400180Y+4405220D01*
D124*
X+1612594Y+4380926D02*
X+1598928Y+4368779D01*
X+1557932Y+4368779D01*
X+1530602Y+4393073D01*
X+1530602Y+4417367D01*
X+1557932Y+4441661D01*
X+1598928Y+4441661D01*
X+1612594Y+4429514D01*
X+1653590Y+4441661D02*
X+1721917Y+4441661D01*
X+1721917Y+4429514D01*
X+1653590Y+4368779D01*
D46*
X+5756810Y+1677500D02*
X+6321810Y+1677500D01*
X+6321810Y+2032500D01*
X+5756810Y+2032500D01*
X+5756810Y+1677500D01*
D123*
X+6189310Y+1855000D02*
X+6189310Y+1855000D01*
D124*
X+5867573Y+1830706D02*
X+5853907Y+1818559D01*
X+5812911Y+1818559D01*
X+5785581Y+1842853D01*
X+5785581Y+1867147D01*
X+5812911Y+1891441D01*
X+5853907Y+1891441D01*
X+5867573Y+1879294D01*
X+5908569Y+1879294D02*
X+5922234Y+1891441D01*
X+5963230Y+1891441D01*
X+5976896Y+1879294D01*
X+5976896Y+1867147D01*
X+5963230Y+1855000D01*
X+5922234Y+1855000D01*
X+5908569Y+1842853D01*
X+5908569Y+1818559D01*
X+5976896Y+1818559D01*
X+6017892Y+1879294D02*
X+6031557Y+1891441D01*
X+6072553Y+1891441D01*
X+6086219Y+1879294D01*
X+6086219Y+1867147D01*
X+6072553Y+1855000D01*
X+6031557Y+1855000D01*
X+6017892Y+1842853D01*
X+6017892Y+1818559D01*
X+6086219Y+1818559D01*
D46*
X+3824450Y+1869445D02*
X+4135600Y+1869445D01*
X+4135600Y+2034545D01*
X+3824450Y+2034545D01*
X+3824450Y+1869445D01*
D104*
X+3900650Y+1952000D02*
X+3900650Y+1952000D01*
D105*
X+3938128Y+1931743D02*
X+3938128Y+1972246D01*
X+3976099Y+1972246D01*
X+3983694Y+1965496D01*
X+3983694Y+1958745D01*
X+3976099Y+1951995D01*
X+3938128Y+1951995D01*
X+3976099Y+1951995D02*
X+3983694Y+1945244D01*
X+3983694Y+1931743D01*
X+4014071Y+1958745D02*
X+4029260Y+1972246D01*
X+4029260Y+1931743D01*
X+4067232Y+1972246D02*
X+4105204Y+1972246D01*
X+4105204Y+1965496D01*
X+4067232Y+1931743D01*
D46*
X+3824450Y+2034545D02*
X+4135600Y+2034545D01*
X+4135600Y+2199645D01*
X+3824450Y+2199645D01*
X+3824450Y+2034545D01*
D104*
X+3900650Y+2117100D02*
X+3900650Y+2117100D01*
D105*
X+3938128Y+2096843D02*
X+3938128Y+2137346D01*
X+3976099Y+2137346D01*
X+3983694Y+2130596D01*
X+3983694Y+2123845D01*
X+3976099Y+2117095D01*
X+3938128Y+2117095D01*
X+3976099Y+2117095D02*
X+3983694Y+2110344D01*
X+3983694Y+2096843D01*
X+4014071Y+2123845D02*
X+4029260Y+2137346D01*
X+4029260Y+2096843D01*
X+4105204Y+2130596D02*
X+4097609Y+2137346D01*
X+4074826Y+2137346D01*
X+4067232Y+2130596D01*
X+4067232Y+2103593D01*
X+4074826Y+2096843D01*
X+4097609Y+2096843D01*
X+4105204Y+2103593D01*
X+4105204Y+2110344D01*
X+4097609Y+2117095D01*
X+4067232Y+2117095D01*
D46*
X+1420750Y+3181205D02*
X+1731900Y+3181205D01*
X+1731900Y+3346305D01*
X+1420750Y+3346305D01*
X+1420750Y+3181205D01*
D104*
X+1655700Y+3263750D02*
X+1655700Y+3263750D01*
D105*
X+1435958Y+3243503D02*
X+1435958Y+3284006D01*
X+1473929Y+3284006D01*
X+1481524Y+3277256D01*
X+1481524Y+3270505D01*
X+1473929Y+3263755D01*
X+1435958Y+3263755D01*
X+1473929Y+3263755D02*
X+1481524Y+3257004D01*
X+1481524Y+3243503D01*
X+1511901Y+3270505D02*
X+1527090Y+3284006D01*
X+1527090Y+3243503D01*
X+1572656Y+3270505D02*
X+1587845Y+3284006D01*
X+1587845Y+3243503D01*
D46*
X+5241500Y+3768787D02*
X+5552650Y+3768787D01*
X+5552650Y+3933887D01*
X+5241500Y+3933887D01*
X+5241500Y+3768787D01*
D104*
X+5317700Y+3851342D02*
X+5317700Y+3851342D01*
D105*
X+5400744Y+3837835D02*
X+5393149Y+3831085D01*
X+5370366Y+3831085D01*
X+5355178Y+3844586D01*
X+5355178Y+3858087D01*
X+5370366Y+3871588D01*
X+5393149Y+3871588D01*
X+5400744Y+3864838D01*
X+5423527Y+3864838D02*
X+5431121Y+3871588D01*
X+5453904Y+3871588D01*
X+5461499Y+3864838D01*
X+5461499Y+3858087D01*
X+5453904Y+3851337D01*
X+5431121Y+3851337D01*
X+5423527Y+3844586D01*
X+5423527Y+3831085D01*
X+5461499Y+3831085D01*
X+5491876Y+3851337D02*
X+5484282Y+3858087D01*
X+5484282Y+3864838D01*
X+5491876Y+3871588D01*
X+5514659Y+3871588D01*
X+5522254Y+3864838D01*
X+5522254Y+3858087D01*
X+5514659Y+3851337D01*
X+5491876Y+3851337D01*
X+5484282Y+3844586D01*
X+5484282Y+3837835D01*
X+5491876Y+3831085D01*
X+5514659Y+3831085D01*
X+5522254Y+3837835D01*
X+5522254Y+3844586D01*
X+5514659Y+3851337D01*
D46*
X+5241500Y+3588787D02*
X+5552650Y+3588787D01*
X+5552650Y+3753887D01*
X+5241500Y+3753887D01*
X+5241500Y+3588787D01*
D104*
X+5317700Y+3671342D02*
X+5317700Y+3671342D01*
D105*
X+5400744Y+3657835D02*
X+5393149Y+3651085D01*
X+5370366Y+3651085D01*
X+5355178Y+3664586D01*
X+5355178Y+3678087D01*
X+5370366Y+3691588D01*
X+5393149Y+3691588D01*
X+5400744Y+3684838D01*
X+5423527Y+3684838D02*
X+5431121Y+3691588D01*
X+5453904Y+3691588D01*
X+5461499Y+3684838D01*
X+5461499Y+3678087D01*
X+5453904Y+3671337D01*
X+5461499Y+3664586D01*
X+5461499Y+3657835D01*
X+5453904Y+3651085D01*
X+5431121Y+3651085D01*
X+5423527Y+3657835D01*
X+5438716Y+3671337D02*
X+5453904Y+3671337D01*
X+5491876Y+3678087D02*
X+5507065Y+3691588D01*
X+5507065Y+3651085D01*
D46*
X+4689700Y+3767697D02*
X+5000850Y+3767697D01*
X+5000850Y+3932797D01*
X+4689700Y+3932797D01*
X+4689700Y+3767697D01*
D104*
X+4924650Y+3850242D02*
X+4924650Y+3850242D01*
D105*
X+4704908Y+3829995D02*
X+4704908Y+3870498D01*
X+4742879Y+3870498D01*
X+4750474Y+3863748D01*
X+4750474Y+3856997D01*
X+4742879Y+3850247D01*
X+4704908Y+3850247D01*
X+4742879Y+3850247D02*
X+4750474Y+3843496D01*
X+4750474Y+3829995D01*
X+4773257Y+3863748D02*
X+4780851Y+3870498D01*
X+4803634Y+3870498D01*
X+4811229Y+3863748D01*
X+4811229Y+3856997D01*
X+4803634Y+3850247D01*
X+4811229Y+3843496D01*
X+4811229Y+3836745D01*
X+4803634Y+3829995D01*
X+4780851Y+3829995D01*
X+4773257Y+3836745D01*
X+4788446Y+3850247D02*
X+4803634Y+3850247D01*
X+4834012Y+3863748D02*
X+4841606Y+3870498D01*
X+4864389Y+3870498D01*
X+4871984Y+3863748D01*
X+4871984Y+3856997D01*
X+4864389Y+3850247D01*
X+4841606Y+3850247D01*
X+4834012Y+3843496D01*
X+4834012Y+3829995D01*
X+4871984Y+3829995D01*
D46*
X+2118600Y+2054605D02*
X+2429750Y+2054605D01*
X+2429750Y+2219705D01*
X+2118600Y+2219705D01*
X+2118600Y+2054605D01*
D104*
X+2353550Y+2137150D02*
X+2353550Y+2137150D01*
D105*
X+2133808Y+2116903D02*
X+2133808Y+2157406D01*
X+2171779Y+2157406D01*
X+2179374Y+2150656D01*
X+2179374Y+2143905D01*
X+2171779Y+2137155D01*
X+2133808Y+2137155D01*
X+2171779Y+2137155D02*
X+2179374Y+2130404D01*
X+2179374Y+2116903D01*
X+2209751Y+2143905D02*
X+2224940Y+2157406D01*
X+2224940Y+2116903D01*
X+2270506Y+2137155D02*
X+2262912Y+2143905D01*
X+2262912Y+2150656D01*
X+2270506Y+2157406D01*
X+2293289Y+2157406D01*
X+2300884Y+2150656D01*
X+2300884Y+2143905D01*
X+2293289Y+2137155D01*
X+2270506Y+2137155D01*
X+2262912Y+2130404D01*
X+2262912Y+2123653D01*
X+2270506Y+2116903D01*
X+2293289Y+2116903D01*
X+2300884Y+2123653D01*
X+2300884Y+2130404D01*
X+2293289Y+2137155D01*
D46*
X+2429750Y+2054605D02*
X+2740900Y+2054605D01*
X+2740900Y+2219705D01*
X+2429750Y+2219705D01*
X+2429750Y+2054605D01*
D104*
X+2664700Y+2137150D02*
X+2664700Y+2137150D01*
D105*
X+2444958Y+2116903D02*
X+2444958Y+2157406D01*
X+2482929Y+2157406D01*
X+2490524Y+2150656D01*
X+2490524Y+2143905D01*
X+2482929Y+2137155D01*
X+2444958Y+2137155D01*
X+2482929Y+2137155D02*
X+2490524Y+2130404D01*
X+2490524Y+2116903D01*
X+2520901Y+2143905D02*
X+2536090Y+2157406D01*
X+2536090Y+2116903D01*
X+2612034Y+2143905D02*
X+2604439Y+2137155D01*
X+2581656Y+2137155D01*
X+2574062Y+2143905D01*
X+2574062Y+2150656D01*
X+2581656Y+2157406D01*
X+2604439Y+2157406D01*
X+2612034Y+2150656D01*
X+2612034Y+2123653D01*
X+2604439Y+2116903D01*
X+2581656Y+2116903D01*
D46*
X+4047270Y+1210920D02*
X+4432270Y+1210920D01*
X+4432270Y+1630920D01*
X+4047270Y+1630920D01*
X+4047270Y+1210920D01*
D122*
X+4147270Y+1290920D02*
X+4147270Y+1290920D01*
D119*
X+4127319Y+1483955D02*
X+4155431Y+1508944D01*
X+4183544Y+1508944D01*
X+4211657Y+1483955D01*
X+4211657Y+1458966D01*
X+4183544Y+1433977D01*
X+4155431Y+1433977D01*
X+4127319Y+1458966D01*
X+4127319Y+1483955D01*
X+4183544Y+1458966D02*
X+4211657Y+1433977D01*
X+4267882Y+1483955D02*
X+4295995Y+1508944D01*
X+4295995Y+1433977D01*
D46*
X+3272570Y+1210920D02*
X+3657570Y+1210920D01*
X+3657570Y+1630920D01*
X+3272570Y+1630920D01*
X+3272570Y+1210920D01*
D122*
X+3372570Y+1290920D02*
X+3372570Y+1290920D01*
D119*
X+3352619Y+1483955D02*
X+3380731Y+1508944D01*
X+3408844Y+1508944D01*
X+3436957Y+1483955D01*
X+3436957Y+1458966D01*
X+3408844Y+1433977D01*
X+3380731Y+1433977D01*
X+3352619Y+1458966D01*
X+3352619Y+1483955D01*
X+3408844Y+1458966D02*
X+3436957Y+1433977D01*
X+3479126Y+1496450D02*
X+3493182Y+1508944D01*
X+3535351Y+1508944D01*
X+3549408Y+1496450D01*
X+3549408Y+1483955D01*
X+3535351Y+1471461D01*
X+3493182Y+1471461D01*
X+3479126Y+1458966D01*
X+3479126Y+1433977D01*
X+3549408Y+1433977D01*
D46*
X+3659920Y+1210920D02*
X+4044920Y+1210920D01*
X+4044920Y+1630920D01*
X+3659920Y+1630920D01*
X+3659920Y+1210920D01*
D122*
X+3759920Y+1290920D02*
X+3759920Y+1290920D01*
D119*
X+3739969Y+1483955D02*
X+3768081Y+1508944D01*
X+3796194Y+1508944D01*
X+3824307Y+1483955D01*
X+3824307Y+1458966D01*
X+3796194Y+1433977D01*
X+3768081Y+1433977D01*
X+3739969Y+1458966D01*
X+3739969Y+1483955D01*
X+3796194Y+1458966D02*
X+3824307Y+1433977D01*
X+3936758Y+1496450D02*
X+3922701Y+1508944D01*
X+3880532Y+1508944D01*
X+3866476Y+1496450D01*
X+3866476Y+1446471D01*
X+3880532Y+1433977D01*
X+3922701Y+1433977D01*
X+3936758Y+1446471D01*
X+3936758Y+1458966D01*
X+3922701Y+1471461D01*
X+3866476Y+1471461D01*
D46*
X+3825700Y+3164855D02*
X+4136850Y+3164855D01*
X+4136850Y+3329955D01*
X+3825700Y+3329955D01*
X+3825700Y+3164855D01*
D104*
X+4060650Y+3247400D02*
X+4060650Y+3247400D01*
D105*
X+3886474Y+3233903D02*
X+3878879Y+3227153D01*
X+3856096Y+3227153D01*
X+3840908Y+3240654D01*
X+3840908Y+3254155D01*
X+3856096Y+3267656D01*
X+3878879Y+3267656D01*
X+3886474Y+3260906D01*
X+3909257Y+3260906D02*
X+3916851Y+3267656D01*
X+3939634Y+3267656D01*
X+3947229Y+3260906D01*
X+3947229Y+3254155D01*
X+3939634Y+3247405D01*
X+3916851Y+3247405D01*
X+3909257Y+3240654D01*
X+3909257Y+3227153D01*
X+3947229Y+3227153D01*
X+4007984Y+3267656D02*
X+3970012Y+3267656D01*
X+3970012Y+3254155D01*
X+4000389Y+3254155D01*
X+4007984Y+3247405D01*
X+4007984Y+3233903D01*
X+4000389Y+3227153D01*
X+3977606Y+3227153D01*
X+3970012Y+3233903D01*
D46*
X+5103100Y+3332255D02*
X+5414250Y+3332255D01*
X+5414250Y+3497355D01*
X+5103100Y+3497355D01*
X+5103100Y+3332255D01*
D104*
X+5338050Y+3414800D02*
X+5338050Y+3414800D01*
D105*
X+5148685Y+3394553D02*
X+5148685Y+3435056D01*
X+5186656Y+3435056D01*
X+5194251Y+3428306D01*
X+5194251Y+3421555D01*
X+5186656Y+3414805D01*
X+5148685Y+3414805D01*
X+5186656Y+3414805D02*
X+5194251Y+3408054D01*
X+5194251Y+3394553D01*
X+5255006Y+3408054D02*
X+5209440Y+3408054D01*
X+5239817Y+3435056D01*
X+5239817Y+3394553D01*
D46*
X+4703050Y+3332255D02*
X+5014200Y+3332255D01*
X+5014200Y+3497355D01*
X+4703050Y+3497355D01*
X+4703050Y+3332255D01*
D104*
X+4938000Y+3414800D02*
X+4938000Y+3414800D01*
D105*
X+4748635Y+3394553D02*
X+4748635Y+3435056D01*
X+4786606Y+3435056D01*
X+4794201Y+3428306D01*
X+4794201Y+3421555D01*
X+4786606Y+3414805D01*
X+4748635Y+3414805D01*
X+4786606Y+3414805D02*
X+4794201Y+3408054D01*
X+4794201Y+3394553D01*
X+4816984Y+3435056D02*
X+4854956Y+3435056D01*
X+4854956Y+3428306D01*
X+4816984Y+3394553D01*
D46*
X+3314170Y+1043265D02*
X+3625320Y+1043265D01*
X+3625320Y+1208365D01*
X+3314170Y+1208365D01*
X+3314170Y+1043265D01*
D104*
X+3390370Y+1125820D02*
X+3390370Y+1125820D01*
D105*
X+3458225Y+1105563D02*
X+3458225Y+1146066D01*
X+3496196Y+1146066D01*
X+3503791Y+1139316D01*
X+3503791Y+1132565D01*
X+3496196Y+1125815D01*
X+3458225Y+1125815D01*
X+3496196Y+1125815D02*
X+3503791Y+1119064D01*
X+3503791Y+1105563D01*
X+3534168Y+1132565D02*
X+3549357Y+1146066D01*
X+3549357Y+1105563D01*
D46*
X+3314170Y+1633815D02*
X+3625320Y+1633815D01*
X+3625320Y+1798915D01*
X+3314170Y+1798915D01*
X+3314170Y+1633815D01*
D104*
X+3390370Y+1716370D02*
X+3390370Y+1716370D01*
D105*
X+3458225Y+1696113D02*
X+3458225Y+1736616D01*
X+3496196Y+1736616D01*
X+3503791Y+1729866D01*
X+3503791Y+1723115D01*
X+3496196Y+1716365D01*
X+3458225Y+1716365D01*
X+3496196Y+1716365D02*
X+3503791Y+1709614D01*
X+3503791Y+1696113D01*
X+3526574Y+1729866D02*
X+3534168Y+1736616D01*
X+3556951Y+1736616D01*
X+3564546Y+1729866D01*
X+3564546Y+1723115D01*
X+3556951Y+1716365D01*
X+3534168Y+1716365D01*
X+3526574Y+1709614D01*
X+3526574Y+1696113D01*
X+3564546Y+1696113D01*
D46*
X+3701520Y+1043265D02*
X+4012670Y+1043265D01*
X+4012670Y+1208365D01*
X+3701520Y+1208365D01*
X+3701520Y+1043265D01*
D104*
X+3777720Y+1125820D02*
X+3777720Y+1125820D01*
D105*
X+3815198Y+1105563D02*
X+3815198Y+1146066D01*
X+3853169Y+1146066D01*
X+3860764Y+1139316D01*
X+3860764Y+1132565D01*
X+3853169Y+1125815D01*
X+3815198Y+1125815D01*
X+3853169Y+1125815D02*
X+3860764Y+1119064D01*
X+3860764Y+1105563D01*
X+3891141Y+1132565D02*
X+3906330Y+1146066D01*
X+3906330Y+1105563D01*
X+3936708Y+1112313D02*
X+3936708Y+1139316D01*
X+3944302Y+1146066D01*
X+3974679Y+1146066D01*
X+3982274Y+1139316D01*
X+3982274Y+1112313D01*
X+3974679Y+1105563D01*
X+3944302Y+1105563D01*
X+3936708Y+1112313D01*
X+3936708Y+1105563D02*
X+3982274Y+1146066D01*
D46*
X+4088870Y+1043265D02*
X+4400020Y+1043265D01*
X+4400020Y+1208365D01*
X+4088870Y+1208365D01*
X+4088870Y+1043265D01*
D104*
X+4165070Y+1125820D02*
X+4165070Y+1125820D01*
D105*
X+4202548Y+1105563D02*
X+4202548Y+1146066D01*
X+4240519Y+1146066D01*
X+4248114Y+1139316D01*
X+4248114Y+1132565D01*
X+4240519Y+1125815D01*
X+4202548Y+1125815D01*
X+4240519Y+1125815D02*
X+4248114Y+1119064D01*
X+4248114Y+1105563D01*
X+4270897Y+1139316D02*
X+4278491Y+1146066D01*
X+4301274Y+1146066D01*
X+4308869Y+1139316D01*
X+4308869Y+1132565D01*
X+4301274Y+1125815D01*
X+4278491Y+1125815D01*
X+4270897Y+1119064D01*
X+4270897Y+1105563D01*
X+4308869Y+1105563D01*
X+4324058Y+1112313D02*
X+4324058Y+1139316D01*
X+4331652Y+1146066D01*
X+4362029Y+1146066D01*
X+4369624Y+1139316D01*
X+4369624Y+1112313D01*
X+4362029Y+1105563D01*
X+4331652Y+1105563D01*
X+4324058Y+1112313D01*
X+4324058Y+1105563D02*
X+4369624Y+1146066D01*
D46*
X+4088870Y+1633815D02*
X+4400020Y+1633815D01*
X+4400020Y+1798915D01*
X+4088870Y+1798915D01*
X+4088870Y+1633815D01*
D104*
X+4165070Y+1716370D02*
X+4165070Y+1716370D01*
D105*
X+4202548Y+1696113D02*
X+4202548Y+1736616D01*
X+4240519Y+1736616D01*
X+4248114Y+1729866D01*
X+4248114Y+1723115D01*
X+4240519Y+1716365D01*
X+4202548Y+1716365D01*
X+4240519Y+1716365D02*
X+4248114Y+1709614D01*
X+4248114Y+1696113D01*
X+4270897Y+1729866D02*
X+4278491Y+1736616D01*
X+4301274Y+1736616D01*
X+4308869Y+1729866D01*
X+4308869Y+1723115D01*
X+4301274Y+1716365D01*
X+4278491Y+1716365D01*
X+4270897Y+1709614D01*
X+4270897Y+1696113D01*
X+4308869Y+1696113D01*
X+4339246Y+1723115D02*
X+4354435Y+1736616D01*
X+4354435Y+1696113D01*
D46*
X+3701520Y+1633815D02*
X+4012670Y+1633815D01*
X+4012670Y+1798915D01*
X+3701520Y+1798915D01*
X+3701520Y+1633815D01*
D104*
X+3777720Y+1716370D02*
X+3777720Y+1716370D01*
D105*
X+3815198Y+1696113D02*
X+3815198Y+1736616D01*
X+3853169Y+1736616D01*
X+3860764Y+1729866D01*
X+3860764Y+1723115D01*
X+3853169Y+1716365D01*
X+3815198Y+1716365D01*
X+3853169Y+1716365D02*
X+3860764Y+1709614D01*
X+3860764Y+1696113D01*
X+3883547Y+1729866D02*
X+3891141Y+1736616D01*
X+3913924Y+1736616D01*
X+3921519Y+1729866D01*
X+3921519Y+1723115D01*
X+3913924Y+1716365D01*
X+3891141Y+1716365D01*
X+3883547Y+1709614D01*
X+3883547Y+1696113D01*
X+3921519Y+1696113D01*
X+3944302Y+1729866D02*
X+3951896Y+1736616D01*
X+3974679Y+1736616D01*
X+3982274Y+1729866D01*
X+3982274Y+1723115D01*
X+3974679Y+1716365D01*
X+3951896Y+1716365D01*
X+3944302Y+1709614D01*
X+3944302Y+1696113D01*
X+3982274Y+1696113D01*
D46*
X+1793070Y+975020D02*
X+2213070Y+975020D01*
X+2213070Y+1360020D01*
X+1793070Y+1360020D01*
X+1793070Y+975020D01*
D122*
X+2133070Y+1075020D02*
X+2133070Y+1075020D01*
D119*
X+1940035Y+1055069D02*
X+1915046Y+1083181D01*
X+1915046Y+1111294D01*
X+1940035Y+1139407D01*
X+1965024Y+1139407D01*
X+1990013Y+1111294D01*
X+1990013Y+1083181D01*
X+1965024Y+1055069D01*
X+1940035Y+1055069D01*
X+1965024Y+1111294D02*
X+1990013Y+1139407D01*
X+1915046Y+1181576D02*
X+1915046Y+1251858D01*
X+1927540Y+1251858D01*
X+1990013Y+1181576D01*
D46*
X+2209270Y+992465D02*
X+2520420Y+992465D01*
X+2520420Y+1157565D01*
X+2209270Y+1157565D01*
X+2209270Y+992465D01*
D104*
X+2285470Y+1075020D02*
X+2285470Y+1075020D01*
D105*
X+2322948Y+1054763D02*
X+2322948Y+1095266D01*
X+2360919Y+1095266D01*
X+2368514Y+1088516D01*
X+2368514Y+1081765D01*
X+2360919Y+1075015D01*
X+2322948Y+1075015D01*
X+2360919Y+1075015D02*
X+2368514Y+1068264D01*
X+2368514Y+1054763D01*
X+2391297Y+1088516D02*
X+2398891Y+1095266D01*
X+2421674Y+1095266D01*
X+2429269Y+1088516D01*
X+2429269Y+1081765D01*
X+2421674Y+1075015D01*
X+2429269Y+1068264D01*
X+2429269Y+1061513D01*
X+2421674Y+1054763D01*
X+2398891Y+1054763D01*
X+2391297Y+1061513D01*
X+2406486Y+1075015D02*
X+2421674Y+1075015D01*
X+2452052Y+1088516D02*
X+2459646Y+1095266D01*
X+2482429Y+1095266D01*
X+2490024Y+1088516D01*
X+2490024Y+1081765D01*
X+2482429Y+1075015D01*
X+2490024Y+1068264D01*
X+2490024Y+1061513D01*
X+2482429Y+1054763D01*
X+2459646Y+1054763D01*
X+2452052Y+1061513D01*
X+2467241Y+1075015D02*
X+2482429Y+1075015D01*
D46*
X+2209270Y+1182965D02*
X+2520420Y+1182965D01*
X+2520420Y+1348065D01*
X+2209270Y+1348065D01*
X+2209270Y+1182965D01*
D104*
X+2285470Y+1265520D02*
X+2285470Y+1265520D01*
D105*
X+2322948Y+1245263D02*
X+2322948Y+1285766D01*
X+2360919Y+1285766D01*
X+2368514Y+1279016D01*
X+2368514Y+1272265D01*
X+2360919Y+1265515D01*
X+2322948Y+1265515D01*
X+2360919Y+1265515D02*
X+2368514Y+1258764D01*
X+2368514Y+1245263D01*
X+2391297Y+1279016D02*
X+2398891Y+1285766D01*
X+2421674Y+1285766D01*
X+2429269Y+1279016D01*
X+2429269Y+1272265D01*
X+2421674Y+1265515D01*
X+2429269Y+1258764D01*
X+2429269Y+1252013D01*
X+2421674Y+1245263D01*
X+2398891Y+1245263D01*
X+2391297Y+1252013D01*
X+2406486Y+1265515D02*
X+2421674Y+1265515D01*
X+2490024Y+1258764D02*
X+2444458Y+1258764D01*
X+2474835Y+1285766D01*
X+2474835Y+1245263D01*
D46*
X+3824450Y+2586995D02*
X+4135600Y+2586995D01*
X+4135600Y+2752095D01*
X+3824450Y+2752095D01*
X+3824450Y+2586995D01*
D104*
X+3900650Y+2669550D02*
X+3900650Y+2669550D01*
D105*
X+3983694Y+2656043D02*
X+3976099Y+2649293D01*
X+3953316Y+2649293D01*
X+3938128Y+2662794D01*
X+3938128Y+2676295D01*
X+3953316Y+2689796D01*
X+3976099Y+2689796D01*
X+3983694Y+2683046D01*
X+4006477Y+2683046D02*
X+4014071Y+2689796D01*
X+4036854Y+2689796D01*
X+4044449Y+2683046D01*
X+4044449Y+2676295D01*
X+4036854Y+2669545D01*
X+4014071Y+2669545D01*
X+4006477Y+2662794D01*
X+4006477Y+2649293D01*
X+4044449Y+2649293D01*
X+4074826Y+2676295D02*
X+4090015Y+2689796D01*
X+4090015Y+2649293D01*
D46*
X+178150Y+953675D02*
X+305150Y+953675D01*
X+305150Y+1245775D01*
X+178150Y+1245775D01*
X+178150Y+953675D01*
D99*
X+241650Y+1017300D02*
X+241650Y+1017300D01*
D100*
X+261754Y+1079860D02*
X+221545Y+1079860D01*
X+221545Y+1110016D01*
X+234948Y+1125094D01*
X+248351Y+1125094D01*
X+261754Y+1110016D01*
X+261754Y+1079860D01*
X+228247Y+1147712D02*
X+221545Y+1155251D01*
X+221545Y+1177868D01*
X+228247Y+1185407D01*
X+234948Y+1185407D01*
X+241650Y+1177868D01*
X+248351Y+1185407D01*
X+255053Y+1185407D01*
X+261754Y+1177868D01*
X+261754Y+1155251D01*
X+255053Y+1147712D01*
X+241650Y+1162790D02*
X+241650Y+1177868D01*
M02*
