G04 PROTEUS RS274X GERBER FILE*
%FSLAX45Y45*%
%MOMM*%
G01*
%ADD17R,0.609600X2.057400*%
%ADD18R,1.700000X0.400000*%
%ADD19R,1.500000X1.500000*%
%ADD70R,1.900000X1.900000*%
%ADD71R,1.041400X0.355600*%
%ADD20R,0.355600X1.041400*%
%ADD21R,1.000000X0.700000*%
%ADD22R,0.800000X1.000000*%
%ADD23R,1.500000X0.700000*%
%ADD24R,0.660000X1.000000*%
%ADD27R,0.650000X0.650000*%
%ADD28R,0.800000X0.800000*%
%ADD29R,0.750000X0.550000*%
%ADD72R,1.050000X0.900000*%
%ADD73C,0.025400*%
D17*
X+1854200Y+1606550D03*
X+1727200Y+1606550D03*
X+1600200Y+1606550D03*
X+1473200Y+1606550D03*
X+1346200Y+1606550D03*
X+1219200Y+1606550D03*
X+1092200Y+1606550D03*
X+965200Y+1606550D03*
X+838200Y+1606550D03*
X+711200Y+1606550D03*
X+711200Y+676550D03*
X+838200Y+676550D03*
X+965200Y+676550D03*
X+1092200Y+676550D03*
X+1219200Y+676550D03*
X+1346200Y+676550D03*
X+1473200Y+676550D03*
X+1600200Y+676550D03*
X+1727200Y+676550D03*
X+1854200Y+676550D03*
D18*
X+3060700Y+1013000D03*
X+3060700Y+1078000D03*
X+3060700Y+1143000D03*
X+3060700Y+1208000D03*
X+3060700Y+1273000D03*
D19*
X+3075700Y+1478000D03*
X+3075700Y+808000D03*
D70*
X+3320700Y+748000D03*
X+3320700Y+1538000D03*
D71*
X+2157300Y+1143000D03*
X+2157300Y+1078000D03*
X+2157300Y+1013000D03*
X+2157300Y+948000D03*
D20*
X+2244800Y+860500D03*
X+2309800Y+860500D03*
X+2374800Y+860500D03*
X+2439800Y+860500D03*
D71*
X+2527300Y+948000D03*
X+2527300Y+1013000D03*
X+2527300Y+1078000D03*
X+2527300Y+1143000D03*
D20*
X+2439800Y+1230500D03*
X+2374800Y+1230500D03*
X+2309800Y+1230500D03*
X+2244800Y+1230500D03*
D70*
X+2342300Y+1045500D03*
D21*
X+3352800Y+1973250D03*
X+2892800Y+1973250D03*
X+2892800Y+1748250D03*
X+3352800Y+1748250D03*
D22*
X+133800Y+336800D03*
X-76200Y+1066800D03*
X+133800Y+1066800D03*
X-76200Y+336800D03*
D23*
X+203800Y+926800D03*
X+203800Y+626800D03*
X+203800Y+476800D03*
D24*
X+2698750Y+1650650D03*
X+2603750Y+1650650D03*
X+2508750Y+1650650D03*
X+2508750Y+1390650D03*
X+2698750Y+1390650D03*
D27*
X+3088550Y+296850D03*
X+3088550Y+191850D03*
X+3003550Y+296850D03*
X+3003550Y+191850D03*
D28*
X+3359150Y+328600D03*
X+3359150Y+163600D03*
D29*
X+3194050Y+457200D03*
X+3194050Y+557200D03*
X+3028950Y+557200D03*
X+3028950Y+457200D03*
X+2190750Y+1471600D03*
X+2190750Y+1371600D03*
D72*
X+2857500Y+936800D03*
X+2857500Y+776800D03*
X+2863850Y+1550650D03*
X+2863850Y+1390650D03*
X+2692400Y+779800D03*
X+2692400Y+939800D03*
D29*
X+3359150Y+557200D03*
X+3359150Y+457200D03*
D72*
X+2343150Y+1390650D03*
X+2343150Y+1550650D03*
D29*
X+2032000Y+1371600D03*
X+2032000Y+1471600D03*
X+2863850Y+457200D03*
X+2863850Y+557200D03*
X+2705100Y+457200D03*
X+2705100Y+557200D03*
X+2568950Y+1873250D03*
X+2568950Y+1973250D03*
X+2734050Y+1873250D03*
X+2734050Y+1973250D03*
X+2032000Y+1695450D03*
X+2032000Y+1595450D03*
D73*
X-152400Y-25400D02*
X-149873Y-51367D01*
X-142602Y-75381D01*
X-131052Y-96977D01*
X-115689Y-115689D01*
X-96977Y-131052D01*
X-75381Y-142602D01*
X-51367Y-149873D01*
X-25400Y-152400D01*
X+3429000Y-152400D01*
X+3454967Y-149873D01*
X+3478981Y-142602D01*
X+3500577Y-131052D01*
X+3519289Y-115689D01*
X+3534652Y-96977D01*
X+3546202Y-75381D01*
X+3553473Y-51367D01*
X+3556000Y-25400D01*
X+3556000Y+2311400D01*
X+3553473Y+2337367D01*
X+3546202Y+2361381D01*
X+3534652Y+2382977D01*
X+3519289Y+2401689D01*
X+3500577Y+2417052D01*
X+3478981Y+2428602D01*
X+3454967Y+2435873D01*
X+3429000Y+2438400D01*
X+101600Y+2438400D01*
X+75632Y+2435873D01*
X+51618Y+2428602D01*
X+30023Y+2417052D01*
X+11311Y+2401689D01*
X-4052Y+2382977D01*
X-15602Y+2361381D01*
X-22873Y+2337367D01*
X-25400Y+2311400D01*
X-25400Y+1574800D01*
X-152400Y+1447800D01*
X-152400Y-25400D01*
X+3492500Y-25400D02*
X+3492283Y-20153D01*
X+3490518Y-9658D01*
X+3486826Y+837D01*
X+3480798Y+11332D01*
X+3471576Y+21712D01*
X+3461081Y+29400D01*
X+3450586Y+34318D01*
X+3440091Y+37124D01*
X+3429596Y+38097D01*
X+3429000Y+38100D01*
X+3365500Y-25400D02*
X+3365717Y-20153D01*
X+3367482Y-9658D01*
X+3371174Y+837D01*
X+3377202Y+11332D01*
X+3386424Y+21712D01*
X+3396919Y+29400D01*
X+3407414Y+34318D01*
X+3417909Y+37124D01*
X+3428404Y+38097D01*
X+3429000Y+38100D01*
X+3365500Y-25400D02*
X+3365717Y-30647D01*
X+3367482Y-41142D01*
X+3371174Y-51637D01*
X+3377202Y-62132D01*
X+3386424Y-72512D01*
X+3396919Y-80200D01*
X+3407414Y-85118D01*
X+3417909Y-87924D01*
X+3428404Y-88897D01*
X+3429000Y-88900D01*
X+3492500Y-25400D02*
X+3492283Y-30647D01*
X+3490518Y-41142D01*
X+3486826Y-51637D01*
X+3480798Y-62132D01*
X+3471576Y-72512D01*
X+3461081Y-80200D01*
X+3450586Y-85118D01*
X+3440091Y-87924D01*
X+3429596Y-88897D01*
X+3429000Y-88900D01*
X+3492500Y+2311400D02*
X+3492283Y+2316647D01*
X+3490518Y+2327142D01*
X+3486826Y+2337637D01*
X+3480798Y+2348132D01*
X+3471576Y+2358512D01*
X+3461081Y+2366200D01*
X+3450586Y+2371118D01*
X+3440091Y+2373924D01*
X+3429596Y+2374897D01*
X+3429000Y+2374900D01*
X+3365500Y+2311400D02*
X+3365717Y+2316647D01*
X+3367482Y+2327142D01*
X+3371174Y+2337637D01*
X+3377202Y+2348132D01*
X+3386424Y+2358512D01*
X+3396919Y+2366200D01*
X+3407414Y+2371118D01*
X+3417909Y+2373924D01*
X+3428404Y+2374897D01*
X+3429000Y+2374900D01*
X+3365500Y+2311400D02*
X+3365717Y+2306153D01*
X+3367482Y+2295658D01*
X+3371174Y+2285163D01*
X+3377202Y+2274668D01*
X+3386424Y+2264288D01*
X+3396919Y+2256600D01*
X+3407414Y+2251682D01*
X+3417909Y+2248876D01*
X+3428404Y+2247903D01*
X+3429000Y+2247900D01*
X+3492500Y+2311400D02*
X+3492283Y+2306153D01*
X+3490518Y+2295658D01*
X+3486826Y+2285163D01*
X+3480798Y+2274668D01*
X+3471576Y+2264288D01*
X+3461081Y+2256600D01*
X+3450586Y+2251682D01*
X+3440091Y+2248876D01*
X+3429596Y+2247903D01*
X+3429000Y+2247900D01*
X+38100Y+1346200D02*
X+37883Y+1351447D01*
X+36118Y+1361942D01*
X+32426Y+1372437D01*
X+26398Y+1382932D01*
X+17176Y+1393312D01*
X+6681Y+1401000D01*
X-3814Y+1405918D01*
X-14309Y+1408724D01*
X-24804Y+1409697D01*
X-25400Y+1409700D01*
X-88900Y+1346200D02*
X-88683Y+1351447D01*
X-86918Y+1361942D01*
X-83226Y+1372437D01*
X-77198Y+1382932D01*
X-67976Y+1393312D01*
X-57481Y+1401000D01*
X-46986Y+1405918D01*
X-36491Y+1408724D01*
X-25996Y+1409697D01*
X-25400Y+1409700D01*
X-88900Y+1346200D02*
X-88683Y+1340953D01*
X-86918Y+1330458D01*
X-83226Y+1319963D01*
X-77198Y+1309468D01*
X-67976Y+1299088D01*
X-57481Y+1291400D01*
X-46986Y+1286482D01*
X-36491Y+1283676D01*
X-25996Y+1282703D01*
X-25400Y+1282700D01*
X+38100Y+1346200D02*
X+37883Y+1340953D01*
X+36118Y+1330458D01*
X+32426Y+1319963D01*
X+26398Y+1309468D01*
X+17176Y+1299088D01*
X+6681Y+1291400D01*
X-3814Y+1286482D01*
X-14309Y+1283676D01*
X-24804Y+1282703D01*
X-25400Y+1282700D01*
X+3135700Y+943000D02*
X+3135597Y+945489D01*
X+3134755Y+950469D01*
X+3132995Y+955449D01*
X+3130118Y+960429D01*
X+3125717Y+965345D01*
X+3120737Y+968959D01*
X+3115757Y+971264D01*
X+3110777Y+972567D01*
X+3105797Y+973000D01*
X+3105700Y+973000D01*
X+3075700Y+943000D02*
X+3075803Y+945489D01*
X+3076645Y+950469D01*
X+3078405Y+955449D01*
X+3081282Y+960429D01*
X+3085683Y+965345D01*
X+3090663Y+968959D01*
X+3095643Y+971264D01*
X+3100623Y+972567D01*
X+3105603Y+973000D01*
X+3105700Y+973000D01*
X+3075700Y+943000D02*
X+3075803Y+940511D01*
X+3076645Y+935531D01*
X+3078405Y+930551D01*
X+3081282Y+925571D01*
X+3085683Y+920655D01*
X+3090663Y+917041D01*
X+3095643Y+914736D01*
X+3100623Y+913433D01*
X+3105603Y+913000D01*
X+3105700Y+913000D01*
X+3135700Y+943000D02*
X+3135597Y+940511D01*
X+3134755Y+935531D01*
X+3132995Y+930551D01*
X+3130118Y+925571D01*
X+3125717Y+920655D01*
X+3120737Y+917041D01*
X+3115757Y+914736D01*
X+3110777Y+913433D01*
X+3105797Y+913000D01*
X+3105700Y+913000D01*
X+3135700Y+1343000D02*
X+3135597Y+1345489D01*
X+3134755Y+1350469D01*
X+3132995Y+1355449D01*
X+3130118Y+1360429D01*
X+3125717Y+1365345D01*
X+3120737Y+1368959D01*
X+3115757Y+1371264D01*
X+3110777Y+1372567D01*
X+3105797Y+1373000D01*
X+3105700Y+1373000D01*
X+3075700Y+1343000D02*
X+3075803Y+1345489D01*
X+3076645Y+1350469D01*
X+3078405Y+1355449D01*
X+3081282Y+1360429D01*
X+3085683Y+1365345D01*
X+3090663Y+1368959D01*
X+3095643Y+1371264D01*
X+3100623Y+1372567D01*
X+3105603Y+1373000D01*
X+3105700Y+1373000D01*
X+3075700Y+1343000D02*
X+3075803Y+1340511D01*
X+3076645Y+1335531D01*
X+3078405Y+1330551D01*
X+3081282Y+1325571D01*
X+3085683Y+1320655D01*
X+3090663Y+1317041D01*
X+3095643Y+1314736D01*
X+3100623Y+1313433D01*
X+3105603Y+1313000D01*
X+3105700Y+1313000D01*
X+3135700Y+1343000D02*
X+3135597Y+1340511D01*
X+3134755Y+1335531D01*
X+3132995Y+1330551D01*
X+3130118Y+1325571D01*
X+3125717Y+1320655D01*
X+3120737Y+1317041D01*
X+3115757Y+1314736D01*
X+3110777Y+1313433D01*
X+3105797Y+1313000D01*
X+3105700Y+1313000D01*
X+73800Y+551800D02*
X+73645Y+555527D01*
X+72389Y+562982D01*
X+69759Y+570437D01*
X+65463Y+577892D01*
X+58893Y+585258D01*
X+51438Y+590691D01*
X+43983Y+594161D01*
X+36528Y+596131D01*
X+29073Y+596799D01*
X+28800Y+596800D01*
X-16200Y+551800D02*
X-16045Y+555527D01*
X-14789Y+562982D01*
X-12159Y+570437D01*
X-7863Y+577892D01*
X-1293Y+585258D01*
X+6162Y+590691D01*
X+13617Y+594161D01*
X+21072Y+596131D01*
X+28527Y+596799D01*
X+28800Y+596800D01*
X-16200Y+551800D02*
X-16045Y+548073D01*
X-14789Y+540618D01*
X-12159Y+533163D01*
X-7863Y+525708D01*
X-1293Y+518342D01*
X+6162Y+512909D01*
X+13617Y+509439D01*
X+21072Y+507469D01*
X+28527Y+506801D01*
X+28800Y+506800D01*
X+73800Y+551800D02*
X+73645Y+548073D01*
X+72389Y+540618D01*
X+69759Y+533163D01*
X+65463Y+525708D01*
X+58893Y+518342D01*
X+51438Y+512909D01*
X+43983Y+509439D01*
X+36528Y+507469D01*
X+29073Y+506801D01*
X+28800Y+506800D01*
X+73800Y+851800D02*
X+73645Y+855527D01*
X+72389Y+862982D01*
X+69759Y+870437D01*
X+65463Y+877892D01*
X+58893Y+885258D01*
X+51438Y+890691D01*
X+43983Y+894161D01*
X+36528Y+896131D01*
X+29073Y+896799D01*
X+28800Y+896800D01*
X-16200Y+851800D02*
X-16045Y+855527D01*
X-14789Y+862982D01*
X-12159Y+870437D01*
X-7863Y+877892D01*
X-1293Y+885258D01*
X+6162Y+890691D01*
X+13617Y+894161D01*
X+21072Y+896131D01*
X+28527Y+896799D01*
X+28800Y+896800D01*
X-16200Y+851800D02*
X-16045Y+848073D01*
X-14789Y+840618D01*
X-12159Y+833163D01*
X-7863Y+825708D01*
X-1293Y+818342D01*
X+6162Y+812909D01*
X+13617Y+809439D01*
X+21072Y+807469D01*
X+28527Y+806801D01*
X+28800Y+806800D01*
X+73800Y+851800D02*
X+73645Y+848073D01*
X+72389Y+840618D01*
X+69759Y+833163D01*
X+65463Y+825708D01*
X+58893Y+818342D01*
X+51438Y+812909D01*
X+43983Y+809439D01*
X+36528Y+807469D01*
X+29073Y+806801D01*
X+28800Y+806800D01*
M02*
