M48
METRIC,TZ
T01C0.3050
T02C0.6000
T03C0.9500
%
T01
X+9894Y+23312
X+9894Y+26868
X+19540Y+22264
X+19540Y+21308
X+19540Y+20356
X+9080Y+40120
X+14994Y+32619
X+51536Y+16188
X+48424Y+16188
X+44129Y+25070
X+44129Y+23825
X+16205Y+8954
X+47240Y+29502
X+48216Y+34910
X+49016Y+33830
X+40640Y+29146
X+19330Y+24972
X+50180Y+40259
X+40640Y+37592
X+13780Y+47054
X+47876Y+27948
X+42297Y+30740
X+42240Y+32448
X+9080Y+48184
X+41440Y+16188
X+15412Y+20356
X+16663Y+31177
X+15412Y+24972
X+19965Y+24306
X+42164Y+23812
X+16663Y+29577
X+11494Y+23312
X+42240Y+29146
X+18187Y+29577
X+40640Y+32448
X+40640Y+30798
X+13640Y+16968
X+15012Y+31177
X+16461Y+11353
X+16461Y+12369
X+11312Y+30002
X+13068Y+17540
X+50180Y+38989
X+61701Y+30988
X+40640Y+27496
X+14605Y+7304
X+14605Y+8954
X+42240Y+21971
X+43256Y+21971
X+51544Y+17795
X+52388Y+27305
X+52019Y+36449
X+60101Y+30971
X+49149Y+27305
X+42240Y+27496
X+53619Y+36449
X+11312Y+29113
X+11312Y+30891
X+44072Y+15300
X+49149Y+25527
X+17462Y+21780
X+48260Y+36957
X+2413Y+51308
X+2413Y+46708
X+2413Y+43244
X+2413Y+38644
X+3556Y+34671
X+2416Y+30620
X+2400Y+22720
X+2400Y+15100
X+2402Y+2022
X+13832Y+772
X+18912Y+772
X+23992Y+772
X+29072Y+772
X+36692Y+772
X+41772Y+772
X+46852Y+772
X+51932Y+772
X+57012Y+772
X+62092Y+772
X+65648Y+3312
X+68188Y+5852
X+7353Y+25704
X+14338Y+28308
X+18656Y+26848
X+23368Y+27813
X+14859Y+35560
X+17399Y+33020
X+19939Y+30480
X+11049Y+39370
X+11310Y+32619
X+11310Y+35159
X+6230Y+40239
X+6230Y+45319
X+6230Y+50399
X+7493Y+52578
X+27813Y+52578
X+32893Y+52578
X+37973Y+52578
X+43053Y+52578
X+48133Y+52578
X+53213Y+52578
X+58293Y+52578
X+63373Y+52578
X+65596Y+50038
X+65596Y+44958
X+65596Y+39878
X+68136Y+37338
X+68136Y+32258
X+68136Y+27178
X+68136Y+22098
X+68136Y+17018
X+68136Y+11938
X+63056Y+11938
X+63056Y+6858
X+60516Y+9398
X+60516Y+14478
X+65596Y+14478
X+63056Y+17018
X+60516Y+19558
X+65596Y+19558
X+63056Y+22098
X+65596Y+24638
X+65596Y+29718
X+60516Y+6858
X+57976Y+9398
X+55436Y+11938
X+57976Y+14478
X+55436Y+17018
X+57976Y+19558
X+51536Y+13648
X+51536Y+8568
X+24511Y+7620
X+22352Y+7620
X+45161Y+20320
X+50356Y+23178
X+55436Y+23178
X+55436Y+27368
X+61701Y+25463
X+62717Y+28207
X+55436Y+29274
X+53086Y+29274
X+61701Y+33528
X+61701Y+43688
X+59161Y+46228
X+56621Y+38608
X+56621Y+33528
X+54081Y+43688
X+49001Y+43688
X+46461Y+46228
X+37480Y+40259
X+34940Y+42799
X+19700Y+4700
X+45676Y+34910
X+2402Y+9832
X+33528Y+32893
X+28448Y+32893
X+17160Y+14859
X+36692Y+10932
X+41772Y+10932
X+46852Y+10932
X+44312Y+8392
X+46672Y+14300
X+48450Y+14834
X+8770Y+32619
X+6230Y+37699
X+32042Y+17783
X+20014Y+17813
X+23558Y+16574
X+20014Y+12695
X+25527Y+12788
X+26543Y+12788
X+24511Y+12788
X+29274Y+13764
X+27051Y+7620
X+29591Y+7620
X+34671Y+7620
X+37211Y+7620
X+42291Y+7620
X+31612Y+10932
X+32042Y+12695
X+26278Y+10932
X+20056Y+10932
X+20014Y+14295
X+20014Y+16213
X+33644Y+16012
X+13190Y+20990
X+12936Y+20102
X+13824Y+20356
X+8954Y+5257
X+5702Y+15000
X+6782Y+15000
X+18478Y+5842
X+16066Y+5842
X+12570Y+8726
X+11582Y+6580
X+6782Y+15889
X+11582Y+5691
X+11582Y+7469
X+11494Y+21018
X+5715Y+16828
X+8255Y+19368
X+6792Y+10415
X+6782Y+12866
X+10592Y+15000
X+11582Y+4611
X+8623Y+6580
X+2400Y+6580
X+50546Y+30353
X+41402Y+36449
X+43132Y+36449
X+42306Y+35573
X+44846Y+33033
X+46370Y+38113
X+17145Y+43948
X+16777Y+40888
X+17939Y+37085
X+9208Y+46164
X+15653Y+42456
X+10922Y+44196
X+25908Y+30353
X+46461Y+41148
X+41381Y+41148
X+43921Y+43688
X+38841Y+46228
X+32400Y+45339
X+25309Y+46221
X+38608Y+32893
X+36068Y+36703
X+30988Y+36703
X+28448Y+39243
X+25908Y+36703
X+23368Y+39243
X+20828Y+36703
X+18288Y+39243
X+33528Y+39243
X+30988Y+41783
X+25908Y+41783
X+23368Y+44323
X+20828Y+41783
X+23368Y+32893
X+18288Y+35433
X+14224Y+39497
X+18796Y+46609
X+11843Y+42442
X+10937Y+46164
X+11712Y+51308
X+39052Y+29972
X+23368Y+22733
X+39052Y+22733
X+36512Y+20447
X+31432Y+20447
X+26352Y+20447
T02
X+11494Y+2082
X+11494Y+3352
X+10224Y+2082
X+10224Y+3352
X+8954Y+2082
X+8954Y+3352
X+7684Y+2082
X+7684Y+3352
T03
X+48641Y+2540
X+51181Y+2540
X+53721Y+2540
X+56261Y+2540
X+58801Y+2540
X+61341Y+2540
X+63881Y+2540
X+23241Y+2540
X+25781Y+2540
X+28321Y+2540
X+30861Y+2540
X+33401Y+2540
X+35941Y+2540
X+38481Y+2540
X+41021Y+2540
X+43561Y+2540
X+46101Y+2540
X+19177Y+50800
X+21717Y+50800
X+24257Y+50800
X+26797Y+50800
X+29337Y+50800
X+31877Y+50800
X+34417Y+50800
X+36957Y+50800
X+39497Y+50800
X+42037Y+50800
X+46101Y+50800
X+48641Y+50800
X+51181Y+50800
X+53721Y+50800
X+56261Y+50800
X+58801Y+50800
X+61341Y+50800
X+63881Y+50800
X+23241Y+5080
X+25781Y+5080
X+28321Y+5080
X+30861Y+5080
X+33401Y+5080
X+35941Y+5080
X+38481Y+5080
X+41021Y+5080
X+43561Y+5080
X+46101Y+5080
X+48641Y+5080
X+51181Y+5080
X+53721Y+5080
X+56261Y+5080
X+58801Y+5080
X+61341Y+5080
X+63881Y+5080
X+46101Y+48260
X+48641Y+48260
X+51181Y+48260
X+53721Y+48260
X+56261Y+48260
X+58801Y+48260
X+61341Y+48260
X+63881Y+48260
X+19177Y+48260
X+21717Y+48260
X+24257Y+48260
X+26797Y+48260
X+29337Y+48260
X+31877Y+48260
X+34417Y+48260
X+36957Y+48260
X+39497Y+48260
X+42037Y+48260
M30
