G04 PROTEUS RS274X GERBER FILE*
%FSLAX45Y45*%
%MOMM*%
G01*
%ADD12C,0.190500*%
%ADD13C,0.508000*%
%ADD14C,0.300000*%
%ADD15C,0.609600*%
%ADD16C,1.600000*%
%AMPPAD017*
4,1,36,
-0.323000,0.450000,
0.323000,0.450000,
0.348970,0.447470,
0.372980,0.440200,
0.394580,0.428650,
0.413290,0.413290,
0.428650,0.394570,
0.440200,0.372980,
0.447470,0.348970,
0.450000,0.323000,
0.450000,-0.323000,
0.447470,-0.348970,
0.440200,-0.372980,
0.428650,-0.394570,
0.413290,-0.413290,
0.394580,-0.428650,
0.372980,-0.440200,
0.348970,-0.447470,
0.323000,-0.450000,
-0.323000,-0.450000,
-0.348970,-0.447470,
-0.372980,-0.440200,
-0.394580,-0.428650,
-0.413290,-0.413290,
-0.428650,-0.394570,
-0.440200,-0.372980,
-0.447470,-0.348970,
-0.450000,-0.323000,
-0.450000,0.323000,
-0.447470,0.348970,
-0.440200,0.372980,
-0.428650,0.394570,
-0.413290,0.413290,
-0.394580,0.428650,
-0.372980,0.440200,
-0.348970,0.447470,
-0.323000,0.450000,
0*%
%ADD25PPAD017*%
%ADD26C,0.900000*%
%ADD73C,0.025400*%
G36*
X+3449391Y+2407706D02*
X+3467995Y+2402073D01*
X+3484618Y+2393183D01*
X+3498986Y+2381386D01*
X+3510783Y+2367018D01*
X+3519673Y+2350395D01*
X+3525306Y+2331791D01*
X+3527425Y+2310020D01*
X+3527425Y-24020D01*
X+3525306Y-45791D01*
X+3519673Y-64395D01*
X+3510783Y-81018D01*
X+3498986Y-95386D01*
X+3484618Y-107183D01*
X+3467995Y-116073D01*
X+3449391Y-121706D01*
X+3427620Y-123825D01*
X-24020Y-123825D01*
X-45791Y-121706D01*
X-64395Y-116073D01*
X-81018Y-107183D01*
X-95386Y-95386D01*
X-107183Y-81018D01*
X-116073Y-64395D01*
X-121706Y-45791D01*
X-123825Y-24020D01*
X-123825Y+1435965D01*
X+3175Y+1562965D01*
X+3175Y+2310020D01*
X+5294Y+2331791D01*
X+10927Y+2350395D01*
X+19817Y+2367018D01*
X+31614Y+2381386D01*
X+45982Y+2393183D01*
X+62604Y+2402073D01*
X+81208Y+2407706D01*
X+102980Y+2409825D01*
X+3427620Y+2409825D01*
X+3449391Y+2407706D01*
G37*
%LPC*%
G36*
X+3434837Y+66072D02*
X+3466446Y+59476D01*
X+3501623Y+33144D01*
X+3522903Y-25400D01*
X+3501623Y-83944D01*
X+3466446Y-110276D01*
X+3429000Y-118090D01*
X+3391554Y-110276D01*
X+3356377Y-83944D01*
X+3335097Y-25400D01*
X+3356377Y+33144D01*
X+3391554Y+59476D01*
X+3429000Y+67290D01*
X+3434837Y+66072D01*
G37*
G36*
X+3434837Y+2402872D02*
X+3466446Y+2396276D01*
X+3501623Y+2369944D01*
X+3522903Y+2311400D01*
X+3501623Y+2252856D01*
X+3466446Y+2226524D01*
X+3429000Y+2218710D01*
X+3391554Y+2226524D01*
X+3356377Y+2252856D01*
X+3335097Y+2311400D01*
X+3356377Y+2369944D01*
X+3391554Y+2396276D01*
X+3429000Y+2404090D01*
X+3434837Y+2402872D01*
G37*
G36*
X-19563Y+1437672D02*
X+12046Y+1431076D01*
X+47223Y+1404744D01*
X+68503Y+1346200D01*
X+47223Y+1287656D01*
X+12046Y+1261324D01*
X-25400Y+1253510D01*
X-62846Y+1261324D01*
X-98023Y+1287656D01*
X-119303Y+1346200D01*
X-98023Y+1404744D01*
X-62846Y+1431076D01*
X-25400Y+1438890D01*
X-19563Y+1437672D01*
G37*
G36*
X+35802Y+624502D02*
X+35802Y+624503D01*
X+65034Y+617114D01*
X+94977Y+586295D01*
X+103169Y+551800D01*
X+94977Y+517305D01*
X+65034Y+486486D01*
X+28800Y+477328D01*
X+21798Y+479097D01*
X-7434Y+486486D01*
X-37377Y+517305D01*
X-45569Y+551800D01*
X-37377Y+586295D01*
X-7434Y+617114D01*
X+28800Y+626272D01*
X+35802Y+624502D01*
G37*
G36*
X+35802Y+924502D02*
X+35802Y+924503D01*
X+65034Y+917114D01*
X+94977Y+886295D01*
X+103169Y+851800D01*
X+94977Y+817305D01*
X+65034Y+786486D01*
X+28800Y+777328D01*
X+21798Y+779097D01*
X-7434Y+786486D01*
X-37377Y+817305D01*
X-45569Y+851800D01*
X-37377Y+886295D01*
X-7434Y+917114D01*
X+28800Y+926272D01*
X+35802Y+924502D01*
G37*
G36*
X+2604142Y+2388242D02*
X+2653029Y+2339355D01*
X+2653029Y+2242935D01*
X+2719071Y+2176893D01*
X+2719071Y+2193305D01*
X+2738741Y+2212975D01*
X+2738020Y+2213696D01*
X+2721696Y+2213696D01*
X+2721696Y+2230020D01*
X+2719071Y+2232645D01*
X+2719071Y+2339355D01*
X+2721696Y+2341980D01*
X+2721696Y+2358304D01*
X+2738020Y+2358304D01*
X+2740645Y+2360929D01*
X+2847355Y+2360929D01*
X+2849980Y+2358304D01*
X+2866304Y+2358304D01*
X+2866304Y+2341980D01*
X+2867025Y+2341259D01*
X+2886695Y+2360929D01*
X+2955305Y+2360929D01*
X+2984500Y+2331734D01*
X+3013695Y+2360929D01*
X+3082305Y+2360929D01*
X+3122929Y+2320305D01*
X+3122929Y+2216163D01*
X+3140695Y+2233929D01*
X+3209305Y+2233929D01*
X+3249929Y+2193305D01*
X+3249929Y+2124695D01*
X+3209305Y+2084071D01*
X+3175013Y+2084071D01*
X+3456422Y+1802662D01*
X+3456422Y+567138D01*
X+3247405Y+358121D01*
X+2867655Y+358121D01*
X+2849879Y+340345D01*
X+2849879Y+302245D01*
X+2815605Y+267971D01*
X+2777505Y+267971D01*
X+2740716Y+231182D01*
X+2640281Y+231182D01*
X+2522128Y+113029D01*
X+2593355Y+113029D01*
X+2653029Y+53355D01*
X+2653029Y-53355D01*
X+2593355Y-113029D01*
X+2486645Y-113029D01*
X+2426971Y-53355D01*
X+2426971Y+53355D01*
X+2449725Y+76109D01*
X+2414193Y+76109D01*
X+2399029Y+60945D01*
X+2399029Y-53355D01*
X+2339355Y-113029D01*
X+2232645Y-113029D01*
X+2172971Y-53355D01*
X+2172971Y+53355D01*
X+2195765Y+76149D01*
X+2160233Y+76149D01*
X+2145029Y+60945D01*
X+2145029Y-53355D01*
X+2085355Y-113029D01*
X+1978645Y-113029D01*
X+1918971Y-53355D01*
X+1918971Y+53355D01*
X+1978645Y+113029D01*
X+2092945Y+113029D01*
X+2129723Y+149807D01*
X+2331723Y+149807D01*
X+2368431Y+186515D01*
X+2409351Y+186515D01*
X+2382521Y+213345D01*
X+2382521Y+251445D01*
X+2377352Y+256614D01*
X+1855498Y+256614D01*
X+1639591Y+472521D01*
X+1617905Y+472521D01*
X+1592505Y+447121D01*
X+1536595Y+447121D01*
X+1502321Y+481395D01*
X+1502321Y+534698D01*
X+447018Y+534698D01*
X+417145Y+564571D01*
X+320513Y+564571D01*
X+380329Y+504755D01*
X+380329Y+448845D01*
X+346055Y+414571D01*
X+175845Y+414571D01*
X+141571Y+448845D01*
X+141571Y+504755D01*
X+182846Y+546030D01*
X+182846Y+743880D01*
X+303537Y+864571D01*
X+175845Y+864571D01*
X+141571Y+898845D01*
X+141571Y+954755D01*
X+175845Y+989029D01*
X+311245Y+989029D01*
X+1410971Y+2088755D01*
X+1410971Y+2339355D01*
X+1470645Y+2399029D01*
X+1577355Y+2399029D01*
X+1637029Y+2339355D01*
X+1637029Y+2188205D01*
X+2265421Y+1559813D01*
X+2265421Y+1919895D01*
X+2240021Y+1945295D01*
X+2240021Y+2001205D01*
X+2274134Y+2035318D01*
X+2192498Y+2035318D01*
X+2054845Y+2172971D01*
X+1978645Y+2172971D01*
X+1918971Y+2232645D01*
X+1918971Y+2339355D01*
X+1978645Y+2399029D01*
X+2085355Y+2399029D01*
X+2145029Y+2339355D01*
X+2145029Y+2263155D01*
X+2198307Y+2209877D01*
X+2449739Y+2209877D01*
X+2426971Y+2232645D01*
X+2426971Y+2339355D01*
X+2486645Y+2399029D01*
X+2593355Y+2399029D01*
X+2604142Y+2388242D01*
G37*
G36*
X+2343025Y+2309621D02*
X+2343025Y+2262379D01*
X+2309621Y+2228975D01*
X+2262379Y+2228975D01*
X+2228975Y+2262379D01*
X+2228975Y+2309621D01*
X+2262379Y+2343025D01*
X+2309621Y+2343025D01*
X+2343025Y+2309621D01*
G37*
G36*
X+1835025Y+2309621D02*
X+1835025Y+2262379D01*
X+1801621Y+2228975D01*
X+1754379Y+2228975D01*
X+1720975Y+2262379D01*
X+1720975Y+2309621D01*
X+1754379Y+2343025D01*
X+1801621Y+2343025D01*
X+1835025Y+2309621D01*
G37*
G36*
X+1200025Y+2309621D02*
X+1200025Y+2262379D01*
X+1166621Y+2228975D01*
X+1119379Y+2228975D01*
X+1085975Y+2262379D01*
X+1085975Y+2309621D01*
X+1119379Y+2343025D01*
X+1166621Y+2343025D01*
X+1200025Y+2309621D01*
G37*
G36*
X+953142Y+2388242D02*
X+1002029Y+2339355D01*
X+1002029Y+2232645D01*
X+942355Y+2172971D01*
X+835645Y+2172971D01*
X+775971Y+2232645D01*
X+775971Y+2339355D01*
X+835645Y+2399029D01*
X+942355Y+2399029D01*
X+953142Y+2388242D01*
G37*
G36*
X+699142Y+2388242D02*
X+748029Y+2339355D01*
X+748029Y+2232645D01*
X+688355Y+2172971D01*
X+581645Y+2172971D01*
X+521971Y+2232645D01*
X+521971Y+2339355D01*
X+581645Y+2399029D01*
X+688355Y+2399029D01*
X+699142Y+2388242D01*
G37*
G36*
X+445142Y+2388242D02*
X+494029Y+2339355D01*
X+494029Y+2232645D01*
X+434355Y+2172971D01*
X+327645Y+2172971D01*
X+267971Y+2232645D01*
X+267971Y+2339355D01*
X+327645Y+2399029D01*
X+434355Y+2399029D01*
X+445142Y+2388242D01*
G37*
G36*
X+191142Y+2388242D02*
X+240029Y+2339355D01*
X+240029Y+2232645D01*
X+180355Y+2172971D01*
X+73645Y+2172971D01*
X+13971Y+2232645D01*
X+13971Y+2339355D01*
X+73645Y+2399029D01*
X+180355Y+2399029D01*
X+191142Y+2388242D01*
G37*
G36*
X+64142Y+102242D02*
X+113029Y+53355D01*
X+113029Y-53355D01*
X+53355Y-113029D01*
X-53355Y-113029D01*
X-113029Y-53355D01*
X-113029Y+53355D01*
X-53355Y+113029D01*
X+53355Y+113029D01*
X+64142Y+102242D01*
G37*
G36*
X+318142Y+102242D02*
X+367029Y+53355D01*
X+367029Y-53355D01*
X+307355Y-113029D01*
X+200645Y-113029D01*
X+140971Y-53355D01*
X+140971Y+53355D01*
X+200645Y+113029D01*
X+307355Y+113029D01*
X+318142Y+102242D01*
G37*
G36*
X+572142Y+102242D02*
X+621029Y+53355D01*
X+621029Y-53355D01*
X+561355Y-113029D01*
X+454645Y-113029D01*
X+394971Y-53355D01*
X+394971Y+53355D01*
X+454645Y+113029D01*
X+561355Y+113029D01*
X+572142Y+102242D01*
G37*
G36*
X+826142Y+102242D02*
X+875029Y+53355D01*
X+875029Y-53355D01*
X+815355Y-113029D01*
X+708645Y-113029D01*
X+648971Y-53355D01*
X+648971Y+53355D01*
X+708645Y+113029D01*
X+815355Y+113029D01*
X+826142Y+102242D01*
G37*
G36*
X+1080142Y+102242D02*
X+1129029Y+53355D01*
X+1129029Y-53355D01*
X+1069355Y-113029D01*
X+962645Y-113029D01*
X+902971Y-53355D01*
X+902971Y+53355D01*
X+962645Y+113029D01*
X+1069355Y+113029D01*
X+1080142Y+102242D01*
G37*
G36*
X+1334142Y+102242D02*
X+1383029Y+53355D01*
X+1383029Y-53355D01*
X+1323355Y-113029D01*
X+1216645Y-113029D01*
X+1156971Y-53355D01*
X+1156971Y+53355D01*
X+1216645Y+113029D01*
X+1323355Y+113029D01*
X+1334142Y+102242D01*
G37*
G36*
X+1588142Y+102242D02*
X+1637029Y+53355D01*
X+1637029Y-53355D01*
X+1577355Y-113029D01*
X+1470645Y-113029D01*
X+1410971Y-53355D01*
X+1410971Y+53355D01*
X+1470645Y+113029D01*
X+1577355Y+113029D01*
X+1588142Y+102242D01*
G37*
G36*
X+1842142Y+102242D02*
X+1891029Y+53355D01*
X+1891029Y-53355D01*
X+1831355Y-113029D01*
X+1724645Y-113029D01*
X+1664971Y-53355D01*
X+1664971Y+53355D01*
X+1724645Y+113029D01*
X+1831355Y+113029D01*
X+1842142Y+102242D01*
G37*
G36*
X+2858142Y+102242D02*
X+2907029Y+53355D01*
X+2907029Y-53355D01*
X+2847355Y-113029D01*
X+2740645Y-113029D01*
X+2680971Y-53355D01*
X+2680971Y+53355D01*
X+2740645Y+113029D01*
X+2847355Y+113029D01*
X+2858142Y+102242D01*
G37*
G36*
X+3135475Y+2269628D02*
X+3135475Y+2302372D01*
X+3158628Y+2325525D01*
X+3191372Y+2325525D01*
X+3214525Y+2302372D01*
X+3214525Y+2269628D01*
X+3191372Y+2246475D01*
X+3158628Y+2246475D01*
X+3135475Y+2269628D01*
G37*
G36*
X+3334385Y+153342D02*
X+3334385Y+173858D01*
X+3348892Y+188365D01*
X+3369408Y+188365D01*
X+3383915Y+173858D01*
X+3383915Y+153342D01*
X+3369408Y+138835D01*
X+3348892Y+138835D01*
X+3334385Y+153342D01*
G37*
G36*
X+3152685Y+181592D02*
X+3152685Y+202108D01*
X+3167192Y+216615D01*
X+3187708Y+216615D01*
X+3202215Y+202108D01*
X+3202215Y+181592D01*
X+3187708Y+167085D01*
X+3167192Y+167085D01*
X+3152685Y+181592D01*
G37*
G36*
X+109035Y+1056542D02*
X+109035Y+1077058D01*
X+123542Y+1091565D01*
X+144058Y+1091565D01*
X+158565Y+1077058D01*
X+158565Y+1056542D01*
X+144058Y+1042035D01*
X+123542Y+1042035D01*
X+109035Y+1056542D01*
G37*
G36*
X+2121535Y+1767742D02*
X+2121535Y+1788258D01*
X+2136042Y+1802765D01*
X+2156558Y+1802765D01*
X+2171065Y+1788258D01*
X+2171065Y+1767742D01*
X+2156558Y+1753235D01*
X+2136042Y+1753235D01*
X+2121535Y+1767742D01*
G37*
G36*
X+109035Y+326542D02*
X+109035Y+347058D01*
X+123542Y+361565D01*
X+144058Y+361565D01*
X+158565Y+347058D01*
X+158565Y+326542D01*
X+144058Y+312035D01*
X+123542Y+312035D01*
X+109035Y+326542D01*
G37*
G36*
X-100965Y+326542D02*
X-100965Y+347058D01*
X-86458Y+361565D01*
X-65942Y+361565D01*
X-51435Y+347058D01*
X-51435Y+326542D01*
X-65942Y+312035D01*
X-86458Y+312035D01*
X-100965Y+326542D01*
G37*
G36*
X-100965Y+1056542D02*
X-100965Y+1077058D01*
X-86458Y+1091565D01*
X-65942Y+1091565D01*
X-51435Y+1077058D01*
X-51435Y+1056542D01*
X-65942Y+1042035D01*
X-86458Y+1042035D01*
X-100965Y+1056542D01*
G37*
G36*
X+1918335Y+218342D02*
X+1918335Y+238858D01*
X+1932842Y+253365D01*
X+1953358Y+253365D01*
X+1967865Y+238858D01*
X+1967865Y+218342D01*
X+1953358Y+203835D01*
X+1932842Y+203835D01*
X+1918335Y+218342D01*
G37*
G36*
X+1651635Y+243742D02*
X+1651635Y+264258D01*
X+1666142Y+278765D01*
X+1686658Y+278765D01*
X+1701165Y+264258D01*
X+1701165Y+243742D01*
X+1686658Y+229235D01*
X+1666142Y+229235D01*
X+1651635Y+243742D01*
G37*
G36*
X+1397635Y+243742D02*
X+1397635Y+264258D01*
X+1412142Y+278765D01*
X+1432658Y+278765D01*
X+1447165Y+264258D01*
X+1447165Y+243742D01*
X+1432658Y+229235D01*
X+1412142Y+229235D01*
X+1397635Y+243742D01*
G37*
G36*
X+1143635Y+243742D02*
X+1143635Y+264258D01*
X+1158142Y+278765D01*
X+1178658Y+278765D01*
X+1193165Y+264258D01*
X+1193165Y+243742D01*
X+1178658Y+229235D01*
X+1158142Y+229235D01*
X+1143635Y+243742D01*
G37*
G36*
X+889635Y+243742D02*
X+889635Y+264258D01*
X+904142Y+278765D01*
X+924658Y+278765D01*
X+939165Y+264258D01*
X+939165Y+243742D01*
X+924658Y+229235D01*
X+904142Y+229235D01*
X+889635Y+243742D01*
G37*
G36*
X+622935Y+243742D02*
X+622935Y+264258D01*
X+637442Y+278765D01*
X+657958Y+278765D01*
X+672465Y+264258D01*
X+672465Y+243742D01*
X+657958Y+229235D01*
X+637442Y+229235D01*
X+622935Y+243742D01*
G37*
G36*
X+2921635Y-10258D02*
X+2921635Y+10258D01*
X+2936142Y+24765D01*
X+2956658Y+24765D01*
X+2971165Y+10258D01*
X+2971165Y-10258D01*
X+2956658Y-24765D01*
X+2936142Y-24765D01*
X+2921635Y-10258D01*
G37*
G36*
X+2007235Y+2021742D02*
X+2007235Y+2042258D01*
X+2021742Y+2056765D01*
X+2042258Y+2056765D01*
X+2056765Y+2042258D01*
X+2056765Y+2021742D01*
X+2042258Y+2007235D01*
X+2021742Y+2007235D01*
X+2007235Y+2021742D01*
G37*
G36*
X+991235Y+2021742D02*
X+991235Y+2042258D01*
X+1005742Y+2056765D01*
X+1026258Y+2056765D01*
X+1040765Y+2042258D01*
X+1040765Y+2021742D01*
X+1026258Y+2007235D01*
X+1005742Y+2007235D01*
X+991235Y+2021742D01*
G37*
G36*
X+229235Y+2021742D02*
X+229235Y+2042258D01*
X+243742Y+2056765D01*
X+264258Y+2056765D01*
X+278765Y+2042258D01*
X+278765Y+2021742D01*
X+264258Y+2007235D01*
X+243742Y+2007235D01*
X+229235Y+2021742D01*
G37*
G36*
X+483235Y+2021742D02*
X+483235Y+2042258D01*
X+497742Y+2056765D01*
X+518258Y+2056765D01*
X+532765Y+2042258D01*
X+532765Y+2021742D01*
X+518258Y+2007235D01*
X+497742Y+2007235D01*
X+483235Y+2021742D01*
G37*
G36*
X+737235Y+2021742D02*
X+737235Y+2042258D01*
X+751742Y+2056765D01*
X+772258Y+2056765D01*
X+786765Y+2042258D01*
X+786765Y+2021742D01*
X+772258Y+2007235D01*
X+751742Y+2007235D01*
X+737235Y+2021742D01*
G37*
G36*
X+229235Y+1513742D02*
X+229235Y+1534258D01*
X+243742Y+1548765D01*
X+264258Y+1548765D01*
X+278765Y+1534258D01*
X+278765Y+1513742D01*
X+264258Y+1499235D01*
X+243742Y+1499235D01*
X+229235Y+1513742D01*
G37*
G36*
X+483235Y+1767742D02*
X+483235Y+1788258D01*
X+497742Y+1802765D01*
X+518258Y+1802765D01*
X+532765Y+1788258D01*
X+532765Y+1767742D01*
X+518258Y+1753235D01*
X+497742Y+1753235D01*
X+483235Y+1767742D01*
G37*
G36*
X+483235Y+1259742D02*
X+483235Y+1280258D01*
X+497742Y+1294765D01*
X+518258Y+1294765D01*
X+532765Y+1280258D01*
X+532765Y+1259742D01*
X+518258Y+1245235D01*
X+497742Y+1245235D01*
X+483235Y+1259742D01*
G37*
%LPD*%
G36*
X+1593850Y+2179300D02*
X+2265421Y+1507729D01*
X+2265421Y+1506427D01*
X+2362200Y+1409649D01*
X+2362200Y+1406623D01*
X+2353408Y+1415415D01*
X+2332892Y+1415415D01*
X+2318385Y+1400908D01*
X+2318385Y+1384915D01*
X+2185015Y+1518285D01*
X+2201008Y+1518285D01*
X+2215515Y+1532792D01*
X+2215515Y+1553308D01*
X+2201008Y+1567815D01*
X+2180492Y+1567815D01*
X+2165985Y+1553308D01*
X+2165985Y+1537315D01*
X+1682750Y+2020550D01*
X+1682750Y+2039600D01*
X+1644650Y+2077700D01*
X+1485900Y+2077700D01*
X+1485900Y+2230100D01*
X+1499254Y+2230100D01*
X+1500379Y+2228975D01*
X+1547621Y+2228975D01*
X+1548746Y+2230100D01*
X+1593850Y+2230100D01*
X+1593850Y+2179300D01*
G37*
G36*
X+2178050Y+2166600D02*
X+2616200Y+2166600D01*
X+2743200Y+2039600D01*
X+2768600Y+2039600D01*
X+2825750Y+1982450D01*
X+2825750Y+1944350D01*
X+3251200Y+1518900D01*
X+3251200Y+788650D01*
X+3130550Y+668000D01*
X+2882900Y+668000D01*
X+2882900Y+782300D01*
X+2927350Y+737850D01*
X+3105150Y+737850D01*
X+3206750Y+839450D01*
X+3206750Y+1449050D01*
X+3111500Y+1544300D01*
X+2888615Y+1544300D01*
X+2888615Y+1560908D01*
X+2874108Y+1575415D01*
X+2853592Y+1575415D01*
X+2844800Y+1566623D01*
X+2844800Y+1623577D01*
X+2853592Y+1614785D01*
X+2874108Y+1614785D01*
X+2888615Y+1629292D01*
X+2888615Y+1649808D01*
X+2874108Y+1664315D01*
X+2853592Y+1664315D01*
X+2844800Y+1655523D01*
X+2844800Y+1893550D01*
X+2698750Y+2039600D01*
X+2660650Y+2039600D01*
X+2622550Y+2077700D01*
X+2209800Y+2077700D01*
X+2063750Y+2223750D01*
X+2063750Y+2230100D01*
X+2089150Y+2255500D01*
X+2178050Y+2166600D01*
G37*
G36*
X+2365108Y+1921808D02*
X+2375895Y+1911021D01*
X+2431805Y+1911021D01*
X+2451475Y+1930691D01*
X+2462271Y+1919895D01*
X+2462271Y+1419736D01*
X+2442154Y+1399619D01*
X+2442154Y+1433862D01*
X+2339079Y+1536938D01*
X+2339079Y+1919895D01*
X+2353050Y+1933866D01*
X+2365108Y+1921808D01*
G37*
%LPC*%
G36*
X+2375535Y+1767742D02*
X+2375535Y+1788258D01*
X+2390042Y+1802765D01*
X+2410558Y+1802765D01*
X+2425065Y+1788258D01*
X+2425065Y+1767742D01*
X+2410558Y+1753235D01*
X+2390042Y+1753235D01*
X+2375535Y+1767742D01*
G37*
%LPD*%
G36*
X+2875908Y+2094858D02*
X+2886695Y+2084071D01*
X+2943845Y+2084071D01*
X+2980586Y+2047330D01*
X+3055542Y+2047330D01*
X+3346008Y+1756864D01*
X+3346008Y+612842D01*
X+3201731Y+468565D01*
X+2821965Y+468566D01*
X+2782619Y+429220D01*
X+2682186Y+429220D01*
X+2645395Y+392429D01*
X+2607295Y+392429D01*
X+2587666Y+372800D01*
X+2568037Y+392429D01*
X+2512127Y+392429D01*
X+2486727Y+367029D01*
X+1901204Y+367029D01*
X+1659877Y+608356D01*
X+477528Y+608356D01*
X+469229Y+616655D01*
X+469229Y+629203D01*
X+1353472Y+1513446D01*
X+1857120Y+1513446D01*
X+1902445Y+1468121D01*
X+2059955Y+1468121D01*
X+2094229Y+1502395D01*
X+2094229Y+1549387D01*
X+2278299Y+1365317D01*
X+2276865Y+1365317D01*
X+2192004Y+1450178D01*
X+2071194Y+1450178D01*
X+1934195Y+1313179D01*
X+1896095Y+1313179D01*
X+1861821Y+1278905D01*
X+1861821Y+1222995D01*
X+1896095Y+1188721D01*
X+1952005Y+1188721D01*
X+1986279Y+1222995D01*
X+1986279Y+1261095D01*
X+2034608Y+1309424D01*
X+2034608Y+1210180D01*
X+2015456Y+1191029D01*
X+1977356Y+1191029D01*
X+1951956Y+1165629D01*
X+1896355Y+1165629D01*
X+1624329Y+1437655D01*
X+1624329Y+1475755D01*
X+1590055Y+1510029D01*
X+1534145Y+1510029D01*
X+1499871Y+1475755D01*
X+1499871Y+1419845D01*
X+1534145Y+1385571D01*
X+1572245Y+1385571D01*
X+1865845Y+1091971D01*
X+1951955Y+1091971D01*
X+1977356Y+1066571D01*
X+2033266Y+1066571D01*
X+2067540Y+1100845D01*
X+2067540Y+1138944D01*
X+2087985Y+1159389D01*
X+2108266Y+1179672D01*
X+2108266Y+1252221D01*
X+2141221Y+1252221D01*
X+2141221Y+911845D01*
X+2208138Y+844928D01*
X+2649612Y+844928D01*
X+2682255Y+877571D01*
X+2720355Y+877571D01*
X+2754629Y+911845D01*
X+2754629Y+967755D01*
X+2720355Y+1002029D01*
X+2664445Y+1002029D01*
X+2630171Y+967755D01*
X+2630171Y+929655D01*
X+2619102Y+918586D01*
X+2238648Y+918586D01*
X+2214879Y+942355D01*
X+2214879Y+1271183D01*
X+2231189Y+1254873D01*
X+2401576Y+1254873D01*
X+2535929Y+1389226D01*
X+2535929Y+1919895D01*
X+2561329Y+1945295D01*
X+2561329Y+1998571D01*
X+2586795Y+1998571D01*
X+2601971Y+1983395D01*
X+2601971Y+1945295D01*
X+2636245Y+1911021D01*
X+2692155Y+1911021D01*
X+2726429Y+1945295D01*
X+2726429Y+1949063D01*
X+2801621Y+1873871D01*
X+2801621Y+1522695D01*
X+2835895Y+1488421D01*
X+2891805Y+1488421D01*
X+2906700Y+1503316D01*
X+3088441Y+1503316D01*
X+3165561Y+1426196D01*
X+3165561Y+859864D01*
X+3086726Y+781029D01*
X+2943455Y+781029D01*
X+2885455Y+839029D01*
X+2829545Y+839029D01*
X+2795271Y+804755D01*
X+2795271Y+662537D01*
X+2510547Y+662537D01*
X+2437029Y+736055D01*
X+2437029Y+774155D01*
X+2402755Y+808429D01*
X+2346845Y+808429D01*
X+2317650Y+779234D01*
X+2288455Y+808429D01*
X+2234655Y+808429D01*
X+2105229Y+937855D01*
X+2105229Y+975955D01*
X+2070955Y+1010229D01*
X+2015045Y+1010229D01*
X+1980771Y+975955D01*
X+1980771Y+920045D01*
X+2015045Y+885771D01*
X+2053145Y+885771D01*
X+2161528Y+777388D01*
X+2161528Y+697838D01*
X+2199846Y+659520D01*
X+2199846Y+621420D01*
X+2234120Y+587146D01*
X+2290030Y+587146D01*
X+2324304Y+621420D01*
X+2324304Y+647226D01*
X+2369719Y+647226D01*
X+2401402Y+615543D01*
X+2401402Y+615518D01*
X+2464799Y+552121D01*
X+2826445Y+552121D01*
X+2858195Y+520371D01*
X+2905745Y+520371D01*
X+2931145Y+494971D01*
X+2987055Y+494971D01*
X+3021329Y+529245D01*
X+3021329Y+585155D01*
X+3017605Y+588879D01*
X+3040437Y+588879D01*
X+3061971Y+567345D01*
X+3061971Y+529245D01*
X+3096245Y+494971D01*
X+3152155Y+494971D01*
X+3186429Y+529245D01*
X+3186429Y+585155D01*
X+3152155Y+619429D01*
X+3114055Y+619429D01*
X+3107813Y+625671D01*
X+3147621Y+625671D01*
X+3295345Y+773395D01*
X+3295345Y+1532673D01*
X+2916997Y+1911021D01*
X+2920755Y+1911021D01*
X+2955029Y+1945295D01*
X+2955029Y+2001205D01*
X+2920755Y+2035479D01*
X+2882655Y+2035479D01*
X+2831184Y+2086950D01*
X+2857500Y+2113266D01*
X+2875908Y+2094858D01*
G37*
%LPC*%
G36*
X+3131890Y+994605D02*
X+3143160Y+990988D01*
X+3164275Y+949912D01*
X+3164275Y+936088D01*
X+3143160Y+895012D01*
X+3105700Y+882990D01*
X+3068240Y+895012D01*
X+3047125Y+936088D01*
X+3047125Y+949912D01*
X+3068240Y+990988D01*
X+3105700Y+1003010D01*
X+3131890Y+994605D01*
G37*
G36*
X+3131890Y+1394605D02*
X+3143160Y+1390988D01*
X+3164275Y+1349912D01*
X+3164275Y+1336088D01*
X+3143160Y+1295012D01*
X+3105700Y+1282990D01*
X+3068240Y+1295012D01*
X+3047125Y+1336088D01*
X+3047125Y+1349912D01*
X+3068240Y+1390988D01*
X+3105700Y+1403010D01*
X+3131890Y+1394605D01*
G37*
G36*
X+3050935Y+1467742D02*
X+3050935Y+1488258D01*
X+3065442Y+1502765D01*
X+3085958Y+1502765D01*
X+3100465Y+1488258D01*
X+3100465Y+1467742D01*
X+3085958Y+1453235D01*
X+3065442Y+1453235D01*
X+3050935Y+1467742D01*
G37*
G36*
X+3295935Y+1527742D02*
X+3295935Y+1548258D01*
X+3310442Y+1562765D01*
X+3330958Y+1562765D01*
X+3345465Y+1548258D01*
X+3345465Y+1527742D01*
X+3330958Y+1513235D01*
X+3310442Y+1513235D01*
X+3295935Y+1527742D01*
G37*
G36*
X+2781935Y+1230992D02*
X+2781935Y+1251508D01*
X+2796442Y+1266015D01*
X+2816958Y+1266015D01*
X+2831465Y+1251508D01*
X+2831465Y+1230992D01*
X+2816958Y+1216485D01*
X+2796442Y+1216485D01*
X+2781935Y+1230992D01*
G37*
G36*
X+3050935Y+797742D02*
X+3050935Y+818258D01*
X+3065442Y+832765D01*
X+3085958Y+832765D01*
X+3100465Y+818258D01*
X+3100465Y+797742D01*
X+3085958Y+783235D01*
X+3065442Y+783235D01*
X+3050935Y+797742D01*
G37*
G36*
X+3295935Y+737742D02*
X+3295935Y+758258D01*
X+3310442Y+772765D01*
X+3330958Y+772765D01*
X+3345465Y+758258D01*
X+3345465Y+737742D01*
X+3330958Y+723235D01*
X+3310442Y+723235D01*
X+3295935Y+737742D01*
G37*
G36*
X+2667635Y+769542D02*
X+2667635Y+790058D01*
X+2682142Y+804565D01*
X+2702658Y+804565D01*
X+2717165Y+790058D01*
X+2717165Y+769542D01*
X+2702658Y+755035D01*
X+2682142Y+755035D01*
X+2667635Y+769542D01*
G37*
G36*
X+1829435Y+666292D02*
X+1829435Y+686808D01*
X+1843942Y+701315D01*
X+1864458Y+701315D01*
X+1878965Y+686808D01*
X+1878965Y+666292D01*
X+1864458Y+651785D01*
X+1843942Y+651785D01*
X+1829435Y+666292D01*
G37*
G36*
X+1842135Y+1361342D02*
X+1842135Y+1381858D01*
X+1856642Y+1396365D01*
X+1877158Y+1396365D01*
X+1891665Y+1381858D01*
X+1891665Y+1361342D01*
X+1877158Y+1346835D01*
X+1856642Y+1346835D01*
X+1842135Y+1361342D01*
G37*
G36*
X+1397635Y+1259742D02*
X+1397635Y+1280258D01*
X+1412142Y+1294765D01*
X+1432658Y+1294765D01*
X+1447165Y+1280258D01*
X+1447165Y+1259742D01*
X+1432658Y+1245235D01*
X+1412142Y+1245235D01*
X+1397635Y+1259742D01*
G37*
G36*
X+1143635Y+1005742D02*
X+1143635Y+1026258D01*
X+1158142Y+1040765D01*
X+1178658Y+1040765D01*
X+1193165Y+1026258D01*
X+1193165Y+1005742D01*
X+1178658Y+991235D01*
X+1158142Y+991235D01*
X+1143635Y+1005742D01*
G37*
G36*
X+1651635Y+1005742D02*
X+1651635Y+1026258D01*
X+1666142Y+1040765D01*
X+1686658Y+1040765D01*
X+1701165Y+1026258D01*
X+1701165Y+1005742D01*
X+1686658Y+991235D01*
X+1666142Y+991235D01*
X+1651635Y+1005742D01*
G37*
G36*
X+2413635Y+497742D02*
X+2413635Y+518258D01*
X+2428142Y+532765D01*
X+2448658Y+532765D01*
X+2463165Y+518258D01*
X+2463165Y+497742D01*
X+2448658Y+483235D01*
X+2428142Y+483235D01*
X+2413635Y+497742D01*
G37*
G36*
X+2839085Y+1380392D02*
X+2839085Y+1400908D01*
X+2853592Y+1415415D01*
X+2874108Y+1415415D01*
X+2888615Y+1400908D01*
X+2888615Y+1380392D01*
X+2874108Y+1365885D01*
X+2853592Y+1365885D01*
X+2839085Y+1380392D01*
G37*
G36*
X+2707073Y+1772754D02*
X+2707073Y+1793270D01*
X+2721580Y+1807777D01*
X+2742096Y+1807777D01*
X+2756603Y+1793270D01*
X+2756603Y+1772754D01*
X+2742096Y+1758247D01*
X+2721580Y+1758247D01*
X+2707073Y+1772754D01*
G37*
G36*
X+2317535Y+1035242D02*
X+2317535Y+1055758D01*
X+2332042Y+1070265D01*
X+2352558Y+1070265D01*
X+2367065Y+1055758D01*
X+2367065Y+1035242D01*
X+2352558Y+1020735D01*
X+2332042Y+1020735D01*
X+2317535Y+1035242D01*
G37*
G36*
X+3175635Y+1767742D02*
X+3175635Y+1788258D01*
X+3190142Y+1802765D01*
X+3210658Y+1802765D01*
X+3225165Y+1788258D01*
X+3225165Y+1767742D01*
X+3210658Y+1753235D01*
X+3190142Y+1753235D01*
X+3175635Y+1767742D01*
G37*
%LPD*%
G36*
X+2038337Y+1605279D02*
X+1311895Y+1605279D01*
X+395645Y+689029D01*
X+290145Y+689029D01*
X+288254Y+687138D01*
X+288254Y+700220D01*
X+1536905Y+1948871D01*
X+1641455Y+1948871D01*
X+1668100Y+1975516D01*
X+2038337Y+1605279D01*
G37*
%LPC*%
G36*
X+1613535Y+1767742D02*
X+1613535Y+1788258D01*
X+1628042Y+1802765D01*
X+1648558Y+1802765D01*
X+1663065Y+1788258D01*
X+1663065Y+1767742D01*
X+1648558Y+1753235D01*
X+1628042Y+1753235D01*
X+1613535Y+1767742D01*
G37*
G36*
X+889635Y+1259742D02*
X+889635Y+1280258D01*
X+904142Y+1294765D01*
X+924658Y+1294765D01*
X+939165Y+1280258D01*
X+939165Y+1259742D01*
X+924658Y+1245235D01*
X+904142Y+1245235D01*
X+889635Y+1259742D01*
G37*
G36*
X+635635Y+1005742D02*
X+635635Y+1026258D01*
X+650142Y+1040765D01*
X+670658Y+1040765D01*
X+685165Y+1026258D01*
X+685165Y+1005742D01*
X+670658Y+991235D01*
X+650142Y+991235D01*
X+635635Y+1005742D01*
G37*
G36*
X+381635Y+751742D02*
X+381635Y+772258D01*
X+396142Y+786765D01*
X+416658Y+786765D01*
X+431165Y+772258D01*
X+431165Y+751742D01*
X+416658Y+737235D01*
X+396142Y+737235D01*
X+381635Y+751742D01*
G37*
%LPD*%
D12*
X+2692400Y+779800D02*
X+2806700Y+894100D01*
X+3034200Y+849500D02*
X+2989600Y+894100D01*
X+2806700Y+894100D01*
X+3058600Y+825100D02*
X+3075700Y+808000D01*
X+2806700Y+1060450D02*
X+2806700Y+894100D01*
X+2488350Y+1060450D02*
X+2476500Y+1060450D01*
X+2469300Y+1060450D01*
X+2357250Y+1060450D01*
X+2342300Y+1045500D01*
X+2450250Y+1172500D02*
X+2469300Y+1172500D01*
X+2806700Y+1172500D01*
X+2806700Y+1241250D02*
X+2806700Y+1172500D01*
X+3143250Y+1153450D02*
X+3143250Y+1162050D01*
X+3143250Y+1172500D01*
X+2806700Y+1060450D02*
X+3143250Y+1060450D01*
X+3143250Y+1153450D01*
X+2806700Y+1172500D02*
X+3143250Y+1172500D01*
X+2469300Y+918500D02*
X+2611250Y+1060450D01*
X+2666150Y+1060450D01*
X+2488350Y+1060450D02*
X+2611250Y+1060450D01*
X+2666150Y+1060450D02*
X+2806700Y+1060450D01*
X+2469300Y+918500D02*
X+2469300Y+1060450D01*
X+2794000Y+0D02*
X+2794000Y+76200D01*
X+2832100Y+76200D01*
X+2870200Y+38100D01*
X+2870200Y-38100D01*
X+2832100Y-76200D01*
X+2755900Y-76200D01*
X+2717800Y-38100D01*
X+2717800Y+38100D01*
X+2755900Y+76200D01*
X+2794000Y+76200D01*
X+2540000Y+0D02*
X+2540000Y+76200D01*
X+2578100Y+76200D01*
X+2616200Y+38100D01*
X+2616200Y-38100D01*
X+2578100Y-76200D01*
X+2501900Y-76200D01*
X+2463800Y-38100D01*
X+2463800Y+38100D01*
X+2501900Y+76200D01*
X+2540000Y+76200D01*
X+1778000Y+0D02*
X+1778000Y+76200D01*
X+1816100Y+76200D01*
X+1854200Y+38100D01*
X+1854200Y-38100D01*
X+1816100Y-76200D01*
X+1739900Y-76200D01*
X+1701800Y-38100D01*
X+1701800Y+38100D01*
X+1739900Y+76200D01*
X+1778000Y+76200D01*
X+1524000Y+0D02*
X+1524000Y+76200D01*
X+1562100Y+76200D01*
X+1600200Y+38100D01*
X+1600200Y-38100D01*
X+1562100Y-76200D01*
X+1485900Y-76200D01*
X+1447800Y-38100D01*
X+1447800Y+38100D01*
X+1485900Y+76200D01*
X+1524000Y+76200D01*
X+1270000Y+0D02*
X+1270000Y+76200D01*
X+1308100Y+76200D01*
X+1346200Y+38100D01*
X+1346200Y-38100D01*
X+1308100Y-76200D01*
X+1231900Y-76200D01*
X+1193800Y-38100D01*
X+1193800Y+38100D01*
X+1231900Y+76200D01*
X+1270000Y+76200D01*
X+1016000Y+0D02*
X+1016000Y+76200D01*
X+1054100Y+76200D01*
X+1092200Y+38100D01*
X+1092200Y-38100D01*
X+1054100Y-76200D01*
X+977900Y-76200D01*
X+939800Y-38100D01*
X+939800Y+38100D01*
X+977900Y+76200D01*
X+1016000Y+76200D01*
X+762000Y+0D02*
X+762000Y+76200D01*
X+800100Y+76200D01*
X+838200Y+38100D01*
X+838200Y-38100D01*
X+800100Y-76200D01*
X+723900Y-76200D01*
X+685800Y-38100D01*
X+685800Y+38100D01*
X+723900Y+76200D01*
X+762000Y+76200D01*
X+508000Y+0D02*
X+508000Y+76200D01*
X+546100Y+76200D01*
X+584200Y+38100D01*
X+584200Y-38100D01*
X+546100Y-76200D01*
X+469900Y-76200D01*
X+431800Y-38100D01*
X+431800Y+38100D01*
X+469900Y+76200D01*
X+508000Y+76200D01*
X+254000Y+0D02*
X+254000Y+76200D01*
X+292100Y+76200D01*
X+330200Y+38100D01*
X+330200Y-38100D01*
X+292100Y-76200D01*
X+215900Y-76200D01*
X+177800Y-38100D01*
X+177800Y+38100D01*
X+215900Y+76200D01*
X+254000Y+76200D01*
X+2286000Y+2286000D02*
X+2286000Y+2362200D01*
X+2324100Y+2362200D01*
X+2362200Y+2324100D01*
X+2362200Y+2247900D01*
X+2324100Y+2209800D01*
X+2247900Y+2209800D01*
X+2209800Y+2247900D01*
X+2209800Y+2324100D01*
X+2247900Y+2362200D01*
X+2286000Y+2362200D01*
X+1778000Y+2286000D02*
X+1778000Y+2362200D01*
X+1816100Y+2362200D01*
X+1854200Y+2324100D01*
X+1854200Y+2247900D01*
X+1816100Y+2209800D01*
X+1739900Y+2209800D01*
X+1701800Y+2247900D01*
X+1701800Y+2324100D01*
X+1739900Y+2362200D01*
X+1778000Y+2362200D01*
X+889000Y+2286000D02*
X+889000Y+2362200D01*
X+927100Y+2362200D01*
X+965200Y+2324100D01*
X+965200Y+2247900D01*
X+927100Y+2209800D01*
X+850900Y+2209800D01*
X+812800Y+2247900D01*
X+812800Y+2324100D01*
X+850900Y+2362200D01*
X+889000Y+2362200D01*
X+635000Y+2286000D02*
X+635000Y+2362200D01*
X+673100Y+2362200D01*
X+711200Y+2324100D01*
X+711200Y+2247900D01*
X+673100Y+2209800D01*
X+596900Y+2209800D01*
X+558800Y+2247900D01*
X+558800Y+2324100D01*
X+596900Y+2362200D01*
X+635000Y+2362200D01*
X+381000Y+2286000D02*
X+381000Y+2362200D01*
X+419100Y+2362200D01*
X+457200Y+2324100D01*
X+457200Y+2247900D01*
X+419100Y+2209800D01*
X+342900Y+2209800D01*
X+304800Y+2247900D01*
X+304800Y+2324100D01*
X+342900Y+2362200D01*
X+381000Y+2362200D01*
X+127000Y+2286000D02*
X+127000Y+2362200D01*
X+165100Y+2362200D01*
X+203200Y+2324100D01*
X+203200Y+2247900D01*
X+165100Y+2209800D01*
X+88900Y+2209800D01*
X+50800Y+2247900D01*
X+50800Y+2324100D01*
X+88900Y+2362200D01*
X+127000Y+2362200D01*
X+2794000Y+2286000D02*
X+2794000Y+2324100D01*
X+2832100Y+2324100D01*
X+2832100Y+2247900D01*
X+2755900Y+2247900D01*
X+2755900Y+2324100D01*
X+2800350Y+2324100D01*
X+2794000Y+2159000D02*
X+2832100Y+2159000D01*
X+2832100Y+2178050D01*
X+2813050Y+2197100D01*
X+2774950Y+2197100D01*
X+2755900Y+2178050D01*
X+2755900Y+2146300D01*
X+2755900Y+2139950D01*
X+2774950Y+2120900D01*
X+2813050Y+2120900D01*
X+2832100Y+2139950D01*
X+2832100Y+2159000D01*
X+3175000Y+2159000D02*
X+3213100Y+2159000D01*
X+3213100Y+2178050D01*
X+3194050Y+2197100D01*
X+3155950Y+2197100D01*
X+3136900Y+2178050D01*
X+3136900Y+2146300D01*
X+3136900Y+2139950D01*
X+3155950Y+2120900D01*
X+3194050Y+2120900D01*
X+3213100Y+2139950D01*
X+3213100Y+2159000D01*
X+3175000Y+2286000D02*
X+3213100Y+2286000D01*
X+3213100Y+2305050D01*
X+3194050Y+2324100D01*
X+3155950Y+2324100D01*
X+3136900Y+2305050D01*
X+3136900Y+2273300D01*
X+3136900Y+2266950D01*
X+3155950Y+2247900D01*
X+3194050Y+2247900D01*
X+3213100Y+2266950D01*
X+3213100Y+2286000D01*
X+2857500Y+776800D02*
X+2857500Y+687900D01*
X+2692400Y+939800D02*
X+2673350Y+920750D01*
X+2686050Y+914400D02*
X+2679700Y+914400D01*
X+2667000Y+914400D01*
X+2692400Y+939800D02*
X+2692400Y+965200D01*
X+2705100Y+965200D01*
X+2717800Y+952500D01*
X+2717800Y+927100D01*
X+2705100Y+914400D01*
X+2686050Y+914400D01*
X+2679700Y+914400D02*
X+2673350Y+920750D01*
X+2667000Y+914400D01*
X+2667000Y+933450D02*
X+2667000Y+927100D01*
X+2667000Y+914400D01*
X+2673350Y+920750D02*
X+2667000Y+927100D01*
X+2667000Y+933450D02*
X+2667000Y+952500D01*
X+2679700Y+965200D01*
X+2698750Y+965200D01*
X+2870200Y+675200D02*
X+2870200Y+662500D01*
X+2857500Y+776800D02*
X+2857500Y+802200D01*
X+2870200Y+802200D01*
X+2876550Y+668850D02*
X+2870200Y+662500D01*
X+2870200Y+675200D02*
X+2876550Y+668850D01*
X+2844800Y+802200D02*
X+2863850Y+802200D01*
X+2882900Y+681550D02*
X+2882900Y+675200D01*
X+2882900Y+662500D01*
X+2876550Y+668850D02*
X+2882900Y+662500D01*
X+2882900Y+675200D02*
X+2876550Y+668850D01*
X+2851150Y+662500D02*
X+2870200Y+662500D01*
X+2851150Y+662500D02*
X+2844800Y+662500D01*
X+3301650Y+767050D02*
X+3320700Y+748000D01*
X+3320700Y+1538000D02*
X+3295300Y+1538000D01*
X+3301650Y+1518950D02*
X+3295300Y+1525300D01*
X+3298475Y+1553875D02*
X+3295300Y+1550700D01*
X+2882900Y+685857D02*
X+2870200Y+685857D01*
X+2859543Y+685857D01*
X+2844800Y+685857D01*
X+2832100Y+685857D01*
X+2870200Y+802200D02*
X+2870200Y+685857D01*
X+2870200Y+675200D01*
X+2857500Y+687900D02*
X+2859543Y+685857D01*
X+2870200Y+675200D01*
X+2844800Y+662500D02*
X+2844800Y+685857D01*
X+2844800Y+802200D01*
X+2844800Y+662500D02*
X+2832100Y+675200D01*
X+2832100Y+685857D01*
X+2832100Y+789500D01*
X+2844800Y+802200D01*
X+2882900Y+685857D02*
X+2882900Y+681550D01*
X+2032000Y+2286000D02*
X+2089150Y+2343150D01*
X+2032000Y+2286000D02*
X+2032000Y+2362200D01*
X+2070100Y+2362200D01*
X+2089150Y+2343150D01*
X+2089150Y+2228850D02*
X+2032000Y+2286000D01*
X+3056650Y+827050D02*
X+3063000Y+833400D01*
X+3088400Y+833400D01*
X+3058600Y+825100D02*
X+3056650Y+827050D01*
X+3034200Y+849500D01*
X+3075700Y+808000D02*
X+3101100Y+808000D01*
X+3094750Y+1497050D02*
X+3075700Y+1478000D01*
X+3101100Y+1478000D02*
X+3101100Y+1490700D01*
X+3075700Y+1478000D02*
X+3101100Y+1478000D01*
X+3101100Y+1465300D01*
X+3082050Y+1503400D02*
X+3088400Y+1503400D01*
X+3320700Y+748000D02*
X+3320700Y+773400D01*
X+3320700Y+1512600D02*
X+3320700Y+1538000D01*
X+3301650Y+767050D02*
X+3308000Y+773400D01*
X+3320700Y+773400D01*
X+3320700Y+1512600D02*
X+3308000Y+1512600D01*
X+3301650Y+1518950D01*
X+3298475Y+1553875D02*
X+3308000Y+1563400D01*
X+3320700Y+1563400D01*
X+3333400Y+1563400D01*
X+3346100Y+1525300D02*
X+3346100Y+1550700D01*
X+3320700Y+748000D02*
X+3346100Y+748000D01*
X+3320700Y+773400D02*
X+3333400Y+773400D01*
X+3346100Y+760700D01*
X+3320700Y+1563400D02*
X+3333400Y+1563400D01*
X+3346100Y+1550700D01*
X+3346100Y+1525300D02*
X+3333400Y+1512600D01*
X+3320700Y+1512600D01*
X+2032000Y+0D02*
X+2089150Y-57150D01*
X+2070100Y-76200D01*
X+1993900Y-76200D01*
X+1955800Y-38100D01*
X+1955800Y+38100D01*
X+1993900Y+76200D01*
X+2032000Y+76200D01*
X+2032000Y+0D02*
X+2089150Y+57150D01*
X+2949575Y+2130425D02*
X+2921000Y+2159000D01*
X+2921000Y+2197100D01*
X+2921000Y+2247900D02*
X+2921000Y+2286000D01*
X+2959100Y+2159000D02*
X+2959100Y+2139950D01*
X+2959100Y+2120900D01*
X+2949575Y+2130425D01*
X+2959100Y+2139950D01*
X+2921000Y+2159000D02*
X+2959100Y+2159000D01*
X+2929650Y+2120900D02*
X+2940050Y+2120900D01*
X+2959100Y+2120900D01*
X+2940050Y+2120900D02*
X+2949575Y+2130425D01*
X+2882900Y+2163800D02*
X+2882900Y+2178050D01*
X+2882900Y+2266950D02*
X+2882900Y+2273300D01*
X+2882900Y+2284450D01*
X+2882900Y+2266950D02*
X+2901950Y+2247900D01*
X+2921000Y+2247900D01*
X+2921000Y+2197100D02*
X+2901950Y+2197100D01*
X+2882900Y+2178050D01*
X+2882900Y+2163800D02*
X+2882900Y+2146300D01*
X+2882900Y+2139950D01*
X+2901950Y+2120900D01*
X+2929650Y+2120900D01*
X+2959100Y+2297150D02*
X+2959100Y+2286000D01*
X+2959100Y+2266950D01*
X+2959100Y+2178050D02*
X+2959100Y+2163800D01*
X+2921000Y+2247900D02*
X+2940050Y+2247900D01*
X+2959100Y+2266950D01*
X+2959100Y+2159000D02*
X+2959100Y+2163800D01*
X+2959100Y+2178050D02*
X+2940050Y+2197100D01*
X+2921000Y+2197100D01*
X+2921000Y+2286000D02*
X+2959100Y+2286000D01*
X+2959100Y+2297150D02*
X+2959100Y+2305050D01*
X+2940050Y+2324100D01*
X+2901950Y+2324100D01*
X+2882900Y+2305050D01*
X+2882900Y+2284450D01*
X+3048000Y+2286000D02*
X+3048000Y+2247900D01*
X+3048000Y+2197100D02*
X+3048000Y+2159000D01*
X+3009900Y+2297150D02*
X+3009900Y+2273300D01*
X+3009900Y+2266950D01*
X+3009900Y+2178050D02*
X+3009900Y+2163800D01*
X+3009900Y+2266950D02*
X+3028950Y+2247900D01*
X+3048000Y+2247900D01*
X+3048000Y+2197100D02*
X+3028950Y+2197100D01*
X+3009900Y+2178050D01*
X+3086100Y+2290800D02*
X+3086100Y+2286000D01*
X+3086100Y+2266950D01*
X+3048000Y+2247900D02*
X+3067050Y+2247900D01*
X+3086100Y+2266950D01*
X+3048000Y+2159000D02*
X+3086100Y+2159000D01*
X+3086100Y+2178050D02*
X+3067050Y+2197100D01*
X+3048000Y+2197100D01*
X+3048000Y+2286000D02*
X+3086100Y+2286000D01*
X+3086100Y+2290800D02*
X+3086100Y+2305050D01*
X+3067050Y+2324100D01*
X+3028950Y+2324100D01*
X+3009900Y+2305050D01*
X+3009900Y+2297150D01*
X+3048000Y+2159000D02*
X+3076575Y+2130425D01*
X+2343150Y+57150D02*
X+2286000Y+0D01*
X+2362200Y+23850D02*
X+2362200Y+38100D01*
X+2362200Y+76200D01*
X+2343150Y+57150D02*
X+2362200Y+38100D01*
X+2362200Y+23850D02*
X+2362200Y-38100D01*
X+2324100Y-76200D01*
X+2247900Y-76200D01*
X+2209800Y-38100D01*
X+2209800Y+38100D01*
X+2247900Y+76200D01*
X+2286000Y+76200D01*
X+2362200Y+76200D02*
X+2343150Y+57150D01*
X+2301000Y+76200D02*
X+2324100Y+76200D01*
X+2362200Y+76200D01*
X+2366000Y+80000D01*
X+2372100Y+86100D01*
X+2375275Y+89275D01*
X+2286000Y+0D02*
X+2286000Y+76200D01*
X+2301000Y+76200D01*
X+2324100Y+76200D02*
X+2343150Y+57150D01*
X+2108200Y-7900D02*
X+2108200Y+38100D01*
X+2108200Y+76200D01*
X+2089150Y+57150D02*
X+2108200Y+38100D01*
X+2108200Y-7900D02*
X+2108200Y-38100D01*
X+2089150Y-57150D01*
X+2089150Y+57150D02*
X+2108200Y+76200D01*
X+2040650Y+76200D02*
X+2070100Y+76200D01*
X+2108200Y+76200D01*
X+2121275Y+89275D01*
X+2124450Y+92450D01*
X+2032000Y+0D02*
X+2032000Y+76200D01*
X+2040650Y+76200D01*
X+2070100Y+76200D02*
X+2089150Y+57150D01*
X+2124450Y+92450D02*
X+2144978Y+112978D01*
X+3050300Y+2120900D02*
X+3067050Y+2120900D01*
X+3086100Y+2120900D01*
X+3009900Y+2163800D02*
X+3009900Y+2146300D01*
X+3009900Y+2139950D01*
X+3028950Y+2120900D01*
X+3050300Y+2120900D01*
X+3067050Y+2120900D02*
X+3076575Y+2130425D01*
X+3086100Y+2120900D01*
X+3086100Y+2170150D02*
X+3086100Y+2159000D01*
X+3086100Y+2151100D01*
X+3086100Y+2139950D01*
X+3086100Y+2120900D01*
X+3086100Y+2178050D02*
X+3086100Y+2170150D01*
X+3076575Y+2130425D02*
X+3086100Y+2139950D01*
X+2964200Y+2115800D02*
X+2995841Y+2084159D01*
X+3047423Y+2084159D01*
X+3070797Y+2084159D01*
X+3103396Y+2051560D01*
X+3382837Y+1772119D01*
X+3382837Y+1697163D01*
X+3382837Y+1671344D01*
X+2964200Y+2115800D02*
X+2959100Y+2120900D01*
X+2374800Y+746200D02*
X+2393850Y+727150D01*
X+3124200Y+557200D02*
X+3105150Y+576250D01*
X+2463700Y+657300D02*
X+2424900Y+696100D01*
X+2400200Y+754050D02*
X+2400200Y+746200D01*
X+2400200Y+739850D01*
X+2400200Y+733500D01*
X+2400200Y+720800D01*
X+2374800Y+746200D02*
X+2400200Y+746200D01*
X+2400200Y+733500D02*
X+2393850Y+727150D01*
X+2400200Y+720800D01*
X+2412200Y+708800D02*
X+2424900Y+696100D01*
X+2374900Y+720800D02*
X+2387500Y+720800D01*
X+2400200Y+720800D01*
X+2412200Y+708800D01*
X+2393850Y+727150D02*
X+2387500Y+720800D01*
X+2374900Y+720800D02*
X+2362100Y+720800D01*
X+2349400Y+733500D01*
X+2349400Y+758900D01*
X+2362100Y+771600D01*
X+2387500Y+771600D01*
X+2400200Y+758900D01*
X+2400200Y+754050D01*
X+3079750Y+601650D02*
X+3062063Y+619337D01*
X+3055692Y+625708D01*
X+2495292Y+625708D01*
X+2463700Y+657300D01*
X+3098800Y+557200D02*
X+3098800Y+569900D01*
X+3098800Y+582600D01*
X+3098800Y+569900D02*
X+3105150Y+576250D01*
X+3098800Y+582600D01*
X+3124200Y+582600D02*
X+3111500Y+582600D01*
X+3098800Y+582600D01*
X+3086100Y+595300D01*
X+3105150Y+576250D02*
X+3111500Y+582600D01*
X+3124200Y+582600D02*
X+3130550Y+582600D01*
X+3124200Y+557200D02*
X+3124200Y+582600D01*
X+3136900Y+582600D01*
X+3149600Y+569900D01*
X+3149600Y+544500D01*
X+3136900Y+531800D01*
X+3111500Y+531800D01*
X+3098800Y+544500D01*
X+3098800Y+557200D01*
X+3086100Y+595300D02*
X+3079750Y+601650D01*
X+2959100Y+557200D02*
X+2933700Y+557200D01*
X+2260500Y+746200D02*
X+2279550Y+727150D01*
X+2480079Y+588950D02*
X+2480054Y+588950D01*
X+2438231Y+630773D01*
X+2285900Y+752550D02*
X+2285900Y+746200D01*
X+2285900Y+739850D01*
X+2285900Y+733500D01*
X+2285900Y+720800D01*
X+2279550Y+727150D02*
X+2285900Y+720800D01*
X+2304200Y+702500D02*
X+2322645Y+684055D01*
X+2384974Y+684055D01*
X+2423676Y+645353D01*
X+2480079Y+588950D01*
X+2260500Y+746200D02*
X+2285900Y+746200D01*
X+2285900Y+733500D02*
X+2279550Y+727150D01*
X+2260500Y+720800D02*
X+2273200Y+720800D01*
X+2285900Y+720800D01*
X+2301025Y+705675D01*
X+2304200Y+702500D01*
X+2279550Y+727150D02*
X+2273200Y+720800D01*
X+2260500Y+720800D02*
X+2247800Y+720800D01*
X+2235100Y+733500D01*
X+2235100Y+758900D01*
X+2247800Y+771600D01*
X+2273200Y+771600D01*
X+2285900Y+758900D01*
X+2285900Y+752550D01*
X+2941675Y+577875D02*
X+2933700Y+569900D01*
X+2921000Y+557200D01*
X+2933700Y+557200D02*
X+2933700Y+569900D01*
X+2941675Y+577875D02*
X+2946400Y+582600D01*
X+2965450Y+582600D01*
X+2933700Y+557200D02*
X+2921000Y+557200D01*
X+2943175Y+535025D02*
X+2933700Y+544500D01*
X+2921000Y+557200D01*
X+2959100Y+557200D02*
X+2959100Y+582600D01*
X+2971800Y+582600D01*
X+2984500Y+569900D01*
X+2984500Y+544500D01*
X+2971800Y+531800D01*
X+2946400Y+531800D01*
X+2943175Y+535025D01*
X+2933700Y+544500D02*
X+2933700Y+557200D01*
X+2921000Y+557200D02*
X+2873450Y+557200D01*
X+2841700Y+588950D01*
X+2480079Y+588950D01*
X+2635250Y+355600D02*
X+2635250Y+330200D01*
X+2654300Y+349250D02*
X+2647950Y+355600D01*
X+2616200Y+349250D02*
X+2622550Y+355600D01*
X+2454736Y+149686D02*
X+2410231Y+149686D01*
X+2383686Y+149686D01*
X+2367698Y+133698D01*
X+2346978Y+112978D01*
X+2288859Y+112978D01*
X+2144978Y+112978D01*
X+2813050Y+330200D02*
X+2787650Y+330200D01*
X+2641600Y+304800D02*
X+2622550Y+304800D01*
X+2609850Y+304800D01*
X+2616200Y+311150D02*
X+2609850Y+304800D01*
X+2597150Y+292100D02*
X+2454736Y+149686D01*
X+2622550Y+304800D02*
X+2616200Y+311150D01*
X+2609850Y+336550D02*
X+2609850Y+317500D01*
X+2609850Y+304800D01*
X+2597150Y+292100D01*
X+2616200Y+311150D02*
X+2609850Y+317500D01*
X+2609850Y+336550D02*
X+2609850Y+342900D01*
X+2616200Y+349250D01*
X+2413000Y+112938D02*
X+2469953Y+112938D01*
X+2413000Y+112938D02*
X+2398938Y+112938D01*
X+2375275Y+89275D01*
X+2806700Y+311150D02*
X+2813050Y+317500D01*
X+2813050Y+330200D02*
X+2813050Y+317500D01*
X+2806700Y+349250D02*
X+2813050Y+342900D01*
X+2794000Y+304800D02*
X+2774950Y+304800D01*
X+2762250Y+304800D01*
X+2469953Y+112938D02*
X+2525152Y+168137D01*
X+2625026Y+268011D01*
X+2725461Y+268011D01*
X+2743200Y+285750D01*
X+2806700Y+311150D02*
X+2800350Y+304800D01*
X+2794000Y+304800D01*
X+2774950Y+304800D02*
X+2768600Y+311150D01*
X+2762250Y+336550D02*
X+2762250Y+317500D01*
X+2762250Y+304800D01*
X+2768600Y+311150D02*
X+2762250Y+317500D01*
X+2749550Y+292100D02*
X+2743200Y+285750D01*
X+2043000Y+922600D02*
X+2043000Y+948000D01*
X+2062050Y+928950D02*
X+2055700Y+922600D01*
X+2017600Y+935300D02*
X+2030300Y+922600D01*
X+2017600Y+935300D02*
X+2017600Y+960700D01*
X+2030300Y+973400D01*
X+2055700Y+973400D01*
X+2266825Y+674775D02*
X+2262075Y+674775D01*
X+2249375Y+674775D01*
X+2236675Y+674775D01*
X+2262075Y+649375D02*
X+2262075Y+674775D01*
X+2243025Y+668425D02*
X+2249375Y+674775D01*
X+2266825Y+674775D02*
X+2268425Y+674775D01*
X+2236675Y+651125D02*
X+2236675Y+662075D01*
X+2236675Y+674775D01*
X+2266825Y+674775D02*
X+2274775Y+674775D01*
X+2287475Y+662075D01*
X+2287475Y+636675D01*
X+2274775Y+623975D01*
X+2249375Y+623975D01*
X+2236675Y+636675D01*
X+2236675Y+651125D01*
X+2236675Y+662075D02*
X+2243025Y+668425D01*
X+2425700Y+222250D02*
X+2419350Y+228600D01*
X+2425700Y+260350D02*
X+2419350Y+254000D01*
X+1564550Y+483950D02*
X+1577250Y+483950D01*
X+1564550Y+483950D02*
X+1551850Y+483950D01*
X+1539150Y+496650D01*
X+1539150Y+522050D01*
X+1551850Y+534750D01*
X+1577250Y+534750D01*
X+3359150Y+163600D02*
X+3330900Y+191850D01*
X+3202850Y+191850D01*
X+3177450Y+191850D01*
X+3202850Y+191850D02*
X+3202850Y+204550D01*
X+3190150Y+217250D01*
X+3164750Y+217250D01*
X+3152050Y+204550D01*
X+3152050Y+179150D01*
X+3164750Y+166450D01*
X+3190150Y+166450D01*
X+3202850Y+179150D01*
X+3202850Y+198200D01*
X+1581150Y+1428750D02*
X+1562100Y+1447800D01*
X+1587500Y+1460500D02*
X+1587500Y+1435100D01*
X+1587500Y+1422400D01*
X+1581150Y+1428750D01*
X+1562100Y+1447800D02*
X+1562100Y+1473200D01*
X+1574800Y+1473200D01*
X+1587500Y+1460500D01*
X+1587500Y+1435100D02*
X+1581150Y+1428750D01*
X+1554050Y+1422400D02*
X+1574800Y+1422400D01*
X+1587500Y+1422400D01*
X+1581150Y+1428750D02*
X+1574800Y+1422400D01*
X+1554050Y+1422400D02*
X+1549400Y+1422400D01*
X+1536700Y+1435100D01*
X+1536700Y+1460500D01*
X+1549400Y+1473200D01*
X+1574800Y+1473200D01*
X+1979911Y+1141500D02*
X+1986261Y+1147850D01*
X+2005311Y+1154200D02*
X+1992611Y+1154200D01*
X+1986261Y+1147850D02*
X+1992611Y+1154200D01*
X+2005311Y+1128800D02*
X+2005311Y+1154200D01*
X+3295300Y+1550700D02*
X+3295300Y+1538000D01*
X+3295300Y+1525300D01*
X+3295300Y+760700D01*
X+3295300Y+735300D01*
X+3304350Y+726250D01*
X+3295300Y+760700D02*
X+3301650Y+767050D01*
X+3075700Y+808000D02*
X+3094750Y+827050D01*
X+3094750Y+1458950D02*
X+3075700Y+1478000D01*
X+3075700Y+808000D02*
X+3075700Y+833400D01*
X+3088400Y+833400D01*
X+3094750Y+827050D01*
X+3101100Y+820700D01*
X+3101100Y+808000D01*
X+3101100Y+1478000D02*
X+3101100Y+1465300D01*
X+3094750Y+1458950D01*
X+3088400Y+1452600D01*
X+3063000Y+1452600D01*
X+3050300Y+1465300D01*
X+3050300Y+1490700D01*
X+3063000Y+1503400D01*
X+3082050Y+1503400D01*
X+1143000Y+2209800D02*
X+1143000Y+2286000D01*
D13*
X+203800Y+926800D02*
X+318100Y+926800D01*
D12*
X+1524000Y+2286000D02*
X+1466850Y+2228850D01*
X+2444750Y+241300D02*
X+2419350Y+241300D01*
X+1583600Y+490300D02*
X+1564550Y+509350D01*
X+2540000Y+330200D02*
X+2514682Y+330200D01*
X+2533650Y+304800D02*
X+2514682Y+323768D01*
X+2508250Y+330200D01*
X+2514682Y+330200D02*
X+2508250Y+330200D01*
X+2514682Y+330200D02*
X+2514682Y+323768D01*
X+2533650Y+304800D02*
X+2552782Y+304800D01*
X+2565482Y+317500D01*
X+2565482Y+336550D01*
X+2520991Y+349209D02*
X+2514682Y+342900D01*
X+2501982Y+330200D01*
X+2540000Y+330200D02*
X+2565482Y+330200D01*
X+2565482Y+342900D01*
X+2552782Y+355600D01*
X+2527382Y+355600D01*
X+2520991Y+349209D01*
X+2514682Y+342900D02*
X+2514682Y+330200D01*
X+2508250Y+330200D02*
X+2501982Y+330200D01*
X+2520991Y+311191D02*
X+2514682Y+317500D01*
X+2501982Y+330200D01*
X+2514682Y+323768D02*
X+2514682Y+317500D01*
X+2520991Y+311191D02*
X+2527382Y+304800D01*
X+2533650Y+304800D01*
X+2444750Y+241300D02*
X+2425700Y+260350D01*
X+1589950Y+515700D02*
X+1589950Y+509350D01*
X+1589950Y+496650D01*
X+1568450Y+509350D02*
X+1589950Y+509350D01*
X+1602631Y+509350D01*
X+1568450Y+509350D02*
X+1564550Y+509350D01*
X+1619250Y+509350D02*
X+1635796Y+509350D01*
X+1654846Y+509350D01*
X+1688523Y+475673D01*
X+1870753Y+293443D01*
X+1581700Y+488400D02*
X+1583600Y+490300D01*
X+1589950Y+496650D01*
X+1602650Y+509350D01*
X+1581700Y+488400D02*
X+1577250Y+483950D01*
X+1602631Y+509350D02*
X+1602650Y+509350D01*
X+1583050Y+528950D02*
X+1589950Y+522050D01*
X+1602650Y+509350D01*
X+1612900Y+509350D01*
X+1619250Y+509350D01*
X+1564550Y+509350D02*
X+1564550Y+534750D01*
X+1577250Y+534750D01*
X+1583050Y+528950D01*
X+1589950Y+522050D02*
X+1589950Y+515700D01*
X+2419350Y+234950D02*
X+2419350Y+241300D01*
X+2419350Y+254000D01*
X+2419350Y+266700D01*
X+2419350Y+228600D02*
X+2419350Y+234950D01*
X+2425700Y+260350D02*
X+2419350Y+266700D01*
X+2451100Y+266700D02*
X+2444750Y+266700D01*
X+2432050Y+266700D01*
X+2419350Y+266700D01*
X+2413000Y+273050D01*
X+2400300Y+285750D01*
X+2444750Y+241300D02*
X+2444750Y+266700D01*
X+2451100Y+266700D02*
X+2457450Y+266700D01*
X+2470150Y+254000D01*
X+2470150Y+228600D01*
X+2457450Y+215900D01*
X+2432050Y+215900D01*
X+2425700Y+222250D01*
X+2425700Y+260350D02*
X+2432050Y+266700D01*
X+2400300Y+285750D02*
X+2392607Y+293443D01*
X+2311932Y+293443D01*
X+1870753Y+293443D01*
X+2257325Y+654125D02*
X+2243025Y+668425D01*
X+2236675Y+674775D01*
X+2062050Y+928950D02*
X+2043000Y+948000D01*
X+2262075Y+649375D02*
X+2257325Y+654125D01*
X+2038250Y+922600D02*
X+2043000Y+922600D01*
X+2055700Y+922600D01*
X+2068400Y+922600D01*
X+2038250Y+922600D02*
X+2030300Y+922600D01*
X+2236675Y+674775D02*
X+2198357Y+713093D01*
X+2198357Y+792643D01*
X+2084375Y+906625D01*
X+2068400Y+922600D02*
X+2062050Y+928950D01*
X+2068400Y+955750D02*
X+2068400Y+935300D01*
X+2068400Y+922600D01*
X+2084375Y+906625D01*
X+2043000Y+948000D02*
X+2043000Y+973400D01*
X+2055700Y+973400D01*
X+2068400Y+960700D01*
X+2068400Y+955750D01*
X+2068400Y+935300D02*
X+2062050Y+928950D01*
X+2133600Y+1314450D02*
X+2133600Y+1289050D01*
X+2152650Y+1295400D02*
X+2146300Y+1289050D01*
X+2114550Y+1295400D02*
X+2120900Y+1289050D01*
X+2133600Y+1289050D02*
X+2120900Y+1289050D01*
X+1524000Y+2286000D02*
X+1581150Y+2228850D01*
X+2664200Y+1973250D02*
X+2645150Y+1954200D01*
X+2664200Y+1973250D02*
X+2664200Y+1998650D01*
X+2676900Y+1998650D01*
X+2689600Y+1985950D01*
X+2689600Y+1960550D01*
X+2676900Y+1947850D01*
X+2651500Y+1947850D01*
X+2645150Y+1954200D01*
X+2638800Y+1966900D02*
X+2638800Y+1960550D01*
X+2645150Y+1954200D02*
X+2638800Y+1960550D01*
X+2664200Y+1973250D02*
X+2645150Y+1992300D01*
X+2422900Y+1992300D02*
X+2403850Y+1973250D01*
X+2429250Y+1966900D02*
X+2429250Y+1973250D01*
X+2429250Y+1985950D01*
X+2429250Y+1998650D01*
X+2403850Y+1973250D02*
X+2429250Y+1973250D01*
X+2422900Y+1992300D02*
X+2429250Y+1985950D01*
X+2429250Y+1998650D02*
X+2422900Y+1992300D01*
X+2403850Y+1998650D02*
X+2416550Y+1998650D01*
X+2429250Y+1998650D01*
X+2429250Y+1966900D02*
X+2429250Y+1960550D01*
X+2416550Y+1947850D01*
X+2391150Y+1947850D01*
X+2378450Y+1960550D01*
X+2378450Y+1985950D01*
X+2391150Y+1998650D01*
X+2403850Y+1998650D01*
X+2416550Y+1998650D02*
X+2422900Y+1992300D01*
X+2638800Y+1973250D02*
X+2638800Y+1985950D01*
X+2638800Y+1998650D01*
X+2638800Y+1966900D02*
X+2638800Y+1973250D01*
X+2638800Y+1985950D02*
X+2645150Y+1992300D01*
X+2638800Y+1998650D01*
X+2657850Y+1998650D02*
X+2651500Y+1998650D01*
X+2638800Y+1998650D01*
X+2645150Y+1992300D02*
X+2651500Y+1998650D01*
X+2657850Y+1998650D02*
X+2676900Y+1998650D01*
X+2438775Y+2008175D02*
X+2466000Y+2035400D01*
X+2602050Y+2035400D01*
X+2638800Y+1998650D02*
X+2602050Y+2035400D01*
X+2438775Y+2008175D02*
X+2429250Y+1998650D01*
X+2343150Y+1390650D02*
X+2324100Y+1409700D01*
X+2209800Y+1524000D02*
X+2216150Y+1530350D01*
X+2216150Y+1549400D01*
X+2190750Y+1568450D02*
X+2190750Y+1543050D01*
X+2324100Y+1409700D02*
X+2209800Y+1524000D01*
X+2190750Y+1543050D01*
X+2355850Y+1416050D02*
X+2368550Y+1403350D01*
X+2324100Y+1409700D02*
X+2330450Y+1416050D01*
X+2355850Y+1416050D01*
X+2368550Y+1403350D02*
X+2368550Y+1384300D01*
X+2190750Y+1543050D02*
X+2216150Y+1543050D01*
X+2216150Y+1555750D01*
X+2324100Y+1371600D02*
X+2317750Y+1377950D01*
X+2343150Y+1390650D02*
X+2368550Y+1390650D01*
X+2368550Y+1377950D01*
X+2355850Y+1365250D01*
X+2330450Y+1365250D01*
X+2324100Y+1371600D01*
X+2317750Y+1377950D02*
X+2317750Y+1403350D01*
X+2324100Y+1409700D01*
X+2178050Y+1517650D02*
X+2203450Y+1517650D01*
X+2209800Y+1524000D01*
X+2005311Y+1128800D02*
X+2024361Y+1147850D01*
X+2499100Y+1947850D02*
X+2499100Y+1973250D01*
X+2524500Y+1960550D02*
X+2511800Y+1947850D01*
X+2499100Y+1935150D01*
X+2499100Y+1947850D01*
X+2499100Y+1973250D02*
X+2499100Y+1998650D01*
X+2511800Y+1998650D01*
X+2524500Y+1985950D01*
X+2524500Y+1960550D01*
X+2511800Y+1947850D02*
X+2499100Y+1947850D01*
X+2477475Y+1956775D02*
X+2486400Y+1947850D01*
X+2499100Y+1935150D01*
X+2499100Y+1947850D02*
X+2486400Y+1947850D01*
X+2477475Y+1956775D02*
X+2473700Y+1960550D01*
X+2473700Y+1985950D01*
X+2486400Y+1998650D01*
X+2511800Y+1998650D01*
X+2030711Y+1130300D02*
X+2030711Y+1141500D01*
X+2024361Y+1147850D02*
X+2030711Y+1141500D01*
X+2030711Y+1130300D02*
X+2030711Y+1116100D01*
X+2018011Y+1103400D01*
X+1992611Y+1103400D01*
X+1979911Y+1116100D01*
X+1979911Y+1122450D01*
X+2005311Y+1154200D02*
X+2011661Y+1154200D01*
X+2018011Y+1154200D01*
X+2030711Y+1154200D01*
X+2030712Y+1154200D01*
X+2044806Y+1168294D01*
X+2018011Y+1154200D02*
X+2024361Y+1147850D01*
X+2030712Y+1154200D01*
X+2030711Y+1154200D02*
X+2044806Y+1168294D01*
X+2030711Y+1141500D02*
X+2030712Y+1154200D01*
X+2030711Y+1154200D02*
X+2030711Y+1154199D01*
X+2044806Y+1168294D01*
X+2051156Y+1174644D01*
X+2165350Y+1555750D02*
X+2165350Y+1543050D01*
X+1581150Y+2228850D02*
X+1565275Y+2212975D01*
X+2190750Y+1568450D02*
X+2178050Y+1568450D01*
X+2165350Y+1555750D01*
X+2165350Y+1543050D02*
X+2165350Y+1530350D01*
X+1581150Y+2228850D02*
X+1600200Y+2247900D01*
X+407000Y+626800D02*
X+318100Y+626800D01*
X+432400Y+626800D02*
X+407000Y+626800D01*
X+1524000Y+2209800D02*
X+1524000Y+2286000D01*
X+1565275Y+2212975D02*
X+1562100Y+2209800D01*
X+1524000Y+2209800D01*
X+1485900Y+2209800D01*
X+1466850Y+2228850D01*
X+2005311Y+1128800D02*
X+1979911Y+1128800D01*
X+1733366Y+1276534D02*
X+1717675Y+1292225D01*
X+1979911Y+1122450D02*
X+1979911Y+1128800D01*
X+1717675Y+1292225D02*
X+1587500Y+1422400D01*
X+1987656Y+1149244D02*
X+1986262Y+1147850D01*
X+1979911Y+1141499D01*
X+1967212Y+1128800D01*
X+2005311Y+1128800D02*
X+1986262Y+1147850D01*
X+1986261Y+1147850D01*
X+1979911Y+1128800D02*
X+1967212Y+1128800D01*
X+1939499Y+1128800D02*
X+1881100Y+1128800D01*
X+1733366Y+1276534D01*
X+1979911Y+1128800D02*
X+1979911Y+1141499D01*
X+1979911Y+1141500D01*
X+1989330Y+1106680D02*
X+1967210Y+1128800D01*
X+1957136Y+1128800D01*
X+1967212Y+1128800D02*
X+1967210Y+1128800D01*
X+1957136Y+1128800D02*
X+1939499Y+1128800D01*
D13*
X+1613500Y+2011100D02*
X+1524600Y+2011100D01*
D12*
X+1613500Y+2011100D02*
X+1613500Y+2036500D01*
X+1626200Y+2036500D01*
X+1638900Y+2023800D01*
X+1638900Y+1998400D01*
X+1626200Y+1985700D01*
X+1511900Y+1985700D01*
X+1505550Y+1992050D01*
X+1499200Y+1998400D01*
X+1499200Y+2023800D01*
X+1511900Y+2036500D01*
X+1619850Y+2036500D01*
D13*
X+1505550Y+1992050D02*
X+1524600Y+2011100D01*
D12*
X+343500Y+464100D02*
X+178400Y+464100D01*
X+343500Y+464100D02*
X+330800Y+451400D01*
X+191100Y+451400D01*
X+178400Y+464100D01*
X+343500Y+489500D02*
X+318100Y+489500D01*
X+203800Y+489500D02*
X+178400Y+489500D01*
X+203800Y+476800D02*
X+203800Y+489500D01*
X+203800Y+502200D01*
X+318100Y+476800D02*
X+318100Y+489500D01*
X+343500Y+489500D02*
X+343500Y+464100D01*
X+178400Y+464100D02*
X+178400Y+489500D01*
X+318100Y+489500D02*
X+318100Y+502200D01*
X+330800Y+502200D01*
X+337150Y+495850D02*
X+343500Y+489500D01*
D13*
X+235550Y+470450D02*
X+235550Y+476800D01*
X+235550Y+489500D01*
X+235550Y+502200D01*
D12*
X+318100Y+476800D02*
X+235550Y+476800D01*
X+203800Y+476800D01*
X+318100Y+489500D02*
X+235550Y+489500D01*
X+203800Y+489500D01*
X+191100Y+502200D02*
X+203800Y+502200D01*
X+235550Y+502200D01*
X+337150Y+495850D02*
X+330800Y+502200D01*
D13*
X+235550Y+597450D02*
X+235550Y+722050D01*
X+1505550Y+1992050D01*
D12*
X+184750Y+495850D02*
X+191100Y+502200D01*
X+235550Y+546650D01*
X+178400Y+489500D02*
X+184750Y+495850D01*
X+330800Y+502200D02*
X+260950Y+572050D01*
X+235550Y+597450D01*
D13*
X+235550Y+502200D02*
X+235550Y+546650D01*
X+235550Y+597450D01*
D12*
X+311750Y+502200D02*
X+251425Y+562525D01*
X+248250Y+565700D01*
X+311750Y+502200D02*
X+330800Y+502200D01*
X+235550Y+546650D02*
X+251425Y+562525D01*
X+260950Y+572050D01*
X+292700Y+502200D02*
X+248250Y+546650D01*
X+286350Y+502200D02*
X+292700Y+502200D01*
X+311750Y+502200D01*
X+280000Y+502200D02*
X+248250Y+533950D01*
X+235550Y+502200D02*
X+280000Y+502200D01*
X+286350Y+502200D01*
D14*
X+2032000Y+1530350D02*
X+1943100Y+1530350D01*
X+1917700Y+1530350D01*
D12*
X+2057400Y+1543050D02*
X+2032000Y+1543050D01*
X+1917700Y+1543050D01*
X+2032000Y+1530350D02*
X+2032000Y+1543050D01*
X+1917700Y+1530350D02*
X+1917700Y+1543050D01*
X+2057400Y+1517650D02*
X+1917700Y+1517650D01*
X+2057400Y+1543050D02*
X+2057400Y+1517650D01*
X+1917700Y+1517650D02*
X+1917700Y+1530350D01*
X+1924050Y+1511300D02*
X+1917700Y+1517650D01*
X+1905000Y+1530350D01*
D14*
X+1917700Y+1530350D02*
X+1905000Y+1530350D01*
D12*
X+1924050Y+1549400D02*
X+1917700Y+1543050D01*
X+1905000Y+1530350D01*
X+2501982Y+330200D02*
X+1885949Y+330200D01*
X+1644622Y+571527D01*
X+432400Y+626800D02*
X+432400Y+614100D01*
X+432400Y+601400D01*
X+426050Y+607750D02*
X+432400Y+601400D01*
X+426050Y+607750D02*
X+432400Y+614100D01*
X+432400Y+626800D02*
X+432400Y+633150D01*
X+400050Y+601400D02*
X+419700Y+601400D01*
X+432400Y+601400D01*
X+443875Y+589925D01*
X+419700Y+601400D02*
X+426050Y+607750D01*
X+432400Y+614100D02*
X+419700Y+614100D01*
X+296949Y+614100D01*
X+292700Y+618349D01*
X+407000Y+626800D02*
X+419700Y+614100D01*
X+426050Y+607750D01*
X+292700Y+618349D02*
X+292700Y+614100D01*
X+305400Y+601400D01*
X+400050Y+601400D01*
X+292700Y+639500D02*
X+419700Y+639500D01*
X+432400Y+639500D01*
X+407000Y+626800D02*
X+419700Y+639500D01*
X+426050Y+645850D01*
X+432400Y+626800D02*
X+432400Y+639500D01*
X+426050Y+645850D01*
X+292700Y+639500D02*
X+292700Y+618349D01*
X+419700Y+652200D02*
X+432400Y+652200D01*
D14*
X+426050Y+645850D02*
X+432400Y+652200D01*
D12*
X+426050Y+645850D02*
X+419700Y+652200D01*
X+1447800Y+2298700D02*
X+1447800Y+2247900D01*
X+1447800Y+2051050D01*
X+1466850Y+2228850D02*
X+1447800Y+2247900D01*
X+1447800Y+2298700D02*
X+1447800Y+2324100D01*
X+1485900Y+2362200D01*
X+1524000Y+2362200D01*
D13*
X+1466850Y+2228850D02*
X+1466850Y+2070100D01*
X+1447800Y+2051050D01*
D12*
X+323550Y+926800D02*
X+318100Y+926800D01*
X+203800Y+926800D02*
X+203800Y+952200D01*
X+216500Y+952200D01*
X+330800Y+952200D01*
X+339875Y+943125D01*
X+343500Y+939500D01*
X+343500Y+926800D01*
X+323550Y+926800D01*
D13*
X+1447800Y+2051050D02*
X+339875Y+943125D01*
X+323550Y+926800D01*
D12*
X+337150Y+907750D02*
X+343500Y+914100D01*
X+343500Y+926800D02*
X+343500Y+914100D01*
X+1461100Y+2031700D02*
X+1461100Y+2022002D01*
X+1435019Y+1995921D01*
X+340498Y+901400D01*
X+330800Y+901400D01*
X+280000Y+901400D01*
X+343500Y+914100D02*
X+1461100Y+2031700D01*
X+1461100Y+2037682D01*
X+1493034Y+2069616D01*
X+337150Y+907750D02*
X+330800Y+901400D01*
X+280000Y+901400D02*
X+191100Y+901400D01*
X+178400Y+914100D01*
X+178400Y+939500D01*
X+191100Y+952200D01*
X+216500Y+952200D01*
X+1562700Y+2073255D02*
X+1496672Y+2073255D01*
X+350217Y+926800D01*
X+343500Y+926800D01*
X+2191200Y+1504500D02*
X+2178050Y+1517650D01*
X+2165350Y+1530350D01*
X+1675645Y+2020055D01*
X+1675645Y+2039078D01*
X+1641468Y+2073255D01*
X+1641424Y+2073255D01*
X+1614019Y+2073255D01*
X+1591960Y+2073255D01*
X+2317750Y+1377950D02*
X+2191200Y+1504500D01*
X+1562700Y+2073255D02*
X+1591960Y+2073255D01*
X+2254700Y+1517200D02*
X+2216150Y+1555750D01*
X+2209800Y+1562100D01*
X+2206625Y+1565275D01*
X+2203450Y+1568450D01*
X+1600200Y+2247900D02*
X+1600200Y+2281300D01*
X+2254700Y+1517200D02*
X+2355850Y+1416050D01*
X+2203450Y+1568450D02*
X+2190750Y+1568450D01*
X+1524000Y+2286000D02*
X+1524000Y+2362200D01*
X+1562100Y+2362200D01*
X+1600200Y+2324100D01*
X+1600200Y+2281300D01*
X+2165350Y+1606550D02*
X+2165350Y+1555750D01*
X+2184850Y+1587050D02*
X+2165350Y+1606550D01*
X+1600200Y+2171700D01*
X+1600200Y+2178050D01*
X+1600200Y+2244875D01*
X+2203450Y+1568450D02*
X+2184850Y+1587050D01*
X+1600200Y+2244875D02*
X+1600200Y+2247900D01*
X+1949450Y+1250950D02*
X+1949450Y+1263650D01*
X+1949450Y+1276350D01*
X+1924050Y+1250950D02*
X+1949450Y+1250950D01*
X+1943100Y+1270000D02*
X+1949450Y+1263650D01*
X+1949450Y+1250950D02*
X+1949450Y+1244600D01*
X+1917700Y+1276350D02*
X+1930400Y+1276350D01*
X+1936750Y+1276350D01*
X+1949450Y+1276350D01*
X+1949450Y+1250950D02*
X+1949450Y+1238250D01*
X+1936750Y+1225550D01*
X+1911350Y+1225550D01*
X+1898650Y+1238250D01*
X+1898650Y+1263650D01*
X+1911350Y+1276350D01*
X+1917700Y+1276350D01*
X+1936750Y+1276350D02*
X+1943100Y+1270000D01*
X+2127250Y+1376588D02*
X+2105650Y+1376588D01*
X+2044806Y+1168294D02*
X+2071437Y+1194926D01*
X+2071437Y+1342375D01*
X+2105650Y+1376588D01*
X+2172298Y+1365848D02*
X+2246444Y+1291702D01*
X+2386321Y+1291702D01*
X+2499100Y+1404481D01*
X+2127250Y+1376588D02*
X+2161557Y+1376588D01*
X+2172298Y+1365848D01*
X+2499100Y+1404481D02*
X+2499100Y+1935150D01*
X+2892800Y+1973250D02*
X+2873750Y+1992300D01*
X+2899150Y+1998650D02*
X+2880100Y+1998650D01*
X+2867400Y+1998650D01*
X+2892800Y+1973250D02*
X+2918200Y+1973250D01*
X+2918200Y+1985950D01*
X+2905500Y+1998650D01*
X+2899150Y+1998650D01*
X+2880100Y+1998650D02*
X+2873750Y+1992300D01*
X+2867400Y+1998650D01*
X+2867400Y+1979600D02*
X+2867400Y+1985950D01*
X+2867400Y+1998650D01*
X+2873750Y+1992300D02*
X+2867400Y+1985950D01*
X+2867400Y+1979600D02*
X+2867400Y+1960550D01*
X+2880100Y+1947850D01*
X+2905500Y+1947850D01*
X+2918200Y+1960550D01*
X+2918200Y+1979600D01*
X+3093450Y+787650D02*
X+3101100Y+795300D01*
X+3165640Y+859840D01*
X+3165640Y+897940D01*
X+3165640Y+915650D01*
X+3101100Y+808000D02*
X+3101100Y+795300D01*
X+3093450Y+787650D02*
X+3088400Y+782600D01*
X+3063000Y+782600D01*
X+3050300Y+795300D01*
X+3050300Y+820700D01*
X+3056650Y+827050D01*
X+2870200Y+662500D02*
X+2882900Y+662500D01*
X+3092200Y+1499600D02*
X+3094750Y+1497050D01*
X+3101100Y+1490700D01*
X+3165640Y+1426160D01*
X+3165640Y+1388060D01*
X+3165640Y+1366500D01*
X+3088400Y+1503400D02*
X+3092200Y+1499600D01*
X+3165640Y+915650D02*
X+3165640Y+1366500D01*
X+2863850Y+1601450D02*
X+2863850Y+1639550D01*
X+2863850Y+1550650D02*
X+2863850Y+1601450D01*
X+2885095Y+1540145D02*
X+2889250Y+1544300D01*
X+2889250Y+1540145D02*
X+2885095Y+1540145D01*
X+2863850Y+1525250D02*
X+2870200Y+1525250D01*
X+2889250Y+1540145D02*
X+2889250Y+1544300D01*
X+2889250Y+1550650D01*
X+2889250Y+1563350D01*
X+2838450Y+1544300D02*
X+2838450Y+1550650D01*
X+2863850Y+1664950D02*
X+2876550Y+1664950D01*
X+2863850Y+1639550D02*
X+2863850Y+1664950D01*
X+2876550Y+1664950D02*
X+2876550Y+1550650D01*
X+2876550Y+1540145D01*
X+2876550Y+1531600D01*
X+2876550Y+1525250D01*
X+2863850Y+1550650D02*
X+2876550Y+1550650D01*
X+2889250Y+1550650D01*
X+2885095Y+1540145D02*
X+2876550Y+1540145D01*
X+2874355Y+1540145D01*
X+2863850Y+1550650D01*
X+2870200Y+1525250D02*
X+2876550Y+1525250D01*
X+2889250Y+1537950D01*
X+2889250Y+1540145D01*
X+2870200Y+1525250D02*
X+2876550Y+1531600D01*
X+2885095Y+1540145D01*
X+2851150Y+1664950D02*
X+2851150Y+1550650D01*
X+2851150Y+1525250D01*
X+2851150Y+1664950D02*
X+2863850Y+1664950D01*
X+2863850Y+1550650D02*
X+2851150Y+1550650D01*
X+2838450Y+1550650D01*
X+2838450Y+1544300D02*
X+2838450Y+1537950D01*
X+2851150Y+1525250D01*
X+2863850Y+1525250D01*
X+2838450Y+1614150D02*
X+2838450Y+1652250D01*
X+2838450Y+1550650D02*
X+2838450Y+1614150D01*
X+2838450Y+1652250D02*
X+2851150Y+1664950D01*
X+2889250Y+1652250D02*
X+2889250Y+1618624D01*
X+2089150Y+2343150D02*
X+2108200Y+2324100D01*
X+2108200Y+2247900D01*
X+2089150Y+2228850D01*
X+2876550Y+1664950D02*
X+2889250Y+1652250D01*
X+2889250Y+1618624D02*
X+2889250Y+1563350D01*
X+2870200Y+802200D02*
X+2882900Y+789500D01*
X+2928200Y+744200D01*
X+3101981Y+744200D01*
X+2882900Y+789500D02*
X+2882900Y+764100D01*
X+2882900Y+685857D01*
X+3101981Y+744200D02*
X+3202390Y+844609D01*
X+3202390Y+908295D01*
X+3202390Y+1441451D01*
X+3103696Y+1540145D01*
X+2889250Y+1540145D01*
X+2990850Y+662500D02*
X+3020281Y+662500D01*
X+3132366Y+662500D01*
X+3258516Y+788650D01*
X+3258516Y+1517418D01*
X+3232150Y+1543784D01*
X+3209667Y+1566267D01*
X+2882900Y+662500D02*
X+2990850Y+662500D01*
X+2774950Y+2084163D02*
X+2759717Y+2084163D01*
X+2867400Y+1998650D02*
X+2781887Y+2084163D01*
X+2774950Y+2084163D01*
X+2634080Y+2209800D02*
X+2649915Y+2193965D01*
X+2759717Y+2084163D02*
X+2649915Y+2193965D01*
X+2634080Y+2209800D02*
X+2616200Y+2227680D01*
X+2933442Y+1842492D02*
X+3209667Y+1566267D01*
X+2914392Y+1861542D02*
X+2891584Y+1884350D01*
X+2876292Y+1899642D01*
X+2857242Y+1918692D01*
X+2830607Y+1945327D01*
X+2830607Y+1976100D01*
X+2830607Y+1983448D01*
X+2779124Y+2034931D01*
X+2766667Y+2047388D01*
X+2744523Y+2047388D01*
X+2703421Y+2088490D01*
X+2618863Y+2173048D01*
X+2540000Y+2173048D01*
X+2183052Y+2173048D01*
X+2108200Y+2247900D01*
X+2914392Y+1861542D02*
X+2933442Y+1842492D01*
X+2070100Y+2209800D02*
X+2207753Y+2072147D01*
X+2245853Y+2072147D01*
X+2276931Y+2072147D01*
X+2089150Y+2228850D02*
X+2070100Y+2209800D01*
X+1993900Y+2209800D01*
X+1955800Y+2247900D01*
X+1955800Y+2324100D01*
X+1993900Y+2362200D01*
X+2032000Y+2362200D01*
X+2838450Y+1652250D02*
X+2838450Y+1889126D01*
X+2692166Y+2035410D01*
X+2660650Y+2035410D01*
X+2653996Y+2035410D01*
X+2617259Y+2072147D01*
X+2590800Y+2072147D01*
X+2276931Y+2072147D01*
X+2759700Y+302250D02*
X+2762250Y+304800D01*
X+2768600Y+311150D01*
X+2787650Y+330200D01*
X+2806700Y+349250D01*
X+2759700Y+302250D02*
X+2749550Y+292100D01*
X+2813050Y+330200D02*
X+2813050Y+342900D01*
X+2813050Y+355600D01*
X+2806700Y+349250D02*
X+2813050Y+355600D01*
X+2787650Y+355600D02*
X+2800350Y+355600D01*
X+2813050Y+355600D01*
X+2787650Y+330200D02*
X+2787650Y+355600D01*
X+2800350Y+355600D02*
X+2806700Y+349250D01*
X+2762250Y+336550D02*
X+2762250Y+342900D01*
X+2774950Y+355600D01*
X+2787650Y+355600D01*
X+2632700Y+327650D02*
X+2635250Y+330200D01*
X+2654300Y+349250D01*
X+2632700Y+327650D02*
X+2616200Y+311150D01*
X+2660650Y+325100D02*
X+2660650Y+342900D01*
X+2660650Y+355600D01*
X+2654300Y+349250D02*
X+2660650Y+342900D01*
X+2660650Y+325100D02*
X+2660650Y+317500D01*
X+2647950Y+304800D01*
X+2641600Y+304800D01*
X+2654300Y+349250D02*
X+2660650Y+355600D01*
X+2628900Y+355600D02*
X+2635250Y+355600D01*
X+2647950Y+355600D01*
X+2660650Y+355600D01*
X+2673975Y+368925D01*
X+2622550Y+355600D02*
X+2628900Y+355600D01*
X+3382837Y+763250D02*
X+3382837Y+720010D01*
X+3382837Y+597588D01*
X+3382837Y+763250D02*
X+3382837Y+1671344D01*
X+3086100Y+2120900D02*
X+3419593Y+1787407D01*
X+3419593Y+582393D01*
X+3232150Y+394950D01*
X+2852400Y+394950D01*
X+2813050Y+355600D01*
X+2797874Y+392391D02*
X+2837220Y+431737D01*
X+2673975Y+368925D02*
X+2697441Y+392391D01*
X+2789328Y+392391D01*
X+2797874Y+392391D01*
X+3247450Y+462200D02*
X+3260150Y+474900D01*
X+2837220Y+431737D02*
X+2895600Y+431737D01*
X+3216987Y+431737D01*
X+3247450Y+462200D01*
X+3382855Y+642600D02*
X+3382855Y+597606D01*
X+3382855Y+597605D01*
X+3382837Y+597588D02*
X+3382855Y+597605D01*
X+3382855Y+642600D02*
X+3382855Y+741078D01*
X+3368100Y+582850D02*
X+3382855Y+597605D01*
X+3260150Y+474900D02*
X+3368100Y+582850D01*
X+3346100Y+826750D02*
X+3346100Y+760700D01*
X+3346100Y+748000D01*
X+3346100Y+741400D01*
X+3346100Y+735300D01*
X+3346100Y+826750D02*
X+3346100Y+1525300D01*
X+3346100Y+735300D02*
X+3333400Y+722600D01*
X+3308000Y+722600D01*
X+3304350Y+726250D01*
X+2540000Y+330200D02*
X+2520991Y+349209D01*
X+1504950Y+571527D02*
X+1644622Y+571527D01*
X+443875Y+589925D02*
X+462273Y+571527D01*
X+1504950Y+571527D01*
X+0Y+0D02*
X+0Y+76200D01*
X+38100Y+76200D01*
X+76200Y+38100D01*
X+76200Y-38100D01*
X+38100Y-76200D01*
X-38100Y-76200D01*
X-76200Y-38100D01*
X-76200Y+38100D01*
X-38100Y+76200D01*
X+0Y+76200D01*
X+2482850Y+2343150D02*
X+2501900Y+2362200D01*
X+2540000Y+2362200D01*
X+2482850Y+2343150D02*
X+2540000Y+2286000D01*
X+2616200Y+2227680D02*
X+2606090Y+2237790D01*
X+2557880Y+2286000D01*
X+2540000Y+2286000D01*
X+2616200Y+2286000D02*
X+2616200Y+2247900D01*
X+2540000Y+2286000D02*
X+2540000Y+2362200D01*
X+2578100Y+2362200D01*
X+2616200Y+2324100D01*
X+2616200Y+2286000D01*
X+2616200Y+2247900D02*
X+2606090Y+2237790D01*
X+2552700Y+2209800D02*
X+2578100Y+2209800D01*
X+2606090Y+2237790D02*
X+2578100Y+2209800D01*
X+2552700Y+2209800D02*
X+2501900Y+2209800D01*
X+2463800Y+2247900D01*
X+2463800Y+2324100D01*
X+2482850Y+2343150D01*
X+2603500Y+2209800D02*
X+2616200Y+2222500D01*
X+2616200Y+2227680D01*
X+2616200Y+2239724D01*
X+2616200Y+2247900D02*
X+2616200Y+2239724D01*
X+2578100Y+2209800D02*
X+2603500Y+2209800D01*
X+2634080Y+2209800D01*
X+2362216Y+1461716D02*
X+2302250Y+1521682D01*
X+2302250Y+1521683D01*
X+2362216Y+1461716D02*
X+2302250Y+1521683D01*
X+2302250Y+1947850D02*
X+2302250Y+1973250D01*
X+2321300Y+1954200D02*
X+2314950Y+1947850D01*
X+2302250Y+1935150D01*
X+2302250Y+1973250D02*
X+2302250Y+1998650D01*
X+2314950Y+1998650D01*
X+2327650Y+1985950D01*
X+2327650Y+1960550D01*
X+2321300Y+1954200D01*
X+2302250Y+1521683D02*
X+2302250Y+1935150D01*
X+2302250Y+1947850D01*
X+2289550Y+1947850D02*
X+2302250Y+1935150D01*
X+2314950Y+1947850D02*
X+2289550Y+1947850D01*
X+2276850Y+1960550D01*
X+2276850Y+1985950D01*
X+2289550Y+1998650D01*
X+2314950Y+1998650D01*
X+1993900Y+1555750D02*
X+1930400Y+1555750D01*
X+410900Y+652200D02*
X+400050Y+652200D01*
X+365141Y+652200D01*
X+1924050Y+1549400D02*
X+1930400Y+1555750D01*
X+1993900Y+1555750D02*
X+2038350Y+1555750D01*
X+410900Y+652200D02*
X+419700Y+652200D01*
X+365141Y+652200D02*
X+305400Y+652200D01*
X+292700Y+639500D01*
D14*
X+1905000Y+1530350D02*
X+1879600Y+1555750D01*
X+1335950Y+1555750D02*
X+432400Y+652200D01*
D12*
X+1930400Y+1555750D02*
X+1879600Y+1555750D01*
X+1955800Y+1504950D02*
X+1930400Y+1504950D01*
X+1917700Y+1504950D01*
X+1866900Y+1555750D01*
X+2057400Y+1517650D02*
X+2044700Y+1504950D01*
X+1955800Y+1504950D01*
X+1930400Y+1504950D02*
X+1924050Y+1511300D01*
D14*
X+1879600Y+1555750D02*
X+1866900Y+1555750D01*
X+1335950Y+1555750D01*
D12*
X+2051050Y+1549400D02*
X+2044700Y+1555750D01*
X+2032000Y+1568450D01*
X+2032000Y+1543050D02*
X+2032000Y+1555750D01*
X+2044700Y+1555750D01*
X+2051050Y+1549400D02*
X+2057400Y+1543050D01*
X+2032000Y+1568450D02*
X+1327150Y+1568450D01*
X+1314450Y+1555750D01*
X+1295400Y+1536700D01*
X+1335950Y+1555750D02*
X+1314450Y+1555750D01*
X+1295400Y+1536700D02*
X+1136650Y+1377950D01*
X+410900Y+652200D01*
X+2120900Y+1413349D02*
X+2086449Y+1413349D01*
X+2070100Y+1397000D01*
X+2012950Y+1339850D01*
X+2120900Y+1413349D02*
X+2176749Y+1413349D01*
X+2261610Y+1328488D01*
X+2371107Y+1328488D01*
X+2405325Y+1362706D01*
X+2405325Y+1418608D01*
X+2362216Y+1461716D01*
X+1962150Y+1289050D02*
X+1949450Y+1276350D01*
X+1943100Y+1270000D01*
X+1924050Y+1250950D01*
X+2012950Y+1339850D02*
X+1962150Y+1289050D01*
X+2959100Y+2203450D02*
X+2921000Y+2203450D01*
X+2882900Y+2203450D01*
X+2921000Y+2197100D02*
X+2921000Y+2203450D01*
X+2882900Y+2178050D02*
X+2882900Y+2203450D01*
X+2959100Y+2203450D02*
X+2959100Y+2178050D01*
X+2882900Y+2216150D02*
X+2921000Y+2216150D01*
X+2959100Y+2216150D01*
X+2921000Y+2203450D02*
X+2921000Y+2216150D01*
X+2882900Y+2203450D02*
X+2882900Y+2216150D01*
X+2959100Y+2216150D02*
X+2959100Y+2203450D01*
X+2959100Y+2228850D02*
X+2921000Y+2228850D01*
X+2882900Y+2228850D01*
X+2921000Y+2216150D02*
X+2921000Y+2228850D01*
X+2882900Y+2216150D02*
X+2882900Y+2228850D01*
X+2959100Y+2228850D02*
X+2959100Y+2216150D01*
X+2882900Y+2241550D02*
X+2921000Y+2241550D01*
X+2959100Y+2241550D01*
X+2921000Y+2228850D02*
X+2921000Y+2241550D01*
X+2921000Y+2247900D01*
X+2882900Y+2228850D02*
X+2882900Y+2241550D01*
X+2882900Y+2266950D01*
X+2959100Y+2266950D02*
X+2959100Y+2241550D01*
X+2959100Y+2228850D01*
X+3009900Y+2241550D02*
X+3048000Y+2241550D01*
X+3086100Y+2241550D01*
X+3048000Y+2247900D02*
X+3048000Y+2241550D01*
X+3009900Y+2266950D02*
X+3009900Y+2241550D01*
X+3086100Y+2266950D02*
X+3086100Y+2241550D01*
X+3086100Y+2203450D02*
X+3048000Y+2203450D01*
X+3009900Y+2203450D01*
X+3048000Y+2203450D02*
X+3048000Y+2197100D01*
X+3009900Y+2203450D02*
X+3009900Y+2178050D01*
X+3086100Y+2203450D02*
X+3086100Y+2178050D01*
X+3009900Y+2216150D02*
X+3048000Y+2216150D01*
X+3086100Y+2216150D01*
X+3048000Y+2216150D02*
X+3048000Y+2203450D01*
X+3009900Y+2216150D02*
X+3009900Y+2203450D01*
X+3086100Y+2216150D02*
X+3086100Y+2203450D01*
X+3086100Y+2228850D02*
X+3048000Y+2228850D01*
X+3009900Y+2228850D01*
X+3048000Y+2241550D02*
X+3048000Y+2228850D01*
X+3048000Y+2216150D01*
X+3009900Y+2241550D02*
X+3009900Y+2228850D01*
X+3009900Y+2216150D01*
X+3086100Y+2241550D02*
X+3086100Y+2228850D01*
X+3086100Y+2216150D01*
X+1638300Y+1778000D02*
X+1422400Y+1778000D01*
X+1168400Y+1524000D01*
X+914400Y+1270000D01*
X+660400Y+1016000D02*
X+406400Y+762000D01*
X+1422400Y+1270000D02*
X+1422400Y+1400560D01*
X+1533140Y+1511300D01*
X+1727200Y+1511300D01*
X+1866900Y+1371600D01*
X+1168400Y+1016000D02*
X+1514750Y+1016000D01*
X+1676400Y+1016000D01*
X+1514750Y+1016000D02*
X+1422400Y+1108350D01*
X+1422400Y+1270000D01*
X+1843225Y+687525D02*
X+1854200Y+676550D01*
X+2022750Y+508000D01*
X+2438400Y+508000D01*
X+1843225Y+687525D02*
X+1514750Y+1016000D01*
X+1943100Y+228600D02*
X+1917700Y+254000D01*
X+1676400Y+254000D01*
X+1422400Y+254000D01*
X+1168400Y+254000D01*
X+914400Y+254000D01*
X+647700Y+254000D01*
X+2133600Y+1314450D02*
X+2152650Y+1295400D01*
X+2133600Y+1289050D02*
X+2146300Y+1289050D01*
X+2159000Y+1289050D01*
X+2152650Y+1295400D02*
X+2159000Y+1289050D01*
X+2159000Y+1320800D02*
X+2159000Y+1314450D01*
X+2159000Y+1308100D01*
X+2159000Y+1301750D01*
X+2159000Y+1289050D01*
X+2133600Y+1314450D02*
X+2159000Y+1314450D01*
X+2159000Y+1301750D02*
X+2152650Y+1295400D01*
X+2114550Y+1295400D02*
X+2108200Y+1301750D01*
X+2108200Y+1327150D01*
X+2120900Y+1339850D01*
X+2146300Y+1339850D01*
X+2159000Y+1327150D01*
X+2159000Y+1320800D01*
X+2469300Y+918500D02*
X+2243800Y+918500D01*
X+2215300Y+947000D01*
X+2215300Y+1172500D01*
X+2323250Y+1172500D01*
X+2342300Y+1172500D01*
X+2342300Y+1045500D01*
X+2450250Y+1172500D02*
X+2342300Y+1172500D01*
X+2159000Y+1289050D02*
X+2178050Y+1270000D01*
X+2178050Y+927100D01*
X+2223393Y+881757D01*
X+2634357Y+881757D01*
X+2667000Y+914400D01*
X+3320700Y+1538000D02*
X+3320700Y+1563400D01*
X+3320700Y+1657700D01*
X+3200400Y+1778000D01*
X+1117825Y+2050825D02*
X+1099000Y+2032000D01*
X+133800Y+1066800D02*
X+1099000Y+2032000D01*
X+1117825Y+2050825D02*
X+1143000Y+2076000D01*
X+1143000Y+2209800D01*
X+1054100Y+2032000D02*
X+1016000Y+2032000D01*
X+1099000Y+2032000D02*
X+1054100Y+2032000D01*
X+508000Y+2032000D02*
X+254000Y+2032000D01*
X+1016000Y+2032000D02*
X+762000Y+2032000D01*
X+508000Y+2032000D01*
X+254000Y+1524000D02*
X+508000Y+1778000D01*
D15*
X+3075700Y+1478000D03*
X+3320700Y+1538000D03*
X+2806700Y+1241250D03*
X+3075700Y+808000D03*
X+3320700Y+748000D03*
X+2692400Y+779800D03*
X+2857500Y+776800D03*
X+2857500Y+687900D03*
X+2692400Y+939800D03*
X+2959100Y+557200D03*
X+3124200Y+557200D03*
X+3359150Y+163600D03*
X+2374800Y+746200D03*
X+2260500Y+746200D03*
X+2787650Y+330200D03*
X+2635250Y+330200D03*
X+2262075Y+649375D03*
X+2043000Y+948000D03*
X+3177450Y+191850D03*
X+2444750Y+241300D03*
X+1564550Y+509350D03*
X+1562100Y+1447800D03*
X+2005311Y+1128800D03*
X+133800Y+1066800D03*
X+203800Y+926800D03*
X+203800Y+476800D03*
X+318100Y+476800D03*
X+2540000Y+330200D03*
X+318100Y+626800D03*
X+2863850Y+1550650D03*
X+2133600Y+1314450D03*
X+2343150Y+1390650D03*
X+2190750Y+1543050D03*
X+2664200Y+1973250D03*
X+2499100Y+1973250D03*
X+2403850Y+1973250D03*
X+2032000Y+1530350D03*
X+407000Y+626800D03*
X+1524600Y+2011100D03*
X+2892800Y+1973250D03*
X+1613500Y+2011100D03*
X+1943100Y+1530350D03*
X+318100Y+926800D03*
X+2863850Y+1639550D03*
X+2302250Y+1973250D03*
X+2400300Y+1778000D03*
X+1924050Y+1250950D03*
X+2146300Y+1778000D03*
X+1638300Y+1778000D03*
X+914400Y+1270000D03*
X+660400Y+1016000D03*
X+406400Y+762000D03*
X+133800Y+336800D03*
X-76200Y+336800D03*
X-76200Y+1066800D03*
X+1854200Y+676550D03*
X+1866900Y+1371600D03*
X+1422400Y+1270000D03*
X+1168400Y+1016000D03*
X+1676400Y+1016000D03*
X+2438400Y+508000D03*
X+1943100Y+228600D03*
X+1676400Y+254000D03*
X+1422400Y+254000D03*
X+1168400Y+254000D03*
X+914400Y+254000D03*
X+647700Y+254000D03*
X+2946400Y+0D03*
X+2863850Y+1390650D03*
X+2731838Y+1783012D03*
X+2342300Y+1045500D03*
X+3200400Y+1778000D03*
X+2032000Y+2032000D03*
X+1016000Y+2032000D03*
X+254000Y+2032000D03*
X+508000Y+2032000D03*
X+762000Y+2032000D03*
X+254000Y+1524000D03*
X+508000Y+1778000D03*
X+508000Y+1270000D03*
D12*
X+1593850Y+2179300D02*
X+2265421Y+1507729D01*
X+2265421Y+1506427D01*
X+2362200Y+1409649D01*
X+2362200Y+1406623D01*
X+2353408Y+1415415D01*
X+2332892Y+1415415D01*
X+2318385Y+1400908D01*
X+2318385Y+1384915D01*
X+2185015Y+1518285D01*
X+2201008Y+1518285D01*
X+2215515Y+1532792D01*
X+2215515Y+1553308D01*
X+2201008Y+1567815D01*
X+2180492Y+1567815D01*
X+2165985Y+1553308D01*
X+2165985Y+1537315D01*
X+1682750Y+2020550D01*
X+1682750Y+2039600D01*
X+1644650Y+2077700D01*
X+1485900Y+2077700D01*
X+1485900Y+2230100D01*
X+1499254Y+2230100D01*
X+1500379Y+2228975D01*
X+1547621Y+2228975D01*
X+1548746Y+2230100D01*
X+1593850Y+2230100D01*
X+1593850Y+2179300D01*
X+1524000Y+2228975D02*
X+1524000Y+2286000D01*
X+1524000Y+2228975D02*
X+1524000Y+2286000D01*
X+2178050Y+2166600D02*
X+2616200Y+2166600D01*
X+2743200Y+2039600D01*
X+2768600Y+2039600D01*
X+2825750Y+1982450D01*
X+2825750Y+1944350D01*
X+3251200Y+1518900D01*
X+3251200Y+788650D01*
X+3130550Y+668000D01*
X+2882900Y+668000D01*
X+2882900Y+782300D01*
X+2927350Y+737850D01*
X+3105150Y+737850D01*
X+3206750Y+839450D01*
X+3206750Y+1449050D01*
X+3111500Y+1544300D01*
X+2888615Y+1544300D01*
X+2888615Y+1560908D01*
X+2874108Y+1575415D01*
X+2853592Y+1575415D01*
X+2844800Y+1566623D01*
X+2844800Y+1623577D01*
X+2853592Y+1614785D01*
X+2874108Y+1614785D01*
X+2888615Y+1629292D01*
X+2888615Y+1649808D01*
X+2874108Y+1664315D01*
X+2853592Y+1664315D01*
X+2844800Y+1655523D01*
X+2844800Y+1893550D01*
X+2698750Y+2039600D01*
X+2660650Y+2039600D01*
X+2622550Y+2077700D01*
X+2209800Y+2077700D01*
X+2063750Y+2223750D01*
X+2063750Y+2230100D01*
X+2089150Y+2255500D01*
X+2178050Y+2166600D01*
X+3449391Y+2407706D02*
X+3467995Y+2402073D01*
X+3484618Y+2393183D01*
X+3498986Y+2381386D01*
X+3510783Y+2367018D01*
X+3519673Y+2350395D01*
X+3525306Y+2331791D01*
X+3527425Y+2310020D01*
X+3527425Y-24020D01*
X+3525306Y-45791D01*
X+3519673Y-64395D01*
X+3510783Y-81018D01*
X+3498986Y-95386D01*
X+3484618Y-107183D01*
X+3467995Y-116073D01*
X+3449391Y-121706D01*
X+3427620Y-123825D01*
X-24020Y-123825D01*
X-45791Y-121706D01*
X-64395Y-116073D01*
X-81018Y-107183D01*
X-95386Y-95386D01*
X-107183Y-81018D01*
X-116073Y-64395D01*
X-121706Y-45791D01*
X-123825Y-24020D01*
X-123825Y+1435965D01*
X+3175Y+1562965D01*
X+3175Y+2310020D01*
X+5294Y+2331791D01*
X+10927Y+2350395D01*
X+19817Y+2367018D01*
X+31614Y+2381386D01*
X+45982Y+2393183D01*
X+62604Y+2402073D01*
X+81208Y+2407706D01*
X+102980Y+2409825D01*
X+3427620Y+2409825D01*
X+3449391Y+2407706D01*
X+3434837Y+66072D02*
X+3466446Y+59476D01*
X+3501623Y+33144D01*
X+3522903Y-25400D01*
X+3501623Y-83944D01*
X+3466446Y-110276D01*
X+3429000Y-118090D01*
X+3391554Y-110276D01*
X+3356377Y-83944D01*
X+3335097Y-25400D01*
X+3356377Y+33144D01*
X+3391554Y+59476D01*
X+3429000Y+67290D01*
X+3434837Y+66072D01*
X+3434837Y+2402872D02*
X+3466446Y+2396276D01*
X+3501623Y+2369944D01*
X+3522903Y+2311400D01*
X+3501623Y+2252856D01*
X+3466446Y+2226524D01*
X+3429000Y+2218710D01*
X+3391554Y+2226524D01*
X+3356377Y+2252856D01*
X+3335097Y+2311400D01*
X+3356377Y+2369944D01*
X+3391554Y+2396276D01*
X+3429000Y+2404090D01*
X+3434837Y+2402872D01*
X-19563Y+1437672D02*
X+12046Y+1431076D01*
X+47223Y+1404744D01*
X+68503Y+1346200D01*
X+47223Y+1287656D01*
X+12046Y+1261324D01*
X-25400Y+1253510D01*
X-62846Y+1261324D01*
X-98023Y+1287656D01*
X-119303Y+1346200D01*
X-98023Y+1404744D01*
X-62846Y+1431076D01*
X-25400Y+1438890D01*
X-19563Y+1437672D01*
X+35802Y+624502D02*
X+35802Y+624503D01*
X+65034Y+617114D01*
X+94977Y+586295D01*
X+103169Y+551800D01*
X+94977Y+517305D01*
X+65034Y+486486D01*
X+28800Y+477328D01*
X+21798Y+479097D01*
X-7434Y+486486D01*
X-37377Y+517305D01*
X-45569Y+551800D01*
X-37377Y+586295D01*
X-7434Y+617114D01*
X+28800Y+626272D01*
X+35802Y+624502D01*
X+35802Y+924502D02*
X+35802Y+924503D01*
X+65034Y+917114D01*
X+94977Y+886295D01*
X+103169Y+851800D01*
X+94977Y+817305D01*
X+65034Y+786486D01*
X+28800Y+777328D01*
X+21798Y+779097D01*
X-7434Y+786486D01*
X-37377Y+817305D01*
X-45569Y+851800D01*
X-37377Y+886295D01*
X-7434Y+917114D01*
X+28800Y+926272D01*
X+35802Y+924502D01*
X+2604142Y+2388242D02*
X+2653029Y+2339355D01*
X+2653029Y+2242935D01*
X+2719071Y+2176893D01*
X+2719071Y+2193305D01*
X+2738741Y+2212975D01*
X+2738020Y+2213696D01*
X+2721696Y+2213696D01*
X+2721696Y+2230020D01*
X+2719071Y+2232645D01*
X+2719071Y+2339355D01*
X+2721696Y+2341980D01*
X+2721696Y+2358304D01*
X+2738020Y+2358304D01*
X+2740645Y+2360929D01*
X+2847355Y+2360929D01*
X+2849980Y+2358304D01*
X+2866304Y+2358304D01*
X+2866304Y+2341980D01*
X+2867025Y+2341259D01*
X+2886695Y+2360929D01*
X+2955305Y+2360929D01*
X+2984500Y+2331734D01*
X+3013695Y+2360929D01*
X+3082305Y+2360929D01*
X+3122929Y+2320305D01*
X+3122929Y+2216163D01*
X+3140695Y+2233929D01*
X+3209305Y+2233929D01*
X+3249929Y+2193305D01*
X+3249929Y+2124695D01*
X+3209305Y+2084071D01*
X+3175013Y+2084071D01*
X+3456422Y+1802662D01*
X+3456422Y+567138D01*
X+3247405Y+358121D01*
X+2867655Y+358121D01*
X+2849879Y+340345D01*
X+2849879Y+302245D01*
X+2815605Y+267971D01*
X+2777505Y+267971D01*
X+2740716Y+231182D01*
X+2640281Y+231182D01*
X+2522128Y+113029D01*
X+2593355Y+113029D01*
X+2653029Y+53355D01*
X+2653029Y-53355D01*
X+2593355Y-113029D01*
X+2486645Y-113029D01*
X+2426971Y-53355D01*
X+2426971Y+53355D01*
X+2449725Y+76109D01*
X+2414193Y+76109D01*
X+2399029Y+60945D01*
X+2399029Y-53355D01*
X+2339355Y-113029D01*
X+2232645Y-113029D01*
X+2172971Y-53355D01*
X+2172971Y+53355D01*
X+2195765Y+76149D01*
X+2160233Y+76149D01*
X+2145029Y+60945D01*
X+2145029Y-53355D01*
X+2085355Y-113029D01*
X+1978645Y-113029D01*
X+1918971Y-53355D01*
X+1918971Y+53355D01*
X+1978645Y+113029D01*
X+2092945Y+113029D01*
X+2129723Y+149807D01*
X+2331723Y+149807D01*
X+2368431Y+186515D01*
X+2409351Y+186515D01*
X+2382521Y+213345D01*
X+2382521Y+251445D01*
X+2377352Y+256614D01*
X+1855498Y+256614D01*
X+1639591Y+472521D01*
X+1617905Y+472521D01*
X+1592505Y+447121D01*
X+1536595Y+447121D01*
X+1502321Y+481395D01*
X+1502321Y+534698D01*
X+447018Y+534698D01*
X+417145Y+564571D01*
X+320513Y+564571D01*
X+380329Y+504755D01*
X+380329Y+448845D01*
X+346055Y+414571D01*
X+175845Y+414571D01*
X+141571Y+448845D01*
X+141571Y+504755D01*
X+182846Y+546030D01*
X+182846Y+743880D01*
X+303537Y+864571D01*
X+175845Y+864571D01*
X+141571Y+898845D01*
X+141571Y+954755D01*
X+175845Y+989029D01*
X+311245Y+989029D01*
X+1410971Y+2088755D01*
X+1410971Y+2339355D01*
X+1470645Y+2399029D01*
X+1577355Y+2399029D01*
X+1637029Y+2339355D01*
X+1637029Y+2188205D01*
X+2265421Y+1559813D01*
X+2265421Y+1919895D01*
X+2240021Y+1945295D01*
X+2240021Y+2001205D01*
X+2274134Y+2035318D01*
X+2192498Y+2035318D01*
X+2054845Y+2172971D01*
X+1978645Y+2172971D01*
X+1918971Y+2232645D01*
X+1918971Y+2339355D01*
X+1978645Y+2399029D01*
X+2085355Y+2399029D01*
X+2145029Y+2339355D01*
X+2145029Y+2263155D01*
X+2198307Y+2209877D01*
X+2449739Y+2209877D01*
X+2426971Y+2232645D01*
X+2426971Y+2339355D01*
X+2486645Y+2399029D01*
X+2593355Y+2399029D01*
X+2604142Y+2388242D01*
X+2343025Y+2309621D02*
X+2343025Y+2262379D01*
X+2309621Y+2228975D01*
X+2262379Y+2228975D01*
X+2228975Y+2262379D01*
X+2228975Y+2309621D01*
X+2262379Y+2343025D01*
X+2309621Y+2343025D01*
X+2343025Y+2309621D01*
X+1835025Y+2309621D02*
X+1835025Y+2262379D01*
X+1801621Y+2228975D01*
X+1754379Y+2228975D01*
X+1720975Y+2262379D01*
X+1720975Y+2309621D01*
X+1754379Y+2343025D01*
X+1801621Y+2343025D01*
X+1835025Y+2309621D01*
X+1200025Y+2309621D02*
X+1200025Y+2262379D01*
X+1166621Y+2228975D01*
X+1119379Y+2228975D01*
X+1085975Y+2262379D01*
X+1085975Y+2309621D01*
X+1119379Y+2343025D01*
X+1166621Y+2343025D01*
X+1200025Y+2309621D01*
X+953142Y+2388242D02*
X+1002029Y+2339355D01*
X+1002029Y+2232645D01*
X+942355Y+2172971D01*
X+835645Y+2172971D01*
X+775971Y+2232645D01*
X+775971Y+2339355D01*
X+835645Y+2399029D01*
X+942355Y+2399029D01*
X+953142Y+2388242D01*
X+699142Y+2388242D02*
X+748029Y+2339355D01*
X+748029Y+2232645D01*
X+688355Y+2172971D01*
X+581645Y+2172971D01*
X+521971Y+2232645D01*
X+521971Y+2339355D01*
X+581645Y+2399029D01*
X+688355Y+2399029D01*
X+699142Y+2388242D01*
X+445142Y+2388242D02*
X+494029Y+2339355D01*
X+494029Y+2232645D01*
X+434355Y+2172971D01*
X+327645Y+2172971D01*
X+267971Y+2232645D01*
X+267971Y+2339355D01*
X+327645Y+2399029D01*
X+434355Y+2399029D01*
X+445142Y+2388242D01*
X+191142Y+2388242D02*
X+240029Y+2339355D01*
X+240029Y+2232645D01*
X+180355Y+2172971D01*
X+73645Y+2172971D01*
X+13971Y+2232645D01*
X+13971Y+2339355D01*
X+73645Y+2399029D01*
X+180355Y+2399029D01*
X+191142Y+2388242D01*
X+64142Y+102242D02*
X+113029Y+53355D01*
X+113029Y-53355D01*
X+53355Y-113029D01*
X-53355Y-113029D01*
X-113029Y-53355D01*
X-113029Y+53355D01*
X-53355Y+113029D01*
X+53355Y+113029D01*
X+64142Y+102242D01*
X+318142Y+102242D02*
X+367029Y+53355D01*
X+367029Y-53355D01*
X+307355Y-113029D01*
X+200645Y-113029D01*
X+140971Y-53355D01*
X+140971Y+53355D01*
X+200645Y+113029D01*
X+307355Y+113029D01*
X+318142Y+102242D01*
X+572142Y+102242D02*
X+621029Y+53355D01*
X+621029Y-53355D01*
X+561355Y-113029D01*
X+454645Y-113029D01*
X+394971Y-53355D01*
X+394971Y+53355D01*
X+454645Y+113029D01*
X+561355Y+113029D01*
X+572142Y+102242D01*
X+826142Y+102242D02*
X+875029Y+53355D01*
X+875029Y-53355D01*
X+815355Y-113029D01*
X+708645Y-113029D01*
X+648971Y-53355D01*
X+648971Y+53355D01*
X+708645Y+113029D01*
X+815355Y+113029D01*
X+826142Y+102242D01*
X+1080142Y+102242D02*
X+1129029Y+53355D01*
X+1129029Y-53355D01*
X+1069355Y-113029D01*
X+962645Y-113029D01*
X+902971Y-53355D01*
X+902971Y+53355D01*
X+962645Y+113029D01*
X+1069355Y+113029D01*
X+1080142Y+102242D01*
X+1334142Y+102242D02*
X+1383029Y+53355D01*
X+1383029Y-53355D01*
X+1323355Y-113029D01*
X+1216645Y-113029D01*
X+1156971Y-53355D01*
X+1156971Y+53355D01*
X+1216645Y+113029D01*
X+1323355Y+113029D01*
X+1334142Y+102242D01*
X+1588142Y+102242D02*
X+1637029Y+53355D01*
X+1637029Y-53355D01*
X+1577355Y-113029D01*
X+1470645Y-113029D01*
X+1410971Y-53355D01*
X+1410971Y+53355D01*
X+1470645Y+113029D01*
X+1577355Y+113029D01*
X+1588142Y+102242D01*
X+1842142Y+102242D02*
X+1891029Y+53355D01*
X+1891029Y-53355D01*
X+1831355Y-113029D01*
X+1724645Y-113029D01*
X+1664971Y-53355D01*
X+1664971Y+53355D01*
X+1724645Y+113029D01*
X+1831355Y+113029D01*
X+1842142Y+102242D01*
X+2858142Y+102242D02*
X+2907029Y+53355D01*
X+2907029Y-53355D01*
X+2847355Y-113029D01*
X+2740645Y-113029D01*
X+2680971Y-53355D01*
X+2680971Y+53355D01*
X+2740645Y+113029D01*
X+2847355Y+113029D01*
X+2858142Y+102242D01*
X+3135475Y+2269628D02*
X+3135475Y+2302372D01*
X+3158628Y+2325525D01*
X+3191372Y+2325525D01*
X+3214525Y+2302372D01*
X+3214525Y+2269628D01*
X+3191372Y+2246475D01*
X+3158628Y+2246475D01*
X+3135475Y+2269628D01*
X+3334385Y+153342D02*
X+3334385Y+173858D01*
X+3348892Y+188365D01*
X+3369408Y+188365D01*
X+3383915Y+173858D01*
X+3383915Y+153342D01*
X+3369408Y+138835D01*
X+3348892Y+138835D01*
X+3334385Y+153342D01*
X+3152685Y+181592D02*
X+3152685Y+202108D01*
X+3167192Y+216615D01*
X+3187708Y+216615D01*
X+3202215Y+202108D01*
X+3202215Y+181592D01*
X+3187708Y+167085D01*
X+3167192Y+167085D01*
X+3152685Y+181592D01*
X+109035Y+1056542D02*
X+109035Y+1077058D01*
X+123542Y+1091565D01*
X+144058Y+1091565D01*
X+158565Y+1077058D01*
X+158565Y+1056542D01*
X+144058Y+1042035D01*
X+123542Y+1042035D01*
X+109035Y+1056542D01*
X+2121535Y+1767742D02*
X+2121535Y+1788258D01*
X+2136042Y+1802765D01*
X+2156558Y+1802765D01*
X+2171065Y+1788258D01*
X+2171065Y+1767742D01*
X+2156558Y+1753235D01*
X+2136042Y+1753235D01*
X+2121535Y+1767742D01*
X+109035Y+326542D02*
X+109035Y+347058D01*
X+123542Y+361565D01*
X+144058Y+361565D01*
X+158565Y+347058D01*
X+158565Y+326542D01*
X+144058Y+312035D01*
X+123542Y+312035D01*
X+109035Y+326542D01*
X-100965Y+326542D02*
X-100965Y+347058D01*
X-86458Y+361565D01*
X-65942Y+361565D01*
X-51435Y+347058D01*
X-51435Y+326542D01*
X-65942Y+312035D01*
X-86458Y+312035D01*
X-100965Y+326542D01*
X-100965Y+1056542D02*
X-100965Y+1077058D01*
X-86458Y+1091565D01*
X-65942Y+1091565D01*
X-51435Y+1077058D01*
X-51435Y+1056542D01*
X-65942Y+1042035D01*
X-86458Y+1042035D01*
X-100965Y+1056542D01*
X+1918335Y+218342D02*
X+1918335Y+238858D01*
X+1932842Y+253365D01*
X+1953358Y+253365D01*
X+1967865Y+238858D01*
X+1967865Y+218342D01*
X+1953358Y+203835D01*
X+1932842Y+203835D01*
X+1918335Y+218342D01*
X+1651635Y+243742D02*
X+1651635Y+264258D01*
X+1666142Y+278765D01*
X+1686658Y+278765D01*
X+1701165Y+264258D01*
X+1701165Y+243742D01*
X+1686658Y+229235D01*
X+1666142Y+229235D01*
X+1651635Y+243742D01*
X+1397635Y+243742D02*
X+1397635Y+264258D01*
X+1412142Y+278765D01*
X+1432658Y+278765D01*
X+1447165Y+264258D01*
X+1447165Y+243742D01*
X+1432658Y+229235D01*
X+1412142Y+229235D01*
X+1397635Y+243742D01*
X+1143635Y+243742D02*
X+1143635Y+264258D01*
X+1158142Y+278765D01*
X+1178658Y+278765D01*
X+1193165Y+264258D01*
X+1193165Y+243742D01*
X+1178658Y+229235D01*
X+1158142Y+229235D01*
X+1143635Y+243742D01*
X+889635Y+243742D02*
X+889635Y+264258D01*
X+904142Y+278765D01*
X+924658Y+278765D01*
X+939165Y+264258D01*
X+939165Y+243742D01*
X+924658Y+229235D01*
X+904142Y+229235D01*
X+889635Y+243742D01*
X+622935Y+243742D02*
X+622935Y+264258D01*
X+637442Y+278765D01*
X+657958Y+278765D01*
X+672465Y+264258D01*
X+672465Y+243742D01*
X+657958Y+229235D01*
X+637442Y+229235D01*
X+622935Y+243742D01*
X+2921635Y-10258D02*
X+2921635Y+10258D01*
X+2936142Y+24765D01*
X+2956658Y+24765D01*
X+2971165Y+10258D01*
X+2971165Y-10258D01*
X+2956658Y-24765D01*
X+2936142Y-24765D01*
X+2921635Y-10258D01*
X+2007235Y+2021742D02*
X+2007235Y+2042258D01*
X+2021742Y+2056765D01*
X+2042258Y+2056765D01*
X+2056765Y+2042258D01*
X+2056765Y+2021742D01*
X+2042258Y+2007235D01*
X+2021742Y+2007235D01*
X+2007235Y+2021742D01*
X+991235Y+2021742D02*
X+991235Y+2042258D01*
X+1005742Y+2056765D01*
X+1026258Y+2056765D01*
X+1040765Y+2042258D01*
X+1040765Y+2021742D01*
X+1026258Y+2007235D01*
X+1005742Y+2007235D01*
X+991235Y+2021742D01*
X+229235Y+2021742D02*
X+229235Y+2042258D01*
X+243742Y+2056765D01*
X+264258Y+2056765D01*
X+278765Y+2042258D01*
X+278765Y+2021742D01*
X+264258Y+2007235D01*
X+243742Y+2007235D01*
X+229235Y+2021742D01*
X+483235Y+2021742D02*
X+483235Y+2042258D01*
X+497742Y+2056765D01*
X+518258Y+2056765D01*
X+532765Y+2042258D01*
X+532765Y+2021742D01*
X+518258Y+2007235D01*
X+497742Y+2007235D01*
X+483235Y+2021742D01*
X+737235Y+2021742D02*
X+737235Y+2042258D01*
X+751742Y+2056765D01*
X+772258Y+2056765D01*
X+786765Y+2042258D01*
X+786765Y+2021742D01*
X+772258Y+2007235D01*
X+751742Y+2007235D01*
X+737235Y+2021742D01*
X+229235Y+1513742D02*
X+229235Y+1534258D01*
X+243742Y+1548765D01*
X+264258Y+1548765D01*
X+278765Y+1534258D01*
X+278765Y+1513742D01*
X+264258Y+1499235D01*
X+243742Y+1499235D01*
X+229235Y+1513742D01*
X+483235Y+1767742D02*
X+483235Y+1788258D01*
X+497742Y+1802765D01*
X+518258Y+1802765D01*
X+532765Y+1788258D01*
X+532765Y+1767742D01*
X+518258Y+1753235D01*
X+497742Y+1753235D01*
X+483235Y+1767742D01*
X+483235Y+1259742D02*
X+483235Y+1280258D01*
X+497742Y+1294765D01*
X+518258Y+1294765D01*
X+532765Y+1280258D01*
X+532765Y+1259742D01*
X+518258Y+1245235D01*
X+497742Y+1245235D01*
X+483235Y+1259742D01*
X+2365108Y+1921808D02*
X+2375895Y+1911021D01*
X+2431805Y+1911021D01*
X+2451475Y+1930691D01*
X+2462271Y+1919895D01*
X+2462271Y+1419736D01*
X+2442154Y+1399619D01*
X+2442154Y+1433862D01*
X+2339079Y+1536938D01*
X+2339079Y+1919895D01*
X+2353050Y+1933866D01*
X+2365108Y+1921808D01*
X+2375535Y+1767742D02*
X+2375535Y+1788258D01*
X+2390042Y+1802765D01*
X+2410558Y+1802765D01*
X+2425065Y+1788258D01*
X+2425065Y+1767742D01*
X+2410558Y+1753235D01*
X+2390042Y+1753235D01*
X+2375535Y+1767742D01*
X+2875908Y+2094858D02*
X+2886695Y+2084071D01*
X+2943845Y+2084071D01*
X+2980586Y+2047330D01*
X+3055542Y+2047330D01*
X+3346008Y+1756864D01*
X+3346008Y+612842D01*
X+3201731Y+468565D01*
X+2821965Y+468566D01*
X+2782619Y+429220D01*
X+2682186Y+429220D01*
X+2645395Y+392429D01*
X+2607295Y+392429D01*
X+2587666Y+372800D01*
X+2568037Y+392429D01*
X+2512127Y+392429D01*
X+2486727Y+367029D01*
X+1901204Y+367029D01*
X+1659877Y+608356D01*
X+477528Y+608356D01*
X+469229Y+616655D01*
X+469229Y+629203D01*
X+1353472Y+1513446D01*
X+1857120Y+1513446D01*
X+1902445Y+1468121D01*
X+2059955Y+1468121D01*
X+2094229Y+1502395D01*
X+2094229Y+1549387D01*
X+2278299Y+1365317D01*
X+2276865Y+1365317D01*
X+2192004Y+1450178D01*
X+2071194Y+1450178D01*
X+1934195Y+1313179D01*
X+1896095Y+1313179D01*
X+1861821Y+1278905D01*
X+1861821Y+1222995D01*
X+1896095Y+1188721D01*
X+1952005Y+1188721D01*
X+1986279Y+1222995D01*
X+1986279Y+1261095D01*
X+2034608Y+1309424D01*
X+2034608Y+1210180D01*
X+2015456Y+1191029D01*
X+1977356Y+1191029D01*
X+1951956Y+1165629D01*
X+1896355Y+1165629D01*
X+1624329Y+1437655D01*
X+1624329Y+1475755D01*
X+1590055Y+1510029D01*
X+1534145Y+1510029D01*
X+1499871Y+1475755D01*
X+1499871Y+1419845D01*
X+1534145Y+1385571D01*
X+1572245Y+1385571D01*
X+1865845Y+1091971D01*
X+1951955Y+1091971D01*
X+1977356Y+1066571D01*
X+2033266Y+1066571D01*
X+2067540Y+1100845D01*
X+2067540Y+1138944D01*
X+2087985Y+1159389D01*
X+2108266Y+1179672D01*
X+2108266Y+1252221D01*
X+2141221Y+1252221D01*
X+2141221Y+911845D01*
X+2208138Y+844928D01*
X+2649612Y+844928D01*
X+2682255Y+877571D01*
X+2720355Y+877571D01*
X+2754629Y+911845D01*
X+2754629Y+967755D01*
X+2720355Y+1002029D01*
X+2664445Y+1002029D01*
X+2630171Y+967755D01*
X+2630171Y+929655D01*
X+2619102Y+918586D01*
X+2238648Y+918586D01*
X+2214879Y+942355D01*
X+2214879Y+1271183D01*
X+2231189Y+1254873D01*
X+2401576Y+1254873D01*
X+2535929Y+1389226D01*
X+2535929Y+1919895D01*
X+2561329Y+1945295D01*
X+2561329Y+1998571D01*
X+2586795Y+1998571D01*
X+2601971Y+1983395D01*
X+2601971Y+1945295D01*
X+2636245Y+1911021D01*
X+2692155Y+1911021D01*
X+2726429Y+1945295D01*
X+2726429Y+1949063D01*
X+2801621Y+1873871D01*
X+2801621Y+1522695D01*
X+2835895Y+1488421D01*
X+2891805Y+1488421D01*
X+2906700Y+1503316D01*
X+3088441Y+1503316D01*
X+3165561Y+1426196D01*
X+3165561Y+859864D01*
X+3086726Y+781029D01*
X+2943455Y+781029D01*
X+2885455Y+839029D01*
X+2829545Y+839029D01*
X+2795271Y+804755D01*
X+2795271Y+662537D01*
X+2510547Y+662537D01*
X+2437029Y+736055D01*
X+2437029Y+774155D01*
X+2402755Y+808429D01*
X+2346845Y+808429D01*
X+2317650Y+779234D01*
X+2288455Y+808429D01*
X+2234655Y+808429D01*
X+2105229Y+937855D01*
X+2105229Y+975955D01*
X+2070955Y+1010229D01*
X+2015045Y+1010229D01*
X+1980771Y+975955D01*
X+1980771Y+920045D01*
X+2015045Y+885771D01*
X+2053145Y+885771D01*
X+2161528Y+777388D01*
X+2161528Y+697838D01*
X+2199846Y+659520D01*
X+2199846Y+621420D01*
X+2234120Y+587146D01*
X+2290030Y+587146D01*
X+2324304Y+621420D01*
X+2324304Y+647226D01*
X+2369719Y+647226D01*
X+2401402Y+615543D01*
X+2401402Y+615518D01*
X+2464799Y+552121D01*
X+2826445Y+552121D01*
X+2858195Y+520371D01*
X+2905745Y+520371D01*
X+2931145Y+494971D01*
X+2987055Y+494971D01*
X+3021329Y+529245D01*
X+3021329Y+585155D01*
X+3017605Y+588879D01*
X+3040437Y+588879D01*
X+3061971Y+567345D01*
X+3061971Y+529245D01*
X+3096245Y+494971D01*
X+3152155Y+494971D01*
X+3186429Y+529245D01*
X+3186429Y+585155D01*
X+3152155Y+619429D01*
X+3114055Y+619429D01*
X+3107813Y+625671D01*
X+3147621Y+625671D01*
X+3295345Y+773395D01*
X+3295345Y+1532673D01*
X+2916997Y+1911021D01*
X+2920755Y+1911021D01*
X+2955029Y+1945295D01*
X+2955029Y+2001205D01*
X+2920755Y+2035479D01*
X+2882655Y+2035479D01*
X+2831184Y+2086950D01*
X+2857500Y+2113266D01*
X+2875908Y+2094858D01*
X+3131890Y+994605D02*
X+3143160Y+990988D01*
X+3164275Y+949912D01*
X+3164275Y+936088D01*
X+3143160Y+895012D01*
X+3105700Y+882990D01*
X+3068240Y+895012D01*
X+3047125Y+936088D01*
X+3047125Y+949912D01*
X+3068240Y+990988D01*
X+3105700Y+1003010D01*
X+3131890Y+994605D01*
X+3131890Y+1394605D02*
X+3143160Y+1390988D01*
X+3164275Y+1349912D01*
X+3164275Y+1336088D01*
X+3143160Y+1295012D01*
X+3105700Y+1282990D01*
X+3068240Y+1295012D01*
X+3047125Y+1336088D01*
X+3047125Y+1349912D01*
X+3068240Y+1390988D01*
X+3105700Y+1403010D01*
X+3131890Y+1394605D01*
X+3050935Y+1467742D02*
X+3050935Y+1488258D01*
X+3065442Y+1502765D01*
X+3085958Y+1502765D01*
X+3100465Y+1488258D01*
X+3100465Y+1467742D01*
X+3085958Y+1453235D01*
X+3065442Y+1453235D01*
X+3050935Y+1467742D01*
X+3295935Y+1527742D02*
X+3295935Y+1548258D01*
X+3310442Y+1562765D01*
X+3330958Y+1562765D01*
X+3345465Y+1548258D01*
X+3345465Y+1527742D01*
X+3330958Y+1513235D01*
X+3310442Y+1513235D01*
X+3295935Y+1527742D01*
X+2781935Y+1230992D02*
X+2781935Y+1251508D01*
X+2796442Y+1266015D01*
X+2816958Y+1266015D01*
X+2831465Y+1251508D01*
X+2831465Y+1230992D01*
X+2816958Y+1216485D01*
X+2796442Y+1216485D01*
X+2781935Y+1230992D01*
X+3050935Y+797742D02*
X+3050935Y+818258D01*
X+3065442Y+832765D01*
X+3085958Y+832765D01*
X+3100465Y+818258D01*
X+3100465Y+797742D01*
X+3085958Y+783235D01*
X+3065442Y+783235D01*
X+3050935Y+797742D01*
X+3295935Y+737742D02*
X+3295935Y+758258D01*
X+3310442Y+772765D01*
X+3330958Y+772765D01*
X+3345465Y+758258D01*
X+3345465Y+737742D01*
X+3330958Y+723235D01*
X+3310442Y+723235D01*
X+3295935Y+737742D01*
X+2667635Y+769542D02*
X+2667635Y+790058D01*
X+2682142Y+804565D01*
X+2702658Y+804565D01*
X+2717165Y+790058D01*
X+2717165Y+769542D01*
X+2702658Y+755035D01*
X+2682142Y+755035D01*
X+2667635Y+769542D01*
X+1829435Y+666292D02*
X+1829435Y+686808D01*
X+1843942Y+701315D01*
X+1864458Y+701315D01*
X+1878965Y+686808D01*
X+1878965Y+666292D01*
X+1864458Y+651785D01*
X+1843942Y+651785D01*
X+1829435Y+666292D01*
X+1842135Y+1361342D02*
X+1842135Y+1381858D01*
X+1856642Y+1396365D01*
X+1877158Y+1396365D01*
X+1891665Y+1381858D01*
X+1891665Y+1361342D01*
X+1877158Y+1346835D01*
X+1856642Y+1346835D01*
X+1842135Y+1361342D01*
X+1397635Y+1259742D02*
X+1397635Y+1280258D01*
X+1412142Y+1294765D01*
X+1432658Y+1294765D01*
X+1447165Y+1280258D01*
X+1447165Y+1259742D01*
X+1432658Y+1245235D01*
X+1412142Y+1245235D01*
X+1397635Y+1259742D01*
X+1143635Y+1005742D02*
X+1143635Y+1026258D01*
X+1158142Y+1040765D01*
X+1178658Y+1040765D01*
X+1193165Y+1026258D01*
X+1193165Y+1005742D01*
X+1178658Y+991235D01*
X+1158142Y+991235D01*
X+1143635Y+1005742D01*
X+1651635Y+1005742D02*
X+1651635Y+1026258D01*
X+1666142Y+1040765D01*
X+1686658Y+1040765D01*
X+1701165Y+1026258D01*
X+1701165Y+1005742D01*
X+1686658Y+991235D01*
X+1666142Y+991235D01*
X+1651635Y+1005742D01*
X+2413635Y+497742D02*
X+2413635Y+518258D01*
X+2428142Y+532765D01*
X+2448658Y+532765D01*
X+2463165Y+518258D01*
X+2463165Y+497742D01*
X+2448658Y+483235D01*
X+2428142Y+483235D01*
X+2413635Y+497742D01*
X+2839085Y+1380392D02*
X+2839085Y+1400908D01*
X+2853592Y+1415415D01*
X+2874108Y+1415415D01*
X+2888615Y+1400908D01*
X+2888615Y+1380392D01*
X+2874108Y+1365885D01*
X+2853592Y+1365885D01*
X+2839085Y+1380392D01*
X+2707073Y+1772754D02*
X+2707073Y+1793270D01*
X+2721580Y+1807777D01*
X+2742096Y+1807777D01*
X+2756603Y+1793270D01*
X+2756603Y+1772754D01*
X+2742096Y+1758247D01*
X+2721580Y+1758247D01*
X+2707073Y+1772754D01*
X+2317535Y+1035242D02*
X+2317535Y+1055758D01*
X+2332042Y+1070265D01*
X+2352558Y+1070265D01*
X+2367065Y+1055758D01*
X+2367065Y+1035242D01*
X+2352558Y+1020735D01*
X+2332042Y+1020735D01*
X+2317535Y+1035242D01*
X+3175635Y+1767742D02*
X+3175635Y+1788258D01*
X+3190142Y+1802765D01*
X+3210658Y+1802765D01*
X+3225165Y+1788258D01*
X+3225165Y+1767742D01*
X+3210658Y+1753235D01*
X+3190142Y+1753235D01*
X+3175635Y+1767742D01*
X+2038337Y+1605279D02*
X+1311895Y+1605279D01*
X+395645Y+689029D01*
X+290145Y+689029D01*
X+288254Y+687138D01*
X+288254Y+700220D01*
X+1536905Y+1948871D01*
X+1641455Y+1948871D01*
X+1668100Y+1975516D01*
X+2038337Y+1605279D01*
X+1613535Y+1767742D02*
X+1613535Y+1788258D01*
X+1628042Y+1802765D01*
X+1648558Y+1802765D01*
X+1663065Y+1788258D01*
X+1663065Y+1767742D01*
X+1648558Y+1753235D01*
X+1628042Y+1753235D01*
X+1613535Y+1767742D01*
X+889635Y+1259742D02*
X+889635Y+1280258D01*
X+904142Y+1294765D01*
X+924658Y+1294765D01*
X+939165Y+1280258D01*
X+939165Y+1259742D01*
X+924658Y+1245235D01*
X+904142Y+1245235D01*
X+889635Y+1259742D01*
X+635635Y+1005742D02*
X+635635Y+1026258D01*
X+650142Y+1040765D01*
X+670658Y+1040765D01*
X+685165Y+1026258D01*
X+685165Y+1005742D01*
X+670658Y+991235D01*
X+650142Y+991235D01*
X+635635Y+1005742D01*
X+381635Y+751742D02*
X+381635Y+772258D01*
X+396142Y+786765D01*
X+416658Y+786765D01*
X+431165Y+772258D01*
X+431165Y+751742D01*
X+416658Y+737235D01*
X+396142Y+737235D01*
X+381635Y+751742D01*
X+2228975Y+2286000D02*
X+2286000Y+2286000D01*
X+2343025Y+2286000D02*
X+2286000Y+2286000D01*
X+2286000Y+2228975D02*
X+2286000Y+2286000D01*
X+2286000Y+2343025D02*
X+2286000Y+2286000D01*
X+1720975Y+2286000D02*
X+1778000Y+2286000D01*
X+1835025Y+2286000D02*
X+1778000Y+2286000D01*
X+1778000Y+2228975D02*
X+1778000Y+2286000D01*
X+1778000Y+2343025D02*
X+1778000Y+2286000D01*
X+1085975Y+2286000D02*
X+1143000Y+2286000D01*
X+1200025Y+2286000D02*
X+1143000Y+2286000D01*
X+1143000Y+2228975D02*
X+1143000Y+2286000D01*
X+1143000Y+2343025D02*
X+1143000Y+2286000D01*
X+2228975Y+2286000D02*
X+2286000Y+2286000D01*
X+2343025Y+2286000D02*
X+2286000Y+2286000D01*
X+2286000Y+2228975D02*
X+2286000Y+2286000D01*
X+2286000Y+2343025D02*
X+2286000Y+2286000D01*
X+1720975Y+2286000D02*
X+1778000Y+2286000D01*
X+1835025Y+2286000D02*
X+1778000Y+2286000D01*
X+1778000Y+2228975D02*
X+1778000Y+2286000D01*
X+1778000Y+2343025D02*
X+1778000Y+2286000D01*
X+1085975Y+2286000D02*
X+1143000Y+2286000D01*
X+1200025Y+2286000D02*
X+1143000Y+2286000D01*
X+1143000Y+2228975D02*
X+1143000Y+2286000D01*
X+1143000Y+2343025D02*
X+1143000Y+2286000D01*
X+3135475Y+2286000D02*
X+3175000Y+2286000D01*
X+3214525Y+2286000D02*
X+3175000Y+2286000D01*
X+3175000Y+2246475D02*
X+3175000Y+2286000D01*
X+3175000Y+2325525D02*
X+3175000Y+2286000D01*
D16*
X+2540000Y+2286000D03*
X+2286000Y+2286000D03*
X+2032000Y+2286000D03*
X+1778000Y+2286000D03*
X+1524000Y+2286000D03*
X+1143000Y+2286000D03*
X+889000Y+2286000D03*
X+635000Y+2286000D03*
X+381000Y+2286000D03*
X+127000Y+2286000D03*
X+0Y+0D03*
X+254000Y+0D03*
X+508000Y+0D03*
X+762000Y+0D03*
X+1016000Y+0D03*
X+1270000Y+0D03*
X+1524000Y+0D03*
X+1778000Y+0D03*
X+2032000Y+0D03*
X+2286000Y+0D03*
X+2540000Y+0D03*
X+2794000Y+0D03*
X+2540000Y+2286000D03*
X+2286000Y+2286000D03*
X+2032000Y+2286000D03*
X+1778000Y+2286000D03*
X+1524000Y+2286000D03*
X+1143000Y+2286000D03*
X+889000Y+2286000D03*
X+635000Y+2286000D03*
X+381000Y+2286000D03*
X+127000Y+2286000D03*
X+0Y+0D03*
X+254000Y+0D03*
X+508000Y+0D03*
X+762000Y+0D03*
X+1016000Y+0D03*
X+1270000Y+0D03*
X+1524000Y+0D03*
X+1778000Y+0D03*
X+2032000Y+0D03*
X+2286000Y+0D03*
X+2540000Y+0D03*
X+2794000Y+0D03*
D25*
X+2794000Y+2286000D03*
D26*
X+2794000Y+2159000D03*
X+2921000Y+2286000D03*
X+2921000Y+2159000D03*
X+3048000Y+2286000D03*
X+3048000Y+2159000D03*
X+3175000Y+2286000D03*
X+3175000Y+2159000D03*
D73*
X-152400Y-25400D02*
X-149873Y-51367D01*
X-142602Y-75381D01*
X-131052Y-96977D01*
X-115689Y-115689D01*
X-96977Y-131052D01*
X-75381Y-142602D01*
X-51367Y-149873D01*
X-25400Y-152400D01*
X+3429000Y-152400D01*
X+3454967Y-149873D01*
X+3478981Y-142602D01*
X+3500577Y-131052D01*
X+3519289Y-115689D01*
X+3534652Y-96977D01*
X+3546202Y-75381D01*
X+3553473Y-51367D01*
X+3556000Y-25400D01*
X+3556000Y+2311400D01*
X+3553473Y+2337367D01*
X+3546202Y+2361381D01*
X+3534652Y+2382977D01*
X+3519289Y+2401689D01*
X+3500577Y+2417052D01*
X+3478981Y+2428602D01*
X+3454967Y+2435873D01*
X+3429000Y+2438400D01*
X+101600Y+2438400D01*
X+75632Y+2435873D01*
X+51618Y+2428602D01*
X+30023Y+2417052D01*
X+11311Y+2401689D01*
X-4052Y+2382977D01*
X-15602Y+2361381D01*
X-22873Y+2337367D01*
X-25400Y+2311400D01*
X-25400Y+1574800D01*
X-152400Y+1447800D01*
X-152400Y-25400D01*
X+3492500Y-25400D02*
X+3492283Y-20153D01*
X+3490518Y-9658D01*
X+3486826Y+837D01*
X+3480798Y+11332D01*
X+3471576Y+21712D01*
X+3461081Y+29400D01*
X+3450586Y+34318D01*
X+3440091Y+37124D01*
X+3429596Y+38097D01*
X+3429000Y+38100D01*
X+3365500Y-25400D02*
X+3365717Y-20153D01*
X+3367482Y-9658D01*
X+3371174Y+837D01*
X+3377202Y+11332D01*
X+3386424Y+21712D01*
X+3396919Y+29400D01*
X+3407414Y+34318D01*
X+3417909Y+37124D01*
X+3428404Y+38097D01*
X+3429000Y+38100D01*
X+3365500Y-25400D02*
X+3365717Y-30647D01*
X+3367482Y-41142D01*
X+3371174Y-51637D01*
X+3377202Y-62132D01*
X+3386424Y-72512D01*
X+3396919Y-80200D01*
X+3407414Y-85118D01*
X+3417909Y-87924D01*
X+3428404Y-88897D01*
X+3429000Y-88900D01*
X+3492500Y-25400D02*
X+3492283Y-30647D01*
X+3490518Y-41142D01*
X+3486826Y-51637D01*
X+3480798Y-62132D01*
X+3471576Y-72512D01*
X+3461081Y-80200D01*
X+3450586Y-85118D01*
X+3440091Y-87924D01*
X+3429596Y-88897D01*
X+3429000Y-88900D01*
X+3492500Y+2311400D02*
X+3492283Y+2316647D01*
X+3490518Y+2327142D01*
X+3486826Y+2337637D01*
X+3480798Y+2348132D01*
X+3471576Y+2358512D01*
X+3461081Y+2366200D01*
X+3450586Y+2371118D01*
X+3440091Y+2373924D01*
X+3429596Y+2374897D01*
X+3429000Y+2374900D01*
X+3365500Y+2311400D02*
X+3365717Y+2316647D01*
X+3367482Y+2327142D01*
X+3371174Y+2337637D01*
X+3377202Y+2348132D01*
X+3386424Y+2358512D01*
X+3396919Y+2366200D01*
X+3407414Y+2371118D01*
X+3417909Y+2373924D01*
X+3428404Y+2374897D01*
X+3429000Y+2374900D01*
X+3365500Y+2311400D02*
X+3365717Y+2306153D01*
X+3367482Y+2295658D01*
X+3371174Y+2285163D01*
X+3377202Y+2274668D01*
X+3386424Y+2264288D01*
X+3396919Y+2256600D01*
X+3407414Y+2251682D01*
X+3417909Y+2248876D01*
X+3428404Y+2247903D01*
X+3429000Y+2247900D01*
X+3492500Y+2311400D02*
X+3492283Y+2306153D01*
X+3490518Y+2295658D01*
X+3486826Y+2285163D01*
X+3480798Y+2274668D01*
X+3471576Y+2264288D01*
X+3461081Y+2256600D01*
X+3450586Y+2251682D01*
X+3440091Y+2248876D01*
X+3429596Y+2247903D01*
X+3429000Y+2247900D01*
X+38100Y+1346200D02*
X+37883Y+1351447D01*
X+36118Y+1361942D01*
X+32426Y+1372437D01*
X+26398Y+1382932D01*
X+17176Y+1393312D01*
X+6681Y+1401000D01*
X-3814Y+1405918D01*
X-14309Y+1408724D01*
X-24804Y+1409697D01*
X-25400Y+1409700D01*
X-88900Y+1346200D02*
X-88683Y+1351447D01*
X-86918Y+1361942D01*
X-83226Y+1372437D01*
X-77198Y+1382932D01*
X-67976Y+1393312D01*
X-57481Y+1401000D01*
X-46986Y+1405918D01*
X-36491Y+1408724D01*
X-25996Y+1409697D01*
X-25400Y+1409700D01*
X-88900Y+1346200D02*
X-88683Y+1340953D01*
X-86918Y+1330458D01*
X-83226Y+1319963D01*
X-77198Y+1309468D01*
X-67976Y+1299088D01*
X-57481Y+1291400D01*
X-46986Y+1286482D01*
X-36491Y+1283676D01*
X-25996Y+1282703D01*
X-25400Y+1282700D01*
X+38100Y+1346200D02*
X+37883Y+1340953D01*
X+36118Y+1330458D01*
X+32426Y+1319963D01*
X+26398Y+1309468D01*
X+17176Y+1299088D01*
X+6681Y+1291400D01*
X-3814Y+1286482D01*
X-14309Y+1283676D01*
X-24804Y+1282703D01*
X-25400Y+1282700D01*
X+3135700Y+943000D02*
X+3135597Y+945489D01*
X+3134755Y+950469D01*
X+3132995Y+955449D01*
X+3130118Y+960429D01*
X+3125717Y+965345D01*
X+3120737Y+968959D01*
X+3115757Y+971264D01*
X+3110777Y+972567D01*
X+3105797Y+973000D01*
X+3105700Y+973000D01*
X+3075700Y+943000D02*
X+3075803Y+945489D01*
X+3076645Y+950469D01*
X+3078405Y+955449D01*
X+3081282Y+960429D01*
X+3085683Y+965345D01*
X+3090663Y+968959D01*
X+3095643Y+971264D01*
X+3100623Y+972567D01*
X+3105603Y+973000D01*
X+3105700Y+973000D01*
X+3075700Y+943000D02*
X+3075803Y+940511D01*
X+3076645Y+935531D01*
X+3078405Y+930551D01*
X+3081282Y+925571D01*
X+3085683Y+920655D01*
X+3090663Y+917041D01*
X+3095643Y+914736D01*
X+3100623Y+913433D01*
X+3105603Y+913000D01*
X+3105700Y+913000D01*
X+3135700Y+943000D02*
X+3135597Y+940511D01*
X+3134755Y+935531D01*
X+3132995Y+930551D01*
X+3130118Y+925571D01*
X+3125717Y+920655D01*
X+3120737Y+917041D01*
X+3115757Y+914736D01*
X+3110777Y+913433D01*
X+3105797Y+913000D01*
X+3105700Y+913000D01*
X+3135700Y+1343000D02*
X+3135597Y+1345489D01*
X+3134755Y+1350469D01*
X+3132995Y+1355449D01*
X+3130118Y+1360429D01*
X+3125717Y+1365345D01*
X+3120737Y+1368959D01*
X+3115757Y+1371264D01*
X+3110777Y+1372567D01*
X+3105797Y+1373000D01*
X+3105700Y+1373000D01*
X+3075700Y+1343000D02*
X+3075803Y+1345489D01*
X+3076645Y+1350469D01*
X+3078405Y+1355449D01*
X+3081282Y+1360429D01*
X+3085683Y+1365345D01*
X+3090663Y+1368959D01*
X+3095643Y+1371264D01*
X+3100623Y+1372567D01*
X+3105603Y+1373000D01*
X+3105700Y+1373000D01*
X+3075700Y+1343000D02*
X+3075803Y+1340511D01*
X+3076645Y+1335531D01*
X+3078405Y+1330551D01*
X+3081282Y+1325571D01*
X+3085683Y+1320655D01*
X+3090663Y+1317041D01*
X+3095643Y+1314736D01*
X+3100623Y+1313433D01*
X+3105603Y+1313000D01*
X+3105700Y+1313000D01*
X+3135700Y+1343000D02*
X+3135597Y+1340511D01*
X+3134755Y+1335531D01*
X+3132995Y+1330551D01*
X+3130118Y+1325571D01*
X+3125717Y+1320655D01*
X+3120737Y+1317041D01*
X+3115757Y+1314736D01*
X+3110777Y+1313433D01*
X+3105797Y+1313000D01*
X+3105700Y+1313000D01*
X+73800Y+551800D02*
X+73645Y+555527D01*
X+72389Y+562982D01*
X+69759Y+570437D01*
X+65463Y+577892D01*
X+58893Y+585258D01*
X+51438Y+590691D01*
X+43983Y+594161D01*
X+36528Y+596131D01*
X+29073Y+596799D01*
X+28800Y+596800D01*
X-16200Y+551800D02*
X-16045Y+555527D01*
X-14789Y+562982D01*
X-12159Y+570437D01*
X-7863Y+577892D01*
X-1293Y+585258D01*
X+6162Y+590691D01*
X+13617Y+594161D01*
X+21072Y+596131D01*
X+28527Y+596799D01*
X+28800Y+596800D01*
X-16200Y+551800D02*
X-16045Y+548073D01*
X-14789Y+540618D01*
X-12159Y+533163D01*
X-7863Y+525708D01*
X-1293Y+518342D01*
X+6162Y+512909D01*
X+13617Y+509439D01*
X+21072Y+507469D01*
X+28527Y+506801D01*
X+28800Y+506800D01*
X+73800Y+551800D02*
X+73645Y+548073D01*
X+72389Y+540618D01*
X+69759Y+533163D01*
X+65463Y+525708D01*
X+58893Y+518342D01*
X+51438Y+512909D01*
X+43983Y+509439D01*
X+36528Y+507469D01*
X+29073Y+506801D01*
X+28800Y+506800D01*
X+73800Y+851800D02*
X+73645Y+855527D01*
X+72389Y+862982D01*
X+69759Y+870437D01*
X+65463Y+877892D01*
X+58893Y+885258D01*
X+51438Y+890691D01*
X+43983Y+894161D01*
X+36528Y+896131D01*
X+29073Y+896799D01*
X+28800Y+896800D01*
X-16200Y+851800D02*
X-16045Y+855527D01*
X-14789Y+862982D01*
X-12159Y+870437D01*
X-7863Y+877892D01*
X-1293Y+885258D01*
X+6162Y+890691D01*
X+13617Y+894161D01*
X+21072Y+896131D01*
X+28527Y+896799D01*
X+28800Y+896800D01*
X-16200Y+851800D02*
X-16045Y+848073D01*
X-14789Y+840618D01*
X-12159Y+833163D01*
X-7863Y+825708D01*
X-1293Y+818342D01*
X+6162Y+812909D01*
X+13617Y+809439D01*
X+21072Y+807469D01*
X+28527Y+806801D01*
X+28800Y+806800D01*
X+73800Y+851800D02*
X+73645Y+848073D01*
X+72389Y+840618D01*
X+69759Y+833163D01*
X+65463Y+825708D01*
X+58893Y+818342D01*
X+51438Y+812909D01*
X+43983Y+809439D01*
X+36528Y+807469D01*
X+29073Y+806801D01*
X+28800Y+806800D01*
M02*
