G04 PROTEUS RS274X GERBER FILE*
%FSLAX45Y45*%
%MOMM*%
G01*
%ADD73C,0.025400*%
%ADD53C,0.640000*%
%ADD54C,0.955750*%
%ADD55C,0.050000*%
%ADD56C,0.548640*%
%ADD57C,0.287640*%
%ADD58C,0.360000*%
%ADD59C,0.303330*%
%ADD60C,0.320040*%
%ADD61C,0.159920*%
%ADD33C,0.127000*%
%ADD10C,0.400000*%
%ADD62C,0.158760*%
%ADD32C,0.600000*%
%ADD63C,0.262590*%
%ADD64C,0.113280*%
%ADD65C,0.150710*%
%ADD66C,0.260000*%
%ADD67C,0.071610*%
%ADD68C,0.067010*%
%ADD14C,0.300000*%
%ADD69C,0.044520*%
%ADD74C,0.420000*%
%ADD75C,0.067500*%
D73*
X-50800Y+1346200D02*
X+0Y+1346200D01*
X-25400Y+1371600D02*
X-25400Y+1320800D01*
X+3403600Y-25400D02*
X+3454400Y-25400D01*
X+3429000Y+0D02*
X+3429000Y-50800D01*
X+3403600Y+2311400D02*
X+3454400Y+2311400D01*
X+3429000Y+2336800D02*
X+3429000Y+2286000D01*
X+3556000Y+2311400D02*
X+3553473Y+2337367D01*
X+3546202Y+2361381D01*
X+3534652Y+2382977D01*
X+3519289Y+2401689D01*
X+3500577Y+2417052D01*
X+3478982Y+2428602D01*
X+3454968Y+2435873D01*
X+3429000Y+2438400D01*
X+101600Y+2438400D01*
X+75633Y+2435873D01*
X+51619Y+2428602D01*
X+30023Y+2417052D01*
X+11311Y+2401689D01*
X-4052Y+2382977D01*
X-15602Y+2361381D01*
X-22873Y+2337367D01*
X-25400Y+2311400D01*
X-25400Y+1574800D01*
X-152400Y+1447800D01*
X-152400Y-25400D01*
X-149873Y-51367D01*
X-142602Y-75381D01*
X-131052Y-96977D01*
X-115689Y-115689D01*
X-96977Y-131052D01*
X-75381Y-142602D01*
X-51367Y-149873D01*
X-25400Y-152400D01*
X+3429000Y-152400D01*
X+3454968Y-149873D01*
X+3478982Y-142602D01*
X+3500577Y-131052D01*
X+3519289Y-115689D01*
X+3534652Y-96977D01*
X+3546202Y-75381D01*
X+3553473Y-51367D01*
X+3556000Y-25400D01*
X+3556000Y+2311400D01*
X+3492500Y+2311400D02*
X+3492283Y+2316647D01*
X+3490518Y+2327142D01*
X+3486826Y+2337637D01*
X+3480798Y+2348132D01*
X+3471576Y+2358512D01*
X+3461081Y+2366200D01*
X+3450586Y+2371118D01*
X+3440091Y+2373924D01*
X+3429596Y+2374897D01*
X+3429000Y+2374900D01*
X+3365500Y+2311400D02*
X+3365717Y+2316647D01*
X+3367482Y+2327142D01*
X+3371174Y+2337637D01*
X+3377202Y+2348132D01*
X+3386424Y+2358512D01*
X+3396919Y+2366200D01*
X+3407414Y+2371118D01*
X+3417909Y+2373924D01*
X+3428404Y+2374897D01*
X+3429000Y+2374900D01*
X+3365500Y+2311400D02*
X+3365717Y+2306153D01*
X+3367482Y+2295658D01*
X+3371174Y+2285163D01*
X+3377202Y+2274668D01*
X+3386424Y+2264288D01*
X+3396919Y+2256600D01*
X+3407414Y+2251682D01*
X+3417909Y+2248876D01*
X+3428404Y+2247903D01*
X+3429000Y+2247900D01*
X+3492500Y+2311400D02*
X+3492283Y+2306153D01*
X+3490518Y+2295658D01*
X+3486826Y+2285163D01*
X+3480798Y+2274668D01*
X+3471576Y+2264288D01*
X+3461081Y+2256600D01*
X+3450586Y+2251682D01*
X+3440091Y+2248876D01*
X+3429596Y+2247903D01*
X+3429000Y+2247900D01*
X+3556000Y+2311400D02*
X+3555573Y+2321809D01*
X+3552101Y+2342628D01*
X+3544845Y+2363447D01*
X+3533017Y+2384266D01*
X+3514920Y+2404924D01*
X+3494101Y+2420445D01*
X+3473282Y+2430430D01*
X+3452463Y+2436214D01*
X+3431644Y+2438372D01*
X+3429000Y+2438400D01*
X+3302000Y+2311400D02*
X+3302427Y+2321809D01*
X+3305899Y+2342628D01*
X+3313155Y+2363447D01*
X+3324983Y+2384266D01*
X+3343080Y+2404924D01*
X+3363899Y+2420445D01*
X+3384718Y+2430430D01*
X+3405537Y+2436214D01*
X+3426356Y+2438372D01*
X+3429000Y+2438400D01*
X+3302000Y+2311400D02*
X+3302427Y+2300991D01*
X+3305899Y+2280172D01*
X+3313155Y+2259353D01*
X+3324983Y+2238534D01*
X+3343080Y+2217876D01*
X+3363899Y+2202355D01*
X+3384718Y+2192370D01*
X+3405537Y+2186586D01*
X+3426356Y+2184428D01*
X+3429000Y+2184400D01*
X+3556000Y+2311400D02*
X+3555573Y+2300991D01*
X+3552101Y+2280172D01*
X+3544845Y+2259353D01*
X+3533017Y+2238534D01*
X+3514920Y+2217876D01*
X+3494101Y+2202355D01*
X+3473282Y+2192370D01*
X+3452463Y+2186586D01*
X+3431644Y+2184428D01*
X+3429000Y+2184400D01*
X+3492500Y-25400D02*
X+3492283Y-20153D01*
X+3490518Y-9658D01*
X+3486826Y+837D01*
X+3480798Y+11332D01*
X+3471576Y+21712D01*
X+3461081Y+29400D01*
X+3450586Y+34318D01*
X+3440091Y+37124D01*
X+3429596Y+38097D01*
X+3429000Y+38100D01*
X+3365500Y-25400D02*
X+3365717Y-20153D01*
X+3367482Y-9658D01*
X+3371174Y+837D01*
X+3377202Y+11332D01*
X+3386424Y+21712D01*
X+3396919Y+29400D01*
X+3407414Y+34318D01*
X+3417909Y+37124D01*
X+3428404Y+38097D01*
X+3429000Y+38100D01*
X+3365500Y-25400D02*
X+3365717Y-30647D01*
X+3367482Y-41142D01*
X+3371174Y-51637D01*
X+3377202Y-62132D01*
X+3386424Y-72512D01*
X+3396919Y-80200D01*
X+3407414Y-85118D01*
X+3417909Y-87924D01*
X+3428404Y-88897D01*
X+3429000Y-88900D01*
X+3492500Y-25400D02*
X+3492283Y-30647D01*
X+3490518Y-41142D01*
X+3486826Y-51637D01*
X+3480798Y-62132D01*
X+3471576Y-72512D01*
X+3461081Y-80200D01*
X+3450586Y-85118D01*
X+3440091Y-87924D01*
X+3429596Y-88897D01*
X+3429000Y-88900D01*
X+3556000Y-25400D02*
X+3555573Y-14991D01*
X+3552101Y+5828D01*
X+3544845Y+26647D01*
X+3533017Y+47466D01*
X+3514920Y+68124D01*
X+3494101Y+83645D01*
X+3473282Y+93630D01*
X+3452463Y+99414D01*
X+3431644Y+101572D01*
X+3429000Y+101600D01*
X+3302000Y-25400D02*
X+3302427Y-14991D01*
X+3305899Y+5828D01*
X+3313155Y+26647D01*
X+3324983Y+47466D01*
X+3343080Y+68124D01*
X+3363899Y+83645D01*
X+3384718Y+93630D01*
X+3405537Y+99414D01*
X+3426356Y+101572D01*
X+3429000Y+101600D01*
X+3302000Y-25400D02*
X+3302427Y-35809D01*
X+3305899Y-56628D01*
X+3313155Y-77447D01*
X+3324983Y-98266D01*
X+3343080Y-118924D01*
X+3363899Y-134445D01*
X+3384718Y-144430D01*
X+3405537Y-150214D01*
X+3426356Y-152372D01*
X+3429000Y-152400D01*
X+3556000Y-25400D02*
X+3555573Y-35809D01*
X+3552101Y-56628D01*
X+3544845Y-77447D01*
X+3533017Y-98266D01*
X+3514920Y-118924D01*
X+3494101Y-134445D01*
X+3473282Y-144430D01*
X+3452463Y-150214D01*
X+3431644Y-152372D01*
X+3429000Y-152400D01*
X+38100Y+1346200D02*
X+37883Y+1351447D01*
X+36118Y+1361942D01*
X+32426Y+1372437D01*
X+26398Y+1382932D01*
X+17176Y+1393312D01*
X+6681Y+1401000D01*
X-3814Y+1405918D01*
X-14309Y+1408724D01*
X-24804Y+1409697D01*
X-25400Y+1409700D01*
X-88900Y+1346200D02*
X-88683Y+1351447D01*
X-86918Y+1361942D01*
X-83226Y+1372437D01*
X-77198Y+1382932D01*
X-67976Y+1393312D01*
X-57481Y+1401000D01*
X-46986Y+1405918D01*
X-36491Y+1408724D01*
X-25996Y+1409697D01*
X-25400Y+1409700D01*
X-88900Y+1346200D02*
X-88683Y+1340953D01*
X-86918Y+1330458D01*
X-83226Y+1319963D01*
X-77198Y+1309468D01*
X-67976Y+1299088D01*
X-57481Y+1291400D01*
X-46986Y+1286482D01*
X-36491Y+1283676D01*
X-25996Y+1282703D01*
X-25400Y+1282700D01*
X+38100Y+1346200D02*
X+37883Y+1340953D01*
X+36118Y+1330458D01*
X+32426Y+1319963D01*
X+26398Y+1309468D01*
X+17176Y+1299088D01*
X+6681Y+1291400D01*
X-3814Y+1286482D01*
X-14309Y+1283676D01*
X-24804Y+1282703D01*
X-25400Y+1282700D01*
X+101600Y+1346200D02*
X+101173Y+1356609D01*
X+97701Y+1377428D01*
X+90445Y+1398247D01*
X+78617Y+1419066D01*
X+60520Y+1439724D01*
X+39701Y+1455245D01*
X+18882Y+1465230D01*
X-1937Y+1471014D01*
X-22756Y+1473172D01*
X-25400Y+1473200D01*
X-152400Y+1346200D02*
X-151973Y+1356609D01*
X-148501Y+1377428D01*
X-141245Y+1398247D01*
X-129417Y+1419066D01*
X-111320Y+1439724D01*
X-90501Y+1455245D01*
X-69682Y+1465230D01*
X-48863Y+1471014D01*
X-28044Y+1473172D01*
X-25400Y+1473200D01*
X-152400Y+1346200D02*
X-151973Y+1335791D01*
X-148501Y+1314972D01*
X-141245Y+1294153D01*
X-129417Y+1273334D01*
X-111320Y+1252676D01*
X-90501Y+1237155D01*
X-69682Y+1227170D01*
X-48863Y+1221386D01*
X-28044Y+1219228D01*
X-25400Y+1219200D01*
X+101600Y+1346200D02*
X+101173Y+1335791D01*
X+97701Y+1314972D01*
X+90445Y+1294153D01*
X+78617Y+1273334D01*
X+60520Y+1252676D01*
X+39701Y+1237155D01*
X+18882Y+1227170D01*
X-1937Y+1221386D01*
X-22756Y+1219228D01*
X-25400Y+1219200D01*
D53*
X+2540000Y+2286000D02*
X+2540000Y+2286000D01*
D54*
X+411538Y+763440D02*
X+411538Y+1336890D01*
X+734103Y+1050165D01*
X+1056669Y+1336890D01*
X+1056669Y+763440D01*
X+1271713Y+763440D02*
X+1271713Y+1336890D01*
X+1701800Y+1336890D01*
X+1916844Y+1145740D01*
X+1916844Y+954590D01*
X+1701800Y+763440D01*
X+1271713Y+763440D01*
X+2346931Y+1145740D02*
X+2561975Y+1336890D01*
X+2561975Y+763440D01*
D55*
X+607700Y+1736550D02*
X+607700Y+546550D01*
X+1957700Y+546550D01*
X+1957700Y+1736550D01*
X+607700Y+1736550D01*
X+1332700Y+1141550D02*
X+1232700Y+1141550D01*
X+1282700Y+1091550D02*
X+1282700Y+1191550D01*
D56*
X+1854200Y+1606550D02*
X+1854200Y+1606550D01*
D57*
X+957100Y+1227845D02*
X+957100Y+1084020D01*
X+989460Y+1055255D01*
X+1118902Y+1055255D01*
X+1151263Y+1084020D01*
X+1151263Y+1227845D01*
X+1248344Y+1199080D02*
X+1280705Y+1227845D01*
X+1377786Y+1227845D01*
X+1410147Y+1199080D01*
X+1410147Y+1170315D01*
X+1377786Y+1141550D01*
X+1410147Y+1112785D01*
X+1410147Y+1084020D01*
X+1377786Y+1055255D01*
X+1280705Y+1055255D01*
X+1248344Y+1084020D01*
X+1313065Y+1141550D02*
X+1377786Y+1141550D01*
D73*
X+3135700Y+943000D02*
X+3135597Y+945489D01*
X+3134755Y+950469D01*
X+3132995Y+955449D01*
X+3130118Y+960429D01*
X+3125717Y+965345D01*
X+3120737Y+968959D01*
X+3115757Y+971264D01*
X+3110777Y+972567D01*
X+3105797Y+973000D01*
X+3105700Y+973000D01*
X+3075700Y+943000D02*
X+3075803Y+945489D01*
X+3076645Y+950469D01*
X+3078405Y+955449D01*
X+3081282Y+960429D01*
X+3085683Y+965345D01*
X+3090663Y+968959D01*
X+3095643Y+971264D01*
X+3100623Y+972567D01*
X+3105603Y+973000D01*
X+3105700Y+973000D01*
X+3075700Y+943000D02*
X+3075803Y+940511D01*
X+3076645Y+935531D01*
X+3078405Y+930551D01*
X+3081282Y+925571D01*
X+3085683Y+920655D01*
X+3090663Y+917041D01*
X+3095643Y+914736D01*
X+3100623Y+913433D01*
X+3105603Y+913000D01*
X+3105700Y+913000D01*
X+3135700Y+943000D02*
X+3135597Y+940511D01*
X+3134755Y+935531D01*
X+3132995Y+930551D01*
X+3130118Y+925571D01*
X+3125717Y+920655D01*
X+3120737Y+917041D01*
X+3115757Y+914736D01*
X+3110777Y+913433D01*
X+3105797Y+913000D01*
X+3105700Y+913000D01*
X+3135700Y+1343000D02*
X+3135597Y+1345489D01*
X+3134755Y+1350469D01*
X+3132995Y+1355449D01*
X+3130118Y+1360429D01*
X+3125717Y+1365345D01*
X+3120737Y+1368959D01*
X+3115757Y+1371264D01*
X+3110777Y+1372567D01*
X+3105797Y+1373000D01*
X+3105700Y+1373000D01*
X+3075700Y+1343000D02*
X+3075803Y+1345489D01*
X+3076645Y+1350469D01*
X+3078405Y+1355449D01*
X+3081282Y+1360429D01*
X+3085683Y+1365345D01*
X+3090663Y+1368959D01*
X+3095643Y+1371264D01*
X+3100623Y+1372567D01*
X+3105603Y+1373000D01*
X+3105700Y+1373000D01*
X+3075700Y+1343000D02*
X+3075803Y+1340511D01*
X+3076645Y+1335531D01*
X+3078405Y+1330551D01*
X+3081282Y+1325571D01*
X+3085683Y+1320655D01*
X+3090663Y+1317041D01*
X+3095643Y+1314736D01*
X+3100623Y+1313433D01*
X+3105603Y+1313000D01*
X+3105700Y+1313000D01*
X+3135700Y+1343000D02*
X+3135597Y+1340511D01*
X+3134755Y+1335531D01*
X+3132995Y+1330551D01*
X+3130118Y+1325571D01*
X+3125717Y+1320655D01*
X+3120737Y+1317041D01*
X+3115757Y+1314736D01*
X+3110777Y+1313433D01*
X+3105797Y+1313000D01*
X+3105700Y+1313000D01*
X+3105700Y+1328000D02*
X+3105700Y+1358000D01*
X+3090700Y+1343000D02*
X+3120700Y+1343000D01*
X+3105700Y+928000D02*
X+3105700Y+958000D01*
X+3090700Y+943000D02*
X+3120700Y+943000D01*
X+2950700Y+628000D02*
X+3600700Y+628000D01*
X+3600700Y+1658000D01*
X+2950700Y+1658000D01*
X+2950700Y+628000D01*
D58*
X+3060700Y+1013000D02*
X+3060700Y+1013000D01*
D59*
X+3370669Y+869995D02*
X+3401003Y+869995D01*
X+3431337Y+904120D01*
X+3431337Y+1040623D01*
X+3401003Y+1074748D01*
X+3249333Y+1074748D01*
X+3310001Y+1211251D02*
X+3249333Y+1279502D01*
X+3431337Y+1279502D01*
D55*
X+2077300Y+780500D02*
X+2607300Y+780500D01*
X+2607300Y+1310500D01*
X+2077300Y+1310500D01*
X+2077300Y+780500D01*
X+2342300Y+1095500D02*
X+2342300Y+995500D01*
X+2392300Y+1045500D02*
X+2292300Y+1045500D01*
D60*
X+2157300Y+1143000D02*
X+2157300Y+1143000D01*
D61*
X+2343573Y+901566D02*
X+2423536Y+901566D01*
X+2439529Y+919557D01*
X+2439529Y+991524D01*
X+2423536Y+1009516D01*
X+2343573Y+1009516D01*
X+2375558Y+1081483D02*
X+2343573Y+1117467D01*
X+2439529Y+1117467D01*
D33*
X+2842800Y+1694400D02*
X+3402800Y+1694400D01*
X+3402800Y+2027100D01*
X+2842800Y+2027100D01*
X+2842800Y+1694400D01*
D10*
X+3352800Y+1973250D02*
X+3352800Y+1973250D01*
D62*
X+2873467Y+1813120D02*
X+2873467Y+1908379D01*
X+2962772Y+1908379D01*
X+2980633Y+1892503D01*
X+2980633Y+1876626D01*
X+2962772Y+1860750D01*
X+2980633Y+1844873D01*
X+2980633Y+1828996D01*
X+2962772Y+1813120D01*
X+2873467Y+1813120D01*
X+2873467Y+1860750D02*
X+2962772Y+1860750D01*
X+3016356Y+1908379D02*
X+3123522Y+1908379D01*
X+3069939Y+1908379D02*
X+3069939Y+1813120D01*
X+3194967Y+1876626D02*
X+3230689Y+1908379D01*
X+3230689Y+1813120D01*
D73*
X+73800Y+851800D02*
X+73645Y+855527D01*
X+72389Y+862982D01*
X+69759Y+870437D01*
X+65463Y+877892D01*
X+58893Y+885258D01*
X+51438Y+890691D01*
X+43983Y+894161D01*
X+36528Y+896131D01*
X+29073Y+896799D01*
X+28800Y+896800D01*
X-16200Y+851800D02*
X-16045Y+855527D01*
X-14789Y+862982D01*
X-12159Y+870437D01*
X-7863Y+877892D01*
X-1293Y+885258D01*
X+6162Y+890691D01*
X+13617Y+894161D01*
X+21072Y+896131D01*
X+28527Y+896799D01*
X+28800Y+896800D01*
X-16200Y+851800D02*
X-16045Y+848073D01*
X-14789Y+840618D01*
X-12159Y+833163D01*
X-7863Y+825708D01*
X-1293Y+818342D01*
X+6162Y+812909D01*
X+13617Y+809439D01*
X+21072Y+807469D01*
X+28527Y+806801D01*
X+28800Y+806800D01*
X+73800Y+851800D02*
X+73645Y+848073D01*
X+72389Y+840618D01*
X+69759Y+833163D01*
X+65463Y+825708D01*
X+58893Y+818342D01*
X+51438Y+812909D01*
X+43983Y+809439D01*
X+36528Y+807469D01*
X+29073Y+806801D01*
X+28800Y+806800D01*
X+73800Y+551800D02*
X+73645Y+555527D01*
X+72389Y+562982D01*
X+69759Y+570437D01*
X+65463Y+577892D01*
X+58893Y+585258D01*
X+51438Y+590691D01*
X+43983Y+594161D01*
X+36528Y+596131D01*
X+29073Y+596799D01*
X+28800Y+596800D01*
X-16200Y+551800D02*
X-16045Y+555527D01*
X-14789Y+562982D01*
X-12159Y+570437D01*
X-7863Y+577892D01*
X-1293Y+585258D01*
X+6162Y+590691D01*
X+13617Y+594161D01*
X+21072Y+596131D01*
X+28527Y+596799D01*
X+28800Y+596800D01*
X-16200Y+551800D02*
X-16045Y+548073D01*
X-14789Y+540618D01*
X-12159Y+533163D01*
X-7863Y+525708D01*
X-1293Y+518342D01*
X+6162Y+512909D01*
X+13617Y+509439D01*
X+21072Y+507469D01*
X+28527Y+506801D01*
X+28800Y+506800D01*
X+73800Y+551800D02*
X+73645Y+548073D01*
X+72389Y+540618D01*
X+69759Y+533163D01*
X+65463Y+525708D01*
X+58893Y+518342D01*
X+51438Y+512909D01*
X+43983Y+509439D01*
X+36528Y+507469D01*
X+29073Y+506801D01*
X+28800Y+506800D01*
X+28800Y+571800D02*
X+28800Y+531800D01*
X+48800Y+551800D02*
X+8800Y+551800D01*
X+28800Y+871800D02*
X+28800Y+831800D01*
X+48800Y+851800D02*
X+8800Y+851800D01*
X-151200Y+251800D02*
X+308800Y+251800D01*
X+308800Y+1151800D01*
X-151200Y+1151800D01*
X-151200Y+251800D01*
X-251200Y+551800D02*
X-101200Y+551800D01*
X-101200Y+851800D01*
X-251200Y+851800D01*
X-251200Y+551800D01*
D32*
X+203800Y+926800D02*
X+203800Y+926800D01*
D63*
X+13185Y+347292D02*
X+39445Y+376834D01*
X+39445Y+495003D01*
X+13185Y+524546D01*
X-13075Y+524546D01*
X-39335Y+495003D01*
X-39335Y+376834D01*
X-65595Y+347292D01*
X-91855Y+347292D01*
X-118115Y+376834D01*
X-118115Y+495003D01*
X-91855Y+524546D01*
X-118115Y+583631D02*
X+39445Y+583631D01*
X-39335Y+672258D01*
X+39445Y+760885D01*
X-118115Y+760885D01*
X-65595Y+879054D02*
X-118115Y+938139D01*
X+39445Y+938139D01*
D73*
X+2613750Y+1520650D02*
X+2593750Y+1520650D01*
X+2603750Y+1510650D02*
X+2603750Y+1530650D01*
X+2428750Y+1320650D02*
X+2778750Y+1320650D01*
X+2778750Y+1720650D01*
X+2428750Y+1720650D01*
X+2428750Y+1320650D01*
D10*
X+2698750Y+1650650D02*
X+2698750Y+1650650D01*
D64*
X+2501798Y+1508999D02*
X+2501798Y+1452359D01*
X+2514542Y+1441031D01*
X+2565518Y+1441031D01*
X+2578262Y+1452359D01*
X+2578262Y+1508999D01*
X+2616494Y+1497671D02*
X+2629238Y+1508999D01*
X+2667470Y+1508999D01*
X+2680214Y+1497671D01*
X+2680214Y+1486343D01*
X+2667470Y+1475015D01*
X+2629238Y+1475015D01*
X+2616494Y+1463687D01*
X+2616494Y+1441031D01*
X+2680214Y+1441031D01*
D73*
X+2692400Y+2057400D02*
X+3276600Y+2057400D01*
X+3276600Y+2387600D01*
X+2692400Y+2387600D01*
X+2692400Y+2057400D01*
D58*
X+2794000Y+2286000D02*
X+2794000Y+2286000D01*
D65*
X+2909289Y+2207428D02*
X+2909289Y+2192356D01*
X+2926244Y+2177284D01*
X+2994067Y+2177284D01*
X+3011023Y+2192356D01*
X+3011023Y+2267715D01*
X+3061890Y+2252643D02*
X+3078846Y+2267715D01*
X+3129713Y+2267715D01*
X+3146669Y+2252643D01*
X+3146669Y+2237571D01*
X+3129713Y+2222500D01*
X+3078846Y+2222500D01*
X+3061890Y+2207428D01*
X+3061890Y+2177284D01*
X+3146669Y+2177284D01*
D73*
X-152400Y-25400D02*
X-149873Y-51367D01*
X-142602Y-75381D01*
X-131052Y-96977D01*
X-115689Y-115689D01*
X-96977Y-131052D01*
X-75381Y-142602D01*
X-51367Y-149873D01*
X-25400Y-152400D01*
X+3429000Y-152400D01*
X+3454967Y-149873D01*
X+3478981Y-142602D01*
X+3500577Y-131052D01*
X+3519289Y-115689D01*
X+3534652Y-96977D01*
X+3546202Y-75381D01*
X+3553473Y-51367D01*
X+3556000Y-25400D01*
X+3556000Y+2311400D01*
X+3553473Y+2337367D01*
X+3546202Y+2361381D01*
X+3534652Y+2382977D01*
X+3519289Y+2401689D01*
X+3500577Y+2417052D01*
X+3478981Y+2428602D01*
X+3454967Y+2435873D01*
X+3429000Y+2438400D01*
X+101600Y+2438400D01*
X+75632Y+2435873D01*
X+51618Y+2428602D01*
X+30023Y+2417052D01*
X+11311Y+2401689D01*
X-4052Y+2382977D01*
X-15602Y+2361381D01*
X-22873Y+2337367D01*
X-25400Y+2311400D01*
X-25400Y+1574800D01*
X-152400Y+1447800D01*
X-152400Y-25400D01*
X+3492500Y-25400D02*
X+3492283Y-20153D01*
X+3490518Y-9658D01*
X+3486826Y+837D01*
X+3480798Y+11332D01*
X+3471576Y+21712D01*
X+3461081Y+29400D01*
X+3450586Y+34318D01*
X+3440091Y+37124D01*
X+3429596Y+38097D01*
X+3429000Y+38100D01*
X+3365500Y-25400D02*
X+3365717Y-20153D01*
X+3367482Y-9658D01*
X+3371174Y+837D01*
X+3377202Y+11332D01*
X+3386424Y+21712D01*
X+3396919Y+29400D01*
X+3407414Y+34318D01*
X+3417909Y+37124D01*
X+3428404Y+38097D01*
X+3429000Y+38100D01*
X+3365500Y-25400D02*
X+3365717Y-30647D01*
X+3367482Y-41142D01*
X+3371174Y-51637D01*
X+3377202Y-62132D01*
X+3386424Y-72512D01*
X+3396919Y-80200D01*
X+3407414Y-85118D01*
X+3417909Y-87924D01*
X+3428404Y-88897D01*
X+3429000Y-88900D01*
X+3492500Y-25400D02*
X+3492283Y-30647D01*
X+3490518Y-41142D01*
X+3486826Y-51637D01*
X+3480798Y-62132D01*
X+3471576Y-72512D01*
X+3461081Y-80200D01*
X+3450586Y-85118D01*
X+3440091Y-87924D01*
X+3429596Y-88897D01*
X+3429000Y-88900D01*
X+3492500Y+2311400D02*
X+3492283Y+2316647D01*
X+3490518Y+2327142D01*
X+3486826Y+2337637D01*
X+3480798Y+2348132D01*
X+3471576Y+2358512D01*
X+3461081Y+2366200D01*
X+3450586Y+2371118D01*
X+3440091Y+2373924D01*
X+3429596Y+2374897D01*
X+3429000Y+2374900D01*
X+3365500Y+2311400D02*
X+3365717Y+2316647D01*
X+3367482Y+2327142D01*
X+3371174Y+2337637D01*
X+3377202Y+2348132D01*
X+3386424Y+2358512D01*
X+3396919Y+2366200D01*
X+3407414Y+2371118D01*
X+3417909Y+2373924D01*
X+3428404Y+2374897D01*
X+3429000Y+2374900D01*
X+3365500Y+2311400D02*
X+3365717Y+2306153D01*
X+3367482Y+2295658D01*
X+3371174Y+2285163D01*
X+3377202Y+2274668D01*
X+3386424Y+2264288D01*
X+3396919Y+2256600D01*
X+3407414Y+2251682D01*
X+3417909Y+2248876D01*
X+3428404Y+2247903D01*
X+3429000Y+2247900D01*
X+3492500Y+2311400D02*
X+3492283Y+2306153D01*
X+3490518Y+2295658D01*
X+3486826Y+2285163D01*
X+3480798Y+2274668D01*
X+3471576Y+2264288D01*
X+3461081Y+2256600D01*
X+3450586Y+2251682D01*
X+3440091Y+2248876D01*
X+3429596Y+2247903D01*
X+3429000Y+2247900D01*
X+38100Y+1346200D02*
X+37883Y+1351447D01*
X+36118Y+1361942D01*
X+32426Y+1372437D01*
X+26398Y+1382932D01*
X+17176Y+1393312D01*
X+6681Y+1401000D01*
X-3814Y+1405918D01*
X-14309Y+1408724D01*
X-24804Y+1409697D01*
X-25400Y+1409700D01*
X-88900Y+1346200D02*
X-88683Y+1351447D01*
X-86918Y+1361942D01*
X-83226Y+1372437D01*
X-77198Y+1382932D01*
X-67976Y+1393312D01*
X-57481Y+1401000D01*
X-46986Y+1405918D01*
X-36491Y+1408724D01*
X-25996Y+1409697D01*
X-25400Y+1409700D01*
X-88900Y+1346200D02*
X-88683Y+1340953D01*
X-86918Y+1330458D01*
X-83226Y+1319963D01*
X-77198Y+1309468D01*
X-67976Y+1299088D01*
X-57481Y+1291400D01*
X-46986Y+1286482D01*
X-36491Y+1283676D01*
X-25996Y+1282703D01*
X-25400Y+1282700D01*
X+38100Y+1346200D02*
X+37883Y+1340953D01*
X+36118Y+1330458D01*
X+32426Y+1319963D01*
X+26398Y+1309468D01*
X+17176Y+1299088D01*
X+6681Y+1291400D01*
X-3814Y+1286482D01*
X-14309Y+1283676D01*
X-24804Y+1282703D01*
X-25400Y+1282700D01*
X+2933550Y+121850D02*
X+3158550Y+121850D01*
X+3158550Y+366850D01*
X+2933550Y+366850D01*
X+2933550Y+121850D01*
D66*
X+3088550Y+296850D02*
X+3088550Y+296850D01*
D67*
X+2981599Y+180731D02*
X+2981599Y+223699D01*
X+3013824Y+223699D01*
X+3029937Y+209376D01*
X+3029937Y+195054D01*
X+3013824Y+180731D01*
X+2981599Y+180731D01*
X+3054106Y+216538D02*
X+3062162Y+223699D01*
X+3086331Y+223699D01*
X+3094388Y+216538D01*
X+3094388Y+209376D01*
X+3086331Y+202215D01*
X+3094388Y+195054D01*
X+3094388Y+187892D01*
X+3086331Y+180731D01*
X+3062162Y+180731D01*
X+3054106Y+187892D01*
X+3070219Y+202215D02*
X+3086331Y+202215D01*
D73*
X+3295650Y+99975D02*
X+3422650Y+99975D01*
X+3422650Y+392075D01*
X+3295650Y+392075D01*
X+3295650Y+99975D01*
D60*
X+3359150Y+163600D02*
X+3359150Y+163600D01*
D68*
X+3379254Y+226160D02*
X+3339045Y+226160D01*
X+3339045Y+256316D01*
X+3352448Y+271394D01*
X+3365851Y+271394D01*
X+3379254Y+256316D01*
X+3379254Y+226160D01*
X+3352448Y+301551D02*
X+3339045Y+316629D01*
X+3379254Y+316629D01*
D73*
X+3124050Y+397200D02*
X+3264050Y+397200D01*
X+3264050Y+617200D01*
X+3124050Y+617200D01*
X+3124050Y+397200D01*
D14*
X+3194050Y+457200D02*
X+3194050Y+457200D01*
D69*
X+3207407Y+505265D02*
X+3180693Y+505265D01*
X+3180693Y+530308D01*
X+3185145Y+535317D01*
X+3189598Y+535317D01*
X+3194050Y+530308D01*
X+3194050Y+505265D01*
X+3194050Y+530308D02*
X+3198502Y+535317D01*
X+3207407Y+535317D01*
X+3189598Y+555352D02*
X+3180693Y+565370D01*
X+3207407Y+565370D01*
D73*
X+2958950Y+397200D02*
X+3098950Y+397200D01*
X+3098950Y+617200D01*
X+2958950Y+617200D01*
X+2958950Y+397200D01*
D14*
X+3028950Y+557200D02*
X+3028950Y+557200D01*
D69*
X+3042307Y+428995D02*
X+3015593Y+428995D01*
X+3015593Y+454038D01*
X+3020045Y+459047D01*
X+3024498Y+459047D01*
X+3028950Y+454038D01*
X+3028950Y+428995D01*
X+3028950Y+454038D02*
X+3033402Y+459047D01*
X+3042307Y+459047D01*
X+3020045Y+474073D02*
X+3015593Y+479082D01*
X+3015593Y+494108D01*
X+3020045Y+499117D01*
X+3024498Y+499117D01*
X+3028950Y+494108D01*
X+3028950Y+479082D01*
X+3033402Y+474073D01*
X+3042307Y+474073D01*
X+3042307Y+499117D01*
D73*
X+2120750Y+1311600D02*
X+2260750Y+1311600D01*
X+2260750Y+1531600D01*
X+2120750Y+1531600D01*
X+2120750Y+1311600D01*
D14*
X+2190750Y+1471600D02*
X+2190750Y+1471600D01*
D69*
X+2204107Y+1343395D02*
X+2177393Y+1343395D01*
X+2177393Y+1368438D01*
X+2181845Y+1373447D01*
X+2186298Y+1373447D01*
X+2190750Y+1368438D01*
X+2190750Y+1343395D01*
X+2190750Y+1368438D02*
X+2195202Y+1373447D01*
X+2204107Y+1373447D01*
X+2181845Y+1388473D02*
X+2177393Y+1393482D01*
X+2177393Y+1408508D01*
X+2181845Y+1413517D01*
X+2186298Y+1413517D01*
X+2190750Y+1408508D01*
X+2195202Y+1413517D01*
X+2199655Y+1413517D01*
X+2204107Y+1408508D01*
X+2204107Y+1393482D01*
X+2199655Y+1388473D01*
X+2190750Y+1398491D02*
X+2190750Y+1408508D01*
D73*
X+2774945Y+701850D02*
X+2940045Y+701850D01*
X+2940045Y+1013000D01*
X+2774945Y+1013000D01*
X+2774945Y+701850D01*
D74*
X+2857500Y+936800D02*
X+2857500Y+936800D01*
D75*
X+2877747Y+717058D02*
X+2837244Y+717058D01*
X+2837244Y+762624D01*
X+2857495Y+717058D02*
X+2857495Y+747435D01*
X+2837244Y+777813D02*
X+2837244Y+823379D01*
X+2837244Y+800596D02*
X+2877747Y+800596D01*
X+2850745Y+853756D02*
X+2837244Y+868945D01*
X+2877747Y+868945D01*
D73*
X+2781295Y+1315700D02*
X+2946395Y+1315700D01*
X+2946395Y+1626850D01*
X+2781295Y+1626850D01*
X+2781295Y+1315700D01*
D74*
X+2863850Y+1550650D02*
X+2863850Y+1550650D01*
D75*
X+2877347Y+1406851D02*
X+2884097Y+1399256D01*
X+2884097Y+1376473D01*
X+2870596Y+1361285D01*
X+2857095Y+1361285D01*
X+2843594Y+1376473D01*
X+2843594Y+1399256D01*
X+2850344Y+1406851D01*
X+2857095Y+1437228D02*
X+2843594Y+1452417D01*
X+2884097Y+1452417D01*
D73*
X+2609855Y+703600D02*
X+2774955Y+703600D01*
X+2774955Y+1014750D01*
X+2609855Y+1014750D01*
X+2609855Y+703600D01*
D74*
X+2692400Y+779800D02*
X+2692400Y+779800D01*
D75*
X+2705907Y+893221D02*
X+2712657Y+885626D01*
X+2712657Y+862843D01*
X+2699156Y+847655D01*
X+2685655Y+847655D01*
X+2672154Y+862843D01*
X+2672154Y+885626D01*
X+2678904Y+893221D01*
X+2678904Y+916004D02*
X+2672154Y+923598D01*
X+2672154Y+946381D01*
X+2678904Y+953976D01*
X+2685655Y+953976D01*
X+2692405Y+946381D01*
X+2692405Y+923598D01*
X+2699156Y+916004D01*
X+2712657Y+916004D01*
X+2712657Y+953976D01*
D73*
X+3135700Y+943000D02*
X+3135597Y+945489D01*
X+3134755Y+950469D01*
X+3132995Y+955449D01*
X+3130118Y+960429D01*
X+3125717Y+965345D01*
X+3120737Y+968959D01*
X+3115757Y+971264D01*
X+3110777Y+972567D01*
X+3105797Y+973000D01*
X+3105700Y+973000D01*
X+3075700Y+943000D02*
X+3075803Y+945489D01*
X+3076645Y+950469D01*
X+3078405Y+955449D01*
X+3081282Y+960429D01*
X+3085683Y+965345D01*
X+3090663Y+968959D01*
X+3095643Y+971264D01*
X+3100623Y+972567D01*
X+3105603Y+973000D01*
X+3105700Y+973000D01*
X+3075700Y+943000D02*
X+3075803Y+940511D01*
X+3076645Y+935531D01*
X+3078405Y+930551D01*
X+3081282Y+925571D01*
X+3085683Y+920655D01*
X+3090663Y+917041D01*
X+3095643Y+914736D01*
X+3100623Y+913433D01*
X+3105603Y+913000D01*
X+3105700Y+913000D01*
X+3135700Y+943000D02*
X+3135597Y+940511D01*
X+3134755Y+935531D01*
X+3132995Y+930551D01*
X+3130118Y+925571D01*
X+3125717Y+920655D01*
X+3120737Y+917041D01*
X+3115757Y+914736D01*
X+3110777Y+913433D01*
X+3105797Y+913000D01*
X+3105700Y+913000D01*
X+3135700Y+1343000D02*
X+3135597Y+1345489D01*
X+3134755Y+1350469D01*
X+3132995Y+1355449D01*
X+3130118Y+1360429D01*
X+3125717Y+1365345D01*
X+3120737Y+1368959D01*
X+3115757Y+1371264D01*
X+3110777Y+1372567D01*
X+3105797Y+1373000D01*
X+3105700Y+1373000D01*
X+3075700Y+1343000D02*
X+3075803Y+1345489D01*
X+3076645Y+1350469D01*
X+3078405Y+1355449D01*
X+3081282Y+1360429D01*
X+3085683Y+1365345D01*
X+3090663Y+1368959D01*
X+3095643Y+1371264D01*
X+3100623Y+1372567D01*
X+3105603Y+1373000D01*
X+3105700Y+1373000D01*
X+3075700Y+1343000D02*
X+3075803Y+1340511D01*
X+3076645Y+1335531D01*
X+3078405Y+1330551D01*
X+3081282Y+1325571D01*
X+3085683Y+1320655D01*
X+3090663Y+1317041D01*
X+3095643Y+1314736D01*
X+3100623Y+1313433D01*
X+3105603Y+1313000D01*
X+3105700Y+1313000D01*
X+3135700Y+1343000D02*
X+3135597Y+1340511D01*
X+3134755Y+1335531D01*
X+3132995Y+1330551D01*
X+3130118Y+1325571D01*
X+3125717Y+1320655D01*
X+3120737Y+1317041D01*
X+3115757Y+1314736D01*
X+3110777Y+1313433D01*
X+3105797Y+1313000D01*
X+3105700Y+1313000D01*
X+73800Y+551800D02*
X+73645Y+555527D01*
X+72389Y+562982D01*
X+69759Y+570437D01*
X+65463Y+577892D01*
X+58893Y+585258D01*
X+51438Y+590691D01*
X+43983Y+594161D01*
X+36528Y+596131D01*
X+29073Y+596799D01*
X+28800Y+596800D01*
X-16200Y+551800D02*
X-16045Y+555527D01*
X-14789Y+562982D01*
X-12159Y+570437D01*
X-7863Y+577892D01*
X-1293Y+585258D01*
X+6162Y+590691D01*
X+13617Y+594161D01*
X+21072Y+596131D01*
X+28527Y+596799D01*
X+28800Y+596800D01*
X-16200Y+551800D02*
X-16045Y+548073D01*
X-14789Y+540618D01*
X-12159Y+533163D01*
X-7863Y+525708D01*
X-1293Y+518342D01*
X+6162Y+512909D01*
X+13617Y+509439D01*
X+21072Y+507469D01*
X+28527Y+506801D01*
X+28800Y+506800D01*
X+73800Y+551800D02*
X+73645Y+548073D01*
X+72389Y+540618D01*
X+69759Y+533163D01*
X+65463Y+525708D01*
X+58893Y+518342D01*
X+51438Y+512909D01*
X+43983Y+509439D01*
X+36528Y+507469D01*
X+29073Y+506801D01*
X+28800Y+506800D01*
X+73800Y+851800D02*
X+73645Y+855527D01*
X+72389Y+862982D01*
X+69759Y+870437D01*
X+65463Y+877892D01*
X+58893Y+885258D01*
X+51438Y+890691D01*
X+43983Y+894161D01*
X+36528Y+896131D01*
X+29073Y+896799D01*
X+28800Y+896800D01*
X-16200Y+851800D02*
X-16045Y+855527D01*
X-14789Y+862982D01*
X-12159Y+870437D01*
X-7863Y+877892D01*
X-1293Y+885258D01*
X+6162Y+890691D01*
X+13617Y+894161D01*
X+21072Y+896131D01*
X+28527Y+896799D01*
X+28800Y+896800D01*
X-16200Y+851800D02*
X-16045Y+848073D01*
X-14789Y+840618D01*
X-12159Y+833163D01*
X-7863Y+825708D01*
X-1293Y+818342D01*
X+6162Y+812909D01*
X+13617Y+809439D01*
X+21072Y+807469D01*
X+28527Y+806801D01*
X+28800Y+806800D01*
X+73800Y+851800D02*
X+73645Y+848073D01*
X+72389Y+840618D01*
X+69759Y+833163D01*
X+65463Y+825708D01*
X+58893Y+818342D01*
X+51438Y+812909D01*
X+43983Y+809439D01*
X+36528Y+807469D01*
X+29073Y+806801D01*
X+28800Y+806800D01*
X+3289150Y+397200D02*
X+3429150Y+397200D01*
X+3429150Y+617200D01*
X+3289150Y+617200D01*
X+3289150Y+397200D01*
D14*
X+3359150Y+557200D02*
X+3359150Y+557200D01*
D69*
X+3372507Y+428995D02*
X+3345793Y+428995D01*
X+3345793Y+454038D01*
X+3350245Y+459047D01*
X+3354698Y+459047D01*
X+3359150Y+454038D01*
X+3359150Y+428995D01*
X+3359150Y+454038D02*
X+3363602Y+459047D01*
X+3372507Y+459047D01*
X+3359150Y+479082D02*
X+3354698Y+474073D01*
X+3350245Y+474073D01*
X+3345793Y+479082D01*
X+3345793Y+494108D01*
X+3350245Y+499117D01*
X+3354698Y+499117D01*
X+3359150Y+494108D01*
X+3359150Y+479082D01*
X+3363602Y+474073D01*
X+3368055Y+474073D01*
X+3372507Y+479082D01*
X+3372507Y+494108D01*
X+3368055Y+499117D01*
X+3363602Y+499117D01*
X+3359150Y+494108D01*
D73*
X+2260605Y+1314450D02*
X+2425705Y+1314450D01*
X+2425705Y+1625600D01*
X+2260605Y+1625600D01*
X+2260605Y+1314450D01*
D74*
X+2343150Y+1390650D02*
X+2343150Y+1390650D01*
D75*
X+2356657Y+1504071D02*
X+2363407Y+1496476D01*
X+2363407Y+1473693D01*
X+2349906Y+1458505D01*
X+2336405Y+1458505D01*
X+2322904Y+1473693D01*
X+2322904Y+1496476D01*
X+2329654Y+1504071D01*
X+2329654Y+1526854D02*
X+2322904Y+1534448D01*
X+2322904Y+1557231D01*
X+2329654Y+1564826D01*
X+2336405Y+1564826D01*
X+2343155Y+1557231D01*
X+2349906Y+1564826D01*
X+2356657Y+1564826D01*
X+2363407Y+1557231D01*
X+2363407Y+1534448D01*
X+2356657Y+1526854D01*
X+2343155Y+1542043D02*
X+2343155Y+1557231D01*
D73*
X+1962000Y+1311600D02*
X+2102000Y+1311600D01*
X+2102000Y+1531600D01*
X+1962000Y+1531600D01*
X+1962000Y+1311600D01*
D14*
X+2032000Y+1371600D02*
X+2032000Y+1371600D01*
D69*
X+2040905Y+1449717D02*
X+2045357Y+1444708D01*
X+2045357Y+1429682D01*
X+2036452Y+1419665D01*
X+2027548Y+1419665D01*
X+2018643Y+1429682D01*
X+2018643Y+1444708D01*
X+2023095Y+1449717D01*
X+2036452Y+1489787D02*
X+2036452Y+1459735D01*
X+2018643Y+1479770D01*
X+2045357Y+1479770D01*
D73*
X+2793850Y+397200D02*
X+2933850Y+397200D01*
X+2933850Y+617200D01*
X+2793850Y+617200D01*
X+2793850Y+397200D01*
D14*
X+2863850Y+457200D02*
X+2863850Y+457200D01*
D69*
X+2877207Y+505265D02*
X+2850493Y+505265D01*
X+2850493Y+530308D01*
X+2854945Y+535317D01*
X+2859398Y+535317D01*
X+2863850Y+530308D01*
X+2863850Y+505265D01*
X+2863850Y+530308D02*
X+2868302Y+535317D01*
X+2877207Y+535317D01*
X+2868302Y+575387D02*
X+2868302Y+545335D01*
X+2850493Y+565370D01*
X+2877207Y+565370D01*
D73*
X+2635100Y+397200D02*
X+2775100Y+397200D01*
X+2775100Y+617200D01*
X+2635100Y+617200D01*
X+2635100Y+397200D01*
D14*
X+2705100Y+457200D02*
X+2705100Y+457200D01*
D69*
X+2718457Y+505265D02*
X+2691743Y+505265D01*
X+2691743Y+530308D01*
X+2696195Y+535317D01*
X+2700648Y+535317D01*
X+2705100Y+530308D01*
X+2705100Y+505265D01*
X+2705100Y+530308D02*
X+2709552Y+535317D01*
X+2718457Y+535317D01*
X+2691743Y+575387D02*
X+2691743Y+550343D01*
X+2700648Y+550343D01*
X+2700648Y+570378D01*
X+2705100Y+575387D01*
X+2714005Y+575387D01*
X+2718457Y+570378D01*
X+2718457Y+555352D01*
X+2714005Y+550343D01*
D73*
X+2498950Y+1813250D02*
X+2638950Y+1813250D01*
X+2638950Y+2033250D01*
X+2498950Y+2033250D01*
X+2498950Y+1813250D01*
D14*
X+2568950Y+1873250D02*
X+2568950Y+1873250D01*
D69*
X+2582307Y+1921315D02*
X+2555593Y+1921315D01*
X+2555593Y+1946358D01*
X+2560045Y+1951367D01*
X+2564498Y+1951367D01*
X+2568950Y+1946358D01*
X+2568950Y+1921315D01*
X+2568950Y+1946358D02*
X+2573402Y+1951367D01*
X+2582307Y+1951367D01*
X+2560045Y+1991437D02*
X+2555593Y+1986428D01*
X+2555593Y+1971402D01*
X+2560045Y+1966393D01*
X+2577855Y+1966393D01*
X+2582307Y+1971402D01*
X+2582307Y+1986428D01*
X+2577855Y+1991437D01*
X+2573402Y+1991437D01*
X+2568950Y+1986428D01*
X+2568950Y+1966393D01*
D73*
X+2664050Y+1813250D02*
X+2804050Y+1813250D01*
X+2804050Y+2033250D01*
X+2664050Y+2033250D01*
X+2664050Y+1813250D01*
D14*
X+2734050Y+1873250D02*
X+2734050Y+1873250D01*
D69*
X+2747407Y+1921315D02*
X+2720693Y+1921315D01*
X+2720693Y+1946358D01*
X+2725145Y+1951367D01*
X+2729598Y+1951367D01*
X+2734050Y+1946358D01*
X+2734050Y+1921315D01*
X+2734050Y+1946358D02*
X+2738502Y+1951367D01*
X+2747407Y+1951367D01*
X+2720693Y+1966393D02*
X+2720693Y+1991437D01*
X+2725145Y+1991437D01*
X+2747407Y+1966393D01*
D73*
X+1962000Y+1535450D02*
X+2102000Y+1535450D01*
X+2102000Y+1755450D01*
X+1962000Y+1755450D01*
X+1962000Y+1535450D01*
D14*
X+2032000Y+1695450D02*
X+2032000Y+1695450D01*
D69*
X+2040905Y+1597297D02*
X+2045357Y+1592288D01*
X+2045357Y+1577262D01*
X+2036452Y+1567245D01*
X+2027548Y+1567245D01*
X+2018643Y+1577262D01*
X+2018643Y+1592288D01*
X+2023095Y+1597297D01*
X+2023095Y+1637367D02*
X+2018643Y+1632358D01*
X+2018643Y+1617332D01*
X+2023095Y+1612323D01*
X+2040905Y+1612323D01*
X+2045357Y+1617332D01*
X+2045357Y+1632358D01*
X+2040905Y+1637367D01*
X+2036452Y+1637367D01*
X+2032000Y+1632358D01*
X+2032000Y+1612323D01*
M02*
