M48
METRIC,TZ
T01C0.3050
T02C0.9500
T03C0.6000
%
T01
X+59760Y+24900
X+61360Y+31300
X+57404Y+23800
X+10922Y+24550
X+10922Y+28173
X+12522Y+24550
X+17681Y+26052
X+26366Y+26252
X+23376Y+24202
X+23376Y+30848
X+11303Y+5715
X+11938Y+7302
X+3877Y+4381
X+2416Y+21577
X+4866Y+22177
X+12578Y+8888
X+40606Y+28346
X+16678Y+30865
X+12522Y+31662
X+14207Y+29728
X+4857Y+39446
X+4866Y+28877
X+2416Y+29477
X+18081Y+32638
X+4857Y+46975
X+53177Y+36713
X+54777Y+36713
X+57912Y+23000
X+10344Y+45251
X+18081Y+30860
X+17681Y+21372
X+12522Y+23280
X+7442Y+39854
X+8966Y+39854
X+6909Y+37707
X+47780Y+35926
X+51780Y+34148
X+50580Y+39720
X+46004Y+27788
X+46004Y+25820
X+46004Y+22200
X+57404Y+29870
X+26366Y+25236
X+47780Y+21224
X+49380Y+21224
X+48580Y+21732
X+13998Y+21372
X+26366Y+24284
X+26488Y+30860
X+15218Y+30992
X+24888Y+30860
X+46672Y+39688
X+48580Y+32751
X+45433Y+34148
X+24455Y+12655
X+58893Y+18550
X+34544Y+6540
X+14202Y+30992
X+42384Y+21400
X+42384Y+19520
X+14887Y+20864
X+43251Y+11258
X+13172Y+20864
X+35504Y+11258
X+33904Y+11258
X+39377Y+11258
X+19396Y+20864
X+20094Y+21562
X+18081Y+34288
X+50980Y+29576
X+40606Y+32474
X+22352Y+20066
X+52580Y+29576
X+64391Y+48182
X+30861Y+6540
X+14928Y+6864
X+42575Y+29362
X+45433Y+35418
X+50180Y+21732
X+42575Y+28308
X+51907Y+40926
X+43335Y+35418
X+46980Y+32751
X+57023Y+17780
X+50815Y+32751
X+49888Y+32751
X+45433Y+36688
X+42037Y+48260
X+49691Y+39720
X+35504Y+17164
X+50800Y+23368
X+46893Y+22200
X+39006Y+26696
X+22352Y+19054
X+24130Y+18860
X+39006Y+18250
X+26647Y+21372
X+40606Y+22959
X+40606Y+26696
X+44480Y+25400
X+29111Y+47642
X+29746Y+48308
X+13214Y+46902
X+39652Y+36688
X+30861Y+7430
X+17062Y+6864
X+17951Y+6864
X+46091Y+32751
X+61341Y+5080
X+42385Y+22670
X+43815Y+20066
X+2540Y+7620
X+2540Y+12827
X+19396Y+18324
X+43335Y+34148
X+52580Y+21224
X+40767Y+49911
X+35687Y+49911
X+1270Y+1270
X+13526Y+1270
X+18440Y+2032
X+25740Y+4132
X+25740Y+2032
X+29591Y+3556
X+32131Y+3556
X+34671Y+3556
X+21590Y+5715
X+15462Y+8642
X+11303Y+4254
X+9970Y+3175
X+2416Y+4331
X+6223Y+5715
X+8763Y+8255
X+12510Y+21908
X+16383Y+10795
X+13843Y+8255
X+18923Y+13335
X+21463Y+15875
X+24455Y+10750
X+21331Y+12655
X+26543Y+8255
X+29083Y+10795
X+31623Y+18415
X+26543Y+18415
X+29083Y+15875
X+32830Y+16828
X+32258Y+10795
X+34163Y+8255
X+39243Y+8255
X+44323Y+8255
X+49403Y+8255
X+46863Y+5715
X+51943Y+5715
X+46863Y+10795
X+51943Y+10795
X+49403Y+13335
X+51943Y+15875
X+41783Y+14034
X+39243Y+5715
X+43434Y+5715
X+58801Y+7620
X+56261Y+10160
X+58166Y+12700
X+56261Y+15240
X+58484Y+21146
X+56261Y+18478
X+61341Y+15240
X+61341Y+10160
X+63881Y+12700
X+66421Y+10160
X+66421Y+15240
X+63881Y+17780
X+66421Y+20320
X+61893Y+21280
X+61893Y+18550
X+66421Y+25400
X+66421Y+30480
X+58039Y+28575
X+56324Y+30290
X+61341Y+38100
X+66421Y+38100
X+61341Y+43180
X+61341Y+48260
X+64960Y+40640
X+64960Y+45720
X+56261Y+45720
X+53721Y+43180
X+51181Y+45720
X+46101Y+45720
X+48641Y+43180
X+56261Y+40640
X+56261Y+35560
X+52705Y+32766
X+44132Y+39688
X+41592Y+42228
X+40513Y+45720
X+35941Y+45720
X+38481Y+48260
X+33401Y+48260
X+37973Y+40640
X+33401Y+40640
X+30861Y+43180
X+35941Y+38100
X+38481Y+35560
X+39024Y+32491
X+35941Y+33020
X+33401Y+35560
X+30861Y+33020
X+30861Y+38100
X+25781Y+40640
X+25781Y+35560
X+25781Y+45720
X+23241Y+48260
X+20701Y+45720
X+23241Y+43180
X+23241Y+38100
X+23241Y+33020
X+23376Y+22932
X+39006Y+22949
X+38473Y+24765
X+33926Y+22949
X+31386Y+25489
X+36466Y+25489
X+33926Y+28029
X+28846Y+22949
X+8382Y+24550
X+8382Y+22010
X+5842Y+19470
X+2416Y+24117
X+2416Y+26657
X+7496Y+31737
X+3242Y+34684
X+10036Y+36055
X+12522Y+33313
X+14862Y+36309
X+18402Y+36107
X+18272Y+39353
X+16557Y+39362
X+16557Y+41258
X+2607Y+44046
X+2607Y+46975
X+2607Y+51575
X+11430Y+52070
X+17780Y+52070
X+13208Y+49530
X+6350Y+46990
X+7442Y+42854
X+14002Y+44052
X+11944Y+42902
X+43688Y+31242
X+46228Y+29464
X+49530Y+29210
X+48514Y+26670
X+46736Y+25146
X+49403Y+23368
X+53340Y+23368
X+53975Y+27940
X+36703Y+14034
X+48641Y+48245
X+53736Y+48245
X+12065Y+39370
X+5909Y+51575
X+17780Y+17272
T02
X+46101Y+50800
X+48641Y+50800
X+51181Y+50800
X+53721Y+50800
X+56261Y+50800
X+58801Y+50800
X+61341Y+50800
X+63881Y+50800
X+19177Y+50800
X+21717Y+50800
X+24257Y+50800
X+26797Y+50800
X+29337Y+50800
X+31877Y+50800
X+34417Y+50800
X+36957Y+50800
X+39497Y+50800
X+42037Y+50800
X+28321Y+2540
X+30861Y+2540
X+33401Y+2540
X+35941Y+2540
X+38481Y+2540
X+41021Y+2540
X+43561Y+2540
X+46101Y+2540
X+48641Y+2540
X+51181Y+2540
X+53721Y+2540
X+56261Y+2540
X+58801Y+2540
X+61341Y+2540
X+63881Y+2540
T03
X+8890Y+2032
X+7620Y+2032
X+6350Y+2032
X+8890Y+3302
X+7620Y+3302
X+6350Y+3302
M30
