M48
METRIC,TZ
T01C0.3050
T02C0.9500
T03C0.6000
%
T01
X+14046Y+23340
X+10507Y+24198
X+11916Y+27563
X+15296Y+32650
X+11916Y+28452
X+11916Y+29341
X+11028Y+28452
X+13208Y+34417
X+16966Y+29970
X+18490Y+29526
X+16948Y+32650
X+11931Y+33184
X+4857Y+46975
X+16541Y+46975
X+13556Y+24154
X+3877Y+15494
X+13347Y+22705
X+20504Y+31050
X+18744Y+21626
X+16948Y+34352
X+12107Y+24198
X+17094Y+21626
X+43529Y+31304
X+23692Y+21391
X+47752Y+25527
X+6934Y+20026
X+3242Y+34684
X+3877Y+10223
X+5664Y+20026
X+6934Y+18756
X+9970Y+3112
X+9970Y+6350
X+23692Y+20502
X+23692Y+19613
X+16966Y+26052
X+45847Y+25527
X+49657Y+25527
X+47752Y+23622
X+47752Y+27432
X+47752Y+21082
X+19177Y+49276
X+33147Y+49276
X+38227Y+49276
X+38227Y+44196
X+40767Y+46736
X+43307Y+44196
X+45847Y+46736
X+45847Y+41656
X+43307Y+39116
X+40767Y+41656
X+45847Y+36576
X+49911Y+49276
X+49911Y+44196
X+49911Y+39116
X+49911Y+34036
X+52451Y+46736
X+52451Y+41656
X+52451Y+36576
X+54991Y+49276
X+54991Y+44196
X+54991Y+39116
X+54991Y+34036
X+57531Y+46736
X+57531Y+41656
X+57531Y+36576
X+60071Y+49276
X+60071Y+44196
X+60071Y+39116
X+62611Y+46736
X+62611Y+41656
X+65151Y+49276
X+65151Y+44196
X+65151Y+39116
X+62611Y+36576
X+62611Y+31496
X+67691Y+31496
X+67691Y+26416
X+67691Y+21336
X+67691Y+16256
X+67691Y+11176
X+65151Y+13716
X+65151Y+18796
X+65151Y+23876
X+65151Y+28956
X+62611Y+26416
X+62611Y+21336
X+62611Y+16256
X+60071Y+18796
X+57531Y+21336
X+54991Y+23876
X+52451Y+26416
X+54991Y+28956
X+57531Y+31496
X+60071Y+34036
X+60071Y+28956
X+60071Y+23876
X+57531Y+26416
X+62611Y+52451
X+57531Y+52451
X+52451Y+52451
X+47371Y+52451
X+43307Y+49276
X+65151Y+1016
X+60071Y+1016
X+54991Y+1016
X+62611Y+3937
X+62611Y+9017
X+60071Y+6477
X+60071Y+11557
X+57531Y+16637
X+54991Y+19177
X+52451Y+21717
X+57531Y+3937
X+57531Y+9017
X+57531Y+14097
X+54991Y+6477
X+54991Y+11557
X+52451Y+14097
X+52451Y+9017
X+52451Y+3937
X+50546Y+6477
X+50546Y+11557
X+50546Y+16637
X+42291Y+24257
X+39751Y+26797
X+37211Y+29337
X+32131Y+34417
X+29591Y+36957
X+27051Y+39497
X+24511Y+42037
X+24511Y+36957
X+24511Y+31877
X+27051Y+34417
X+16891Y+14097
X+11811Y+9017
X+14351Y+11557
X+11811Y+14097
X+9271Y+11557
X+6731Y+9017
X+6731Y+14097
X+19431Y+1397
X+11811Y+1397
X+1651Y+1397
X+18872Y+18438
X+17094Y+18438
X+17094Y+20026
X+15404Y+21626
X+13792Y+21626
X+9537Y+21626
X+6934Y+21626
X+4866Y+22177
X+21971Y+34417
X+19431Y+36957
X+21971Y+39497
X+19431Y+42037
X+21971Y+44577
X+35687Y+46736
X+35687Y+41656
X+38227Y+39116
X+40767Y+36576
X+43307Y+34036
X+33147Y+44196
X+30607Y+46736
X+28067Y+44196
X+25527Y+46736
X+22987Y+49276
X+16891Y+44577
X+16891Y+39497
X+20504Y+32650
X+18726Y+33184
X+11811Y+44577
X+11811Y+39497
X+9271Y+36957
X+9271Y+42037
X+6731Y+44577
X+6731Y+39497
X+6731Y+34417
X+11811Y+49657
X+6731Y+49657
X+9271Y+52197
X+4191Y+49657
X+1651Y+52197
X+1651Y+47117
X+1651Y+42037
X+1651Y+36957
X+1651Y+31877
X+10153Y+32650
X+2416Y+29477
X+1651Y+26797
X+1651Y+21717
X+22092Y+24630
X+22092Y+26280
X+23692Y+24630
X+20955Y+24194
X+21590Y+23050
X+37211Y+24257
X+39751Y+21717
X+42291Y+19177
X+47371Y+19177
X+44831Y+16637
X+39751Y+16637
X+37211Y+19177
X+34671Y+16637
X+32131Y+19177
X+29591Y+16637
X+27051Y+19177
X+27051Y+14097
X+32131Y+14097
X+37211Y+14097
X+42291Y+14097
X+47371Y+14097
X+44831Y+11557
X+39751Y+11557
X+34671Y+11557
X+29591Y+11557
X+32131Y+9017
X+37211Y+9017
X+42291Y+9017
X+47371Y+9017
X+44831Y+6477
X+39751Y+6477
X+37211Y+3937
X+34671Y+6477
X+27051Y+6477
X+29591Y+3937
X+21971Y+3937
X+19431Y+6477
X+21971Y+9017
X+11811Y+6477
X+14351Y+9017
X+16891Y+11557
X+19431Y+14097
X+21146Y+19685
X+25273Y+27051
X+25273Y+22606
T02
X+46101Y+50800
X+48641Y+50800
X+51181Y+50800
X+53721Y+50800
X+56261Y+50800
X+58801Y+50800
X+61341Y+50800
X+63881Y+50800
X+19177Y+50800
X+21717Y+50800
X+24257Y+50800
X+26797Y+50800
X+29337Y+50800
X+31877Y+50800
X+34417Y+50800
X+36957Y+50800
X+39497Y+50800
X+42037Y+50800
X+23241Y+2540
X+25781Y+2540
X+28321Y+2540
X+30861Y+2540
X+33401Y+2540
X+35941Y+2540
X+38481Y+2540
X+41021Y+2540
X+43561Y+2540
X+46101Y+2540
X+48641Y+2540
X+51181Y+2540
X+53721Y+2540
X+56261Y+2540
X+58801Y+2540
X+61341Y+2540
X+63881Y+2540
T03
X+8890Y+2032
X+7620Y+2032
X+6350Y+2032
X+8890Y+3302
X+7620Y+3302
X+6350Y+3302
M30
