M48
METRIC,TZ
T01C0.3050
T02C0.9500
T03C0.6000
%
T01
X+30757Y+14780
X+33207Y+15380
X+28067Y+12412
X+30757Y+8080
X+33207Y+7480
X+26924Y+7798
X+28575Y+7768
X+28575Y+6879
X+26924Y+9398
X+29591Y+5572
X+31242Y+5572
X+33592Y+1636
X+23748Y+7462
X+22605Y+7462
X+27876Y+3302
X+26352Y+3302
X+22621Y+6494
X+20430Y+9480
X+31774Y+1918
X+24448Y+2413
X+15646Y+5094
X+15621Y+14478
X+20053Y+11288
X+1338Y+10668
X+2038Y+9268
X+2038Y+4768
X+3181Y+4768
X+25400Y+3302
X+3181Y+6268
X+28638Y+15506
X+21336Y+13144
X+23432Y+13906
X+21908Y+15430
X+26642Y+19732
X+24991Y+19732
X+24038Y+19732
X+20320Y+15304
X+4070Y+6268
X+15246Y+20111
X+28928Y+19732
X+16135Y+20111
X+19431Y+15304
X+3181Y+9268
X+28638Y+16396
X+23022Y+19732
X+24003Y+17780
X+19240Y+12510
X+21463Y+17780
X+16383Y+17780
X+9144Y+12700
X+6604Y+10160
X+4064Y+7620
X+1338Y+3368
X-762Y+3368
X-762Y+10668
X+18542Y+6766
X+18669Y+13716
X+14224Y+12700
X+11684Y+10160
X+16764Y+10160
X+24384Y+5080
X+19431Y+2286
X+16764Y+2540
X+14224Y+2540
X+11684Y+2540
X+9144Y+2540
X+6477Y+2540
X+29464Y+0
X+28638Y+13906
X+27318Y+17830
X+23423Y+10455
X+32004Y+17780
X+20320Y+20320
X+10160Y+20320
X+2540Y+20320
X+5080Y+20320
X+7620Y+20320
X+2540Y+15240
X+5080Y+17780
X+5080Y+12700
T02
X+25400Y+22860
X+22860Y+22860
X+20320Y+22860
X+17780Y+22860
X+15240Y+22860
X+11430Y+22860
X+8890Y+22860
X+6350Y+22860
X+3810Y+22860
X+1270Y+22860
X+0Y+0
X+2540Y+0
X+5080Y+0
X+7620Y+0
X+10160Y+0
X+12700Y+0
X+15240Y+0
X+17780Y+0
X+20320Y+0
X+22860Y+0
X+25400Y+0
X+27940Y+0
X+25400Y+22860
X+22860Y+22860
X+20320Y+22860
X+17780Y+22860
X+15240Y+22860
X+11430Y+22860
X+8890Y+22860
X+6350Y+22860
X+3810Y+22860
X+1270Y+22860
X+0Y+0
X+2540Y+0
X+5080Y+0
X+7620Y+0
X+10160Y+0
X+12700Y+0
X+15240Y+0
X+17780Y+0
X+20320Y+0
X+22860Y+0
X+25400Y+0
X+27940Y+0
T03
X+27940Y+22860
X+27940Y+21590
X+29210Y+22860
X+29210Y+21590
X+30480Y+22860
X+30480Y+21590
X+31750Y+22860
X+31750Y+21590
M30
