G04 PROTEUS RS274X GERBER FILE*
%FSLAX45Y45*%
%MOMM*%
G01*
%ADD47C,1.854000*%
%AMPPAD042*
4,1,36,
0.239380,-0.675620,
-0.460170,0.040210,
-0.477820,0.059650,
-0.495560,0.083530,
-0.510760,0.108850,
-0.523220,0.135260,
-0.532970,0.162520,
-0.539950,0.190470,
-0.544160,0.218860,
-0.545560,0.247520,
-0.544150,0.276130,
-0.539950,0.304470,
-0.532970,0.332450,
-0.523210,0.359750,
-0.510740,0.386110,
-0.495580,0.411410,
-0.477820,0.435320,
-0.457600,0.457600,
-0.435320,0.477820,
-0.411410,0.495580,
-0.386110,0.510740,
-0.359750,0.523210,
-0.332450,0.532970,
-0.304470,0.539950,
-0.276130,0.544150,
-0.247520,0.545560,
-0.218860,0.544160,
-0.190470,0.539950,
-0.162520,0.532970,
-0.135260,0.523220,
-0.108850,0.510760,
-0.083530,0.495560,
-0.059650,0.477820,
-0.131540,0.543040,
-0.120210,0.554370,
0.674580,-0.240420,
0.239380,-0.675620,
0*%
%ADD48PPAD042*%
%AMPPAD043*
4,1,35,
0.674580,0.240420,
-0.032590,-0.466750,
-0.053360,-0.485600,
-0.078080,-0.503960,
-0.104210,-0.519620,
-0.131490,-0.532520,
-0.159700,-0.542600,
-0.188580,-0.549830,
-0.217920,-0.554160,
-0.247490,-0.555620,
-0.277060,-0.554160,
-0.306370,-0.549830,
-0.335290,-0.542610,
-0.363480,-0.532520,
-0.390770,-0.519630,
-0.416930,-0.503930,
-0.441620,-0.485600,
-0.464680,-0.464680,
-0.485600,-0.441620,
-0.503930,-0.416930,
-0.519630,-0.390770,
-0.532520,-0.363480,
-0.542610,-0.335290,
-0.549830,-0.306370,
-0.554160,-0.277060,
-0.555620,-0.247490,
-0.554160,-0.217920,
-0.549830,-0.188580,
-0.542600,-0.159700,
-0.532520,-0.131490,
-0.519620,-0.104210,
-0.503960,-0.078080,
-0.485600,-0.053360,
-0.466750,-0.032590,
0.240420,0.674580,
0.674580,0.240420,
0*%
%ADD49PPAD043*%
%AMPPAD044*
4,1,36,
-0.239380,0.675620,
0.460170,-0.040210,
0.477820,-0.059650,
0.495560,-0.083530,
0.510760,-0.108850,
0.523220,-0.135260,
0.532970,-0.162520,
0.539950,-0.190470,
0.544160,-0.218860,
0.545560,-0.247520,
0.544150,-0.276130,
0.539950,-0.304470,
0.532970,-0.332450,
0.523210,-0.359750,
0.510740,-0.386110,
0.495580,-0.411410,
0.477820,-0.435320,
0.457600,-0.457600,
0.435320,-0.477820,
0.411410,-0.495580,
0.386110,-0.510740,
0.359750,-0.523210,
0.332450,-0.532970,
0.304470,-0.539950,
0.276130,-0.544150,
0.247520,-0.545560,
0.218860,-0.544160,
0.190470,-0.539950,
0.162520,-0.532970,
0.135260,-0.523220,
0.108850,-0.510760,
0.083530,-0.495560,
0.059650,-0.477820,
0.131540,-0.543040,
0.120210,-0.554370,
-0.674580,0.240420,
-0.239380,0.675620,
0*%
%ADD50PPAD044*%
%AMPPAD045*
4,1,35,
-0.674580,-0.240420,
0.032590,0.466750,
0.053360,0.485600,
0.078080,0.503960,
0.104210,0.519620,
0.131490,0.532520,
0.159700,0.542600,
0.188580,0.549830,
0.217920,0.554160,
0.247490,0.555620,
0.277060,0.554160,
0.306370,0.549830,
0.335290,0.542610,
0.363480,0.532520,
0.390770,0.519630,
0.416930,0.503930,
0.441620,0.485600,
0.464680,0.464680,
0.485600,0.441620,
0.503930,0.416930,
0.519630,0.390770,
0.532520,0.363480,
0.542610,0.335290,
0.549830,0.306370,
0.554160,0.277060,
0.555620,0.247490,
0.554160,0.217920,
0.549830,0.188580,
0.542600,0.159700,
0.532520,0.131490,
0.519620,0.104210,
0.503960,0.078080,
0.485600,0.053360,
0.466750,0.032590,
-0.240420,-0.674580,
-0.674580,-0.240420,
0*%
%ADD51PPAD045*%
%AMPPAD046*
4,1,36,
-2.706100,0.089800,
-0.089800,2.706100,
-0.069650,2.722670,
-0.047530,2.734510,
-0.024090,2.741620,
0.000000,2.743980,
0.024100,2.741610,
0.047530,2.734510,
0.069650,2.722670,
0.089800,2.706100,
2.706100,0.089800,
2.722670,0.069650,
2.734510,0.047530,
2.741610,0.024100,
2.743980,0.000000,
2.741620,-0.024090,
2.734510,-0.047530,
2.722670,-0.069650,
2.706100,-0.089800,
0.089800,-2.706100,
0.069650,-2.722670,
0.047530,-2.734510,
0.024090,-2.741620,
0.000000,-2.743980,
-0.024100,-2.741610,
-0.047530,-2.734510,
-0.069650,-2.722670,
-0.089800,-2.706100,
-2.706100,-0.089800,
-2.722670,-0.069650,
-2.734510,-0.047530,
-2.741610,-0.024100,
-2.743980,0.000000,
-2.741620,0.024090,
-2.734510,0.047530,
-2.722670,0.069650,
-2.706100,0.089800,
0*%
%ADD52PPAD046*%
%AMPPAD047*
4,1,48,
-0.552000,-0.023800,
-0.552000,0.023800,
-0.550970,0.044920,
-0.547960,0.065350,
-0.543040,0.085000,
-0.527890,0.121580,
-0.506270,0.153910,
-0.478920,0.181270,
-0.446580,0.202890,
-0.410000,0.218040,
-0.390350,0.222960,
-0.369920,0.225970,
-0.348800,0.227000,
0.348800,0.227000,
0.369920,0.225970,
0.390350,0.222960,
0.410000,0.218040,
0.446580,0.202890,
0.478920,0.181270,
0.506270,0.153910,
0.527890,0.121580,
0.543040,0.085000,
0.547960,0.065350,
0.550970,0.044920,
0.552000,0.023800,
0.552000,-0.023800,
0.550970,-0.044920,
0.547960,-0.065350,
0.543040,-0.085000,
0.527890,-0.121580,
0.506270,-0.153910,
0.478920,-0.181270,
0.446580,-0.202890,
0.410000,-0.218040,
0.390350,-0.222960,
0.369920,-0.225970,
0.348800,-0.227000,
-0.348800,-0.227000,
-0.369920,-0.225970,
-0.390350,-0.222960,
-0.410000,-0.218040,
-0.446580,-0.202890,
-0.478920,-0.181270,
-0.506270,-0.153910,
-0.527890,-0.121580,
-0.543040,-0.085000,
-0.547960,-0.065350,
-0.550970,-0.044920,
-0.552000,-0.023800,
0*%
%ADD53PPAD047*%
%AMPPAD048*
4,1,48,
0.023800,-0.552000,
-0.023800,-0.552000,
-0.044920,-0.550970,
-0.065350,-0.547960,
-0.085000,-0.543040,
-0.121580,-0.527890,
-0.153910,-0.506270,
-0.181270,-0.478920,
-0.202890,-0.446580,
-0.218040,-0.410000,
-0.222960,-0.390350,
-0.225970,-0.369920,
-0.227000,-0.348800,
-0.227000,0.348800,
-0.225970,0.369920,
-0.222960,0.390350,
-0.218040,0.410000,
-0.202890,0.446580,
-0.181270,0.478920,
-0.153910,0.506270,
-0.121580,0.527890,
-0.085000,0.543040,
-0.065350,0.547960,
-0.044920,0.550970,
-0.023800,0.552000,
0.023800,0.552000,
0.044920,0.550970,
0.065350,0.547960,
0.085000,0.543040,
0.121580,0.527890,
0.153910,0.506270,
0.181270,0.478920,
0.202890,0.446580,
0.218040,0.410000,
0.222960,0.390350,
0.225970,0.369920,
0.227000,0.348800,
0.227000,-0.348800,
0.225970,-0.369920,
0.222960,-0.390350,
0.218040,-0.410000,
0.202890,-0.446580,
0.181270,-0.478920,
0.153910,-0.506270,
0.121580,-0.527890,
0.085000,-0.543040,
0.065350,-0.547960,
0.044920,-0.550970,
0.023800,-0.552000,
0*%
%ADD54PPAD048*%
%AMPPAD049*
4,1,44,
0.746000,-1.127000,
-0.746000,-1.127000,
-0.785600,-1.125080,
-0.823900,-1.119420,
-0.895940,-1.097610,
-0.960730,-1.062960,
-1.016870,-1.016870,
-1.062960,-0.960730,
-1.097610,-0.895940,
-1.119420,-0.823900,
-1.125080,-0.785600,
-1.127000,-0.746000,
-1.127000,0.746000,
-1.125080,0.785600,
-1.119420,0.823900,
-1.097610,0.895940,
-1.062960,0.960730,
-1.016870,1.016870,
-0.960730,1.062960,
-0.895940,1.097610,
-0.823900,1.119420,
-0.785600,1.125080,
-0.746000,1.127000,
0.746000,1.127000,
0.785600,1.125080,
0.823900,1.119420,
0.895940,1.097610,
0.960730,1.062960,
1.016870,1.016870,
1.062960,0.960730,
1.097610,0.895940,
1.119420,0.823900,
1.125080,0.785600,
1.127000,0.746000,
1.127000,-0.746000,
1.125080,-0.785600,
1.119420,-0.823900,
1.097610,-0.895940,
1.062960,-0.960730,
1.016870,-1.016870,
0.960730,-1.062960,
0.895940,-1.097610,
0.823900,-1.119420,
0.785600,-1.125080,
0.746000,-1.127000,
0*%
%ADD55PPAD049*%
%AMPPAD050*
4,1,36,
0.390000,-0.517000,
-0.390000,-0.517000,
-0.415970,-0.514470,
-0.439980,-0.507200,
-0.461580,-0.495650,
-0.480290,-0.480290,
-0.495650,-0.461570,
-0.507200,-0.439980,
-0.514470,-0.415970,
-0.517000,-0.390000,
-0.517000,0.390000,
-0.514470,0.415970,
-0.507200,0.439980,
-0.495650,0.461570,
-0.480290,0.480290,
-0.461580,0.495650,
-0.439980,0.507200,
-0.415970,0.514470,
-0.390000,0.517000,
0.390000,0.517000,
0.415970,0.514470,
0.439980,0.507200,
0.461580,0.495650,
0.480290,0.480290,
0.495650,0.461570,
0.507200,0.439980,
0.514470,0.415970,
0.517000,0.390000,
0.517000,-0.390000,
0.514470,-0.415970,
0.507200,-0.439980,
0.495650,-0.461570,
0.480290,-0.480290,
0.461580,-0.495650,
0.439980,-0.507200,
0.415970,-0.514470,
0.390000,-0.517000,
0*%
%ADD56PPAD050*%
%AMPPAD051*
4,1,36,
0.977000,0.200000,
0.977000,-0.200000,
0.974470,-0.225970,
0.967200,-0.249980,
0.955650,-0.271580,
0.940290,-0.290290,
0.921570,-0.305650,
0.899980,-0.317200,
0.875970,-0.324470,
0.850000,-0.327000,
-0.850000,-0.327000,
-0.875970,-0.324470,
-0.899980,-0.317200,
-0.921570,-0.305650,
-0.940290,-0.290290,
-0.955650,-0.271580,
-0.967200,-0.249980,
-0.974470,-0.225970,
-0.977000,-0.200000,
-0.977000,0.200000,
-0.974470,0.225970,
-0.967200,0.249980,
-0.955650,0.271580,
-0.940290,0.290290,
-0.921570,0.305650,
-0.899980,0.317200,
-0.875970,0.324470,
-0.850000,0.327000,
0.850000,0.327000,
0.875970,0.324470,
0.899980,0.317200,
0.921570,0.305650,
0.940290,0.290290,
0.955650,0.271580,
0.967200,0.249980,
0.974470,0.225970,
0.977000,0.200000,
0*%
%ADD57PPAD051*%
%AMPPAD052*
4,1,36,
1.077000,0.950000,
1.077000,-0.950000,
1.074470,-0.975970,
1.067200,-0.999980,
1.055650,-1.021580,
1.040290,-1.040290,
1.021570,-1.055650,
0.999980,-1.067200,
0.975970,-1.074470,
0.950000,-1.077000,
-0.950000,-1.077000,
-0.975970,-1.074470,
-0.999980,-1.067200,
-1.021570,-1.055650,
-1.040290,-1.040290,
-1.055650,-1.021580,
-1.067200,-0.999980,
-1.074470,-0.975970,
-1.077000,-0.950000,
-1.077000,0.950000,
-1.074470,0.975970,
-1.067200,0.999980,
-1.055650,1.021580,
-1.040290,1.040290,
-1.021570,1.055650,
-0.999980,1.067200,
-0.975970,1.074470,
-0.950000,1.077000,
0.950000,1.077000,
0.975970,1.074470,
0.999980,1.067200,
1.021570,1.055650,
1.040290,1.040290,
1.055650,1.021580,
1.067200,0.999980,
1.074470,0.975970,
1.077000,0.950000,
0*%
%ADD58PPAD052*%
%AMPPAD053*
4,1,36,
0.877000,0.750000,
0.877000,-0.750000,
0.874470,-0.775970,
0.867200,-0.799980,
0.855650,-0.821580,
0.840290,-0.840290,
0.821570,-0.855650,
0.799980,-0.867200,
0.775970,-0.874470,
0.750000,-0.877000,
-0.750000,-0.877000,
-0.775970,-0.874470,
-0.799980,-0.867200,
-0.821570,-0.855650,
-0.840290,-0.840290,
-0.855650,-0.821580,
-0.867200,-0.799980,
-0.874470,-0.775970,
-0.877000,-0.750000,
-0.877000,0.750000,
-0.874470,0.775970,
-0.867200,0.799980,
-0.855650,0.821580,
-0.840290,0.840290,
-0.821570,0.855650,
-0.799980,0.867200,
-0.775970,0.874470,
-0.750000,0.877000,
0.750000,0.877000,
0.775970,0.874470,
0.799980,0.867200,
0.821570,0.855650,
0.840290,0.840290,
0.855650,0.821580,
0.867200,0.799980,
0.874470,0.775970,
0.877000,0.750000,
0*%
%ADD59PPAD053*%
%AMPPAD054*
4,1,48,
0.323000,-0.577000,
-0.323000,-0.577000,
-0.349400,-0.575720,
-0.374930,-0.571950,
-0.399490,-0.565800,
-0.445220,-0.546870,
-0.485650,-0.519840,
-0.519840,-0.485640,
-0.546860,-0.445220,
-0.565800,-0.399490,
-0.571950,-0.374930,
-0.575720,-0.349400,
-0.577000,-0.323000,
-0.577000,0.323000,
-0.575720,0.349400,
-0.571950,0.374930,
-0.565800,0.399490,
-0.546860,0.445220,
-0.519840,0.485640,
-0.485650,0.519840,
-0.445220,0.546870,
-0.399490,0.565800,
-0.374930,0.571950,
-0.349400,0.575720,
-0.323000,0.577000,
0.323000,0.577000,
0.349400,0.575720,
0.374930,0.571950,
0.399490,0.565800,
0.445220,0.546870,
0.485650,0.519840,
0.519840,0.485640,
0.546860,0.445220,
0.565800,0.399490,
0.571950,0.374930,
0.575720,0.349400,
0.577000,0.323000,
0.577000,-0.323000,
0.575720,-0.349400,
0.571950,-0.374930,
0.565800,-0.399490,
0.546860,-0.445220,
0.519840,-0.485640,
0.485650,-0.519840,
0.445220,-0.546870,
0.399490,-0.565800,
0.374930,-0.571950,
0.349400,-0.575720,
0.323000,-0.577000,
0*%
%ADD60PPAD054*%
%ADD61C,1.154000*%
%AMPPAD056*
4,1,48,
0.527000,0.023000,
0.527000,-0.023000,
0.525720,-0.049400,
0.521950,-0.074930,
0.515800,-0.099490,
0.507400,-0.122960,
0.496870,-0.145220,
0.469840,-0.185650,
0.435640,-0.219840,
0.416150,-0.234300,
0.395220,-0.246860,
0.372960,-0.257400,
0.349490,-0.265800,
0.324930,-0.271950,
0.299400,-0.275720,
0.273000,-0.277000,
-0.150000,-0.277000,
-0.175970,-0.274470,
-0.199980,-0.267200,
-0.221570,-0.255650,
-0.240290,-0.240290,
-0.255650,-0.221580,
-0.267200,-0.199980,
-0.274470,-0.175970,
-0.277000,-0.150000,
-0.277000,0.150000,
-0.274470,0.175970,
-0.267200,0.199980,
-0.255650,0.221580,
-0.240290,0.240290,
-0.221570,0.255650,
-0.199980,0.267200,
-0.175970,0.274470,
-0.150000,0.277000,
0.273000,0.277000,
0.299400,0.275720,
0.324930,0.271950,
0.349490,0.265800,
0.372960,0.257400,
0.395220,0.246860,
0.416150,0.234300,
0.435640,0.219840,
0.469840,0.185650,
0.496870,0.145220,
0.507400,0.122960,
0.515800,0.099490,
0.521950,0.074930,
0.525720,0.049400,
0.527000,0.023000,
0*%
%ADD62PPAD056*%
%AMPPAD057*
4,1,48,
-0.527000,-0.023000,
-0.527000,0.023000,
-0.525720,0.049400,
-0.521950,0.074930,
-0.515800,0.099490,
-0.507400,0.122960,
-0.496870,0.145220,
-0.469840,0.185650,
-0.435640,0.219840,
-0.416150,0.234300,
-0.395220,0.246860,
-0.372960,0.257400,
-0.349490,0.265800,
-0.324930,0.271950,
-0.299400,0.275720,
-0.273000,0.277000,
0.150000,0.277000,
0.175970,0.274470,
0.199980,0.267200,
0.221570,0.255650,
0.240290,0.240290,
0.255650,0.221580,
0.267200,0.199980,
0.274470,0.175970,
0.277000,0.150000,
0.277000,-0.150000,
0.274470,-0.175970,
0.267200,-0.199980,
0.255650,-0.221580,
0.240290,-0.240290,
0.221570,-0.255650,
0.199980,-0.267200,
0.175970,-0.274470,
0.150000,-0.277000,
-0.273000,-0.277000,
-0.299400,-0.275720,
-0.324930,-0.271950,
-0.349490,-0.265800,
-0.372960,-0.257400,
-0.395220,-0.246860,
-0.416150,-0.234300,
-0.435640,-0.219840,
-0.469840,-0.185650,
-0.496870,-0.145220,
-0.507400,-0.122960,
-0.515800,-0.099490,
-0.521950,-0.074930,
-0.525720,-0.049400,
-0.527000,-0.023000,
0*%
%ADD63PPAD057*%
%AMPPAD058*
4,1,36,
0.200000,-0.762000,
-0.200000,-0.762000,
-0.225970,-0.759470,
-0.249980,-0.752200,
-0.271580,-0.740650,
-0.290290,-0.725290,
-0.305650,-0.706570,
-0.317200,-0.684980,
-0.324470,-0.660970,
-0.327000,-0.635000,
-0.327000,0.635000,
-0.324470,0.660970,
-0.317200,0.684980,
-0.305650,0.706570,
-0.290290,0.725290,
-0.271580,0.740650,
-0.249980,0.752200,
-0.225970,0.759470,
-0.200000,0.762000,
0.200000,0.762000,
0.225970,0.759470,
0.249980,0.752200,
0.271580,0.740650,
0.290290,0.725290,
0.305650,0.706570,
0.317200,0.684980,
0.324470,0.660970,
0.327000,0.635000,
0.327000,-0.635000,
0.324470,-0.660970,
0.317200,-0.684980,
0.305650,-0.706570,
0.290290,-0.725290,
0.271580,-0.740650,
0.249980,-0.752200,
0.225970,-0.759470,
0.200000,-0.762000,
0*%
%ADD64PPAD058*%
%AMPPAD059*
4,1,36,
-0.477000,-0.500000,
-0.477000,0.500000,
-0.474470,0.525970,
-0.467200,0.549980,
-0.455650,0.571580,
-0.440290,0.590290,
-0.421570,0.605650,
-0.399980,0.617200,
-0.375970,0.624470,
-0.350000,0.627000,
0.350000,0.627000,
0.375970,0.624470,
0.399980,0.617200,
0.421570,0.605650,
0.440290,0.590290,
0.455650,0.571580,
0.467200,0.549980,
0.474470,0.525970,
0.477000,0.500000,
0.477000,-0.500000,
0.474470,-0.525970,
0.467200,-0.549980,
0.455650,-0.571580,
0.440290,-0.590290,
0.421570,-0.605650,
0.399980,-0.617200,
0.375970,-0.624470,
0.350000,-0.627000,
-0.350000,-0.627000,
-0.375970,-0.624470,
-0.399980,-0.617200,
-0.421570,-0.605650,
-0.440290,-0.590290,
-0.455650,-0.571580,
-0.467200,-0.549980,
-0.474470,-0.525970,
-0.477000,-0.500000,
0*%
%ADD65PPAD059*%
%AMPPAD060*
4,1,36,
0.527000,0.400000,
0.527000,-0.400000,
0.524470,-0.425970,
0.517200,-0.449980,
0.505650,-0.471580,
0.490290,-0.490290,
0.471570,-0.505650,
0.449980,-0.517200,
0.425970,-0.524470,
0.400000,-0.527000,
-0.400000,-0.527000,
-0.425970,-0.524470,
-0.449980,-0.517200,
-0.471570,-0.505650,
-0.490290,-0.490290,
-0.505650,-0.471580,
-0.517200,-0.449980,
-0.524470,-0.425970,
-0.527000,-0.400000,
-0.527000,0.400000,
-0.524470,0.425970,
-0.517200,0.449980,
-0.505650,0.471580,
-0.490290,0.490290,
-0.471570,0.505650,
-0.449980,0.517200,
-0.425970,0.524470,
-0.400000,0.527000,
0.400000,0.527000,
0.425970,0.524470,
0.449980,0.517200,
0.471570,0.505650,
0.490290,0.490290,
0.505650,0.471580,
0.517200,0.449980,
0.524470,0.425970,
0.527000,0.400000,
0*%
%ADD66PPAD060*%
%AMPPAD061*
4,1,36,
-0.750000,1.727000,
0.750000,1.727000,
0.775970,1.724470,
0.799980,1.717200,
0.821580,1.705650,
0.840290,1.690290,
0.855650,1.671570,
0.867200,1.649980,
0.874470,1.625970,
0.877000,1.600000,
0.877000,-1.600000,
0.874470,-1.625970,
0.867200,-1.649980,
0.855650,-1.671570,
0.840290,-1.690290,
0.821580,-1.705650,
0.799980,-1.717200,
0.775970,-1.724470,
0.750000,-1.727000,
-0.750000,-1.727000,
-0.775970,-1.724470,
-0.799980,-1.717200,
-0.821580,-1.705650,
-0.840290,-1.690290,
-0.855650,-1.671570,
-0.867200,-1.649980,
-0.874470,-1.625970,
-0.877000,-1.600000,
-0.877000,1.600000,
-0.874470,1.625970,
-0.867200,1.649980,
-0.855650,1.671570,
-0.840290,1.690290,
-0.821580,1.705650,
-0.799980,1.717200,
-0.775970,1.724470,
-0.750000,1.727000,
0*%
%ADD67PPAD061*%
%AMPPAD062*
4,1,36,
-0.652000,-0.450000,
-0.652000,0.450000,
-0.649470,0.475970,
-0.642200,0.499980,
-0.630650,0.521580,
-0.615290,0.540290,
-0.596570,0.555650,
-0.574980,0.567200,
-0.550970,0.574470,
-0.525000,0.577000,
0.525000,0.577000,
0.550970,0.574470,
0.574980,0.567200,
0.596570,0.555650,
0.615290,0.540290,
0.630650,0.521580,
0.642200,0.499980,
0.649470,0.475970,
0.652000,0.450000,
0.652000,-0.450000,
0.649470,-0.475970,
0.642200,-0.499980,
0.630650,-0.521580,
0.615290,-0.540290,
0.596570,-0.555650,
0.574980,-0.567200,
0.550970,-0.574470,
0.525000,-0.577000,
-0.525000,-0.577000,
-0.550970,-0.574470,
-0.574980,-0.567200,
-0.596570,-0.555650,
-0.615290,-0.540290,
-0.630650,-0.521580,
-0.642200,-0.499980,
-0.649470,-0.475970,
-0.652000,-0.450000,
0*%
%ADD68PPAD062*%
%AMPPAD063*
4,1,36,
-1.270000,-1.016000,
-1.270000,1.016000,
-1.267470,1.041970,
-1.260200,1.065980,
-1.248650,1.087580,
-1.233290,1.106290,
-1.214570,1.121650,
-1.192980,1.133200,
-1.168970,1.140470,
-1.143000,1.143000,
1.143000,1.143000,
1.168970,1.140470,
1.192980,1.133200,
1.214570,1.121650,
1.233290,1.106290,
1.248650,1.087580,
1.260200,1.065980,
1.267470,1.041970,
1.270000,1.016000,
1.270000,-1.016000,
1.267470,-1.041970,
1.260200,-1.065980,
1.248650,-1.087580,
1.233290,-1.106290,
1.214570,-1.121650,
1.192980,-1.133200,
1.168970,-1.140470,
1.143000,-1.143000,
-1.143000,-1.143000,
-1.168970,-1.140470,
-1.192980,-1.133200,
-1.214570,-1.121650,
-1.233290,-1.106290,
-1.248650,-1.087580,
-1.260200,-1.065980,
-1.267470,-1.041970,
-1.270000,-1.016000,
0*%
%ADD69PPAD063*%
%ADD74C,1.143000*%
%AMPPAD065*
4,1,36,
0.952000,1.100000,
0.952000,-1.100000,
0.949470,-1.125970,
0.942200,-1.149980,
0.930650,-1.171580,
0.915290,-1.190290,
0.896570,-1.205650,
0.874980,-1.217200,
0.850970,-1.224470,
0.825000,-1.227000,
-0.825000,-1.227000,
-0.850970,-1.224470,
-0.874980,-1.217200,
-0.896570,-1.205650,
-0.915290,-1.190290,
-0.930650,-1.171580,
-0.942200,-1.149980,
-0.949470,-1.125970,
-0.952000,-1.100000,
-0.952000,1.100000,
-0.949470,1.125970,
-0.942200,1.149980,
-0.930650,1.171580,
-0.915290,1.190290,
-0.896570,1.205650,
-0.874980,1.217200,
-0.850970,1.224470,
-0.825000,1.227000,
0.825000,1.227000,
0.850970,1.224470,
0.874980,1.217200,
0.896570,1.205650,
0.915290,1.190290,
0.930650,1.171580,
0.942200,1.149980,
0.949470,1.125970,
0.952000,1.100000,
0*%
%ADD75PPAD065*%
%AMPPAD066*
4,1,36,
-0.898030,0.269410,
-0.269410,0.898030,
-0.249260,0.914600,
-0.227140,0.926440,
-0.203700,0.933540,
-0.179610,0.935910,
-0.155510,0.933540,
-0.132070,0.926440,
-0.109960,0.914600,
-0.089800,0.898030,
0.898030,-0.089800,
0.914600,-0.109960,
0.926440,-0.132070,
0.933540,-0.155510,
0.935910,-0.179610,
0.933540,-0.203700,
0.926440,-0.227140,
0.914600,-0.249260,
0.898030,-0.269410,
0.269410,-0.898030,
0.249260,-0.914600,
0.227140,-0.926440,
0.203700,-0.933540,
0.179610,-0.935910,
0.155510,-0.933540,
0.132070,-0.926440,
0.109960,-0.914600,
0.089800,-0.898030,
-0.898030,0.089800,
-0.914600,0.109960,
-0.926440,0.132070,
-0.933540,0.155510,
-0.935910,0.179610,
-0.933540,0.203700,
-0.926440,0.227140,
-0.914600,0.249260,
-0.898030,0.269410,
0*%
%ADD76PPAD066*%
%AMPPAD067*
4,1,36,
-0.779230,0.142840,
-0.142840,0.779230,
-0.122680,0.795810,
-0.100560,0.807640,
-0.077120,0.814750,
-0.053030,0.817120,
-0.028930,0.814740,
-0.005500,0.807640,
0.016620,0.795810,
0.036770,0.779230,
0.779230,0.036770,
0.795810,0.016620,
0.807640,-0.005500,
0.814740,-0.028930,
0.817120,-0.053030,
0.814750,-0.077120,
0.807640,-0.100560,
0.795810,-0.122680,
0.779230,-0.142840,
0.142840,-0.779230,
0.122680,-0.795810,
0.100560,-0.807640,
0.077120,-0.814750,
0.053030,-0.817120,
0.028930,-0.814740,
0.005500,-0.807640,
-0.016620,-0.795810,
-0.036770,-0.779230,
-0.779230,-0.036770,
-0.795810,-0.016620,
-0.807640,0.005500,
-0.814740,0.028930,
-0.817120,0.053030,
-0.814750,0.077120,
-0.807640,0.100560,
-0.795810,0.122680,
-0.779230,0.142840,
0*%
%ADD77PPAD067*%
%AMPPAD068*
4,1,36,
-0.825500,-0.444500,
-0.825500,0.444500,
-0.822970,0.470470,
-0.815700,0.494480,
-0.804150,0.516080,
-0.788790,0.534790,
-0.770070,0.550150,
-0.748480,0.561700,
-0.724470,0.568970,
-0.698500,0.571500,
0.698500,0.571500,
0.724470,0.568970,
0.748480,0.561700,
0.770070,0.550150,
0.788790,0.534790,
0.804150,0.516080,
0.815700,0.494480,
0.822970,0.470470,
0.825500,0.444500,
0.825500,-0.444500,
0.822970,-0.470470,
0.815700,-0.494480,
0.804150,-0.516080,
0.788790,-0.534790,
0.770070,-0.550150,
0.748480,-0.561700,
0.724470,-0.568970,
0.698500,-0.571500,
-0.698500,-0.571500,
-0.724470,-0.568970,
-0.748480,-0.561700,
-0.770070,-0.550150,
-0.788790,-0.534790,
-0.804150,-0.516080,
-0.815700,-0.494480,
-0.822970,-0.470470,
-0.825500,-0.444500,
0*%
%ADD78PPAD068*%
%AMPPAD069*
4,1,36,
0.450000,-0.652000,
-0.450000,-0.652000,
-0.475970,-0.649470,
-0.499980,-0.642200,
-0.521580,-0.630650,
-0.540290,-0.615290,
-0.555650,-0.596570,
-0.567200,-0.574980,
-0.574470,-0.550970,
-0.577000,-0.525000,
-0.577000,0.525000,
-0.574470,0.550970,
-0.567200,0.574980,
-0.555650,0.596570,
-0.540290,0.615290,
-0.521580,0.630650,
-0.499980,0.642200,
-0.475970,0.649470,
-0.450000,0.652000,
0.450000,0.652000,
0.475970,0.649470,
0.499980,0.642200,
0.521580,0.630650,
0.540290,0.615290,
0.555650,0.596570,
0.567200,0.574980,
0.574470,0.550970,
0.577000,0.525000,
0.577000,-0.525000,
0.574470,-0.550970,
0.567200,-0.574980,
0.555650,-0.596570,
0.540290,-0.615290,
0.521580,-0.630650,
0.499980,-0.642200,
0.475970,-0.649470,
0.450000,-0.652000,
0*%
%ADD79PPAD069*%
%AMPPAD070*
4,1,36,
0.142840,0.779230,
0.779230,0.142840,
0.795810,0.122680,
0.807640,0.100560,
0.814750,0.077120,
0.817120,0.053030,
0.814740,0.028930,
0.807640,0.005500,
0.795810,-0.016620,
0.779230,-0.036770,
0.036770,-0.779230,
0.016620,-0.795810,
-0.005500,-0.807640,
-0.028930,-0.814740,
-0.053030,-0.817120,
-0.077120,-0.814750,
-0.100560,-0.807640,
-0.122680,-0.795810,
-0.142840,-0.779230,
-0.779230,-0.142840,
-0.795810,-0.122680,
-0.807640,-0.100560,
-0.814750,-0.077120,
-0.817120,-0.053030,
-0.814740,-0.028930,
-0.807640,-0.005500,
-0.795810,0.016620,
-0.779230,0.036770,
-0.036770,0.779230,
-0.016620,0.795810,
0.005500,0.807640,
0.028930,0.814740,
0.053030,0.817120,
0.077120,0.814750,
0.100560,0.807640,
0.122680,0.795810,
0.142840,0.779230,
0*%
%ADD80PPAD070*%
%ADD43C,0.025400*%
D47*
X+4610100Y+5080000D03*
X+4864100Y+5080000D03*
X+5118100Y+5080000D03*
X+5372100Y+5080000D03*
X+5626100Y+5080000D03*
X+5880100Y+5080000D03*
X+6134100Y+5080000D03*
X+6388100Y+5080000D03*
X+1917700Y+5080000D03*
X+2171700Y+5080000D03*
X+2425700Y+5080000D03*
X+2679700Y+5080000D03*
X+2933700Y+5080000D03*
X+3187700Y+5080000D03*
X+3441700Y+5080000D03*
X+3695700Y+5080000D03*
X+3949700Y+5080000D03*
X+4203700Y+5080000D03*
D48*
X+4838840Y+2213289D03*
X+4884801Y+2259250D03*
X+4930763Y+2305212D03*
X+4976725Y+2351174D03*
X+5022687Y+2397136D03*
X+5068649Y+2443098D03*
X+5114611Y+2489060D03*
D49*
X+5114611Y+2616339D03*
X+5068649Y+2662301D03*
X+5022687Y+2708263D03*
X+4976725Y+2754225D03*
X+4930763Y+2800187D03*
X+4884801Y+2846149D03*
X+4838840Y+2892111D03*
D50*
X+4711560Y+2892111D03*
X+4665598Y+2846149D03*
X+4619636Y+2800187D03*
X+4573674Y+2754225D03*
X+4527713Y+2708263D03*
X+4481751Y+2662301D03*
X+4435789Y+2616339D03*
D51*
X+4435789Y+2489060D03*
X+4481751Y+2443098D03*
X+4527713Y+2397136D03*
X+4573674Y+2351174D03*
X+4619636Y+2305212D03*
X+4665598Y+2259250D03*
X+4711560Y+2213289D03*
D52*
X+4775200Y+2552700D03*
D47*
X+2324100Y+254000D03*
X+2578100Y+254000D03*
X+2832100Y+254000D03*
X+3086100Y+254000D03*
X+3340100Y+254000D03*
X+3594100Y+254000D03*
X+3848100Y+254000D03*
X+4102100Y+254000D03*
X+4356100Y+254000D03*
X+4610100Y+254000D03*
X+4864100Y+254000D03*
X+5118100Y+254000D03*
X+5372100Y+254000D03*
X+5626100Y+254000D03*
X+5880100Y+254000D03*
X+6134100Y+254000D03*
X+6388100Y+254000D03*
D53*
X+1891650Y+2485200D03*
X+1891650Y+2525200D03*
X+1891650Y+2565200D03*
X+1891650Y+2605200D03*
X+1891650Y+2645200D03*
X+1891650Y+2685200D03*
X+1891650Y+2725200D03*
D54*
X+1816650Y+2800200D03*
X+1776650Y+2800200D03*
X+1736650Y+2800200D03*
X+1696650Y+2800200D03*
X+1656650Y+2800200D03*
X+1616650Y+2800200D03*
X+1576650Y+2800200D03*
D53*
X+1501650Y+2725200D03*
X+1501650Y+2685200D03*
X+1501650Y+2645200D03*
X+1501650Y+2605200D03*
X+1501650Y+2565200D03*
X+1501650Y+2525200D03*
X+1501650Y+2485200D03*
D54*
X+1576650Y+2410200D03*
X+1616650Y+2410200D03*
X+1656650Y+2410200D03*
X+1696650Y+2410200D03*
X+1736650Y+2410200D03*
X+1776650Y+2410200D03*
X+1816650Y+2410200D03*
D55*
X+1696650Y+2605200D03*
D56*
X+1891650Y+2410200D03*
X+1891650Y+2800200D03*
X+1501650Y+2800200D03*
X+1501650Y+2410200D03*
D57*
X+501650Y+2682700D03*
X+501650Y+2617700D03*
X+501650Y+2552700D03*
X+501650Y+2487700D03*
X+501650Y+2422700D03*
D58*
X+241650Y+2157700D03*
D59*
X+486650Y+2217700D03*
X+486650Y+2887700D03*
D58*
X+241650Y+2947700D03*
D60*
X+889000Y+203200D03*
D61*
X+762000Y+203200D03*
X+635000Y+203200D03*
X+889000Y+330200D03*
X+762000Y+330200D03*
X+635000Y+330200D03*
D62*
X+1214050Y+1829500D03*
X+1214050Y+1779500D03*
X+1214050Y+1729500D03*
D63*
X+1389050Y+1729500D03*
X+1389050Y+1779500D03*
X+1389050Y+1829500D03*
D64*
X+1301550Y+1779500D03*
D65*
X+485700Y+3944650D03*
X+485700Y+4404650D03*
X+260700Y+4404650D03*
X+260700Y+3944650D03*
X+485700Y+4697500D03*
X+485700Y+5157500D03*
X+260700Y+5157500D03*
X+260700Y+4697500D03*
D66*
X+241650Y+1709450D03*
X+241650Y+1544450D03*
X+241650Y+598100D03*
X+241650Y+433100D03*
X+241650Y+1182300D03*
X+241650Y+1017300D03*
D67*
X+771650Y+2845200D03*
X+1191650Y+2845200D03*
D68*
X+693350Y+2002550D03*
X+693350Y+2162550D03*
D69*
X+953700Y+1862550D03*
X+953700Y+2162550D03*
D68*
X+1544250Y+1683800D03*
X+1544250Y+1843800D03*
X+1544250Y+2002550D03*
X+1544250Y+2162550D03*
D74*
X+4548274Y+2097174D03*
X+4433974Y+2211474D03*
X+4319674Y+2325774D03*
D75*
X+324200Y+3468400D03*
D76*
X+4460886Y+2984337D03*
X+4611754Y+3135205D03*
D77*
X+4352936Y+3130387D03*
X+4466073Y+3243525D03*
D68*
X+1529650Y+3265000D03*
X+1529650Y+3105000D03*
X+1694750Y+3265000D03*
X+1694750Y+3105000D03*
X+1709350Y+2162550D03*
X+1709350Y+2002550D03*
D78*
X+1872550Y+3105000D03*
X+1872550Y+3318360D03*
D68*
X+2050350Y+3105000D03*
X+2050350Y+3265000D03*
X+1015300Y+3105000D03*
X+1015300Y+3265000D03*
D78*
X+1193100Y+3105000D03*
X+1193100Y+3318360D03*
D79*
X+1210700Y+2419750D03*
X+1050700Y+2419750D03*
D68*
X+850200Y+3105000D03*
X+850200Y+3265000D03*
D79*
X+2369150Y+2793150D03*
X+2209150Y+2793150D03*
X+2369150Y+2462950D03*
X+2209150Y+2462950D03*
D68*
X+1874450Y+2002550D03*
X+1874450Y+2162550D03*
D79*
X+2369150Y+2628050D03*
X+2209150Y+2628050D03*
D68*
X+387700Y+1182300D03*
X+387700Y+1022300D03*
X+387700Y+1709450D03*
X+387700Y+1549450D03*
D80*
X+4042949Y+2792674D03*
X+4156086Y+2679537D03*
D68*
X+387700Y+598100D03*
X+387700Y+438100D03*
X+1214050Y+2002550D03*
X+1214050Y+2162550D03*
X+1379150Y+2002550D03*
X+1379150Y+2162550D03*
X+1709350Y+1683800D03*
X+1709350Y+1843800D03*
D78*
X+1887150Y+1630440D03*
X+1887150Y+1843800D03*
D69*
X+2160200Y+1685050D03*
X+2160200Y+1985050D03*
D43*
X+6800850Y+762000D02*
X+6800320Y+774958D01*
X+6796016Y+800876D01*
X+6787025Y+826794D01*
X+6772380Y+852712D01*
X+6749976Y+878466D01*
X+6724058Y+897958D01*
X+6698140Y+910530D01*
X+6672222Y+917866D01*
X+6646304Y+920694D01*
X+6642100Y+920750D01*
X+6483350Y+762000D02*
X+6483880Y+774958D01*
X+6488184Y+800876D01*
X+6497175Y+826794D01*
X+6511820Y+852712D01*
X+6534224Y+878466D01*
X+6560142Y+897958D01*
X+6586060Y+910530D01*
X+6611978Y+917866D01*
X+6637896Y+920694D01*
X+6642100Y+920750D01*
X+6483350Y+762000D02*
X+6483880Y+749042D01*
X+6488184Y+723124D01*
X+6497175Y+697206D01*
X+6511820Y+671288D01*
X+6534224Y+645534D01*
X+6560142Y+626042D01*
X+6586060Y+613470D01*
X+6611978Y+606134D01*
X+6637896Y+603306D01*
X+6642100Y+603250D01*
X+6800850Y+762000D02*
X+6800320Y+749042D01*
X+6796016Y+723124D01*
X+6787025Y+697206D01*
X+6772380Y+671288D01*
X+6749976Y+645534D01*
X+6724058Y+626042D01*
X+6698140Y+613470D01*
X+6672222Y+606134D01*
X+6646304Y+603306D01*
X+6642100Y+603250D01*
X+6800850Y+3556000D02*
X+6800320Y+3568958D01*
X+6796016Y+3594876D01*
X+6787025Y+3620794D01*
X+6772380Y+3646712D01*
X+6749976Y+3672466D01*
X+6724058Y+3691958D01*
X+6698140Y+3704530D01*
X+6672222Y+3711866D01*
X+6646304Y+3714694D01*
X+6642100Y+3714750D01*
X+6483350Y+3556000D02*
X+6483880Y+3568958D01*
X+6488184Y+3594876D01*
X+6497175Y+3620794D01*
X+6511820Y+3646712D01*
X+6534224Y+3672466D01*
X+6560142Y+3691958D01*
X+6586060Y+3704530D01*
X+6611978Y+3711866D01*
X+6637896Y+3714694D01*
X+6642100Y+3714750D01*
X+6483350Y+3556000D02*
X+6483880Y+3543042D01*
X+6488184Y+3517124D01*
X+6497175Y+3491206D01*
X+6511820Y+3465288D01*
X+6534224Y+3439534D01*
X+6560142Y+3420042D01*
X+6586060Y+3407470D01*
X+6611978Y+3400134D01*
X+6637896Y+3397306D01*
X+6642100Y+3397250D01*
X+6800850Y+3556000D02*
X+6800320Y+3543042D01*
X+6796016Y+3517124D01*
X+6787025Y+3491206D01*
X+6772380Y+3465288D01*
X+6749976Y+3439534D01*
X+6724058Y+3420042D01*
X+6698140Y+3407470D01*
X+6672222Y+3400134D01*
X+6646304Y+3397306D01*
X+6642100Y+3397250D01*
X+1720850Y+5080000D02*
X+1720320Y+5092958D01*
X+1716016Y+5118876D01*
X+1707025Y+5144794D01*
X+1692380Y+5170712D01*
X+1669976Y+5196466D01*
X+1644058Y+5215958D01*
X+1618140Y+5228530D01*
X+1592222Y+5235866D01*
X+1566304Y+5238694D01*
X+1562100Y+5238750D01*
X+1403350Y+5080000D02*
X+1403880Y+5092958D01*
X+1408184Y+5118876D01*
X+1417175Y+5144794D01*
X+1431820Y+5170712D01*
X+1454224Y+5196466D01*
X+1480142Y+5215958D01*
X+1506060Y+5228530D01*
X+1531978Y+5235866D01*
X+1557896Y+5238694D01*
X+1562100Y+5238750D01*
X+1403350Y+5080000D02*
X+1403880Y+5067042D01*
X+1408184Y+5041124D01*
X+1417175Y+5015206D01*
X+1431820Y+4989288D01*
X+1454224Y+4963534D01*
X+1480142Y+4944042D01*
X+1506060Y+4931470D01*
X+1531978Y+4924134D01*
X+1557896Y+4921306D01*
X+1562100Y+4921250D01*
X+1720850Y+5080000D02*
X+1720320Y+5067042D01*
X+1716016Y+5041124D01*
X+1707025Y+5015206D01*
X+1692380Y+4989288D01*
X+1669976Y+4963534D01*
X+1644058Y+4944042D01*
X+1618140Y+4931470D01*
X+1592222Y+4924134D01*
X+1566304Y+4921306D01*
X+1562100Y+4921250D01*
X+1720850Y+254000D02*
X+1720320Y+266958D01*
X+1716016Y+292876D01*
X+1707025Y+318794D01*
X+1692380Y+344712D01*
X+1669976Y+370466D01*
X+1644058Y+389958D01*
X+1618140Y+402530D01*
X+1592222Y+409866D01*
X+1566304Y+412694D01*
X+1562100Y+412750D01*
X+1403350Y+254000D02*
X+1403880Y+266958D01*
X+1408184Y+292876D01*
X+1417175Y+318794D01*
X+1431820Y+344712D01*
X+1454224Y+370466D01*
X+1480142Y+389958D01*
X+1506060Y+402530D01*
X+1531978Y+409866D01*
X+1557896Y+412694D01*
X+1562100Y+412750D01*
X+1403350Y+254000D02*
X+1403880Y+241042D01*
X+1408184Y+215124D01*
X+1417175Y+189206D01*
X+1431820Y+163288D01*
X+1454224Y+137534D01*
X+1480142Y+118042D01*
X+1506060Y+105470D01*
X+1531978Y+98134D01*
X+1557896Y+95306D01*
X+1562100Y+95250D01*
X+1720850Y+254000D02*
X+1720320Y+241042D01*
X+1716016Y+215124D01*
X+1707025Y+189206D01*
X+1692380Y+163288D01*
X+1669976Y+137534D01*
X+1644058Y+118042D01*
X+1618140Y+105470D01*
X+1592222Y+98134D01*
X+1566304Y+95306D01*
X+1562100Y+95250D01*
X+127000Y+0D02*
X+101032Y+2527D01*
X+77018Y+9798D01*
X+55423Y+21347D01*
X+36711Y+36711D01*
X+21348Y+55423D01*
X+9798Y+77018D01*
X+2527Y+101032D01*
X+0Y+127000D01*
X+0Y+5207000D01*
X+2527Y+5232967D01*
X+9798Y+5256981D01*
X+21348Y+5278577D01*
X+36711Y+5297289D01*
X+55423Y+5312652D01*
X+77018Y+5324202D01*
X+101032Y+5331473D01*
X+127000Y+5334000D01*
X+6515100Y+5334000D01*
X+6642100Y+5207000D01*
X+6642100Y+4064000D01*
X+6896100Y+3810000D01*
X+6896100Y+508000D01*
X+6642100Y+254000D01*
X+6642100Y+127000D01*
X+6639573Y+101032D01*
X+6632302Y+77018D01*
X+6620752Y+55423D01*
X+6605389Y+36711D01*
X+6586677Y+21347D01*
X+6565081Y+9798D01*
X+6541067Y+2527D01*
X+6515100Y+0D01*
X+127000Y+0D01*
X+486650Y+2352700D02*
X+486547Y+2355189D01*
X+485705Y+2360169D01*
X+483945Y+2365149D01*
X+481068Y+2370129D01*
X+476667Y+2375045D01*
X+471687Y+2378659D01*
X+466707Y+2380964D01*
X+461727Y+2382267D01*
X+456747Y+2382700D01*
X+456650Y+2382700D01*
X+426650Y+2352700D02*
X+426753Y+2355189D01*
X+427595Y+2360169D01*
X+429355Y+2365149D01*
X+432232Y+2370129D01*
X+436633Y+2375045D01*
X+441613Y+2378659D01*
X+446593Y+2380964D01*
X+451573Y+2382267D01*
X+456553Y+2382700D01*
X+456650Y+2382700D01*
X+426650Y+2352700D02*
X+426753Y+2350211D01*
X+427595Y+2345231D01*
X+429355Y+2340251D01*
X+432232Y+2335271D01*
X+436633Y+2330355D01*
X+441613Y+2326741D01*
X+446593Y+2324436D01*
X+451573Y+2323133D01*
X+456553Y+2322700D01*
X+456650Y+2322700D01*
X+486650Y+2352700D02*
X+486547Y+2350211D01*
X+485705Y+2345231D01*
X+483945Y+2340251D01*
X+481068Y+2335271D01*
X+476667Y+2330355D01*
X+471687Y+2326741D01*
X+466707Y+2324436D01*
X+461727Y+2323133D01*
X+456747Y+2322700D01*
X+456650Y+2322700D01*
X+486650Y+2752700D02*
X+486547Y+2755189D01*
X+485705Y+2760169D01*
X+483945Y+2765149D01*
X+481068Y+2770129D01*
X+476667Y+2775045D01*
X+471687Y+2778659D01*
X+466707Y+2780964D01*
X+461727Y+2782267D01*
X+456747Y+2782700D01*
X+456650Y+2782700D01*
X+426650Y+2752700D02*
X+426753Y+2755189D01*
X+427595Y+2760169D01*
X+429355Y+2765149D01*
X+432232Y+2770129D01*
X+436633Y+2775045D01*
X+441613Y+2778659D01*
X+446593Y+2780964D01*
X+451573Y+2782267D01*
X+456553Y+2782700D01*
X+456650Y+2782700D01*
X+426650Y+2752700D02*
X+426753Y+2750211D01*
X+427595Y+2745231D01*
X+429355Y+2740251D01*
X+432232Y+2735271D01*
X+436633Y+2730355D01*
X+441613Y+2726741D01*
X+446593Y+2724436D01*
X+451573Y+2723133D01*
X+456553Y+2722700D01*
X+456650Y+2722700D01*
X+486650Y+2752700D02*
X+486547Y+2750211D01*
X+485705Y+2745231D01*
X+483945Y+2740251D01*
X+481068Y+2735271D01*
X+476667Y+2730355D01*
X+471687Y+2726741D01*
X+466707Y+2724436D01*
X+461727Y+2723133D01*
X+456747Y+2722700D01*
X+456650Y+2722700D01*
M02*
