G04 PROTEUS RS274X GERBER FILE*
%FSLAX45Y45*%
%MOMM*%
G01*
%ADD52C,0.025400*%
%ADD97C,0.180000*%
%ADD98C,0.162330*%
%ADD19C,0.360000*%
%ADD99C,0.303330*%
%ADD11C,0.400000*%
%ADD100C,0.160210*%
%ADD101C,0.320000*%
%ADD102C,0.067010*%
%ADD54C,0.127000*%
%ADD103C,0.088900*%
%ADD104C,0.420000*%
%ADD105C,0.067500*%
%ADD106C,1.280000*%
%ADD107C,0.142210*%
%ADD108C,0.102520*%
%ADD109C,0.914400*%
%ADD110C,0.121470*%
%ADD111C,0.050000*%
%ADD112C,0.571500*%
%ADD113C,0.172100*%
%ADD114C,0.558800*%
%ADD115C,0.084240*%
%ADD116C,0.150710*%
%ADD117C,0.640000*%
%ADD118C,0.177800*%
%ADD119C,0.480000*%
%ADD120C,0.113280*%
%ADD121C,1.935000*%
%ADD122C,0.203700*%
%ADD123C,0.495000*%
%ADD124C,0.330430*%
%ADD125C,0.396240*%
%ADD126C,0.124940*%
%ADD127C,0.037500*%
%ADD128C,0.090020*%
%ADD129C,1.100000*%
%ADD130C,0.155540*%
%ADD131C,0.270000*%
%ADD132C,0.119760*%
%ADD133C,0.170680*%
D52*
X+6800850Y+762000D02*
X+6800320Y+774958D01*
X+6796016Y+800876D01*
X+6787025Y+826794D01*
X+6772380Y+852712D01*
X+6749976Y+878466D01*
X+6724058Y+897958D01*
X+6698140Y+910530D01*
X+6672222Y+917866D01*
X+6646304Y+920694D01*
X+6642100Y+920750D01*
X+6483350Y+762000D02*
X+6483880Y+774958D01*
X+6488184Y+800876D01*
X+6497175Y+826794D01*
X+6511820Y+852712D01*
X+6534224Y+878466D01*
X+6560142Y+897958D01*
X+6586060Y+910530D01*
X+6611978Y+917866D01*
X+6637896Y+920694D01*
X+6642100Y+920750D01*
X+6483350Y+762000D02*
X+6483880Y+749042D01*
X+6488184Y+723124D01*
X+6497175Y+697206D01*
X+6511820Y+671288D01*
X+6534224Y+645534D01*
X+6560142Y+626042D01*
X+6586060Y+613470D01*
X+6611978Y+606134D01*
X+6637896Y+603306D01*
X+6642100Y+603250D01*
X+6800850Y+762000D02*
X+6800320Y+749042D01*
X+6796016Y+723124D01*
X+6787025Y+697206D01*
X+6772380Y+671288D01*
X+6749976Y+645534D01*
X+6724058Y+626042D01*
X+6698140Y+613470D01*
X+6672222Y+606134D01*
X+6646304Y+603306D01*
X+6642100Y+603250D01*
X+6800850Y+3556000D02*
X+6800320Y+3568958D01*
X+6796016Y+3594876D01*
X+6787025Y+3620794D01*
X+6772380Y+3646712D01*
X+6749976Y+3672466D01*
X+6724058Y+3691958D01*
X+6698140Y+3704530D01*
X+6672222Y+3711866D01*
X+6646304Y+3714694D01*
X+6642100Y+3714750D01*
X+6483350Y+3556000D02*
X+6483880Y+3568958D01*
X+6488184Y+3594876D01*
X+6497175Y+3620794D01*
X+6511820Y+3646712D01*
X+6534224Y+3672466D01*
X+6560142Y+3691958D01*
X+6586060Y+3704530D01*
X+6611978Y+3711866D01*
X+6637896Y+3714694D01*
X+6642100Y+3714750D01*
X+6483350Y+3556000D02*
X+6483880Y+3543042D01*
X+6488184Y+3517124D01*
X+6497175Y+3491206D01*
X+6511820Y+3465288D01*
X+6534224Y+3439534D01*
X+6560142Y+3420042D01*
X+6586060Y+3407470D01*
X+6611978Y+3400134D01*
X+6637896Y+3397306D01*
X+6642100Y+3397250D01*
X+6800850Y+3556000D02*
X+6800320Y+3543042D01*
X+6796016Y+3517124D01*
X+6787025Y+3491206D01*
X+6772380Y+3465288D01*
X+6749976Y+3439534D01*
X+6724058Y+3420042D01*
X+6698140Y+3407470D01*
X+6672222Y+3400134D01*
X+6646304Y+3397306D01*
X+6642100Y+3397250D01*
X+1720850Y+5080000D02*
X+1720320Y+5092958D01*
X+1716016Y+5118876D01*
X+1707025Y+5144794D01*
X+1692380Y+5170712D01*
X+1669976Y+5196466D01*
X+1644058Y+5215958D01*
X+1618140Y+5228530D01*
X+1592222Y+5235866D01*
X+1566304Y+5238694D01*
X+1562100Y+5238750D01*
X+1403350Y+5080000D02*
X+1403880Y+5092958D01*
X+1408184Y+5118876D01*
X+1417175Y+5144794D01*
X+1431820Y+5170712D01*
X+1454224Y+5196466D01*
X+1480142Y+5215958D01*
X+1506060Y+5228530D01*
X+1531978Y+5235866D01*
X+1557896Y+5238694D01*
X+1562100Y+5238750D01*
X+1403350Y+5080000D02*
X+1403880Y+5067042D01*
X+1408184Y+5041124D01*
X+1417175Y+5015206D01*
X+1431820Y+4989288D01*
X+1454224Y+4963534D01*
X+1480142Y+4944042D01*
X+1506060Y+4931470D01*
X+1531978Y+4924134D01*
X+1557896Y+4921306D01*
X+1562100Y+4921250D01*
X+1720850Y+5080000D02*
X+1720320Y+5067042D01*
X+1716016Y+5041124D01*
X+1707025Y+5015206D01*
X+1692380Y+4989288D01*
X+1669976Y+4963534D01*
X+1644058Y+4944042D01*
X+1618140Y+4931470D01*
X+1592222Y+4924134D01*
X+1566304Y+4921306D01*
X+1562100Y+4921250D01*
X+1720850Y+254000D02*
X+1720320Y+266958D01*
X+1716016Y+292876D01*
X+1707025Y+318794D01*
X+1692380Y+344712D01*
X+1669976Y+370466D01*
X+1644058Y+389958D01*
X+1618140Y+402530D01*
X+1592222Y+409866D01*
X+1566304Y+412694D01*
X+1562100Y+412750D01*
X+1403350Y+254000D02*
X+1403880Y+266958D01*
X+1408184Y+292876D01*
X+1417175Y+318794D01*
X+1431820Y+344712D01*
X+1454224Y+370466D01*
X+1480142Y+389958D01*
X+1506060Y+402530D01*
X+1531978Y+409866D01*
X+1557896Y+412694D01*
X+1562100Y+412750D01*
X+1403350Y+254000D02*
X+1403880Y+241042D01*
X+1408184Y+215124D01*
X+1417175Y+189206D01*
X+1431820Y+163288D01*
X+1454224Y+137534D01*
X+1480142Y+118042D01*
X+1506060Y+105470D01*
X+1531978Y+98134D01*
X+1557896Y+95306D01*
X+1562100Y+95250D01*
X+1720850Y+254000D02*
X+1720320Y+241042D01*
X+1716016Y+215124D01*
X+1707025Y+189206D01*
X+1692380Y+163288D01*
X+1669976Y+137534D01*
X+1644058Y+118042D01*
X+1618140Y+105470D01*
X+1592222Y+98134D01*
X+1566304Y+95306D01*
X+1562100Y+95250D01*
X+127000Y+0D02*
X+101032Y+2527D01*
X+77018Y+9798D01*
X+55423Y+21347D01*
X+36711Y+36711D01*
X+21348Y+55423D01*
X+9798Y+77018D01*
X+2527Y+101032D01*
X+0Y+127000D01*
X+0Y+5207000D01*
X+2527Y+5232967D01*
X+9798Y+5256981D01*
X+21348Y+5278577D01*
X+36711Y+5297289D01*
X+55423Y+5312652D01*
X+77018Y+5324202D01*
X+101032Y+5331473D01*
X+127000Y+5334000D01*
X+6515100Y+5334000D01*
X+6642100Y+5207000D01*
X+6642100Y+4064000D01*
X+6896100Y+3810000D01*
X+6896100Y+508000D01*
X+6642100Y+254000D01*
X+6642100Y+127000D01*
X+6639573Y+101032D01*
X+6632302Y+77018D01*
X+6620752Y+55423D01*
X+6605389Y+36711D01*
X+6586677Y+21347D01*
X+6565081Y+9798D01*
X+6541067Y+2527D01*
X+6515100Y+0D01*
X+127000Y+0D01*
X+1561200Y+2497250D02*
X+1521200Y+2497250D01*
X+1541200Y+2477250D02*
X+1541200Y+2517250D01*
X+1266200Y+2222250D02*
X+1816200Y+2222250D01*
X+1816200Y+2772250D01*
X+1266200Y+2772250D01*
X+1266200Y+2222250D01*
D97*
X+1736200Y+2377250D02*
X+1736200Y+2377250D01*
D98*
X+1447364Y+2351147D02*
X+1528532Y+2351147D01*
X+1544766Y+2369409D01*
X+1544766Y+2442461D01*
X+1528532Y+2460724D01*
X+1447364Y+2460724D01*
X+1463598Y+2606827D02*
X+1447364Y+2588564D01*
X+1447364Y+2533775D01*
X+1463598Y+2515512D01*
X+1528532Y+2515512D01*
X+1544766Y+2533775D01*
X+1544766Y+2588564D01*
X+1528532Y+2606827D01*
X+1512299Y+2606827D01*
X+1496065Y+2588564D01*
X+1496065Y+2515512D01*
D52*
X+486650Y+2867000D02*
X+486547Y+2869489D01*
X+485705Y+2874469D01*
X+483945Y+2879449D01*
X+481068Y+2884429D01*
X+476667Y+2889345D01*
X+471687Y+2892959D01*
X+466707Y+2895264D01*
X+461727Y+2896567D01*
X+456747Y+2897000D01*
X+456650Y+2897000D01*
X+426650Y+2867000D02*
X+426753Y+2869489D01*
X+427595Y+2874469D01*
X+429355Y+2879449D01*
X+432232Y+2884429D01*
X+436633Y+2889345D01*
X+441613Y+2892959D01*
X+446593Y+2895264D01*
X+451573Y+2896567D01*
X+456553Y+2897000D01*
X+456650Y+2897000D01*
X+426650Y+2867000D02*
X+426753Y+2864511D01*
X+427595Y+2859531D01*
X+429355Y+2854551D01*
X+432232Y+2849571D01*
X+436633Y+2844655D01*
X+441613Y+2841041D01*
X+446593Y+2838736D01*
X+451573Y+2837433D01*
X+456553Y+2837000D01*
X+456650Y+2837000D01*
X+486650Y+2867000D02*
X+486547Y+2864511D01*
X+485705Y+2859531D01*
X+483945Y+2854551D01*
X+481068Y+2849571D01*
X+476667Y+2844655D01*
X+471687Y+2841041D01*
X+466707Y+2838736D01*
X+461727Y+2837433D01*
X+456747Y+2837000D01*
X+456650Y+2837000D01*
X+486650Y+2467000D02*
X+486547Y+2469489D01*
X+485705Y+2474469D01*
X+483945Y+2479449D01*
X+481068Y+2484429D01*
X+476667Y+2489345D01*
X+471687Y+2492959D01*
X+466707Y+2495264D01*
X+461727Y+2496567D01*
X+456747Y+2497000D01*
X+456650Y+2497000D01*
X+426650Y+2467000D02*
X+426753Y+2469489D01*
X+427595Y+2474469D01*
X+429355Y+2479449D01*
X+432232Y+2484429D01*
X+436633Y+2489345D01*
X+441613Y+2492959D01*
X+446593Y+2495264D01*
X+451573Y+2496567D01*
X+456553Y+2497000D01*
X+456650Y+2497000D01*
X+426650Y+2467000D02*
X+426753Y+2464511D01*
X+427595Y+2459531D01*
X+429355Y+2454551D01*
X+432232Y+2449571D01*
X+436633Y+2444655D01*
X+441613Y+2441041D01*
X+446593Y+2438736D01*
X+451573Y+2437433D01*
X+456553Y+2437000D01*
X+456650Y+2437000D01*
X+486650Y+2467000D02*
X+486547Y+2464511D01*
X+485705Y+2459531D01*
X+483945Y+2454551D01*
X+481068Y+2449571D01*
X+476667Y+2444655D01*
X+471687Y+2441041D01*
X+466707Y+2438736D01*
X+461727Y+2437433D01*
X+456747Y+2437000D01*
X+456650Y+2437000D01*
X+456650Y+2482000D02*
X+456650Y+2452000D01*
X+471650Y+2467000D02*
X+441650Y+2467000D01*
X+456650Y+2882000D02*
X+456650Y+2852000D01*
X+471650Y+2867000D02*
X+441650Y+2867000D01*
X-38350Y+2152000D02*
X+611650Y+2152000D01*
X+611650Y+3182000D01*
X-38350Y+3182000D01*
X-38350Y+2152000D01*
D19*
X+501650Y+2797000D02*
X+501650Y+2797000D01*
D99*
X+252349Y+2393995D02*
X+282683Y+2393995D01*
X+313017Y+2428120D01*
X+313017Y+2564623D01*
X+282683Y+2598748D01*
X+131013Y+2598748D01*
X+191681Y+2735251D02*
X+131013Y+2803502D01*
X+313017Y+2803502D01*
D52*
X+161300Y+3789350D02*
X+546300Y+3789350D01*
X+546300Y+4399350D01*
X+161300Y+4399350D01*
X+161300Y+3789350D01*
D11*
X+466300Y+3864350D02*
X+466300Y+3864350D01*
D100*
X+401863Y+3926202D02*
X+305737Y+3926202D01*
X+305737Y+4016320D01*
X+321758Y+4034343D01*
X+337779Y+4034343D01*
X+353800Y+4016320D01*
X+369821Y+4034343D01*
X+385842Y+4034343D01*
X+401863Y+4016320D01*
X+401863Y+3926202D01*
X+353800Y+3926202D02*
X+353800Y+4016320D01*
X+305737Y+4070391D02*
X+305737Y+4178532D01*
X+305737Y+4124461D02*
X+401863Y+4124461D01*
X+337779Y+4250627D02*
X+305737Y+4286674D01*
X+401863Y+4286674D01*
D52*
X+161300Y+4595800D02*
X+546300Y+4595800D01*
X+546300Y+5205800D01*
X+161300Y+5205800D01*
X+161300Y+4595800D01*
D11*
X+466300Y+4670800D02*
X+466300Y+4670800D01*
D100*
X+401863Y+4732652D02*
X+305737Y+4732652D01*
X+305737Y+4822770D01*
X+321758Y+4840793D01*
X+337779Y+4840793D01*
X+353800Y+4822770D01*
X+369821Y+4840793D01*
X+385842Y+4840793D01*
X+401863Y+4822770D01*
X+401863Y+4732652D01*
X+353800Y+4732652D02*
X+353800Y+4822770D01*
X+305737Y+4876841D02*
X+305737Y+4984982D01*
X+305737Y+4930911D02*
X+401863Y+4930911D01*
X+321758Y+5039053D02*
X+305737Y+5057077D01*
X+305737Y+5111148D01*
X+321758Y+5129171D01*
X+337779Y+5129171D01*
X+353800Y+5111148D01*
X+353800Y+5057077D01*
X+369821Y+5039053D01*
X+401863Y+5039053D01*
X+401863Y+5129171D01*
D52*
X+698500Y+4756175D02*
X+825500Y+4756175D01*
X+825500Y+5048275D01*
X+698500Y+5048275D01*
X+698500Y+4756175D01*
D101*
X+762000Y+4984650D02*
X+762000Y+4984650D01*
D102*
X+782104Y+4801464D02*
X+741895Y+4801464D01*
X+741895Y+4831620D01*
X+755298Y+4846698D01*
X+768701Y+4846698D01*
X+782104Y+4831620D01*
X+782104Y+4801464D01*
X+748597Y+4869316D02*
X+741895Y+4876855D01*
X+741895Y+4899472D01*
X+748597Y+4907011D01*
X+755298Y+4907011D01*
X+762000Y+4899472D01*
X+762000Y+4876855D01*
X+768701Y+4869316D01*
X+782104Y+4869316D01*
X+782104Y+4907011D01*
D52*
X+177800Y+139575D02*
X+304800Y+139575D01*
X+304800Y+431675D01*
X+177800Y+431675D01*
X+177800Y+139575D01*
D101*
X+241300Y+203200D02*
X+241300Y+203200D01*
D102*
X+261404Y+265760D02*
X+221195Y+265760D01*
X+221195Y+295916D01*
X+234598Y+310994D01*
X+248001Y+310994D01*
X+261404Y+295916D01*
X+261404Y+265760D01*
X+234598Y+341151D02*
X+221195Y+356229D01*
X+261404Y+356229D01*
D54*
X+241300Y+3327400D02*
X+469900Y+3327400D01*
X+469900Y+3606800D01*
X+241300Y+3606800D01*
X+241300Y+3327400D01*
D103*
X+328930Y+3347085D02*
X+328930Y+3407092D01*
X+328930Y+3377088D02*
X+382270Y+3377088D01*
X+382270Y+3427095D02*
X+328930Y+3427095D01*
X+328930Y+3477101D01*
X+337820Y+3487102D01*
X+346710Y+3487102D01*
X+355600Y+3477101D01*
X+355600Y+3427095D01*
X+346710Y+3527107D02*
X+328930Y+3547110D01*
X+382270Y+3547110D01*
D52*
X+486650Y+2467000D02*
X+486547Y+2469489D01*
X+485705Y+2474469D01*
X+483945Y+2479449D01*
X+481068Y+2484429D01*
X+476667Y+2489345D01*
X+471687Y+2492959D01*
X+466707Y+2495264D01*
X+461727Y+2496567D01*
X+456747Y+2497000D01*
X+456650Y+2497000D01*
X+426650Y+2467000D02*
X+426753Y+2469489D01*
X+427595Y+2474469D01*
X+429355Y+2479449D01*
X+432232Y+2484429D01*
X+436633Y+2489345D01*
X+441613Y+2492959D01*
X+446593Y+2495264D01*
X+451573Y+2496567D01*
X+456553Y+2497000D01*
X+456650Y+2497000D01*
X+426650Y+2467000D02*
X+426753Y+2464511D01*
X+427595Y+2459531D01*
X+429355Y+2454551D01*
X+432232Y+2449571D01*
X+436633Y+2444655D01*
X+441613Y+2441041D01*
X+446593Y+2438736D01*
X+451573Y+2437433D01*
X+456553Y+2437000D01*
X+456650Y+2437000D01*
X+486650Y+2467000D02*
X+486547Y+2464511D01*
X+485705Y+2459531D01*
X+483945Y+2454551D01*
X+481068Y+2449571D01*
X+476667Y+2444655D01*
X+471687Y+2441041D01*
X+466707Y+2438736D01*
X+461727Y+2437433D01*
X+456747Y+2437000D01*
X+456650Y+2437000D01*
X+486650Y+2867000D02*
X+486547Y+2869489D01*
X+485705Y+2874469D01*
X+483945Y+2879449D01*
X+481068Y+2884429D01*
X+476667Y+2889345D01*
X+471687Y+2892959D01*
X+466707Y+2895264D01*
X+461727Y+2896567D01*
X+456747Y+2897000D01*
X+456650Y+2897000D01*
X+426650Y+2867000D02*
X+426753Y+2869489D01*
X+427595Y+2874469D01*
X+429355Y+2879449D01*
X+432232Y+2884429D01*
X+436633Y+2889345D01*
X+441613Y+2892959D01*
X+446593Y+2895264D01*
X+451573Y+2896567D01*
X+456553Y+2897000D01*
X+456650Y+2897000D01*
X+426650Y+2867000D02*
X+426753Y+2864511D01*
X+427595Y+2859531D01*
X+429355Y+2854551D01*
X+432232Y+2849571D01*
X+436633Y+2844655D01*
X+441613Y+2841041D01*
X+446593Y+2838736D01*
X+451573Y+2837433D01*
X+456553Y+2837000D01*
X+456650Y+2837000D01*
X+486650Y+2867000D02*
X+486547Y+2864511D01*
X+485705Y+2859531D01*
X+483945Y+2854551D01*
X+481068Y+2849571D01*
X+476667Y+2844655D01*
X+471687Y+2841041D01*
X+466707Y+2838736D01*
X+461727Y+2837433D01*
X+456747Y+2837000D01*
X+456650Y+2837000D01*
X+304805Y+908150D02*
X+469905Y+908150D01*
X+469905Y+1219300D01*
X+304805Y+1219300D01*
X+304805Y+908150D01*
D104*
X+387350Y+984350D02*
X+387350Y+984350D01*
D105*
X+407607Y+1021828D02*
X+367104Y+1021828D01*
X+367104Y+1059799D01*
X+373854Y+1067394D01*
X+380605Y+1067394D01*
X+387355Y+1059799D01*
X+387355Y+1021828D01*
X+387355Y+1059799D02*
X+394106Y+1067394D01*
X+407607Y+1067394D01*
X+373854Y+1090177D02*
X+367104Y+1097771D01*
X+367104Y+1120554D01*
X+373854Y+1128149D01*
X+380605Y+1128149D01*
X+387355Y+1120554D01*
X+387355Y+1097771D01*
X+394106Y+1090177D01*
X+407607Y+1090177D01*
X+407607Y+1128149D01*
X+394106Y+1188904D02*
X+394106Y+1143338D01*
X+367104Y+1173715D01*
X+407607Y+1173715D01*
D52*
X+304795Y+133250D02*
X+469895Y+133250D01*
X+469895Y+444400D01*
X+304795Y+444400D01*
X+304795Y+133250D01*
D104*
X+387350Y+368200D02*
X+387350Y+368200D01*
D105*
X+407597Y+148458D02*
X+367094Y+148458D01*
X+367094Y+186429D01*
X+373844Y+194024D01*
X+380595Y+194024D01*
X+387345Y+186429D01*
X+387345Y+148458D01*
X+387345Y+186429D02*
X+394096Y+194024D01*
X+407597Y+194024D01*
X+380595Y+224401D02*
X+367094Y+239590D01*
X+407597Y+239590D01*
X+380595Y+285156D02*
X+367094Y+300345D01*
X+407597Y+300345D01*
D52*
X+177800Y+920725D02*
X+304800Y+920725D01*
X+304800Y+1212825D01*
X+177800Y+1212825D01*
X+177800Y+920725D01*
D101*
X+241300Y+984350D02*
X+241300Y+984350D01*
D102*
X+261404Y+1046910D02*
X+221195Y+1046910D01*
X+221195Y+1077066D01*
X+234598Y+1092144D01*
X+248001Y+1092144D01*
X+261404Y+1077066D01*
X+261404Y+1046910D01*
X+227897Y+1114762D02*
X+221195Y+1122301D01*
X+221195Y+1144918D01*
X+227897Y+1152457D01*
X+234598Y+1152457D01*
X+241300Y+1144918D01*
X+248001Y+1152457D01*
X+254703Y+1152457D01*
X+261404Y+1144918D01*
X+261404Y+1122301D01*
X+254703Y+1114762D01*
X+241300Y+1129840D02*
X+241300Y+1144918D01*
D52*
X+616200Y+2820200D02*
X+1226200Y+2820200D01*
X+1226200Y+3180200D01*
X+616200Y+3180200D01*
X+616200Y+2820200D01*
D106*
X+711200Y+3000200D02*
X+711200Y+3000200D01*
D107*
X+873346Y+2957537D02*
X+873346Y+3042863D01*
X+969337Y+3042863D01*
X+873346Y+3000200D02*
X+937340Y+3000200D01*
X+1033332Y+3014421D02*
X+1065329Y+3042863D01*
X+1065329Y+2957537D01*
D52*
X+1324300Y+4335550D02*
X+1564300Y+4335550D01*
X+1564300Y+4735550D01*
X+1324300Y+4735550D01*
X+1324300Y+4335550D01*
D101*
X+1504300Y+4400550D02*
X+1504300Y+4400550D01*
D108*
X+1413543Y+4484415D02*
X+1464805Y+4484415D01*
X+1475057Y+4495948D01*
X+1475057Y+4542083D01*
X+1464805Y+4553617D01*
X+1413543Y+4553617D01*
X+1454552Y+4645887D02*
X+1454552Y+4576685D01*
X+1413543Y+4622820D01*
X+1475057Y+4622820D01*
D52*
X+1009650Y+4318005D02*
X+1320800Y+4318005D01*
X+1320800Y+4483105D01*
X+1009650Y+4483105D01*
X+1009650Y+4318005D01*
D104*
X+1244600Y+4400550D02*
X+1244600Y+4400550D01*
D105*
X+1100801Y+4387053D02*
X+1093206Y+4380303D01*
X+1070423Y+4380303D01*
X+1055235Y+4393804D01*
X+1055235Y+4407305D01*
X+1070423Y+4420806D01*
X+1093206Y+4420806D01*
X+1100801Y+4414056D01*
X+1123584Y+4420806D02*
X+1161556Y+4420806D01*
X+1161556Y+4414056D01*
X+1123584Y+4380303D01*
D52*
X+990900Y+4647500D02*
X+1345900Y+4647500D01*
X+1345900Y+5212500D01*
X+990900Y+5212500D01*
X+990900Y+4647500D01*
D109*
X+1168400Y+5080000D02*
X+1168400Y+5080000D01*
D110*
X+1192694Y+4812924D02*
X+1204841Y+4799258D01*
X+1204841Y+4758262D01*
X+1180547Y+4730932D01*
X+1156253Y+4730932D01*
X+1131959Y+4758262D01*
X+1131959Y+4799258D01*
X+1144106Y+4812924D01*
X+1168400Y+4867585D02*
X+1156253Y+4853920D01*
X+1144106Y+4853920D01*
X+1131959Y+4867585D01*
X+1131959Y+4908581D01*
X+1144106Y+4922247D01*
X+1156253Y+4922247D01*
X+1168400Y+4908581D01*
X+1168400Y+4867585D01*
X+1180547Y+4853920D01*
X+1192694Y+4853920D01*
X+1204841Y+4867585D01*
X+1204841Y+4908581D01*
X+1192694Y+4922247D01*
X+1180547Y+4922247D01*
X+1168400Y+4908581D01*
D52*
X+1009650Y+4483105D02*
X+1320800Y+4483105D01*
X+1320800Y+4648205D01*
X+1009650Y+4648205D01*
X+1009650Y+4483105D01*
D104*
X+1244600Y+4565650D02*
X+1244600Y+4565650D01*
D105*
X+1100801Y+4552153D02*
X+1093206Y+4545403D01*
X+1070423Y+4545403D01*
X+1055235Y+4558904D01*
X+1055235Y+4572405D01*
X+1070423Y+4585906D01*
X+1093206Y+4585906D01*
X+1100801Y+4579156D01*
X+1161556Y+4572405D02*
X+1153961Y+4565655D01*
X+1131178Y+4565655D01*
X+1123584Y+4572405D01*
X+1123584Y+4579156D01*
X+1131178Y+4585906D01*
X+1153961Y+4585906D01*
X+1161556Y+4579156D01*
X+1161556Y+4552153D01*
X+1153961Y+4545403D01*
X+1131178Y+4545403D01*
D52*
X+914400Y+2604255D02*
X+1225550Y+2604255D01*
X+1225550Y+2769355D01*
X+914400Y+2769355D01*
X+914400Y+2604255D01*
D104*
X+1149350Y+2686800D02*
X+1149350Y+2686800D01*
D105*
X+975174Y+2673303D02*
X+967579Y+2666553D01*
X+944796Y+2666553D01*
X+929608Y+2680054D01*
X+929608Y+2693555D01*
X+944796Y+2707056D01*
X+967579Y+2707056D01*
X+975174Y+2700306D01*
X+1005551Y+2693555D02*
X+1020740Y+2707056D01*
X+1020740Y+2666553D01*
X+1066306Y+2686805D02*
X+1058712Y+2693555D01*
X+1058712Y+2700306D01*
X+1066306Y+2707056D01*
X+1089089Y+2707056D01*
X+1096684Y+2700306D01*
X+1096684Y+2693555D01*
X+1089089Y+2686805D01*
X+1066306Y+2686805D01*
X+1058712Y+2680054D01*
X+1058712Y+2673303D01*
X+1066306Y+2666553D01*
X+1089089Y+2666553D01*
X+1096684Y+2673303D01*
X+1096684Y+2680054D01*
X+1089089Y+2686805D01*
D52*
X+1418645Y+2882750D02*
X+1583745Y+2882750D01*
X+1583745Y+3193900D01*
X+1418645Y+3193900D01*
X+1418645Y+2882750D01*
D104*
X+1501200Y+3117700D02*
X+1501200Y+3117700D01*
D105*
X+1521447Y+2928335D02*
X+1480944Y+2928335D01*
X+1480944Y+2966306D01*
X+1487694Y+2973901D01*
X+1494445Y+2973901D01*
X+1501195Y+2966306D01*
X+1501195Y+2928335D01*
X+1501195Y+2966306D02*
X+1507946Y+2973901D01*
X+1521447Y+2973901D01*
X+1494445Y+3004278D02*
X+1480944Y+3019467D01*
X+1521447Y+3019467D01*
D52*
X+304805Y+1689200D02*
X+469905Y+1689200D01*
X+469905Y+2000350D01*
X+304805Y+2000350D01*
X+304805Y+1689200D01*
D104*
X+387350Y+1765400D02*
X+387350Y+1765400D01*
D105*
X+407607Y+1802878D02*
X+367104Y+1802878D01*
X+367104Y+1840849D01*
X+373854Y+1848444D01*
X+380605Y+1848444D01*
X+387355Y+1840849D01*
X+387355Y+1802878D01*
X+387355Y+1840849D02*
X+394106Y+1848444D01*
X+407607Y+1848444D01*
X+373854Y+1871227D02*
X+367104Y+1878821D01*
X+367104Y+1901604D01*
X+373854Y+1909199D01*
X+380605Y+1909199D01*
X+387355Y+1901604D01*
X+387355Y+1878821D01*
X+394106Y+1871227D01*
X+407607Y+1871227D01*
X+407607Y+1909199D01*
X+373854Y+1969954D02*
X+367104Y+1962359D01*
X+367104Y+1939576D01*
X+373854Y+1931982D01*
X+400857Y+1931982D01*
X+407607Y+1939576D01*
X+407607Y+1962359D01*
X+400857Y+1969954D01*
X+394106Y+1969954D01*
X+387355Y+1962359D01*
X+387355Y+1931982D01*
D52*
X+825505Y+3935750D02*
X+990605Y+3935750D01*
X+990605Y+4246900D01*
X+825505Y+4246900D01*
X+825505Y+3935750D01*
D104*
X+908050Y+4011950D02*
X+908050Y+4011950D01*
D105*
X+928307Y+4049428D02*
X+887804Y+4049428D01*
X+887804Y+4087399D01*
X+894554Y+4094994D01*
X+901305Y+4094994D01*
X+908055Y+4087399D01*
X+908055Y+4049428D01*
X+908055Y+4087399D02*
X+914806Y+4094994D01*
X+928307Y+4094994D01*
X+901305Y+4125371D02*
X+887804Y+4140560D01*
X+928307Y+4140560D01*
X+921557Y+4170938D02*
X+894554Y+4170938D01*
X+887804Y+4178532D01*
X+887804Y+4208909D01*
X+894554Y+4216504D01*
X+921557Y+4216504D01*
X+928307Y+4208909D01*
X+928307Y+4178532D01*
X+921557Y+4170938D01*
X+928307Y+4170938D02*
X+887804Y+4216504D01*
D52*
X+698500Y+3949725D02*
X+825500Y+3949725D01*
X+825500Y+4241825D01*
X+698500Y+4241825D01*
X+698500Y+3949725D01*
D101*
X+762000Y+4178200D02*
X+762000Y+4178200D01*
D102*
X+782104Y+3995014D02*
X+741895Y+3995014D01*
X+741895Y+4025170D01*
X+755298Y+4040248D01*
X+768701Y+4040248D01*
X+782104Y+4025170D01*
X+782104Y+3995014D01*
X+768701Y+4100561D02*
X+768701Y+4055327D01*
X+741895Y+4085483D01*
X+782104Y+4085483D01*
D52*
X+914400Y+2248655D02*
X+1225550Y+2248655D01*
X+1225550Y+2413755D01*
X+914400Y+2413755D01*
X+914400Y+2248655D01*
D104*
X+1149350Y+2331200D02*
X+1149350Y+2331200D01*
D105*
X+975174Y+2317703D02*
X+967579Y+2310953D01*
X+944796Y+2310953D01*
X+929608Y+2324454D01*
X+929608Y+2337955D01*
X+944796Y+2351456D01*
X+967579Y+2351456D01*
X+975174Y+2344706D01*
X+1005551Y+2337955D02*
X+1020740Y+2351456D01*
X+1020740Y+2310953D01*
X+1096684Y+2337955D02*
X+1089089Y+2331205D01*
X+1066306Y+2331205D01*
X+1058712Y+2337955D01*
X+1058712Y+2344706D01*
X+1066306Y+2351456D01*
X+1089089Y+2351456D01*
X+1096684Y+2344706D01*
X+1096684Y+2317703D01*
X+1089089Y+2310953D01*
X+1066306Y+2310953D01*
D52*
X+1458645Y+1800600D02*
X+1623745Y+1800600D01*
X+1623745Y+2111750D01*
X+1458645Y+2111750D01*
X+1458645Y+1800600D01*
D104*
X+1541200Y+2035550D02*
X+1541200Y+2035550D01*
D105*
X+1554697Y+1861374D02*
X+1561447Y+1853779D01*
X+1561447Y+1830996D01*
X+1547946Y+1815808D01*
X+1534445Y+1815808D01*
X+1520944Y+1830996D01*
X+1520944Y+1853779D01*
X+1527694Y+1861374D01*
X+1534445Y+1891751D02*
X+1520944Y+1906940D01*
X+1561447Y+1906940D01*
X+1527694Y+1982884D02*
X+1520944Y+1975289D01*
X+1520944Y+1952506D01*
X+1527694Y+1944912D01*
X+1554697Y+1944912D01*
X+1561447Y+1952506D01*
X+1561447Y+1975289D01*
X+1554697Y+1982884D01*
X+1547946Y+1982884D01*
X+1541195Y+1975289D01*
X+1541195Y+1944912D01*
D52*
X+1623755Y+1799350D02*
X+1788855Y+1799350D01*
X+1788855Y+2110500D01*
X+1623755Y+2110500D01*
X+1623755Y+1799350D01*
D104*
X+1706300Y+1875550D02*
X+1706300Y+1875550D01*
D105*
X+1726557Y+1913028D02*
X+1686054Y+1913028D01*
X+1686054Y+1950999D01*
X+1692804Y+1958594D01*
X+1699555Y+1958594D01*
X+1706305Y+1950999D01*
X+1706305Y+1913028D01*
X+1706305Y+1950999D02*
X+1713056Y+1958594D01*
X+1726557Y+1958594D01*
X+1692804Y+1981377D02*
X+1686054Y+1988971D01*
X+1686054Y+2011754D01*
X+1692804Y+2019349D01*
X+1699555Y+2019349D01*
X+1706305Y+2011754D01*
X+1706305Y+1988971D01*
X+1713056Y+1981377D01*
X+1726557Y+1981377D01*
X+1726557Y+2019349D01*
X+1692804Y+2042132D02*
X+1686054Y+2049726D01*
X+1686054Y+2072509D01*
X+1692804Y+2080104D01*
X+1699555Y+2080104D01*
X+1706305Y+2072509D01*
X+1706305Y+2049726D01*
X+1713056Y+2042132D01*
X+1726557Y+2042132D01*
X+1726557Y+2080104D01*
D111*
X+5123000Y+4110400D02*
X+4373000Y+4110400D01*
X+4373000Y+3560400D01*
X+5123000Y+3560400D01*
X+5123000Y+4110400D01*
X+4748000Y+3785400D02*
X+4748000Y+3885400D01*
X+4698000Y+3835400D02*
X+4798000Y+3835400D01*
D112*
X+5018000Y+3644900D02*
X+5018000Y+3644900D01*
D113*
X+4525073Y+3887030D02*
X+4525073Y+3800980D01*
X+4544434Y+3783770D01*
X+4621879Y+3783770D01*
X+4641240Y+3800980D01*
X+4641240Y+3887030D01*
X+4699324Y+3869820D02*
X+4718685Y+3887030D01*
X+4776769Y+3887030D01*
X+4796130Y+3869820D01*
X+4796130Y+3852610D01*
X+4776769Y+3835400D01*
X+4796130Y+3818190D01*
X+4796130Y+3800980D01*
X+4776769Y+3783770D01*
X+4718685Y+3783770D01*
X+4699324Y+3800980D01*
X+4738046Y+3835400D02*
X+4776769Y+3835400D01*
D52*
X+3989050Y+3562355D02*
X+4300200Y+3562355D01*
X+4300200Y+3727455D01*
X+3989050Y+3727455D01*
X+3989050Y+3562355D01*
D104*
X+4224000Y+3644900D02*
X+4224000Y+3644900D01*
D105*
X+4080201Y+3631403D02*
X+4072606Y+3624653D01*
X+4049823Y+3624653D01*
X+4034635Y+3638154D01*
X+4034635Y+3651655D01*
X+4049823Y+3665156D01*
X+4072606Y+3665156D01*
X+4080201Y+3658406D01*
X+4140956Y+3658406D02*
X+4133361Y+3665156D01*
X+4110578Y+3665156D01*
X+4102984Y+3658406D01*
X+4102984Y+3631403D01*
X+4110578Y+3624653D01*
X+4133361Y+3624653D01*
X+4140956Y+3631403D01*
X+4140956Y+3638154D01*
X+4133361Y+3644905D01*
X+4102984Y+3644905D01*
D52*
X+1160780Y+1210405D02*
X+1351280Y+1210405D01*
X+1351280Y+1578705D01*
X+1160780Y+1578705D01*
X+1160780Y+1210405D01*
D114*
X+1256030Y+1286610D02*
X+1256030Y+1286610D01*
D115*
X+1272878Y+1428308D02*
X+1281302Y+1418831D01*
X+1281302Y+1390400D01*
X+1264454Y+1371446D01*
X+1247606Y+1371446D01*
X+1230758Y+1390400D01*
X+1230758Y+1418831D01*
X+1239182Y+1428308D01*
X+1247606Y+1466216D02*
X+1230758Y+1485170D01*
X+1281302Y+1485170D01*
D52*
X+666750Y+106600D02*
X+1250950Y+106600D01*
X+1250950Y+436800D01*
X+666750Y+436800D01*
X+666750Y+106600D01*
D19*
X+1149350Y+208200D02*
X+1149350Y+208200D01*
D116*
X+762769Y+256628D02*
X+762769Y+241556D01*
X+779724Y+226484D01*
X+847547Y+226484D01*
X+864503Y+241556D01*
X+864503Y+316915D01*
X+932326Y+271700D02*
X+915370Y+286771D01*
X+915370Y+301843D01*
X+932326Y+316915D01*
X+983193Y+316915D01*
X+1000149Y+301843D01*
X+1000149Y+286771D01*
X+983193Y+271700D01*
X+932326Y+271700D01*
X+915370Y+256628D01*
X+915370Y+241556D01*
X+932326Y+226484D01*
X+983193Y+226484D01*
X+1000149Y+241556D01*
X+1000149Y+256628D01*
X+983193Y+271700D01*
D52*
X+1583755Y+2881500D02*
X+1748855Y+2881500D01*
X+1748855Y+3192650D01*
X+1583755Y+3192650D01*
X+1583755Y+2881500D01*
D104*
X+1666300Y+2957700D02*
X+1666300Y+2957700D01*
D105*
X+1679807Y+3040744D02*
X+1686557Y+3033149D01*
X+1686557Y+3010366D01*
X+1673056Y+2995178D01*
X+1659555Y+2995178D01*
X+1646054Y+3010366D01*
X+1646054Y+3033149D01*
X+1652804Y+3040744D01*
X+1659555Y+3071121D02*
X+1646054Y+3086310D01*
X+1686557Y+3086310D01*
X+1646054Y+3162254D02*
X+1646054Y+3124282D01*
X+1659555Y+3124282D01*
X+1659555Y+3154659D01*
X+1666305Y+3162254D01*
X+1679807Y+3162254D01*
X+1686557Y+3154659D01*
X+1686557Y+3131876D01*
X+1679807Y+3124282D01*
D54*
X+4730750Y+120650D02*
X+6521450Y+120650D01*
X+6521450Y+387350D01*
X+4730750Y+387350D01*
X+4730750Y+120650D01*
D117*
X+4864100Y+254000D02*
X+4864100Y+254000D01*
D118*
X+5548755Y+236220D02*
X+5548755Y+218440D01*
X+5568757Y+200660D01*
X+5648767Y+200660D01*
X+5668770Y+218440D01*
X+5668770Y+307340D01*
X+5828790Y+236220D02*
X+5708775Y+236220D01*
X+5788785Y+307340D01*
X+5788785Y+200660D01*
D54*
X+2190750Y+120650D02*
X+4743450Y+120650D01*
X+4743450Y+387350D01*
X+2190750Y+387350D01*
X+2190750Y+120650D01*
D117*
X+2324100Y+254000D02*
X+2324100Y+254000D01*
D118*
X+3389755Y+236220D02*
X+3389755Y+218440D01*
X+3409757Y+200660D01*
X+3489767Y+200660D01*
X+3509770Y+218440D01*
X+3509770Y+307340D01*
X+3569777Y+289560D02*
X+3589780Y+307340D01*
X+3649787Y+307340D01*
X+3669790Y+289560D01*
X+3669790Y+271780D01*
X+3649787Y+254000D01*
X+3589780Y+254000D01*
X+3569777Y+236220D01*
X+3569777Y+200660D01*
X+3669790Y+200660D01*
D54*
X+1784350Y+4946650D02*
X+4337050Y+4946650D01*
X+4337050Y+5213350D01*
X+1784350Y+5213350D01*
X+1784350Y+4946650D01*
D117*
X+1917700Y+5080000D02*
X+1917700Y+5080000D01*
D118*
X+2983355Y+5062220D02*
X+2983355Y+5044440D01*
X+3003357Y+5026660D01*
X+3083367Y+5026660D01*
X+3103370Y+5044440D01*
X+3103370Y+5133340D01*
X+3263390Y+5115560D02*
X+3243387Y+5133340D01*
X+3183380Y+5133340D01*
X+3163377Y+5115560D01*
X+3163377Y+5044440D01*
X+3183380Y+5026660D01*
X+3243387Y+5026660D01*
X+3263390Y+5044440D01*
X+3263390Y+5062220D01*
X+3243387Y+5080000D01*
X+3163377Y+5080000D01*
D54*
X+4476750Y+4946650D02*
X+6521450Y+4946650D01*
X+6521450Y+5213350D01*
X+4476750Y+5213350D01*
X+4476750Y+4946650D01*
D117*
X+4610100Y+5080000D02*
X+4610100Y+5080000D01*
D118*
X+5421755Y+5062220D02*
X+5421755Y+5044440D01*
X+5441757Y+5026660D01*
X+5521767Y+5026660D01*
X+5541770Y+5044440D01*
X+5541770Y+5133340D01*
X+5601777Y+5133340D02*
X+5701790Y+5133340D01*
X+5701790Y+5115560D01*
X+5601777Y+5026660D01*
D52*
X+4232150Y+1195000D02*
X+4582150Y+1195000D01*
X+4582150Y+1605000D01*
X+4232150Y+1605000D01*
X+4232150Y+1195000D01*
D119*
X+4312150Y+1270000D02*
X+4312150Y+1270000D01*
D120*
X+4305198Y+1484119D02*
X+4305198Y+1427479D01*
X+4317942Y+1416151D01*
X+4368918Y+1416151D01*
X+4381662Y+1427479D01*
X+4381662Y+1484119D01*
X+4483614Y+1484119D02*
X+4419894Y+1484119D01*
X+4419894Y+1461463D01*
X+4470870Y+1461463D01*
X+4483614Y+1450135D01*
X+4483614Y+1427479D01*
X+4470870Y+1416151D01*
X+4432638Y+1416151D01*
X+4419894Y+1427479D01*
D52*
X+3403800Y+1196000D02*
X+4063800Y+1196000D01*
X+4063800Y+1856000D01*
X+3403800Y+1856000D01*
X+3403800Y+1196000D01*
D121*
X+3733800Y+1333500D02*
X+3733800Y+1333500D01*
D122*
X+3550467Y+1704871D02*
X+3550467Y+1582648D01*
X+3687966Y+1582648D01*
X+3779633Y+1664130D02*
X+3825466Y+1704871D01*
X+3825466Y+1582648D01*
D52*
X+5141650Y+2766999D02*
X+5141650Y+2566999D01*
X+5241650Y+2666999D02*
X+5041650Y+2666999D01*
X+4461650Y+1986999D02*
X+5821650Y+1986999D01*
X+5821650Y+3346999D01*
X+4461650Y+3346999D01*
X+4461650Y+1986999D01*
D123*
X+5541650Y+3236999D02*
X+5541650Y+3236999D01*
D124*
X+4844257Y+2698120D02*
X+4844257Y+2532902D01*
X+4881431Y+2499858D01*
X+5030127Y+2499858D01*
X+5067301Y+2532902D01*
X+5067301Y+2698120D01*
X+5215998Y+2598989D02*
X+5178824Y+2632033D01*
X+5178824Y+2665076D01*
X+5215998Y+2698120D01*
X+5327520Y+2698120D01*
X+5364694Y+2665076D01*
X+5364694Y+2632033D01*
X+5327520Y+2598989D01*
X+5215998Y+2598989D01*
X+5178824Y+2565945D01*
X+5178824Y+2532902D01*
X+5215998Y+2499858D01*
X+5327520Y+2499858D01*
X+5364694Y+2532902D01*
X+5364694Y+2565945D01*
X+5327520Y+2598989D01*
D52*
X+4584705Y+1193800D02*
X+4749805Y+1193800D01*
X+4749805Y+1504950D01*
X+4584705Y+1504950D01*
X+4584705Y+1193800D01*
D104*
X+4667250Y+1270000D02*
X+4667250Y+1270000D01*
D105*
X+4680757Y+1353044D02*
X+4687507Y+1345449D01*
X+4687507Y+1322666D01*
X+4674006Y+1307478D01*
X+4660505Y+1307478D01*
X+4647004Y+1322666D01*
X+4647004Y+1345449D01*
X+4653754Y+1353044D01*
X+4653754Y+1375827D02*
X+4647004Y+1383421D01*
X+4647004Y+1406204D01*
X+4653754Y+1413799D01*
X+4660505Y+1413799D01*
X+4667255Y+1406204D01*
X+4667255Y+1383421D01*
X+4674006Y+1375827D01*
X+4687507Y+1375827D01*
X+4687507Y+1413799D01*
X+4680757Y+1428988D02*
X+4653754Y+1428988D01*
X+4647004Y+1436582D01*
X+4647004Y+1466959D01*
X+4653754Y+1474554D01*
X+4680757Y+1474554D01*
X+4687507Y+1466959D01*
X+4687507Y+1436582D01*
X+4680757Y+1428988D01*
X+4687507Y+1428988D02*
X+4647004Y+1474554D01*
D52*
X+4749800Y+1193795D02*
X+4940300Y+1193795D01*
X+4940300Y+1562095D01*
X+4749800Y+1562095D01*
X+4749800Y+1193795D01*
D114*
X+4845050Y+1270000D02*
X+4845050Y+1270000D01*
D115*
X+4861898Y+1373790D02*
X+4870322Y+1364313D01*
X+4870322Y+1335882D01*
X+4853474Y+1316928D01*
X+4836626Y+1316928D01*
X+4819778Y+1335882D01*
X+4819778Y+1364313D01*
X+4828202Y+1373790D01*
X+4828202Y+1402221D02*
X+4819778Y+1411698D01*
X+4819778Y+1440129D01*
X+4828202Y+1449606D01*
X+4836626Y+1449606D01*
X+4845050Y+1440129D01*
X+4845050Y+1411698D01*
X+4853474Y+1402221D01*
X+4870322Y+1402221D01*
X+4870322Y+1449606D01*
X+4836626Y+1487514D02*
X+4819778Y+1506468D01*
X+4870322Y+1506468D01*
D52*
X+4064005Y+1193800D02*
X+4229105Y+1193800D01*
X+4229105Y+1504950D01*
X+4064005Y+1504950D01*
X+4064005Y+1193800D01*
D104*
X+4146550Y+1270000D02*
X+4146550Y+1270000D01*
D105*
X+4160057Y+1383421D02*
X+4166807Y+1375826D01*
X+4166807Y+1353043D01*
X+4153306Y+1337855D01*
X+4139805Y+1337855D01*
X+4126304Y+1353043D01*
X+4126304Y+1375826D01*
X+4133054Y+1383421D01*
X+4133054Y+1406204D02*
X+4126304Y+1413798D01*
X+4126304Y+1436581D01*
X+4133054Y+1444176D01*
X+4139805Y+1444176D01*
X+4146555Y+1436581D01*
X+4146555Y+1413798D01*
X+4153306Y+1406204D01*
X+4166807Y+1406204D01*
X+4166807Y+1444176D01*
D52*
X+3108900Y+1193295D02*
X+3299400Y+1193295D01*
X+3299400Y+1561595D01*
X+3108900Y+1561595D01*
X+3108900Y+1193295D01*
D114*
X+3204150Y+1269500D02*
X+3204150Y+1269500D01*
D115*
X+3220998Y+1373290D02*
X+3229422Y+1363813D01*
X+3229422Y+1335382D01*
X+3212574Y+1316428D01*
X+3195726Y+1316428D01*
X+3178878Y+1335382D01*
X+3178878Y+1363813D01*
X+3187302Y+1373290D01*
X+3195726Y+1411198D02*
X+3178878Y+1430152D01*
X+3229422Y+1430152D01*
X+3187302Y+1477537D02*
X+3178878Y+1487014D01*
X+3178878Y+1515445D01*
X+3187302Y+1524922D01*
X+3195726Y+1524922D01*
X+3204150Y+1515445D01*
X+3204150Y+1487014D01*
X+3212574Y+1477537D01*
X+3229422Y+1477537D01*
X+3229422Y+1524922D01*
D52*
X+3121595Y+1543800D02*
X+3286695Y+1543800D01*
X+3286695Y+1854950D01*
X+3121595Y+1854950D01*
X+3121595Y+1543800D01*
D104*
X+3204150Y+1778750D02*
X+3204150Y+1778750D01*
D105*
X+3217647Y+1634951D02*
X+3224397Y+1627356D01*
X+3224397Y+1604573D01*
X+3210896Y+1589385D01*
X+3197395Y+1589385D01*
X+3183894Y+1604573D01*
X+3183894Y+1627356D01*
X+3190644Y+1634951D01*
X+3210896Y+1695706D02*
X+3210896Y+1650140D01*
X+3183894Y+1680517D01*
X+3224397Y+1680517D01*
D52*
X+4582105Y+1542550D02*
X+4747205Y+1542550D01*
X+4747205Y+1853700D01*
X+4582105Y+1853700D01*
X+4582105Y+1542550D01*
D104*
X+4664650Y+1618750D02*
X+4664650Y+1618750D01*
D105*
X+4684907Y+1686605D02*
X+4644404Y+1686605D01*
X+4644404Y+1724576D01*
X+4651154Y+1732171D01*
X+4657905Y+1732171D01*
X+4664655Y+1724576D01*
X+4664655Y+1686605D01*
X+4664655Y+1724576D02*
X+4671406Y+1732171D01*
X+4684907Y+1732171D01*
X+4644404Y+1754954D02*
X+4644404Y+1792926D01*
X+4651154Y+1792926D01*
X+4684907Y+1754954D01*
D52*
X+4245550Y+1696195D02*
X+4556700Y+1696195D01*
X+4556700Y+1861295D01*
X+4245550Y+1861295D01*
X+4245550Y+1696195D01*
D104*
X+4321750Y+1778750D02*
X+4321750Y+1778750D01*
D105*
X+4389605Y+1758493D02*
X+4389605Y+1798996D01*
X+4427576Y+1798996D01*
X+4435171Y+1792246D01*
X+4435171Y+1785495D01*
X+4427576Y+1778745D01*
X+4389605Y+1778745D01*
X+4427576Y+1778745D02*
X+4435171Y+1771994D01*
X+4435171Y+1758493D01*
X+4465548Y+1778745D02*
X+4457954Y+1785495D01*
X+4457954Y+1792246D01*
X+4465548Y+1798996D01*
X+4488331Y+1798996D01*
X+4495926Y+1792246D01*
X+4495926Y+1785495D01*
X+4488331Y+1778745D01*
X+4465548Y+1778745D01*
X+4457954Y+1771994D01*
X+4457954Y+1765243D01*
X+4465548Y+1758493D01*
X+4488331Y+1758493D01*
X+4495926Y+1765243D01*
X+4495926Y+1771994D01*
X+4488331Y+1778745D01*
D52*
X+4759895Y+1543800D02*
X+4924995Y+1543800D01*
X+4924995Y+1854950D01*
X+4759895Y+1854950D01*
X+4759895Y+1543800D01*
D104*
X+4842450Y+1778750D02*
X+4842450Y+1778750D01*
D105*
X+4862697Y+1589385D02*
X+4822194Y+1589385D01*
X+4822194Y+1627356D01*
X+4828944Y+1634951D01*
X+4835695Y+1634951D01*
X+4842445Y+1627356D01*
X+4842445Y+1589385D01*
X+4842445Y+1627356D02*
X+4849196Y+1634951D01*
X+4862697Y+1634951D01*
X+4835695Y+1695706D02*
X+4842445Y+1688111D01*
X+4842445Y+1665328D01*
X+4835695Y+1657734D01*
X+4828944Y+1657734D01*
X+4822194Y+1665328D01*
X+4822194Y+1688111D01*
X+4828944Y+1695706D01*
X+4855947Y+1695706D01*
X+4862697Y+1688111D01*
X+4862697Y+1665328D01*
D52*
X+4061395Y+1543800D02*
X+4226495Y+1543800D01*
X+4226495Y+1854950D01*
X+4061395Y+1854950D01*
X+4061395Y+1543800D01*
D104*
X+4143950Y+1778750D02*
X+4143950Y+1778750D01*
D105*
X+4157447Y+1604574D02*
X+4164197Y+1596979D01*
X+4164197Y+1574196D01*
X+4150696Y+1559008D01*
X+4137195Y+1559008D01*
X+4123694Y+1574196D01*
X+4123694Y+1596979D01*
X+4130444Y+1604574D01*
X+4130444Y+1627357D02*
X+4123694Y+1634951D01*
X+4123694Y+1657734D01*
X+4130444Y+1665329D01*
X+4137195Y+1665329D01*
X+4143945Y+1657734D01*
X+4143945Y+1634951D01*
X+4150696Y+1627357D01*
X+4164197Y+1627357D01*
X+4164197Y+1665329D01*
X+4123694Y+1726084D02*
X+4123694Y+1688112D01*
X+4137195Y+1688112D01*
X+4137195Y+1718489D01*
X+4143945Y+1726084D01*
X+4157447Y+1726084D01*
X+4164197Y+1718489D01*
X+4164197Y+1695706D01*
X+4157447Y+1688112D01*
D52*
X+1354150Y+1158350D02*
X+1739150Y+1158350D01*
X+1739150Y+1578350D01*
X+1354150Y+1578350D01*
X+1354150Y+1158350D01*
D125*
X+1454150Y+1238350D02*
X+1454150Y+1238350D01*
D126*
X+1434199Y+1431385D02*
X+1462311Y+1456374D01*
X+1490424Y+1456374D01*
X+1518537Y+1431385D01*
X+1518537Y+1406396D01*
X+1490424Y+1381407D01*
X+1462311Y+1381407D01*
X+1434199Y+1406396D01*
X+1434199Y+1431385D01*
X+1490424Y+1406396D02*
X+1518537Y+1381407D01*
X+1574762Y+1431385D02*
X+1602875Y+1456374D01*
X+1602875Y+1381407D01*
D52*
X+1385550Y+647805D02*
X+1696700Y+647805D01*
X+1696700Y+812905D01*
X+1385550Y+812905D01*
X+1385550Y+647805D01*
D104*
X+1620500Y+730350D02*
X+1620500Y+730350D01*
D105*
X+1431135Y+710103D02*
X+1431135Y+750606D01*
X+1469106Y+750606D01*
X+1476701Y+743856D01*
X+1476701Y+737105D01*
X+1469106Y+730355D01*
X+1431135Y+730355D01*
X+1469106Y+730355D02*
X+1476701Y+723604D01*
X+1476701Y+710103D01*
X+1499484Y+743856D02*
X+1507078Y+750606D01*
X+1529861Y+750606D01*
X+1537456Y+743856D01*
X+1537456Y+737105D01*
X+1529861Y+730355D01*
X+1507078Y+730355D01*
X+1499484Y+723604D01*
X+1499484Y+710103D01*
X+1537456Y+710103D01*
D52*
X+1384300Y+812895D02*
X+1695450Y+812895D01*
X+1695450Y+977995D01*
X+1384300Y+977995D01*
X+1384300Y+812895D01*
D104*
X+1460500Y+895450D02*
X+1460500Y+895450D01*
D105*
X+1528355Y+875193D02*
X+1528355Y+915696D01*
X+1566326Y+915696D01*
X+1573921Y+908946D01*
X+1573921Y+902195D01*
X+1566326Y+895445D01*
X+1528355Y+895445D01*
X+1566326Y+895445D02*
X+1573921Y+888694D01*
X+1573921Y+875193D01*
X+1596704Y+908946D02*
X+1604298Y+915696D01*
X+1627081Y+915696D01*
X+1634676Y+908946D01*
X+1634676Y+902195D01*
X+1627081Y+895445D01*
X+1634676Y+888694D01*
X+1634676Y+881943D01*
X+1627081Y+875193D01*
X+1604298Y+875193D01*
X+1596704Y+881943D01*
X+1611893Y+895445D02*
X+1627081Y+895445D01*
D52*
X+825505Y+4742200D02*
X+990605Y+4742200D01*
X+990605Y+5053350D01*
X+825505Y+5053350D01*
X+825505Y+4742200D01*
D104*
X+908050Y+4818400D02*
X+908050Y+4818400D01*
D105*
X+928307Y+4855878D02*
X+887804Y+4855878D01*
X+887804Y+4893849D01*
X+894554Y+4901444D01*
X+901305Y+4901444D01*
X+908055Y+4893849D01*
X+908055Y+4855878D01*
X+908055Y+4893849D02*
X+914806Y+4901444D01*
X+928307Y+4901444D01*
X+894554Y+4924227D02*
X+887804Y+4931821D01*
X+887804Y+4954604D01*
X+894554Y+4962199D01*
X+901305Y+4962199D01*
X+908055Y+4954604D01*
X+908055Y+4931821D01*
X+914806Y+4924227D01*
X+928307Y+4924227D01*
X+928307Y+4962199D01*
X+894554Y+4984982D02*
X+887804Y+4992576D01*
X+887804Y+5015359D01*
X+894554Y+5022954D01*
X+901305Y+5022954D01*
X+908055Y+5015359D01*
X+914806Y+5022954D01*
X+921557Y+5022954D01*
X+928307Y+5015359D01*
X+928307Y+4992576D01*
X+921557Y+4984982D01*
X+908055Y+5000171D02*
X+908055Y+5015359D01*
D52*
X+3987800Y+2997195D02*
X+4298950Y+2997195D01*
X+4298950Y+3162295D01*
X+3987800Y+3162295D01*
X+3987800Y+2997195D01*
D104*
X+4064000Y+3079750D02*
X+4064000Y+3079750D01*
D105*
X+4131855Y+3059493D02*
X+4131855Y+3099996D01*
X+4169826Y+3099996D01*
X+4177421Y+3093246D01*
X+4177421Y+3086495D01*
X+4169826Y+3079745D01*
X+4131855Y+3079745D01*
X+4169826Y+3079745D02*
X+4177421Y+3072994D01*
X+4177421Y+3059493D01*
X+4238176Y+3072994D02*
X+4192610Y+3072994D01*
X+4222987Y+3099996D01*
X+4222987Y+3059493D01*
D52*
X+3987800Y+3162295D02*
X+4298950Y+3162295D01*
X+4298950Y+3327395D01*
X+3987800Y+3327395D01*
X+3987800Y+3162295D01*
D104*
X+4064000Y+3244850D02*
X+4064000Y+3244850D01*
D105*
X+4131855Y+3224593D02*
X+4131855Y+3265096D01*
X+4169826Y+3265096D01*
X+4177421Y+3258346D01*
X+4177421Y+3251595D01*
X+4169826Y+3244845D01*
X+4131855Y+3244845D01*
X+4169826Y+3244845D02*
X+4177421Y+3238094D01*
X+4177421Y+3224593D01*
X+4238176Y+3265096D02*
X+4200204Y+3265096D01*
X+4200204Y+3251595D01*
X+4230581Y+3251595D01*
X+4238176Y+3244845D01*
X+4238176Y+3231343D01*
X+4230581Y+3224593D01*
X+4207798Y+3224593D01*
X+4200204Y+3231343D01*
D52*
X+3987800Y+2832095D02*
X+4298950Y+2832095D01*
X+4298950Y+2997195D01*
X+3987800Y+2997195D01*
X+3987800Y+2832095D01*
D104*
X+4064000Y+2914650D02*
X+4064000Y+2914650D01*
D105*
X+4131855Y+2894393D02*
X+4131855Y+2934896D01*
X+4169826Y+2934896D01*
X+4177421Y+2928146D01*
X+4177421Y+2921395D01*
X+4169826Y+2914645D01*
X+4131855Y+2914645D01*
X+4169826Y+2914645D02*
X+4177421Y+2907894D01*
X+4177421Y+2894393D01*
X+4238176Y+2928146D02*
X+4230581Y+2934896D01*
X+4207798Y+2934896D01*
X+4200204Y+2928146D01*
X+4200204Y+2901143D01*
X+4207798Y+2894393D01*
X+4230581Y+2894393D01*
X+4238176Y+2901143D01*
X+4238176Y+2907894D01*
X+4230581Y+2914645D01*
X+4200204Y+2914645D01*
D52*
X+5933900Y+3016244D02*
X+6245050Y+3016244D01*
X+6245050Y+3181344D01*
X+5933900Y+3181344D01*
X+5933900Y+3016244D01*
D104*
X+6010100Y+3098799D02*
X+6010100Y+3098799D01*
D105*
X+6123521Y+3085292D02*
X+6115926Y+3078542D01*
X+6093143Y+3078542D01*
X+6077955Y+3092043D01*
X+6077955Y+3105544D01*
X+6093143Y+3119045D01*
X+6115926Y+3119045D01*
X+6123521Y+3112295D01*
X+6184276Y+3119045D02*
X+6146304Y+3119045D01*
X+6146304Y+3105544D01*
X+6176681Y+3105544D01*
X+6184276Y+3098794D01*
X+6184276Y+3085292D01*
X+6176681Y+3078542D01*
X+6153898Y+3078542D01*
X+6146304Y+3085292D01*
D52*
X+5930100Y+2629649D02*
X+6350100Y+2629649D01*
X+6350100Y+3014649D01*
X+5930100Y+3014649D01*
X+5930100Y+2629649D01*
D125*
X+6010100Y+2914649D02*
X+6010100Y+2914649D01*
D126*
X+6153158Y+2709698D02*
X+6215631Y+2709698D01*
X+6228125Y+2723754D01*
X+6228125Y+2779979D01*
X+6215631Y+2794036D01*
X+6153158Y+2794036D01*
X+6165652Y+2836205D02*
X+6153158Y+2850261D01*
X+6153158Y+2892430D01*
X+6165652Y+2906487D01*
X+6178147Y+2906487D01*
X+6190641Y+2892430D01*
X+6190641Y+2850261D01*
X+6203136Y+2836205D01*
X+6228125Y+2836205D01*
X+6228125Y+2906487D01*
D52*
X+5125700Y+3562345D02*
X+5436850Y+3562345D01*
X+5436850Y+3727445D01*
X+5125700Y+3727445D01*
X+5125700Y+3562345D01*
D104*
X+5201900Y+3644900D02*
X+5201900Y+3644900D01*
D105*
X+5284944Y+3631393D02*
X+5277349Y+3624643D01*
X+5254566Y+3624643D01*
X+5239378Y+3638144D01*
X+5239378Y+3651645D01*
X+5254566Y+3665146D01*
X+5277349Y+3665146D01*
X+5284944Y+3658396D01*
X+5315321Y+3651645D02*
X+5330510Y+3665146D01*
X+5330510Y+3624643D01*
X+5368482Y+3658396D02*
X+5376076Y+3665146D01*
X+5398859Y+3665146D01*
X+5406454Y+3658396D01*
X+5406454Y+3651645D01*
X+5398859Y+3644895D01*
X+5406454Y+3638144D01*
X+5406454Y+3631393D01*
X+5398859Y+3624643D01*
X+5376076Y+3624643D01*
X+5368482Y+3631393D01*
X+5383671Y+3644895D02*
X+5398859Y+3644895D01*
D52*
X+5071045Y+1543800D02*
X+5236145Y+1543800D01*
X+5236145Y+1854950D01*
X+5071045Y+1854950D01*
X+5071045Y+1543800D01*
D104*
X+5153600Y+1778750D02*
X+5153600Y+1778750D01*
D105*
X+5167097Y+1604574D02*
X+5173847Y+1596979D01*
X+5173847Y+1574196D01*
X+5160346Y+1559008D01*
X+5146845Y+1559008D01*
X+5133344Y+1574196D01*
X+5133344Y+1596979D01*
X+5140094Y+1604574D01*
X+5146845Y+1634951D02*
X+5133344Y+1650140D01*
X+5173847Y+1650140D01*
X+5160346Y+1726084D02*
X+5160346Y+1680518D01*
X+5133344Y+1710895D01*
X+5173847Y+1710895D01*
D52*
X+5933900Y+2463794D02*
X+6245050Y+2463794D01*
X+6245050Y+2628894D01*
X+5933900Y+2628894D01*
X+5933900Y+2463794D01*
D104*
X+6010100Y+2546349D02*
X+6010100Y+2546349D01*
D105*
X+6093144Y+2532842D02*
X+6085549Y+2526092D01*
X+6062766Y+2526092D01*
X+6047578Y+2539593D01*
X+6047578Y+2553094D01*
X+6062766Y+2566595D01*
X+6085549Y+2566595D01*
X+6093144Y+2559845D01*
X+6123521Y+2553094D02*
X+6138710Y+2566595D01*
X+6138710Y+2526092D01*
X+6176682Y+2566595D02*
X+6214654Y+2566595D01*
X+6214654Y+2559845D01*
X+6176682Y+2526092D01*
D52*
X+3989050Y+2667005D02*
X+4300200Y+2667005D01*
X+4300200Y+2832105D01*
X+3989050Y+2832105D01*
X+3989050Y+2667005D01*
D104*
X+4224000Y+2749550D02*
X+4224000Y+2749550D01*
D105*
X+4049824Y+2736053D02*
X+4042229Y+2729303D01*
X+4019446Y+2729303D01*
X+4004258Y+2742804D01*
X+4004258Y+2756305D01*
X+4019446Y+2769806D01*
X+4042229Y+2769806D01*
X+4049824Y+2763056D01*
X+4072607Y+2763056D02*
X+4080201Y+2769806D01*
X+4102984Y+2769806D01*
X+4110579Y+2763056D01*
X+4110579Y+2756305D01*
X+4102984Y+2749555D01*
X+4080201Y+2749555D01*
X+4072607Y+2742804D01*
X+4072607Y+2729303D01*
X+4110579Y+2729303D01*
X+4133362Y+2763056D02*
X+4140956Y+2769806D01*
X+4163739Y+2769806D01*
X+4171334Y+2763056D01*
X+4171334Y+2756305D01*
X+4163739Y+2749555D01*
X+4140956Y+2749555D01*
X+4133362Y+2742804D01*
X+4133362Y+2729303D01*
X+4171334Y+2729303D01*
D52*
X+3876400Y+2281250D02*
X+4296400Y+2281250D01*
X+4296400Y+2666250D01*
X+3876400Y+2666250D01*
X+3876400Y+2281250D01*
D125*
X+4216400Y+2381250D02*
X+4216400Y+2381250D01*
D126*
X+4023365Y+2361299D02*
X+3998376Y+2389411D01*
X+3998376Y+2417524D01*
X+4023365Y+2445637D01*
X+4048354Y+2445637D01*
X+4073343Y+2417524D01*
X+4073343Y+2389411D01*
X+4048354Y+2361299D01*
X+4023365Y+2361299D01*
X+4048354Y+2417524D02*
X+4073343Y+2445637D01*
X+4010870Y+2487806D02*
X+3998376Y+2501862D01*
X+3998376Y+2544031D01*
X+4010870Y+2558088D01*
X+4023365Y+2558088D01*
X+4035859Y+2544031D01*
X+4035859Y+2501862D01*
X+4048354Y+2487806D01*
X+4073343Y+2487806D01*
X+4073343Y+2558088D01*
D52*
X+3987800Y+2114545D02*
X+4298950Y+2114545D01*
X+4298950Y+2279645D01*
X+3987800Y+2279645D01*
X+3987800Y+2114545D01*
D104*
X+4064000Y+2197100D02*
X+4064000Y+2197100D01*
D105*
X+4101478Y+2176843D02*
X+4101478Y+2217346D01*
X+4139449Y+2217346D01*
X+4147044Y+2210596D01*
X+4147044Y+2203845D01*
X+4139449Y+2197095D01*
X+4101478Y+2197095D01*
X+4139449Y+2197095D02*
X+4147044Y+2190344D01*
X+4147044Y+2176843D01*
X+4177421Y+2203845D02*
X+4192610Y+2217346D01*
X+4192610Y+2176843D01*
X+4230582Y+2210596D02*
X+4238176Y+2217346D01*
X+4260959Y+2217346D01*
X+4268554Y+2210596D01*
X+4268554Y+2203845D01*
X+4260959Y+2197095D01*
X+4268554Y+2190344D01*
X+4268554Y+2183593D01*
X+4260959Y+2176843D01*
X+4238176Y+2176843D01*
X+4230582Y+2183593D01*
X+4245771Y+2197095D02*
X+4260959Y+2197095D01*
D52*
X+3989050Y+1949455D02*
X+4300200Y+1949455D01*
X+4300200Y+2114555D01*
X+3989050Y+2114555D01*
X+3989050Y+1949455D01*
D104*
X+4224000Y+2032000D02*
X+4224000Y+2032000D01*
D105*
X+4004258Y+2011753D02*
X+4004258Y+2052256D01*
X+4042229Y+2052256D01*
X+4049824Y+2045506D01*
X+4049824Y+2038755D01*
X+4042229Y+2032005D01*
X+4004258Y+2032005D01*
X+4042229Y+2032005D02*
X+4049824Y+2025254D01*
X+4049824Y+2011753D01*
X+4080201Y+2038755D02*
X+4095390Y+2052256D01*
X+4095390Y+2011753D01*
X+4171334Y+2025254D02*
X+4125768Y+2025254D01*
X+4156145Y+2052256D01*
X+4156145Y+2011753D01*
D54*
X+680650Y+4420800D02*
X+843350Y+4420800D01*
X+843350Y+4583500D01*
X+680650Y+4583500D01*
X+680650Y+4420800D01*
D111*
X+694500Y+4517150D02*
X+728250Y+4517150D01*
X+711375Y+4517150D02*
X+711375Y+4487150D01*
X+739500Y+4487150D02*
X+739500Y+4517150D01*
X+767625Y+4517150D01*
X+773250Y+4512150D01*
X+773250Y+4507150D01*
X+767625Y+4502150D01*
X+739500Y+4502150D01*
X+790125Y+4512150D02*
X+795750Y+4517150D01*
X+812625Y+4517150D01*
X+818250Y+4512150D01*
X+818250Y+4507150D01*
X+812625Y+4502150D01*
X+795750Y+4502150D01*
X+790125Y+4497150D01*
X+790125Y+4487150D01*
X+818250Y+4487150D01*
D52*
X+177800Y+1701775D02*
X+304800Y+1701775D01*
X+304800Y+1993875D01*
X+177800Y+1993875D01*
X+177800Y+1701775D01*
D101*
X+241300Y+1765400D02*
X+241300Y+1765400D01*
D102*
X+261404Y+1827960D02*
X+221195Y+1827960D01*
X+221195Y+1858116D01*
X+234598Y+1873194D01*
X+248001Y+1873194D01*
X+261404Y+1858116D01*
X+261404Y+1827960D01*
X+221195Y+1933507D02*
X+221195Y+1895812D01*
X+234598Y+1895812D01*
X+234598Y+1925968D01*
X+241300Y+1933507D01*
X+254703Y+1933507D01*
X+261404Y+1925968D01*
X+261404Y+1903351D01*
X+254703Y+1895812D01*
D54*
X+1422950Y+4155200D02*
X+1585650Y+4155200D01*
X+1585650Y+4317900D01*
X+1422950Y+4317900D01*
X+1422950Y+4155200D01*
D111*
X+1436800Y+4251550D02*
X+1470550Y+4251550D01*
X+1453675Y+4251550D02*
X+1453675Y+4221550D01*
X+1481800Y+4221550D02*
X+1481800Y+4251550D01*
X+1509925Y+4251550D01*
X+1515550Y+4246550D01*
X+1515550Y+4241550D01*
X+1509925Y+4236550D01*
X+1481800Y+4236550D01*
X+1532425Y+4246550D02*
X+1538050Y+4251550D01*
X+1554925Y+4251550D01*
X+1560550Y+4246550D01*
X+1560550Y+4241550D01*
X+1554925Y+4236550D01*
X+1560550Y+4231550D01*
X+1560550Y+4226550D01*
X+1554925Y+4221550D01*
X+1538050Y+4221550D01*
X+1532425Y+4226550D01*
X+1543675Y+4236550D02*
X+1554925Y+4236550D01*
D54*
X+1953300Y+2495900D02*
X+2116000Y+2495900D01*
X+2116000Y+2658600D01*
X+1953300Y+2658600D01*
X+1953300Y+2495900D01*
D111*
X+1967150Y+2592250D02*
X+2000900Y+2592250D01*
X+1984025Y+2592250D02*
X+1984025Y+2562250D01*
X+2012150Y+2562250D02*
X+2012150Y+2592250D01*
X+2040275Y+2592250D01*
X+2045900Y+2587250D01*
X+2045900Y+2582250D01*
X+2040275Y+2577250D01*
X+2012150Y+2577250D01*
X+2090900Y+2572250D02*
X+2057150Y+2572250D01*
X+2079650Y+2592250D01*
X+2079650Y+2562250D01*
D54*
X+1953300Y+2749900D02*
X+2116000Y+2749900D01*
X+2116000Y+2912600D01*
X+1953300Y+2912600D01*
X+1953300Y+2749900D01*
D111*
X+1967150Y+2846250D02*
X+2000900Y+2846250D01*
X+1984025Y+2846250D02*
X+1984025Y+2816250D01*
X+2012150Y+2816250D02*
X+2012150Y+2846250D01*
X+2040275Y+2846250D01*
X+2045900Y+2841250D01*
X+2045900Y+2836250D01*
X+2040275Y+2831250D01*
X+2012150Y+2831250D01*
X+2090900Y+2846250D02*
X+2062775Y+2846250D01*
X+2062775Y+2836250D01*
X+2085275Y+2836250D01*
X+2090900Y+2831250D01*
X+2090900Y+2821250D01*
X+2085275Y+2816250D01*
X+2068400Y+2816250D01*
X+2062775Y+2821250D01*
D54*
X+1696000Y+4409200D02*
X+1858700Y+4409200D01*
X+1858700Y+4571900D01*
X+1696000Y+4571900D01*
X+1696000Y+4409200D01*
D111*
X+1709850Y+4505550D02*
X+1743600Y+4505550D01*
X+1726725Y+4505550D02*
X+1726725Y+4475550D01*
X+1754850Y+4475550D02*
X+1754850Y+4505550D01*
X+1782975Y+4505550D01*
X+1788600Y+4500550D01*
X+1788600Y+4495550D01*
X+1782975Y+4490550D01*
X+1754850Y+4490550D01*
X+1833600Y+4500550D02*
X+1827975Y+4505550D01*
X+1811100Y+4505550D01*
X+1805475Y+4500550D01*
X+1805475Y+4480550D01*
X+1811100Y+4475550D01*
X+1827975Y+4475550D01*
X+1833600Y+4480550D01*
X+1833600Y+4485550D01*
X+1827975Y+4490550D01*
X+1805475Y+4490550D01*
D54*
X+4855850Y+3396949D02*
X+5018550Y+3396949D01*
X+5018550Y+3559649D01*
X+4855850Y+3559649D01*
X+4855850Y+3396949D01*
D111*
X+4869700Y+3493299D02*
X+4903450Y+3493299D01*
X+4886575Y+3493299D02*
X+4886575Y+3463299D01*
X+4914700Y+3463299D02*
X+4914700Y+3493299D01*
X+4942825Y+3493299D01*
X+4948450Y+3488299D01*
X+4948450Y+3483299D01*
X+4942825Y+3478299D01*
X+4914700Y+3478299D01*
X+4965325Y+3493299D02*
X+4993450Y+3493299D01*
X+4993450Y+3488299D01*
X+4965325Y+3463299D01*
D54*
X+5928750Y+2293549D02*
X+6091450Y+2293549D01*
X+6091450Y+2456249D01*
X+5928750Y+2456249D01*
X+5928750Y+2293549D01*
D111*
X+5942600Y+2389899D02*
X+5976350Y+2389899D01*
X+5959475Y+2389899D02*
X+5959475Y+2359899D01*
X+5987600Y+2359899D02*
X+5987600Y+2389899D01*
X+6015725Y+2389899D01*
X+6021350Y+2384899D01*
X+6021350Y+2379899D01*
X+6015725Y+2374899D01*
X+5987600Y+2374899D01*
X+6043850Y+2374899D02*
X+6038225Y+2379899D01*
X+6038225Y+2384899D01*
X+6043850Y+2389899D01*
X+6060725Y+2389899D01*
X+6066350Y+2384899D01*
X+6066350Y+2379899D01*
X+6060725Y+2374899D01*
X+6043850Y+2374899D01*
X+6038225Y+2369899D01*
X+6038225Y+2364899D01*
X+6043850Y+2359899D01*
X+6060725Y+2359899D01*
X+6066350Y+2364899D01*
X+6066350Y+2369899D01*
X+6060725Y+2374899D01*
D54*
X+2118400Y+2622900D02*
X+2281100Y+2622900D01*
X+2281100Y+2785600D01*
X+2118400Y+2785600D01*
X+2118400Y+2622900D01*
D111*
X+2132250Y+2719250D02*
X+2166000Y+2719250D01*
X+2149125Y+2719250D02*
X+2149125Y+2689250D01*
X+2177250Y+2689250D02*
X+2177250Y+2719250D01*
X+2205375Y+2719250D01*
X+2211000Y+2714250D01*
X+2211000Y+2709250D01*
X+2205375Y+2704250D01*
X+2177250Y+2704250D01*
X+2256000Y+2709250D02*
X+2250375Y+2704250D01*
X+2233500Y+2704250D01*
X+2227875Y+2709250D01*
X+2227875Y+2714250D01*
X+2233500Y+2719250D01*
X+2250375Y+2719250D01*
X+2256000Y+2714250D01*
X+2256000Y+2694250D01*
X+2250375Y+2689250D01*
X+2233500Y+2689250D01*
D54*
X+1175950Y+572700D02*
X+1338650Y+572700D01*
X+1338650Y+735400D01*
X+1175950Y+735400D01*
X+1175950Y+572700D01*
D127*
X+1189800Y+665300D02*
X+1215112Y+665300D01*
X+1202456Y+665300D02*
X+1202456Y+642800D01*
X+1223550Y+642800D02*
X+1223550Y+665300D01*
X+1244643Y+665300D01*
X+1248862Y+661550D01*
X+1248862Y+657800D01*
X+1244643Y+654050D01*
X+1223550Y+654050D01*
X+1265737Y+657800D02*
X+1274175Y+665300D01*
X+1274175Y+642800D01*
X+1291050Y+646550D02*
X+1291050Y+661550D01*
X+1295268Y+665300D01*
X+1312143Y+665300D01*
X+1316362Y+661550D01*
X+1316362Y+646550D01*
X+1312143Y+642800D01*
X+1295268Y+642800D01*
X+1291050Y+646550D01*
X+1291050Y+642800D02*
X+1316362Y+665300D01*
D52*
X+1362360Y+966800D02*
X+1717360Y+966800D01*
X+1717360Y+1166800D01*
X+1362360Y+1166800D01*
X+1362360Y+966800D01*
D101*
X+1659860Y+1066800D02*
X+1659860Y+1066800D01*
D128*
X+1421455Y+1039793D02*
X+1421455Y+1093807D01*
X+1461965Y+1093807D01*
X+1482220Y+1075802D01*
X+1482220Y+1057798D01*
X+1461965Y+1039793D01*
X+1421455Y+1039793D01*
X+1563240Y+1084805D02*
X+1553112Y+1093807D01*
X+1522730Y+1093807D01*
X+1512602Y+1084805D01*
X+1512602Y+1048795D01*
X+1522730Y+1039793D01*
X+1553112Y+1039793D01*
X+1563240Y+1048795D01*
X+1563240Y+1057798D01*
X+1553112Y+1066800D01*
X+1512602Y+1066800D01*
D52*
X+2342700Y+1155850D02*
X+2752700Y+1155850D01*
X+2752700Y+1844850D01*
X+2342700Y+1844850D01*
X+2342700Y+1155850D01*
D129*
X+2552700Y+1278850D02*
X+2552700Y+1278850D01*
D130*
X+2594364Y+1449996D02*
X+2501037Y+1449996D01*
X+2501037Y+1519990D01*
X+2532146Y+1554987D01*
X+2563255Y+1554987D01*
X+2594364Y+1519990D01*
X+2594364Y+1449996D01*
X+2501037Y+1607483D02*
X+2501037Y+1694976D01*
X+2516592Y+1694976D01*
X+2594364Y+1607483D01*
D111*
X+2081000Y+1274350D02*
X+2341000Y+1274350D01*
X+2341000Y+1724350D01*
X+2081000Y+1724350D01*
X+2081000Y+1274350D01*
D131*
X+2136000Y+1341350D02*
X+2136000Y+1341350D01*
D132*
X+2175071Y+1433061D02*
X+2234954Y+1433061D01*
X+2246930Y+1446534D01*
X+2246930Y+1500429D01*
X+2234954Y+1513902D01*
X+2175071Y+1513902D01*
X+2175071Y+1554323D02*
X+2175071Y+1621691D01*
X+2187047Y+1621691D01*
X+2246930Y+1554323D01*
D52*
X+1918905Y+1193300D02*
X+2084005Y+1193300D01*
X+2084005Y+1504450D01*
X+1918905Y+1504450D01*
X+1918905Y+1193300D01*
D104*
X+2001450Y+1269500D02*
X+2001450Y+1269500D01*
D105*
X+2014957Y+1352544D02*
X+2021707Y+1344949D01*
X+2021707Y+1322166D01*
X+2008206Y+1306978D01*
X+1994705Y+1306978D01*
X+1981204Y+1322166D01*
X+1981204Y+1344949D01*
X+1987954Y+1352544D01*
X+1994705Y+1382921D02*
X+1981204Y+1398110D01*
X+2021707Y+1398110D01*
X+2014957Y+1428488D02*
X+1987954Y+1428488D01*
X+1981204Y+1436082D01*
X+1981204Y+1466459D01*
X+1987954Y+1474054D01*
X+2014957Y+1474054D01*
X+2021707Y+1466459D01*
X+2021707Y+1436082D01*
X+2014957Y+1428488D01*
X+2021707Y+1428488D02*
X+1981204Y+1474054D01*
D52*
X+1918895Y+1546350D02*
X+2083995Y+1546350D01*
X+2083995Y+1857500D01*
X+1918895Y+1857500D01*
X+1918895Y+1546350D01*
D104*
X+2001450Y+1781300D02*
X+2001450Y+1781300D01*
D105*
X+2014947Y+1607124D02*
X+2021697Y+1599529D01*
X+2021697Y+1576746D01*
X+2008196Y+1561558D01*
X+1994695Y+1561558D01*
X+1981194Y+1576746D01*
X+1981194Y+1599529D01*
X+1987944Y+1607124D01*
X+1994695Y+1637501D02*
X+1981194Y+1652690D01*
X+2021697Y+1652690D01*
X+1994695Y+1698256D02*
X+1981194Y+1713445D01*
X+2021697Y+1713445D01*
D52*
X+2749850Y+1243900D02*
X+3104850Y+1243900D01*
X+3104850Y+1808900D01*
X+2749850Y+1808900D01*
X+2749850Y+1243900D01*
D109*
X+2927350Y+1376400D02*
X+2927350Y+1376400D01*
D110*
X+2951644Y+1534153D02*
X+2963791Y+1520487D01*
X+2963791Y+1479491D01*
X+2939497Y+1452161D01*
X+2915203Y+1452161D01*
X+2890909Y+1479491D01*
X+2890909Y+1520487D01*
X+2903056Y+1534153D01*
X+2903056Y+1575149D02*
X+2890909Y+1588814D01*
X+2890909Y+1629810D01*
X+2903056Y+1643476D01*
X+2915203Y+1643476D01*
X+2927350Y+1629810D01*
X+2927350Y+1588814D01*
X+2939497Y+1575149D01*
X+2963791Y+1575149D01*
X+2963791Y+1643476D01*
X+2903056Y+1684472D02*
X+2890909Y+1698137D01*
X+2890909Y+1739133D01*
X+2903056Y+1752799D01*
X+2915203Y+1752799D01*
X+2927350Y+1739133D01*
X+2939497Y+1752799D01*
X+2951644Y+1752799D01*
X+2963791Y+1739133D01*
X+2963791Y+1698137D01*
X+2951644Y+1684472D01*
X+2927350Y+1711803D02*
X+2927350Y+1739133D01*
D52*
X+2197100Y+635000D02*
X+2197100Y+381000D01*
X+2324100Y+381000D01*
X+2197100Y+635000D02*
X+2324100Y+635000D01*
X+2463800Y+635000D02*
X+4737100Y+635000D01*
X+4737100Y+381000D02*
X+2451100Y+381000D01*
X+4737100Y+635000D02*
X+4737100Y+381000D01*
D117*
X+2324100Y+508000D02*
X+2324100Y+508000D01*
D133*
X+3316807Y+490931D02*
X+3316807Y+473862D01*
X+3336009Y+456793D01*
X+3412818Y+456793D01*
X+3432021Y+473862D01*
X+3432021Y+559206D01*
X+3508830Y+525068D02*
X+3547235Y+559206D01*
X+3547235Y+456793D01*
X+3624045Y+473862D02*
X+3624045Y+542137D01*
X+3643247Y+559206D01*
X+3720056Y+559206D01*
X+3739259Y+542137D01*
X+3739259Y+473862D01*
X+3720056Y+456793D01*
X+3643247Y+456793D01*
X+3624045Y+473862D01*
X+3624045Y+456793D02*
X+3739259Y+559206D01*
D52*
X+4737100Y+635000D02*
X+4864100Y+635000D01*
X+4737100Y+635000D02*
X+4737100Y+381000D01*
X+4864100Y+381000D01*
X+4991100Y+635000D02*
X+6515100Y+635000D01*
X+6515100Y+381000D01*
X+4991100Y+381000D01*
D117*
X+4864100Y+508000D02*
X+4864100Y+508000D01*
D133*
X+5552616Y+490931D02*
X+5552616Y+473862D01*
X+5571818Y+456793D01*
X+5648627Y+456793D01*
X+5667830Y+473862D01*
X+5667830Y+559206D01*
X+5821449Y+525068D02*
X+5802246Y+508000D01*
X+5744639Y+508000D01*
X+5725437Y+525068D01*
X+5725437Y+542137D01*
X+5744639Y+559206D01*
X+5802246Y+559206D01*
X+5821449Y+542137D01*
X+5821449Y+473862D01*
X+5802246Y+456793D01*
X+5744639Y+456793D01*
D52*
X+4483100Y+4953000D02*
X+4483100Y+4699000D01*
X+4483100Y+4953000D02*
X+4610100Y+4953000D01*
X+4483100Y+4699000D02*
X+4610100Y+4699000D01*
X+4737100Y+4953000D02*
X+6515100Y+4953000D01*
X+6515100Y+4699000D01*
X+4737100Y+4699000D01*
D117*
X+4610100Y+4826000D02*
X+4610100Y+4826000D01*
D133*
X+5425616Y+4808931D02*
X+5425616Y+4791862D01*
X+5444818Y+4774793D01*
X+5521627Y+4774793D01*
X+5540830Y+4791862D01*
X+5540830Y+4877206D01*
X+5598437Y+4860137D02*
X+5617639Y+4877206D01*
X+5675246Y+4877206D01*
X+5694449Y+4860137D01*
X+5694449Y+4843068D01*
X+5675246Y+4826000D01*
X+5694449Y+4808931D01*
X+5694449Y+4791862D01*
X+5675246Y+4774793D01*
X+5617639Y+4774793D01*
X+5598437Y+4791862D01*
X+5636842Y+4826000D02*
X+5675246Y+4826000D01*
D52*
X+1790700Y+4953000D02*
X+1790700Y+4699000D01*
X+1917700Y+4699000D01*
X+1790700Y+4953000D02*
X+1917700Y+4953000D01*
X+2057400Y+4953000D02*
X+4330700Y+4953000D01*
X+4330700Y+4699000D02*
X+2044700Y+4699000D01*
X+4330700Y+4953000D02*
X+4330700Y+4699000D01*
D117*
X+1917700Y+4826000D02*
X+1917700Y+4826000D01*
D133*
X+2987216Y+4808931D02*
X+2987216Y+4791862D01*
X+3006418Y+4774793D01*
X+3083227Y+4774793D01*
X+3102430Y+4791862D01*
X+3102430Y+4877206D01*
X+3256049Y+4877206D02*
X+3160037Y+4877206D01*
X+3160037Y+4843068D01*
X+3236846Y+4843068D01*
X+3256049Y+4826000D01*
X+3256049Y+4791862D01*
X+3236846Y+4774793D01*
X+3179239Y+4774793D01*
X+3160037Y+4791862D01*
D52*
X+975200Y+955950D02*
X+955200Y+955950D01*
X+965200Y+945950D02*
X+965200Y+965950D01*
X+790200Y+755950D02*
X+1140200Y+755950D01*
X+1140200Y+1155950D01*
X+790200Y+1155950D01*
X+790200Y+755950D01*
D11*
X+1060200Y+1085950D02*
X+1060200Y+1085950D01*
D120*
X+863248Y+944299D02*
X+863248Y+887659D01*
X+875992Y+876331D01*
X+926968Y+876331D01*
X+939712Y+887659D01*
X+939712Y+944299D01*
X+1041664Y+921643D02*
X+1028920Y+910315D01*
X+990688Y+910315D01*
X+977944Y+921643D01*
X+977944Y+932971D01*
X+990688Y+944299D01*
X+1028920Y+944299D01*
X+1041664Y+932971D01*
X+1041664Y+887659D01*
X+1028920Y+876331D01*
X+990688Y+876331D01*
D52*
X+774180Y+1159970D02*
X+1159180Y+1159970D01*
X+1159180Y+1579970D01*
X+774180Y+1579970D01*
X+774180Y+1159970D01*
D125*
X+1059180Y+1499970D02*
X+1059180Y+1499970D01*
D126*
X+854229Y+1356912D02*
X+854229Y+1294439D01*
X+868285Y+1281945D01*
X+924510Y+1281945D01*
X+938567Y+1294439D01*
X+938567Y+1356912D01*
X+994792Y+1331923D02*
X+1022905Y+1356912D01*
X+1022905Y+1281945D01*
D52*
X+582930Y+1207875D02*
X+773430Y+1207875D01*
X+773430Y+1576175D01*
X+582930Y+1576175D01*
X+582930Y+1207875D01*
D114*
X+678180Y+1499970D02*
X+678180Y+1499970D01*
D115*
X+695028Y+1320364D02*
X+703452Y+1310887D01*
X+703452Y+1282456D01*
X+686604Y+1263502D01*
X+669756Y+1263502D01*
X+652908Y+1282456D01*
X+652908Y+1310887D01*
X+661332Y+1320364D01*
X+661332Y+1348795D02*
X+652908Y+1358272D01*
X+652908Y+1386703D01*
X+661332Y+1396180D01*
X+669756Y+1396180D01*
X+678180Y+1386703D01*
X+686604Y+1396180D01*
X+695028Y+1396180D01*
X+703452Y+1386703D01*
X+703452Y+1358272D01*
X+695028Y+1348795D01*
X+678180Y+1367749D02*
X+678180Y+1386703D01*
D52*
X+596655Y+805300D02*
X+761755Y+805300D01*
X+761755Y+1116450D01*
X+596655Y+1116450D01*
X+596655Y+805300D01*
D104*
X+679200Y+881500D02*
X+679200Y+881500D01*
D105*
X+692707Y+964544D02*
X+699457Y+956949D01*
X+699457Y+934166D01*
X+685956Y+918978D01*
X+672455Y+918978D01*
X+658954Y+934166D01*
X+658954Y+956949D01*
X+665704Y+964544D01*
X+665704Y+987327D02*
X+658954Y+994921D01*
X+658954Y+1017704D01*
X+665704Y+1025299D01*
X+672455Y+1025299D01*
X+679205Y+1017704D01*
X+679205Y+994921D01*
X+685956Y+987327D01*
X+699457Y+987327D01*
X+699457Y+1025299D01*
X+685956Y+1086054D02*
X+685956Y+1040488D01*
X+658954Y+1070865D01*
X+699457Y+1070865D01*
D52*
X+783595Y+562710D02*
X+1151895Y+562710D01*
X+1151895Y+753210D01*
X+783595Y+753210D01*
X+783595Y+562710D01*
D114*
X+1075690Y+657960D02*
X+1075690Y+657960D01*
D115*
X+858176Y+641112D02*
X+848699Y+632688D01*
X+820268Y+632688D01*
X+801314Y+649536D01*
X+801314Y+666384D01*
X+820268Y+683232D01*
X+848699Y+683232D01*
X+858176Y+674808D01*
X+886607Y+674808D02*
X+896084Y+683232D01*
X+924515Y+683232D01*
X+933992Y+674808D01*
X+933992Y+666384D01*
X+924515Y+657960D01*
X+896084Y+657960D01*
X+886607Y+649536D01*
X+886607Y+632688D01*
X+933992Y+632688D01*
X+1009808Y+674808D02*
X+1000331Y+683232D01*
X+971900Y+683232D01*
X+962423Y+674808D01*
X+962423Y+641112D01*
X+971900Y+632688D01*
X+1000331Y+632688D01*
X+1009808Y+641112D01*
X+1009808Y+649536D01*
X+1000331Y+657960D01*
X+962423Y+657960D01*
D52*
X+1161800Y+793855D02*
X+1352300Y+793855D01*
X+1352300Y+1162155D01*
X+1161800Y+1162155D01*
X+1161800Y+793855D01*
D114*
X+1257050Y+1085950D02*
X+1257050Y+1085950D01*
D115*
X+1273898Y+868436D02*
X+1282322Y+858959D01*
X+1282322Y+830528D01*
X+1265474Y+811574D01*
X+1248626Y+811574D01*
X+1231778Y+830528D01*
X+1231778Y+858959D01*
X+1240202Y+868436D01*
X+1240202Y+896867D02*
X+1231778Y+906344D01*
X+1231778Y+934775D01*
X+1240202Y+944252D01*
X+1248626Y+944252D01*
X+1257050Y+934775D01*
X+1257050Y+906344D01*
X+1265474Y+896867D01*
X+1282322Y+896867D01*
X+1282322Y+944252D01*
X+1231778Y+972683D02*
X+1231778Y+1020068D01*
X+1240202Y+1020068D01*
X+1282322Y+972683D01*
M02*
